<svg xmlns:inkscape="http://www.inkscape.org/namespaces/inkscape" xmlns:sodipodi="http://sodipodi.sourceforge.net/DTD/sodipodi-0.dtd" xmlns="http://www.w3.org/2000/svg" xmlns:svg="http://www.w3.org/2000/svg" width="38.713478mm" height="38.713833mm" viewBox="0 0 38.713478 38.713833" id="svg1" inkscape:version="1.3.2 (091e20e, 2023-11-25)" sodipodi:docname="1.svg"><defs id="defs1"><clipPath clipPathUnits="userSpaceOnUse" id="clipPath213"><path d="M 0,5339.669 H 1920 V 0 H 0 Z" transform="translate(-1189.4028,-2117.7657)" id="path213"></path></clipPath><clipPath clipPathUnits="userSpaceOnUse" id="clipPath219"><path d="M 0,5339.669 H 1920 V 0 H 0 Z" transform="translate(-1189.4028,-1816.8121)" id="path219"></path></clipPath><clipPath clipPathUnits="userSpaceOnUse" id="clipPath278"><path d="M 0,5339.669 H 1920 V 0 H 0 Z" transform="translate(-1189.4028,-1515.8586)" id="path278"></path></clipPath><clipPath clipPathUnits="userSpaceOnUse" id="clipPath281"><path d="M 0,5339.669 H 1920 V 0 H 0 Z" transform="translate(-1067.1783,-2140.9819)" id="path281"></path></clipPath><clipPath clipPathUnits="userSpaceOnUse" id="clipPath283"><path d="M 0,5339.669 H 1920 V 0 H 0 Z" transform="translate(-1118.5218,-2140.9819)" id="path283"></path></clipPath><clipPath clipPathUnits="userSpaceOnUse" id="clipPath285"><path d="M 0,5339.669 H 1920 V 0 H 0 Z" transform="translate(-1109.7243,-2081.4241)" id="path285"></path></clipPath><clipPath clipPathUnits="userSpaceOnUse" id="clipPath287"><path d="M 0,5339.669 H 1920 V 0 H 0 Z" transform="translate(-1160.2399,-1532.4435)" id="path287"></path></clipPath><clipPath clipPathUnits="userSpaceOnUse" id="clipPath289"><path d="M 0,5339.669 H 1920 V 0 H 0 Z" id="path289"></path></clipPath><clipPath clipPathUnits="userSpaceOnUse" id="clipPath291"><path d="M 0,5339.669 H 1920 V 0 H 0 Z" transform="translate(-1074.186,-1829.8585)" id="path291"></path></clipPath><clipPath clipPathUnits="userSpaceOnUse" id="clipPath293"><path d="M 0,5339.669 H 1920 V 0 H 0 Z" transform="translate(-1143.3045,-1779.2842)" id="path293"></path></clipPath><clipPath clipPathUnits="userSpaceOnUse" id="clipPath295"><path d="M 0,5339.669 H 1920 V 0 H 0 Z" transform="translate(-1121.7828,-1794.6852)" id="path295"></path></clipPath><clipPath clipPathUnits="userSpaceOnUse" id="clipPath219-3"><path d="M 0,5339.669 H 1920 V 0 H 0 Z" transform="translate(-1189.4028,-1816.8121)" id="path219-6"></path></clipPath><clipPath clipPathUnits="userSpaceOnUse" id="clipPath278-5"><path d="M 0,5339.669 H 1920 V 0 H 0 Z" transform="translate(-1189.4028,-1515.8586)" id="path278-5"></path></clipPath><clipPath clipPathUnits="userSpaceOnUse" id="clipPath287-8"><path d="M 0,5339.669 H 1920 V 0 H 0 Z" transform="translate(-1160.2399,-1532.4435)" id="path287-1"></path></clipPath><clipPath clipPathUnits="userSpaceOnUse" id="clipPath289-4"><path d="M 0,5339.669 H 1920 V 0 H 0 Z" id="path289-7"></path></clipPath><clipPath clipPathUnits="userSpaceOnUse" id="clipPath291-1"><path d="M 0,5339.669 H 1920 V 0 H 0 Z" transform="translate(-1074.186,-1829.8585)" id="path291-3"></path></clipPath><clipPath clipPathUnits="userSpaceOnUse" id="clipPath293-8"><path d="M 0,5339.669 H 1920 V 0 H 0 Z" transform="translate(-1143.3045,-1779.2842)" id="path293-4"></path></clipPath><clipPath clipPathUnits="userSpaceOnUse" id="clipPath295-8"><path d="M 0,5339.669 H 1920 V 0 H 0 Z" transform="translate(-1121.7828,-1794.6852)" id="path295-0"></path></clipPath><clipPath clipPathUnits="userSpaceOnUse" id="clipPath278-5-1"><path d="M 0,5339.669 H 1920 V 0 H 0 Z" transform="translate(-1189.4028,-1515.8586)" id="path278-5-5"></path></clipPath><clipPath clipPathUnits="userSpaceOnUse" id="clipPath287-8-3"><path d="M 0,5339.669 H 1920 V 0 H 0 Z" transform="translate(-1160.2399,-1532.4435)" id="path287-1-5"></path></clipPath><clipPath clipPathUnits="userSpaceOnUse" id="clipPath120"><path d="M 0,5339.669 H 1920 V 0 H 0 Z" transform="translate(-258.44301,-3849.1532)" id="path120"></path></clipPath><clipPath clipPathUnits="userSpaceOnUse" id="clipPath132"><path d="M 0,5339.669 H 1920 V 0 H 0 Z" transform="translate(-255.54991,-3621.8556)" id="path132"></path></clipPath><clipPath clipPathUnits="userSpaceOnUse" id="clipPath139"><path d="M 0,5339.669 H 1920 V 0 H 0 Z" transform="translate(-254.02201,-3401.0484)" id="path139"></path></clipPath><clipPath clipPathUnits="userSpaceOnUse" id="clipPath254"><path d="M 0,5339.669 H 1920 V 0 H 0 Z" transform="translate(-254.02201,-3180.681)" id="path254"></path></clipPath><clipPath clipPathUnits="userSpaceOnUse" id="clipPath261"><path d="M 0,5339.669 H 1920 V 0 H 0 Z" transform="translate(-254.02201,-2960.3136)" id="path261"></path></clipPath><clipPath clipPathUnits="userSpaceOnUse" id="clipPath271"><path d="M 0,5339.669 H 1920 V 0 H 0 Z" transform="translate(-258.46351,-2739.9463)" id="path271"></path></clipPath></defs><g inkscape:label="Capa 1" inkscape:groupmode="layer" id="layer1" transform="translate(-52.359626,217.75206)"><path id="path119" d="m 0,0 c 0,-30.304 -24.566,-54.87 -54.87,-54.87 -30.303,0 -54.869,24.566 -54.869,54.87 0,30.304 24.566,54.87 54.869,54.87 C -24.566,54.87 0,30.304 0,0" style="fill:#009539;fill-opacity:1;fill-rule:nonzero;stroke:none" transform="matrix(0.35277776,0,0,-0.35277776,91.073105,-198.39514)" clip-path="url(#clipPath120)"></path><path id="path121" d="m 70.771285,-191.51194 v -11.41843 H 67.71204 v -2.37711 c 0.60048,-0.0134 1.143083,-0.0713 1.628841,-0.17364 0.484725,-0.10438 0.917774,-0.28112 1.298112,-0.52916 0.380339,-0.25012 0.711068,-0.60979 0.992188,-1.07901 h 2.286165 v 15.57735 z m 0,0" style="fill:#ffffff;fill-opacity:1;fill-rule:nonzero;stroke:none;stroke-width:0.352778" aria-label="1"></path></g></svg>