<svg xmlns:inkscape="http://www.inkscape.org/namespaces/inkscape" xmlns:sodipodi="http://sodipodi.sourceforge.net/DTD/sodipodi-0.dtd" xmlns="http://www.w3.org/2000/svg" xmlns:svg="http://www.w3.org/2000/svg" width="57.702446mm" height="57.702446mm" viewBox="0 0 57.702446 57.702446" id="svg1" inkscape:version="1.3.2 (091e20e, 2023-11-25)" sodipodi:docname="10-01.svg"><defs id="defs1"><clipPath clipPathUnits="userSpaceOnUse" id="clipPath213"><path d="M 0,5339.669 H 1920 V 0 H 0 Z" transform="translate(-1189.4028,-2117.7657)" id="path213"></path></clipPath><clipPath clipPathUnits="userSpaceOnUse" id="clipPath219"><path d="M 0,5339.669 H 1920 V 0 H 0 Z" transform="translate(-1189.4028,-1816.8121)" id="path219"></path></clipPath><clipPath clipPathUnits="userSpaceOnUse" id="clipPath278"><path d="M 0,5339.669 H 1920 V 0 H 0 Z" transform="translate(-1189.4028,-1515.8586)" id="path278"></path></clipPath><clipPath clipPathUnits="userSpaceOnUse" id="clipPath281"><path d="M 0,5339.669 H 1920 V 0 H 0 Z" transform="translate(-1067.1783,-2140.9819)" id="path281"></path></clipPath><clipPath clipPathUnits="userSpaceOnUse" id="clipPath283"><path d="M 0,5339.669 H 1920 V 0 H 0 Z" transform="translate(-1118.5218,-2140.9819)" id="path283"></path></clipPath><clipPath clipPathUnits="userSpaceOnUse" id="clipPath285"><path d="M 0,5339.669 H 1920 V 0 H 0 Z" transform="translate(-1109.7243,-2081.4241)" id="path285"></path></clipPath><clipPath clipPathUnits="userSpaceOnUse" id="clipPath287"><path d="M 0,5339.669 H 1920 V 0 H 0 Z" transform="translate(-1160.2399,-1532.4435)" id="path287"></path></clipPath><clipPath clipPathUnits="userSpaceOnUse" id="clipPath289"><path d="M 0,5339.669 H 1920 V 0 H 0 Z" id="path289"></path></clipPath><clipPath clipPathUnits="userSpaceOnUse" id="clipPath291"><path d="M 0,5339.669 H 1920 V 0 H 0 Z" transform="translate(-1074.186,-1829.8585)" id="path291"></path></clipPath><clipPath clipPathUnits="userSpaceOnUse" id="clipPath293"><path d="M 0,5339.669 H 1920 V 0 H 0 Z" transform="translate(-1143.3045,-1779.2842)" id="path293"></path></clipPath><clipPath clipPathUnits="userSpaceOnUse" id="clipPath295"><path d="M 0,5339.669 H 1920 V 0 H 0 Z" transform="translate(-1121.7828,-1794.6852)" id="path295"></path></clipPath></defs><g inkscape:label="Capa 1" inkscape:groupmode="layer" id="layer1" transform="translate(-104.51041,-38.364627)"><path id="path212" d="m 0,0 c 0,-45.167 -36.616,-81.783 -81.783,-81.783 -45.168,0 -81.783,36.616 -81.783,81.783 0,45.168 36.615,81.783 81.783,81.783 C -36.616,81.783 0,45.168 0,0" style="fill:#dbede2;fill-opacity:1;fill-rule:nonzero;stroke:none" transform="matrix(0.35277776,0,0,-0.35277776,162.21286,67.215851)" clip-path="url(#clipPath213)"></path><path id="path280" d="m 0,0 c 2.973,2.975 6.921,4.613 11.112,4.616 8.666,0 15.721,-7.053 15.725,-15.72 0,-4.188 -1.637,-8.136 -4.612,-11.114 -2.97,-2.972 -6.916,-4.609 -11.106,-4.609 h -0.007 c -8.665,0 -15.716,7.049 -15.721,15.71 0,4.194 1.638,8.142 4.609,11.117 m 11.112,-32.487 h 0.007 c 5.703,0 11.069,2.227 15.108,6.271 4.043,4.045 6.27,9.413 6.268,15.115 -0.007,11.786 -9.598,21.372 -21.383,21.372 -5.704,0 -11.072,-2.229 -15.113,-6.27 -4.041,-4.044 -6.267,-9.413 -6.266,-15.118 0.006,-11.783 9.597,-21.37 21.379,-21.37" style="fill:#16392c;fill-opacity:1;fill-rule:nonzero;stroke:none" transform="matrix(0.35277776,0,0,-0.35277776,119.0948,59.025674)" clip-path="url(#clipPath281)"></path><path id="path282" d="m 0,0 c 2.973,2.975 6.919,4.613 11.114,4.616 8.662,0 15.717,-7.053 15.722,-15.72 0,-4.188 -1.638,-8.136 -4.613,-11.114 -2.97,-2.972 -6.914,-4.609 -11.105,-4.609 h -0.004 c -8.669,0 -15.722,7.049 -15.725,15.71 0,4.194 1.636,8.142 4.611,11.117 m 11.114,-32.487 h 0.004 c 5.705,0 11.07,2.227 15.108,6.271 4.043,4.045 6.269,9.413 6.267,15.115 -0.007,11.786 -9.596,21.372 -21.379,21.372 -5.707,0 -11.076,-2.229 -15.116,-6.27 -4.044,-4.044 -6.266,-9.413 -6.266,-15.118 0.003,-11.783 9.596,-21.37 21.382,-21.37" style="fill:#16392c;fill-opacity:1;fill-rule:nonzero;stroke:none" transform="matrix(0.35277776,0,0,-0.35277776,137.20762,59.025674)" clip-path="url(#clipPath283)"></path><path id="path284" d="m 0,0 c 4.591,3.834 11.935,10.683 14.487,17.117 7.624,-1.735 14.862,0.736 19.356,3.44 5.753,-6.512 7.098,-15.944 7.406,-20.547 z m -20.744,21.369 c 0,3.409 2.012,4.663 3.697,5.114 0.558,0.151 1.158,0.224 1.781,0.224 2.84,0 5.417,-1.528 6.889,-4.088 0.825,-1.427 2.377,-2.32 4.072,-2.326 1.676,0.013 3.22,0.936 4.029,2.403 1.877,3.403 5.724,4.442 8.552,3.714 1.722,-0.445 3.776,-1.679 3.776,-5.041 0,-5.452 -8.073,-14.106 -16.392,-20.577 -6.534,5.131 -16.404,14.48 -16.404,20.577 M -52.726,0 c 0.866,10.793 5.557,17.592 8.049,20.496 7.409,-4.92 15.199,-4.565 21.222,-2.62 2.031,-5.95 8.504,-12.418 13.255,-16.569 0.044,-0.462 0.082,-0.903 0.107,-1.297 z m 99.717,-2.911 c 0.024,0.762 0.483,18.815 -10.87,29.213 -1.014,0.93 -2.545,0.993 -3.635,0.157 -0.098,-0.076 -8.059,-6.046 -17.182,-3.713 -0.653,5.061 -4.835,6.558 -6.192,6.906 -4.078,1.049 -9.62,-0.445 -12.321,-5.342 -0.225,-0.411 -0.658,-0.665 -1.105,-0.668 -0.476,0 -0.932,0.257 -1.159,0.648 -2.079,3.61 -5.738,5.766 -9.793,5.766 -0.915,0 -1.808,-0.113 -2.647,-0.337 -1.238,-0.331 -4.863,-1.668 -5.894,-5.923 -4.752,-1.896 -12.241,-3.192 -19.402,2.64 -1.066,0.869 -2.603,0.843 -3.64,-0.057 -0.465,-0.404 -11.395,-10.121 -11.669,-29.17 -0.01,-0.756 0.284,-1.484 0.815,-2.026 0.534,-0.538 1.257,-0.842 2.016,-0.842 l 48.509,0.01 c 0.514,0 0.991,0.147 1.409,0.388 0.429,-0.251 0.917,-0.398 1.424,-0.398 l 48.508,0.01 c 1.526,0 2.775,1.21 2.828,2.738" style="fill:#16392c;fill-opacity:1;fill-rule:nonzero;stroke:none" transform="matrix(0.35277776,0,0,-0.35277776,134.10406,80.036342)" clip-path="url(#clipPath285)"></path></g></svg>