<svg xmlns:inkscape="http://www.inkscape.org/namespaces/inkscape" xmlns:sodipodi="http://sodipodi.sourceforge.net/DTD/sodipodi-0.dtd" xmlns="http://www.w3.org/2000/svg" xmlns:svg="http://www.w3.org/2000/svg" width="57.702446mm" height="57.702446mm" viewBox="0 0 57.702446 57.702446" id="svg1" inkscape:version="1.3.2 (091e20e, 2023-11-25)" sodipodi:docname="10-03.svg"><defs id="defs1"><clipPath clipPathUnits="userSpaceOnUse" id="clipPath213"><path d="M 0,5339.669 H 1920 V 0 H 0 Z" transform="translate(-1189.4028,-2117.7657)" id="path213"></path></clipPath><clipPath clipPathUnits="userSpaceOnUse" id="clipPath219"><path d="M 0,5339.669 H 1920 V 0 H 0 Z" transform="translate(-1189.4028,-1816.8121)" id="path219"></path></clipPath><clipPath clipPathUnits="userSpaceOnUse" id="clipPath278"><path d="M 0,5339.669 H 1920 V 0 H 0 Z" transform="translate(-1189.4028,-1515.8586)" id="path278"></path></clipPath><clipPath clipPathUnits="userSpaceOnUse" id="clipPath281"><path d="M 0,5339.669 H 1920 V 0 H 0 Z" transform="translate(-1067.1783,-2140.9819)" id="path281"></path></clipPath><clipPath clipPathUnits="userSpaceOnUse" id="clipPath283"><path d="M 0,5339.669 H 1920 V 0 H 0 Z" transform="translate(-1118.5218,-2140.9819)" id="path283"></path></clipPath><clipPath clipPathUnits="userSpaceOnUse" id="clipPath285"><path d="M 0,5339.669 H 1920 V 0 H 0 Z" transform="translate(-1109.7243,-2081.4241)" id="path285"></path></clipPath><clipPath clipPathUnits="userSpaceOnUse" id="clipPath287"><path d="M 0,5339.669 H 1920 V 0 H 0 Z" transform="translate(-1160.2399,-1532.4435)" id="path287"></path></clipPath><clipPath clipPathUnits="userSpaceOnUse" id="clipPath289"><path d="M 0,5339.669 H 1920 V 0 H 0 Z" id="path289"></path></clipPath><clipPath clipPathUnits="userSpaceOnUse" id="clipPath291"><path d="M 0,5339.669 H 1920 V 0 H 0 Z" transform="translate(-1074.186,-1829.8585)" id="path291"></path></clipPath><clipPath clipPathUnits="userSpaceOnUse" id="clipPath293"><path d="M 0,5339.669 H 1920 V 0 H 0 Z" transform="translate(-1143.3045,-1779.2842)" id="path293"></path></clipPath><clipPath clipPathUnits="userSpaceOnUse" id="clipPath295"><path d="M 0,5339.669 H 1920 V 0 H 0 Z" transform="translate(-1121.7828,-1794.6852)" id="path295"></path></clipPath><clipPath clipPathUnits="userSpaceOnUse" id="clipPath219-3"><path d="M 0,5339.669 H 1920 V 0 H 0 Z" transform="translate(-1189.4028,-1816.8121)" id="path219-6"></path></clipPath><clipPath clipPathUnits="userSpaceOnUse" id="clipPath278-5"><path d="M 0,5339.669 H 1920 V 0 H 0 Z" transform="translate(-1189.4028,-1515.8586)" id="path278-5"></path></clipPath><clipPath clipPathUnits="userSpaceOnUse" id="clipPath287-8"><path d="M 0,5339.669 H 1920 V 0 H 0 Z" transform="translate(-1160.2399,-1532.4435)" id="path287-1"></path></clipPath><clipPath clipPathUnits="userSpaceOnUse" id="clipPath289-4"><path d="M 0,5339.669 H 1920 V 0 H 0 Z" id="path289-7"></path></clipPath><clipPath clipPathUnits="userSpaceOnUse" id="clipPath291-1"><path d="M 0,5339.669 H 1920 V 0 H 0 Z" transform="translate(-1074.186,-1829.8585)" id="path291-3"></path></clipPath><clipPath clipPathUnits="userSpaceOnUse" id="clipPath293-8"><path d="M 0,5339.669 H 1920 V 0 H 0 Z" transform="translate(-1143.3045,-1779.2842)" id="path293-4"></path></clipPath><clipPath clipPathUnits="userSpaceOnUse" id="clipPath295-8"><path d="M 0,5339.669 H 1920 V 0 H 0 Z" transform="translate(-1121.7828,-1794.6852)" id="path295-0"></path></clipPath><clipPath clipPathUnits="userSpaceOnUse" id="clipPath278-5-1"><path d="M 0,5339.669 H 1920 V 0 H 0 Z" transform="translate(-1189.4028,-1515.8586)" id="path278-5-5"></path></clipPath><clipPath clipPathUnits="userSpaceOnUse" id="clipPath287-8-3"><path d="M 0,5339.669 H 1920 V 0 H 0 Z" transform="translate(-1160.2399,-1532.4435)" id="path287-1-5"></path></clipPath></defs><g inkscape:label="Capa 1" inkscape:groupmode="layer" id="layer1" transform="translate(-54.504163,-26.193786)"><path id="path277" d="m 0,0 c 0,-45.168 -36.616,-81.783 -81.783,-81.783 -45.168,0 -81.783,36.615 -81.783,81.783 0,45.168 36.615,81.783 81.783,81.783 C -36.616,81.783 0,45.168 0,0" style="fill:#dbede2;fill-opacity:1;fill-rule:nonzero;stroke:none" transform="matrix(0.35277776,0,0,-0.35277776,112.20661,55.04501)" clip-path="url(#clipPath278-5-1)"></path><path id="path286" d="m 0,0 -11.501,-11.501 c 0.027,-0.912 0,-1.802 -0.081,-2.677 -0.1,-1.07 -0.28,-2.11 -0.529,-3.125 -1.135,-4.571 -3.729,-8.6 -7.197,-12.245 -4.696,-4.941 -9.617,-9.669 -14.437,-14.493 -5.062,-5.059 -10.1,-10.139 -15.201,-15.161 -0.877,-0.864 -2.132,-2.241 -3.939,-2.384 -1.312,-0.103 -2.211,0.41 -3.086,1.238 -0.786,0.747 -1.04,2.622 -0.736,3.795 0.327,1.271 1.454,2.424 2.437,3.428 2.304,2.363 4.656,4.681 6.985,7.018 1.134,1.139 2.264,2.282 3.381,3.436 1.19,1.23 4.668,3.823 2.718,5.651 -1.793,1.674 -4.355,-1.556 -5.432,-2.641 -1.136,-1.139 -2.273,-2.278 -3.425,-3.402 -5.355,-5.231 -10.64,-10.535 -16.124,-15.622 -2.483,-2.3 -4.426,-2.124 -6.124,-0.132 -1.61,1.894 -1.3,3.784 1.035,6.124 6.068,6.077 12.144,12.146 18.213,18.223 0.85,0.849 1.588,1.406 1.742,2.71 0.114,0.963 -0.236,1.813 -1.225,1.963 -1.671,0.249 -2.397,-0.388 -3.469,-1.461 -7.146,-7.143 -14.281,-14.296 -21.438,-21.424 -2.348,-2.34 -4.971,-2.289 -6.689,0.055 -1.283,1.751 -0.926,3.732 1.162,5.828 7.246,7.277 14.512,14.541 21.789,21.786 1.187,1.183 2.119,2.505 0.665,3.868 -1.39,1.304 -2.589,0.15 -3.65,-0.916 -5.585,-5.608 -11.18,-11.204 -16.792,-16.783 -0.745,-0.743 -1.531,-1.502 -2.441,-2.003 -2.057,-1.132 -4.652,-0.099 -5.523,2.08 -0.894,2.234 0.256,3.652 1.675,5.066 9.285,9.256 18.572,18.511 27.777,27.848 l 3.804,-3.824 c 1.295,-1.3 2.998,-1.952 4.703,-1.952 1.694,0 3.39,0.644 4.683,1.93 l 0.73,0.729 c 1.255,1.249 1.947,2.912 1.949,4.688 0.006,1.667 -0.617,3.227 -1.723,4.451 l -8.436,8.519 -1.659,1.667 2.253,2.264 c 3.487,2.655 6.598,3.586 9.162,3.714 4.698,0.424 8.851,-2.033 8.851,-2.033 l 2.495,2.498 7.926,7.923 z m -23.638,-44.437 c -0.875,-2.179 -3.466,-3.212 -5.523,-2.08 -0.202,0.11 -0.392,0.238 -0.583,0.369 1.854,1.839 3.691,3.693 5.535,5.539 0.798,-1.059 1.209,-2.235 0.571,-3.828 m -4.791,-13.86 c -1.718,-2.344 -4.34,-2.395 -6.688,-0.055 -1.168,1.161 -2.333,2.33 -3.5,3.498 1.925,1.879 3.859,3.747 5.775,5.637 1.082,-1.084 2.172,-2.165 3.252,-3.252 2.088,-2.096 2.443,-4.077 1.161,-5.828 m -11.831,-6.19 c -1.695,-1.993 -3.641,-2.168 -6.124,0.132 -0.384,0.359 -0.762,0.721 -1.146,1.08 0.546,0.359 1.064,0.762 1.544,1.224 1.421,1.373 2.824,2.765 4.24,4.139 0.15,-0.15 0.301,-0.301 0.452,-0.451 2.335,-2.34 2.644,-4.23 1.034,-6.124 m -16.319,-1.531 c -0.875,-0.832 -1.775,-1.341 -3.086,-1.238 -1.808,0.143 -3.062,1.52 -3.939,2.384 -0.535,0.528 -1.066,1.062 -1.601,1.59 1.258,0.678 2.58,1.608 4.009,2.809 0.881,-1.399 1.172,-2.212 2.894,-3.197 0.771,-0.44 1.582,-0.769 2.413,-0.989 -0.141,-0.557 -0.37,-1.051 -0.69,-1.359 m -36.709,30.848 c -3.441,3.63 -6.019,7.648 -7.15,12.197 -0.251,1.015 -0.43,2.055 -0.531,3.125 -0.08,0.875 -0.11,1.765 -0.08,2.677 l -11.5,11.501 24.721,24.72 7.926,-7.922 0.524,-0.524 -0.033,-0.084 3.828,-0.319 0.249,0.619 c 1.51,1.029 7.779,4.509 16.147,-1.872 l 11.071,-11.12 c 0.556,-0.557 0.859,-1.304 0.857,-2.102 0,-0.795 -0.308,-1.539 -0.868,-2.095 l -0.733,-0.729 c -1.159,-1.154 -3.04,-1.151 -4.194,0.011 l -11.327,11.376 -2.754,-1.923 3.065,-3.589 1.328,-1.334 c -1.302,-1.3 -2.604,-2.604 -3.906,-3.904 -0.324,-0.322 -0.506,-0.678 -0.599,-1.033 -0.064,-0.066 -0.128,-0.135 -0.194,-0.201 -7.611,-7.623 -15.249,-15.223 -22.84,-22.863 -1.52,-1.528 -2.52,-3.074 -3.007,-4.612 m 57.33,53.847 c -0.518,0.073 -1.036,0.121 -1.554,0.157 -3.692,1.498 -10.264,2.553 -17.974,-3.38 l -0.183,-0.162 -2.529,-2.542 c -9.525,6.465 -17.089,2.48 -19.217,1.077 l -9.487,9.49 -29.912,-29.913 11.338,-11.337 c 0.088,-5.084 1.894,-10.292 5.406,-15.559 1.444,-2.169 3.134,-4.165 4.964,-6.022 2.338,-2.366 4.706,-4.707 7.058,-7.062 -2.551,-3.718 -1.456,-6.794 1.205,-9.563 2.758,-2.876 5.3,-3.209 9.042,-2.129 0.032,0.011 0.069,-0.003 0.089,-0.033 2.685,-4.018 5.161,-5.966 7.83,-6.179 1.108,-1.077 2.205,-2.168 3.318,-3.241 3.302,-3.187 8.335,-3.898 12.316,-1.619 1.722,0.985 2.013,1.798 2.894,3.197 6.732,-5.652 11.223,-5.754 16.514,2.172 0.021,0.03 0.058,0.044 0.091,0.033 3.742,-1.084 6.284,-0.747 9.042,2.129 2.813,2.926 3.882,6.193 0.742,10.2 -0.026,0.03 -0.836,1.084 -0.797,1.084 2.238,-0.073 4.014,1.352 4.992,2.619 2.605,3.366 2.445,6.905 -0.348,10.388 1.22,1.227 2.456,2.443 3.674,3.674 1.829,1.857 3.52,3.853 4.963,6.022 3.513,5.267 5.319,10.475 5.406,15.555 L 4.263,-0.926 -25.649,28.988 Z" style="fill:#26483b;fill-opacity:1;fill-rule:nonzero;stroke:none" transform="matrix(0.35277776,0,0,-0.35277776,101.91861,49.19425)" clip-path="url(#clipPath287-8-3)"></path></g></svg>