<svg xmlns:inkscape="http://www.inkscape.org/namespaces/inkscape" xmlns:sodipodi="http://sodipodi.sourceforge.net/DTD/sodipodi-0.dtd" xmlns="http://www.w3.org/2000/svg" xmlns:svg="http://www.w3.org/2000/svg" width="57.702446mm" height="57.702446mm" viewBox="0 0 57.702446 57.702446" id="svg1" inkscape:version="1.3.2 (091e20e, 2023-11-25)" sodipodi:docname="10-02.svg"><defs id="defs1"><clipPath clipPathUnits="userSpaceOnUse" id="clipPath213"><path d="M 0,5339.669 H 1920 V 0 H 0 Z" transform="translate(-1189.4028,-2117.7657)" id="path213"></path></clipPath><clipPath clipPathUnits="userSpaceOnUse" id="clipPath219"><path d="M 0,5339.669 H 1920 V 0 H 0 Z" transform="translate(-1189.4028,-1816.8121)" id="path219"></path></clipPath><clipPath clipPathUnits="userSpaceOnUse" id="clipPath278"><path d="M 0,5339.669 H 1920 V 0 H 0 Z" transform="translate(-1189.4028,-1515.8586)" id="path278"></path></clipPath><clipPath clipPathUnits="userSpaceOnUse" id="clipPath281"><path d="M 0,5339.669 H 1920 V 0 H 0 Z" transform="translate(-1067.1783,-2140.9819)" id="path281"></path></clipPath><clipPath clipPathUnits="userSpaceOnUse" id="clipPath283"><path d="M 0,5339.669 H 1920 V 0 H 0 Z" transform="translate(-1118.5218,-2140.9819)" id="path283"></path></clipPath><clipPath clipPathUnits="userSpaceOnUse" id="clipPath285"><path d="M 0,5339.669 H 1920 V 0 H 0 Z" transform="translate(-1109.7243,-2081.4241)" id="path285"></path></clipPath><clipPath clipPathUnits="userSpaceOnUse" id="clipPath287"><path d="M 0,5339.669 H 1920 V 0 H 0 Z" transform="translate(-1160.2399,-1532.4435)" id="path287"></path></clipPath><clipPath clipPathUnits="userSpaceOnUse" id="clipPath289"><path d="M 0,5339.669 H 1920 V 0 H 0 Z" id="path289"></path></clipPath><clipPath clipPathUnits="userSpaceOnUse" id="clipPath291"><path d="M 0,5339.669 H 1920 V 0 H 0 Z" transform="translate(-1074.186,-1829.8585)" id="path291"></path></clipPath><clipPath clipPathUnits="userSpaceOnUse" id="clipPath293"><path d="M 0,5339.669 H 1920 V 0 H 0 Z" transform="translate(-1143.3045,-1779.2842)" id="path293"></path></clipPath><clipPath clipPathUnits="userSpaceOnUse" id="clipPath295"><path d="M 0,5339.669 H 1920 V 0 H 0 Z" transform="translate(-1121.7828,-1794.6852)" id="path295"></path></clipPath><clipPath clipPathUnits="userSpaceOnUse" id="clipPath219-3"><path d="M 0,5339.669 H 1920 V 0 H 0 Z" transform="translate(-1189.4028,-1816.8121)" id="path219-6"></path></clipPath><clipPath clipPathUnits="userSpaceOnUse" id="clipPath278-5"><path d="M 0,5339.669 H 1920 V 0 H 0 Z" transform="translate(-1189.4028,-1515.8586)" id="path278-5"></path></clipPath><clipPath clipPathUnits="userSpaceOnUse" id="clipPath287-8"><path d="M 0,5339.669 H 1920 V 0 H 0 Z" transform="translate(-1160.2399,-1532.4435)" id="path287-1"></path></clipPath><clipPath clipPathUnits="userSpaceOnUse" id="clipPath289-4"><path d="M 0,5339.669 H 1920 V 0 H 0 Z" id="path289-7"></path></clipPath><clipPath clipPathUnits="userSpaceOnUse" id="clipPath291-1"><path d="M 0,5339.669 H 1920 V 0 H 0 Z" transform="translate(-1074.186,-1829.8585)" id="path291-3"></path></clipPath><clipPath clipPathUnits="userSpaceOnUse" id="clipPath293-8"><path d="M 0,5339.669 H 1920 V 0 H 0 Z" transform="translate(-1143.3045,-1779.2842)" id="path293-4"></path></clipPath><clipPath clipPathUnits="userSpaceOnUse" id="clipPath295-8"><path d="M 0,5339.669 H 1920 V 0 H 0 Z" transform="translate(-1121.7828,-1794.6852)" id="path295-0"></path></clipPath></defs><g inkscape:label="Capa 1" inkscape:groupmode="layer" id="layer1" transform="translate(-156.10416,-43.391706)"><path id="path218" d="m 0,0 c 0,-45.168 -36.616,-81.783 -81.783,-81.783 -45.168,0 -81.783,36.615 -81.783,81.783 0,45.168 36.615,81.783 81.783,81.783 C -36.616,81.783 0,45.168 0,0" style="fill:#dbede2;fill-opacity:1;fill-rule:nonzero;stroke:none" transform="matrix(0.35277776,0,0,-0.35277776,213.80661,72.24293)" clip-path="url(#clipPath219-3)"></path><path id="path288" d="m 1049.51,1828.848 h 13.404 v -26.593 h -13.404 z m -1.828,-30.251 h 17.059 c 1.01,0 1.829,0.82 1.829,1.828 v 30.252 c 0,1.01 -0.819,1.828 -1.829,1.828 h -17.059 c -1.008,0 -1.827,-0.818 -1.827,-1.828 v -30.252 c 0,-1.008 0.819,-1.828 1.827,-1.828" style="fill:#252323;fill-opacity:1;fill-rule:nonzero;stroke:none" transform="matrix(0.35277776,0,0,-0.35277776,-205.78823,713.17385)" clip-path="url(#clipPath289-4)"></path><path id="path290" d="M 0,0 29.541,26.35 V -48.483 L 0,-28.464 Z m 30.342,-53.442 c 0.31,-0.209 0.666,-0.316 1.026,-0.316 0.294,0 0.588,0.072 0.856,0.215 0.598,0.315 0.971,0.937 0.971,1.614 v 82.361 c 0,0.719 -0.423,1.373 -1.079,1.666 -0.658,0.296 -1.427,0.176 -1.966,-0.304 L -3.045,2.183 C -3.432,1.835 -3.657,1.339 -3.657,0.819 v -30.253 c 0,-0.605 0.302,-1.171 0.804,-1.512 z" style="fill:#252323;fill-opacity:1;fill-rule:nonzero;stroke:none" transform="matrix(0.35277776,0,0,-0.35277776,173.16069,67.64045)" clip-path="url(#clipPath291-1)"></path><path id="path292" d="m 0,0 c -0.334,0.343 -0.517,0.795 -0.517,1.274 0,0.498 0.196,0.963 0.554,1.31 9.189,8.929 14.249,20.89 14.249,33.683 0,12.794 -5.06,24.755 -14.249,33.682 -0.723,0.704 -0.739,1.863 -0.037,2.585 0.358,0.368 0.835,0.554 1.311,0.554 0.46,0 0.919,-0.173 1.273,-0.517 C 12.489,62.949 17.943,50.055 17.943,36.267 17.943,22.478 12.489,9.586 2.584,-0.036 1.863,-0.736 0.704,-0.72 0,0 m 21.596,36.267 c 0,14.785 -5.846,28.61 -16.463,38.927 C 2.962,77.3 -0.515,77.252 -2.622,75.081 -4.729,72.915 -4.678,69.436 -2.51,67.329 5.965,59.094 10.631,48.063 10.631,36.267 10.631,24.472 5.965,13.441 -2.51,5.208 -3.582,4.165 -4.173,2.769 -4.173,1.274 c 0,-1.435 0.552,-2.792 1.551,-3.821 1.074,-1.105 2.502,-1.659 3.933,-1.659 1.378,0 2.757,0.513 3.822,1.547 10.617,10.317 16.463,24.142 16.463,38.926" style="fill:#252323;fill-opacity:1;fill-rule:nonzero;stroke:none" transform="matrix(0.35277776,0,0,-0.35277776,197.54416,85.48194)" clip-path="url(#clipPath293-8)"></path><path id="path294" d="m 0,0 c 5.76,5.505 8.934,12.915 8.934,20.866 0,7.952 -3.174,15.362 -8.934,20.866 -0.354,0.337 -0.553,0.793 -0.565,1.281 -0.011,0.487 0.169,0.95 0.506,1.303 0.338,0.355 0.792,0.555 1.28,0.565 0.014,10e-4 0.028,10e-4 0.041,10e-4 0.473,0 0.919,-0.179 1.262,-0.507 6.49,-6.2 10.064,-14.549 10.064,-23.509 0,-8.959 -3.574,-17.309 -10.064,-23.509 -0.353,-0.339 -0.822,-0.539 -1.303,-0.505 -0.488,0.01 -0.942,0.212 -1.28,0.565 -0.327,0.34 -0.506,0.789 -0.506,1.262 0,0.505 0.2,0.972 0.565,1.321 m 1.265,-6.804 c 1.42,0 2.757,0.536 3.785,1.518 7.219,6.899 11.194,16.184 11.194,26.152 0,9.969 -3.975,19.256 -11.194,26.152 -1.059,1.012 -2.474,1.547 -3.912,1.518 -1.466,-0.033 -2.829,-0.636 -3.841,-1.694 -1.011,-1.059 -1.55,-2.449 -1.516,-3.912 0.033,-1.466 0.635,-2.829 1.693,-3.841 5.032,-4.808 7.803,-11.28 7.803,-18.223 0,-6.943 -2.771,-13.414 -7.801,-18.223 -1.08,-1.028 -1.697,-2.474 -1.697,-3.964 0,-1.419 0.539,-2.763 1.518,-3.788 1.012,-1.059 2.375,-1.661 3.841,-1.694 0.043,-0.001 0.085,-0.001 0.127,-0.001" style="fill:#252323;fill-opacity:1;fill-rule:nonzero;stroke:none" transform="matrix(0.35277776,0,0,-0.35277776,189.95178,80.04883)" clip-path="url(#clipPath295-8)"></path></g></svg>