<svg xmlns:inkscape="http://www.inkscape.org/namespaces/inkscape" xmlns:sodipodi="http://sodipodi.sourceforge.net/DTD/sodipodi-0.dtd" xmlns="http://www.w3.org/2000/svg" xmlns:svg="http://www.w3.org/2000/svg" width="38.713478mm" height="38.713833mm" viewBox="0 0 38.713478 38.713833" id="svg1" inkscape:version="1.3.2 (091e20e, 2023-11-25)" sodipodi:docname="3.svg"><defs id="defs1"><clipPath clipPathUnits="userSpaceOnUse" id="clipPath213"><path d="M 0,5339.669 H 1920 V 0 H 0 Z" transform="translate(-1189.4028,-2117.7657)" id="path213"></path></clipPath><clipPath clipPathUnits="userSpaceOnUse" id="clipPath219"><path d="M 0,5339.669 H 1920 V 0 H 0 Z" transform="translate(-1189.4028,-1816.8121)" id="path219"></path></clipPath><clipPath clipPathUnits="userSpaceOnUse" id="clipPath278"><path d="M 0,5339.669 H 1920 V 0 H 0 Z" transform="translate(-1189.4028,-1515.8586)" id="path278"></path></clipPath><clipPath clipPathUnits="userSpaceOnUse" id="clipPath281"><path d="M 0,5339.669 H 1920 V 0 H 0 Z" transform="translate(-1067.1783,-2140.9819)" id="path281"></path></clipPath><clipPath clipPathUnits="userSpaceOnUse" id="clipPath283"><path d="M 0,5339.669 H 1920 V 0 H 0 Z" transform="translate(-1118.5218,-2140.9819)" id="path283"></path></clipPath><clipPath clipPathUnits="userSpaceOnUse" id="clipPath285"><path d="M 0,5339.669 H 1920 V 0 H 0 Z" transform="translate(-1109.7243,-2081.4241)" id="path285"></path></clipPath><clipPath clipPathUnits="userSpaceOnUse" id="clipPath287"><path d="M 0,5339.669 H 1920 V 0 H 0 Z" transform="translate(-1160.2399,-1532.4435)" id="path287"></path></clipPath><clipPath clipPathUnits="userSpaceOnUse" id="clipPath289"><path d="M 0,5339.669 H 1920 V 0 H 0 Z" id="path289"></path></clipPath><clipPath clipPathUnits="userSpaceOnUse" id="clipPath291"><path d="M 0,5339.669 H 1920 V 0 H 0 Z" transform="translate(-1074.186,-1829.8585)" id="path291"></path></clipPath><clipPath clipPathUnits="userSpaceOnUse" id="clipPath293"><path d="M 0,5339.669 H 1920 V 0 H 0 Z" transform="translate(-1143.3045,-1779.2842)" id="path293"></path></clipPath><clipPath clipPathUnits="userSpaceOnUse" id="clipPath295"><path d="M 0,5339.669 H 1920 V 0 H 0 Z" transform="translate(-1121.7828,-1794.6852)" id="path295"></path></clipPath><clipPath clipPathUnits="userSpaceOnUse" id="clipPath219-3"><path d="M 0,5339.669 H 1920 V 0 H 0 Z" transform="translate(-1189.4028,-1816.8121)" id="path219-6"></path></clipPath><clipPath clipPathUnits="userSpaceOnUse" id="clipPath278-5"><path d="M 0,5339.669 H 1920 V 0 H 0 Z" transform="translate(-1189.4028,-1515.8586)" id="path278-5"></path></clipPath><clipPath clipPathUnits="userSpaceOnUse" id="clipPath287-8"><path d="M 0,5339.669 H 1920 V 0 H 0 Z" transform="translate(-1160.2399,-1532.4435)" id="path287-1"></path></clipPath><clipPath clipPathUnits="userSpaceOnUse" id="clipPath289-4"><path d="M 0,5339.669 H 1920 V 0 H 0 Z" id="path289-7"></path></clipPath><clipPath clipPathUnits="userSpaceOnUse" id="clipPath291-1"><path d="M 0,5339.669 H 1920 V 0 H 0 Z" transform="translate(-1074.186,-1829.8585)" id="path291-3"></path></clipPath><clipPath clipPathUnits="userSpaceOnUse" id="clipPath293-8"><path d="M 0,5339.669 H 1920 V 0 H 0 Z" transform="translate(-1143.3045,-1779.2842)" id="path293-4"></path></clipPath><clipPath clipPathUnits="userSpaceOnUse" id="clipPath295-8"><path d="M 0,5339.669 H 1920 V 0 H 0 Z" transform="translate(-1121.7828,-1794.6852)" id="path295-0"></path></clipPath><clipPath clipPathUnits="userSpaceOnUse" id="clipPath278-5-1"><path d="M 0,5339.669 H 1920 V 0 H 0 Z" transform="translate(-1189.4028,-1515.8586)" id="path278-5-5"></path></clipPath><clipPath clipPathUnits="userSpaceOnUse" id="clipPath287-8-3"><path d="M 0,5339.669 H 1920 V 0 H 0 Z" transform="translate(-1160.2399,-1532.4435)" id="path287-1-5"></path></clipPath><clipPath clipPathUnits="userSpaceOnUse" id="clipPath120"><path d="M 0,5339.669 H 1920 V 0 H 0 Z" transform="translate(-258.44301,-3849.1532)" id="path120"></path></clipPath><clipPath clipPathUnits="userSpaceOnUse" id="clipPath132"><path d="M 0,5339.669 H 1920 V 0 H 0 Z" transform="translate(-255.54991,-3621.8556)" id="path132"></path></clipPath><clipPath clipPathUnits="userSpaceOnUse" id="clipPath139"><path d="M 0,5339.669 H 1920 V 0 H 0 Z" transform="translate(-254.02201,-3401.0484)" id="path139"></path></clipPath><clipPath clipPathUnits="userSpaceOnUse" id="clipPath254"><path d="M 0,5339.669 H 1920 V 0 H 0 Z" transform="translate(-254.02201,-3180.681)" id="path254"></path></clipPath><clipPath clipPathUnits="userSpaceOnUse" id="clipPath261"><path d="M 0,5339.669 H 1920 V 0 H 0 Z" transform="translate(-254.02201,-2960.3136)" id="path261"></path></clipPath><clipPath clipPathUnits="userSpaceOnUse" id="clipPath271"><path d="M 0,5339.669 H 1920 V 0 H 0 Z" transform="translate(-258.46351,-2739.9463)" id="path271"></path></clipPath><clipPath clipPathUnits="userSpaceOnUse" id="clipPath132-7"><path d="M 0,5339.669 H 1920 V 0 H 0 Z" transform="translate(-255.54991,-3621.8556)" id="path132-8"></path></clipPath><clipPath clipPathUnits="userSpaceOnUse" id="clipPath139-7"><path d="M 0,5339.669 H 1920 V 0 H 0 Z" transform="translate(-254.02201,-3401.0484)" id="path139-7"></path></clipPath><clipPath clipPathUnits="userSpaceOnUse" id="clipPath254-4"><path d="M 0,5339.669 H 1920 V 0 H 0 Z" transform="translate(-254.02201,-3180.681)" id="path254-4"></path></clipPath><clipPath clipPathUnits="userSpaceOnUse" id="clipPath261-9"><path d="M 0,5339.669 H 1920 V 0 H 0 Z" transform="translate(-254.02201,-2960.3136)" id="path261-1"></path></clipPath><clipPath clipPathUnits="userSpaceOnUse" id="clipPath271-5"><path d="M 0,5339.669 H 1920 V 0 H 0 Z" transform="translate(-258.46351,-2739.9463)" id="path271-5"></path></clipPath><clipPath clipPathUnits="userSpaceOnUse" id="clipPath139-7-4"><path d="M 0,5339.669 H 1920 V 0 H 0 Z" transform="translate(-254.02201,-3401.0484)" id="path139-7-8"></path></clipPath><clipPath clipPathUnits="userSpaceOnUse" id="clipPath254-4-5"><path d="M 0,5339.669 H 1920 V 0 H 0 Z" transform="translate(-254.02201,-3180.681)" id="path254-4-8"></path></clipPath><clipPath clipPathUnits="userSpaceOnUse" id="clipPath261-9-3"><path d="M 0,5339.669 H 1920 V 0 H 0 Z" transform="translate(-254.02201,-2960.3136)" id="path261-1-0"></path></clipPath><clipPath clipPathUnits="userSpaceOnUse" id="clipPath271-5-6"><path d="M 0,5339.669 H 1920 V 0 H 0 Z" transform="translate(-258.46351,-2739.9463)" id="path271-5-2"></path></clipPath></defs><g inkscape:label="Capa 1" inkscape:groupmode="layer" id="layer1" transform="translate(-207.94447,108.47915)"><path id="path138" d="m 0,0 c 0,-30.304 -24.566,-54.87 -54.87,-54.87 -30.303,0 -54.869,24.566 -54.869,54.87 0,30.304 24.566,54.87 54.869,54.87 C -24.566,54.87 0,30.304 0,0" style="fill:#009539;fill-opacity:1;fill-rule:nonzero;stroke:none" transform="matrix(0.35277776,0,0,-0.35277776,246.65795,-89.12223)" clip-path="url(#clipPath139-7-4)"></path><path id="path207" d="m 227.20159,-82.08618 c -0.74724,0 -1.46554,-0.0868 -2.15387,-0.26045 -0.68937,-0.1757 -1.32085,-0.45475 -1.89343,-0.83509 -0.5736,-0.38241 -1.05006,-0.87023 -1.4304,-1.46348 -0.38034,-0.59531 -0.61495,-1.31155 -0.7028,-2.14974 h 3.12126 c 0.10438,0.41135 0.30695,0.75241 0.60771,1.02526 0.29973,0.27079 0.66663,0.46509 1.09968,0.58291 0.43201,0.11576 0.8909,0.17363 1.37666,0.17363 0.32246,0 0.64078,-0.0289 0.95498,-0.0868 0.31419,-0.0579 0.59944,-0.15916 0.85576,-0.30592 0.25838,-0.14883 0.46095,-0.34727 0.60771,-0.59531 0.14573,-0.25012 0.21911,-0.56638 0.21911,-0.94672 0,-0.35243 -0.0662,-0.64595 -0.19844,-0.88056 -0.13229,-0.23358 -0.30902,-0.42375 -0.52916,-0.57051 -0.21808,-0.14573 -0.47749,-0.24805 -0.77722,-0.30592 -0.30075,-0.0599 -0.62011,-0.0909 -0.95911,-0.0909 h -1.80247 v -2.68304 h 1.20716 c 0.3824,0 0.7276,-0.0393 1.03353,-0.11989 0.30799,-0.0827 0.56844,-0.20051 0.78134,-0.35554 0.21498,-0.15399 0.38034,-0.34416 0.4961,-0.5705 0.11782,-0.22841 0.17776,-0.48886 0.17776,-0.78135 0,-0.44029 -0.0971,-0.78962 -0.28939,-1.04593 -0.19016,-0.25632 -0.45371,-0.44235 -0.78961,-0.55811 -0.33693,-0.11782 -0.72554,-0.17777 -1.16582,-0.17777 -0.41134,0 -0.79685,0.062 -1.15755,0.18604 -0.35864,0.12402 -0.65526,0.30489 -0.88884,0.54157 -0.23461,0.23461 -0.3886,0.51986 -0.46302,0.85576 h -3.05511 c 0.0847,-0.79065 0.29559,-1.46864 0.63252,-2.03398 0.339,-0.56431 0.77101,-1.03043 1.29811,-1.39733 0.52917,-0.36587 1.12035,-0.63356 1.77354,-0.80202 0.65319,-0.17053 1.33222,-0.25632 2.03812,-0.25632 0.67179,0 1.31568,0.0744 1.93063,0.22324 0.61701,0.14677 1.17098,0.38448 1.66191,0.71521 0.493,0.32866 0.88574,0.76377 1.17822,1.30638 0.29456,0.54363 0.44235,1.19682 0.44235,1.95957 0,0.46922 -0.0775,0.90847 -0.23151,1.31878 -0.15502,0.41134 -0.37517,0.77515 -0.66145,1.09141 -0.28422,0.31419 -0.61805,0.57464 -1.00046,0.78134 0.57258,0.1602 1.04283,0.42375 1.40973,0.78962 0.36587,0.3669 0.64079,0.79995 0.82269,1.29811 0.18397,0.4992 0.27699,1.0356 0.27699,1.60817 0,0.93741 -0.1726,1.71876 -0.51677,2.34404 -0.3452,0.62322 -0.80408,1.11415 -1.37666,1.47175 -0.5705,0.35863 -1.20199,0.61495 -1.89342,0.76894 -0.68936,0.154 -1.37873,0.23151 -2.06706,0.23151 z m 0,0" style="fill:#ffffff;fill-opacity:1;fill-rule:nonzero;stroke:none;stroke-width:0.352778" aria-label="3"></path></g></svg>