<svg xmlns:inkscape="http://www.inkscape.org/namespaces/inkscape" xmlns:sodipodi="http://sodipodi.sourceforge.net/DTD/sodipodi-0.dtd" xmlns="http://www.w3.org/2000/svg" xmlns:svg="http://www.w3.org/2000/svg" width="38.713478mm" height="38.713833mm" viewBox="0 0 38.713478 38.713833" id="svg1" inkscape:version="1.3.2 (091e20e, 2023-11-25)" sodipodi:docname="5.svg"><defs id="defs1"><clipPath clipPathUnits="userSpaceOnUse" id="clipPath213"><path d="M 0,5339.669 H 1920 V 0 H 0 Z" transform="translate(-1189.4028,-2117.7657)" id="path213"></path></clipPath><clipPath clipPathUnits="userSpaceOnUse" id="clipPath219"><path d="M 0,5339.669 H 1920 V 0 H 0 Z" transform="translate(-1189.4028,-1816.8121)" id="path219"></path></clipPath><clipPath clipPathUnits="userSpaceOnUse" id="clipPath278"><path d="M 0,5339.669 H 1920 V 0 H 0 Z" transform="translate(-1189.4028,-1515.8586)" id="path278"></path></clipPath><clipPath clipPathUnits="userSpaceOnUse" id="clipPath281"><path d="M 0,5339.669 H 1920 V 0 H 0 Z" transform="translate(-1067.1783,-2140.9819)" id="path281"></path></clipPath><clipPath clipPathUnits="userSpaceOnUse" id="clipPath283"><path d="M 0,5339.669 H 1920 V 0 H 0 Z" transform="translate(-1118.5218,-2140.9819)" id="path283"></path></clipPath><clipPath clipPathUnits="userSpaceOnUse" id="clipPath285"><path d="M 0,5339.669 H 1920 V 0 H 0 Z" transform="translate(-1109.7243,-2081.4241)" id="path285"></path></clipPath><clipPath clipPathUnits="userSpaceOnUse" id="clipPath287"><path d="M 0,5339.669 H 1920 V 0 H 0 Z" transform="translate(-1160.2399,-1532.4435)" id="path287"></path></clipPath><clipPath clipPathUnits="userSpaceOnUse" id="clipPath289"><path d="M 0,5339.669 H 1920 V 0 H 0 Z" id="path289"></path></clipPath><clipPath clipPathUnits="userSpaceOnUse" id="clipPath291"><path d="M 0,5339.669 H 1920 V 0 H 0 Z" transform="translate(-1074.186,-1829.8585)" id="path291"></path></clipPath><clipPath clipPathUnits="userSpaceOnUse" id="clipPath293"><path d="M 0,5339.669 H 1920 V 0 H 0 Z" transform="translate(-1143.3045,-1779.2842)" id="path293"></path></clipPath><clipPath clipPathUnits="userSpaceOnUse" id="clipPath295"><path d="M 0,5339.669 H 1920 V 0 H 0 Z" transform="translate(-1121.7828,-1794.6852)" id="path295"></path></clipPath><clipPath clipPathUnits="userSpaceOnUse" id="clipPath219-3"><path d="M 0,5339.669 H 1920 V 0 H 0 Z" transform="translate(-1189.4028,-1816.8121)" id="path219-6"></path></clipPath><clipPath clipPathUnits="userSpaceOnUse" id="clipPath278-5"><path d="M 0,5339.669 H 1920 V 0 H 0 Z" transform="translate(-1189.4028,-1515.8586)" id="path278-5"></path></clipPath><clipPath clipPathUnits="userSpaceOnUse" id="clipPath287-8"><path d="M 0,5339.669 H 1920 V 0 H 0 Z" transform="translate(-1160.2399,-1532.4435)" id="path287-1"></path></clipPath><clipPath clipPathUnits="userSpaceOnUse" id="clipPath289-4"><path d="M 0,5339.669 H 1920 V 0 H 0 Z" id="path289-7"></path></clipPath><clipPath clipPathUnits="userSpaceOnUse" id="clipPath291-1"><path d="M 0,5339.669 H 1920 V 0 H 0 Z" transform="translate(-1074.186,-1829.8585)" id="path291-3"></path></clipPath><clipPath clipPathUnits="userSpaceOnUse" id="clipPath293-8"><path d="M 0,5339.669 H 1920 V 0 H 0 Z" transform="translate(-1143.3045,-1779.2842)" id="path293-4"></path></clipPath><clipPath clipPathUnits="userSpaceOnUse" id="clipPath295-8"><path d="M 0,5339.669 H 1920 V 0 H 0 Z" transform="translate(-1121.7828,-1794.6852)" id="path295-0"></path></clipPath><clipPath clipPathUnits="userSpaceOnUse" id="clipPath278-5-1"><path d="M 0,5339.669 H 1920 V 0 H 0 Z" transform="translate(-1189.4028,-1515.8586)" id="path278-5-5"></path></clipPath><clipPath clipPathUnits="userSpaceOnUse" id="clipPath287-8-3"><path d="M 0,5339.669 H 1920 V 0 H 0 Z" transform="translate(-1160.2399,-1532.4435)" id="path287-1-5"></path></clipPath><clipPath clipPathUnits="userSpaceOnUse" id="clipPath120"><path d="M 0,5339.669 H 1920 V 0 H 0 Z" transform="translate(-258.44301,-3849.1532)" id="path120"></path></clipPath><clipPath clipPathUnits="userSpaceOnUse" id="clipPath132"><path d="M 0,5339.669 H 1920 V 0 H 0 Z" transform="translate(-255.54991,-3621.8556)" id="path132"></path></clipPath><clipPath clipPathUnits="userSpaceOnUse" id="clipPath139"><path d="M 0,5339.669 H 1920 V 0 H 0 Z" transform="translate(-254.02201,-3401.0484)" id="path139"></path></clipPath><clipPath clipPathUnits="userSpaceOnUse" id="clipPath254"><path d="M 0,5339.669 H 1920 V 0 H 0 Z" transform="translate(-254.02201,-3180.681)" id="path254"></path></clipPath><clipPath clipPathUnits="userSpaceOnUse" id="clipPath261"><path d="M 0,5339.669 H 1920 V 0 H 0 Z" transform="translate(-254.02201,-2960.3136)" id="path261"></path></clipPath><clipPath clipPathUnits="userSpaceOnUse" id="clipPath271"><path d="M 0,5339.669 H 1920 V 0 H 0 Z" transform="translate(-258.46351,-2739.9463)" id="path271"></path></clipPath><clipPath clipPathUnits="userSpaceOnUse" id="clipPath132-7"><path d="M 0,5339.669 H 1920 V 0 H 0 Z" transform="translate(-255.54991,-3621.8556)" id="path132-8"></path></clipPath><clipPath clipPathUnits="userSpaceOnUse" id="clipPath139-7"><path d="M 0,5339.669 H 1920 V 0 H 0 Z" transform="translate(-254.02201,-3401.0484)" id="path139-7"></path></clipPath><clipPath clipPathUnits="userSpaceOnUse" id="clipPath254-4"><path d="M 0,5339.669 H 1920 V 0 H 0 Z" transform="translate(-254.02201,-3180.681)" id="path254-4"></path></clipPath><clipPath clipPathUnits="userSpaceOnUse" id="clipPath261-9"><path d="M 0,5339.669 H 1920 V 0 H 0 Z" transform="translate(-254.02201,-2960.3136)" id="path261-1"></path></clipPath><clipPath clipPathUnits="userSpaceOnUse" id="clipPath271-5"><path d="M 0,5339.669 H 1920 V 0 H 0 Z" transform="translate(-258.46351,-2739.9463)" id="path271-5"></path></clipPath><clipPath clipPathUnits="userSpaceOnUse" id="clipPath139-7-4"><path d="M 0,5339.669 H 1920 V 0 H 0 Z" transform="translate(-254.02201,-3401.0484)" id="path139-7-8"></path></clipPath><clipPath clipPathUnits="userSpaceOnUse" id="clipPath254-4-5"><path d="M 0,5339.669 H 1920 V 0 H 0 Z" transform="translate(-254.02201,-3180.681)" id="path254-4-8"></path></clipPath><clipPath clipPathUnits="userSpaceOnUse" id="clipPath261-9-3"><path d="M 0,5339.669 H 1920 V 0 H 0 Z" transform="translate(-254.02201,-2960.3136)" id="path261-1-0"></path></clipPath><clipPath clipPathUnits="userSpaceOnUse" id="clipPath271-5-6"><path d="M 0,5339.669 H 1920 V 0 H 0 Z" transform="translate(-258.46351,-2739.9463)" id="path271-5-2"></path></clipPath><clipPath clipPathUnits="userSpaceOnUse" id="clipPath254-4-5-1"><path d="M 0,5339.669 H 1920 V 0 H 0 Z" transform="translate(-254.02201,-3180.681)" id="path254-4-8-8"></path></clipPath><clipPath clipPathUnits="userSpaceOnUse" id="clipPath261-9-3-7"><path d="M 0,5339.669 H 1920 V 0 H 0 Z" transform="translate(-254.02201,-2960.3136)" id="path261-1-0-6"></path></clipPath><clipPath clipPathUnits="userSpaceOnUse" id="clipPath271-5-6-0"><path d="M 0,5339.669 H 1920 V 0 H 0 Z" transform="translate(-258.46351,-2739.9463)" id="path271-5-2-0"></path></clipPath><clipPath clipPathUnits="userSpaceOnUse" id="clipPath261-9-3-7-5"><path d="M 0,5339.669 H 1920 V 0 H 0 Z" transform="translate(-254.02201,-2960.3136)" id="path261-1-0-6-6"></path></clipPath><clipPath clipPathUnits="userSpaceOnUse" id="clipPath271-5-6-0-3"><path d="M 0,5339.669 H 1920 V 0 H 0 Z" transform="translate(-258.46351,-2739.9463)" id="path271-5-2-0-6"></path></clipPath></defs><g inkscape:label="Capa 1" inkscape:groupmode="layer" id="layer1" transform="translate(-231.49238,214.84166)"><path id="path260" d="m 0,0 c 0,-30.304 -24.566,-54.87 -54.87,-54.87 -30.303,0 -54.869,24.566 -54.869,54.87 0,30.304 24.566,54.87 54.869,54.87 C -24.566,54.87 0,30.304 0,0" style="fill:#009539;fill-opacity:1;fill-rule:nonzero;stroke:none" transform="matrix(0.35277776,0,0,-0.35277776,270.20586,-195.48474)" clip-path="url(#clipPath261-9-3-7-5)"></path><path id="path267" d="m 250.81875,-188.42335 c -0.73587,0 -1.42007,-0.0909 -2.05052,-0.27285 -0.62839,-0.18397 -1.1896,-0.46716 -1.68259,-0.8475 -0.49092,-0.3824 -0.90124,-0.86816 -1.23196,-1.4552 -0.32867,-0.58705 -0.55191,-1.28365 -0.66973,-2.09187 h 3.10472 c 0.0847,0.29559 0.24494,0.57465 0.47956,0.83923 0.23667,0.26252 0.53433,0.47439 0.89296,0.63665 0.36071,0.1602 0.76688,0.23978 1.21957,0.23978 0.55914,0 1.02939,-0.0972 1.40973,-0.29352 0.38034,-0.19844 0.67179,-0.47336 0.87643,-0.82682 0.20671,-0.35244 0.31006,-0.76998 0.31006,-1.25264 0,-0.73277 -0.23151,-1.32292 -0.69453,-1.7694 -0.46095,-0.44855 -1.10794,-0.67386 -1.94303,-0.67386 -0.48576,0 -0.93741,0.0847 -1.35599,0.25218 -0.41651,0.16846 -0.81442,0.39998 -1.19476,0.69453 h -2.68717 l 0.28525,-8.93382 h 10.2526 v 2.88148 h -7.28017 l -0.17777,3.17086 c 0.44028,-0.30799 0.95085,-0.52503 1.52962,-0.64905 0.57878,-0.12609 1.15445,-0.1819 1.72806,-0.16537 1.01079,0.0279 1.86862,0.24702 2.57142,0.65733 0.70487,0.41134 1.2454,0.98392 1.62057,1.71979 0.37414,0.7338 0.56224,1.5906 0.56224,2.57142 0,1.18856 -0.26045,2.20141 -0.78134,3.03857 -0.5209,0.83509 -1.22577,1.46658 -2.11254,1.89343 -0.8878,0.42478 -1.88102,0.63665 -2.98069,0.63665 z m 0,0" style="fill:#ffffff;fill-opacity:1;fill-rule:nonzero;stroke:none;stroke-width:0.352778" aria-label="5"></path></g></svg>