<svg xmlns:inkscape="http://www.inkscape.org/namespaces/inkscape" xmlns:sodipodi="http://sodipodi.sourceforge.net/DTD/sodipodi-0.dtd" xmlns="http://www.w3.org/2000/svg" xmlns:svg="http://www.w3.org/2000/svg" width="38.713478mm" height="38.713833mm" viewBox="0 0 38.713478 38.713833" id="svg1" inkscape:version="1.3.2 (091e20e, 2023-11-25)" sodipodi:docname="6.svg"><defs id="defs1"><clipPath clipPathUnits="userSpaceOnUse" id="clipPath213"><path d="M 0,5339.669 H 1920 V 0 H 0 Z" transform="translate(-1189.4028,-2117.7657)" id="path213"></path></clipPath><clipPath clipPathUnits="userSpaceOnUse" id="clipPath219"><path d="M 0,5339.669 H 1920 V 0 H 0 Z" transform="translate(-1189.4028,-1816.8121)" id="path219"></path></clipPath><clipPath clipPathUnits="userSpaceOnUse" id="clipPath278"><path d="M 0,5339.669 H 1920 V 0 H 0 Z" transform="translate(-1189.4028,-1515.8586)" id="path278"></path></clipPath><clipPath clipPathUnits="userSpaceOnUse" id="clipPath281"><path d="M 0,5339.669 H 1920 V 0 H 0 Z" transform="translate(-1067.1783,-2140.9819)" id="path281"></path></clipPath><clipPath clipPathUnits="userSpaceOnUse" id="clipPath283"><path d="M 0,5339.669 H 1920 V 0 H 0 Z" transform="translate(-1118.5218,-2140.9819)" id="path283"></path></clipPath><clipPath clipPathUnits="userSpaceOnUse" id="clipPath285"><path d="M 0,5339.669 H 1920 V 0 H 0 Z" transform="translate(-1109.7243,-2081.4241)" id="path285"></path></clipPath><clipPath clipPathUnits="userSpaceOnUse" id="clipPath287"><path d="M 0,5339.669 H 1920 V 0 H 0 Z" transform="translate(-1160.2399,-1532.4435)" id="path287"></path></clipPath><clipPath clipPathUnits="userSpaceOnUse" id="clipPath289"><path d="M 0,5339.669 H 1920 V 0 H 0 Z" id="path289"></path></clipPath><clipPath clipPathUnits="userSpaceOnUse" id="clipPath291"><path d="M 0,5339.669 H 1920 V 0 H 0 Z" transform="translate(-1074.186,-1829.8585)" id="path291"></path></clipPath><clipPath clipPathUnits="userSpaceOnUse" id="clipPath293"><path d="M 0,5339.669 H 1920 V 0 H 0 Z" transform="translate(-1143.3045,-1779.2842)" id="path293"></path></clipPath><clipPath clipPathUnits="userSpaceOnUse" id="clipPath295"><path d="M 0,5339.669 H 1920 V 0 H 0 Z" transform="translate(-1121.7828,-1794.6852)" id="path295"></path></clipPath><clipPath clipPathUnits="userSpaceOnUse" id="clipPath219-3"><path d="M 0,5339.669 H 1920 V 0 H 0 Z" transform="translate(-1189.4028,-1816.8121)" id="path219-6"></path></clipPath><clipPath clipPathUnits="userSpaceOnUse" id="clipPath278-5"><path d="M 0,5339.669 H 1920 V 0 H 0 Z" transform="translate(-1189.4028,-1515.8586)" id="path278-5"></path></clipPath><clipPath clipPathUnits="userSpaceOnUse" id="clipPath287-8"><path d="M 0,5339.669 H 1920 V 0 H 0 Z" transform="translate(-1160.2399,-1532.4435)" id="path287-1"></path></clipPath><clipPath clipPathUnits="userSpaceOnUse" id="clipPath289-4"><path d="M 0,5339.669 H 1920 V 0 H 0 Z" id="path289-7"></path></clipPath><clipPath clipPathUnits="userSpaceOnUse" id="clipPath291-1"><path d="M 0,5339.669 H 1920 V 0 H 0 Z" transform="translate(-1074.186,-1829.8585)" id="path291-3"></path></clipPath><clipPath clipPathUnits="userSpaceOnUse" id="clipPath293-8"><path d="M 0,5339.669 H 1920 V 0 H 0 Z" transform="translate(-1143.3045,-1779.2842)" id="path293-4"></path></clipPath><clipPath clipPathUnits="userSpaceOnUse" id="clipPath295-8"><path d="M 0,5339.669 H 1920 V 0 H 0 Z" transform="translate(-1121.7828,-1794.6852)" id="path295-0"></path></clipPath><clipPath clipPathUnits="userSpaceOnUse" id="clipPath278-5-1"><path d="M 0,5339.669 H 1920 V 0 H 0 Z" transform="translate(-1189.4028,-1515.8586)" id="path278-5-5"></path></clipPath><clipPath clipPathUnits="userSpaceOnUse" id="clipPath287-8-3"><path d="M 0,5339.669 H 1920 V 0 H 0 Z" transform="translate(-1160.2399,-1532.4435)" id="path287-1-5"></path></clipPath><clipPath clipPathUnits="userSpaceOnUse" id="clipPath120"><path d="M 0,5339.669 H 1920 V 0 H 0 Z" transform="translate(-258.44301,-3849.1532)" id="path120"></path></clipPath><clipPath clipPathUnits="userSpaceOnUse" id="clipPath132"><path d="M 0,5339.669 H 1920 V 0 H 0 Z" transform="translate(-255.54991,-3621.8556)" id="path132"></path></clipPath><clipPath clipPathUnits="userSpaceOnUse" id="clipPath139"><path d="M 0,5339.669 H 1920 V 0 H 0 Z" transform="translate(-254.02201,-3401.0484)" id="path139"></path></clipPath><clipPath clipPathUnits="userSpaceOnUse" id="clipPath254"><path d="M 0,5339.669 H 1920 V 0 H 0 Z" transform="translate(-254.02201,-3180.681)" id="path254"></path></clipPath><clipPath clipPathUnits="userSpaceOnUse" id="clipPath261"><path d="M 0,5339.669 H 1920 V 0 H 0 Z" transform="translate(-254.02201,-2960.3136)" id="path261"></path></clipPath><clipPath clipPathUnits="userSpaceOnUse" id="clipPath271"><path d="M 0,5339.669 H 1920 V 0 H 0 Z" transform="translate(-258.46351,-2739.9463)" id="path271"></path></clipPath><clipPath clipPathUnits="userSpaceOnUse" id="clipPath132-7"><path d="M 0,5339.669 H 1920 V 0 H 0 Z" transform="translate(-255.54991,-3621.8556)" id="path132-8"></path></clipPath><clipPath clipPathUnits="userSpaceOnUse" id="clipPath139-7"><path d="M 0,5339.669 H 1920 V 0 H 0 Z" transform="translate(-254.02201,-3401.0484)" id="path139-7"></path></clipPath><clipPath clipPathUnits="userSpaceOnUse" id="clipPath254-4"><path d="M 0,5339.669 H 1920 V 0 H 0 Z" transform="translate(-254.02201,-3180.681)" id="path254-4"></path></clipPath><clipPath clipPathUnits="userSpaceOnUse" id="clipPath261-9"><path d="M 0,5339.669 H 1920 V 0 H 0 Z" transform="translate(-254.02201,-2960.3136)" id="path261-1"></path></clipPath><clipPath clipPathUnits="userSpaceOnUse" id="clipPath271-5"><path d="M 0,5339.669 H 1920 V 0 H 0 Z" transform="translate(-258.46351,-2739.9463)" id="path271-5"></path></clipPath><clipPath clipPathUnits="userSpaceOnUse" id="clipPath139-7-4"><path d="M 0,5339.669 H 1920 V 0 H 0 Z" transform="translate(-254.02201,-3401.0484)" id="path139-7-8"></path></clipPath><clipPath clipPathUnits="userSpaceOnUse" id="clipPath254-4-5"><path d="M 0,5339.669 H 1920 V 0 H 0 Z" transform="translate(-254.02201,-3180.681)" id="path254-4-8"></path></clipPath><clipPath clipPathUnits="userSpaceOnUse" id="clipPath261-9-3"><path d="M 0,5339.669 H 1920 V 0 H 0 Z" transform="translate(-254.02201,-2960.3136)" id="path261-1-0"></path></clipPath><clipPath clipPathUnits="userSpaceOnUse" id="clipPath271-5-6"><path d="M 0,5339.669 H 1920 V 0 H 0 Z" transform="translate(-258.46351,-2739.9463)" id="path271-5-2"></path></clipPath><clipPath clipPathUnits="userSpaceOnUse" id="clipPath254-4-5-1"><path d="M 0,5339.669 H 1920 V 0 H 0 Z" transform="translate(-254.02201,-3180.681)" id="path254-4-8-8"></path></clipPath><clipPath clipPathUnits="userSpaceOnUse" id="clipPath261-9-3-7"><path d="M 0,5339.669 H 1920 V 0 H 0 Z" transform="translate(-254.02201,-2960.3136)" id="path261-1-0-6"></path></clipPath><clipPath clipPathUnits="userSpaceOnUse" id="clipPath271-5-6-0"><path d="M 0,5339.669 H 1920 V 0 H 0 Z" transform="translate(-258.46351,-2739.9463)" id="path271-5-2-0"></path></clipPath><clipPath clipPathUnits="userSpaceOnUse" id="clipPath261-9-3-7-5"><path d="M 0,5339.669 H 1920 V 0 H 0 Z" transform="translate(-254.02201,-2960.3136)" id="path261-1-0-6-6"></path></clipPath><clipPath clipPathUnits="userSpaceOnUse" id="clipPath271-5-6-0-3"><path d="M 0,5339.669 H 1920 V 0 H 0 Z" transform="translate(-258.46351,-2739.9463)" id="path271-5-2-0-6"></path></clipPath><clipPath clipPathUnits="userSpaceOnUse" id="clipPath271-5-6-0-3-3"><path d="M 0,5339.669 H 1920 V 0 H 0 Z" transform="translate(-258.46351,-2739.9463)" id="path271-5-2-0-6-8"></path></clipPath></defs><g inkscape:label="Capa 1" inkscape:groupmode="layer" id="layer1" transform="translate(-244.19237,218.54583)"><path id="path270" d="m 0,0 c 0,-30.304 -24.566,-54.87 -54.87,-54.87 -30.303,0 -54.869,24.566 -54.869,54.87 0,30.304 24.566,54.87 54.869,54.87 C -24.566,54.87 0,30.304 0,0" style="fill:#009539;fill-opacity:1;fill-rule:nonzero;stroke:none" transform="matrix(0.35277776,0,0,-0.35277776,282.90585,-199.18891)" clip-path="url(#clipPath271-5-6-0-3-3)"></path><path id="path274" d="m 263.8577,-192.12719 c -1.09967,0 -2.03811,-0.20464 -2.81533,-0.61599 -0.7772,-0.41031 -1.41593,-0.97565 -1.91409,-1.69498 -0.49919,-0.71934 -0.863,-1.53583 -1.09141,-2.45153 -0.22633,-0.91778 -0.339,-1.88206 -0.339,-2.89388 0,-1.11621 0.12404,-2.16835 0.37208,-3.15847 0.25012,-0.98908 0.63872,-1.86862 1.16582,-2.63756 0.52917,-0.77101 1.19992,-1.37769 2.01332,-1.81901 0.81545,-0.44028 1.79524,-0.66146 2.93935,-0.66146 0.87849,0 1.68052,0.15503 2.40605,0.46302 0.7276,0.30903 1.34048,0.77515 1.83968,1.39733 0.49816,0.62322 0.82062,1.42007 0.96738,2.38952 h -2.9931 c -0.17673,-0.42685 -0.47439,-0.76481 -0.89297,-1.01286 -0.41651,-0.25011 -0.9033,-0.3762 -1.45933,-0.3762 -0.51263,0 -0.96119,0.093 -1.3436,0.27698 -0.38033,0.1819 -0.70693,0.43202 -0.97978,0.74828 -0.27079,0.31419 -0.49403,0.66972 -0.66973,1.0666 -0.17672,0.39687 -0.30179,0.81235 -0.3762,1.24437 -0.0724,0.43305 -0.10749,0.86196 -0.10749,1.28571 0.35243,-0.48473 0.75861,-0.8661 1.21956,-1.14515 0.46302,-0.27802 0.92811,-0.47233 1.39733,-0.58291 0.47129,-0.10956 0.89711,-0.16537 1.27745,-0.16537 1.04179,0 1.93579,0.20567 2.68304,0.61599 0.7493,0.41134 1.32498,0.98702 1.72806,1.72806 0.40204,0.74207 0.60359,1.6185 0.60359,2.62929 0,1.08624 -0.24289,2.03295 -0.72762,2.84014 -0.48266,0.80512 -1.14515,1.42834 -1.9885,1.86862 -0.84337,0.44132 -1.81488,0.66146 -2.91456,0.66146 z m 0.0207,-2.88561 c 0.52917,0 0.97255,-0.10853 1.33119,-0.3266 0.3607,-0.22014 0.63665,-0.50953 0.82682,-0.86816 0.19017,-0.36071 0.28525,-0.74621 0.28525,-1.15756 0,-0.44028 -0.0951,-0.84025 -0.28525,-1.19889 -0.19017,-0.3576 -0.46198,-0.64699 -0.81442,-0.86816 -0.35347,-0.22014 -0.78548,-0.33073 -1.29811,-0.33073 -0.48576,0 -0.92914,0.10645 -1.33119,0.31832 -0.40307,0.21291 -0.71416,0.4992 -0.93431,0.8599 -0.22117,0.35863 -0.33072,0.76481 -0.33072,1.21956 0,0.41135 0.10128,0.79685 0.30592,1.15756 0.20671,0.35863 0.50023,0.64802 0.88057,0.86816 0.3824,0.21807 0.83715,0.3266 1.36425,0.3266 z m 0,0" style="fill:#ffffff;fill-opacity:1;fill-rule:nonzero;stroke:none;stroke-width:0.352778" aria-label="6"></path></g></svg>