<svg xmlns="http://www.w3.org/2000/svg" width="100" height="95.687" viewBox="0 0 26.458 25.317"><defs><clipPath id="a" clipPathUnits="userSpaceOnUse"><path d="M-723.75 1881.013h1920v-5921.297h-1920Z"></path></clipPath><clipPath id="b" clipPathUnits="userSpaceOnUse"><path d="M-719.744 1880.935h1920v-5921.297h-1920Z"></path></clipPath><clipPath id="c" clipPathUnits="userSpaceOnUse"><path d="M-718.139 1880.857h1920V-4040.44h-1920Z"></path></clipPath><clipPath id="d" clipPathUnits="userSpaceOnUse"><path d="M-714.665 1879.418h1920v-5921.297h-1920Z"></path></clipPath><clipPath id="e" clipPathUnits="userSpaceOnUse"><path d="M-714.588 1879.37h1920v-5921.298h-1920Z"></path></clipPath><clipPath id="f" clipPathUnits="userSpaceOnUse"><path d="M-712.946 1878.913h1920v-5921.297h-1920Z"></path></clipPath><clipPath id="g" clipPathUnits="userSpaceOnUse"><path d="M-712.263 1879.392h1920v-5921.297h-1920Z"></path></clipPath><clipPath id="h" clipPathUnits="userSpaceOnUse"><path d="M-712.535 1879.376h1920v-5921.297h-1920Z"></path></clipPath><clipPath id="i" clipPathUnits="userSpaceOnUse"><path d="M-713.53 1879.726h1920V-4041.57h-1920Z"></path></clipPath><clipPath id="j" clipPathUnits="userSpaceOnUse"><path d="M-715.82 1880.751h1920v-5921.296h-1920Z"></path></clipPath><clipPath id="k" clipPathUnits="userSpaceOnUse"><path d="M-709.633 1878.536h1920V-4042.76h-1920Z"></path></clipPath><clipPath id="l" clipPathUnits="userSpaceOnUse"><path d="M-709.798 1878.878h1920v-5921.297h-1920Z"></path></clipPath><clipPath id="m" clipPathUnits="userSpaceOnUse"><path d="M-712.113 1879.79h1920v-5921.296h-1920Z"></path></clipPath><clipPath id="n" clipPathUnits="userSpaceOnUse"><path d="M-708.038 1878.107h1920V-4043.19h-1920Z"></path></clipPath><clipPath id="o" clipPathUnits="userSpaceOnUse"><path d="M-708.074 1877.975h1920v-5921.297h-1920Z"></path></clipPath><clipPath id="p" clipPathUnits="userSpaceOnUse"><path d="M-707.65 1878.17h1920v-5921.297h-1920Z"></path></clipPath><clipPath id="q" clipPathUnits="userSpaceOnUse"><path d="M-708.155 1878.624h1920v-5921.296h-1920Z"></path></clipPath><clipPath id="r" clipPathUnits="userSpaceOnUse"><path d="M-708.043 1878.725h1920v-5921.297h-1920Z"></path></clipPath><clipPath id="s" clipPathUnits="userSpaceOnUse"><path d="M-710.244 1879.77h1920v-5921.297h-1920Z"></path></clipPath><clipPath id="t" clipPathUnits="userSpaceOnUse"><path d="M-709.216 1879.018h1920v-5921.297h-1920Z"></path></clipPath><clipPath id="u" clipPathUnits="userSpaceOnUse"><path d="M-708.33 1879.029h1920v-5921.297h-1920Z"></path></clipPath><clipPath id="v" clipPathUnits="userSpaceOnUse"><path d="M-706.96 1878.67h1920v-5921.297h-1920Z"></path></clipPath><clipPath id="w" clipPathUnits="userSpaceOnUse"><path d="M-707.767 1876.919h1920v-5921.297h-1920Z"></path></clipPath><clipPath id="x" clipPathUnits="userSpaceOnUse"><path d="M-706.93 1878.708h1920V-4042.59h-1920Z"></path></clipPath><clipPath id="y" clipPathUnits="userSpaceOnUse"><path d="M-707.41 1878.032h1920v-5921.297h-1920Z"></path></clipPath><clipPath id="z" clipPathUnits="userSpaceOnUse"><path d="M-707.508 1878.572h1920v-5921.297h-1920Z"></path></clipPath><clipPath id="A" clipPathUnits="userSpaceOnUse"><path d="M-707.508 1878.572h1920v-5921.297h-1920Z"></path></clipPath><clipPath id="B" clipPathUnits="userSpaceOnUse"><path d="M-707.268 1877.76h1920v-5921.298h-1920Z"></path></clipPath><clipPath id="C" clipPathUnits="userSpaceOnUse"><path d="M-706.42 1878.113h1920v-5921.297h-1920Z"></path></clipPath><clipPath id="D" clipPathUnits="userSpaceOnUse"><path d="M-709.558 1880.162h1920v-5921.297h-1920Z"></path></clipPath><clipPath id="E" clipPathUnits="userSpaceOnUse"><path d="M-709.627 1879.843h1920v-5921.296h-1920Z"></path></clipPath><clipPath id="F" clipPathUnits="userSpaceOnUse"><path d="M-706.274 1879.41h1920v-5921.298h-1920Z"></path></clipPath><clipPath id="G" clipPathUnits="userSpaceOnUse"><path d="M-708.066 1877.104h1920v-5921.297h-1920Z"></path></clipPath><clipPath id="H" clipPathUnits="userSpaceOnUse"><path d="M-708.715 1875.542h1920v-5921.297h-1920Z"></path></clipPath><clipPath id="I" clipPathUnits="userSpaceOnUse"><path d="M-703.249 1854.958h1920v-5921.297h-1920Z"></path></clipPath><clipPath id="J" clipPathUnits="userSpaceOnUse"><path d="M-714.791 1869.866h1920V-4051.43h-1920Z"></path></clipPath><clipPath id="K" clipPathUnits="userSpaceOnUse"><path d="M-688.66 1876.932h1920v-5921.297h-1920Z"></path></clipPath><clipPath id="L" clipPathUnits="userSpaceOnUse"><path d="M-714.243 1868.547h1920V-4052.75h-1920Z"></path></clipPath><clipPath id="M" clipPathUnits="userSpaceOnUse"><path d="M-725.068 1885.627h1920V-4035.67h-1920Z"></path></clipPath><clipPath id="N" clipPathUnits="userSpaceOnUse"><path d="M-710.25 1872.989h1920v-5921.297h-1920Z"></path></clipPath><clipPath id="O" clipPathUnits="userSpaceOnUse"><path d="M-710.323 1872.97h1920v-5921.297h-1920Z"></path></clipPath><clipPath id="P" clipPathUnits="userSpaceOnUse"><path d="M-709.334 1901.492h1920v-5921.297h-1920Z"></path></clipPath><clipPath id="Q" clipPathUnits="userSpaceOnUse"><path d="M-709.919 1873.56h1920v-5921.296h-1920Z"></path></clipPath><clipPath id="R" clipPathUnits="userSpaceOnUse"><path d="M-708.327 1874.564h1920v-5921.297h-1920Z"></path></clipPath><clipPath id="S" clipPathUnits="userSpaceOnUse"><path d="M-708.287 1874.65h1920v-5921.297h-1920Z"></path></clipPath><clipPath id="T" clipPathUnits="userSpaceOnUse"><path d="M-711.047 1873.002h1920v-5921.297h-1920Z"></path></clipPath><clipPath id="U" clipPathUnits="userSpaceOnUse"><path d="M-708.036 1873.846h1920V-4047.45h-1920Z"></path></clipPath><clipPath id="V" clipPathUnits="userSpaceOnUse"><path d="M-709.584 1871.522h1920v-5921.296h-1920Z"></path></clipPath><clipPath id="W" clipPathUnits="userSpaceOnUse"><path d="M-709.319 1871.952h1920v-5921.297h-1920Z"></path></clipPath><clipPath id="X" clipPathUnits="userSpaceOnUse"><path d="M-713.858 1870.644h1920v-5921.297h-1920Z"></path></clipPath><clipPath id="Y" clipPathUnits="userSpaceOnUse"><path d="M-725.365 1883.646h1920v-5921.297h-1920Z"></path></clipPath><clipPath id="Z" clipPathUnits="userSpaceOnUse"><path d="M-724.936 1882.392h1920v-5921.297h-1920Z"></path></clipPath><clipPath id="aa" clipPathUnits="userSpaceOnUse"><path d="M-770.744 1814.034h1920v-5921.297h-1920Z"></path></clipPath><clipPath id="ab" clipPathUnits="userSpaceOnUse"><path d="M-765.73 1817.527h1920V-4103.77h-1920Z"></path></clipPath><clipPath id="ac" clipPathUnits="userSpaceOnUse"><path d="M-762.744 1816.952h1920v-5921.297h-1920Z"></path></clipPath><clipPath id="ad" clipPathUnits="userSpaceOnUse"><path d="M-762.744 1816.952h1920v-5921.297h-1920Z"></path></clipPath><clipPath id="ae" clipPathUnits="userSpaceOnUse"><path d="M-761.606 1815.756h1920V-4105.54h-1920Z"></path></clipPath><clipPath id="af" clipPathUnits="userSpaceOnUse"><path d="M-760.321 1815.233h1920v-5921.297h-1920Z"></path></clipPath><clipPath id="ag" clipPathUnits="userSpaceOnUse"><path d="M-760.89 1815.615h1920v-5921.297h-1920Z"></path></clipPath><clipPath id="ah" clipPathUnits="userSpaceOnUse"><path d="M-761.37 1816.537h1920V-4104.76h-1920Z"></path></clipPath><clipPath id="ai" clipPathUnits="userSpaceOnUse"><path d="M-758.309 1812.338h1920V-4108.96h-1920Z"></path></clipPath><clipPath id="aj" clipPathUnits="userSpaceOnUse"><path d="M-758.204 1812.82h1920v-5921.298h-1920Z"></path></clipPath><clipPath id="ak" clipPathUnits="userSpaceOnUse"><path d="M-760.971 1816.11h1920v-5921.297h-1920Z"></path></clipPath><clipPath id="al" clipPathUnits="userSpaceOnUse"><path d="M-756.833 1810.457h1920V-4110.84h-1920Z"></path></clipPath><clipPath id="am" clipPathUnits="userSpaceOnUse"><path d="M-755.021 1809.02h1920v-5921.298h-1920Z"></path></clipPath><clipPath id="an" clipPathUnits="userSpaceOnUse"><path d="M-756.545 1810.874h1920v-5921.297h-1920Z"></path></clipPath><clipPath id="ao" clipPathUnits="userSpaceOnUse"><path d="M-756.537 1811.3h1920v-5921.297h-1920Z"></path></clipPath><clipPath id="ap" clipPathUnits="userSpaceOnUse"><path d="M-756.784 1811.549h1920v-5921.297h-1920Z"></path></clipPath><clipPath id="aq" clipPathUnits="userSpaceOnUse"><path d="M-757.95 1814.089h1920v-5921.297h-1920Z"></path></clipPath><clipPath id="ar" clipPathUnits="userSpaceOnUse"><path d="M-756.77 1812.061h1920v-5921.296h-1920Z"></path></clipPath><clipPath id="as" clipPathUnits="userSpaceOnUse"><path d="M-756.437 1811.853h1920v-5921.296h-1920Z"></path></clipPath><clipPath id="at" clipPathUnits="userSpaceOnUse"><path d="M-754.21 1808.774h1920v-5921.297h-1920Z"></path></clipPath><clipPath id="au" clipPathUnits="userSpaceOnUse"><path d="M-755.331 1810.018h1920v-5921.297h-1920Z"></path></clipPath><clipPath id="av" clipPathUnits="userSpaceOnUse"><path d="M-750.215 1805.149h1920v-5921.297h-1920Z"></path></clipPath><clipPath id="aw" clipPathUnits="userSpaceOnUse"><path d="M-754.21 1809.201h1920v-5921.297h-1920Z"></path></clipPath><clipPath id="ax" clipPathUnits="userSpaceOnUse"><path d="M-752.517 1806.924h1920v-5921.297h-1920Z"></path></clipPath><clipPath id="ay" clipPathUnits="userSpaceOnUse"><path d="M-755.244 1809.838h1920v-5921.297h-1920Z"></path></clipPath><clipPath id="az" clipPathUnits="userSpaceOnUse"><path d="M-755.244 1809.838h1920v-5921.297h-1920Z"></path></clipPath><clipPath id="aA" clipPathUnits="userSpaceOnUse"><path d="M-750.422 1805.407h1920V-4115.89h-1920Z"></path></clipPath><clipPath id="aB" clipPathUnits="userSpaceOnUse"><path d="M-752.668 1807.545h1920v-5921.297h-1920Z"></path></clipPath><clipPath id="aC" clipPathUnits="userSpaceOnUse"><path d="M-756.935 1813.966h1920v-5921.297h-1920Z"></path></clipPath><clipPath id="aD" clipPathUnits="userSpaceOnUse"><path d="M-756.62 1812.45h1920v-5921.297h-1920Z"></path></clipPath><clipPath id="aE" clipPathUnits="userSpaceOnUse"><path d="M-756.95 1813.883h1920v-5921.297h-1920Z"></path></clipPath><clipPath id="aF" clipPathUnits="userSpaceOnUse"><path d="M-753.878 1810.332h1920v-5921.297h-1920Z"></path></clipPath><clipPath id="aG" clipPathUnits="userSpaceOnUse"><path d="M-750.53 1804.82h1920v-5921.298h-1920Z"></path></clipPath><clipPath id="aH" clipPathUnits="userSpaceOnUse"><path d="M-747.8 1803.85h1920v-5921.297h-1920Z"></path></clipPath><clipPath id="aI" clipPathUnits="userSpaceOnUse"><path d="M-712.451 1815.66h1920v-5921.297h-1920Z"></path></clipPath><clipPath id="aJ" clipPathUnits="userSpaceOnUse"><path d="M-731.1 1803.335h1920V-4117.96h-1920Z"></path></clipPath><clipPath id="aK" clipPathUnits="userSpaceOnUse"><path d="M-728.716 1830.184h1920v-5921.297h-1920Z"></path></clipPath><clipPath id="aL" clipPathUnits="userSpaceOnUse"><path d="M-729.96 1803.094h1920v-5921.297h-1920Z"></path></clipPath><clipPath id="aM" clipPathUnits="userSpaceOnUse"><path d="M-770.957 1821.003h1920v-5921.297h-1920Z"></path></clipPath><clipPath id="aN" clipPathUnits="userSpaceOnUse"><path d="M-741.2 1803.637h1920V-4117.66h-1920Z"></path></clipPath><clipPath id="aO" clipPathUnits="userSpaceOnUse"><path d="M-742.665 1805.043h1920v-5921.296h-1920Z"></path></clipPath><clipPath id="aP" clipPathUnits="userSpaceOnUse"><path d="M-741.71 1803.8h1920v-5921.296h-1920Z"></path></clipPath><clipPath id="aQ" clipPathUnits="userSpaceOnUse"><path d="M-741.649 1803.656h1920V-4117.64h-1920Z"></path></clipPath><clipPath id="aR" clipPathUnits="userSpaceOnUse"><path d="M-741.2 1803.637h1920V-4117.66h-1920Z"></path></clipPath><clipPath id="aS" clipPathUnits="userSpaceOnUse"><path d="M-708.849 1823.364h1920v-5921.297h-1920Z"></path></clipPath><clipPath id="aT" clipPathUnits="userSpaceOnUse"><path d="M-744.77 1803.68h1920v-5921.298h-1920Z"></path></clipPath><clipPath id="aU" clipPathUnits="userSpaceOnUse"><path d="M-746.443 1805.006h1920V-4116.29h-1920Z"></path></clipPath><clipPath id="aV" clipPathUnits="userSpaceOnUse"><path d="M-746.564 1805.003h1920v-5921.297h-1920Z"></path></clipPath><clipPath id="aW" clipPathUnits="userSpaceOnUse"><path d="M-740.058 1803.805h1920v-5921.297h-1920Z"></path></clipPath><clipPath id="aX" clipPathUnits="userSpaceOnUse"><path d="M-745.774 1805.759h1920v-5921.297h-1920Z"></path></clipPath><clipPath id="aY" clipPathUnits="userSpaceOnUse"><path d="M-741.664 1805.285h1920v-5921.297h-1920Z"></path></clipPath><clipPath id="aZ" clipPathUnits="userSpaceOnUse"><path d="M-743.398 1805.298h1920v-5921.297h-1920Z"></path></clipPath><clipPath id="ba" clipPathUnits="userSpaceOnUse"><path d="M-732.268 1804.956h1920V-4116.34h-1920Z"></path></clipPath><clipPath id="bb" clipPathUnits="userSpaceOnUse"><path d="M-772.18 1818.05h1920v-5921.297h-1920Z"></path></clipPath><clipPath id="bc" clipPathUnits="userSpaceOnUse"><path d="M-772.106 1815.656h1920v-5921.297h-1920Z"></path></clipPath><clipPath id="bd" clipPathUnits="userSpaceOnUse"><path d="M-793.291 1870.803h1920v-5921.297h-1920Z"></path></clipPath><clipPath id="be" clipPathUnits="userSpaceOnUse"><path d="M-791.31 1867.442h1920v-5921.297h-1920Z"></path></clipPath><clipPath id="bf" clipPathUnits="userSpaceOnUse"><path d="M-790.796 1866.17h1920v-5921.296h-1920Z"></path></clipPath><clipPath id="bg" clipPathUnits="userSpaceOnUse"><path d="M-789.728 1862.229h1920v-5921.297h-1920Z"></path></clipPath><clipPath id="bh" clipPathUnits="userSpaceOnUse"><path d="M-789.728 1862.229h1920v-5921.297h-1920Z"></path></clipPath><clipPath id="bi" clipPathUnits="userSpaceOnUse"><path d="M-789.225 1860.603h1920v-5921.297h-1920Z"></path></clipPath><clipPath id="bj" clipPathUnits="userSpaceOnUse"><path d="M-788.457 1860.3h1920v-5921.297h-1920Z"></path></clipPath><clipPath id="bk" clipPathUnits="userSpaceOnUse"><path d="M-788.762 1860.737h1920V-4060.56h-1920Z"></path></clipPath><clipPath id="bl" clipPathUnits="userSpaceOnUse"><path d="M-788.86 1861.545h1920v-5921.297h-1920Z"></path></clipPath><clipPath id="bm" clipPathUnits="userSpaceOnUse"><path d="M-789.24 1864.037h1920V-4057.26h-1920Z"></path></clipPath><clipPath id="bn" clipPathUnits="userSpaceOnUse"><path d="M-787.756 1857.626h1920V-4063.67h-1920Z"></path></clipPath><clipPath id="bo" clipPathUnits="userSpaceOnUse"><path d="M-787.558 1857.954h1920v-5921.297h-1920Z"></path></clipPath><clipPath id="bp" clipPathUnits="userSpaceOnUse"><path d="M-788.69 1861.123h1920v-5921.297h-1920Z"></path></clipPath><clipPath id="bq" clipPathUnits="userSpaceOnUse"><path d="M-787.168 1855.862h1920v-5921.297h-1920Z"></path></clipPath><clipPath id="br" clipPathUnits="userSpaceOnUse"><path d="M-786.531 1854.135h1920v-5921.297h-1920Z"></path></clipPath><clipPath id="bs" clipPathUnits="userSpaceOnUse"><path d="M-786.855 1856.093h1920v-5921.297h-1920Z"></path></clipPath><clipPath id="bt" clipPathUnits="userSpaceOnUse"><path d="M-786.743 1856.392h1920v-5921.297h-1920Z"></path></clipPath><clipPath id="bu" clipPathUnits="userSpaceOnUse"><path d="M-787.609 1858.952h1920v-5921.297h-1920Z"></path></clipPath><clipPath id="bv" clipPathUnits="userSpaceOnUse"><path d="M-787.127 1857.545h1920v-5921.297h-1920Z"></path></clipPath><clipPath id="bw" clipPathUnits="userSpaceOnUse"><path d="M-786.64 1856.81h1920v-5921.297h-1920Z"></path></clipPath><clipPath id="bx" clipPathUnits="userSpaceOnUse"><path d="M-785.726 1853.961h1920v-5921.296h-1920Z"></path></clipPath><clipPath id="by" clipPathUnits="userSpaceOnUse"><path d="M-786.2 1855.156h1920v-5921.297h-1920Z"></path></clipPath><clipPath id="bz" clipPathUnits="userSpaceOnUse"><path d="M-782.89 1849.888h1920V-4071.41h-1920Z"></path></clipPath><clipPath id="bA" clipPathUnits="userSpaceOnUse"><path d="M-785.612 1854.27h1920v-5921.297h-1920Z"></path></clipPath><clipPath id="bB" clipPathUnits="userSpaceOnUse"><path d="M-784.975 1852.055h1920v-5921.297h-1920Z"></path></clipPath><clipPath id="bC" clipPathUnits="userSpaceOnUse"><path d="M-786.185 1855.003h1920v-5921.297h-1920Z"></path></clipPath><clipPath id="bD" clipPathUnits="userSpaceOnUse"><path d="M-786.185 1855.003h1920v-5921.297h-1920Z"></path></clipPath><clipPath id="bE" clipPathUnits="userSpaceOnUse"><path d="M-784.18 1850.954h1920v-5921.297h-1920Z"></path></clipPath><clipPath id="bF" clipPathUnits="userSpaceOnUse"><path d="M-784.96 1852.657h1920V-4068.64h-1920Z"></path></clipPath><clipPath id="bG" clipPathUnits="userSpaceOnUse"><path d="M-786.353 1858.465h1920v-5921.297h-1920Z"></path></clipPath><clipPath id="bH" clipPathUnits="userSpaceOnUse"><path d="M-786.385 1858.409h1920v-5921.297h-1920Z"></path></clipPath><clipPath id="bI" clipPathUnits="userSpaceOnUse"><path d="M-786.51 1857.268h1920v-5921.297h-1920Z"></path></clipPath><clipPath id="bJ" clipPathUnits="userSpaceOnUse"><path d="M-785.075 1855.001h1920v-5921.297h-1920Z"></path></clipPath><clipPath id="bK" clipPathUnits="userSpaceOnUse"><path d="M-783.003 1849.543h1920v-5921.297h-1920Z"></path></clipPath><clipPath id="bL" clipPathUnits="userSpaceOnUse"><path d="M-781.027 1850.193h1920v-5921.297h-1920Z"></path></clipPath><clipPath id="bM" clipPathUnits="userSpaceOnUse"><path d="M-769.929 1873.947h1920V-4047.35h-1920Z"></path></clipPath><clipPath id="bN" clipPathUnits="userSpaceOnUse"><path d="M-769.402 1856.86h1920v-5921.298h-1920Z"></path></clipPath><clipPath id="bO" clipPathUnits="userSpaceOnUse"><path d="M-751.929 1888.495h1920v-5921.297h-1920Z"></path></clipPath><clipPath id="bP" clipPathUnits="userSpaceOnUse"><path d="M-767.638 1857.663h1920v-5921.297h-1920Z"></path></clipPath><clipPath id="bQ" clipPathUnits="userSpaceOnUse"><path d="M-791.237 1875.498h1920V-4045.8h-1920Z"></path></clipPath><clipPath id="bR" clipPathUnits="userSpaceOnUse"><path d="M-776.214 1852.939h1920v-5921.297h-1920Z"></path></clipPath><clipPath id="bS" clipPathUnits="userSpaceOnUse"><path d="M-777.75 1853.259h1920v-5921.297h-1920Z"></path></clipPath><clipPath id="bT" clipPathUnits="userSpaceOnUse"><path d="M-776.618 1852.837h1920V-4068.46h-1920Z"></path></clipPath><clipPath id="bU" clipPathUnits="userSpaceOnUse"><path d="M-776.518 1852.768h1920v-5921.297h-1920Z"></path></clipPath><clipPath id="bV" clipPathUnits="userSpaceOnUse"><path d="M-775.892 1853.128h1920v-5921.297h-1920Z"></path></clipPath><clipPath id="bW" clipPathUnits="userSpaceOnUse"><path d="M-772.737 1899.174h1920v-5921.297h-1920Z"></path></clipPath><clipPath id="bX" clipPathUnits="userSpaceOnUse"><path d="M-778.595 1851.511h1920v-5921.297h-1920Z"></path></clipPath><clipPath id="bY" clipPathUnits="userSpaceOnUse"><path d="M-780.174 1851.729h1920v-5921.297h-1920Z"></path></clipPath><clipPath id="bZ" clipPathUnits="userSpaceOnUse"><path d="M-780.317 1851.643h1920v-5921.297h-1920Z"></path></clipPath><clipPath id="ca" clipPathUnits="userSpaceOnUse"><path d="M-775.637 1853.24h1920v-5921.296h-1920Z"></path></clipPath><clipPath id="cb" clipPathUnits="userSpaceOnUse"><path d="M-780.098 1852.457h1920V-4068.84h-1920Z"></path></clipPath><clipPath id="cc" clipPathUnits="userSpaceOnUse"><path d="M-777.184 1853.823h1920v-5921.296h-1920Z"></path></clipPath><clipPath id="cd" clipPathUnits="userSpaceOnUse"><path d="M-777.9 1853.414h1920v-5921.297h-1920Z"></path></clipPath><clipPath id="ce" clipPathUnits="userSpaceOnUse"><path d="M-770.827 1857.44h1920v-5921.297h-1920Z"></path></clipPath><clipPath id="cf" clipPathUnits="userSpaceOnUse"><path d="M-792.757 1873.524h1920v-5921.297h-1920Z"></path></clipPath><clipPath id="cg" clipPathUnits="userSpaceOnUse"><path d="M-793.204 1871.925h1920v-5921.297h-1920Z"></path></clipPath><clipPath id="ch" clipPathUnits="userSpaceOnUse"><path d="M-726.392 1851.49h1920v-5921.296h-1920Z"></path></clipPath><clipPath id="ci" clipPathUnits="userSpaceOnUse"><path d="M-726.31 1851.625h1920V-4069.67h-1920Z"></path></clipPath><clipPath id="cj" clipPathUnits="userSpaceOnUse"><path d="M-750.816 1847.627h1920v-5921.296h-1920Z"></path></clipPath><clipPath id="ck" clipPathUnits="userSpaceOnUse"><path d="M-748.662 1846.182h1920v-5921.297h-1920Z"></path></clipPath><clipPath id="cl" clipPathUnits="userSpaceOnUse"><path d="M-729.398 1845.89h1920v-5921.297h-1920Z"></path></clipPath><clipPath id="cm" clipPathUnits="userSpaceOnUse"><path d="M-757.68 1859.65h1920v-5921.297h-1920Z"></path></clipPath><clipPath id="cn" clipPathUnits="userSpaceOnUse"><path d="M-722.72 1869.272h1920v-5921.297h-1920Z"></path></clipPath><clipPath id="co" clipPathUnits="userSpaceOnUse"><path d="M-745.773 1878.31h1920v-5921.297h-1920Z"></path></clipPath><clipPath id="cp" clipPathUnits="userSpaceOnUse"><path d="M-736.02 1849.384h1920v-5921.297h-1920Z"></path></clipPath><clipPath id="cq" clipPathUnits="userSpaceOnUse"><path d="M-734.919 1849.697h1920v-5921.296h-1920Z"></path></clipPath><clipPath id="cr" clipPathUnits="userSpaceOnUse"><path d="M-749.79 1846.927h1920V-4074.37h-1920Z"></path></clipPath><clipPath id="cs" clipPathUnits="userSpaceOnUse"><path d="M-757.46 1864.8h1920v-5921.298h-1920Z"></path></clipPath><clipPath id="ct" clipPathUnits="userSpaceOnUse"><path d="M-724.928 1849.515h1920v-5921.297h-1920Z"></path></clipPath><clipPath id="cu" clipPathUnits="userSpaceOnUse"><path d="M-752.39 1874.434h1920v-5921.297h-1920Z"></path></clipPath><clipPath id="cv" clipPathUnits="userSpaceOnUse"><path d="M-729.692 1852.275h1920v-5921.297h-1920Z"></path></clipPath><clipPath id="cw" clipPathUnits="userSpaceOnUse"><path d="M-729.398 1852.585h1920v-5921.297h-1920Z"></path></clipPath><clipPath id="cx" clipPathUnits="userSpaceOnUse"><path d="M-727.692 1847.152h1920v-5921.297h-1920Z"></path></clipPath><clipPath id="cy" clipPathUnits="userSpaceOnUse"><path d="M-728.759 1846.252h1920v-5921.297h-1920Z"></path></clipPath><clipPath id="cz" clipPathUnits="userSpaceOnUse"><path d="M-757.658 1859.574h1920v-5921.297h-1920Z"></path></clipPath><clipPath id="cA" clipPathUnits="userSpaceOnUse"><path d="M-751.516 1858.933h1920v-5921.297h-1920Z"></path></clipPath><clipPath id="cB" clipPathUnits="userSpaceOnUse"><path d="M-747.426 1871.273h1920v-5921.297h-1920Z"></path></clipPath><clipPath id="cC" clipPathUnits="userSpaceOnUse"><path d="M-748.859 1869.701h1920v-5921.297h-1920Z"></path></clipPath><clipPath id="cD" clipPathUnits="userSpaceOnUse"><path d="M-743.388 1850.166h1920v-5921.297h-1920Z"></path></clipPath><clipPath id="cE" clipPathUnits="userSpaceOnUse"><path d="M-744.04 1850.272h1920v-5921.297h-1920Z"></path></clipPath><clipPath id="cF" clipPathUnits="userSpaceOnUse"><path d="M-725.906 1853.323h1920v-5921.297h-1920Z"></path></clipPath><clipPath id="cG" clipPathUnits="userSpaceOnUse"><path d="M-726.858 1852.336h1920v-5921.297h-1920Z"></path></clipPath><clipPath id="cH" clipPathUnits="userSpaceOnUse"><path d="M-743.352 1843.842h1920v-5921.297h-1920Z"></path></clipPath><clipPath id="cI" clipPathUnits="userSpaceOnUse"><path d="M-751.595 1848.244h1920v-5921.297h-1920Z"></path></clipPath><clipPath id="cJ" clipPathUnits="userSpaceOnUse"><path d="M-756.406 1854.14h1920v-5921.298h-1920Z"></path></clipPath><clipPath id="cK" clipPathUnits="userSpaceOnUse"><path d="M-745.65 1863.153h1920v-5921.297h-1920Z"></path></clipPath><clipPath id="cL" clipPathUnits="userSpaceOnUse"><path d="M-744.662 1855.677h1920V-4065.62h-1920Z"></path></clipPath><clipPath id="cM" clipPathUnits="userSpaceOnUse"><path d="M-745.222 1855.795h1920v-5921.297h-1920Z"></path></clipPath><clipPath id="cN" clipPathUnits="userSpaceOnUse"><path d="M-741.723 1857.115h1920v-5921.297h-1920Z"></path></clipPath><clipPath id="cO" clipPathUnits="userSpaceOnUse"><path d="M-730.323 1862.274h1920v-5921.297h-1920Z"></path></clipPath><clipPath id="cP" clipPathUnits="userSpaceOnUse"><path d="M-733.273 1860.107h1920V-4061.19h-1920Z"></path></clipPath><clipPath id="cQ" clipPathUnits="userSpaceOnUse"><path d="M-736.898 1853.308h1920V-4067.99h-1920Z"></path></clipPath><clipPath id="cR" clipPathUnits="userSpaceOnUse"><path d="M-737.457 1853.143h1920v-5921.297h-1920Z"></path></clipPath><clipPath id="cS" clipPathUnits="userSpaceOnUse"><path d="M-744.372 1855.239h1920v-5921.297h-1920Z"></path></clipPath><clipPath id="cT" clipPathUnits="userSpaceOnUse"><path d="M-747.684 1863.126h1920v-5921.297h-1920Z"></path></clipPath><clipPath id="cU" clipPathUnits="userSpaceOnUse"><path d="M-744.974 1855.547h1920V-4065.75h-1920Z"></path></clipPath><clipPath id="cV" clipPathUnits="userSpaceOnUse"><path d="M-741.758 1857.117h1920v-5921.296h-1920Z"></path></clipPath><clipPath id="cW" clipPathUnits="userSpaceOnUse"><path d="M-730.138 1860.13h1920v-5921.297h-1920Z"></path></clipPath><clipPath id="cX" clipPathUnits="userSpaceOnUse"><path d="M-731.63 1866.709h1920v-5921.297h-1920Z"></path></clipPath><clipPath id="cY" clipPathUnits="userSpaceOnUse"><path d="M-730.896 1865.634h1920v-5921.297h-1920Z"></path></clipPath><clipPath id="cZ" clipPathUnits="userSpaceOnUse"><path d="M-733.398 1854.82h1920v-5921.298h-1920Z"></path></clipPath><clipPath id="da" clipPathUnits="userSpaceOnUse"><path d="M-746.344 1864.133h1920v-5921.297h-1920Z"></path></clipPath><clipPath id="db" clipPathUnits="userSpaceOnUse"><path d="M-748.168 1861.936h1920V-4059.36h-1920Z"></path></clipPath><clipPath id="dc" clipPathUnits="userSpaceOnUse"><path d="M-744.66 1861.63h1920v-5921.297h-1920Z"></path></clipPath><clipPath id="dd" clipPathUnits="userSpaceOnUse"><path d="M-743.35 1858.722h1920v-5921.297h-1920Z"></path></clipPath></defs><path d="M0 0c.236-.054.18.177.222.21C-.184.22.002-.058 0 0" clip-path="url(#a)" style="fill:#00923b;fill-opacity:1;fill-rule:nonzero;stroke:none" transform="matrix(.2451 0 0 -.2451 9.342 19.288)"></path><path d="m0 0 .082.079-.611-.134Z" clip-path="url(#b)" style="fill:#00923b;fill-opacity:1;fill-rule:nonzero;stroke:none" transform="matrix(.2451 0 0 -.2451 8.36 19.268)"></path><path d="m0 0 .338.256c-.804.068-1.867.021-2.414.206C-1.78.04-.733.328-.096.1Z" clip-path="url(#c)" style="fill:#00923b;fill-opacity:1;fill-rule:nonzero;stroke:none" transform="matrix(.2451 0 0 -.2451 7.967 19.25)"></path><path d="M0 0c-.042.022-.054.033-.078.049a4 4 0 0 0-.373.063C-.351-.05-.893.049 0 0" clip-path="url(#d)" style="fill:#00923b;fill-opacity:1;fill-rule:nonzero;stroke:none" transform="matrix(.2451 0 0 -.2451 7.116 18.897)"></path><path d="M0 0c.389-.046-.236.158 0 0" clip-path="url(#e)" style="fill:#00923b;fill-opacity:1;fill-rule:nonzero;stroke:none" transform="matrix(.2451 0 0 -.2451 7.096 18.885)"></path><path d="M0 0c-.534.006-.438-.095-.16-.278l.528.054C.274-.123-.178-.037 0 0" clip-path="url(#f)" style="fill:#00923b;fill-opacity:1;fill-rule:nonzero;stroke:none" transform="matrix(.2451 0 0 -.2451 6.694 18.773)"></path><path d="m0 0 .273.016C.231.059.163.081 0 0" clip-path="url(#g)" style="fill:#00923b;fill-opacity:1;fill-rule:nonzero;stroke:none" transform="matrix(.2451 0 0 -.2451 6.527 18.89)"></path><path d="M0 0c.065-.071.056-.192.263.004C.202-.099.328-.01.578.033Z" clip-path="url(#h)" style="fill:#00923b;fill-opacity:1;fill-rule:nonzero;stroke:none" transform="matrix(.2451 0 0 -.2451 6.594 18.886)"></path><path d="M0 0c.984-.091.877.191-.107.281C.168.158.531.054 0 0" clip-path="url(#i)" style="fill:#00923b;fill-opacity:1;fill-rule:nonzero;stroke:none" transform="matrix(.2451 0 0 -.2451 6.837 18.972)"></path><path d="m0 0 .368-.165.349.077C.542-.126-.007.12 0 0" clip-path="url(#j)" style="fill:#00923b;fill-opacity:1;fill-rule:nonzero;stroke:none" transform="matrix(.2451 0 0 -.2451 7.399 19.224)"></path><path d="M0 0c-.043-.074.141-.236.165-.342l.39.036C.369-.224.009-.121 0 0" clip-path="url(#k)" style="fill:#00923b;fill-opacity:1;fill-rule:nonzero;stroke:none" transform="matrix(.2451 0 0 -.2451 5.882 18.68)"></path><path d="m0 0-.584-.053C-.082-.143.019-.092 0 0" clip-path="url(#l)" style="fill:#00923b;fill-opacity:1;fill-rule:nonzero;stroke:none" transform="matrix(.2451 0 0 -.2451 5.923 18.764)"></path><path d="m0 0 .968.15L-.179.022Z" clip-path="url(#m)" style="fill:#00923b;fill-opacity:1;fill-rule:nonzero;stroke:none" transform="matrix(.2451 0 0 -.2451 6.49 18.988)"></path><path d="M0 0a.7.7 0 0 0-.187-.255q.05.04.09.082A.8.8 0 0 1 0 0" clip-path="url(#n)" style="fill:#00923b;fill-opacity:1;fill-rule:nonzero;stroke:none" transform="matrix(.2451 0 0 -.2451 5.491 18.575)"></path><path d="M0 0a1.9 1.9 0 0 0-.423-.195c.084.008.111.02.028-.104.19.127.268.222.395.299" clip-path="url(#o)" style="fill:#00923b;fill-opacity:1;fill-rule:nonzero;stroke:none" transform="matrix(.2451 0 0 -.2451 5.5 18.543)"></path><path d="m0 0-.209-.023C-.175-.036-.095-.028 0 0" clip-path="url(#p)" style="fill:#00923b;fill-opacity:1;fill-rule:nonzero;stroke:none" transform="matrix(.2451 0 0 -.2451 5.396 18.59)"></path><path d="M0 0c-.052.052-.195.119-.194.146.009-.078-.01-.15.076-.239l.222-.035C.085-.101.06-.053 0 0" clip-path="url(#q)" style="fill:#00923b;fill-opacity:1;fill-rule:nonzero;stroke:none" transform="matrix(.2451 0 0 -.2451 5.52 18.702)"></path><path d="m0 0-.007.008-.215.044z" clip-path="url(#r)" style="fill:#00923b;fill-opacity:1;fill-rule:nonzero;stroke:none" transform="matrix(.2451 0 0 -.2451 5.493 18.727)"></path><path d="M0 0c.26.117-.108.281.418.396C.069.32-.642.287 0 0" clip-path="url(#s)" style="fill:#00923b;fill-opacity:1;fill-rule:nonzero;stroke:none" transform="matrix(.2451 0 0 -.2451 6.032 18.983)"></path><path d="m0 0-.666-.062.592-.137C-.077-.139-.173-.038 0 0" clip-path="url(#t)" style="fill:#00923b;fill-opacity:1;fill-rule:nonzero;stroke:none" transform="matrix(.2451 0 0 -.2451 5.78 18.799)"></path><path d="m0 0-.084-.079.304.028Z" clip-path="url(#u)" style="fill:#00923b;fill-opacity:1;fill-rule:nonzero;stroke:none" transform="matrix(.2451 0 0 -.2451 5.563 18.801)"></path><path d="M0 0c.116.054.321.152.193.163C.096.137-.04.1-.055.127c.001.035.02.082.039.132A2 2 0 0 1-.189.045 1 1 0 0 1 0 0" clip-path="url(#v)" style="fill:#00923b;fill-opacity:1;fill-rule:nonzero;stroke:none" transform="matrix(.2451 0 0 -.2451 5.227 18.713)"></path><path d="m0 0-.06-.025.028-.029z" clip-path="url(#w)" style="fill:#00923b;fill-opacity:1;fill-rule:nonzero;stroke:none" transform="matrix(.2451 0 0 -.2451 5.425 18.284)"></path><path d="M0 0c.06-.053.2-.018.327.034A1.5 1.5 0 0 0 .03.038C-.021.013-.051-.004 0 0" clip-path="url(#x)" style="fill:#00923b;fill-opacity:1;fill-rule:nonzero;stroke:none" transform="matrix(.2451 0 0 -.2451 5.22 18.723)"></path><path d="M0 0a1.3 1.3 0 0 1-.221-.145C-.104-.08.065-.003 0 0" clip-path="url(#y)" style="fill:#00923b;fill-opacity:1;fill-rule:nonzero;stroke:none" transform="matrix(.2451 0 0 -.2451 5.338 18.557)"></path><path d="m0 0 .021.007C.034.054.018.032 0 0" clip-path="url(#z)" style="fill:#00923b;fill-opacity:1;fill-rule:nonzero;stroke:none" transform="matrix(.2451 0 0 -.2451 5.361 18.69)"></path><path d="M0 0c-.071-.022-.16-.065-.252-.102q.122.008.231.042c.001.016.01.039.021.06" clip-path="url(#A)" style="fill:#00923b;fill-opacity:1;fill-rule:nonzero;stroke:none" transform="matrix(.2451 0 0 -.2451 5.361 18.69)"></path><path d="m0 0-.014.039-.023-.095q.068.069.165.104c.068.03.121-.001.303.16.109.408.082.52.035.578L.161.262Z" clip-path="url(#B)" style="fill:#00923b;fill-opacity:1;fill-rule:nonzero;stroke:none" transform="matrix(.2451 0 0 -.2451 5.303 18.49)"></path><path d="M0 0c-.218-.429.078-.251.099-.416.219.515.1-.08.463.313a.5.5 0 0 0-.039-.195q.117.13.247.234L.747-.076v-.001L.742-.078C.697-.102.671-.114.703-.09l-.002.006a.6.6 0 0 0-.102-.008c.124.129.084.031.102.008l.041.006.005.002Q.762.08.811.298C.731.217.671.095.597-.092.331-.106.398.216 0 0" clip-path="url(#C)" style="fill:#00923b;fill-opacity:1;fill-rule:nonzero;stroke:none" transform="matrix(.2451 0 0 -.2451 5.095 18.577)"></path><path d="M0 0c-.033.025-.029.041-.03.057C-.108.041-.139.026 0 0" clip-path="url(#D)" style="fill:#00923b;fill-opacity:1;fill-rule:nonzero;stroke:none" transform="matrix(.2451 0 0 -.2451 5.864 19.079)"></path><path d="m0 0-.086-.019c-.455.145-1.013.512-.927.531.107-.222.206-.383.487-.626.089.019.172.099.442.036.227-.102-.017-.107-.015-.183.174.035.6.077.099.261" clip-path="url(#E)" style="fill:#00923b;fill-opacity:1;fill-rule:nonzero;stroke:none" transform="matrix(.2451 0 0 -.2451 5.88 19.001)"></path><path d="m0 0 .107.103C.488.001.526.142.649.216l-.798.003Q-.098.113 0 0" clip-path="url(#F)" style="fill:#00923b;fill-opacity:1;fill-rule:nonzero;stroke:none" transform="matrix(.2451 0 0 -.2451 5.059 18.895)"></path><path d="m0 0-.024.655-.123-.427Z" clip-path="url(#G)" style="fill:#00923b;fill-opacity:1;fill-rule:nonzero;stroke:none" transform="matrix(.2451 0 0 -.2451 5.498 18.33)"></path><path d="m0 0-.211-.212.16-.141z" clip-path="url(#H)" style="fill:#00923b;fill-opacity:1;fill-rule:nonzero;stroke:none" transform="matrix(.2451 0 0 -.2451 5.657 17.947)"></path><path d="M0 0c-.414.199-.876.505-.829.271l.126-.23C-.412.079-.189.051 0 0" clip-path="url(#I)" style="fill:#00923b;fill-opacity:1;fill-rule:nonzero;stroke:none" transform="matrix(.2451 0 0 -.2451 4.317 12.902)"></path><path d="M0 0c-.169.506-.361.945-.548 1.32C-.327.627-.31.178 0 0" clip-path="url(#J)" style="fill:#00923b;fill-opacity:1;fill-rule:nonzero;stroke:none" transform="matrix(.2451 0 0 -.2451 7.146 16.556)"></path><path d="M0 0c-.119.141-.206.21-.237.151C-.118.016-.042-.028 0 0" clip-path="url(#K)" style="fill:#00923b;fill-opacity:1;fill-rule:nonzero;stroke:none" transform="matrix(.2451 0 0 -.2451 .742 18.287)"></path><path d="M0 0q-.06.19-.138.394l-.143.335a1.16 1.16 0 0 1-.335.423l.042-.193q.119-.158.231-.332C-.258.49-.113.226 0 0" clip-path="url(#L)" style="fill:#00923b;fill-opacity:1;fill-rule:nonzero;stroke:none" transform="matrix(.2451 0 0 -.2451 7.012 16.232)"></path><path d="M0 0c.013-.118.013-.31.015-.491C.031-.403.03-.255 0 0" clip-path="url(#M)" style="fill:#00923b;fill-opacity:1;fill-rule:nonzero;stroke:none" transform="matrix(.2451 0 0 -.2451 9.665 20.418)"></path><path d="m0 0-.075.047C-.067.004-.051-.026 0 0" clip-path="url(#N)" style="fill:#00923b;fill-opacity:1;fill-rule:nonzero;stroke:none" transform="matrix(.2451 0 0 -.2451 6.033 17.321)"></path><path d="M0 0q.028-.034.024-.045l.105-.02A.4.4 0 0 0 0 0" clip-path="url(#O)" style="fill:#00923b;fill-opacity:1;fill-rule:nonzero;stroke:none" transform="matrix(.2451 0 0 -.2451 6.051 17.316)"></path><path d="m0 0-.167.087C.237.111.119.059 0 0m-17.853 41.388c-.034.099.118.124.375.096l-.212.068c-.069.12-.056.189-.007.234l.408-.331c-.062.009-.134.023-.189.029l.295-.115.172-.14c.027-.148.034-.266.052-.335zm5.264 4.375c-.059-.116-.032-.285.003-.467l-.669.007zm8.744-.285c.211.106.455.189.699.228.258.04.471-.098.624-.259q.024-.184.03-.366c.217-.256.49-.636.664-.82-.232.065-.682.389-1.057.538q-.067.025-.13.052l-.076.142a.36.36 0 0 1-.339.203l-.864.009c.129.095.271.187.449.273m3.718-4.54c.021-.098.34-1.455.312-1.826a.24.24 0 0 0-.06-.145l-.451.845.344.205-.407-.087-.442.827c.272.149.541.23.704.181m2.064-4.877c-.082-.009-.122-.133-.142-.223l-.37.693c.195-.138.384-.304.512-.47m3.116-5.163c.145-.183.281-.396.392-.606.455-1.043-.222-.222-.085-.434.122-.409.296-.684.378-.957a.86.86 0 0 0-.185-.666c-.065-.129-.259-.074-.501-.068a5.7 5.7 0 0 0-1.114.253c-.815.39-.204.48-.434.684.375-.071.686-.199.999-.322.31-.091.627-.341.859-.145-.225-.141-.494.036-.747.121.098.019.254-.071.437-.022.193.061.295.289.312.404-.023-.039-.05-.123-.128-.205a.4.4 0 0 1 .053.11.42.42 0 0 1-.035.311L3.699 32.27c.357-.214.813-.654 1.354-1.372m-1.05-2.749.024.005c.635-.179.408-.112-.024-.005m-6.207-2.176c-.004.001-.006.011-.009.014l.033.06zm-.593-1.046.465.845a1.6 1.6 0 0 0-.465-.845m18.546-9.552c-.044-.242-.229.006-.354-.041l.356 1.505c-.347.277-.016 1.616-.347 1.775l.057-.477c-.213.349-.457.048-.716-.278l.004.93a.39.39 0 0 1-.321.396l-18.874 2.747 1.048 1.903c-.013-.027-.029-.054-.031-.082l.137.006c.132.253.163.458.019.303l.424.77c-.097-.543.655-.538 1.221-.284-.07.06-.144.1.037.684-.2-.129-.873-1.036-.794-.503.288.747.378.534.66.819-.342-.143.042.801-.156 1.041l2.017 3.663.617-.193c-.024-.025-.023-.059.04-.114l.408-.087c.314-.337-.68-.116-.22-.372-.187-.015-.351-.056-.507-.076-.082-.323-.158-.559-.355-.766q-.15.06-.312.1c.091-.03.34.219.358.455-.016-.176-.198-.28-.387-.471-.186-.182-.408-.504-.307-.759l.481.41c-.149-.605-.209-1.422-.658-2.028.443.145.051.169.633.455-.628-.181.941 1.666.157 1.253.352.191.41.2.483.255.069.048.146.124.29.005-.056.105-.14.144-.044.247l.028-.016a.3.3 0 0 0 .005.096l.017-.013-.016.018q.006.025-.006.006l-.117.131a.2.2 0 0 0-.056.048 1 1 0 0 0-.007.108c.081.169.554.024.756.082.102-.059.097-.083.024-.107-.044-.026-.093-.059-.059-.129.131.032.435.042.627.062-.007-.238 1.298-.584.076-.516l1.111-.18c.669-.217 1.661-.385 2.165-.39.265-.033.637-.121.656.03.098.125.132.205.051.02.179.149.341.436.355.634.002.182-.031.337-.061.534l.064-.03c-.001.389-.071.957-.493 1.684a26 26 0 0 0-.965 1.678c-.283.548-.595 1.242-.633 1.589-.246.335-.511.676-.776 1.315l.117.214c-.311.433-.567 1.496-.861 1.597.216.761-1.102 2.319-1.453 3.184l-.252-.094c-.288.571-.644 1.077-1.112 1.727l-.184-.154c-.493.513-.681 1.631-1.212 2.576.114-.023.222-.277.266-.474a2.3 2.3 0 0 1-.193.707c-.059.13-.083.175-.189.365l-.308.514c-.216.341-.454.597-.769.766-.337.153-.683.14-1.052.135a6 6 0 0 0-.783-.004c-.17.013-.337.043-.498.098a1.18 1.18 0 0 0-.709.011q.041 0 .073.012l-.12.004-.405.13c.122-.059.238-.107.34-.13a6.5 6.5 0 0 1-.903-.083l-.14.254-.078-.006c-.328.097-.266-.117-.092-.309a2.2 2.2 0 0 1-.445-.148c-.263.411-.881-.128-1.241.311-.228-.21-1.687-.141-1.87-.586-.011.059-.11.087.071.089-.373.055-.746.11-1.082-.012l-.155.323-.821-.424c-.494.202-.698.318-.203.56-1.193-.367-.966-.133-1.981-.499l.052.208c-.361-.004-.942-.277-1.158-.102-.24.2-1.781.23-3.428.259-.901.064-1.55-.123-2.066-.247l-.72-.18c-.249-.071-.439-.515-.42-.725.292.09.192-.113.323-.305.087-.207.158-.481.48-.549-.104-.066-.057-.293-.399-.004.396-.459.534-.781.692-1.086.416-.365.878-.72 1.524-1 .007-.193-.53.158-.484.01.158-.089.59-.318.658-.485.073-.17-.327.109-.641.283.784-.621 1.386-.959 1.601-.918.165.081.35.209.527.335.144-.372.225-.402.79-.507-.031-.067-.034-.135-.154-.166-.05-.013-.049-.004-.1.016a1 1 0 0 0-.222.112l.078-.081.053-.056c-.007-.025-.037-.056-.055-.085a7 7 0 0 1-.256-.382 1.4 1.4 0 0 1-.171-.362c-.039-.128-.082-.305-.007-.343-.134-.06-.285-.45-.301-.556-.437-.735-.499-.787-.874-1.538l.16.177c.198-.484-.254-.654-.526-1.275l-.027.036c-.975-1.24-.188-.653-1.174-1.869l.262-.038c.421-.365-.887-1.071-1.077-1.967l.266.228c-.038-.514-1.241-.916-1.504-1.338-.087-.079 0 .184.03.335-.207-.269-.284-.375-.34-.566-.036-.147.009-.18.071-.201.125-.04.313-.057.107-.698-.134-.109-.218-.022-.313-.013-.067.003-.288-.06-.268-.59-.023-.135.042-.371.225-.671.185-.27.498-.707.637-.845.355-.411.72-.894.774-1.356.031.233.062.465.36.126.359-.569.396-1.846 1.063-2.178.007-.093-.009-.138-.038-.157.34-.401.949-1.386 1.301-1.548-.544-.828 1.876-2.618 1.162-2.985l.781-1.374-.092-.002c.428-.916.766-1.14 1.103-1.363.061-.231-.085-.116-.131-.119.551-1.378.65-1.491 1.585-2.395l-.169-.235c.291-.225.642-2.074 1.591-3.208-.033-.002-.091.001-.178.085 1.036-1.292 1.196-3.778 2.313-3.858l.712-.838c-.589 1.261.461.011.331.589.306-.456.412-1.381.053-.811l-.008.115c-.552-.015.658-1.607.344-1.732.355-.652.688-1.311 1.009-1.969l.243-.5c.119-.235.229-.48.358-.71.138-.221.262-.437.49-.573.219-.116.46-.181.724-.227l1.988-.331A53 53 0 0 1-3.413.31l-.247.417.884-.13C-2.554.48-2.5.26-3.13.354c.306-.257 1.083.051 1.111.132C-.799.18-2.557.1-2.178.044l.519-.034-.111.059c.438.105.495.265 1.253.154.472-.135.218-.265.406-.303-.005-.027.058-.048.289-.047l1.113-.169-.41.356c.514.088 1.049-.144.575.26.693-.618 4.145-.697 4.59-.917.72.135 1.405.047 2.25-.083-.204.089-.289.443.438.312-.353-.666 1.303-.467 1.832-1.041-.487.397 2.09-.172 1.319.403.618-.133-.028-.262.481-.491.733.026 1.568-.162 2.232-.042.162.025.321.03.489.146a.9.9 0 0 1 .34.412c.126.293.262.66.283 1.117l.047 1.249c.01.363.009.579-.003.878-.092.029-.235-.273-.371.116l.467.952c-.043.358-.531.332-.207.983-.079-.092-.197-.229-.225.011.469 3.542-.332 7.244.533 10.839-.182-.487-.198-.162-.202.211" clip-path="url(#P)" style="fill:#00923b;fill-opacity:1;fill-rule:nonzero;stroke:none" transform="matrix(.2451 0 0 -.2451 5.809 24.307)"></path><path d="m0 0 .056.135c.01.031.005.033.009.051a1 1 0 0 0-.124-.18l-.155-.154c.058-.017.187.039.103-.123z" clip-path="url(#Q)" style="fill:#00923b;fill-opacity:1;fill-rule:nonzero;stroke:none" transform="matrix(.2451 0 0 -.2451 5.952 17.461)"></path><path d="m0 0 .035.063c.203-.249.326.179.448.605C.274.73.162.376 0 0" clip-path="url(#R)" style="fill:#00923b;fill-opacity:1;fill-rule:nonzero;stroke:none" transform="matrix(.2451 0 0 -.2451 5.562 17.707)"></path><path d="M0 0a2.4 2.4 0 0 0-.177-.332c.082-.1.095.121.177.332" clip-path="url(#S)" style="fill:#00923b;fill-opacity:1;fill-rule:nonzero;stroke:none" transform="matrix(.2451 0 0 -.2451 5.552 17.728)"></path><path d="M0 0c-.004.016-.041.032-.123.048A2 2 0 0 1-.41.079c-.061.077-.094-.256-.11-.16-.023-.064-.011-.082.014-.073q.02.007.051.029c.014.006.013.015.042.022l.131.016C-.115-.064.009-.032 0 0" clip-path="url(#T)" style="fill:#00923b;fill-opacity:1;fill-rule:nonzero;stroke:none" transform="matrix(.2451 0 0 -.2451 6.229 17.324)"></path><path d="m0 0 .301.001-.076.302Z" clip-path="url(#U)" style="fill:#00923b;fill-opacity:1;fill-rule:nonzero;stroke:none" transform="matrix(.2451 0 0 -.2451 5.49 17.531)"></path><path d="M0 0c.128-.044.207-.061.187-.015l-.22.097-.208-.283c.03-.037.008-.13-.024-.228z" clip-path="url(#V)" style="fill:#00923b;fill-opacity:1;fill-rule:nonzero;stroke:none" transform="matrix(.2451 0 0 -.2451 5.87 16.962)"></path><path d="M0 0c-.093-.159-.177-.322-.194-.442.046.088.142.28.194.442" clip-path="url(#W)" style="fill:#00923b;fill-opacity:1;fill-rule:nonzero;stroke:none" transform="matrix(.2451 0 0 -.2451 5.805 17.067)"></path><path d="M0 0c.168-.185.331-.451.4-.402Q.23-.104.035.196l-.076.116c-.091.058-.12.024-.09-.067A1 1 0 0 1 0 0" clip-path="url(#X)" style="fill:#00923b;fill-opacity:1;fill-rule:nonzero;stroke:none" transform="matrix(.2451 0 0 -.2451 6.918 16.746)"></path><path d="m0 0 .114.541-.181-.349Z" clip-path="url(#Y)" style="fill:#00923b;fill-opacity:1;fill-rule:nonzero;stroke:none" transform="matrix(.2451 0 0 -.2451 9.738 19.933)"></path><path d="M0 0c.079.156.131.342.138.549-.308.324-.781.504-1.185.449A1.24 1.24 0 0 0-.292.634C-.081.418.007.149 0 0" clip-path="url(#Z)" style="fill:#00923b;fill-opacity:1;fill-rule:nonzero;stroke:none" transform="matrix(.2451 0 0 -.2451 9.633 19.626)"></path><path d="M0 0c.724-.137.913-.299 1.032-.262.11.014.094.131.206.08C.685.215.211.242-.024.232-.272.215-.335.157-.321.121-.289.048.028-.035 0 0" clip-path="url(#aa)" style="fill:#00923b;fill-opacity:1;fill-rule:nonzero;stroke:none" transform="matrix(.2451 0 0 -.2451 20.86 2.872)"></path><path d="m0 0-.453-.667.446.519z" clip-path="url(#ab)" style="fill:#00923b;fill-opacity:1;fill-rule:nonzero;stroke:none" transform="matrix(.2451 0 0 -.2451 19.631 3.728)"></path><path d="M0 0c-.075.07-.176.168-.338.346C-.36.1-.845.609.043-.109.016-.054.013-.034 0 0" clip-path="url(#ac)" style="fill:#00923b;fill-opacity:1;fill-rule:nonzero;stroke:none" transform="matrix(.2451 0 0 -.2451 18.9 3.587)"></path><path d="M0 0c.368-.338-.122.344 0 0" clip-path="url(#ad)" style="fill:#00923b;fill-opacity:1;fill-rule:nonzero;stroke:none" transform="matrix(.2451 0 0 -.2451 18.9 3.587)"></path><path d="M0 0c-.019.177-.417.605-.205.512C-.751.918-.731.741-.588.34Z" clip-path="url(#ae)" style="fill:#00923b;fill-opacity:1;fill-rule:nonzero;stroke:none" transform="matrix(.2451 0 0 -.2451 18.62 3.294)"></path><path d="m0 0 .294-.188C.284-.113.231-.039 0 0" clip-path="url(#af)" style="fill:#00923b;fill-opacity:1;fill-rule:nonzero;stroke:none" transform="matrix(.2451 0 0 -.2451 18.306 3.165)"></path><path d="M0 0c-.144-.062.056-.063.347-.206l-.622.4C-.263.07-.368-.05 0 0" clip-path="url(#ag)" style="fill:#00923b;fill-opacity:1;fill-rule:nonzero;stroke:none" transform="matrix(.2451 0 0 -.2451 18.445 3.259)"></path><path d="M0 0c.952-.833 1.058-.455.108.375C.297.041.593-.34 0 0" clip-path="url(#ah)" style="fill:#00923b;fill-opacity:1;fill-rule:nonzero;stroke:none" transform="matrix(.2451 0 0 -.2451 18.562 3.485)"></path><path d="M0 0c-.103-.044-.044-.353-.105-.481l.426-.263C.197-.516-.088-.132 0 0" clip-path="url(#ai)" style="fill:#00923b;fill-opacity:1;fill-rule:nonzero;stroke:none" transform="matrix(.2451 0 0 -.2451 17.812 2.456)"></path><path d="m0 0-.638.396C-.198-.086-.053-.109 0 0" clip-path="url(#aj)" style="fill:#00923b;fill-opacity:1;fill-rule:nonzero;stroke:none" transform="matrix(.2451 0 0 -.2451 17.787 2.574)"></path><path d="m0 0-1.284.732.167-.159Z" clip-path="url(#ak)" style="fill:#00923b;fill-opacity:1;fill-rule:nonzero;stroke:none" transform="matrix(.2451 0 0 -.2451 18.465 3.38)"></path><path d="m0 0-.782.277.318-.147Z" clip-path="url(#al)" style="fill:#00923b;fill-opacity:1;fill-rule:nonzero;stroke:none" transform="matrix(.2451 0 0 -.2451 17.45 1.995)"></path><path d="M0 0c.362-.08-.061.543.259.396C-.13.733-.56.922-.95 1.087-.591.856-.291.523 0 0" clip-path="url(#am)" style="fill:#00923b;fill-opacity:1;fill-rule:nonzero;stroke:none" transform="matrix(.2451 0 0 -.2451 17.007 1.642)"></path><path d="m0 0-.009-.412.198-.21C.195-.537.238-.344 0 0" clip-path="url(#an)" style="fill:#00923b;fill-opacity:1;fill-rule:nonzero;stroke:none" transform="matrix(.2451 0 0 -.2451 17.38 2.097)"></path><path d="M0 0v.014l-.424.459z" clip-path="url(#ao)" style="fill:#00923b;fill-opacity:1;fill-rule:nonzero;stroke:none" transform="matrix(.2451 0 0 -.2451 17.378 2.201)"></path><path d="m0 0-.05.053C-.051.013-.046-.006 0 0" clip-path="url(#ap)" style="fill:#00923b;fill-opacity:1;fill-rule:nonzero;stroke:none" transform="matrix(.2451 0 0 -.2451 17.439 2.262)"></path><path d="M0 0c.359-.077.113.375.742.091C.324.278-.428.794 0 0" clip-path="url(#aq)" style="fill:#00923b;fill-opacity:1;fill-rule:nonzero;stroke:none" transform="matrix(.2451 0 0 -.2451 17.724 2.885)"></path><path d="m0 0 .494-.603c.045.065.028.245.235.149z" clip-path="url(#ar)" style="fill:#00923b;fill-opacity:1;fill-rule:nonzero;stroke:none" transform="matrix(.2451 0 0 -.2451 17.435 2.388)"></path><path d="m0 0 .332-.208-.183.224Z" clip-path="url(#as)" style="fill:#00923b;fill-opacity:1;fill-rule:nonzero;stroke:none" transform="matrix(.2451 0 0 -.2451 17.354 2.337)"></path><path d="M0 0c-.33.15-.603.403-.917.683.281-.357.59-.705.902-1.018C.094-.313.349-.334 0 0" clip-path="url(#at)" style="fill:#00923b;fill-opacity:1;fill-rule:nonzero;stroke:none" transform="matrix(.2451 0 0 -.2451 16.808 1.582)"></path><path d="m0 0-.065.042C-.05-.009-.03-.041 0 0" clip-path="url(#au)" style="fill:#00923b;fill-opacity:1;fill-rule:nonzero;stroke:none" transform="matrix(.2451 0 0 -.2451 17.083 1.887)"></path><path d="m0 0 .036-.122.048.019z" clip-path="url(#av)" style="fill:#00923b;fill-opacity:1;fill-rule:nonzero;stroke:none" transform="matrix(.2451 0 0 -.2451 15.829 .694)"></path><path d="M0 0c.2-.279.392-.372.592-.444a8 8 0 0 0-.607.536C-.064.082-.087.066 0 0" clip-path="url(#aw)" style="fill:#00923b;fill-opacity:1;fill-rule:nonzero;stroke:none" transform="matrix(.2451 0 0 -.2451 16.808 1.687)"></path><path d="M0 0c.084-.167.191-.343.309-.523C.25-.337.098.012 0 0" clip-path="url(#ax)" style="fill:#00923b;fill-opacity:1;fill-rule:nonzero;stroke:none" transform="matrix(.2451 0 0 -.2451 16.393 1.129)"></path><path d="m0 0 .045-.026C.012.097 0 .065 0 0" clip-path="url(#ay)" style="fill:#00923b;fill-opacity:1;fill-rule:nonzero;stroke:none" transform="matrix(.2451 0 0 -.2451 17.061 1.843)"></path><path d="M0 0c-.153.094-.3.141-.443.193Q-.2-.005.022-.138A.5.5 0 0 0 0 0" clip-path="url(#az)" style="fill:#00923b;fill-opacity:1;fill-rule:nonzero;stroke:none" transform="matrix(.2451 0 0 -.2451 17.061 1.843)"></path><path d="M0 0c.018.002.057.019.054.007l.035-.034.14-.138.279-.275.556-.555-.107.046.254-.196C.98-.86.868-.599.666-.117a2.4 2.4 0 0 1-.504.23C-.041.107-.058.19-.123.155l.097-.126C-.017.02-.012.006 0 0" clip-path="url(#aA)" style="fill:#00923b;fill-opacity:1;fill-rule:nonzero;stroke:none" transform="matrix(.2451 0 0 -.2451 15.88 .757)"></path><path d="M0 0c-.386-.039-1.023.401-.909-.155C-.224-.79-.265-.431.224-.73-.91.27.652-.913-.015-.033c.249-.17.451-.346.64-.514Q.37-.221.159.097L.171.059.176.055.172.052C.193-.02.193-.05.155.016.149.017.135.029.128.034A.3.3 0 0 0 .001.001C-.271.35.005.104.128.034.142.041.16.042.172.052L.171.059l-1.205.934C-.83.743-.535.472 0 0" clip-path="url(#aB)" style="fill:#00923b;fill-opacity:1;fill-rule:nonzero;stroke:none" transform="matrix(.2451 0 0 -.2451 16.43 1.28)"></path><path d="M0 0c-.014.052.003.065.016.083C-.078.126-.122.135 0 0" clip-path="url(#aC)" style="fill:#00923b;fill-opacity:1;fill-rule:nonzero;stroke:none" transform="matrix(.2451 0 0 -.2451 17.476 2.855)"></path><path d="m0 0 .015.078C-.007.087-.008.053 0 0" clip-path="url(#aD)" style="fill:#00923b;fill-opacity:1;fill-rule:nonzero;stroke:none" transform="matrix(.2451 0 0 -.2451 17.398 2.483)"></path><path d="M0 0c.206-.098.676-.384.309.194L.206.242c-.277.399-.505.987-.537 1.191-.055-.277-.074-.518.012-.949.106-.049.254-.031.48-.306C.313-.104.058.08 0 0" clip-path="url(#aE)" style="fill:#00923b;fill-opacity:1;fill-rule:nonzero;stroke:none" transform="matrix(.2451 0 0 -.2451 17.48 2.835)"></path><path d="m0 0 .087.131c.458-.549.485-.306.632-.286L-.27.633Z" clip-path="url(#aF)" style="fill:#00923b;fill-opacity:1;fill-rule:nonzero;stroke:none" transform="matrix(.2451 0 0 -.2451 16.726 1.964)"></path><path d="M0 0a2.9 2.9 0 0 1-1.167.372c.279-.092.519-.229.775-.416.127.02.263.042.392.044" clip-path="url(#aG)" style="fill:#00923b;fill-opacity:1;fill-rule:nonzero;stroke:none" transform="matrix(.2451 0 0 -.2451 15.906 .613)"></path><path d="m0 0-.443-.141.363-.128c.027.09.044.18.08.269" clip-path="url(#aH)" style="fill:#00923b;fill-opacity:1;fill-rule:nonzero;stroke:none" transform="matrix(.2451 0 0 -.2451 15.237 .375)"></path><path d="M0 0c-.523-.277-1.197-.521-.913-.652l.338-.047c.18.332.378.542.575.699" clip-path="url(#aI)" style="fill:#00923b;fill-opacity:1;fill-rule:nonzero;stroke:none" transform="matrix(.2451 0 0 -.2451 6.573 3.27)"></path><path d="M0 0c-.455.141-.819.21-1.141.242C-.594.041-.16-.24 0 0" clip-path="url(#aJ)" style="fill:#00923b;fill-opacity:1;fill-rule:nonzero;stroke:none" transform="matrix(.2451 0 0 -.2451 11.144 .25)"></path><path d="M0 0c.088.214.095.327.037.361C-.057.144-.087.004 0 0" clip-path="url(#aK)" style="fill:#00923b;fill-opacity:1;fill-rule:nonzero;stroke:none" transform="matrix(.2451 0 0 -.2451 10.56 6.83)"></path><path d="M0 0c-.403.149-.869.253-1.332.07.08-.034.159-.053.24-.083C-.752.019-.411.041 0 0" clip-path="url(#aL)" style="fill:#00923b;fill-opacity:1;fill-rule:nonzero;stroke:none" transform="matrix(.2451 0 0 -.2451 10.864 .19)"></path><path d="M0 0c.051.103.102.286.153.611C.129.461.061.225 0 0" clip-path="url(#aM)" style="fill:#00923b;fill-opacity:1;fill-rule:nonzero;stroke:none" transform="matrix(.2451 0 0 -.2451 20.912 4.58)"></path><path d="M0 0c.345.001.056.03 0 0" clip-path="url(#aN)" style="fill:#00923b;fill-opacity:1;fill-rule:nonzero;stroke:none" transform="matrix(.2451 0 0 -.2451 13.62 .323)"></path><path d="M0 0c.032.07.083.113.145.137C.07.108.013.068 0 0" clip-path="url(#aO)" style="fill:#00923b;fill-opacity:1;fill-rule:nonzero;stroke:none" transform="matrix(.2451 0 0 -.2451 13.978 .668)"></path><path d="M0 0a3 3 0 0 1-.435.112C-.365.085-.233.049 0 0" clip-path="url(#aP)" style="fill:#00923b;fill-opacity:1;fill-rule:nonzero;stroke:none" transform="matrix(.2451 0 0 -.2451 13.744 .363)"></path><path d="m0 0 .299-.045C.345.002.308.036 0 0" clip-path="url(#aQ)" style="fill:#00923b;fill-opacity:1;fill-rule:nonzero;stroke:none" transform="matrix(.2451 0 0 -.2451 13.73 .328)"></path><path d="m0 0-.48.01c.197-.007.38-.031.555-.061C.009-.027-.019-.009 0 0" clip-path="url(#aR)" style="fill:#00923b;fill-opacity:1;fill-rule:nonzero;stroke:none" transform="matrix(.2451 0 0 -.2451 13.62 .323)"></path><path d="m0 0-.513-.689.016 1.045C-.418.206-.219.103 0 0m6.682 10.604.348.088.459 1.048c.027-.388.013-1.032-.03-1.727l-1.1-1.477c-.025.686.034 1.442.323 2.068m5.7 6.283c.083.027.15.026.204.008l-.735-.987-.435.293.332-.431-.719-.966c-.328.239-.574.511-.61.73.103.077 1.513 1.185 1.963 1.353m3.673 2.139c-.044-.097.065-.225.15-.31l-1.003.055c.269.126.595.224.853.255m7.71.146c1.258.077.522-.404.743-.333 2.342-.228 2.055.905 3.982.382.753-.411-.005-.737.152-1.013-1.025-.084-1.55.319-2.241.341l.84-.22c-.331-.105-1.015-.162-1.38-.036.076-.043.193-.081.341-.113l-4.816.258c.483.338 1.341.614 2.379.734m4.801.487-.027-.014c-.554.159-.358.097.027.014m10.804-2.167c-.001-.006-.013-.013-.017-.019l-.087.005zm.54-.039c.237-.154.522-.444.7-.766l-.588.553a.47.47 0 0 1-.387.218.6.6 0 0 0 .275-.005m14.399-13.71.051-.303c.062-.067.127-.142.191-.213l-.578.166-.024.055q.172.152.349.312zm.541-.71-.557-.389-.267.625.665-.191.004-.005-.003.005zM34.484-14.685l-.113.158c.586-.155.367-.154.113-.158m-31.307.393c-.061.172.144.173.433.133l-.25.113c-.086.187-.065.283-.003.343l.455-.487-.202.031.322-.159.205-.22c.057-.249.108-.469.158-.604zm-8.204 8.043.036-.012c.314-.394.556-.817.957-1.217l.541-.598.378-.435c.497-.583.96-1.17 1.323-1.732.233.925.582-1.15 1.109-.803-.033-.243.142-.587-.273-.385 1.064-.866 1.175-1.698 2.198-2.026-.033-.244-.401.023-.389-.155.104-.052.415-.203.429-.384.012-.178-.252.037-.46.138.972-.994 1.495-.697 1.965-.397.291-.692.557-.923 1.167-1.049.036-.301.178-.728-.458-.142.312-.372 1.832-2.347 2.187-2.083.02-.103.102-.203.262-.357.165-.158.336-.294.41-.336.959-1.067 1.103-1.332 2.064-1.871l-.255.242c.103.085.196.093.29.064.109-.019.257-.05.415-.035.334.04.524.236.873.604l-.001-.08c.432.297.689.627.849.83.163.211.232.343.299.469.121.234.322.567 1.042 1.187l-.329.108c-.468.564 1.353 1.154 1.798 2.23l-.393-.22c.166.643 1.796.833 2.232 1.284.13.073-.045-.231-.119-.411 1.293 1.071-.226.424.404 1.464.32.044.311-.581.824.054.392.218.776 2.359 1.791 2.998-.29-.094-.578-.185-.357.349.454.737 1.919 1.49 1.917 2.453.104.06.167.066.206.044.268.619 1.061 1.877 1.045 2.379 1.281-.176 1.957 3.644 2.8 3.016L24.894.611l.056-.106c.817 1.009.882 1.528.945 2.045.234.2.185-.034.215-.087l.428.476.216.229c.108.12.181.225.243.353.13.264.188.586.468 1.418q.061-.206.11-.429.012.052.037.1c.126-.082.412-.588.657-.994.127-.208.249-.398.393-.559.236-.26.618-.627.965-.864-.041-.013-.116-.03-.251.046 1.714-1.261 2.708-4.314 4.14-4.031l1.162-.804c-1.143 1.375.575.172.228.85.53-.465.958-1.585.325-.996l-.046.141c-.69-.207 1.339-1.782.984-2.046l.799-.867.701-.796c.283-.34.537-.667.76-.964l-.609-.498-.281-.227c-.1-.082-.142-.107-.352-.3l-.553-.503-.774-.729-1.538-1.478q.533.171 1.013.292c-.39-.361-.774-.739-1.015-1.094-.18-.143-.36-.245-.447-.218-.078.028-.098.192.244.628a.99.99 0 0 1-.502-.852c.002-.258.092-.413.148-.41-.801-1.354-.462.388-.662-.013-.051-.197-.106-.363-.136-.55.027.054.06.098.095.142.034-.184.144-.375.283-.582.073-.105.162-.232.291-.346.131-.121.281-.142.473-.254.41-.305-.073-.316.118-.439-.037-.021.005-.077.354-.191a3.8 3.8 0 0 1 1.124-.353c.298-.027.57-.082.855-.124-.196.154-.357.311-.512.446l-.019.017.04.003c1.065.055 1.795-.265 1.235.263 1.441-.9 5.633-1.014 6.254-1.316.928.167 1.806.044 2.888-.137-.259.118-.361.583.569.402-.466-.867 1.665-.628 2.334-1.388-.619.527 2.681-.252 1.702.51.772-.179.001-.348.566-.643q.358.019.728-.005a10 10 0 0 0 .852-.091c.722-.095 1.554-.303 2.233-.202.326-.006.747.247.908.518.208.267.408.612.548 1.016l.395 1.252c.113.374.169.582.241.887-.106.069-.392-.253-.426.275l.922 1.011c.07.457-.554.599.083 1.288-.131-.085-.327-.212-.279.094 1.831 4.208 2.121 9.069 4.47 13.201-.4-.537-.306-.13-.181.332-.141-.283-.286.09-.46.077l.975 1.732c-.339.466.547 2.002.185 2.317l-.095-.611c-.146.509-.559.224-1-.087l.308 1.065a.544.544 0 0 1-.107.722.45.45 0 0 1-.481.047l-6.307-4.396a6 6 0 0 0-.333.857c-.063-.299.052-.663.192-.956l-.025-.018-.342.099c-.053.122-.108.297-.16.461a.5.5 0 0 1-.072.172c.238.211.484.408.738.517l.179-.011.089.544c-.354-.281-.731-.616-1.104-.941-.063.049-.12.065-.131.042l.061-.101c-.125-.109-.25-.219-.372-.318-6.671 6.4-7.433 7.575-12.073 12.01.03-.025.059-.054.096-.069l.085.132c-.299.273-.556.388-.423.168q-.39.372-.819.775c.316-.142.539.004.667.291a1.7 1.7 0 0 1 .124.541q.012.152.006.309c-.007.055.011.106-.052.141a2 2 0 0 1-.055.222c-.051-.032-.091-.065-.235-.004-.152.046-.381.238-.878.422.159-.126.551-.601.771-.995.221-.295.244-.506-.064-.374-.963.672-.615.859-1.187 1.127.177-.174-.125-.228-.483-.331-.394-.106-.758-.226-.844-.418l-6.194.333c.04.038.041.08-.034.128l-.576-.021c-.511.326 1.101.354.383.532.78.168 1.659.451 2.733.224l.18-.432c-.016.125-.694.289-1.005.177.462.163 1.629-.659 2.153-.134l-.743.332c.783.171 1.762.567 2.714.382-.414.439-.224-.036-.879.488.558-.637-2.453.157-1.538-.53-.669.602-1.197.304-2.086.835.021-.14.31-.283-.492-.171a.8.8 0 0 0-.183-.113l-.054.013.044-.019c-.036-.019-.04-.023.016-.006.188-.071.34-.153.399-.234-.417-.297-1.697-.219-2.139-.36-.474.092.209.148-.044.311l-.66-.213c-.048.312-1.242.581-.107.702l-1.012.068c-.587.205-1.404.318-1.917.215-.474.093-1.225-.277-.796-.057l-1.599-.106-.011.078c-1.565.123-3.254-.338-5.016.315-.532-.049-1.083-.115-1.961.02l-.158.276c-.682-.057-2.02.376-2.327.114-.286.186-.93.391-1.638.378a2.26 2.26 0 0 1-1.049-.302 3 3 0 0 1-.885-.832l-.638-.918-.329-.504a7 7 0 0 0-.61-.816l.253-.245c-.507-.646-.898-1.337-1.395-2.239l.285-.134c-.322-.856-1.526-1.681-2.332-2.815-.038.146.198.41.404.568-1.551-.916-1.688-3.114-2.995-4.018a1.47 1.47 0 0 0-.547-.729.3.3 0 0 1 .043.085l-.095-.122c-.142-.101-.293-.201-.444-.32.155.081.294.165.395.253a8 8 0 0 1-.595-1.002l-.375.05-.052-.085c-.35-.266-.077-.366.258-.334a2.7 2.7 0 0 1-.18-.576c-.634.044-.53-1.013-1.268-1.048.05-.399-1.125-1.861-.792-2.394-.07.034-.175-.047-.04.142-.341-.344-.68-.689-.805-1.133l-.46.089L-.483.487c-.587-.358-.864-.48-.746.221-.512-1.522-.59-1.106-.969-2.442l-.18.213c-.269-.378-.42-1.19-.768-1.281a2 2 0 0 1-.434-.328c-.142-.126-.426-.462-.67-.757-.263-.311-.546-.678-.727-1.068-.087-.194-.188-.373-.203-.616a1.15 1.15 0 0 1 .153-.678" clip-path="url(#aS)" style="fill:#00923b;fill-opacity:1;fill-rule:nonzero;stroke:none" transform="matrix(.2451 0 0 -.2451 5.69 5.158)"></path><path d="m0 0-.75-.046c.361-.003.486-.082.665-.145C-.097-.112-.233.007 0 0" clip-path="url(#aT)" style="fill:#00923b;fill-opacity:1;fill-rule:nonzero;stroke:none" transform="matrix(.2451 0 0 -.2451 14.494 .334)"></path><path d="M0 0c-.032.001-.061 0-.092.005.174.382-.389.283-.95.184C-.998-.093-.525-.023 0 0" clip-path="url(#aU)" style="fill:#00923b;fill-opacity:1;fill-rule:nonzero;stroke:none" transform="matrix(.2451 0 0 -.2451 14.904 .659)"></path><path d="M0 0c.162.004.326.003.483-.019C.553.134.289.024 0 0" clip-path="url(#aV)" style="fill:#00923b;fill-opacity:1;fill-rule:nonzero;stroke:none" transform="matrix(.2451 0 0 -.2451 14.934 .658)"></path><path d="M0 0c.244-.085.175.348.309.227C.604.567-1.366-.114 0 0" clip-path="url(#aW)" style="fill:#00923b;fill-opacity:1;fill-rule:nonzero;stroke:none" transform="matrix(.2451 0 0 -.2451 13.339 .364)"></path><path d="m0 0-.169.354-.307-.261Z" clip-path="url(#aX)" style="fill:#00923b;fill-opacity:1;fill-rule:nonzero;stroke:none" transform="matrix(.2451 0 0 -.2451 14.74 .843)"></path><path d="m0 0 .829-.14c-.009.058.099.087.23.105C.546.004-.014.103 0 0" clip-path="url(#aY)" style="fill:#00923b;fill-opacity:1;fill-rule:nonzero;stroke:none" transform="matrix(.2451 0 0 -.2451 13.733 .727)"></path><path d="M0 0c-.145.004-.457.01-.675-.021C-.407-.042-.152-.048 0 0" clip-path="url(#aZ)" style="fill:#00923b;fill-opacity:1;fill-rule:nonzero;stroke:none" transform="matrix(.2451 0 0 -.2451 14.158 .73)"></path><path d="M0 0c.222.071.563.098.429.22L-.487.17C-.586.057-.342-.028 0 0" clip-path="url(#ba)" style="fill:#00923b;fill-opacity:1;fill-rule:nonzero;stroke:none" transform="matrix(.2451 0 0 -.2451 11.43 .647)"></path><path d="m0 0 .333.627-.35-.366Z" clip-path="url(#bb)" style="fill:#00923b;fill-opacity:1;fill-rule:nonzero;stroke:none" transform="matrix(.2451 0 0 -.2451 21.212 3.856)"></path><path d="M0 0c.115-.345.078-.694-.008-.865.178.139.337.324.462.552C.264.206-.131.63-.603.821-.377.667-.105.348 0 0" clip-path="url(#bc)" style="fill:#00923b;fill-opacity:1;fill-rule:nonzero;stroke:none" transform="matrix(.2451 0 0 -.2451 21.194 3.269)"></path><path d="M0 0c.082-.227.243-.048.294-.063C.084.28-.047-.035 0 0" clip-path="url(#bd)" style="fill:#00923b;fill-opacity:1;fill-rule:nonzero;stroke:none" transform="matrix(.2451 0 0 -.2451 26.386 16.785)"></path><path d="m0 0-.44.434.33-.41z" clip-path="url(#be)" style="fill:#00923b;fill-opacity:1;fill-rule:nonzero;stroke:none" transform="matrix(.2451 0 0 -.2451 25.9 15.961)"></path><path d="M0 0c-.376.71-.988 1.571-1.128 2.133-.193-.486.611-1.198.765-1.859L-.395.137Z" clip-path="url(#bf)" style="fill:#00923b;fill-opacity:1;fill-rule:nonzero;stroke:none" transform="matrix(.2451 0 0 -.2451 25.775 15.65)"></path><path d="M0 0c-.035.072-.08.172-.148.347C-.23.172-.439.681.001-.092-.003-.044 0-.029 0 0" clip-path="url(#bg)" style="fill:#00923b;fill-opacity:1;fill-rule:nonzero;stroke:none" transform="matrix(.2451 0 0 -.2451 25.513 14.684)"></path><path d="M0 0c.171-.351.005.286 0 0" clip-path="url(#bh)" style="fill:#00923b;fill-opacity:1;fill-rule:nonzero;stroke:none" transform="matrix(.2451 0 0 -.2451 25.513 14.684)"></path><path d="M0 0c-.283.448-.315.313-.319-.022l.331-.411C.045-.298-.127.127 0 0" clip-path="url(#bi)" style="fill:#00923b;fill-opacity:1;fill-rule:nonzero;stroke:none" transform="matrix(.2451 0 0 -.2451 25.39 14.285)"></path><path d="m0 0 .16-.219C.174-.16.156-.091 0 0" clip-path="url(#bj)" style="fill:#00923b;fill-opacity:1;fill-rule:nonzero;stroke:none" transform="matrix(.2451 0 0 -.2451 25.201 14.211)"></path><path d="M0 0c-.12-.006.023-.062.194-.246l-.339.464C-.169.124-.276.063 0 0" clip-path="url(#bk)" style="fill:#00923b;fill-opacity:1;fill-rule:nonzero;stroke:none" transform="matrix(.2451 0 0 -.2451 25.276 14.318)"></path><path d="M0 0c.454-.873.632-.625.177.247C.223-.051.331-.413 0 0" clip-path="url(#bl)" style="fill:#00923b;fill-opacity:1;fill-rule:nonzero;stroke:none" transform="matrix(.2451 0 0 -.2451 25.3 14.516)"></path><path d="m0 0 .061-.4.252-.249C.187-.525.096.074 0 0" clip-path="url(#bm)" style="fill:#00923b;fill-opacity:1;fill-rule:nonzero;stroke:none" transform="matrix(.2451 0 0 -.2451 25.393 15.127)"></path><path d="M0 0c-.086-.005-.121-.249-.198-.327l.241-.307C.011-.433-.096-.074 0 0" clip-path="url(#bn)" style="fill:#00923b;fill-opacity:1;fill-rule:nonzero;stroke:none" transform="matrix(.2451 0 0 -.2451 25.03 13.556)"></path><path d="m0 0-.359.458C-.164-.011-.066-.067 0 0" clip-path="url(#bo)" style="fill:#00923b;fill-opacity:1;fill-rule:nonzero;stroke:none" transform="matrix(.2451 0 0 -.2451 24.981 13.636)"></path><path d="m0 0-.725.887.078-.162Z" clip-path="url(#bp)" style="fill:#00923b;fill-opacity:1;fill-rule:nonzero;stroke:none" transform="matrix(.2451 0 0 -.2451 25.258 14.413)"></path><path d="m0 0-.491.403.19-.189z" clip-path="url(#bq)" style="fill:#00923b;fill-opacity:1;fill-rule:nonzero;stroke:none" transform="matrix(.2451 0 0 -.2451 24.885 13.123)"></path><path d="M0 0c-.186.344-.444.592-.676.816.192-.263.317-.58.386-1.033.238-.152.1.406.29.217" clip-path="url(#br)" style="fill:#00923b;fill-opacity:1;fill-rule:nonzero;stroke:none" transform="matrix(.2451 0 0 -.2451 24.73 12.7)"></path><path d="m0 0-.111-.299.089-.205C.004-.444.084-.313 0 0" clip-path="url(#bs)" style="fill:#00923b;fill-opacity:1;fill-rule:nonzero;stroke:none" transform="matrix(.2451 0 0 -.2451 24.809 13.18)"></path><path d="m0 0-.189.445.186-.455Z" clip-path="url(#bt)" style="fill:#00923b;fill-opacity:1;fill-rule:nonzero;stroke:none" transform="matrix(.2451 0 0 -.2451 24.781 13.253)"></path><path d="M0 0c-.252.25-.663.827-.557.13C-.318-.022-.379.376 0 0" clip-path="url(#bu)" style="fill:#00923b;fill-opacity:1;fill-rule:nonzero;stroke:none" transform="matrix(.2451 0 0 -.2451 24.993 13.88)"></path><path d="m0 0-.411.523.204-.572C-.158-.012-.125.124 0 0" clip-path="url(#bv)" style="fill:#00923b;fill-opacity:1;fill-rule:nonzero;stroke:none" transform="matrix(.2451 0 0 -.2451 24.875 13.536)"></path><path d="m0 0-.112.027.188-.239Z" clip-path="url(#bw)" style="fill:#00923b;fill-opacity:1;fill-rule:nonzero;stroke:none" transform="matrix(.2451 0 0 -.2451 24.756 13.356)"></path><path d="M0 0c-.197.196-.323.452-.47.739.102-.333.229-.668.37-.977.084-.013.26-.095.1.238" clip-path="url(#bx)" style="fill:#00923b;fill-opacity:1;fill-rule:nonzero;stroke:none" transform="matrix(.2451 0 0 -.2451 24.532 12.657)"></path><path d="m0 0-.036.047C-.038.007-.032-.022 0 0" clip-path="url(#by)" style="fill:#00923b;fill-opacity:1;fill-rule:nonzero;stroke:none" transform="matrix(.2451 0 0 -.2451 24.648 12.95)"></path><path d="m0 0 .058-.047.027.036z" clip-path="url(#bz)" style="fill:#00923b;fill-opacity:1;fill-rule:nonzero;stroke:none" transform="matrix(.2451 0 0 -.2451 23.837 11.659)"></path><path d="M0 0a.85.85 0 0 1 .307-.478Q.154-.229.014.071C-.024.077-.044.072 0 0" clip-path="url(#bA)" style="fill:#00923b;fill-opacity:1;fill-rule:nonzero;stroke:none" transform="matrix(.2451 0 0 -.2451 24.504 12.733)"></path><path d="M0 0c.023-.107.071-.265.082-.339l.044-.237c.005.075.005.185-.005.279C.094-.168.04-.018 0 0" clip-path="url(#bB)" style="fill:#00923b;fill-opacity:1;fill-rule:nonzero;stroke:none" transform="matrix(.2451 0 0 -.2451 24.348 12.19)"></path><path d="m0 0 .025-.031C.034.067.017.047 0 0" clip-path="url(#bC)" style="fill:#00923b;fill-opacity:1;fill-rule:nonzero;stroke:none" transform="matrix(.2451 0 0 -.2451 24.645 12.913)"></path><path d="M0 0c-.085.108-.179.18-.267.255.081-.136.164-.259.247-.361.001.036.01.076.02.106" clip-path="url(#bD)" style="fill:#00923b;fill-opacity:1;fill-rule:nonzero;stroke:none" transform="matrix(.2451 0 0 -.2451 24.645 12.913)"></path><path d="m0 0-.087.081c.071-.094.136-.202.198-.312-.166.425-.286.765-.57 1.223-.482.23-.716.112-.746.063.289-.041.554-.208.701-.383A3 3 0 0 0 0 0" clip-path="url(#bE)" style="fill:#00923b;fill-opacity:1;fill-rule:nonzero;stroke:none" transform="matrix(.2451 0 0 -.2451 24.153 11.92)"></path><path d="M0 0c-.138.029-.296.182-.459.339-.15.129-.249.139-.257-.142.361-.755.395-.409.674-.784-.533 1.036.253-.251.022.568.13-.192.226-.374.315-.547Q.202-.262.14.025l-.002-.03.003-.005H.137C.132-.068.124-.09.115-.031l-.014.02a.2.2 0 0 0-.1.011c-.097.327.032.073.1-.011.011.001.025-.003.036.001l.001.005-.149.252-.222.412-.438.813c.07-.191.156-.396.273-.65C-.293.594-.1.187 0 0" clip-path="url(#bF)" style="fill:#00923b;fill-opacity:1;fill-rule:nonzero;stroke:none" transform="matrix(.2451 0 0 -.2451 24.345 12.338)"></path><path d="M0 0c.003.042.018.047.032.056C-.024.113-.053.131 0 0" clip-path="url(#bG)" style="fill:#00923b;fill-opacity:1;fill-rule:nonzero;stroke:none" transform="matrix(.2451 0 0 -.2451 24.686 13.761)"></path><path d="M0 0c.123-.125.388-.459.272.062L.21.124C.111.49.096.982.124 1.141A1.7 1.7 0 0 1-.107.439C-.043.375.068.35.161.089.198-.158.062.043 0 0" clip-path="url(#bH)" style="fill:#00923b;fill-opacity:1;fill-rule:nonzero;stroke:none" transform="matrix(.2451 0 0 -.2451 24.694 13.747)"></path><path d="m0 0 .03.053C.017.066.008.041 0 0" clip-path="url(#bI)" style="fill:#00923b;fill-opacity:1;fill-rule:nonzero;stroke:none" transform="matrix(.2451 0 0 -.2451 24.724 13.468)"></path><path d="m0 0 .097.073C.283-.45.366-.28.477-.304l-.504.837z" clip-path="url(#bJ)" style="fill:#00923b;fill-opacity:1;fill-rule:nonzero;stroke:none" transform="matrix(.2451 0 0 -.2451 24.373 12.912)"></path><path d="M0 0c-.284-.083-.528-.236-.799-.423.2.09.39.147.572.191Q-.125-.105 0 0" clip-path="url(#bK)" style="fill:#00923b;fill-opacity:1;fill-rule:nonzero;stroke:none" transform="matrix(.2451 0 0 -.2451 23.865 11.575)"></path><path d="m0 0-.466-.397.449.15z" clip-path="url(#bL)" style="fill:#00923b;fill-opacity:1;fill-rule:nonzero;stroke:none" transform="matrix(.2451 0 0 -.2451 23.38 11.734)"></path><path d="m0 0 .159.208a1.8 1.8 0 0 0-.247.659C-.102.407-.196-.139 0 0" clip-path="url(#bM)" style="fill:#00923b;fill-opacity:1;fill-rule:nonzero;stroke:none" transform="matrix(.2451 0 0 -.2451 20.66 17.556)"></path><path d="M0 0a4.5 4.5 0 0 1-.853-.307C-.41-.216-.009-.222 0 0" clip-path="url(#bN)" style="fill:#00923b;fill-opacity:1;fill-rule:nonzero;stroke:none" transform="matrix(.2451 0 0 -.2451 20.531 13.368)"></path><path d="M0 0c.086-.243.187-.33.233-.317C.103-.091.05.054 0 0" clip-path="url(#bO)" style="fill:#00923b;fill-opacity:1;fill-rule:nonzero;stroke:none" transform="matrix(.2451 0 0 -.2451 16.249 21.121)"></path><path d="m0 0 .192.043c.213.16.43.313.719.454C.583.43.233.308 0 0" clip-path="url(#bP)" style="fill:#00923b;fill-opacity:1;fill-rule:nonzero;stroke:none" transform="matrix(.2451 0 0 -.2451 20.099 13.565)"></path><path d="M0 0c.059.067.135.194.24.428C.191.32.091.156 0 0" clip-path="url(#bQ)" style="fill:#00923b;fill-opacity:1;fill-rule:nonzero;stroke:none" transform="matrix(.2451 0 0 -.2451 25.883 17.936)"></path><path d="M0 0c.228.141.025.043 0 0" clip-path="url(#bR)" style="fill:#00923b;fill-opacity:1;fill-rule:nonzero;stroke:none" transform="matrix(.2451 0 0 -.2451 22.2 12.407)"></path><path d="M0 0a.2.2 0 0 0 .041.149C.003.099-.019.05 0 0" clip-path="url(#bS)" style="fill:#00923b;fill-opacity:1;fill-rule:nonzero;stroke:none" transform="matrix(.2451 0 0 -.2451 22.577 12.485)"></path><path d="M0 0a2.4 2.4 0 0 1-.333-.104c.057.01.159.041.333.104" clip-path="url(#bT)" style="fill:#00923b;fill-opacity:1;fill-rule:nonzero;stroke:none" transform="matrix(.2451 0 0 -.2451 22.3 12.382)"></path><path d="m0 0 .216.093C.228.142.19.149 0 0" clip-path="url(#bU)" style="fill:#00923b;fill-opacity:1;fill-rule:nonzero;stroke:none" transform="matrix(.2451 0 0 -.2451 22.275 12.365)"></path><path d="M0 0c.133.076.264.135.392.187C.339.175.313.176.322.189z" clip-path="url(#bV)" style="fill:#00923b;fill-opacity:1;fill-rule:nonzero;stroke:none" transform="matrix(.2451 0 0 -.2451 22.122 12.453)"></path><path d="m0 0-.181.059C.219.148.109.078 0 0m-9.986 26.181c.173-.064.19-.232.271-.397.027-.193-.052-.186-.138-.157l.079-.116c.024-.213.025-.292-.003-.382l-.131.509c.02.002.036-.008.055-.011-.028.04-.054.1-.106.128a.38.38 0 0 1-.215.167c-.129.183-.287.163-.353.173a.52.52 0 0 0 .541.086m6.327 3.112.074.268-.525.718c.269-.134.693-.396 1.141-.697l.567-1.315c-.468.252-.949.587-1.257 1.026m-1.867 4.435c-.013.099-.216 1.478-.157 1.845q.022.097.073.139l.378-.878-.361-.177.414.054.371-.861c-.284-.125-.559-.184-.718-.122m-1.554 5.21c.069-.061.201.018.317.04-.094-.097-.147-.226-.1-.357l.158-.368q-.077.076-.148.16c-.134.164-.275.35-.227.525m5.092 3.436c.802.562.508-.051.626.085 1.643.807.997 1.428 2.484 1.872.665.04.293-.482.508-.597-.645-.474-1.155-.425-1.622-.692l.646.199c-.177-.203-.607-.52-.9-.585a1 1 0 0 1 .274.065l-3.297-1.795c.184.417.642.946 1.281 1.448m2.984 2.274-.012-.021c-.431-.121-.276-.082.012.021m8.033 2.993c.001-.005-.005-.014-.006-.02l-.056-.031Zm1.041.394a.4.4 0 0 1-.298-.006l-.525-.286c.049.048.087.096.149.142.185.125.457.314.674.15M.121 21.165c.132-.12.403-.292.717-.478l-.687.009a.75.75 0 0 1-.03.469m19.751 5.459-.197-.438c-.005.407-.372.272-.765.123l.58.952a.36.36 0 0 1 0 .354l-8.791 19.317c.014-.027.027-.056.047-.075l.081.108c-.147.305-.28.425-.237.206l-.304.667a.4.4 0 0 1-.073.099c.184-.09.271.023.342.315.083.301-.018.762-.344.988-.054-.106-.077-.092-.8-.432.144-.034.468.048.745-.062.28-.139.367-.358.088-.289-.23.065-.391-.005-.484-.04a.6.6 0 0 0-.224-.041c-.11.005-.167.066-.387.031.184-.061-.108-.293-.361-.565-.203-.207-.37-.406-.369-.55l-4.234-2.306c.011.041 0 .071-.07.072l-.373-.248c-.469.004.587.679.04.503.449.427.918.97 1.72 1.26l.293-.208c-.061.074-.576-.095-.737-.295.241.294 1.345.234 1.481.79l-.626-.086c.45.431.938 1.087 1.643 1.355-.451.118-.134-.114-.778-.04.626-.188-1.688-.897-.805-.973-.686.121-.916-.289-1.718-.305.07-.083.319-.059-.257-.312a.7.7 0 0 0-.076-.149l-.041-.013.036.005c-.016-.027-.017-.031.014.003.153.03.286.039.358.01-.157-.364-1.036-.834-1.272-1.107-.351-.133.078.182-.154.185l-.352-.408c-.157.185-1.057-.127-.353.414l-.698-.368c-.472-.106-1.058-.365-1.357-.641-.351-.133-.7-.68-.504-.362l-1.017-.721-.038.047c-1.086-.558-2.02-1.547-3.45-1.84-.166-.124-.334-.253-.54-.385a5 5 0 0 0-.341-.2l-.582-.286-.326.055c-.374-.232-1.05-.534-1.356-.932a1.3 1.3 0 0 1-.33-.644.64.64 0 0 1 .06-.441c-.133-.168-.2-.533-.018-1.019.082-.24.185-.504.301-.78l.18-.419.107-.231c.295-.619.66-1.257.799-1.702l.26.073c.239-.592.551-1.125.963-1.811l.198.138c.449-.551.541-1.681.991-2.665-.112.032-.199.293-.225.493.021-1.398 1.435-2.35 1.542-3.58.194-.234.251-.44.277-.652a.2.2 0 0 1-.04.062l.045-.112.045-.422c.004.135.002.261-.019.364.094-.205.256-.507.443-.791l-.177-.232.038-.068c.044-.339.215-.195.321.041.105-.138.212-.26.315-.346-.27-.407.475-.752.217-1.26.072-.03.158-.138.255-.283.09-.127.227-.376.285-.422.151-.177.353-.395.635-.483-.062-.002-.068-.06-.12.053.045-.235.065-.409.322-.686q-.194.039-.396.102.381-.335.83-.83-.009-.01-.022-.011c-.619.19-.78.307-.89.547-.018-.191-.163-.225-.249-.26-.107-.034-.164-.068-.425-.254l-.07.21c-.201-.006-.534-.281-.759-.105-.401.203-1.4.231-2.556.256-.579.013-1.197.025-1.799.059l-.417.03-.228.037a1.4 1.4 0 0 0-.36.113c-.08-.266-.158-.248-.251-.181.019.27.114.571-.129.436.108.162.155.308.303.241-.066.099-.069.141-.117.302l-.253.737c-.157.457-.341.871-.641 1.19.029.246.248-.148.249.039-.067.093-.251.345-.259.546-.01.202.15-.111.284-.293-.642 1.433-.854 1.147-1.032.837-.08.373-.119.745-.25.808-.147.1-.394.085-.604-.118-.093.041-.172.037-.174.091.008.033-.012.216.389.265-.301.052-.542-.221-.928-.522-.374-.296-.78-.878-.771-1.179a.2.2 0 0 1 .001-.065c-.115-.025-.385-.585-.431-.735l-.634-.989-.259-.42-.26-.453.167.168c.177-.491-.281-.638-.588-1.237l-.026.038c-1.049-1.162-.224-.64-1.298-1.764l.259-.06c.391-.403-.972-.983-1.252-1.844l.289.197c-.091-.507-1.33-.765-1.639-1.143-.095-.065.021.182.068.326-.931-.915.198-.312-.226-1.158-.242-.056-.272.427-.629-.098-.288-.194-.46-1.873-1.202-2.435.217.092.433.182.294-.246a2.4 2.4 0 0 0-.345-.464c-.147-.165-.284-.288-.519-.597-.449-.528-.777-1.168-.384-1.565-.003-.111-.022-.159-.056-.168.069-.126.16-.283.285-.454l.4-.548c.117-.153.208-.259.313-.381.202-.232.395-.424.54-.483-.51-.852 1.989-2.528 1.29-2.929l.84-1.336-.091-.006c.467-.895.815-1.104 1.162-1.31.071-.229-.08-.121-.126-.126.61-1.351.714-1.459 1.688-2.318l-.159-.244c.15-.105.333-.616.603-1.236.079-.175.115-.273.246-.525l.406-.745c.286-.498.602-.989.905-1.352-.023-.02-.066-.046-.173.061.352-.412.674-1.095 1.032-1.525.349-.442.675-.783.938-1.021.139-.121.241-.215.365-.285.148-.065.405-.048.579.039.184.096.265.201.278.375q.042.262.011.558.128.615.198 1.256c-.21-.601-.234-.441-.261-.162-.023.276-.061.676-.146.487.015.617.434 1.023.341.316l-.055-.042c.13-.395.261-.107.403.255.112.652.207 1.444.371 1.313l.169 1.299.098.562.052.264c.092.003.196-.011.29-.017.192-.013.377-.045.552-.067.106-.02.495-.053.823-.077l.992-.069a35 35 0 0 1 1.96-.068l-.298.385.899-.018c.237-.086.321-.299-.323-.288.341-.217 1.077.194 1.093.28 1.262-.133-.483-.459-.098-.461l.525.039-.119.043c.423.167.455.333 1.228.338.491-.06.259-.229.452-.237 0-.027.066-.037.296.001l1.138.02-.469.282c.495.172 1.065.041.525.356.198-.122.562-.182 1.004-.198.183-.016.558-.002.885.04.33.039.726.025.953.313.228.241.403.564.575.849l.362.605c.208.341.374.594.47.673.174.711.535 1.298 1.003 2.013-.165-.148-.524-.079-.105.528.464-.596.964.993 1.708 1.238-.565-.28 1.019 1.831.175 1.366.369.495.246-.105.631.207.527 1.391 1.83 2.662 2.691 4.253-.065.072-.344-.114-.26.289l.894.577c.147.328-.288.555.328.947-.115-.038-.288-.095-.189.124 2.232 2.794 3.448 6.369 6.05 9.009-.408-.325-.255-.039-.067.283-.163-.185-.194.121-.327.144l1.084 1.109c-.157.411.82 1.391.615 1.694" clip-path="url(#bW)" style="fill:#00923b;fill-opacity:1;fill-rule:nonzero;stroke:none" transform="matrix(.2451 0 0 -.2451 21.349 23.739)"></path><path d="m0 0-.478-.336c.24.145.355.145.499.177C-.019-.113-.158-.091 0 0" clip-path="url(#bX)" style="fill:#00923b;fill-opacity:1;fill-rule:nonzero;stroke:none" transform="matrix(.2451 0 0 -.2451 22.784 12.057)"></path><path d="M0 0c-.038.32-.371.026-.703-.267.143-.166.428.072.766.301z" clip-path="url(#bY)" style="fill:#00923b;fill-opacity:1;fill-rule:nonzero;stroke:none" transform="matrix(.2451 0 0 -.2451 23.171 12.11)"></path><path d="M0 0c.106.069.213.134.33.186C.31.312.183.134 0 0" clip-path="url(#bZ)" style="fill:#00923b;fill-opacity:1;fill-rule:nonzero;stroke:none" transform="matrix(.2451 0 0 -.2451 23.206 12.09)"></path><path d="M0 0c.059.342-.972-.905-.113-.274C.083-.23-.138.024 0 0" clip-path="url(#ca)" style="fill:#00923b;fill-opacity:1;fill-rule:nonzero;stroke:none" transform="matrix(.2451 0 0 -.2451 22.06 12.48)"></path><path d="m0 0-.254.162-.099-.296Z" clip-path="url(#cb)" style="fill:#00923b;fill-opacity:1;fill-rule:nonzero;stroke:none" transform="matrix(.2451 0 0 -.2451 23.153 12.289)"></path><path d="m0 0 .606.247c-.03.034.03.096.11.162C.36.225-.051.061 0 0" clip-path="url(#cc)" style="fill:#00923b;fill-opacity:1;fill-rule:nonzero;stroke:none" transform="matrix(.2451 0 0 -.2451 22.438 12.624)"></path><path d="M0 0c.186.095.357.195.439.289A4 4 0 0 1 0 0" clip-path="url(#cd)" style="fill:#00923b;fill-opacity:1;fill-rule:nonzero;stroke:none" transform="matrix(.2451 0 0 -.2451 22.614 12.523)"></path><path d="M0 0c.119.137.333.293.196.318l-.587-.406C-.411-.202-.215-.158 0 0" clip-path="url(#ce)" style="fill:#00923b;fill-opacity:1;fill-rule:nonzero;stroke:none" transform="matrix(.2451 0 0 -.2451 20.88 13.51)"></path><path d="m0 0 .378.405L.041.198Z" clip-path="url(#cf)" style="fill:#00923b;fill-opacity:1;fill-rule:nonzero;stroke:none" transform="matrix(.2451 0 0 -.2451 26.255 17.452)"></path><path d="M0 0a1.1 1.1 0 0 0-.15-.421C-.21-.51-.213-.487-.25-.51c.119-.016.225-.095.435.093.1.468-.094.999-.338 1.203C-.075.681.061.299 0 0" clip-path="url(#cg)" style="fill:#00923b;fill-opacity:1;fill-rule:nonzero;stroke:none" transform="matrix(.2451 0 0 -.2451 26.365 17.06)"></path><path d="M0 0q.004 0 .006-.002C.024.023.034.039 0 0" clip-path="url(#ch)" style="fill:#00923b;fill-opacity:1;fill-rule:nonzero;stroke:none" transform="matrix(.2451 0 0 -.2451 9.99 12.052)"></path><path d="M0 0c-.022-.042-.022-.061-.011-.066.02-.01.078.031.066.033.11.12.123.168.079.152C.114.122.102.135.089.133L.053.083z" clip-path="url(#ci)" style="fill:#00923b;fill-opacity:1;fill-rule:nonzero;stroke:none" transform="matrix(.2451 0 0 -.2451 9.97 12.085)"></path><path d="m0 0 .296-.204z" clip-path="url(#cj)" style="fill:#00923b;fill-opacity:1;fill-rule:nonzero;stroke:none" transform="matrix(.2451 0 0 -.2451 15.976 11.105)"></path><path d="M0 0h-.073C.04-.043.09-.055 0 0" clip-path="url(#ck)" style="fill:#00923b;fill-opacity:1;fill-rule:nonzero;stroke:none" transform="matrix(.2451 0 0 -.2451 15.448 10.75)"></path><path d="M0 0a6 6 0 0 1-.618-.302c.203.108.41.205.618.302" clip-path="url(#cl)" style="fill:#00923b;fill-opacity:1;fill-rule:nonzero;stroke:none" transform="matrix(.2451 0 0 -.2451 10.726 10.68)"></path><path d="m0 0 .118-.415C.067.246.044-.049 0 0" clip-path="url(#cm)" style="fill:#00923b;fill-opacity:1;fill-rule:nonzero;stroke:none" transform="matrix(.2451 0 0 -.2451 17.658 14.052)"></path><path d="m0 0-.035.112C-.049.119-.031.07 0 0" clip-path="url(#cn)" style="fill:#00923b;fill-opacity:1;fill-rule:nonzero;stroke:none" transform="matrix(.2451 0 0 -.2451 9.09 16.41)"></path><path d="m0 0-.069-.018C-.372-.168-.235-.113 0 0" clip-path="url(#co)" style="fill:#00923b;fill-opacity:1;fill-rule:nonzero;stroke:none" transform="matrix(.2451 0 0 -.2451 14.74 18.625)"></path><path d="m0 0 .035.01-.047-.005Z" clip-path="url(#cp)" style="fill:#00923b;fill-opacity:1;fill-rule:nonzero;stroke:none" transform="matrix(.2451 0 0 -.2451 12.35 11.535)"></path><path d="M0 0c.443.226.723.272 1.09.319Q.88.405.667.479.322.249 0 0" clip-path="url(#cq)" style="fill:#00923b;fill-opacity:1;fill-rule:nonzero;stroke:none" transform="matrix(.2451 0 0 -.2451 12.08 11.612)"></path><path d="M0 0c.064-.042.133-.077.197-.12A1.4 1.4 0 0 1 0 0" clip-path="url(#cr)" style="fill:#00923b;fill-opacity:1;fill-rule:nonzero;stroke:none" transform="matrix(.2451 0 0 -.2451 15.725 10.933)"></path><path d="M0 0c-.016-.131-.021-.263-.04-.394.023.17.035.296.04.394" clip-path="url(#cs)" style="fill:#00923b;fill-opacity:1;fill-rule:nonzero;stroke:none" transform="matrix(.2451 0 0 -.2451 17.604 15.314)"></path><path d="M0 0c.002.035.004.07.018.105A.16.16 0 0 1 0 0" clip-path="url(#ct)" style="fill:#00923b;fill-opacity:1;fill-rule:nonzero;stroke:none" transform="matrix(.2451 0 0 -.2451 9.63 11.568)"></path><path d="M0 0c-.063-.062-.118-.114-.176-.169.069.061.133.121.176.169" clip-path="url(#cu)" style="fill:#00923b;fill-opacity:1;fill-rule:nonzero;stroke:none" transform="matrix(.2451 0 0 -.2451 16.362 17.675)"></path><path d="m0 0-.002-.001-.01-.01z" clip-path="url(#cv)" style="fill:#00923b;fill-opacity:1;fill-rule:nonzero;stroke:none" transform="matrix(.2451 0 0 -.2451 10.798 12.244)"></path><path d="M0 0c.067.091.169.195.281.299C.129.161.054.098 0 0" clip-path="url(#cw)" style="fill:#00923b;fill-opacity:1;fill-rule:nonzero;stroke:none" transform="matrix(.2451 0 0 -.2451 10.727 12.32)"></path><path d="M0 0c-.181-.138-.383-.3-.625-.457.124.134.35.3.625.457m18.314 2.236c-.296.009-.479.127-.86.301.236-.066.716-.179.86-.301m6.208-29.688c-.292-.261-.712-.567-.421-.26.362.295.82.711 1.053.887 1.085 1.22-.234-.124.19.427.452.338.492.63.896 1.208l.077-.052c1.113 1.475.154.489 1.09 1.85-.076-.225-.169-.441-.256-.664.145.25.289.501.42.759l.002-.208.952 1.95c-.148-.171-.093.172.187.934.232.507-.008-.328.34.776a2.1 2.1 0 0 0-.298-1.011c.009-.059-.041-.261-.033-.322.289.537.53 1.427.631 1.835-.048-.155-.102-.342-.147-.432.119.552.222 1.105.287 1.662.088.252.073.042.057-.168.062.336.063.575.136 1.069.039-.106.099-.122.083-.435.05.403.1.806.122 1.21.049.102.168.813.176.603.123.891-.04 2.192-.098 3.373-.019.06-.045.181-.085.43-.119 1.105-.235 2.104-.74 3.333-.04.25-.076.504-.129.754-.407.954.22-1.002-.471.573-.545 1.085-.082.463-.236.864-.333.52-.961 1.362-1.533 2.323.237-.285.388-.535.582-.821-.13.254-.274.501-.418.749.7-.773 1.035-1.463.703-.711-.143-.018-.594.686-1.119 1.333-.518.654-1.098 1.25-1.231 1.203l-.352.439.248-.24c-.69.857-.693.451-1.728 1.381-.369.317-.616.555-.335.375-.301.204-.604.403-.917.586-.162.115-.176.146-.108.115q-.597.391-1.217.744l.015.001-.969.37c-.356.224.199-.07.119.007-.279.123-.565.231-.847.342-.312.212.409-.031.965-.335-.656.607-.691.317-2.348 1.133l.819-.287c-.464.347-1.112.554-2.034.931.225-.096 1.79-.864.83-.584a5 5 0 0 1-1.135.34c.021.091-.49.218-1.132.359l.07.109c-.706.119-.664.039-1.084.06-.778.139-.932.24-1.11.344-1.268.143.859-.233-.641-.116-1.049.094-1.797-.015-3.046-.097-.738.013.122.083-.144.107-.215-.042-.428-.101-.64-.156-.159-.016-.111.02-.087.038-.54-.107-.032-.118-.877-.278-.2-.154-1.782-.124-2.76-.616-.262-.046.098.109.007.13-1.357-.573-1.17-.488-2.205-1.105a16 16 0 0 1-.942-.404c.704.28-.1-.259-.743-.785l.157.066A15 15 0 0 1 .784.326l.179.151L.825.415.677.258a19 19 0 0 1-.5-.356C.134-.082.234.045.386.21l.439.205c.229.245.454.47.357.497A6 6 0 0 0 .827.651c.061.066.1.108.058.098C.839.737.738.634.573.487L.243.428.214.34a19 19 0 0 1-1.44-1.02 15 15 0 0 1-1.263-1.58.16.16 0 0 1 .016-.247q.097-.108.223-.216l.483-.4c.305-.254.634-.539.997-.869-.42.265-.188-.045-.29-.112-.149.231-.431.485-.766.771l-.262.224-.379.341c-.112.133-.217.234-.233.392.024.143.195.267.29.401-.253-.275-.334-.379-.332-.414-.008-.013-.017.003-.022.026-.015-.327.463-.617.691-.848l.692-.587c-.097-.042.226-.32.539-.677-.055.172.149.023.442-.235l1.054-.969c.102-.093.197-.15.273-.191.022-.044-.027-.104-.306.105l-.326.293-.325.315q.14-.18.272-.309a6 6 0 0 1 .367-.331c.54-.618.894.412 1.389.673.413.38.99.762.839.59l-.171-.128a16.7 16.7 0 0 0 2.316 1.438c.83.429 1.569.703 1.647.813.019-.015-.12-.241-.189-.303.516.313 1.071.577 1.642.819q.387.078.779.135c.122-.132.295-.279-.497-.461.336.043.75.084 1.457.196-.231.002-.597.143-.28.19.884-.088.618-.021 1.688-.142-.345.031.04.259.598.219-.088-.027.032-.218-.169-.229q.684.073 1.383.072c-.347.012-.085-.168.201-.28-.128.079 1.148-.236 1.493-.344l-.541.204c1.458-.463 1.567-.152 2.982-.811-.193.041-.528-.04.152-.415.189-.03.649-.113 1.207-.309q.734-.47 1.403-1.03-.115.066-.234.131c-.601.325-1.254.613-1.712.806.461-.345.104-.136.815-.611.212-.22-.43.195-.647.319.553-.36 1.078-.76 1.564-1.201.032.175 1.195-.94 1.201-.835a13 13 0 0 1-1.687 1.363c.002.166 1.255-.47 2.179-1.603.196-.313-.348.062-.362.006.161-.101.925-.986.958-1.125a9 9 0 0 1-.414.442c.432-.653.914-.943 1.251-1.842.149-.294.263-.944.348-.968-.038.312.068.526.211.608.156-.342.308-.686.429-1.041l-.057.027.071-.208.032.017c.12-.371.234-.743.316-1.126-.082-.121-.441.804-.429.387.041-.009.152-.29.193-.409.037-.346-.127.118.021-.614.164-.101.17-1.518.16-.335.119-.73.069-.781.077-1.644.057.175.154-.179.2-.656-.015-.23-.023-.46-.049-.69-.017-.148-.058-.29-.08-.436l-.001-.002c-.031-.214-.074-.425-.116-.636-.238-1.102-.531-1.833-1.028-2.92-.069-.114-.435-.696-.345-.414-.082-.186-.113-.383-.343-.757-.532-.664.481.846.036.36.049-.089-.489-1.018-.84-1.537.215.077.873 1.16 1.097 1.747.05-.023.037-.181-.04-.424a13.2 13.2 0 0 0-2.916-3.478c-.354-.27-.949-.719-1.658-1.159-.919-.576-2.053-1.059-2.887-1.271-.193-.099-.493-.206-.572-.254a14 14 0 0 0-2.621-.463c-.057-.004-.113.001-.169-.002.098.004.195.006.292.017-.265-.02-.531-.022-.797-.022l.038-.002a14.2 14.2 0 0 0-2.592.149c.005.01.019.017.004.032-.211.02-.421.049-.632.078l-.175.037c.071.006.203.003.032.052-.019-.018-.102-.021-.221-.012a15.6 15.6 0 0 0-4.097 1.512c-2.557 1.387-4.631 3.281-6.05 5.844-.952 1.719-1.449 3.561-1.443 5.532q.004.992.093 1.98a16.8 16.8 0 0 0 .621 3.333c.315 1.052.736 2.05 1.313 2.966.204.234.372.427.398.496l-.302-.331c.189.286.401.559.626.826l.366-.011.005.005-.367.011c.049.059.088.123.14.181q.016.023.03.048l-.019.018q-.14-.115-.277-.234a12 12 0 0 1-.987-1.003c-.282-.199-.588-.422-.613-.344-.418-.77-1.562-1.798-1.914-3.254-.159-.281.052.276-.054.134-.072-.372-.231-.784-.509-1.562l.009.095a21 21 0 0 1-.64-2.776 18 18 0 0 1-.247-3.057l.086.196c.001-.56-.014-.68-.02-.945.163-.632-.069 1.575.115.993-.09-.369-.052-1.363.105-2.309.147-.949.4-1.843.377-2.115.265-.826.017.271.29-.549l.024-.235.145-.179c.192-.531.251-.818.214-.858l-.229.491c.197-.725.933-1.865 1.036-2.094l-.366.75c1.089-2.1 2.981-4.369 4.885-5.636l-.112.138 1.305-.89c.3-.214.62-.439 1.474-.861l-.066.024c.361-.13.829-.325 1.307-.525-.469.124.81-.412.2-.24.894-.307 1.134-.317 1.284-.349l.85-.086.26-.135c.423-.039.465-.01 1.395-.147-.772.069.58-.208-.29-.142 1.967-.452 2.951-.087 3.865-.278.901.222-1.724.054-1.214.125-.424.068.75.131 1.365.162.624.049 1.097-.196 2.676.1l-.321-.074c.601.059 1.137.297 1.866.416.364.223.917.272.98.457a19 19 0 0 0-1.39-.455c.794.255 1.48.636 2.76 1.087-.085-.07-.443-.266-.696-.385.389.103.701.314 1.096.445-.039-.204-1.622-.739-2.451-1.081.439.051 1.566.649 1.198.343.53.416 1.488.564 2.378 1.215l-.021-.113c.144.096.439.299.711.459l-.442-.384c.723.509 1.517.79 2.175 1.34-1.458-1.021-.385-.146-1.045-.505.876.647 1.147.801 1.465.959.29.15.629.312 1.377 1.028" clip-path="url(#cx)" style="fill:#00923b;fill-opacity:1;fill-rule:nonzero;stroke:none" transform="matrix(.2451 0 0 -.2451 10.308 10.988)"></path><path d="M0 0c.067.023.092.019.115.012C.188.076.181.093 0 0" clip-path="url(#cy)" style="fill:#00923b;fill-opacity:1;fill-rule:nonzero;stroke:none" transform="matrix(.2451 0 0 -.2451 10.57 10.768)"></path><path d="m0 0 .002-.039q.011-.03.021-.037Z" clip-path="url(#cz)" style="fill:#00923b;fill-opacity:1;fill-rule:nonzero;stroke:none" transform="matrix(.2451 0 0 -.2451 17.653 14.033)"></path><path d="M0 0a4 4 0 0 0-.053.427C-.079.433-.068.331 0 0" clip-path="url(#cA)" style="fill:#00923b;fill-opacity:1;fill-rule:nonzero;stroke:none" transform="matrix(.2451 0 0 -.2451 16.147 13.876)"></path><path d="m0 0-.057.108C-.147.006-.248-.083-.343-.18c.194.129.223.118.343.18" clip-path="url(#cB)" style="fill:#00923b;fill-opacity:1;fill-rule:nonzero;stroke:none" transform="matrix(.2451 0 0 -.2451 15.145 16.9)"></path><path d="M0 0c.036.084.716 1.011.035.176C.005.09-.528-.583 0 0" clip-path="url(#cC)" style="fill:#00923b;fill-opacity:1;fill-rule:nonzero;stroke:none" transform="matrix(.2451 0 0 -.2451 15.496 16.515)"></path><path d="M0 0c.906-.417.269.029 1.071-.391.236-.053-.653.35-.419.285C.075.088-.214.218 0 0" clip-path="url(#cD)" style="fill:#00923b;fill-opacity:1;fill-rule:nonzero;stroke:none" transform="matrix(.2451 0 0 -.2451 14.155 11.727)"></path><path d="m0 0 .296-.097A4 4 0 0 1 0 0" clip-path="url(#cE)" style="fill:#00923b;fill-opacity:1;fill-rule:nonzero;stroke:none" transform="matrix(.2451 0 0 -.2451 14.315 11.753)"></path><path d="M0 0q.226.226.462.437L.133.185Z" clip-path="url(#cF)" style="fill:#00923b;fill-opacity:1;fill-rule:nonzero;stroke:none" transform="matrix(.2451 0 0 -.2451 9.87 12.5)"></path><path d="m0 0 .207.312H.198a3.4 3.4 0 0 0-.393-.321Z" clip-path="url(#cG)" style="fill:#00923b;fill-opacity:1;fill-rule:nonzero;stroke:none" transform="matrix(.2451 0 0 -.2451 10.104 12.259)"></path><path d="M0 0c.095-.056.249-.098.557-.189L.058.016Z" clip-path="url(#cH)" style="fill:#00923b;fill-opacity:1;fill-rule:nonzero;stroke:none" transform="matrix(.2451 0 0 -.2451 14.146 10.177)"></path><path d="m0 0-.035.172-.121.105Z" clip-path="url(#cI)" style="fill:#00923b;fill-opacity:1;fill-rule:nonzero;stroke:none" transform="matrix(.2451 0 0 -.2451 16.167 11.256)"></path><path d="M0 0c-.128.296-.32.622-.465.911C-.121.298-.094-.139 0 0" clip-path="url(#cJ)" style="fill:#00923b;fill-opacity:1;fill-rule:nonzero;stroke:none" transform="matrix(.2451 0 0 -.2451 17.346 12.701)"></path><path d="M0 0c-.014.001-.028 0-.032.007.016-.207.107-.095.086-.099.005.073-.02.087-.045.091l.029.033Q-.035.009 0 0" clip-path="url(#cK)" style="fill:#00923b;fill-opacity:1;fill-rule:nonzero;stroke:none" transform="matrix(.2451 0 0 -.2451 14.71 14.91)"></path><path d="m0 0-.037.065-.175.042A3 3 0 0 0 0 0" clip-path="url(#cL)" style="fill:#00923b;fill-opacity:1;fill-rule:nonzero;stroke:none" transform="matrix(.2451 0 0 -.2451 14.468 13.078)"></path><path d="M0 0a1.7 1.7 0 0 1-.204.263C-.131.179-.067.088 0 0" clip-path="url(#cM)" style="fill:#00923b;fill-opacity:1;fill-rule:nonzero;stroke:none" transform="matrix(.2451 0 0 -.2451 14.605 13.107)"></path><path d="m0 0-.195.002C.048-.117-.039-.028 0 0" clip-path="url(#cN)" style="fill:#00923b;fill-opacity:1;fill-rule:nonzero;stroke:none" transform="matrix(.2451 0 0 -.2451 13.747 13.43)"></path><path d="M0 0v.013C-.015-.033-.012-.025 0 0" clip-path="url(#cO)" style="fill:#00923b;fill-opacity:1;fill-rule:nonzero;stroke:none" transform="matrix(.2451 0 0 -.2451 10.953 14.695)"></path><path d="m0 0-.018-.028C-.027-.181-.017-.115 0 0" clip-path="url(#cP)" style="fill:#00923b;fill-opacity:1;fill-rule:nonzero;stroke:none" transform="matrix(.2451 0 0 -.2451 11.676 14.164)"></path><path d="m0 0-.017-.008.024.002z" clip-path="url(#cQ)" style="fill:#00923b;fill-opacity:1;fill-rule:nonzero;stroke:none" transform="matrix(.2451 0 0 -.2451 12.565 12.497)"></path><path d="M0 0c-.229-.14-.365-.152-.553-.17l.233-.197c.103.122.208.25.32.367" clip-path="url(#cR)" style="fill:#00923b;fill-opacity:1;fill-rule:nonzero;stroke:none" transform="matrix(.2451 0 0 -.2451 12.702 12.457)"></path><path d="M0 0a2 2 0 0 0-.286.231C-.199.206-.097.119 0 0m1.696-7.892c.037-.028.06-.031.091-.048a5.5 5.5 0 0 0-.246-.771c-.123-.12-.254-.245-.328-.179-.025-.443-.685-.783-.909-1.414-.119-.087.031.132-.051.099-.04-.176-.157-.342-.434-.59l.014.044c-.714-.76-1.078-1.022-2.098-1.473l.114-.047c-.224-.094-.285-.081-.397-.104-.203-.242.627.261.457.027-.186.008-.578-.162-.981-.267-.402-.11-.809-.149-.926-.059-.371-.032.12-.095-.254-.126l-.103.05-.091-.076c-.249-.001-.374.08-.382.125.059-.006.169.013.232.017-.315.053-.89.01-.996.051l.352-.069c-1.032.004-2.211.466-3.112.893l.043-.076c-.69.34-.501.356-1.156.865l.029-.013a1.7 1.7 0 0 0-.477.4c.176-.122-.19.359.034.189-.572.584-.297.271-.741.636l-.002.147c-.146.131-.195.123-.39.504.203-.288-.016.286.221-.028-.213.832-.566 1.184-.41 1.617-.264.368.018-.761-.053-.547-.015-.202-.23.296-.232.584-.029.289.183.504.215 1.189-.007-.068.011-.074.007-.143.066.252-.028.516.113.818-.083.201.095.404-.036.492a7 7 0 0 1-.103-.643c.024.363-.081.763.223 1.314a2 2 0 0 0-.032-.365c.097.154.085.334.199.486.112-.101-.254-.744-.208-1.157.095.166.082.735.185.502-.114.333.239.628.32 1.106l.065-.07c.019.072.058.226.134.34l-.025-.269c.1.378.457.553.642.851-.464-.579-.193-.059-.441-.273.506.811.496.292 1.227 1.005-.101-.096-.435-.302-.298-.125.161.118.39.252.515.286.555.411-.141.016.069.23.258.044.256.229.512.411l.045-.08c.732.289.101.283.801.48l-.24-.224c.112.052.222.11.337.155l-.04-.122c.353.193.488.2.875.235-.1.048.024.183.381.213.245-.043-.129-.089.37-.061-.114-.059-.229-.132-.449-.066-.019-.032-.104-.067-.122-.099.255-.031.631.021.809.015-.068.007-.149.01-.191.025.237.045.48.065.727.082.109-.052.015-.063-.076-.083.145-.007.252.022.467-.009-.068-.064-.069-.138-.369-.131.225-.004.454-.013.684-.043.038-.041.318-.171.225-.176.344-.136.927-.143 1.342-.435a.5.5 0 0 0 .178-.057c.398-.254.666-.562 1.128-.872.045-.102.077-.214.114-.318.308-.301-.152.436.358-.083.352-.386.025-.223.102-.389.201-.16.565-.482.667-.97-.092.132-.124.255-.207.378.039-.117.068-.237.097-.357-.298.338-.419.613-.349.277.127.045.3-.264.44-.577.138-.311.232-.634.363-.626l.001-.24c-.013.065-.029.072-.042.137-.033-.463.269-.291.282-.896-.01-.21-.053-.352-.083-.212.021-.152.039-.306.045-.462a.3.3 0 0 0-.009-.052c-.013-.027-.028-.02-.034.004a.3.3 0 0 0 .001.084l-.004-.084c.027-.019-.084-.088.071-.432.252-.318.468-.225.496-.249l.334-.009-.006-.007c.11.035.358.084.48.104.191-.047-.098-.022-.05-.057l.423.04c.168-.076-.183-.122-.473-.097m-15.724 1.276c-.001-.131-.012-.264-.006-.394l-.015-.026c.032-.721.037-1.121.204-1.781-.016-.069.042-.397-.051-.278.05-.089.119-.162.191-.361.027-.426-.17.443-.197.103.077-.004.278-.489.446-.743.067.129-.242.646-.371.925.059.018.141-.048.233-.147.085-.254.173-.508.283-.758.173-.395.38-.765.604-1.119.179-.414 1.015-1.409 1.56-1.92.096-.049.227-.127.273-.131a8 8 0 0 1 1.104-.73c-.038.023-.078.042-.115.067.101-.076.21-.136.319-.199l-.09.066q-.053.029-.103.06c.155-.084.325-.14.486-.214h-.007q.092-.058.189-.105l-.01.03c.219-.094.436-.193.663-.266q-.025-.016-.017-.046l.398-.067c.002-.023-.147-.015-.045-.066.023.029.143.038.296.021.128-.03.252-.072.382-.096.027-.01.054-.015.08-.027.008 0 .007.004.014.004.153-.025.312-.024.467-.04-.013-.008.003-.02.09-.038.049.007.102-.012.151-.003l-.005.024c.661-.048 1.332-.041 2.014.086 2.766.515 4.708 2.138 5.913 4.655q.138.294.239.6c.029.039.062.072.091.112-.007.189.368.911.269 1.046l-.066-.281c-.005.093-.033.117-.073.109q.035.297.036.599A.48.48 0 0 1 2.12-8c-.018-.075-.048-.195-.089-.238l.144.042-.045.197c.123.019.279.044.569-.006.03-.009.004-.015.119-.05-.112.017-.096.011-.122.008l-.206-.007c.06-.042.149-.072.199-.092.023-.015-.021-.014.063-.039.068-.005.241-.11.612.053.351.173.444.582.441.716.008.17.011.193.027.183l.018.068-.028-.067c-.019 0-.037.014-.059-.167.007-.141-.179-.606-.52-.677-.301-.065-.354.021-.355.03.002.012.023.019.085.027.042.01.16.031.292.112a.74.74 0 0 0-.443-.101c-.11.012-.095.003-.123.009-.01.003-.049.011-.063.024.023.02.06.033.068.043.033.017.028.019.094-.003.055 0 .181-.106.477.034.026.016.047.017.074.041a.61.61 0 0 1 .219.454c.003.124-.009.169-.014.194l-.015.174c.093-.006.088.252.083.57l.123-.022c-.038.35-.104.32-.169.52-.015.383.061.474.13.577-.076.623-.083-.446-.221.277-.05.513-.19.862-.476 1.403-.093.347.093-.031.078.101l-.214.251c-.029.071.008.061.027.055-.143.224-.114-.027-.326.325-.156.035-.222.846-.653 1.182-.044.123.096-.007.113.052-.498.51-.421.447-.9.786q-.133.207-.283.404C1.04-.875.645-.619.29-.439l.08-.139q-.146.127-.297.247l.005-.001-.01.005q-.072.061-.146.121c-.033.081.07.07.205.033.045-.067.089-.131.127-.2.163-.044.329-.08.353-.005-.041.017-.109.06-.18.112.044-.011.076-.015.07.007-.009.024-.076.048-.176.092L.293.029.231.008a8 8 0 0 1-.635.563c-.588.21-1.128.289-2.001.579.251.012.107.134.161.241.19-.214.699-.231 1.123-.494-.221.131-.146.155-.078.142a10 10 0 0 1-.845.273c.056.081-.144.141-.347.258.098-.235-.658.107-1.022.127-.007.065.096.118.511-.026-.426.281-.656-.046-1.085.166.105-.016.158-.039.206-.016-.252.002-.843.129-.696.164l.106-.014c-.7.165-2.166.066-2.241-.135-.01.02.069.204.109.241-.265-.149-.498-.324-.737-.494-.018-.004-.036-.003-.054-.007-.126-.025-.242-.072-.365-.103-.086.137-.236.296.168.45-.17-.018-.386-.04-.716-.195.119.015.332-.111.187-.168-.455.02-.308-.002-.856-.072.174.035.074-.235-.171-.338.026.047-.11.188-.027.249a8 8 0 0 1-.512-.492c.129.112-.06.177-.225.153.081.002-.516-.295-.649-.427l.269.119c-.658-.408-.447-.671-1.008-1.142.036.092-.014.356-.319.116-.032-.112-.088-.373-.181-.673a9 9 0 0 1-.533-.611c.11.368.263.775.418 1.033-.233-.174-.114-.001-.401-.326-.146-.076.091.239.181.331a10 10 0 0 1-.701-.744c.121-.039-.359-.704-.241-.735.167.325.348.646.553.954.125-.055-.133-.702-.51-1.277-.139-.124-.124.234-.166.246-.018-.1-.278-.622-.329-.67l.086.3c-.242-.329-.157-.648-.451-1.038-.073-.147-.328-.409-.265-.462.138.129.346.128.506.071a7 7 0 0 1-.162-.506l-.046.038-.028-.1.051-.01a8 8 0 0 1-.123-.527c-.127-.061-.15.466-.279.289.031-.018.038-.172.042-.235-.063-.162-.093.092-.15-.279.119-.083-.121-.748.083-.192-.016-.362-.078-.377-.106-.803.065.09.168-.149.242-.416" clip-path="url(#cS)" style="fill:#00923b;fill-opacity:1;fill-rule:nonzero;stroke:none" transform="matrix(.2451 0 0 -.2451 14.396 12.97)"></path><path d="M0 0c-.014-.008-.023-.008-.036-.014L-.047-.02c.015.01.033.008.047.02" clip-path="url(#cT)" style="fill:#00923b;fill-opacity:1;fill-rule:nonzero;stroke:none" transform="matrix(.2451 0 0 -.2451 15.208 14.904)"></path><path d="M0 0a.08.08 0 0 0 .004-.07C.049-.089.062-.076 0 0" clip-path="url(#cU)" style="fill:#00923b;fill-opacity:1;fill-rule:nonzero;stroke:none" transform="matrix(.2451 0 0 -.2451 14.544 13.046)"></path><path d="m0 0-.014.009A.03.03 0 0 1-.036.002z" clip-path="url(#cV)" style="fill:#00923b;fill-opacity:1;fill-rule:nonzero;stroke:none" transform="matrix(.2451 0 0 -.2451 13.756 13.431)"></path><path d="M0 0a.6.6 0 0 0 .094.2C.075.211.039.167 0 0" clip-path="url(#cW)" style="fill:#00923b;fill-opacity:1;fill-rule:nonzero;stroke:none" transform="matrix(.2451 0 0 -.2451 10.908 14.17)"></path><path d="M0 0c-.05.102-.033.122-.039.193L-.146.14Q-.077.066 0 0" clip-path="url(#cX)" style="fill:#00923b;fill-opacity:1;fill-rule:nonzero;stroke:none" transform="matrix(.2451 0 0 -.2451 11.274 15.782)"></path><path d="M0 0c.049-.025.257-.389.112-.032C.065-.01-.241.477 0 0" clip-path="url(#cY)" style="fill:#00923b;fill-opacity:1;fill-rule:nonzero;stroke:none" transform="matrix(.2451 0 0 -.2451 11.094 15.518)"></path><path d="M0 0c-.428-.284-.02-.167-.407-.418-.06-.111.314.207.247.097C.043-.09.191-.015 0 0" clip-path="url(#cZ)" style="fill:#00923b;fill-opacity:1;fill-rule:nonzero;stroke:none" transform="matrix(.2451 0 0 -.2451 11.707 12.868)"></path><path d="m0 0 .142.309L.014.123Z" clip-path="url(#da)" style="fill:#00923b;fill-opacity:1;fill-rule:nonzero;stroke:none" transform="matrix(.2451 0 0 -.2451 14.88 15.15)"></path><path d="M0 0c-.032-.051-.039-.129-.052-.285l.081.258z" clip-path="url(#db)" style="fill:#00923b;fill-opacity:1;fill-rule:nonzero;stroke:none" transform="matrix(.2451 0 0 -.2451 15.327 14.612)"></path><path d="m0 0 .102.131-.105-.066Z" clip-path="url(#dc)" style="fill:#00923b;fill-opacity:1;fill-rule:nonzero;stroke:none" transform="matrix(.2451 0 0 -.2451 14.467 14.537)"></path><path d="M0 0c.075-.103.18-.215.251-.323C.075-.105.091.114 0 0" clip-path="url(#dd)" style="fill:#00923b;fill-opacity:1;fill-rule:nonzero;stroke:none" transform="matrix(.2451 0 0 -.2451 14.146 13.824)"></path></svg>