<svg xmlns="http://www.w3.org/2000/svg" width="120.157" height="160.184" viewBox="0 0 31.792 42.382"><defs><clipPath id="a" clipPathUnits="userSpaceOnUse"><path d="M-275.335 1852.584h1920v-5921.297h-1920Z"></path></clipPath><clipPath id="b" clipPathUnits="userSpaceOnUse"><path d="M-274.785 1855.033h1920v-5921.297h-1920Z"></path></clipPath><clipPath id="c" clipPathUnits="userSpaceOnUse"><path d="M-271.061 1873.74h1920v-5921.297h-1920Z"></path></clipPath><clipPath id="d" clipPathUnits="userSpaceOnUse"><path d="M-283.47 1845.17h1920v-5921.297h-1920Z"></path></clipPath><clipPath id="e" clipPathUnits="userSpaceOnUse"><path d="M-319.415 1842.03h1920v-5921.297h-1920Z"></path></clipPath><clipPath id="f" clipPathUnits="userSpaceOnUse"><path d="M-290.464 1857.19h1920v-5921.297h-1920Z"></path></clipPath><clipPath id="g" clipPathUnits="userSpaceOnUse"><path d="M-303.301 1840.365h1920v-5921.297h-1920Z"></path></clipPath><clipPath id="h" clipPathUnits="userSpaceOnUse"><path d="M-285.335 1879.39h1920v-5921.297h-1920Z"></path></clipPath><clipPath id="i" clipPathUnits="userSpaceOnUse"><path d="M-284.83 1879.01h1920v-5921.297h-1920Z"></path></clipPath><clipPath id="j" clipPathUnits="userSpaceOnUse"><path d="M-270.817 1873.808h1920v-5921.297h-1920Z"></path></clipPath><clipPath id="k" clipPathUnits="userSpaceOnUse"><path d="M-283.023 1845.126h1920V-4076.17h-1920Z"></path></clipPath><clipPath id="l" clipPathUnits="userSpaceOnUse"><path d="M-288.86 1861.658h1920v-5921.296h-1920Z"></path></clipPath><clipPath id="m" clipPathUnits="userSpaceOnUse"><path d="M-302.986 1856.325h1920v-5921.297h-1920Z"></path></clipPath><clipPath id="n" clipPathUnits="userSpaceOnUse"><path d="M-295.031 1852.976h1920v-5921.297h-1920Z"></path></clipPath><clipPath id="o" clipPathUnits="userSpaceOnUse"><path d="M-293.036 1851.925h1920v-5921.297h-1920Z"></path></clipPath><clipPath id="p" clipPathUnits="userSpaceOnUse"><path d="M-286.645 1872.328h1920V-4048.97h-1920Z"></path></clipPath><clipPath id="q" clipPathUnits="userSpaceOnUse"><path d="M-286.775 1872.854h1920v-5921.297h-1920Z"></path></clipPath><clipPath id="r" clipPathUnits="userSpaceOnUse"><path d="M-274.307 1860.454h1920v-5921.297h-1920Z"></path></clipPath><clipPath id="s" clipPathUnits="userSpaceOnUse"><path d="M-275.765 1851.997h1920V-4069.3h-1920Z"></path></clipPath><clipPath id="t" clipPathUnits="userSpaceOnUse"><path d="M-277.438 1847.916h1920v-5921.297h-1920Z"></path></clipPath><clipPath id="u" clipPathUnits="userSpaceOnUse"><path d="M-297.427 1829.132h1920v-5921.297h-1920Z"></path></clipPath><clipPath id="v" clipPathUnits="userSpaceOnUse"><path d="M-298.558 1820.126h1920v-5921.297h-1920Z"></path></clipPath><clipPath id="w" clipPathUnits="userSpaceOnUse"><path d="M-294.85 1829.597h1920V-4091.7h-1920Z"></path></clipPath><clipPath id="x" clipPathUnits="userSpaceOnUse"><path d="M-299.628 1823.313h1920v-5921.297h-1920Z"></path></clipPath><clipPath id="y" clipPathUnits="userSpaceOnUse"><path d="M-299.462 1823.453h1920v-5921.297h-1920Z"></path></clipPath><clipPath id="z" clipPathUnits="userSpaceOnUse"><path d="M-297.529 1829.32h1920v-5921.296h-1920Z"></path></clipPath><clipPath id="A" clipPathUnits="userSpaceOnUse"><path d="M-298.668 1821.16h1920v-5921.297h-1920Z"></path></clipPath><clipPath id="B" clipPathUnits="userSpaceOnUse"><path d="M-297.137 1819.914h1920v-5921.297h-1920Z"></path></clipPath><clipPath id="C" clipPathUnits="userSpaceOnUse"><path d="M-297.398 1820.21h1920v-5921.297h-1920Z"></path></clipPath><clipPath id="D" clipPathUnits="userSpaceOnUse"><path d="M-299.433 1822.344h1920v-5921.297h-1920Z"></path></clipPath><clipPath id="E" clipPathUnits="userSpaceOnUse"><path d="M-298.838 1827.747h1920V-4093.55h-1920Z"></path></clipPath><clipPath id="F" clipPathUnits="userSpaceOnUse"><path d="M-298.546 1828.535h1920v-5921.297h-1920Z"></path></clipPath><clipPath id="G" clipPathUnits="userSpaceOnUse"><path d="M-297.885 1828.7h1920v-5921.296h-1920Z"></path></clipPath><clipPath id="H" clipPathUnits="userSpaceOnUse"><path d="M-255.68 1829.174h1920v-5921.297h-1920Z"></path></clipPath><clipPath id="I" clipPathUnits="userSpaceOnUse"><path d="M-256.285 1821.683h1920v-5921.297h-1920Z"></path></clipPath><clipPath id="J" clipPathUnits="userSpaceOnUse"><path d="M-274.917 1809.49h1920v-5921.296h-1920Z"></path></clipPath><clipPath id="K" clipPathUnits="userSpaceOnUse"><path d="M-252.375 1870.288h1920v-5921.297h-1920Z"></path></clipPath><clipPath id="L" clipPathUnits="userSpaceOnUse"><path d="M-302.765 1903.777h1920V-4017.52h-1920Z"></path></clipPath><clipPath id="M" clipPathUnits="userSpaceOnUse"><path d="M-325.42 1792.923h1920v-5921.297h-1920Z"></path></clipPath><clipPath id="N" clipPathUnits="userSpaceOnUse"><path d="M-268.887 1903.143h1920v-5921.297h-1920Z"></path></clipPath><clipPath id="O" clipPathUnits="userSpaceOnUse"><path d="M-297.873 1815.141h1920v-5921.297h-1920Z"></path></clipPath><clipPath id="P" clipPathUnits="userSpaceOnUse"><path d="M-296.09 1815.132h1920v-5921.297h-1920Z"></path></clipPath><clipPath id="Q" clipPathUnits="userSpaceOnUse"><path d="M-297.564 1905.286h1920v-5921.297h-1920Z"></path></clipPath><clipPath id="R" clipPathUnits="userSpaceOnUse"><path d="M-274.075 1911.89h1920v-5921.298h-1920Z"></path></clipPath><clipPath id="S" clipPathUnits="userSpaceOnUse"><path d="M-256.8 1813.54h1920v-5921.297h-1920Z"></path></clipPath><clipPath id="T" clipPathUnits="userSpaceOnUse"><path d="M-255.959 1825.943h1920v-5921.297h-1920Z"></path></clipPath><clipPath id="U" clipPathUnits="userSpaceOnUse"><path d="M-257.867 1911.623h1920v-5921.297h-1920Z"></path></clipPath><clipPath id="V" clipPathUnits="userSpaceOnUse"><path d="M-274.825 1811.28h1920v-5921.297h-1920Z"></path></clipPath><clipPath id="W" clipPathUnits="userSpaceOnUse"><path d="M-252.67 1869.124h1920v-5921.297h-1920Z"></path></clipPath><clipPath id="X" clipPathUnits="userSpaceOnUse"><path d="M-318.521 1802.59h1920v-5921.296h-1920Z"></path></clipPath><clipPath id="Y" clipPathUnits="userSpaceOnUse"><path d="M-337.465 1839.706h1920v-5921.297h-1920Z"></path></clipPath><clipPath id="Z" clipPathUnits="userSpaceOnUse"><path d="M-336.06 1814.331h1920v-5921.297h-1920Z"></path></clipPath><clipPath id="aa" clipPathUnits="userSpaceOnUse"><path d="M-335.807 1806.53h1920v-5921.296h-1920Z"></path></clipPath><clipPath id="ab" clipPathUnits="userSpaceOnUse"><path d="M-313.876 1830.284h1920v-5921.297h-1920Z"></path></clipPath><clipPath id="ac" clipPathUnits="userSpaceOnUse"><path d="M-312.392 1830.505h1920v-5921.297h-1920Z"></path></clipPath><clipPath id="ad" clipPathUnits="userSpaceOnUse"><path d="M-256.868 1805.467h1920V-4115.83h-1920Z"></path></clipPath><clipPath id="ae" clipPathUnits="userSpaceOnUse"><path d="M-255.231 1831.115h1920v-5921.297h-1920Z"></path></clipPath><clipPath id="af" clipPathUnits="userSpaceOnUse"><path d="M-253.564 1850.484h1920v-5921.297h-1920Z"></path></clipPath></defs><path d="M0 0c.033.07.07.168.117.322Z" clip-path="url(#a)" style="fill:#00923b;fill-opacity:1;fill-rule:nonzero;stroke:none" transform="matrix(.35278 0 0 -.35278 8.8 21.46)"></path><path d="m0 0 .104.041C.118.14.072.102 0 0" clip-path="url(#b)" style="fill:#00923b;fill-opacity:1;fill-rule:nonzero;stroke:none" transform="matrix(.35278 0 0 -.35278 8.606 22.324)"></path><path d="M0 0a1.4 1.4 0 0 1-.072.29l-.007.021.005-.022Q-.041.124 0 0" clip-path="url(#c)" style="fill:#00923b;fill-opacity:1;fill-rule:nonzero;stroke:none" transform="matrix(.35278 0 0 -.35278 7.293 28.924)"></path><path d="m0 0-.447.044C-.361-.034-.57-.238 0 0" clip-path="url(#d)" style="fill:#00923b;fill-opacity:1;fill-rule:nonzero;stroke:none" transform="matrix(.35278 0 0 -.35278 11.67 18.845)"></path><path d="m0 0-.043.104C-.036.033-.026-.015 0 0" clip-path="url(#e)" style="fill:#00923b;fill-opacity:1;fill-rule:nonzero;stroke:none" transform="matrix(.35278 0 0 -.35278 24.351 17.737)"></path><path d="m0 0 .004.027C-.019.083-.024.1 0 0" clip-path="url(#f)" style="fill:#00923b;fill-opacity:1;fill-rule:nonzero;stroke:none" transform="matrix(.35278 0 0 -.35278 14.138 23.085)"></path><path d="m0 0-.071.004C.144-.128.271-.188 0 0" clip-path="url(#g)" style="fill:#00923b;fill-opacity:1;fill-rule:nonzero;stroke:none" transform="matrix(.35278 0 0 -.35278 18.666 17.15)"></path><path d="m0 0 .017.001-.021.02z" clip-path="url(#h)" style="fill:#00923b;fill-opacity:1;fill-rule:nonzero;stroke:none" transform="matrix(.35278 0 0 -.35278 12.328 30.917)"></path><path d="M0 0q.117-.462.528-1.037.045.306-.024.657C.378-.391.184-.35 0 0" clip-path="url(#i)" style="fill:#00923b;fill-opacity:1;fill-rule:nonzero;stroke:none" transform="matrix(.35278 0 0 -.35278 12.15 30.783)"></path><path d="M0 0c.047.009.091.016.131-.002C.099.085.055.073 0 0" clip-path="url(#j)" style="fill:#00923b;fill-opacity:1;fill-rule:nonzero;stroke:none" transform="matrix(.35278 0 0 -.35278 7.207 28.948)"></path><path d="M0 0a.1.1 0 0 1-.05.024L-.083.008Z" clip-path="url(#k)" style="fill:#00923b;fill-opacity:1;fill-rule:nonzero;stroke:none" transform="matrix(.35278 0 0 -.35278 11.513 18.83)"></path><path d="M0 0c-.029.088-.05.217-.044.441C-.088.105-.058-.002 0 0" clip-path="url(#l)" style="fill:#00923b;fill-opacity:1;fill-rule:nonzero;stroke:none" transform="matrix(.35278 0 0 -.35278 13.572 24.662)"></path><path d="m0 0 .23-.036-.743.217Z" clip-path="url(#m)" style="fill:#00923b;fill-opacity:1;fill-rule:nonzero;stroke:none" transform="matrix(.35278 0 0 -.35278 18.555 22.78)"></path><path d="M0 0c.148.028.182.073.412.037L.085.289Z" clip-path="url(#n)" style="fill:#00923b;fill-opacity:1;fill-rule:nonzero;stroke:none" transform="matrix(.35278 0 0 -.35278 15.749 21.598)"></path><path d="M0 0c.937-.292-.056.169-.186.308C-1.562.865-.062.114 0 0" clip-path="url(#o)" style="fill:#00923b;fill-opacity:1;fill-rule:nonzero;stroke:none" transform="matrix(.35278 0 0 -.35278 15.045 21.228)"></path><path d="M0 0c-.012-.911-.294-.091-.352-1.091.27-.328.257-.006.482.565C-.01-.745.155.21 0 0" clip-path="url(#p)" style="fill:#00923b;fill-opacity:1;fill-rule:nonzero;stroke:none" transform="matrix(.35278 0 0 -.35278 12.79 28.425)"></path><path d="M0 0c.029.046.067.123.127.289A4 4 0 0 1 0 0" clip-path="url(#q)" style="fill:#00923b;fill-opacity:1;fill-rule:nonzero;stroke:none" transform="matrix(.35278 0 0 -.35278 12.836 28.611)"></path><path d="m0 0 .083.034-.079.524C-.039.261-.062.113 0 0" clip-path="url(#r)" style="fill:#00923b;fill-opacity:1;fill-rule:nonzero;stroke:none" transform="matrix(.35278 0 0 -.35278 8.438 24.237)"></path><path d="m0 0 .022.148-.248.179Z" clip-path="url(#s)" style="fill:#00923b;fill-opacity:1;fill-rule:nonzero;stroke:none" transform="matrix(.35278 0 0 -.35278 8.952 21.253)"></path><path d="M0 0c.271.127.617.204.887.33C.824.687.617.204 0 0" clip-path="url(#t)" style="fill:#00923b;fill-opacity:1;fill-rule:nonzero;stroke:none" transform="matrix(.35278 0 0 -.35278 9.543 19.813)"></path><path d="m0 0 .102-.188C.065-.091.055.021 0 0" clip-path="url(#u)" style="fill:#00923b;fill-opacity:1;fill-rule:nonzero;stroke:none" transform="matrix(.35278 0 0 -.35278 16.594 13.187)"></path><path d="m0 0-.004.001C-.027-.024-.033-.03 0 0" clip-path="url(#v)" style="fill:#00923b;fill-opacity:1;fill-rule:nonzero;stroke:none" transform="matrix(.35278 0 0 -.35278 16.993 10.01)"></path><path d="m0 0 .019.011C.023.074.017.096 0 0" clip-path="url(#w)" style="fill:#00923b;fill-opacity:1;fill-rule:nonzero;stroke:none" transform="matrix(.35278 0 0 -.35278 15.685 13.35)"></path><path d="m0 0-.008.005L-.018 0Z" clip-path="url(#x)" style="fill:#00923b;fill-opacity:1;fill-rule:nonzero;stroke:none" transform="matrix(.35278 0 0 -.35278 17.37 11.134)"></path><path d="M0 0q.386.048.772.122L.166.14C.223.1.257.061 0 0" clip-path="url(#y)" style="fill:#00923b;fill-opacity:1;fill-rule:nonzero;stroke:none" transform="matrix(.35278 0 0 -.35278 17.312 11.184)"></path><path d="m0 0 .017-.039.003.004Z" clip-path="url(#z)" style="fill:#00923b;fill-opacity:1;fill-rule:nonzero;stroke:none" transform="matrix(.35278 0 0 -.35278 16.63 13.254)"></path><path d="M0 0a.3.3 0 0 0-.118-.062C-.075-.074-.035-.044 0 0" clip-path="url(#A)" style="fill:#00923b;fill-opacity:1;fill-rule:nonzero;stroke:none" transform="matrix(.35278 0 0 -.35278 17.032 10.375)"></path><path d="M0 0c-.028-.077-.035-.128-.073-.177l.044-.122z" clip-path="url(#B)" style="fill:#00923b;fill-opacity:1;fill-rule:nonzero;stroke:none" transform="matrix(.35278 0 0 -.35278 16.492 9.935)"></path><path d="M0 0c-.119-.052-.016-.136-.023-.219C.108-.274-.001-.082 0 0" clip-path="url(#C)" style="fill:#00923b;fill-opacity:1;fill-rule:nonzero;stroke:none" transform="matrix(.35278 0 0 -.35278 16.584 10.04)"></path><path d="M0 0c-.08-.064-.134.037-.228-.036.179-.034-.24-.121-.096-.175.311.088.237.095.324.211" clip-path="url(#D)" style="fill:#00923b;fill-opacity:1;fill-rule:nonzero;stroke:none" transform="matrix(.35278 0 0 -.35278 17.302 10.792)"></path><path d="m0 0-.072.022.148-.107C.074-.053.073-.037 0 0" clip-path="url(#E)" style="fill:#00923b;fill-opacity:1;fill-rule:nonzero;stroke:none" transform="matrix(.35278 0 0 -.35278 17.092 12.698)"></path><path d="m0 0-.005-.015.198-.194Z" clip-path="url(#F)" style="fill:#00923b;fill-opacity:1;fill-rule:nonzero;stroke:none" transform="matrix(.35278 0 0 -.35278 16.989 12.976)"></path><path d="M0 0c-.016-.023-.076.015-.091-.008C.086-.314-.074.017 0 0" clip-path="url(#G)" style="fill:#00923b;fill-opacity:1;fill-rule:nonzero;stroke:none" transform="matrix(.35278 0 0 -.35278 16.756 13.035)"></path><path d="M0 0a22 22 0 0 1-.125-1.007Z" clip-path="url(#H)" style="fill:#00923b;fill-opacity:1;fill-rule:nonzero;stroke:none" transform="matrix(.35278 0 0 -.35278 1.867 13.202)"></path><path d="m0 0-.106-.173C-.123-.472-.075-.335 0 0" clip-path="url(#I)" style="fill:#00923b;fill-opacity:1;fill-rule:nonzero;stroke:none" transform="matrix(.35278 0 0 -.35278 2.08 10.559)"></path><path d="m0 0 .135-1.945A35 35 0 0 1 0 0" clip-path="url(#J)" style="fill:#00923b;fill-opacity:1;fill-rule:nonzero;stroke:none" transform="matrix(.35278 0 0 -.35278 8.653 6.258)"></path><path d="m0 0 .295 1.165C.181 1.025.13 1.845 0 0" clip-path="url(#K)" style="fill:#00923b;fill-opacity:1;fill-rule:nonzero;stroke:none" transform="matrix(.35278 0 0 -.35278 .7 27.706)"></path><path d="M0 0c-.02.021-.047.059-.088.064C-.023.018-.017-.043 0 0" clip-path="url(#L)" style="fill:#00923b;fill-opacity:1;fill-rule:nonzero;stroke:none" transform="matrix(.35278 0 0 -.35278 18.477 39.52)"></path><path d="m0 0 .082.001C.234.033.283.041 0 0" clip-path="url(#M)" style="fill:#00923b;fill-opacity:1;fill-rule:nonzero;stroke:none" transform="matrix(.35278 0 0 -.35278 26.47 .413)"></path><path d="m0 0 .016-.203C.083.532.107.949 0 0" clip-path="url(#N)" style="fill:#00923b;fill-opacity:1;fill-rule:nonzero;stroke:none" transform="matrix(.35278 0 0 -.35278 6.526 39.296)"></path><path d="m0 0 .161-.022-.122.033Z" clip-path="url(#O)" style="fill:#00923b;fill-opacity:1;fill-rule:nonzero;stroke:none" transform="matrix(.35278 0 0 -.35278 16.752 8.251)"></path><path d="M0 0a12.4 12.4 0 0 1-2.101-.312c.921.083 1.809.024 2.609-.229.389.22.817.385 1.275.532A11 11 0 0 1 0 0" clip-path="url(#P)" style="fill:#00923b;fill-opacity:1;fill-rule:nonzero;stroke:none" transform="matrix(.35278 0 0 -.35278 16.123 8.248)"></path><path d="M0 0a5 5 0 0 1-.185-.066Z" clip-path="url(#Q)" style="fill:#00923b;fill-opacity:1;fill-rule:nonzero;stroke:none" transform="matrix(.35278 0 0 -.35278 16.643 40.052)"></path><path d="m0 0-.328.345-2.029.086Z" clip-path="url(#R)" style="fill:#00923b;fill-opacity:1;fill-rule:nonzero;stroke:none" transform="matrix(.35278 0 0 -.35278 8.356 42.382)"></path><path d="M0 0c-.102.516.145 1.886.242 2.575C.236 1.389.321.77 0 0m17.527-44.179c.103-.193-.132-.618-.223-.837-.002.403-.089.627.223.837m-3.053-16.798c.133-.004.242-.012.33-.034a.64.64 0 0 0 .277-.147c-.3.052-.458.104-.607.181m27.905 46.316c-.115.079.042.058.099.063.05-.073.152-.155-.099-.063m.969 2.384c-.088.048-.127.091-.05.119.06-.044.069-.084.05-.119m-3.774 5.968c.199.193.543.109.733.174q.39-.037.75-.147a1.4 1.4 0 0 0-.065-.4c-.042.14-.173.416-.267.137.061-.14.182-.246.132-.429.185.305-.126.136.067.381.059-.022.05-.139.058-.204.005.149.126.207.172.275.2-.063.369.015.6-.063l.009.01q.068-.035.135-.073c-.033-.207-.121-.46-.22-.562.091-.069.186.054.213-.082-.305-.154.056.021-.129-.251.051-.088.124.106.208.138a.7.7 0 0 0-.101-.216c.183.13.287.462.468.667q.067-.053.132-.109l-.074-.083.022-.026.072.092c.045-.039.095-.072.138-.113a12 12 0 0 0-.838-.783c-.13-.144.203.099.246.079.305.122-.059-.293.089-.279l.085.165c.076.043.085-.141.007-.224.091.059.394.402.526.442.186-.143-.228-.625-.516-.773q.085.193.136.4c-.22-.155-.111-.304-.395-.473l.188-.127c-.003.027.018.135.165.182.04-.091.069-.019.21-.022.148.141.408.434.652.726.05-.078.088-.162.132-.244a5.3 5.3 0 0 0-.683-.537c.104-.056.618.207.706.283.134-.21-.674-.519-.527-.662l-.144.027c-.031-.054.119-.175.011-.187.156.007.518.056.601.127a6 6 0 0 0-.484-.296c.051.035.508.113.586.141.034-.08-.506-.224-.586-.194.349-.077.164-.069.571-.138-.025-.047-.489-.048-.543-.03-.106-.098-.055-.14-.001-.178.132.11.566.129.94.148.003-.041.01-.08.012-.121a17 17 0 0 0-.931-.285c.083.014.525.046.578.044-.411-.035-.464-.499-.407-.727l.003.034c.142.046.256-.149.112-.229.082.013.057.031.061.066.309-.152-.622-.197-.258-.352-.04.14.126.168.289.161-.149-.116.013-.382-.471-.326.101-.074.04-.14.285-.134l-.288-.282c.05.021.192.039.225-.044-.064.159.387.312.071.395.299.004.459-.055.711.021-.142-.306-.652-.474-.999-.666l.216-.269-.137-.012.344-.047c-.079-.033-.147-.055-.114-.062a.3.3 0 0 1 .127.016.17.17 0 0 0-.084-.068c.181-.01.389.037.577.088l-.191.074a1 1 0 0 0 .302.048v-.092l-.111-.03.063-.023.048.027v-.045l-.048.018c-.225-.129-.5-.276-.732-.161l.203-.157c-.341-.184-.272-.152-.525-.376.12-.012.221.047.309.007-.384-.169.449-.396.104-.41-.089-.104-.299-.031-.397-.087.038 0 .114.001.119-.018l-.248-.051c.086-.038.174.051.274-.043-.212-.124-.332-.17-.249-.305-.096-.136-.462.173-.445.044.191-.066.418-.144.426-.238-.145-.002-.296.052-.403.018l.293-.098c-.037-.061-.107-.091.108-.179-.139-.008-.141-.047-.108-.098-.193-.021-.534.33-.645.383.178-.166.029-.16.339-.378l.112.042c.255-.36-.463.062.057-.349.014.071.205.065.331-.054l-.195-.015c.063-.054.081.025.135-.067a1.7 1.7 0 0 0-.34.072l.016-.01c-.045-.043-.101-.078-.15-.117.011.035.108-.026.097-.062l-.199.003c.081-.019.136-.11.134-.184-.046-.186-.59.38-.441.084.008.016.038-.011.044.006l.054-.138c-.454.466-.299-.175-.708.348.105-.253.081-.135.352-.321l.046-.201c.044.002.037.06.108.032.07-.288-.23-.089-.369.036.013-.102.295-.397.123-.375-.219.015-.213.432-.336.445l.096-.332c-.233.174-.215-.074-.316-.152a.2.2 0 0 0-.074.078c-.076-.182-.318.256-.364.131.033-.066-.008-.217-.007-.3l-.184.183c.075-.077.1-.271.139-.456-.06.012-.096.109-.135.135.028-.069.06-.135.038-.225a4 4 0 0 0-.207.313c.01.034.029.048.045.057-.045.002-.134.112-.198-.038l.03-.223c.057.209.085.035.121-.111-.136.026-.032-.053-.1-.193-.104.014-.129.274-.098.436-.101-.065-.148-.127-.222.089l-.013-.266-.085.098.037-.333c-.23-.146.03.453-.199.341l-.049-.228c-.067.11.009.496-.122.241-.031.153.203.289.059.373a.45.45 0 0 0-.211-.197c-.015.118.13.246.148.204-.177.186-.443-.695-.552-.3.147.115.142.433.299.347-.009.163-.307-.233-.268.042l-.089-.292c-.036.012-.017.129-.014.17l-.108-.203c.105.406-.315-.034-.068.445-.205-.364-.056.072-.192-.029-.095-.29.233-.168.039-.489-.11-.07-.043.113-.147.052a1 1 0 0 0-.048-.256c-.28-.062-.106.359-.112.5.024-.067.059-.122.09-.184.221.313-.028.102.123.363-.196-.097-.048.17-.184.122.015-.011-.01-.039.006-.05-.125.124-.613-.243-.689-.183-.105.031-.029.297.132.346.04.114.081-.284.387.126-.514-.272.032.288-.405.261-.116-.201-.31-.111-.387-.28-.029.136.043.183.156.308l-.176-.053c.287.328.297.204.397.487-.098-.123-.274-.02-.368-.12-.034.057-.005.138.08.217l-.021-.016c.006.239-.27.124-.138.378l.111.003c.231.341.022.528.163.951l.089-.126c-.055.038.171.242.002.354-.01-.023-.059-.061-.044-.082-.121.003-.3.047-.331.133l.185.033-.143.035c-.003.132.264-.038.261.093-.528.077-.07.567-.536.681.383.089.056-.249.402-.151-.057.04-.129.058-.159.144l.228-.03c-.13.398-.325.551-.277.905l-.049-.014c-.089.127-.047.194.151.251-.107.026-.162-.065-.256-.016.586.223-.43.445-.021.581-.208-.009-.411.047-.606.098v.283c0 1.445.799 2.686 1.972 3.347.003-.001.005.003.01 0 .001.002-.002.003-.001.005q.082.047.165.089l.002-.002.001.004c.059.029.112.067.173.094a.35.35 0 0 0 .116-.141c.013.054-.049.112-.074.161l.012.004.149-.061c-.01.039-.03.061-.045.093q.242.094.5.155l-.072-.035-.023-.058.101.094c.133.031.27.044.408.061.025-.059.064-.112.098-.165m9.278-45.556a.43.43 0 0 0-.367.005.506.506 0 0 0-.248.627l1.817 5.128c.025.064.048.13.088.188q.02.085.025.133l.336.948c.011.017.021.026.031.044q.002.027.004.054l.073.206-.9.35c-.12.098-.195.193-.184.262-.239.044-.055-.11-.069-.163l-.08.031-.638.366c-.038-.028-.045-.063-.04-.102l-5.313 2.071c-.053.094-.321.266-.493.399-1.437.357-3.758 1.393-4.735 1.639l-3.516 1.37-.116-.656c-.154-.092-.304-.126-.428-.011.105.286.249.659.354 1.005.527-.263.936-.423 1.012-.277-.328.188-.786.415-1.215.638-.13-.396-.262-.743-.355-.684.145-1.139.344 1.36.391-.004-.094-.487-.229-.607-.326-.82.186.234.13-.635.182-.795-.139-.794-.185-1.268-.245-1.847-.057-.558-.113-1.128-.228-1.864l.022-.051-.162-.915c-.279-.457-.615-.801-.722-.599-.163-.838-.012-.911-.231-1.609-.099 1.194.01-.233-.335-.297-.169-.724.111-.283.126-.633-.057-.115-.216-.387-.307-.391.146-.432.648.475.899.314l-.198-1.115-.121.029-.041-.21.134.025-.193-1.092c-.418.079-.881.324-1.044.676-.199-.022.08-.727.043-1.051.141-.982-.49-1.373-.506-2.167l.275.558c.055-.141-.246-1.26-.388-1.42.101-.048.652.49.717.115-.19-1.397-1.011-2.608-1.315-2.465l.708 2.067c-.253.122-.534-1.462-.839-1.318l-.252-1.974c.052.246.262.987.356.664-.163-.838-.031-.444-.006-1.027.292.52.806 1.271 1.29 1.924l-.297-1.67c-.44-.497-.882-.863-1.061-1.023-.067-.769.549-.605.692-.444-.236-1.493-1.065-1.327-1.251-2.842l-.024.585c-.116-.344-.229-1.651-.31-1.495.099-.324.407-.66.562-.346l-.77-1.234c.091.185.525-.023.621.046-.077-.537-.688-.816-.703-.465.034-.286.055-.466.081-.526l.042-.217c.022-.136.059-.227.172-.71-.068-.203-.416.469-.447.581-.089-.125-.112-.225-.142-.333-.042-.102-.131-.169-.191-.171.168-.105.314-.12.426-.212.116-.085.226-.224.334-.399.08-.131.168-.309.225-.442a.41.41 0 0 0-.427-.193l-.268.103c-.184.156-.353.335-.491.469q-.282.294-.456.546c-.138.177-.135.299-.328.497.061-.113.061-.586.029-.63-.018.446-2.709 1.541-4.037 1.992l.196-.079c.215-.235-.957.094-1.368.407.049-.107.165-.125.361-.205-.989.05-.916 1.02-1.941 1.026.825-.277.925-.493.825-.628-.612.394-2.21.837-1.714 1.164-.463.07-.825.275-.876.033l-1.53.898c.104-.093.157-.267-.333-.113.94-.293 1.664-1.056 2.26-.947-.083-.288-.485-.304-.137-.709-1.717.814-2.502 1.663-3.491 2.416l-.817.199-.483.071.073.118-.216-.101c-.075-.044-.156-.101-.24-.12-.054.119-.003.246-.05.247-.041.004-.084-.053-.108-.132a.31.31 0 0 0 .046.305c-.172-.012-.53-.345-.493-.707a.8.8 0 0 1 .273-.032c.092.067.181.022.266.035.067-.135.151-.283.093-.36l-.492.19-.049-.021-.011.002c-.012.004-.021.013-.032.017a.34.34 0 0 0-.048.169.7.7 0 0 0-.153.066.4.4 0 0 1 .085-.176.5.5 0 0 0-.179.258c.028-.028.053-.057.094-.082-.045.179.04.384.132.543.085.164.167.303.241.404.198.281.348.295.439.074l-.047.293c-.011.122-.008.319-.013.474.549 1.057.444.875.953 2.192-.103.097-.272-.247-.311.014.569.922.02 2.512.396 2.665.235.788.355.279.546.772-.042-.017-.125-.051-.103.099l.358.56c-.04.262-.274-.526-.248.178.405 1.135.659 1.798.73 2.798.323 1.38.368-.688.545.497-.165.21-.371.407-.261 1.147.211.362.355.28.568.922l-.311.017c.129.606.279 1.082.05 1.131.225.474.268.821.269 1.091.337.894.485-.798.563-1.036-.054.952.198 1.555-.068 2.143l-.235-.788c-.048 1.788.74 1.545.249 2.463-.089-.593-.386-1.267-.486-.889l.318.822c-.061.116-.149-.476-.167-.067.113.23.364.697.507.897l-.021-.007.345 1.528c-.043-.295-.169-.345-.125-.049l.351.978c-.135-.294-.168.039-.131.501.156 1.316.881.909.765 1.976-.022-.148-.064-.164-.087-.314l-.036.544c.332-.007.494.754.656 1.514.054.259.049.209.067.256.016.029.031.054.061.06.071.012.163-.063.264-.193-.08.11-.071.157-.122.184a.37.37 0 0 1-.314.028c-.052.091-.089.232-.031.303-.151-.013-.11-.164-.191-.253-.04.116-.077.274.022.334a.74.74 0 0 0 .306.069c.023-.01.16.024.261.04l.304.046.519.056c.333.242-.482.331.614.675 1.538.508-.097-.56.827-.255l.516.585c1.242.241 2.005.814 2.952 1.258.228.067.349.079.416.068.968.566 2.277.597 3.006 1.024-.208-.011.359.383.42.498l1.476.392c-.652-.177-.7.015-.886.142.443.164.69.152.996.253-.208-.012-.418-.024-.221.153l1.588.318c-.073-.067-.237-.149-.374-.217.366.152 1.205.372 1.667.738-.076.05-.283.039-.357.09-.356-.382-.677-.319-.961-.28 1.022.394.232.152.664.483.715.293 1.107.177.984-.053.776.407 1.012.562 1.909.726l-.259.178.787.241-.737.04c1.378.775.442-.307 1.992.507l-.086.216c.654.178 1.018-.095 1.39.365.655.123-.899-.735.53-.186.101.108.277.238.476.369.097.083.148.153.24.201.098-.064.049-.126-.003-.185-.056-.074-.103-.135-.159-.139.083.018.122.043.174.066.051.016.089.006.133.028.025.04.284.027.414.057.15.023.281.056.427.07.294.028.653-.023 1.369-.377-.721.056.419-.607-1.161-.093.714-.372 1.591-.156 2.296-.657l-.418.45c.285-.087.569-.295.71-.381l.009.239c.839-.704 1.862-.436 2.261-1.135-.26.532.71-.278 1.147-.266-.695.564-2.276.801-2.258 1.196.409-.018.679-.31 1.073-.331-.231.142-.561.366-.632.471 1.299-.223 1.843-.899 2.551-1.26l-1.279.555c-.023-.398.567-.272.832-.687.725-.044 1.137-.511 1.717-.585-.143.049-.14.088-.284.137 1.431-.526 2.041-.077 2.615-.266.577-.149 1.574-.711 1.136-.732.426-.26-1.876.769-1.216.016 1.01.258 1.625-.791 3.552-1.015-.724.454.563.153-.091.532.841-.329.848-.418 1.179-.697l.314.086c.5-.275.73-.655.878-.85.144-.208.255-.353.789-.896.066.034.155-.002.249.125l.336.494c-.262-.324-.151.008-.046.324.109.323.212.632.023.425q.24.447.498.829c.168.247.366.518.484.618l-.055-.044c.925 1.463.649 1.621 1.258 2.3l.017-.19c.316.306.528.611.758.997.061.101.226.096.299 0 .082-.094.045-.226.08-.337.038-.231.075-.465.101-.695q.024-.212.031-.408a2 2 0 0 1-.126.215c.03-.012.018-.197.017-.356.001-.18-.008-.209.156-.67l-.012.259-.01.136a.1.1 0 0 1-.008.043c.11.075.331-.156.453-.687l-.146-.234.177-.189c.141-.804-.301.191-.16-.613.602-.379.664-3.45 1.242-4.065-.283-.611-.316 1.513-.555.854.099-.235.188-.333.308-.851l-.256.142c.546-2.411.898-3.307 1.222-5.481l.033.096c.221-.756.251-1.179.115-1.557.133-.142.092.423.236.139-.344-1.459.89-2.642.628-3.54.197.084.455-.214.701-.495l.211-1.233a.44.44 0 0 0-.258-.404ZM17.785-1.997c.088-.9.126-1.698.049-2.214-.06.82-.068 1.561-.049 2.214m61.707-95.34a52 52 0 0 1 4.215-.187c-1.885 1.263-4.04 2.533-5.657 3.49l-1.16.695-.967.604a10 10 0 0 0-1.32.994c.01-.257-.944.131-1.842.493l-4.065 2.693a.33.33 0 0 0-.161.331l1.493 15.8a.36.36 0 0 0 .14.257.36.36 0 0 0 .5-.048l2.979-3.509L81.593-72 67.981-60.245a.34.34 0 0 0-.028.442l10.031 14.04c.13.148.355.17.503.049l3.684-3.053-.285 4.079c-.011.205-.027.414-.021.609-.019.181-.036.312-.05.414l-.207 2.961c.001.053.004.1.004.158q-.015.096-.028.193l-.251 3.589c.013.496.053.84.115.901-.089.626-.117-.078-.166-.16l-.019.259-.043 2.192c-.044.067-.079.057-.11.004l-1.188 17.029c.051.253.049 1.189.066 1.819-.495 4.376-.903 11.979-1.237 14.955l-.927 13.286c.088.684.204 1.079.344 1.086.009-1.833.025-5.497.359-6.037-.008 1.829-.155 4.981.024 5.155-.473 1.863.139-3.447-.318-.991-.081 1.28-.008 1.835.009 2.435-.082-.861-.318 1.133-.424 1.509a4.3 4.3 0 0 1-1.204 2.667 4.4 4.4 0 0 1-2.273 1.261c-.862.171-1.707.04-2.622.052l-3.015-.04-.142-.032h-2.08q-.421-.002-.817-.088a4.7 4.7 0 0 1-.924-.156c-.96-.279-1.52-.718-1.262-.297-1.082-1.014-1.263-1.864-1.394-2.542-.105-.742-.023-1.308-.087-2.39-.306 3.47.051-.68-.278-1.051-.04-2.223.159-.776.235-1.799-.036-.369-.145-1.256-.233-1.314.218-1.198.554 1.739.829 1.398V8.952l-.124.023-.004-.64.128.142V5.155c-.425.015-.923.498-1.145 1.449-.192-.168.205-2.103.226-3.077.309-2.822-.243-4.306-.121-6.655l.174 1.79c.079-.388-.023-3.845-.134-4.392.108-.088.556 1.788.686.715.057-4.219-.54-8.22-.864-7.958l.336 6.467c-.27.227-.271-4.591-.596-4.327l.048-2.977c.03-.748-.171-1.321-.598-1.851.171.18.472.594.6.949.139.345.2.597.235.266-.211-.89-.437-1.063-.491-1.215-.082-.143-.067-.269-.538-.724a3.33 3.33 0 0 1 1.447 1.464c.192.376.291.757.361 1.265l.232 1.473.142.864v-2.643c0-.846-.277-1.627-.736-2.27-.088-.082-.174-.171-.265-.238a3.23 3.23 0 0 0-1.754-.67 2.9 2.9 0 0 0-1.054.121c-2.234-.083-1.478-.65-.915-.766-2.263-.014-3.381.19-4.503.388-1.158.269-2.266.075-3.614 1.284a3 3 0 0 1 1.168-.608c-.38.138-1.226.653-1.565 1.371-.366.681-.277 1.369-.241 1.229-.175 1.002-.652 1.78-.645.746.069 1.397-.018 2.791-.206 4.189.102-.61-.45-.336-.465-.607-.414 1.572-.361 2.877.085 1.889-.35.753-.62 1.288-.887 1.685a10 10 0 0 1-.614.831c-.367.413-.664.824-1.81 1.579-.752.652.404.359.98-.177-1.584 1.781-3.161 2.214-4.276 2.362.993-.219 1.474-.572 1.692-.786.22-.223.183-.354.065-.453-.096-.075-.233-.135-.353-.197a6.2 6.2 0 0 1-2.325.568 6.9 6.9 0 0 1-5.337-1.025c.273.142 1.052.183 1.048.099-.195-.008-.82-.358-1.557-1.085a8.6 8.6 0 0 1-1.117-1.366c-.177-.277-.364-.565-.519-.919-.148-.317-.28-.646-.406-.983a22.3 22.3 0 0 1-1.095-4.29 14.6 14.6 0 0 1-.181-2.14 2.84 2.84 0 0 0-.326-1.314c.083.144.145.296.205.449.138.315.148-.277-.346-.956-.47-.699-1.536-1.194-2.17-1.164.222-.057.515.022 1.008.237a2.4 2.4 0 0 0-1.49-.377c-.515.037-.978.114-1.437.188-.921.149-1.849.291-3.286.109 2.604.039 3.116-.127 2.983-.289-1.067.074-2.837.071-4.21.11-.333.012-.686.015-.915.044-.226.02-.41.08-.542.128-.261.127-.311.219-.094.29-1.046.154-1.601 1.045-1.725.8a3.1 3.1 0 0 0-.559 1.953l.142 2.613c-.05-.391-.193-.728-.226.806.016-.735 0-1.464-.028-2.169l-.049-1.036a4.3 4.3 0 0 1 .015-.838c.148-1.05.856-1.835 1.472-2.023-.054-.148-.3-.123-.43-.154-.12-.026-.177-.185.372-.632-1.249.679-1.879 1.913-1.932 2.988.005 1.089.142 2.162.221 3.116l.576 5.392-.215 4.996.136.211-.344.869c.079.624.147 1.022.115 1.152-.031.114-.077-.043-.127-.29.017.526.047 1.004.083 1.252-.181.197-.389-.686-.576-1.629l.19-1.376c-.104-.589-.209-1.07-.302-1.07v1.89l.112.556-.064.431-.048-.501v.827l.048-.326c.226 2.394.5 5.125.732 2.987l-.203 2.91c.341 3.416.272 2.823.525 6.983-.119.228-.221-.879-.308-.132.096.758.116 1.6.097 2.446-.002.379-.034.967-.17 1.44a4.5 4.5 0 0 1-.611 1.32c-.519.776-1.208 1.265-1.764 1.562-.564.295-1.002.423-1.17.551-.689.188-1.168.184-1.372.224-.234.033-.334.07-.406.108-.143.076-.176.153-.955.201.074-.039.221-.115-.232-.12l-1.85.246c-.748-.088 1.703-.171-.383-.277l-2.436.125c-.329.016-.83.041-1.265-.032a5 5 0 0 1-1.251-.346c-1.545-.666-2.77-2.004-3.108-3.895-.128-.72-.124-1.012-.17-1.273-.034-.246-.064-.369-.091-.41-.054-.081-.095.171-.13.442-.072.543-.124 1.168-.225-.622.165-.541.371-1.021.245-3.256-.221-1.169-.366-.999-.595-2.996l.317.104C.464 7.5.304 6.023.535 5.993.298 4.485.249 3.439.243 2.644c-.36-2.801-.481 2.113-.556 2.777C-.275 2.64-.542.74-.281-.863l.253 2.44c.017-5.248-.781-4.92-.297-7.386.1 1.791.415 3.927.51 2.859l-.339-2.579c.061-.31.161 1.476.172.281-.12-.733-.384-2.235-.533-2.895l.022.033-.348-4.293c.057.539.139.567.098-.176l-.376-3.056c.143.934.171-.034.125-1.414-.182-3.956-.913-3.113-.814-6.201.025.447.068.517.093.969l.028-1.586c-.677-.287-.715-9.285-1.392-9.577.107-2.264.146-.168.657 2.697l.02-2.405c.093.969.1 1.787.236 2.821.057-3.157-.497-6.086-.786-7.773.011-1.205.557.908.211-2.5-.465-4.816-.414.948-.693-1.945l.192-2.122c-.517-3.683-.478-6.464-.653-9.589-.077-.704-.136-1.048-.184-1.218-.086-3.331-.817-6.939-.881-9.451.111.581.113-1.446.174-1.753l-.525-4.505c.229 1.994.418 1.892.632 2.245-.119-1.411-.272-2.068-.364-3.027.11.582.221 1.169.256.417l-.653-4.721c-.013.282.012.827.035 1.284-.084-1.184-.386-3.741-.345-5.447.085.145.196.723.282.863-.115 1.439.124 2.236.321 2.964-.262-3.269-.008-.819.02-2.403-.168-2.307-.492-3.236-.613-2.619-.108-2.612-.115-3.444-.497-6.092l.3.487-.254-2.441.46 1.961c-.073-2.351-.202-2.559-.338-2.832-.069-.136-.139-.288-.206-.733a13 13 0 0 1-.097-.921c-.012-.222-.037-.383-.038-.736a4.4 4.4 0 0 1 .119-1.109l.231.031c.228-1.203.696-1.974 1.228-2.568.55-.568 1.248-.995 2.253-1.048 1.22-.201.168-.234-.511-.109-.333.058-.559.128-.341.012.109-.059.336-.144.731-.24.379-.095 1.042-.127 1.546-.123.808.12 2.548.208 3.865.255 1.285-.093-.544-.235-1.644-.246 6.379-.066 4.018.792 10.065.492-2.119-.167 1.767-.45-3.243-.443 2.119-.122 4.177.236 6.354.144l.675-.029-.675.124-.776.141c.255.002.519-.005.776-.018l2.503-.122.201-.211.862-.037-2.872 2.284q-.33.262-.65.549l.594-.625.643-.676-.715.576c-.51.41-.972.824-1.239 1.05l.03-.305-.474.432c-.156.137-.346.294-.382.334-.069.069-.147.122-.207.192-.052.082-.022.183-.032.271l-.052 1.257c-.021.465-.037.911-.039 1.334-.004.847.051 1.607.256 2.254-.45-1.247.077 2.269.017 3.479-.498-2.487-.184-7.182-.531-7.521-.141 1.172.042 2.219-.053 3.351-.071-.789-.169-1.943-.241-2.246a25.5 25.5 0 0 0 .13 4.791c.157 1.361.37 2.261.551 4.117l-.226-2.563-.151-2.066c.198.16.233.624.269 1.191.02.283.036.592.075.902q.029.233.075.461l.123.517.03 1.147.023.544.013.268.008.133c.009.049.01.092-.051.089l-1.983.5-.242.063-.088.027-.131.043-.251.077a3 3 0 0 1-.563.102c.192-.043.156-.073.36-.119-.305.073-.594.128-.901.175-.153.033-.312.026-.472.088-.151.076-.192.258-.124.317.25.207.457.418.712.64.32.279.72.574 1.249.828 1.565.793 4.713 2.048 3.674 1.379 1.363.525-5.515-2.475-2.952-1.814 1.053.813 2.284 1.335 3.871 1.999.794.332 1.677.7 2.671 1.158q.744.342 1.577.761l.856.444.446.24c.175.094.185.111.292.175l-.21-.058-.246-.077c-.131-.036-.193-.041-.208-.025-.031.032.124.148.288.266.146.11.243.196.257.242.001.02-.028.026-.11.008a3.6 3.6 0 0 1-.492-.17l.975.427c.128.058.252-.018.326-.092l.218-.184c.228-.198.465-.407.672-.604l.672-.65.762-.334c2.615-2.398.461-.774 4.65-4.086-1.365 1.165 1.885-1.051.856-.146.601-.43 1.186-.869 1.722-1.29.31-.241.435-.353.569-.475q.203-.184.339-.334l-.06.076.835-.629c.112-.096.254-.15.322-.265.064-.118 0-.267-.105-.287l-.993-.215a5 5 0 0 0-.422-.092l-2.087-.297-.164-2.159c-.027.18-.049.455-.072.693l-.319-3.899-.331-5.422 8.046 2.536c2.195.693 4.348 1.365 6.369 1.961l-2.026-.727c.456.153 1.404.417 2.472.73l1.909.583.289.097.147.059c.097.027.194.121.295.104-.133.045-.389-.041-.533-.085-.006.061.054.158.245.285.096.057.22.147.385.195.19.008.229-.217.344-.389l.014-.026c.005-.153-.009-.267-.013-.401l.409-.522c1.058-2.203-.548.533.51-1.671.233-.226.577-.787.987-1.547l.658-1.271.952-1.943 5.083.032c1.404.027 2.581.084 3.184.218 1.662-.383-4.624-.056-2.801-.402.744.057 1.078.129 2.667.159l-.547-.228c7.394.13 10.215.325 16.797.277l-.265.049.83.027.997.015c.634.005 1.194.002 1.716-.01a36 36 0 0 0 2.904-.183c.453.108-1.996.162-.908.257" clip-path="url(#S)" style="fill:#00923b;fill-opacity:1;fill-rule:nonzero;stroke:none" transform="matrix(.35278 0 0 -.35278 2.262 7.686)"></path><path d="M0 0a7 7 0 0 1-.031-.382Z" clip-path="url(#T)" style="fill:#00923b;fill-opacity:1;fill-rule:nonzero;stroke:none" transform="matrix(.35278 0 0 -.35278 1.965 12.062)"></path><path d="m0 0-.408.003C-.293-.001-.153-.002 0 0" clip-path="url(#U)" style="fill:#00923b;fill-opacity:1;fill-rule:nonzero;stroke:none" transform="matrix(.35278 0 0 -.35278 2.638 42.288)"></path><path d="M0 0c.044-.046.087-.1.126-.297C.084.279.039.273 0 0" clip-path="url(#V)" style="fill:#00923b;fill-opacity:1;fill-rule:nonzero;stroke:none" transform="matrix(.35278 0 0 -.35278 8.62 6.89)"></path><path d="M0 0a.3.3 0 0 1 .05.106l.005.109Z" clip-path="url(#W)" style="fill:#00923b;fill-opacity:1;fill-rule:nonzero;stroke:none" transform="matrix(.35278 0 0 -.35278 .805 27.295)"></path><path d="M0 0c-.044.245-.087.615-.12 1.276C-.105.265-.057-.036 0 0" clip-path="url(#X)" style="fill:#00923b;fill-opacity:1;fill-rule:nonzero;stroke:none" transform="matrix(.35278 0 0 -.35278 24.036 3.824)"></path><path d="m0 0-.229 2.299.131-1.623Z" clip-path="url(#Y)" style="fill:#00923b;fill-opacity:1;fill-rule:nonzero;stroke:none" transform="matrix(.35278 0 0 -.35278 30.719 16.917)"></path><path d="m0 0 .033 1.191-.294-.096C-.154.717-.097.676 0 0" clip-path="url(#Z)" style="fill:#00923b;fill-opacity:1;fill-rule:nonzero;stroke:none" transform="matrix(.35278 0 0 -.35278 30.223 7.966)"></path><path d="M0 0c-.203 3.182-.122-.221-.187-.477C.042-2.779-.065-.26 0 0" clip-path="url(#aa)" style="fill:#00923b;fill-opacity:1;fill-rule:nonzero;stroke:none" transform="matrix(.35278 0 0 -.35278 30.134 5.214)"></path><path d="M0 0c-2.694-.147-.421.274-3.402.156-.826-.323.118-.254 1.918-.376C-2.202-.12.7-.116 0 0" clip-path="url(#ab)" style="fill:#00923b;fill-opacity:1;fill-rule:nonzero;stroke:none" transform="matrix(.35278 0 0 -.35278 22.397 13.594)"></path><path d="M0 0c.152-.021.397-.044.918-.075z" clip-path="url(#ac)" style="fill:#00923b;fill-opacity:1;fill-rule:nonzero;stroke:none" transform="matrix(.35278 0 0 -.35278 21.874 13.671)"></path><path d="m0 0-.085-.14.071-1.507C.036-.75.061-.302 0 0" clip-path="url(#ad)" style="fill:#00923b;fill-opacity:1;fill-rule:nonzero;stroke:none" transform="matrix(.35278 0 0 -.35278 2.286 4.838)"></path><path d="m0 0-.025-.447.249-.407Z" clip-path="url(#ae)" style="fill:#00923b;fill-opacity:1;fill-rule:nonzero;stroke:none" transform="matrix(.35278 0 0 -.35278 1.708 13.887)"></path><path d="m0 0-.236-2.823c.335-.264.05.89.236 2.823" clip-path="url(#af)" style="fill:#00923b;fill-opacity:1;fill-rule:nonzero;stroke:none" transform="matrix(.35278 0 0 -.35278 1.12 20.72)"></path></svg>