<svg xmlns:xlink="http://www.w3.org/1999/xlink" xmlns="http://www.w3.org/2000/svg" xmlns:svg="http://www.w3.org/2000/svg" width="677.33331mm" height="554.94519mm" viewBox="0 0 677.33331 554.94519" id="svg1"><defs id="defs1"><pattern xlink:href="#pattern79" id="pattern1" patternTransform="matrix(1.17538,0,0,1.17538,1625.233,-1778.4026)"></pattern><pattern patternTransform="matrix(1.17538,0,0,1.17538,2012.29,-1698.07)" patternUnits="userSpaceOnUse" x="0" y="0" width="119.055" height="178.52" id="pattern79"><path d="m 0,0 c 15.347,15.347 61.521,17.861 61.521,17.861 0,0 -2.514,-46.174 -17.861,-61.521 C 34.178,-53.141 20.066,-55.126 8.6,-49.702 11.599,-33.34 20.154,-18.919 32.37,-8.6 17.949,-16.053 6.395,-28.577 -0.088,-43.572 -12.04,-31.532 -12.04,-12.04 0,0 Z" style="fill:#003627;fill-opacity:1;fill-rule:nonzero;stroke:none" transform="translate(-26.2401,195.9268)" id="path75"></path><path d="m 0,0 c 15.347,15.347 61.521,17.861 61.521,17.861 0,0 -2.514,-46.174 -17.861,-61.521 C 34.178,-53.141 20.066,-55.126 8.6,-49.702 11.599,-33.34 20.154,-18.919 32.37,-8.6 17.949,-16.053 6.395,-28.577 -0.088,-43.572 -12.04,-31.532 -12.04,-12.04 0,0" style="fill:#003627;fill-opacity:1;fill-rule:nonzero;stroke:none" transform="translate(92.815,195.9268)" id="path76"></path><path d="m 0,0 c 15.347,15.347 61.521,17.861 61.521,17.861 0,0 -2.514,-46.174 -17.861,-61.521 C 34.178,-53.141 20.066,-55.126 8.6,-49.702 11.599,-33.34 20.154,-18.919 32.37,-8.6 17.949,-16.053 6.395,-28.577 -0.088,-43.572 -12.04,-31.532 -12.04,-12.04 0,0" style="fill:#003627;fill-opacity:1;fill-rule:nonzero;stroke:none" transform="translate(33.2875,106.6665)" id="path77"></path><path d="m 0,0 c 15.347,15.347 61.521,17.861 61.521,17.861 0,0 -2.514,-46.174 -17.861,-61.521 C 34.178,-53.141 20.066,-55.126 8.6,-49.702 11.599,-33.34 20.154,-18.919 32.37,-8.6 17.949,-16.053 6.395,-28.577 -0.088,-43.572 -12.04,-31.532 -12.04,-12.04 0,0 Z" style="fill:#003627;fill-opacity:1;fill-rule:nonzero;stroke:none" transform="translate(-26.2401,17.4063)" id="path78"></path><path d="m 0,0 c 15.347,15.347 61.521,17.861 61.521,17.861 0,0 -2.514,-46.174 -17.861,-61.521 C 34.178,-53.141 20.066,-55.126 8.6,-49.702 11.599,-33.34 20.154,-18.919 32.37,-8.6 17.949,-16.053 6.395,-28.577 -0.088,-43.572 -12.04,-31.532 -12.04,-12.04 0,0 Z" style="fill:#003627;fill-opacity:1;fill-rule:nonzero;stroke:none" transform="translate(92.815,17.4063)" id="path79"></path></pattern><clipPath clipPathUnits="userSpaceOnUse" id="clipPath708"><g id="g709" transform="matrix(0.75000002,0,0,-0.75000002,-410.88369,5565.2161)"><path d="M 547.84491,-761.76514 H 3107.8448 V 7420.288 H 547.84491 Z" id="path708" style="stroke-width:1.33333"></path></g></clipPath></defs><g id="layer1" transform="translate(242.62292,321.73334)"><path d="M 1945.156,682.81 H -86.73 v 1573.073 h 2031.886 z" style="opacity:0.149994;fill:url(#pattern1);fill-opacity:1;fill-rule:nonzero;stroke:none" transform="matrix(0.35277776,0,0,-0.35277776,-242.62292,474.09201)" clip-path="url(#clipPath708)" id="path81"></path></g></svg>