<svg xmlns="http://www.w3.org/2000/svg" xmlns:svg="http://www.w3.org/2000/svg" width="256.5033mm" height="258.56323mm" viewBox="0 0 256.5033 258.56324" id="svg1"><defs id="defs1"><clipPath clipPathUnits="userSpaceOnUse" id="clipPath4049"><path d="m 962.506,3545.313 c -9.961,0 -18.037,-8.074 -18.037,-18.035 v 0 -467.84 c 0,-9.96 8.076,-18.036 18.037,-18.036 v 0 h 888.929 c 9.961,0 18.035,8.076 18.035,18.036 v 0 467.84 c 0,9.961 -8.074,18.035 -18.035,18.035 v 0 z" transform="translate(-1531.005,-3430.7999)" id="path4049"></path></clipPath><clipPath clipPathUnits="userSpaceOnUse" id="clipPath266"><path d="M 0,4034.815 H 1920 V 0 H 0 Z" transform="translate(-1815.9426,-3274.7755)" id="path266"></path></clipPath><clipPath clipPathUnits="userSpaceOnUse" id="clipPath4051"><path d="m 962.506,3545.313 c -9.961,0 -18.037,-8.074 -18.037,-18.035 v 0 -467.84 c 0,-9.96 8.076,-18.036 18.037,-18.036 v 0 h 888.929 c 9.961,0 18.035,8.076 18.035,18.036 v 0 467.84 c 0,9.961 -8.074,18.035 -18.035,18.035 v 0 z" transform="translate(-1803.5035,-3273.1302)" id="path4051"></path></clipPath><clipPath clipPathUnits="userSpaceOnUse" id="clipPath4049-2"><path d="m 962.506,3545.313 c -9.961,0 -18.037,-8.074 -18.037,-18.035 v 0 -467.84 c 0,-9.96 8.076,-18.036 18.037,-18.036 v 0 h 888.929 c 9.961,0 18.035,8.076 18.035,18.036 v 0 467.84 c 0,9.961 -8.074,18.035 -18.035,18.035 v 0 z" transform="translate(-1531.005,-3430.7999)" id="path4049-3"></path></clipPath><clipPath clipPathUnits="userSpaceOnUse" id="clipPath3924"><path d="M 0,4034.815 H 1920 V 0 H 0 Z" transform="matrix(1.3333333,0,0,-1.3333333,0,5379.76)" id="path3924"></path></clipPath><clipPath clipPathUnits="userSpaceOnUse" id="clipPath3904"><path d="m 993.205,3112.539 h 509.784 v -32.904 H 993.205 Z" transform="translate(-1010.8464,-3101.1957)" id="path3904"></path></clipPath><clipPath clipPathUnits="userSpaceOnUse" id="clipPath3905"><path d="m 993.205,3112.539 h 509.784 v -32.904 H 993.205 Z" transform="translate(-1063.2801,-3101.1957)" id="path3905"></path></clipPath><clipPath clipPathUnits="userSpaceOnUse" id="clipPath3906"><path d="m 993.205,3112.539 h 509.784 v -32.904 H 993.205 Z" transform="translate(-1115.7139,-3101.1957)" id="path3906"></path></clipPath><clipPath clipPathUnits="userSpaceOnUse" id="clipPath3907"><path d="m 993.205,3112.539 h 509.784 v -32.904 H 993.205 Z" transform="translate(-1168.1478,-3101.1957)" id="path3907"></path></clipPath><clipPath clipPathUnits="userSpaceOnUse" id="clipPath3908"><path d="m 993.205,3112.539 h 509.784 v -32.904 H 993.205 Z" transform="translate(-1220.5815,-3101.1957)" id="path3908"></path></clipPath><clipPath clipPathUnits="userSpaceOnUse" id="clipPath3909"><path d="m 993.205,3112.539 h 509.784 v -32.904 H 993.205 Z" transform="translate(-1273.0155,-3101.1957)" id="path3909"></path></clipPath><clipPath clipPathUnits="userSpaceOnUse" id="clipPath3910"><path d="m 993.205,3112.539 h 509.784 v -32.904 H 993.205 Z" transform="translate(-1325.4492,-3101.1957)" id="path3910"></path></clipPath><clipPath clipPathUnits="userSpaceOnUse" id="clipPath3911"><path d="m 993.205,3112.539 h 509.784 v -32.904 H 993.205 Z" transform="translate(-1377.8832,-3101.1957)" id="path3911"></path></clipPath><clipPath clipPathUnits="userSpaceOnUse" id="clipPath3912"><path d="m 993.205,3112.539 h 509.784 v -32.904 H 993.205 Z" transform="translate(-1430.3169,-3101.1957)" id="path3912"></path></clipPath><clipPath clipPathUnits="userSpaceOnUse" id="clipPath3913"><path d="m 993.205,3112.539 h 509.784 v -32.904 H 993.205 Z" transform="translate(-1482.7507,-3101.1957)" id="path3913"></path></clipPath><clipPath clipPathUnits="userSpaceOnUse" id="clipPath4047"><path d="M 0,4034.815 H 1920 V 0 H 0 Z" transform="matrix(1.3333333,0,0,-1.3333333,0,5379.76)" id="path4047"></path></clipPath><clipPath clipPathUnits="userSpaceOnUse" id="clipPath3927"><path d="M 65.547,2141.23 H 189.61 V 1303.406 H 65.547 Z" transform="translate(-84.379202,-2129.1205)" id="path3927"></path></clipPath><clipPath clipPathUnits="userSpaceOnUse" id="clipPath3928"><path d="M 65.547,2141.23 H 189.61 V 1303.406 H 65.547 Z" transform="translate(-126.64731,-2129.1205)" id="path3928"></path></clipPath><clipPath clipPathUnits="userSpaceOnUse" id="clipPath3929"><path d="M 65.547,2141.23 H 189.61 V 1303.406 H 65.547 Z" transform="translate(-168.91551,-2129.1205)" id="path3929"></path></clipPath><clipPath clipPathUnits="userSpaceOnUse" id="clipPath3930"><path d="M 65.547,2141.23 H 189.61 V 1303.406 H 65.547 Z" transform="translate(-84.379202,-2086.8873)" id="path3930"></path></clipPath><clipPath clipPathUnits="userSpaceOnUse" id="clipPath3931"><path d="M 65.547,2141.23 H 189.61 V 1303.406 H 65.547 Z" transform="translate(-126.64731,-2086.8873)" id="path3931"></path></clipPath><clipPath clipPathUnits="userSpaceOnUse" id="clipPath3932"><path d="M 65.547,2141.23 H 189.61 V 1303.406 H 65.547 Z" transform="translate(-168.91551,-2086.8873)" id="path3932"></path></clipPath><clipPath clipPathUnits="userSpaceOnUse" id="clipPath3933"><path d="M 65.547,2141.23 H 189.61 V 1303.406 H 65.547 Z" transform="translate(-84.379202,-2044.6543)" id="path3933"></path></clipPath><clipPath clipPathUnits="userSpaceOnUse" id="clipPath3934"><path d="M 65.547,2141.23 H 189.61 V 1303.406 H 65.547 Z" transform="translate(-126.64731,-2044.6543)" id="path3934"></path></clipPath><clipPath clipPathUnits="userSpaceOnUse" id="clipPath3935"><path d="M 65.547,2141.23 H 189.61 V 1303.406 H 65.547 Z" transform="translate(-168.91551,-2044.6543)" id="path3935"></path></clipPath><clipPath clipPathUnits="userSpaceOnUse" id="clipPath3936"><path d="M 65.547,2141.23 H 189.61 V 1303.406 H 65.547 Z" transform="translate(-84.379202,-2002.4214)" id="path3936"></path></clipPath><clipPath clipPathUnits="userSpaceOnUse" id="clipPath3937"><path d="M 65.547,2141.23 H 189.61 V 1303.406 H 65.547 Z" transform="translate(-126.64731,-2002.4214)" id="path3937"></path></clipPath><clipPath clipPathUnits="userSpaceOnUse" id="clipPath3938"><path d="M 65.547,2141.23 H 189.61 V 1303.406 H 65.547 Z" transform="translate(-168.91551,-2002.4214)" id="path3938"></path></clipPath><clipPath clipPathUnits="userSpaceOnUse" id="clipPath3939"><path d="M 65.547,2141.23 H 189.61 V 1303.406 H 65.547 Z" transform="translate(-84.379202,-1960.1881)" id="path3939"></path></clipPath><clipPath clipPathUnits="userSpaceOnUse" id="clipPath3940"><path d="M 65.547,2141.23 H 189.61 V 1303.406 H 65.547 Z" transform="translate(-126.64731,-1960.1881)" id="path3940"></path></clipPath><clipPath clipPathUnits="userSpaceOnUse" id="clipPath3941"><path d="M 65.547,2141.23 H 189.61 V 1303.406 H 65.547 Z" transform="translate(-168.91551,-1960.1881)" id="path3941"></path></clipPath><clipPath clipPathUnits="userSpaceOnUse" id="clipPath3942"><path d="M 65.547,2141.23 H 189.61 V 1303.406 H 65.547 Z" transform="translate(-84.379202,-1917.9552)" id="path3942"></path></clipPath><clipPath clipPathUnits="userSpaceOnUse" id="clipPath3943"><path d="M 65.547,2141.23 H 189.61 V 1303.406 H 65.547 Z" transform="translate(-126.64731,-1917.9552)" id="path3943"></path></clipPath><clipPath clipPathUnits="userSpaceOnUse" id="clipPath3944"><path d="M 65.547,2141.23 H 189.61 V 1303.406 H 65.547 Z" transform="translate(-168.91551,-1917.9552)" id="path3944"></path></clipPath><clipPath clipPathUnits="userSpaceOnUse" id="clipPath3945"><path d="M 65.547,2141.23 H 189.61 V 1303.406 H 65.547 Z" transform="translate(-84.379202,-1875.7221)" id="path3945"></path></clipPath><clipPath clipPathUnits="userSpaceOnUse" id="clipPath3946"><path d="M 65.547,2141.23 H 189.61 V 1303.406 H 65.547 Z" transform="translate(-126.64731,-1875.7221)" id="path3946"></path></clipPath><clipPath clipPathUnits="userSpaceOnUse" id="clipPath3947"><path d="M 65.547,2141.23 H 189.61 V 1303.406 H 65.547 Z" transform="translate(-168.91551,-1875.7221)" id="path3947"></path></clipPath><clipPath clipPathUnits="userSpaceOnUse" id="clipPath3948"><path d="M 65.547,2141.23 H 189.61 V 1303.406 H 65.547 Z" transform="translate(-84.379202,-1833.489)" id="path3948"></path></clipPath><clipPath clipPathUnits="userSpaceOnUse" id="clipPath3949"><path d="M 65.547,2141.23 H 189.61 V 1303.406 H 65.547 Z" transform="translate(-126.64731,-1833.489)" id="path3949"></path></clipPath><clipPath clipPathUnits="userSpaceOnUse" id="clipPath3950"><path d="M 65.547,2141.23 H 189.61 V 1303.406 H 65.547 Z" transform="translate(-168.91551,-1833.489)" id="path3950"></path></clipPath><clipPath clipPathUnits="userSpaceOnUse" id="clipPath3951"><path d="M 65.547,2141.23 H 189.61 V 1303.406 H 65.547 Z" transform="translate(-84.379202,-1791.256)" id="path3951"></path></clipPath><clipPath clipPathUnits="userSpaceOnUse" id="clipPath3952"><path d="M 65.547,2141.23 H 189.61 V 1303.406 H 65.547 Z" transform="translate(-126.64731,-1791.256)" id="path3952"></path></clipPath><clipPath clipPathUnits="userSpaceOnUse" id="clipPath3953"><path d="M 65.547,2141.23 H 189.61 V 1303.406 H 65.547 Z" transform="translate(-168.91551,-1791.256)" id="path3953"></path></clipPath><clipPath clipPathUnits="userSpaceOnUse" id="clipPath3954"><path d="M 65.547,2141.23 H 189.61 V 1303.406 H 65.547 Z" transform="translate(-84.379202,-1749.0229)" id="path3954"></path></clipPath><clipPath clipPathUnits="userSpaceOnUse" id="clipPath3955"><path d="M 65.547,2141.23 H 189.61 V 1303.406 H 65.547 Z" transform="translate(-126.64731,-1749.0229)" id="path3955"></path></clipPath><clipPath clipPathUnits="userSpaceOnUse" id="clipPath3956"><path d="M 65.547,2141.23 H 189.61 V 1303.406 H 65.547 Z" transform="translate(-168.91551,-1749.0229)" id="path3956"></path></clipPath><clipPath clipPathUnits="userSpaceOnUse" id="clipPath3957"><path d="M 65.547,2141.23 H 189.61 V 1303.406 H 65.547 Z" transform="translate(-84.379202,-1706.79)" id="path3957"></path></clipPath><clipPath clipPathUnits="userSpaceOnUse" id="clipPath3958"><path d="M 65.547,2141.23 H 189.61 V 1303.406 H 65.547 Z" transform="translate(-126.64731,-1706.79)" id="path3958"></path></clipPath><clipPath clipPathUnits="userSpaceOnUse" id="clipPath3959"><path d="M 65.547,2141.23 H 189.61 V 1303.406 H 65.547 Z" transform="translate(-168.91551,-1706.79)" id="path3959"></path></clipPath><clipPath clipPathUnits="userSpaceOnUse" id="clipPath3960"><path d="M 65.547,2141.23 H 189.61 V 1303.406 H 65.547 Z" transform="translate(-84.379202,-1664.5569)" id="path3960"></path></clipPath><clipPath clipPathUnits="userSpaceOnUse" id="clipPath3961"><path d="M 65.547,2141.23 H 189.61 V 1303.406 H 65.547 Z" transform="translate(-126.64731,-1664.5569)" id="path3961"></path></clipPath><clipPath clipPathUnits="userSpaceOnUse" id="clipPath3962"><path d="M 65.547,2141.23 H 189.61 V 1303.406 H 65.547 Z" transform="translate(-168.91551,-1664.5569)" id="path3962"></path></clipPath><clipPath clipPathUnits="userSpaceOnUse" id="clipPath3963"><path d="M 65.547,2141.23 H 189.61 V 1303.406 H 65.547 Z" transform="translate(-84.379202,-1622.3238)" id="path3963"></path></clipPath><clipPath clipPathUnits="userSpaceOnUse" id="clipPath3964"><path d="M 65.547,2141.23 H 189.61 V 1303.406 H 65.547 Z" transform="translate(-126.64731,-1622.3238)" id="path3964"></path></clipPath><clipPath clipPathUnits="userSpaceOnUse" id="clipPath3965"><path d="M 65.547,2141.23 H 189.61 V 1303.406 H 65.547 Z" transform="translate(-168.91551,-1622.3238)" id="path3965"></path></clipPath><clipPath clipPathUnits="userSpaceOnUse" id="clipPath3966"><path d="M 65.547,2141.23 H 189.61 V 1303.406 H 65.547 Z" transform="translate(-84.379202,-1580.0907)" id="path3966"></path></clipPath><clipPath clipPathUnits="userSpaceOnUse" id="clipPath3967"><path d="M 65.547,2141.23 H 189.61 V 1303.406 H 65.547 Z" transform="translate(-126.64731,-1580.0907)" id="path3967"></path></clipPath><clipPath clipPathUnits="userSpaceOnUse" id="clipPath3968"><path d="M 65.547,2141.23 H 189.61 V 1303.406 H 65.547 Z" transform="translate(-168.91551,-1580.0907)" id="path3968"></path></clipPath><clipPath clipPathUnits="userSpaceOnUse" id="clipPath3969"><path d="M 65.547,2141.23 H 189.61 V 1303.406 H 65.547 Z" transform="translate(-84.379202,-1537.8577)" id="path3969"></path></clipPath><clipPath clipPathUnits="userSpaceOnUse" id="clipPath3970"><path d="M 65.547,2141.23 H 189.61 V 1303.406 H 65.547 Z" transform="translate(-126.64731,-1537.8577)" id="path3970"></path></clipPath><clipPath clipPathUnits="userSpaceOnUse" id="clipPath3971"><path d="M 65.547,2141.23 H 189.61 V 1303.406 H 65.547 Z" transform="translate(-168.91551,-1537.8577)" id="path3971"></path></clipPath><clipPath clipPathUnits="userSpaceOnUse" id="clipPath3972"><path d="M 65.547,2141.23 H 189.61 V 1303.406 H 65.547 Z" transform="translate(-84.379202,-1495.6246)" id="path3972"></path></clipPath><clipPath clipPathUnits="userSpaceOnUse" id="clipPath3973"><path d="M 65.547,2141.23 H 189.61 V 1303.406 H 65.547 Z" transform="translate(-126.64731,-1495.6246)" id="path3973"></path></clipPath><clipPath clipPathUnits="userSpaceOnUse" id="clipPath3974"><path d="M 65.547,2141.23 H 189.61 V 1303.406 H 65.547 Z" transform="translate(-168.91551,-1495.6246)" id="path3974"></path></clipPath><clipPath clipPathUnits="userSpaceOnUse" id="clipPath3975"><path d="M 65.547,2141.23 H 189.61 V 1303.406 H 65.547 Z" transform="translate(-84.379202,-1453.3917)" id="path3975"></path></clipPath><clipPath clipPathUnits="userSpaceOnUse" id="clipPath3976"><path d="M 65.547,2141.23 H 189.61 V 1303.406 H 65.547 Z" transform="translate(-126.64731,-1453.3917)" id="path3976"></path></clipPath><clipPath clipPathUnits="userSpaceOnUse" id="clipPath3977"><path d="M 65.547,2141.23 H 189.61 V 1303.406 H 65.547 Z" transform="translate(-168.91551,-1453.3917)" id="path3977"></path></clipPath><clipPath clipPathUnits="userSpaceOnUse" id="clipPath3978"><path d="M 65.547,2141.23 H 189.61 V 1303.406 H 65.547 Z" transform="translate(-84.379202,-1411.1586)" id="path3978"></path></clipPath><clipPath clipPathUnits="userSpaceOnUse" id="clipPath3979"><path d="M 65.547,2141.23 H 189.61 V 1303.406 H 65.547 Z" transform="translate(-126.64731,-1411.1586)" id="path3979"></path></clipPath><clipPath clipPathUnits="userSpaceOnUse" id="clipPath3980"><path d="M 65.547,2141.23 H 189.61 V 1303.406 H 65.547 Z" transform="translate(-168.91551,-1411.1586)" id="path3980"></path></clipPath><clipPath clipPathUnits="userSpaceOnUse" id="clipPath3981"><path d="M 65.547,2141.23 H 189.61 V 1303.406 H 65.547 Z" transform="translate(-84.379202,-1368.9255)" id="path3981"></path></clipPath><clipPath clipPathUnits="userSpaceOnUse" id="clipPath3982"><path d="M 65.547,2141.23 H 189.61 V 1303.406 H 65.547 Z" transform="translate(-126.64731,-1368.9255)" id="path3982"></path></clipPath><clipPath clipPathUnits="userSpaceOnUse" id="clipPath3983"><path d="M 65.547,2141.23 H 189.61 V 1303.406 H 65.547 Z" transform="translate(-168.91551,-1368.9255)" id="path3983"></path></clipPath><clipPath clipPathUnits="userSpaceOnUse" id="clipPath3984"><path d="M 65.547,2141.23 H 189.61 V 1303.406 H 65.547 Z" transform="translate(-84.379202,-1326.6924)" id="path3984"></path></clipPath><clipPath clipPathUnits="userSpaceOnUse" id="clipPath3985"><path d="M 65.547,2141.23 H 189.61 V 1303.406 H 65.547 Z" transform="translate(-126.64731,-1326.6924)" id="path3985"></path></clipPath><clipPath clipPathUnits="userSpaceOnUse" id="clipPath3986"><path d="M 65.547,2141.23 H 189.61 V 1303.406 H 65.547 Z" transform="translate(-168.91551,-1326.6924)" id="path3986"></path></clipPath><clipPath clipPathUnits="userSpaceOnUse" id="clipPath94"><path d="M 0,4034.815 H 1920 V 0 H 0 Z" transform="translate(-150.3795,-2808.9078)" id="path94"></path></clipPath><clipPath clipPathUnits="userSpaceOnUse" id="clipPath96"><path d="M 0,4034.815 H 1920 V 0 H 0 Z" transform="translate(-548.75002,-2578.4076)" id="path96"></path></clipPath></defs><g id="layer1" transform="translate(160.60209,47.360428)"><path id="path93" d="m 0,0 c -0.204,-0.333 -0.362,-0.706 -0.618,-0.993 -22.065,-24.775 -35.545,-54.085 -44.959,-85.491 -6.728,-22.447 -10.736,-45.419 -12.811,-68.756 -1.209,-13.599 -1.875,-27.205 -1.919,-40.856 -0.131,-40.681 10.133,-78.691 29.766,-114.15 29.287,-52.894 72.082,-91.974 124.851,-120.583 31.506,-17.081 65.019,-28.562 100.352,-34.547 23.591,-3.996 47.365,-5.253 71.245,-3.407 107.74,8.332 197.796,75.494 236.194,170.028 9.175,22.588 15.118,45.986 17.895,70.228 1.937,16.917 2.522,33.848 1.067,50.797 -3.568,41.577 -16.936,79.815 -40.355,114.335 -37.171,54.79 -88.225,91.158 -150.677,111.959 -28.92,9.632 -58.732,14.358 -89.219,13.888 C 177.724,61.479 120.152,43.672 69.493,5.325 59.125,-2.523 49.392,-11.108 40.783,-20.889 c -1.307,-1.485 -2.037,-1.724 -3.592,-0.219 -22.64,21.914 -45.337,43.77 -68.066,65.593 -1.369,1.314 -1.34,1.994 -0.027,3.389 47.966,50.934 105.497,85.676 173.531,102.677 20.987,5.244 42.265,8.659 63.828,10.482 19.377,1.637 38.776,2.161 58.168,1.037 37.814,-2.191 74.591,-9.805 110.248,-22.558 64.662,-23.128 120.907,-59.078 166.601,-110.71 41.345,-46.719 67.857,-100.814 79.167,-162.22 5.346,-29.028 6.603,-58.316 4.888,-87.77 -3.987,-68.502 -24.446,-131.429 -63.906,-187.79 -39.058,-55.785 -90.462,-96.699 -152.263,-124.799 -32.74,-14.886 -66.971,-24.923 -102.471,-30.53 -29.231,-4.617 -58.664,-6.133 -88.195,-4.031 -124.106,8.834 -231.639,81.237 -285.331,189.318 -15.185,30.569 -25.22,62.772 -30.072,96.603 -3.943,27.495 -3.928,55.007 -1.317,82.597 4.159,43.944 15.628,85.728 36.682,124.676 14.414,26.666 32.494,50.509 55.234,70.686 1.865,1.656 3.811,3.22 5.719,4.827 C -0.261,0.246 -0.13,0.123 0,0 Z" style="fill:none;stroke:#47883f;stroke-width:1;stroke-linecap:butt;stroke-linejoin:miter;stroke-miterlimit:10;stroke-dasharray:none;stroke-opacity:1" transform="matrix(0.35277776,0,0,-0.35277776,-125.20096,10.201673)" clip-path="url(#clipPath94)"></path><path id="path95" d="m 0,0 c 0.106,-16.105 -3.405,-31.568 -10.292,-45.951 -24.866,-51.929 -64.928,-85.408 -121.996,-96.034 -75.397,-14.039 -148.174,25.909 -179.491,97.156 -11.735,26.699 -16.922,54.593 -14.581,83.606 3.462,42.895 21.61,79.062 52.008,109.23 24.343,24.157 52.928,40.764 86.748,47.602 37.811,7.645 74.344,2.818 109.432,-12.679 44.371,-19.597 76.389,-51.665 95.07,-96.588 C 26.428,63.423 29.668,39.44 27.469,14.727 27.254,12.314 28.193,9.325 26.528,7.635 24.775,5.856 21.904,7.459 19.554,7.566 7.372,8.118 -4.795,8.983 -16.977,9.533 c -3.596,0.163 -2.762,2.45 -2.572,4.392 1.947,19.883 -1.484,38.981 -9.564,57.047 -18.702,41.814 -50.977,67.402 -95.576,76.892 -33.459,7.119 -65.494,2.489 -94.322,-16.6 -31.821,-21.072 -51.3,-50.765 -57.183,-88.643 -8.582,-55.251 19.431,-104.538 65.337,-130.654 22.486,-12.793 46.685,-19.782 72.496,-20.365 35.72,-0.806 67.032,10.312 92.962,35.577 16.188,15.773 30.414,32.867 39.363,53.874 C -3.431,-12.829 -1.48,-6.506 0,0 Z" style="fill:none;stroke:#47883f;stroke-width:1;stroke-linecap:butt;stroke-linejoin:miter;stroke-miterlimit:10;stroke-dasharray:none;stroke-opacity:1" transform="matrix(0.35277776,0,0,-0.35277776,15.335294,91.51702)" clip-path="url(#clipPath96)"></path></g></svg>