<svg xmlns="http://www.w3.org/2000/svg" width="52.396" height="139.602" viewBox="0 0 13.863 36.936"><defs><clipPath id="a" clipPathUnits="userSpaceOnUse"><path d="M-204.479 1202.429h1920v-4034.815h-1920Z"></path></clipPath><clipPath id="b" clipPathUnits="userSpaceOnUse"><path d="M-203.635 1202.791h1920v-4034.815h-1920Z"></path></clipPath><clipPath id="c" clipPathUnits="userSpaceOnUse"><path d="M-203.854 1202.334h1920v-4034.815h-1920Z"></path></clipPath><clipPath id="d" clipPathUnits="userSpaceOnUse"><path d="M-202.814 1202.73h1920v-4034.816h-1920Z"></path></clipPath><clipPath id="e" clipPathUnits="userSpaceOnUse"><path d="M-182.385 1196.955h1920V-2837.86h-1920Z"></path></clipPath><clipPath id="f" clipPathUnits="userSpaceOnUse"><path d="M-186.288 1192.342h1920v-4034.815h-1920Z"></path></clipPath><clipPath id="g" clipPathUnits="userSpaceOnUse"><path d="M-200.396 1191.922h1920v-4034.815h-1920Z"></path></clipPath><clipPath id="h" clipPathUnits="userSpaceOnUse"><path d="M-195.216 1198.554h1920v-4034.815h-1920Z"></path></clipPath><clipPath id="i" clipPathUnits="userSpaceOnUse"><path d="M-192.227 1188.271h1920v-4034.815h-1920Z"></path></clipPath><clipPath id="j" clipPathUnits="userSpaceOnUse"><path d="M-190.237 1197.569h1920v-4034.815h-1920Z"></path></clipPath><clipPath id="k" clipPathUnits="userSpaceOnUse"><path d="M-189.864 1197.848h1920v-4034.815h-1920Z"></path></clipPath><clipPath id="l" clipPathUnits="userSpaceOnUse"><path d="M-182.53 1196.739h1920v-4034.815h-1920Z"></path></clipPath><clipPath id="m" clipPathUnits="userSpaceOnUse"><path d="M-189.382 1188.86h1920v-4034.814h-1920Z"></path></clipPath><clipPath id="n" clipPathUnits="userSpaceOnUse"><path d="M-186.058 1192.365h1920V-2842.45h-1920Z"></path></clipPath><clipPath id="o" clipPathUnits="userSpaceOnUse"><path d="M-196.475 1197.053h1920v-4034.815h-1920Z"></path></clipPath><clipPath id="p" clipPathUnits="userSpaceOnUse"><path d="M-199.704 1201.322h1920v-4034.815h-1920Z"></path></clipPath><clipPath id="q" clipPathUnits="userSpaceOnUse"><path d="M-196.248 1200.709h1920v-4034.815h-1920Z"></path></clipPath><clipPath id="r" clipPathUnits="userSpaceOnUse"><path d="M-195.682 1200.416h1920V-2834.4h-1920Z"></path></clipPath><clipPath id="s" clipPathUnits="userSpaceOnUse"><path d="M-192.393 1194.633h1920v-4034.815h-1920Z"></path></clipPath><clipPath id="t" clipPathUnits="userSpaceOnUse"><path d="M-192.393 1194.633h1920v-4034.815h-1920Z"></path></clipPath><clipPath id="u" clipPathUnits="userSpaceOnUse"><path d="M-183.378 1197.717h1920v-4034.815h-1920Z"></path></clipPath><clipPath id="v" clipPathUnits="userSpaceOnUse"><path d="M-183.106 1196.449h1920v-4034.815h-1920Z"></path></clipPath><clipPath id="w" clipPathUnits="userSpaceOnUse"><path d="M-184.844 1194.538h1920v-4034.815h-1920Z"></path></clipPath><clipPath id="x" clipPathUnits="userSpaceOnUse"><path d="M-191.257 1251.297h1920v-4034.815h-1920Z"></path></clipPath><clipPath id="y" clipPathUnits="userSpaceOnUse"><path d="M-186.202 1251.233h1920v-4034.815h-1920Z"></path></clipPath><clipPath id="z" clipPathUnits="userSpaceOnUse"><path d="M-174.944 1226.109h1920v-4034.815h-1920Z"></path></clipPath><clipPath id="A" clipPathUnits="userSpaceOnUse"><path d="M-212.944 1242.571h1920v-4034.815h-1920Z"></path></clipPath><clipPath id="B" clipPathUnits="userSpaceOnUse"><path d="M-201.54 1206.444h1920V-2828.37h-1920Z"></path></clipPath><clipPath id="C" clipPathUnits="userSpaceOnUse"><path d="M-180.668 1201.076h1920V-2833.74h-1920Z"></path></clipPath><clipPath id="D" clipPathUnits="userSpaceOnUse"><path d="M-212.365 1205.443h1920v-4034.815h-1920Z"></path></clipPath><clipPath id="E" clipPathUnits="userSpaceOnUse"><path d="M-177.921 1209.19h1920v-4034.814h-1920Z"></path></clipPath><clipPath id="F" clipPathUnits="userSpaceOnUse"><path d="M-177.142 1207.781h1920v-4034.815h-1920Z"></path></clipPath><clipPath id="G" clipPathUnits="userSpaceOnUse"><path d="M-189.076 1251.255h1920V-2783.56h-1920Z"></path></clipPath><clipPath id="H" clipPathUnits="userSpaceOnUse"><path d="M-201.962 1210.215h1920V-2824.6h-1920Z"></path></clipPath><clipPath id="I" clipPathUnits="userSpaceOnUse"><path d="M-178.976 1251.225h1920V-2783.59h-1920Z"></path></clipPath><clipPath id="J" clipPathUnits="userSpaceOnUse"><path d="M-174.461 1224.612h1920v-4034.815h-1920Z"></path></clipPath><clipPath id="K" clipPathUnits="userSpaceOnUse"><path d="M-212.913 1242.718h1920v-4034.815h-1920Z"></path></clipPath><clipPath id="L" clipPathUnits="userSpaceOnUse"><path d="M-186.874 1206.198h1920v-4034.815h-1920Z"></path></clipPath><clipPath id="M" clipPathUnits="userSpaceOnUse"><path d="M-176.843 1174.325h1920V-2860.49h-1920Z"></path></clipPath><clipPath id="N" clipPathUnits="userSpaceOnUse"><path d="M-178.375 1189.22h1920v-4034.815h-1920Z"></path></clipPath><clipPath id="O" clipPathUnits="userSpaceOnUse"><path d="M-175.12 1191.31h1920v-4034.816h-1920Z"></path></clipPath><clipPath id="P" clipPathUnits="userSpaceOnUse"><path d="M-190.044 1217.77h1920v-4034.816h-1920Z"></path></clipPath><clipPath id="Q" clipPathUnits="userSpaceOnUse"><path d="M-189.032 1217.832h1920v-4034.815h-1920Z"></path></clipPath><clipPath id="R" clipPathUnits="userSpaceOnUse"><path d="M-174.707 1249.735h1920V-2785.08h-1920Z"></path></clipPath><clipPath id="S" clipPathUnits="userSpaceOnUse"><path d="M-192.881 1251.543h1920v-4034.815h-1920Z"></path></clipPath><clipPath id="T" clipPathUnits="userSpaceOnUse"><path d="M-205.653 1251.8h1920v-4034.815h-1920Z"></path></clipPath><clipPath id="U" clipPathUnits="userSpaceOnUse"><path d="M-192.886 1147.393h1920v-4034.815h-1920Z"></path></clipPath><clipPath id="V" clipPathUnits="userSpaceOnUse"><path d="M-197.894 1154.782h1920v-4034.815h-1920Z"></path></clipPath><clipPath id="W" clipPathUnits="userSpaceOnUse"><path d="M-188.413 1148.167h1920v-4034.815h-1920Z"></path></clipPath><clipPath id="X" clipPathUnits="userSpaceOnUse"><path d="M-201.783 1152.123h1920v-4034.815h-1920Z"></path></clipPath><clipPath id="Y" clipPathUnits="userSpaceOnUse"><path d="M-201.922 1151.896h1920V-2882.92h-1920Z"></path></clipPath><clipPath id="Z" clipPathUnits="userSpaceOnUse"><path d="M-196.89 1147.814h1920v-4034.815h-1920Z"></path></clipPath><clipPath id="aa" clipPathUnits="userSpaceOnUse"><path d="M-200.351 1148.507h1920v-4034.815h-1920Z"></path></clipPath><clipPath id="ab" clipPathUnits="userSpaceOnUse"><path d="M-192.965 1147.564h1920v-4034.815h-1920Z"></path></clipPath><clipPath id="ac" clipPathUnits="userSpaceOnUse"><path d="M-198.837 1155.422h1920v-4034.815h-1920Z"></path></clipPath><clipPath id="ad" clipPathUnits="userSpaceOnUse"><path d="M-194.414 1154.76h1920v-4034.815h-1920Z"></path></clipPath><clipPath id="ae" clipPathUnits="userSpaceOnUse"><path d="M-196.048 1155.2h1920v-4034.815h-1920Z"></path></clipPath><clipPath id="af" clipPathUnits="userSpaceOnUse"><path d="M-196.493 1155.34h1920v-4034.816h-1920Z"></path></clipPath><clipPath id="ag" clipPathUnits="userSpaceOnUse"><path d="M-201.476 1154.295h1920V-2880.52h-1920Z"></path></clipPath><clipPath id="ah" clipPathUnits="userSpaceOnUse"><path d="M-197.258 1147.369h1920v-4034.815h-1920Z"></path></clipPath><clipPath id="ai" clipPathUnits="userSpaceOnUse"><path d="M-195.498 1147.496h1920v-4034.815h-1920Z"></path></clipPath><clipPath id="aj" clipPathUnits="userSpaceOnUse"><path d="M-194.22 1147.239h1920v-4034.815h-1920Z"></path></clipPath></defs><path d="M0 0c-.201-.111.084.304-.139.231-.184-.336-.44-.519-.705-.593.268.032.58.119.844.362" clip-path="url(#a)" style="fill:#009539;fill-opacity:1;fill-rule:nonzero;stroke:none" transform="matrix(.35278 0 0 -.35278 10.816 19.495)"></path><path d="M0 0c-.161-.021-.308-.023-.441-.033.152-.022.3-.007.441.033" clip-path="url(#b)" style="fill:#009539;fill-opacity:1;fill-rule:nonzero;stroke:none" transform="matrix(.35278 0 0 -.35278 10.519 19.622)"></path><path d="M0 0c.227.171.074.173.017.19A3 3 0 0 0-.62-.222c.231.066.417.164.62.222" clip-path="url(#c)" style="fill:#009539;fill-opacity:1;fill-rule:nonzero;stroke:none" transform="matrix(.35278 0 0 -.35278 10.596 19.461)"></path><path d="M0 0c-.117-.042-.234-.072-.339-.105C-.297-.15-.088-.067 0 0" clip-path="url(#d)" style="fill:#009539;fill-opacity:1;fill-rule:nonzero;stroke:none" transform="matrix(.35278 0 0 -.35278 10.229 19.6)"></path><path d="m0 0 .08-.005C.081.01.047.011 0 0" clip-path="url(#e)" style="fill:#009539;fill-opacity:1;fill-rule:nonzero;stroke:none" transform="matrix(.35278 0 0 -.35278 3.022 17.564)"></path><path d="m0 0-.23-.023C-.151-.058-.147-.196 0 0" clip-path="url(#f)" style="fill:#009539;fill-opacity:1;fill-rule:nonzero;stroke:none" transform="matrix(.35278 0 0 -.35278 4.399 15.936)"></path><path d="M0 0c-.015.003-.029.013-.044.018C-.028-.005-.014-.019 0 0" clip-path="url(#g)" style="fill:#009539;fill-opacity:1;fill-rule:nonzero;stroke:none" transform="matrix(.35278 0 0 -.35278 9.376 15.788)"></path><path d="m0 0-.007-.008C0-.037.001-.045 0 0" clip-path="url(#h)" style="fill:#009539;fill-opacity:1;fill-rule:nonzero;stroke:none" transform="matrix(.35278 0 0 -.35278 7.549 18.128)"></path><path d="m0 0-.027-.016C.071-.059.126-.07 0 0" clip-path="url(#i)" style="fill:#009539;fill-opacity:1;fill-rule:nonzero;stroke:none" transform="matrix(.35278 0 0 -.35278 6.494 14.5)"></path><path d="m0 0 .006.018-.015-.007Z" clip-path="url(#j)" style="fill:#009539;fill-opacity:1;fill-rule:nonzero;stroke:none" transform="matrix(.35278 0 0 -.35278 5.792 17.78)"></path><path d="m0 0 .676-.128-.302.407C.324.135.281.031 0 0" clip-path="url(#k)" style="fill:#009539;fill-opacity:1;fill-rule:nonzero;stroke:none" transform="matrix(.35278 0 0 -.35278 5.66 17.878)"></path><path d="m0 0-.004-.004-.001-.001h.002z" clip-path="url(#l)" style="fill:#009539;fill-opacity:1;fill-rule:nonzero;stroke:none" transform="matrix(.35278 0 0 -.35278 3.073 17.487)"></path><path d="M0 0c-.027.001-.045-.003-.075 0A.3.3 0 0 1 0 0" clip-path="url(#m)" style="fill:#009539;fill-opacity:1;fill-rule:nonzero;stroke:none" transform="matrix(.35278 0 0 -.35278 5.49 14.708)"></path><path d="M0 0a.1.1 0 0 1-.036.009l-.007-.013Z" clip-path="url(#n)" style="fill:#009539;fill-opacity:1;fill-rule:nonzero;stroke:none" transform="matrix(.35278 0 0 -.35278 4.318 15.944)"></path><path d="M0 0c.072-.026.16-.071.282-.163C.13-.017.047.017 0 0" clip-path="url(#o)" style="fill:#009539;fill-opacity:1;fill-rule:nonzero;stroke:none" transform="matrix(.35278 0 0 -.35278 7.993 17.598)"></path><path d="m0 0-.309-.013.215-.015z" clip-path="url(#p)" style="fill:#009539;fill-opacity:1;fill-rule:nonzero;stroke:none" transform="matrix(.35278 0 0 -.35278 9.132 19.104)"></path><path d="M0 0c.059.056.071.098.165.126L.023.239Z" clip-path="url(#q)" style="fill:#009539;fill-opacity:1;fill-rule:nonzero;stroke:none" transform="matrix(.35278 0 0 -.35278 7.913 18.888)"></path><path d="M0 0c.246-.003.047.103.084.172C-.139.295.007.066 0 0" clip-path="url(#r)" style="fill:#009539;fill-opacity:1;fill-rule:nonzero;stroke:none" transform="matrix(.35278 0 0 -.35278 7.713 18.784)"></path><path d="M0 0c-.126-.036.223.449.102.441-.283-.591-.153.164-.498-.474C-.351-.412-.258-.188 0 0" clip-path="url(#s)" style="fill:#009539;fill-opacity:1;fill-rule:nonzero;stroke:none" transform="matrix(.35278 0 0 -.35278 6.553 16.744)"></path><path d="M0 0a.4.4 0 0 1 .132.081A1 1 0 0 1 0 0" clip-path="url(#t)" style="fill:#009539;fill-opacity:1;fill-rule:nonzero;stroke:none" transform="matrix(.35278 0 0 -.35278 6.553 16.744)"></path><path d="m0 0 .031.055-.238.049C-.119.024-.074-.016 0 0" clip-path="url(#u)" style="fill:#009539;fill-opacity:1;fill-rule:nonzero;stroke:none" transform="matrix(.35278 0 0 -.35278 3.373 17.832)"></path><path d="m0 0 .031.051-.147.173Z" clip-path="url(#v)" style="fill:#009539;fill-opacity:1;fill-rule:nonzero;stroke:none" transform="matrix(.35278 0 0 -.35278 3.277 17.385)"></path><path d="M0 0c.063.101.186.181.249.281C.041.476.186.181 0 0" clip-path="url(#w)" style="fill:#009539;fill-opacity:1;fill-rule:nonzero;stroke:none" transform="matrix(.35278 0 0 -.35278 3.89 16.71)"></path><path d="M0 0c.152-.015.359-.03.682-.043Z" clip-path="url(#x)" style="fill:#009539;fill-opacity:1;fill-rule:nonzero;stroke:none" transform="matrix(.35278 0 0 -.35278 6.152 36.734)"></path><path d="m0 0 .121-.075C.322-.072.228-.042 0 0" clip-path="url(#y)" style="fill:#009539;fill-opacity:1;fill-rule:nonzero;stroke:none" transform="matrix(.35278 0 0 -.35278 4.369 36.711)"></path><path d="M0 0c-.219.425-.426.865-.543 1.375A4.7 4.7 0 0 1 0 0" clip-path="url(#z)" style="fill:#009539;fill-opacity:1;fill-rule:nonzero;stroke:none" transform="matrix(.35278 0 0 -.35278 .397 27.848)"></path><path d="M0 0c.084.099.17-.449.171.795Z" clip-path="url(#A)" style="fill:#009539;fill-opacity:1;fill-rule:nonzero;stroke:none" transform="matrix(.35278 0 0 -.35278 13.803 33.656)"></path><path d="m0 0 .107-.263C.055-.091.014.026 0 0" clip-path="url(#B)" style="fill:#009539;fill-opacity:1;fill-rule:nonzero;stroke:none" transform="matrix(.35278 0 0 -.35278 9.78 20.911)"></path><path d="M0 0h-.055C-.158-.025-.19-.031 0 0" clip-path="url(#C)" style="fill:#009539;fill-opacity:1;fill-rule:nonzero;stroke:none" transform="matrix(.35278 0 0 -.35278 2.417 19.017)"></path><path d="M0 0c-.007.066-.007-.055-.024-.427l.016-.137C.02-.331.001-.049 0 0" clip-path="url(#D)" style="fill:#009539;fill-opacity:1;fill-rule:nonzero;stroke:none" transform="matrix(.35278 0 0 -.35278 13.598 20.558)"></path><path d="m0 0 .052-.079-.029.067z" clip-path="url(#E)" style="fill:#009539;fill-opacity:1;fill-rule:nonzero;stroke:none" transform="matrix(.35278 0 0 -.35278 1.447 21.88)"></path><path d="M0 0a.6.6 0 0 0-.061.203.4.4 0 0 0 .018.155C-.253.209-.06-.476-.017-.99l.797-.419c-.203.31-.379.583-.543.897C.156-.355.077-.188 0 0" clip-path="url(#F)" style="fill:#009539;fill-opacity:1;fill-rule:nonzero;stroke:none" transform="matrix(.35278 0 0 -.35278 1.172 21.383)"></path><path d="M0 0c.074-.003.157-.005.258-.003Z" clip-path="url(#G)" style="fill:#009539;fill-opacity:1;fill-rule:nonzero;stroke:none" transform="matrix(.35278 0 0 -.35278 5.382 36.72)"></path><path d="m0 0-.186-.014-.167-.043C-.194-.022-.076.004 0 0" clip-path="url(#H)" style="fill:#009539;fill-opacity:1;fill-rule:nonzero;stroke:none" transform="matrix(.35278 0 0 -.35278 9.928 22.241)"></path><path d="M0 0c.796.062 1.207.164 1.739-.05C1.398-.16.467-.039 0 0m7.932 48.84-.013.023c.059.054.104.087.157.048a.19.19 0 0 0-.144-.071m13.599-5.629a1.5 1.5 0 0 0-.215-.191c-.043.018-.097.017-.118.052l-.045.111-.074.162a.7.7 0 0 1-.104.159c-.049.052-.087.07-.131.135.274-.056.518-.21.687-.428m3.48 6.024c-.034-.031-.067-.057-.105-.103-.05-.032-.039-.042-.012-.051.091.075.169.15.247.226l.165.091c.598.332 1.183.662 1.635.94.255.214.552.297.755.298.276-.331-.202.019-.597-.244l-.36-.204a6 6 0 0 1-.358-.216c-.172-.115-.185-.163.117-.077.19.129.398.272.525.366.1.074.254.238.558.184a.7.7 0 0 1-.21-.184c.284.044.507-.168.588-.396l.297-.553.213-.526c.162-.398.327-.783.537-1.153-.127.275-.109.307-.237.583 1.261-2.789 2.068-3.357 2.58-4.461.133-.232.242-.529.141-.833-.042-.151-.135-.268-.222-.394l-.29-.407c-.364-.496-.615-.766-.457-.382-.146-.198-.081-.083.078.181l.294.486.172.286c.036.063.078.125.103.194.117.282-.017.565-.114.65-.056.075-.104.119-.12.074a.3.3 0 0 1-.006-.122l-.015-.133a.43.43 0 0 0 .148-.319.5.5 0 0 0-.036-.183 2 2 0 0 0-.12-.226 22 22 0 0 0-.856-1.317c-.654-.956-1.457-2.122-2.314-3.829 1.007 1.339-.289-.971.59.236-.976-1.53-1.069-1.552-1.6-2.175l-.163-.541c-.365-.447-.623-.758-.726-.841-.104-.09-.17-.109-.249-.139-.078-.023-.176-.073-.37-.06-.084.011-.339.018-.629.027l-1.087.027c1.181-.08-1.407-.244-.508-.322a28 28 0 0 0-.981-.018h-.441l-.105-.469c-.093-.414-.099-.812-.32-.957a1 1 0 0 1 .058.04.695.695 0 0 0-.9-.23c-.235.125-.302.327-.415.462l-.108.153-.137.203-.357.568a35 35 0 0 0-1.017 1.822l.241-.239-.917 1.706-.235.423c-.036.07-.08.137-.092.217a.56.56 0 0 0 .111.447l2.709 4.416.291.476a.3.3 0 0 0 .133.091l.022.007.002.001.002.001.29-.872c.079-.242.025-.067.045-.121h.017l.024.001.095.003.386.004.374-.006c.128-.013.271-.065.426-.134.338-.176.609-.295.804-.366.182-.062.262-.072.304-.081.056-.008-.059-.018-.256-.017-.14-.027-.223-.084-.338-.123l-.162-.063.303.07.622.147-.016.066.019-.069-.749-.233-.094-.03-.047-.016.03.004.121.014.064.005.738.188c-.216.941-.467 2.364-.867 3.334l.316-1.207c-.105.082-.397.754-.873 1.923l-.033.484-.303.44c-.208.49-.187.468-.188.521.008.032.047.008.084-.011.092-.034.097-.067.055.251-.108.082-.126.401.186.572.033.026.172.108.299.182l.395.23.863.484.242.134c.048-.003.096-.014.142-.012l.003.002c-.002.009-.011.016-.015.023-.026.003-.06.005-.093.007l.058.032q.021-.017.035-.039l.018-.001c.04.018.031.004-.003-.022l.002-.002h-.005l-.018-.013q.21.07.42.173a1.5 1.5 0 0 0-.372-.054zm-21.476 4.62c.112.036.055-.072.057-.133-.088.006-.22-.012-.057.133m2.278-2.331c-.119.024.054-.258-.197-.115-.214.445-.33.716-.669.939-.35.442.451.094.098.413-.165-.06-.347-.146-.567.053-.026.19.08.261-.05.504l-.168-.182c-.161.187-.262.361-.399.235-.058.216-.175.313-.264.35-.007.103.124.146.231.21.167-.002.383-.061.447-.058-.466.23-.275.172-.601.097a.3.3 0 0 1 .006-.109c-.218-.004-.17.127-.114.169.053.058.083.053-.196.108.015-.092-.065-.264-.227-.235q.033.118.1.212c-.073.02-.041-.114-.128-.03.05.069.197.169.294.185l-.017.001a.6.6 0 0 0 .156.211c-.025-.032-.103-.004-.08.043l.009.004c.051-.002.193.119.296.189-.124-.063-.109.085-.032.255.253.465.696.004.737.48-.031-.051-.061-.04-.093-.091l.036.234c.447-.278.779.956 1.226.678.008.365-.088.092-.516-.067l.069.345c-.093-.092-.126-.202-.249-.282.071.466.529.613.773.712.035.173-.39.135-.05.446.464.452.234-.326.513-.054l-.051.385c.459.269.529.674.749 1.027.073.062.123.082.161.083.168.423.764.581.891.901-.091-.029-.024.254-.053.325l.493.38c-.216-.17-.334-.067-.484-.015.124.14.246.16.338.25-.091-.03-.183-.059-.18.062l.583.35a.4.4 0 0 0-.067-.162c.096.125.378.339.41.595-.06.02-.151-.008-.212.012.025-.254-.156-.252-.308-.261.28.332.032.111.068.344.188.242.429.219.486.076.079.157.127.263.198.354a.7.7 0 0 0 .128.128c.049.037.135.106.17.088q-.089.059-.182.11a1 1 0 0 0 .141.069.9.9 0 0 1-.272.077c.063.206.155.142.222.076.077-.067.132-.127.246-.019l-.065.179c.15-.02.222-.254.272-.2.015.011.015.033.058.071.134-.057.007-.122-.037-.179q-.02-.042-.009-.075c-.011-.021.052-.038.21-.048.107.095.338.164.512.201.162-.072-.051-.176-.198-.193.809-.041.523.626 1.313.384-.281-.132.232-.361-.431-.352.316-.112.624.266.953.062l-.214.239c.119.004.252-.083.316-.113l-.025.184c.405-.324.759.149.999-.274-.167.332.304-.021.466.108-.334.234-.962-.002-1.005.304.157.092.296-.058.447.031-.105.046-.258.128-.298.19.517.171.808-.189 1.121-.27l-.552.073c.043-.306.248-.053.402-.294.277.163.492-.076.718.024-.06-.002-.064.028-.124.027.602-.011.772.487 1.011.494.235.039.68-.13.518-.259.192-.086-.799.096-.457-.303.346.457.706-.175 1.456.135-.327.164.194.257-.098.381.357-.039.37-.107.528-.238l.108.143c.232-.162.259-.233.316-.285a.4.4 0 0 1 .138-.074c.053-.026.237-.057.279-.1-.115.116.175.2.097.305a.27.27 0 0 0 .261-.212l-.002.026c.097-.084.15-.139.202-.172.182-.137.31-.144.533-.547l-.107-.012c.409-.782 1.252-1.47 1.774-2.189l-.263.179c.096-.039.304-.529.59-.638-.031.045-.067.141-.111.171.076.06.254.079.416-.059l-.052-.161.142.015c.222-.235-.22-.074.002-.309.11.037.226-.006.346-.09l.092-.071.13-.123.266-.272c.355-.371.733-.776.886-.667a.6.6 0 0 0 .019-.107.1.1 0 0 0-.007-.067c-.073-.105-.573.647-.449.171.117-.058.178-.04.389-.231a2 2 0 0 0-.108-.152l.131-.12c.581.464.958.797 1.309 1.092l.442.364c.132.102.278.205.454.315l-.051.013.041.045-.071-.042c.11.111.228.076.273-.072.034.087-.078.129-.019.205.142-.236.203-.176.392-.177.165.009.376-.085.258-.247.145.077.334.044.507-.05a1.2 1.2 0 0 0-.064-.685l-2.161-7.412-1.099-.593-.809-.449-.244.033q-.006.007-.014.014c-.012-.005-.024-.003-.036-.007l-.448.06c-.065.048-.113.103-.115.159-.087-.025-.004-.099.001-.143l-.032.004-.277.126a.2.2 0 0 1-.01-.087l-2.241.302c-.026.059-.14.125-.215.185-.597-.073-1.577.158-1.987.112l-.574.077c-.32.029-.614.188-.816.444-.049.063-.07.136-.105.205a.62.62 0 0 0 .321.258.63.63 0 0 1 .035-.407c.065-.126.189-.187.312-.102-.105.171-.198.469-.016.553-.403.015.074-.318-.304-.246-.066.123.026.221.062.29-.108-.129-.264.041-.341.079-.048.466-.012.787.387 1.175l.02.023-.008.027.263.259.205.031c.215.025.444.048.472-.044.359.339.228.382.578.638l-.009.018.032-.018c-.092-.301-.043-.154.127-.003-.057.071-.086.142.012.163-.247.315-.262.097-.461.222-.008.05-.016.187.055.215-.2.069-.256-.063-.346-.162a.36.36 0 0 0-.28-.14l-.305.329.102.036-.058.067q-.044-.027-.089-.053l-.296.319c.268.211.627.411.928.347.117.1-.479.275-.535.311-.218.053-.279.19-.321.335-.052.155-.035.263-.259.433.056-.129.102-.246.111-.325-.035-.054-.468.532-.492.689-.042-.082-.024-.629-.207-.584-.23.215-.394.551-.545.928-.144.371-.266.773-.238.934q.464-.699.824-1.285c.142.165-.549.911-.467 1.205l-.788.756-.128-.199c.03.039.08.096.131.146.139-.191.276-.42.185-.445a3 3 0 0 1-.169.181c-.119-.184-.06-.183-.203-.515.066.013.14.015.233.028a9 9 0 0 0 .458-1.342l-.404.436-.048-.066c-.167.243-.387.445-.491.505-.246-.434.044-.822.112-.881-.178-.264-.348-.221-.555-.236-.195 0-.455-.099-.66-.438.007.067.067.208.103.315a1.5 1.5 0 0 1-.154-.193l-.12-.183c-.076-.118-.143-.213-.161-.165.029-.169.199-.429.34-.367l-.664-.176c.084.036.353-.225.426-.237-.115-.182-.56-.042-.53.103-.029-.497-.086-.326-.032-.788-.094-.085-.311.243-.29.34a.8.8 0 0 1-.349-.46c.278.195.528-.068.749-.28l-.184-.253-1.016-.104a2.3 2.3 0 0 0 .435-.188c-.314.127-1.017-.77-1.308-1.249l.052.067c.157.024-.051-.419-.259-.509.072-.013.083.036.135.102-.02-.45-.683-.094-.672-.575.176.297.322.272.416.181-.26-.158-.54-.764-.77-.422-.041-.195-.176-.297-.01-.402l-.591-.423c.062.018.179-.014.082-.194.186.345.696.433.613.751.198-.135.215-.33.486-.3-.513-.505-1.178-.769-1.417-.524a.4.4 0 0 0-.195-.213l-.001.11c-.01-.041-.028-.079-.041-.119l-.573 1.037a2.44 2.44 0 0 1-1.271 1.086c-.032.012-.064.028-.097.038zM-4.264 29.368c-.071.606-.102 1.143-.04 1.49.048-.552.055-1.05.04-1.49m38.375-14.405c-.056-.396-.171.964-.237 1.168l.084 1.523.021.381c.004.148-.005.35-.013.524a4.4 4.4 0 0 1-.232 1.032c.304-.869.2-1.41.148-1.594-.067-.185-.144-.232-.219-.355.018.423.019.968-.065 1.347a3.6 3.6 0 0 1-.393 1.083c.201-.461.326-.937.009-.403a5 5 0 0 1-1.053 1.574c-.588.559-.573.552-.713.675a.9.9 0 0 0 .284-.109c-.098.068-.235.168-.393.215-.043.016-.09.022-.14.029l-.078.005.06.007a.25.25 0 0 1 .173.114c-.107-.016-.333-.085-.487-.11-.017-.015-.034-.04-.064-.038l-.05-.007.074-.003c.092-.006.129-.025.153-.056.027-.028.038-.072.065-.117a2 2 0 0 1-.25.086c-.324.076-.374.044-.421.046-.024-.003-.047-.008-.111-.011l-.135-.002.078.011c.475.11.801.36.996.422.193.084.272.046.283-.033.057.062.096.109.154.183a11.273 11.273 0 0 1 .945 1.276c.342.549.701 1.079 1.084 2.077-.108-.11-.208-.22-.32-.316.11.294.21.595.274.924.068.325.085.712.093.951l-.067-.341-.092-.411c-.085-.256-.168-.507-.286-.729.109.427.142.783.154 1.068.013.272.011.42.027.556.025.258.071.342.118.436.094.189.191.422.131 2.179l-.186.009c.036.676.132 1.13.192 1.546.03.208.05.407.049.619-.008.213-.032.571-.171.87-.177.819.112.172.237-.285.048-.227.083-.387.093-.218.004.158.022.707-.43 1.628-.196.28-.507.685-.904 1.045a3 3 0 0 1-.296.258c-.085.067-.232.193-.242.186-.075.045-.159.087-.241.128l-.056.025c-.123.115.055.078.208.036a1 1 0 0 0 .191-.081c-.001.012.109-.084.194-.159.084-.077.156-.133.219-.209-.507.489-.429.395-.546.473-.271.138-.619.165-1.036.172-.069.018-.047.036.549.37l.302.195c.037.018.147.111.258.203.109.084.224.195.345.313-.468-.566-.273-.452-.163-.459.054.002.084-.013-.009-.13-.161-.178-.161-.205-.294-.299a1 1 0 0 0-.19-.102.7.7 0 0 1 .216.091c.036.027.072.052.103.088l.048.053.185.188c.264.263.532.611.752.959.218.362.412.749.547 1.181.071.213.12.441.163.67l.078.642-.152-.659c-.083-.228-.157-.457-.277-.654.125.353.199.764.234 1.13l.068.702-.184-.137c.161 1.036.123 2 .097 2.86a15 15 0 0 0-.003 1.205c.015.389.085.66.148 1.133-.148-.588-.09-.053-.285.68-.18.752-.759 1.577-1.156 1.858.313-.393.679-.891.935-1.506.133-.303.218-.642.272-.983.017-.168.027-.355.031-.506l-.003-.397c-.007-1.038-.024-1.891-.177-2.004-.092.795.058 1.504-.033 2.271-.045-.536-.126-1.316-.188-1.521-.046.66-.047 1.232-.049 1.783a3.8 3.8 0 0 1-.382 1.557 4.9 4.9 0 0 1-1.77 2.025c.88-.541 1.652-1.298 2.084-2.295.087.18-.064.541-.336.899-.266.366-.633.728-.915 1.101q-.35.217-.685.401.61.39 1.093.891c.644.669 1.181 1.537 1.256 2.632l.01 2.976-.04-.178a23 23 0 0 0-.025 1.892c.013.511.084.839.114 1.332-.111.379-.062-.99-.186-.258.066.774-.235 1.542-.677 2.105-.213.29-.479.544-.726.741-.15.129-.176.123-.27.187-.079.048-.167.088-.254.133-.477.222-1.13.399-1.671.406.317.004.69.098 1.053.183-.281.005-.193.126.09.436.06.066.129.146.199.231.985.693 1.767 1.745 1.767 2.919v4.396c0 2.073-.837 5.113-1.87 6.759L20.527 93.659H8.438l-3.893-6.21c-.076-.116-.15-.234-.232-.338a6 6 0 0 1-.134-.245l-1.061-1.693c-.022-.028-.043-.051-.066-.083l-.06-.117-1.285-2.05c-.209-.261-.374-.429-.439-.433-.195-.379.108-.012.173.01l-.092-.148-.857-1.202c.002-.056.029-.067.07-.053l-2.599-4.145c-.941-1.515-1.726-4.203-1.846-6.239-.061-.125-.139-.802-.178-1.244.052-1.034.075-2.332.086-3.668.014-1.41 1.125-2.578 2.075-3.137a4.4 4.4 0 0 1 1.739-.607q.13-.017.256-.021c.029-.001.06-.008.089-.008a3 3 0 0 1-.252-.017c-1.662-.173-3.839-1.793-3.839-3.751v-3.208c-.108-.454-.222-.714-.335-.712.1 1.237.275 3.674.061 4.083-.118-1.259-.16-3.358-.318-3.474.274-1.272.082 2.319.309.651-.006-.862-.095-1.232-.142-1.634.113.575.191-.774.254-1.032.003-.752.297-1.384.657-1.875a4.8 4.8 0 0 1 1.29-1.189l.071-.045.053.05c.391.364 1.016.217 1.621.262l2.023.012.094.024 1.871-.019c.247-.04.486-.083.694-.129.306-.07.6-.142.686-.206.105-.065.104-.121.007-.164.419-.007.635-.259.746-.44.304-.472.54-.811.962-1.645-1.373 1.904.262-.377.158-.725.716-1.314.37-.39.765-.957.099-.23.319-.791.278-.861.551-.611-.198 1.238.107 1.149l1.109-1.937c.01-.016.014-.034.023-.05q-.047-.013-.093-.028c.062-.116.099-.243.113-.373.03.032.054.073.081.11a1.16 1.16 0 0 0-.02-.561 1.1 1.1 0 0 0-.347-.51q-.084.003-.166.006c-.073-.067-.132-.152-.196-.231l.038.004q-.027-.013-.054-.023l.016.019-.107-.01a9 9 0 0 1-.473-.055c-.048.008-.096.014-.143.028l-.949.278-.363-.615-.042-.01c-.318-.069-.788-.12-.336.308a1.3 1.3 0 0 1-.219-.096c.016.029.036.059.048.087.049.113.061.213.049.292a6 6 0 0 0-.098-.379 1.8 1.8 0 0 1-.406-.276c-.13-.132-.042-.144.114-.029.069.05.193.147.242.215.021.03.033.059.05.089a7 7 0 0 0-.178-.558h.001c.673-.16 1.187-.334 1.746-.532.555-.194 1.169-.409 1.946-.527-.451.136-.888.28-1.303.422.168-.015.89-.19 1.639-.347l1.057-.221c.288-.062.598-.126.578-.146-.001.022.017.059-.086.121-.104.062-.238.138-.346.21-.216.146-.319.276.067.274l.618-.083a.9.9 0 0 0 .473-.212c.269-.225.348-.589.288-.88-.152-1.669-.443-2.967-.622-2.829l.193 2.789a.62.62 0 0 1-.281.672c-.05-.043.023-.109.088-.228a.6.6 0 0 0 .061-.456l-.012-.057-.012-.139-.025-.273-.057-.474c-.041-.272-.091-.438-.155-.393l.055-4.005c.01.506.08 2.05.196 1.442-.021-1.707.033-.919.127-2.013a79 79 0 0 0 .771 4.175l-.019-3.354-.054-.227c-.067-.246-.134-.526-.199-.699-.06-.179-.125-.318-.231-.412a.7.7 0 0 0-.535-.194c-.227-.141-.391-.138-.467-.213-.135-.089-.123-.225.003-.338a.65.65 0 0 1 .249-.145c-.089.003-.174.016-.248.024-2.74.33-2.74.968-5.698 1.241l1.157-.031c-.358.062-1.193.145-1.903.218l-.895.1c-.158.022-.167.035-.141.052-.283-.109-.823.075-.481-.347a.96.96 0 0 0-.254.454l-.236.632-.486 1.287c.158-.369-.294-.326-.266-.507-.555.941-.552 1.827-.156 1.257C.552 38.677.941 38.291-.19 39.635c-.29.56.37.146.634-.235a20 20 0 0 1-1.447 2.556c.714-1.472.244-1.369-.119-1.343l-.791 1.382-.176.56c-.095.331-.255.744-.285.987a.79.79 0 0 0 .256.696c.139.14.331.379.494.562-.139-.116-.643-.309-.669-.266.225.103.909 1.185 1.706 2.566l.26.452-.408.323-.67.53-.685.269c-.05.017-.094.066-.15.057l-.174-.047-.378-.097a5.1 5.1 0 0 1-1.059-1.102 4 4 0 0 1-.553-1.136c-.123-.382-.151-.871-.139-1.164l.01-.877.003.426c.113.575.205-1.867.089-2.866.066.169.046.4.05.827.123-.948-.001-1.563-.12-2.183l-.085-.47c-.008-.195-.034-.418.005-.637.045-.45.25-.926.612-1.371-.58.872-.59 1.606-.562 1.953.041.311.11.362.174.322l-.019-.292.013-.385c.03-.266.09-.55.194-.823.203-.551.551-1.048.897-1.429.161-.193.356-.36.451-.464.081-.079.14-.149.178-.196.074-.1.022-.14-.145-.142l.049-.022c.425-.187.742-.272 1.092-.251q.14-.037.267-.042a3.4 3.4 0 0 1-1.625-.466c.059.02.137.032.152-.003.007-.017-.002-.047-.042-.097a3 3 0 0 0-.137-.146c-.069-.074-.154-.143-.252-.255.08.095.164.159.247.239l.125.113.071.053c.092.071.195.13.301.189.411.214.979.367 1.475.373-.327.007-.703.131-1.058.201.162.035.411.005.605.005.186.005.305.003.028.227.524-.274 1.024-.425 1.444-.433-.872-.02-1.574-.293-2.106-.529a4.7 4.7 0 0 1-.906-.542c-.316-.261-.618-.536-.865-.868a3.6 3.6 0 0 1-.593-1.115c-.078-.206-.11-.427-.146-.652l-.067-.544.172-3.36-.109-.142.275-.584c-.063-.42-.118-.687-.091-.775.028-.088.058.036.101.195-.02-.348.003-.77.018-.942.086-.06.134.086.173.321.055.251.121.564.203.875l-.152.925c.083.396.168.72.242.72v-1.271l-.09-.374.051-.29.039.338v-.493l.002-.031c-.014.062-.029.12-.041.186-.123-.821.127-1.716.245-2.206.129-.492.089-.655-.331.011a8.8 8.8 0 0 1 1.211-1.703c.148-.229.273-.434.406-.602.085-.128.13-.2.188-.274a1.8 1.8 0 0 1 .266-.311.9.9 0 0 1 .292-.193c.029-.012.059-.025.093-.026l.051-.006c.006-.001.024-.002.02-.003l-.049-.001a2.4 2.4 0 0 1-.418-.04 1.3 1.3 0 0 1-.301-.052c.044-.068.53.038.379-.079a2 2 0 0 1-.482-.152c-.156-.08-.187-.094-.501-.348a4.4 4.4 0 0 1-1.158-1.512 3.7 3.7 0 0 1-.349-1.563c-.004-.424.004-.651-.07-.775-.067-1.648-.237-.686-.314-1.734.031.05.092.148.096-.156l-.197-1.244c.071-.504.137 1.145.222-.258-.148-2.399-.249-3.807-.154-5.812-.047-2.853-.393 1.222-.354-1.188.161-.355.353-.667.377-2.172-.056-.374-.111-.641-.131-.926-.014-.298-.033-.7.246-1.52l.19.191C-3.961 1.189-2.743.401-2.654.578a3.03 3.03 0 0 1 1.611-.602c.281-.021.385-.005.562-.004l.435.025c.948-.066.599-.191-.042-.312l-.52-.089c-.097-.014-.167-.03-.286-.04l-.405-.014a4.4 4.4 0 0 0-1.129.19A4.3 4.3 0 0 1-1.41-.501c.167-.02.333-.016.494-.02.149.001.218.011.328.014l1.112.051c.688.033 1.276.081 1.807.23L.682-.16c3.52.306 3.338-.35 4.969.174-1.206-.019-2.654.113-1.942.249L5.455.135c.206.066-.998.046-.197.122a40 40 0 0 0 1.968-.264l-.023.015 2.896-.038c-.364.016-.387.079.114.088l2.067-.13c-.632.062.015.138.943.179 2.663.074 2.132-.556 4.199-.305-.301-.005-.35.026-.654.021l1.062.11c.225-.524 6.263-.053 6.491-.578 1.514.212.106.126-1.84.374l1.612.151c-.654.02-1.203-.02-1.904.031 2.116.221 4.107-.058 5.252-.195.808.076-.635.394 1.668.308.421-.009.658-.039.985-.03.282.004.449.036.538.027.174.007.037-.089-.178-.171-.211-.097-.5-.142-.554-.185-.057-.02.137-.111.858.037A3.9 3.9 0 0 1 32.336.893c1.255 1.063 1.648 2.54 1.616 3.776l-.097 3.086c.022.476.05.709.079.826-.117 2.239.266 4.693.177 6.382" clip-path="url(#I)" style="fill:#009539;fill-opacity:1;fill-rule:nonzero;stroke:none" transform="matrix(.35278 0 0 -.35278 1.82 36.709)"></path><path d="M0 0c.116-.437.151-.419.142-.208C.101-.18.059-.146 0 0" clip-path="url(#J)" style="fill:#009539;fill-opacity:1;fill-rule:nonzero;stroke:none" transform="matrix(.35278 0 0 -.35278 .227 27.32)"></path><path d="m0 0 .032.147C.02.135.009.114-.002.073Z" clip-path="url(#K)" style="fill:#009539;fill-opacity:1;fill-rule:nonzero;stroke:none" transform="matrix(.35278 0 0 -.35278 13.792 33.708)"></path><path d="M0 0a6 6 0 0 0-.51.698C-.161.113-.027-.044 0 0" clip-path="url(#L)" style="fill:#009539;fill-opacity:1;fill-rule:nonzero;stroke:none" transform="matrix(.35278 0 0 -.35278 4.606 20.824)"></path><path d="M0 0a10.4 10.4 0 0 1-.636-1.422c.137.338.277.676.446 1 .056.144.124.282.19.422" clip-path="url(#M)" style="fill:#009539;fill-opacity:1;fill-rule:nonzero;stroke:none" transform="matrix(.35278 0 0 -.35278 1.067 9.58)"></path><path d="M0 0c.045.016.034.014.086.023-.102.005-.237.005-.421.022.063-.015.123-.014.179-.022C-.299.014-.438.018-.571-.002Z" clip-path="url(#N)" style="fill:#009539;fill-opacity:1;fill-rule:nonzero;stroke:none" transform="matrix(.35278 0 0 -.35278 1.608 14.835)"></path><path d="M0 0c.944 1.439-.223-.021-.315-.239-.684-2.463.05.196.315.239" clip-path="url(#O)" style="fill:#009539;fill-opacity:1;fill-rule:nonzero;stroke:none" transform="matrix(.35278 0 0 -.35278 .46 15.572)"></path><path d="M0 0c-1.814.088-.256.25-2.259.383-.582-.195.056-.211 1.247-.445C-1.482.072.457-.146 0 0" clip-path="url(#P)" style="fill:#009539;fill-opacity:1;fill-rule:nonzero;stroke:none" transform="matrix(.35278 0 0 -.35278 5.724 24.906)"></path><path d="M0 0c.1-.028.262-.065.607-.129z" clip-path="url(#Q)" style="fill:#009539;fill-opacity:1;fill-rule:nonzero;stroke:none" transform="matrix(.35278 0 0 -.35278 5.367 24.928)"></path><path d="m0 0 .029-.143a4.6 4.6 0 0 1 1.061-.9C.418-.528.22-.174 0 0" clip-path="url(#R)" style="fill:#009539;fill-opacity:1;fill-rule:nonzero;stroke:none" transform="matrix(.35278 0 0 -.35278 .314 36.183)"></path><path d="m0 0 .262.222-.563-.227Z" clip-path="url(#S)" style="fill:#009539;fill-opacity:1;fill-rule:nonzero;stroke:none" transform="matrix(.35278 0 0 -.35278 6.725 36.82)"></path><path d="M0 0c.602.01 1.306-.041 1.905-.032C2.067.251 1.306-.041 0 0" clip-path="url(#T)" style="fill:#009539;fill-opacity:1;fill-rule:nonzero;stroke:none" transform="matrix(.35278 0 0 -.35278 11.23 36.912)"></path><path d="m0 0 .08-.171C.07-.087.124-.001 0 0" clip-path="url(#U)" style="fill:#009539;fill-opacity:1;fill-rule:nonzero;stroke:none" transform="matrix(.35278 0 0 -.35278 6.727 .08)"></path><path d="M0 0h-.006C-.016-.027-.019-.033 0 0" clip-path="url(#V)" style="fill:#009539;fill-opacity:1;fill-rule:nonzero;stroke:none" transform="matrix(.35278 0 0 -.35278 8.493 2.686)"></path><path d="m0 0 .014.016C-.036.058-.064.07 0 0" clip-path="url(#W)" style="fill:#009539;fill-opacity:1;fill-rule:nonzero;stroke:none" transform="matrix(.35278 0 0 -.35278 5.149 .352)"></path><path d="m0 0 .006-.01.008.008z" clip-path="url(#X)" style="fill:#009539;fill-opacity:1;fill-rule:nonzero;stroke:none" transform="matrix(.35278 0 0 -.35278 9.865 1.748)"></path><path d="m0 0-.622-.152.483-.076c-.044.074-.07.13.139.228" clip-path="url(#Y)" style="fill:#009539;fill-opacity:1;fill-rule:nonzero;stroke:none" transform="matrix(.35278 0 0 -.35278 9.914 1.668)"></path><path d="M0 0c-.08-.061-.121-.164-.174.05C-.14.16-.047.039 0 0m3.788-1.144c-.082.01-.128.043-.157.09.098.006.17-.018.157-.09m-15.699-3.189c.097-.003.24-.058.265-.166l-.148-.041.115-.044c.002-.164-.212.048-.21-.116.213-.045.222-.213.248-.475.034-.238.102-.488.309-.511-.254-.235-.15.372-.376.152.063-.057.122-.074.187-.201l-.19-.007c.343-.632.622-.737 1.003-1.159l.009.045c.197-.081.261-.16.252-.347.082.05-.016.164.092.185.018-.293.243-.314.425-.277.19.036.34.117.403-.064.04.159.141.307.229.451.116-.02.233-.036.354-.036h5.064c.014-.002.028-.002.041-.016.012.004.015.011.021.016h.213q.002-.006.005-.012c.006.007.012.006.017.012h.23a.24.24 0 0 0 .068-.142c.043.037-.003.098-.008.142h.015l.148-.088c.005.035-.008.059-.012.088h1.162c.017-.055.079-.105.121-.154.296.151.807.054 1.009.154h.889a.9.9 0 0 0 .079-.335c-.123.095-.369.287-.407.05.123-.095.335-.154.346-.307.127.274-.232.082-.065.309.086-.006.123-.095.163-.142-.057.114.078.191.104.254.279.003.44.122.74.146l.009.025h.183c.102-.156.186-.371.149-.485.172-.012.181.118.328.043-.234-.245.045.04.07-.223.15-.032.052.127.121.188a.4.4 0 0 0 .089-.187c.081.176-.106.443-.081.664h.215l-.001-.099.045-.001-.011.103c.076.002.148.014.221.023.041-.341.057-.747-.026-.932.032-.156.187.185.265.215.189.288.434-.094.621.083l-.205.071c.014.065.324.112.413.062-.04.077-.337.332-.304.463.243.163.786.009.955-.186a2.7 2.7 0 0 0-.649-.131c.087-.209.477.043.612-.167q.227.22.399.475c-.055-.057-.262-.175-.282-.026.178.169.062.121.092.304a1.8 1.8 0 0 0-.762.131c-.043.017-.077.041-.118.061q.134.104.248.229c.283-.101.581-.207.716-.222.075.202-.365.386-.455.407.136.267.752-.02.833.402.019-.059.03-.118.045-.179.086.079.077.458.15.401-.106.112-.384.217-.473.152.161.078.32.177.467.295-.049-.052-.417.001-.484-.016-.007.125.434.203.495.132-.268.213-.122.16-.436.333.026.063.394-.006.434-.052.099.143.052.226.012.294-.11-.164-.467-.131-.77-.111v.159l.762.35a5 5 0 0 0-.463-.055c.329.043.372.623.326.907l-.002-.042c-.115-.05-.201.169-.093.303-.066-.021-.043-.054-.046-.099-.252.198.485.354.149.578.071-.229-.058-.289-.188-.291.105.195-.133.571.256.601-.12.097-.114.22-.292.135.011.17.01.349-.015.53-.015-.054-.097-.137-.191-.036.195-.207-.035-.572.239-.601-.224-.083-.37-.056-.526-.218-.022.391.181.815.159 1.26a2.5 2.5 0 0 1-.452.185l.052.098-.226-.175c-.005.082-.003.149-.027.133-.022-.015-.03-.052-.037-.098a.25.25 0 0 0-.052.112c-.091-.115-.114-.29-.15-.453q.083.035.171.063a.44.44 0 0 0-.108-.233q-.042.037-.087.071l.024.099-.053-.024.005-.054q-.023.018-.044.034l.039.02c-.027.238-.142.541.108.621a4 4 0 0 1-.294-.037c-.174.355-.14.298-.479.577-.036-.091.048-.187-.031-.245-.107.178-.298.105-.432.012-.126-.091-.195-.193-.222-.056-.165.067-.069.238-.173.314.005-.03.014-.091-.016-.096l-.124.197c-.051-.07.114-.137-.026-.221-.24.147-.381.248-.582.154-.285.046.123.393-.119.353C.834.241.803.05.652.025.573.136.583.262.448.334L.457.086C.332.097.232.143.231-.044.129.062.058.043.005.003c-.19.131.139.502.183.599C.002.416-.127.524-.233.227L-.068.16C-.42-.146-.402.51-.565-.014c.12.019.265-.112.194-.248l-.175.127c-.02-.066.1-.046.02-.121-.05.054-.152.181-.197.263l.002-.015-.315.042c.06.01.075-.081.014-.092l-.207.13c.064-.062-.001-.138-.094-.178-.266-.075-.213.555-.42.304.03.005.035-.025.066-.02l-.107-.111c-.022.525-.626.054-.649.578-.152-.212-.011-.126.184-.374l-.161-.15c.065-.021.12.019.19-.032-.212-.221-.411.058-.525.195-.081-.076.063-.394-.167-.307-.326.102.062.382-.134.444l-.142-.272c-.249.208-.436.022-.646-.012a.15.15 0 0 0-.083.079c-.224-.117-.469.266-.638.177.039-.056-.097-.171-.117-.237l-.305.168c.135-.071.129-.228.154-.379-.096.016-.14.102-.205.122.039-.055.079-.112.029-.182l-.32.259c.019.026.056.036.086.043-.079.002-.252.1-.367-.027.01-.06.05-.116.059-.177.096.172.151.025.201-.091-.221.026-.055-.04-.161-.151-.156.006-.22.213-.179.344-.176-.059-.232-.1-.411.057l.034-.212-.165.067.134-.258c-.317-.145-.058.363-.41.244l-.001-.187c-.135.072-.182.386-.287.163-.131.112.225.263-.084.301a.55.55 0 0 0-.26-.204c-.098.084.075.22.138.195-.465.088-.288-.637-.704-.392.142.134-.119.36.218.355-.161.11-.317-.27-.485-.067l.11-.238c-.061-.005-.129.082-.162.111l.014-.184c-.207.322-.386-.152-.509.269.086-.331-.155.02-.237-.11.171-.233.489.006.512-.3-.079-.092-.15.058-.227-.032a.56.56 0 0 0 .152-.189c-.262-.173-.412.185-.571.265l.281-.071c-.023.306-.126.052-.205.292-.119-.162-.3.07-.45-.045.042.008.047-.025.088-.019-.434-.041-.405-.571-.523-.615-.109-.073-.413-.043-.387.115-.153.036.504.114.162.4-.036-.254-.146-.259-.316-.275-.159-.019-.386-.063-.481-.35.265.012.077-.273.292-.252-.179-.109-.234-.064-.394-.049l.06-.146c-.43-.024-.271.152-.682-.168.179.083.082-.269.232-.212a.55.55 0 0 0-.252-.265l.025.009c-.224-.438.051-.404-.158-.801l-.084.05a1.3 1.3 0 0 1-.081-.223 1.4 1.4 0 0 1-.043-.177 3 3 0 0 1-.029-.367c-.005-.247.006-.496-.048-.721l-.07.158c.044-.048-.137-.302-.002-.442.008.028.047.076.035.102" clip-path="url(#Z)" style="fill:#009539;fill-opacity:1;fill-rule:nonzero;stroke:none" transform="matrix(.35278 0 0 -.35278 8.139 .228)"></path><path d="M0 0a.3.3 0 0 0 .076.072C.015.07-.003.039 0 0" clip-path="url(#aa)" style="fill:#009539;fill-opacity:1;fill-rule:nonzero;stroke:none" transform="matrix(.35278 0 0 -.35278 9.36 .472)"></path><path d="M0 0a.2.2 0 0 1 .007-.034l.008.003z" clip-path="url(#ab)" style="fill:#009539;fill-opacity:1;fill-rule:nonzero;stroke:none" transform="matrix(.35278 0 0 -.35278 6.755 .14)"></path><path d="M0 0a.2.2 0 0 0-.086-.096c.068.012.088.05.086.096" clip-path="url(#ac)" style="fill:#009539;fill-opacity:1;fill-rule:nonzero;stroke:none" transform="matrix(.35278 0 0 -.35278 8.826 2.911)"></path><path d="m0 0-.11-.014-.045-.04z" clip-path="url(#ad)" style="fill:#009539;fill-opacity:1;fill-rule:nonzero;stroke:none" transform="matrix(.35278 0 0 -.35278 7.266 2.678)"></path><path d="m0 0-.005.24C-.031.176-.034.133-.08.093Z" clip-path="url(#ae)" style="fill:#009539;fill-opacity:1;fill-rule:nonzero;stroke:none" transform="matrix(.35278 0 0 -.35278 7.842 2.833)"></path><path d="M0 0c.215-.015-.014.109-.031.176C-.187.121-.017.066 0 0" clip-path="url(#af)" style="fill:#009539;fill-opacity:1;fill-rule:nonzero;stroke:none" transform="matrix(.35278 0 0 -.35278 8 2.882)"></path><path d="M0 0c.03.286.22-.081.274.235-.2.187-.186.073-.353-.024C.027.229-.112-.007 0 0" clip-path="url(#ag)" style="fill:#009539;fill-opacity:1;fill-rule:nonzero;stroke:none" transform="matrix(.35278 0 0 -.35278 9.757 2.514)"></path><path d="m0 0-.01.061-.101-.141C-.05-.07-.02-.065 0 0" clip-path="url(#ah)" style="fill:#009539;fill-opacity:1;fill-rule:nonzero;stroke:none" transform="matrix(.35278 0 0 -.35278 8.269 .07)"></path><path d="m0 0-.026-.222.056.227Z" clip-path="url(#ai)" style="fill:#009539;fill-opacity:1;fill-rule:nonzero;stroke:none" transform="matrix(.35278 0 0 -.35278 7.648 .115)"></path><path d="M0 0c-.06-.01-.131.041-.191.031C-.207-.251-.131.041 0 0" clip-path="url(#aj)" style="fill:#009539;fill-opacity:1;fill-rule:nonzero;stroke:none" transform="matrix(.35278 0 0 -.35278 7.197 .025)"></path></svg>