<svg xmlns:inkscape="http://www.inkscape.org/namespaces/inkscape" xmlns:sodipodi="http://sodipodi.sourceforge.net/DTD/sodipodi-0.dtd" xmlns="http://www.w3.org/2000/svg" xmlns:svg="http://www.w3.org/2000/svg" width="57.702446mm" height="57.702446mm" viewBox="0 0 57.702446 57.702445" id="svg1" inkscape:version="1.3.2 (091e20e, 2023-11-25)" sodipodi:docname="cap-06.svg"><defs id="defs1"><clipPath clipPathUnits="userSpaceOnUse" id="clipPath9"><path d="M 0,4608.17 H 1920 V 0 H 0 Z" transform="translate(-989.99335,-4095.0851)" id="path9"></path></clipPath><clipPath clipPathUnits="userSpaceOnUse" id="clipPath11"><path d="M 0,4608.17 H 1920 V 0 H 0 Z" transform="translate(-989.98195,-4019.5111)" id="path11"></path></clipPath><clipPath clipPathUnits="userSpaceOnUse" id="clipPath13"><path d="M 0,4608.17 H 1920 V 0 H 0 Z" transform="translate(-1032.3027,-4045.1039)" id="path13"></path></clipPath><clipPath clipPathUnits="userSpaceOnUse" id="clipPath118"><path d="M 0,4608.17 H 1920 V 0 H 0 Z" transform="translate(-268.59561,-2115.1905)" id="path118"></path></clipPath><clipPath clipPathUnits="userSpaceOnUse" id="clipPath125"><path d="M 0,4608.17 H 1920 V 0 H 0 Z" transform="translate(-1195.5615,-2115.1905)" id="path125"></path></clipPath><clipPath clipPathUnits="userSpaceOnUse" id="clipPath134"><path d="M 0,4608.17 H 1920 V 0 H 0 Z" transform="translate(-268.59561,-1821.2369)" id="path134"></path></clipPath><clipPath clipPathUnits="userSpaceOnUse" id="clipPath140"><path d="M 0,4608.17 H 1920 V 0 H 0 Z" transform="translate(-1195.5615,-1814.237)" id="path140"></path></clipPath><clipPath clipPathUnits="userSpaceOnUse" id="clipPath142"><path d="M 0,4608.17 H 1920 V 0 H 0 Z" transform="translate(-896.58025,-1402.7468)" id="path142"></path></clipPath><clipPath clipPathUnits="userSpaceOnUse" id="clipPath146"><path d="M 0,4608.17 H 1920 V 0 H 0 Z" transform="translate(-268.59561,-1520.2835)" id="path146"></path></clipPath><clipPath clipPathUnits="userSpaceOnUse" id="clipPath165"><path d="M 0,4608.17 H 1920 V 0 H 0 Z" transform="translate(-224.56741,-1566.0218)" id="path165"></path></clipPath><clipPath clipPathUnits="userSpaceOnUse" id="clipPath167"><path d="M 0,4608.17 H 1920 V 0 H 0 Z" transform="translate(-212.09281,-1555.5789)" id="path167"></path></clipPath><clipPath clipPathUnits="userSpaceOnUse" id="clipPath169"><path d="M 0,4608.17 H 1920 V 0 H 0 Z" transform="translate(-234.79711,-2086.4735)" id="path169"></path></clipPath><clipPath clipPathUnits="userSpaceOnUse" id="clipPath171"><path d="M 0,4608.17 H 1920 V 0 H 0 Z" transform="translate(-169.5307,-2142.9774)" id="path171"></path></clipPath><clipPath clipPathUnits="userSpaceOnUse" id="clipPath273"><path d="M 0,4608.17 H 1920 V 0 H 0 Z" transform="translate(0,2.5000001e-5)" id="path273"></path></clipPath><clipPath clipPathUnits="userSpaceOnUse" id="clipPath275"><path d="M 0,4608.17 H 1920 V 0 H 0 Z" transform="translate(-147.6774,-1836.3635)" id="path275"></path></clipPath><clipPath clipPathUnits="userSpaceOnUse" id="clipPath277"><path d="M 0,4608.17 H 1920 V 0 H 0 Z" transform="translate(-147.6774,-1827.5924)" id="path277"></path></clipPath><clipPath clipPathUnits="userSpaceOnUse" id="clipPath279"><path d="M 0,4608.17 H 1920 V 0 H 0 Z" transform="translate(-147.6774,-1818.8217)" id="path279"></path></clipPath><clipPath clipPathUnits="userSpaceOnUse" id="clipPath281"><path d="M 0,4608.17 H 1920 V 0 H 0 Z" transform="translate(-147.6774,-1810.0509)" id="path281"></path></clipPath><clipPath clipPathUnits="userSpaceOnUse" id="clipPath283"><path d="M 0,4608.17 H 1920 V 0 H 0 Z" transform="translate(-219.1138,-1838.4498)" id="path283"></path></clipPath><clipPath clipPathUnits="userSpaceOnUse" id="clipPath285"><path d="M 0,4608.17 H 1920 V 0 H 0 Z" transform="translate(-219.1138,-1829.6792)" id="path285"></path></clipPath><clipPath clipPathUnits="userSpaceOnUse" id="clipPath287"><path d="M 0,4608.17 H 1920 V 0 H 0 Z" transform="translate(-219.1138,-1820.9058)" id="path287"></path></clipPath><clipPath clipPathUnits="userSpaceOnUse" id="clipPath289"><path d="M 0,4608.17 H 1920 V 0 H 0 Z" transform="translate(-219.1138,-1812.1349)" id="path289"></path></clipPath><clipPath clipPathUnits="userSpaceOnUse" id="clipPath291"><path d="M 0,4608.17 H 1920 V 0 H 0 Z" transform="translate(-1144.0974,-1788.8369)" id="path291"></path></clipPath><clipPath clipPathUnits="userSpaceOnUse" id="clipPath293"><path d="M 0,4608.17 H 1920 V 0 H 0 Z" transform="translate(-1091.1499,-2159.6766)" id="path293"></path></clipPath><clipPath clipPathUnits="userSpaceOnUse" id="clipPath295"><path d="M 0,4608.17 H 1920 V 0 H 0 Z" transform="translate(-1091.1499,-2119.2456)" id="path295"></path></clipPath><clipPath clipPathUnits="userSpaceOnUse" id="clipPath297"><path d="M 0,4608.17 H 1920 V 0 H 0 Z" transform="translate(-1101.0033,-2140.8617)" id="path297"></path></clipPath><clipPath clipPathUnits="userSpaceOnUse" id="clipPath299"><path d="M 0,4608.17 H 1920 V 0 H 0 Z" transform="translate(-1084.3702,-2122.0553)" id="path299"></path></clipPath><clipPath clipPathUnits="userSpaceOnUse" id="clipPath301"><path d="M 0,4608.17 H 1920 V 0 H 0 Z" transform="translate(-1121.3557,-2132.5458)" id="path301"></path></clipPath><clipPath clipPathUnits="userSpaceOnUse" id="clipPath303"><path d="M 0,4608.17 H 1920 V 0 H 0 Z" transform="translate(-1065.5565,-2134.0818)" id="path303"></path></clipPath><clipPath clipPathUnits="userSpaceOnUse" id="clipPath305"><path d="M 0,4608.17 H 1920 V 0 H 0 Z" transform="translate(-1072.4154,-2152.8177)" id="path305"></path></clipPath><clipPath clipPathUnits="userSpaceOnUse" id="clipPath307"><path d="M 0,4608.17 H 1920 V 0 H 0 Z" transform="translate(-1132.7697,-2096.9676)" id="path307"></path></clipPath><clipPath clipPathUnits="userSpaceOnUse" id="clipPath134-5"><path d="M 0,4608.17 H 1920 V 0 H 0 Z" transform="translate(-268.59561,-1821.2369)" id="path134-4"></path></clipPath><clipPath clipPathUnits="userSpaceOnUse" id="clipPath140-3"><path d="M 0,4608.17 H 1920 V 0 H 0 Z" transform="translate(-1195.5615,-1814.237)" id="path140-6"></path></clipPath><clipPath clipPathUnits="userSpaceOnUse" id="clipPath146-5"><path d="M 0,4608.17 H 1920 V 0 H 0 Z" transform="translate(-268.59561,-1520.2835)" id="path146-9"></path></clipPath><clipPath clipPathUnits="userSpaceOnUse" id="clipPath165-5"><path d="M 0,4608.17 H 1920 V 0 H 0 Z" transform="translate(-224.56741,-1566.0218)" id="path165-4"></path></clipPath><clipPath clipPathUnits="userSpaceOnUse" id="clipPath167-9"><path d="M 0,4608.17 H 1920 V 0 H 0 Z" transform="translate(-212.09281,-1555.5789)" id="path167-1"></path></clipPath><clipPath clipPathUnits="userSpaceOnUse" id="clipPath273-7"><path d="M 0,4608.17 H 1920 V 0 H 0 Z" transform="translate(0,2.5000001e-5)" id="path273-5"></path></clipPath><clipPath clipPathUnits="userSpaceOnUse" id="clipPath275-5"><path d="M 0,4608.17 H 1920 V 0 H 0 Z" transform="translate(-147.6774,-1836.3635)" id="path275-4"></path></clipPath><clipPath clipPathUnits="userSpaceOnUse" id="clipPath277-1"><path d="M 0,4608.17 H 1920 V 0 H 0 Z" transform="translate(-147.6774,-1827.5924)" id="path277-8"></path></clipPath><clipPath clipPathUnits="userSpaceOnUse" id="clipPath279-8"><path d="M 0,4608.17 H 1920 V 0 H 0 Z" transform="translate(-147.6774,-1818.8217)" id="path279-3"></path></clipPath><clipPath clipPathUnits="userSpaceOnUse" id="clipPath281-5"><path d="M 0,4608.17 H 1920 V 0 H 0 Z" transform="translate(-147.6774,-1810.0509)" id="path281-2"></path></clipPath><clipPath clipPathUnits="userSpaceOnUse" id="clipPath283-2"><path d="M 0,4608.17 H 1920 V 0 H 0 Z" transform="translate(-219.1138,-1838.4498)" id="path283-6"></path></clipPath><clipPath clipPathUnits="userSpaceOnUse" id="clipPath285-6"><path d="M 0,4608.17 H 1920 V 0 H 0 Z" transform="translate(-219.1138,-1829.6792)" id="path285-7"></path></clipPath><clipPath clipPathUnits="userSpaceOnUse" id="clipPath287-8"><path d="M 0,4608.17 H 1920 V 0 H 0 Z" transform="translate(-219.1138,-1820.9058)" id="path287-4"></path></clipPath><clipPath clipPathUnits="userSpaceOnUse" id="clipPath289-1"><path d="M 0,4608.17 H 1920 V 0 H 0 Z" transform="translate(-219.1138,-1812.1349)" id="path289-7"></path></clipPath><clipPath clipPathUnits="userSpaceOnUse" id="clipPath291-1"><path d="M 0,4608.17 H 1920 V 0 H 0 Z" transform="translate(-1144.0974,-1788.8369)" id="path291-8"></path></clipPath><clipPath clipPathUnits="userSpaceOnUse" id="clipPath125-7"><path d="M 0,4608.17 H 1920 V 0 H 0 Z" transform="translate(-1195.5615,-2115.1905)" id="path125-8"></path></clipPath><clipPath clipPathUnits="userSpaceOnUse" id="clipPath293-7"><path d="M 0,4608.17 H 1920 V 0 H 0 Z" transform="translate(-1091.1499,-2159.6766)" id="path293-7"></path></clipPath><clipPath clipPathUnits="userSpaceOnUse" id="clipPath295-4"><path d="M 0,4608.17 H 1920 V 0 H 0 Z" transform="translate(-1091.1499,-2119.2456)" id="path295-4"></path></clipPath><clipPath clipPathUnits="userSpaceOnUse" id="clipPath297-9"><path d="M 0,4608.17 H 1920 V 0 H 0 Z" transform="translate(-1101.0033,-2140.8617)" id="path297-1"></path></clipPath><clipPath clipPathUnits="userSpaceOnUse" id="clipPath299-5"><path d="M 0,4608.17 H 1920 V 0 H 0 Z" transform="translate(-1084.3702,-2122.0553)" id="path299-5"></path></clipPath><clipPath clipPathUnits="userSpaceOnUse" id="clipPath301-5"><path d="M 0,4608.17 H 1920 V 0 H 0 Z" transform="translate(-1121.3557,-2132.5458)" id="path301-8"></path></clipPath><clipPath clipPathUnits="userSpaceOnUse" id="clipPath303-2"><path d="M 0,4608.17 H 1920 V 0 H 0 Z" transform="translate(-1065.5565,-2134.0818)" id="path303-9"></path></clipPath><clipPath clipPathUnits="userSpaceOnUse" id="clipPath305-8"><path d="M 0,4608.17 H 1920 V 0 H 0 Z" transform="translate(-1072.4154,-2152.8177)" id="path305-2"></path></clipPath><clipPath clipPathUnits="userSpaceOnUse" id="clipPath307-0"><path d="M 0,4608.17 H 1920 V 0 H 0 Z" transform="translate(-1132.7697,-2096.9676)" id="path307-7"></path></clipPath><clipPath clipPathUnits="userSpaceOnUse" id="clipPath134-5-7"><path d="M 0,4608.17 H 1920 V 0 H 0 Z" transform="translate(-268.59561,-1821.2369)" id="path134-4-1"></path></clipPath><clipPath clipPathUnits="userSpaceOnUse" id="clipPath140-3-5"><path d="M 0,4608.17 H 1920 V 0 H 0 Z" transform="translate(-1195.5615,-1814.237)" id="path140-6-2"></path></clipPath><clipPath clipPathUnits="userSpaceOnUse" id="clipPath146-5-1"><path d="M 0,4608.17 H 1920 V 0 H 0 Z" transform="translate(-268.59561,-1520.2835)" id="path146-9-1"></path></clipPath><clipPath clipPathUnits="userSpaceOnUse" id="clipPath165-5-0"><path d="M 0,4608.17 H 1920 V 0 H 0 Z" transform="translate(-224.56741,-1566.0218)" id="path165-4-1"></path></clipPath><clipPath clipPathUnits="userSpaceOnUse" id="clipPath167-9-8"><path d="M 0,4608.17 H 1920 V 0 H 0 Z" transform="translate(-212.09281,-1555.5789)" id="path167-1-7"></path></clipPath><clipPath clipPathUnits="userSpaceOnUse" id="clipPath273-7-6"><path d="M 0,4608.17 H 1920 V 0 H 0 Z" transform="translate(0,2.5000001e-5)" id="path273-5-0"></path></clipPath><clipPath clipPathUnits="userSpaceOnUse" id="clipPath275-5-0"><path d="M 0,4608.17 H 1920 V 0 H 0 Z" transform="translate(-147.6774,-1836.3635)" id="path275-4-9"></path></clipPath><clipPath clipPathUnits="userSpaceOnUse" id="clipPath277-1-5"><path d="M 0,4608.17 H 1920 V 0 H 0 Z" transform="translate(-147.6774,-1827.5924)" id="path277-8-6"></path></clipPath><clipPath clipPathUnits="userSpaceOnUse" id="clipPath279-8-2"><path d="M 0,4608.17 H 1920 V 0 H 0 Z" transform="translate(-147.6774,-1818.8217)" id="path279-3-8"></path></clipPath><clipPath clipPathUnits="userSpaceOnUse" id="clipPath281-5-5"><path d="M 0,4608.17 H 1920 V 0 H 0 Z" transform="translate(-147.6774,-1810.0509)" id="path281-2-9"></path></clipPath><clipPath clipPathUnits="userSpaceOnUse" id="clipPath283-2-4"><path d="M 0,4608.17 H 1920 V 0 H 0 Z" transform="translate(-219.1138,-1838.4498)" id="path283-6-3"></path></clipPath><clipPath clipPathUnits="userSpaceOnUse" id="clipPath285-6-9"><path d="M 0,4608.17 H 1920 V 0 H 0 Z" transform="translate(-219.1138,-1829.6792)" id="path285-7-0"></path></clipPath><clipPath clipPathUnits="userSpaceOnUse" id="clipPath287-8-5"><path d="M 0,4608.17 H 1920 V 0 H 0 Z" transform="translate(-219.1138,-1820.9058)" id="path287-4-6"></path></clipPath><clipPath clipPathUnits="userSpaceOnUse" id="clipPath289-1-3"><path d="M 0,4608.17 H 1920 V 0 H 0 Z" transform="translate(-219.1138,-1812.1349)" id="path289-7-6"></path></clipPath><clipPath clipPathUnits="userSpaceOnUse" id="clipPath291-1-3"><path d="M 0,4608.17 H 1920 V 0 H 0 Z" transform="translate(-1144.0974,-1788.8369)" id="path291-8-0"></path></clipPath><clipPath clipPathUnits="userSpaceOnUse" id="clipPath134-5-7-0"><path d="M 0,4608.17 H 1920 V 0 H 0 Z" transform="translate(-268.59561,-1821.2369)" id="path134-4-1-9"></path></clipPath><clipPath clipPathUnits="userSpaceOnUse" id="clipPath146-5-1-3"><path d="M 0,4608.17 H 1920 V 0 H 0 Z" transform="translate(-268.59561,-1520.2835)" id="path146-9-1-7"></path></clipPath><clipPath clipPathUnits="userSpaceOnUse" id="clipPath165-5-0-5"><path d="M 0,4608.17 H 1920 V 0 H 0 Z" transform="translate(-224.56741,-1566.0218)" id="path165-4-1-7"></path></clipPath><clipPath clipPathUnits="userSpaceOnUse" id="clipPath167-9-8-2"><path d="M 0,4608.17 H 1920 V 0 H 0 Z" transform="translate(-212.09281,-1555.5789)" id="path167-1-7-9"></path></clipPath><clipPath clipPathUnits="userSpaceOnUse" id="clipPath273-7-6-7"><path d="M 0,4608.17 H 1920 V 0 H 0 Z" transform="translate(0,2.5000001e-5)" id="path273-5-0-5"></path></clipPath><clipPath clipPathUnits="userSpaceOnUse" id="clipPath275-5-0-6"><path d="M 0,4608.17 H 1920 V 0 H 0 Z" transform="translate(-147.6774,-1836.3635)" id="path275-4-9-5"></path></clipPath><clipPath clipPathUnits="userSpaceOnUse" id="clipPath277-1-5-3"><path d="M 0,4608.17 H 1920 V 0 H 0 Z" transform="translate(-147.6774,-1827.5924)" id="path277-8-6-0"></path></clipPath><clipPath clipPathUnits="userSpaceOnUse" id="clipPath279-8-2-4"><path d="M 0,4608.17 H 1920 V 0 H 0 Z" transform="translate(-147.6774,-1818.8217)" id="path279-3-8-8"></path></clipPath><clipPath clipPathUnits="userSpaceOnUse" id="clipPath281-5-5-5"><path d="M 0,4608.17 H 1920 V 0 H 0 Z" transform="translate(-147.6774,-1810.0509)" id="path281-2-9-5"></path></clipPath><clipPath clipPathUnits="userSpaceOnUse" id="clipPath283-2-4-5"><path d="M 0,4608.17 H 1920 V 0 H 0 Z" transform="translate(-219.1138,-1838.4498)" id="path283-6-3-4"></path></clipPath><clipPath clipPathUnits="userSpaceOnUse" id="clipPath285-6-9-2"><path d="M 0,4608.17 H 1920 V 0 H 0 Z" transform="translate(-219.1138,-1829.6792)" id="path285-7-0-1"></path></clipPath><clipPath clipPathUnits="userSpaceOnUse" id="clipPath287-8-5-9"><path d="M 0,4608.17 H 1920 V 0 H 0 Z" transform="translate(-219.1138,-1820.9058)" id="path287-4-6-2"></path></clipPath><clipPath clipPathUnits="userSpaceOnUse" id="clipPath289-1-3-4"><path d="M 0,4608.17 H 1920 V 0 H 0 Z" transform="translate(-219.1138,-1812.1349)" id="path289-7-6-5"></path></clipPath><clipPath clipPathUnits="userSpaceOnUse" id="clipPath146-5-1-3-1"><path d="M 0,4608.17 H 1920 V 0 H 0 Z" transform="translate(-268.59561,-1520.2835)" id="path146-9-1-7-6"></path></clipPath><clipPath clipPathUnits="userSpaceOnUse" id="clipPath165-5-0-5-1"><path d="M 0,4608.17 H 1920 V 0 H 0 Z" transform="translate(-224.56741,-1566.0218)" id="path165-4-1-7-2"></path></clipPath><clipPath clipPathUnits="userSpaceOnUse" id="clipPath167-9-8-2-0"><path d="M 0,4608.17 H 1920 V 0 H 0 Z" transform="translate(-212.09281,-1555.5789)" id="path167-1-7-9-4"></path></clipPath></defs><g inkscape:label="Capa 1" inkscape:groupmode="layer" id="layer1" transform="translate(660.59154,434.35761)"><path id="path145" d="m 0,0 c 0,-45.168 -36.616,-81.783 -81.783,-81.783 -45.168,0 -81.783,36.615 -81.783,81.783 0,45.168 36.615,81.783 81.783,81.783 C -36.616,81.783 0,45.168 0,0" style="fill:#dbede2;fill-opacity:1;fill-rule:nonzero;stroke:none" transform="matrix(0.35277776,0,0,-0.35277776,-602.88909,-405.50639)" clip-path="url(#clipPath146-5-1-3-1)"></path><path id="path164" d="m 0,0 h -82.453 c -1.124,0 -2.037,0.913 -2.037,2.039 0,1.126 0.913,2.039 2.037,2.039 H 0 C 1.124,4.078 2.037,3.165 2.037,2.039 2.037,0.913 1.124,0 0,0 m -78.9,-48.15 v 43.466 c 0,0.735 0.18,1.419 0.479,2.039 h 76.182 c 0.299,-0.62 0.481,-1.304 0.481,-2.039 V -48.15 c 0,-0.732 -0.182,-1.419 -0.481,-2.039 h -76.182 c -0.299,0.62 -0.479,1.307 -0.479,2.039 m 80.937,-6.72 c 0,-1.125 -0.913,-2.038 -2.037,-2.038 h -82.453 c -1.124,0 -2.037,0.913 -2.037,2.038 0,1.123 0.913,2.039 2.037,2.039 H 0 c 1.124,0 2.037,-0.916 2.037,-2.039 m -22.321,-36.017 c 0.271,-0.26 0.273,-0.673 0.249,-0.894 -0.053,-0.5 -0.321,-1.033 -0.735,-1.463 -0.413,-0.431 -0.935,-0.718 -1.432,-0.791 -0.223,-0.031 -0.633,-0.047 -0.904,0.215 l -13.465,12.951 c -0.381,0.369 -0.944,0.472 -1.434,0.265 -0.487,-0.209 -0.803,-0.687 -0.803,-1.218 v -11.487 c 0,-1.237 -0.914,-2.245 -2.036,-2.245 -1.123,0 -2.036,1.008 -2.036,2.245 v 11.633 c 0,0.539 -0.327,1.025 -0.828,1.226 -0.159,0.067 -0.327,0.098 -0.493,0.098 -0.352,0 -0.698,-0.143 -0.954,-0.405 l -12.047,-12.524 c -0.221,-0.229 -0.602,-0.218 -0.807,-0.193 -0.497,0.065 -1.032,0.344 -1.469,0.763 -0.437,0.422 -0.735,0.944 -0.818,1.438 -0.035,0.207 -0.06,0.587 0.161,0.816 l 15.888,16.514 c 0.073,0.076 0.187,0.132 0.341,0.168 0.6,0.137 1.026,0.67 1.026,1.287 v 12.016 c 0,0.329 0.068,0.636 0.183,0.919 h 3.706 c 0.115,-0.283 0.183,-0.59 0.183,-0.919 V -72.82 c 0,-0.575 0.372,-1.083 0.919,-1.259 0.136,-0.042 0.239,-0.098 0.313,-0.171 z M 4.682,2.039 c 0,2.58 -2.1,4.684 -4.682,4.684 h -82.453 c -2.582,0 -4.682,-2.104 -4.682,-4.684 0,-2.528 2.017,-4.581 4.524,-4.667 -0.161,-0.659 -0.255,-1.346 -0.255,-2.056 V -48.15 c 0,-0.709 0.094,-1.394 0.255,-2.053 -2.507,-0.086 -4.524,-2.139 -4.524,-4.667 0,-2.583 2.1,-4.683 4.682,-4.683 h 37.018 c -0.053,-0.299 -0.088,-0.604 -0.088,-0.919 v -11.136 c -0.232,-0.139 -0.442,-0.307 -0.63,-0.503 l -15.888,-16.514 c -0.748,-0.776 -1.061,-1.902 -0.863,-3.086 0.178,-1.056 0.743,-2.089 1.592,-2.905 0.851,-0.818 1.902,-1.343 2.965,-1.48 1.191,-0.151 2.303,0.207 3.05,0.983 l 9.774,10.158 v -8.354 c 0,-2.695 2.099,-4.89 4.679,-4.89 2.581,0 4.678,2.195 4.678,4.89 v 8.382 l 11.227,-10.798 c 0.791,-0.762 1.927,-1.1 3.116,-0.927 1.084,0.16 2.134,0.718 2.958,1.573 0.826,0.857 1.343,1.929 1.458,3.019 0.127,1.195 -0.253,2.318 -1.045,3.077 l -17.292,16.638 c -0.13,0.126 -0.269,0.24 -0.422,0.341 v 11.532 c 0,0.315 -0.033,0.62 -0.088,0.919 H 0 c 2.582,0 4.682,2.1 4.682,4.683 0,1.922 -1.166,3.572 -2.826,4.296 0.223,0.771 0.35,1.583 0.35,2.424 v 43.466 c 0,0.844 -0.127,1.656 -0.35,2.427 1.66,0.721 2.826,2.374 2.826,4.296" style="fill:#16392c;fill-opacity:1;fill-rule:nonzero;stroke:none" transform="matrix(0.35277776,0,0,-0.35277776,-618.42126,-421.64185)" clip-path="url(#clipPath165-5-0-5-1)"></path><path id="path166" d="m 0,0 c -0.874,0.659 -2.117,0.483 -2.776,-0.391 l -12.001,-15.934 -16.001,8.002 c -0.894,0.447 -1.982,0.16 -2.536,-0.676 l -11.062,-16.592 h -11.935 c -1.095,0 -1.982,-0.886 -1.982,-1.983 0,-1.095 0.887,-1.983 1.982,-1.983 h 12.995 c 0.664,0 1.282,0.332 1.651,0.885 l 10.679,16.02 15.911,-7.957 c 0.855,-0.427 1.895,-0.184 2.47,0.581 L 0.391,-2.776 C 1.05,-1.902 0.874,-0.659 0,0" style="fill:#16392c;fill-opacity:1;fill-rule:nonzero;stroke:none" transform="matrix(0.35277776,0,0,-0.35277776,-622.82202,-417.95784)" clip-path="url(#clipPath167-9-8-2-0)"></path></g></svg>