<svg xmlns:inkscape="http://www.inkscape.org/namespaces/inkscape" xmlns:sodipodi="http://sodipodi.sourceforge.net/DTD/sodipodi-0.dtd" xmlns="http://www.w3.org/2000/svg" xmlns:svg="http://www.w3.org/2000/svg" width="57.702446mm" height="57.702446mm" viewBox="0 0 57.702446 57.702445" id="svg1" sodipodi:docname="cap-03.svg" inkscape:version="1.3.2 (091e20e, 2023-11-25)"><defs id="defs1"><clipPath clipPathUnits="userSpaceOnUse" id="clipPath9"><path d="M 0,4608.17 H 1920 V 0 H 0 Z" transform="translate(-989.99335,-4095.0851)" id="path9"></path></clipPath><clipPath clipPathUnits="userSpaceOnUse" id="clipPath11"><path d="M 0,4608.17 H 1920 V 0 H 0 Z" transform="translate(-989.98195,-4019.5111)" id="path11"></path></clipPath><clipPath clipPathUnits="userSpaceOnUse" id="clipPath13"><path d="M 0,4608.17 H 1920 V 0 H 0 Z" transform="translate(-1032.3027,-4045.1039)" id="path13"></path></clipPath><clipPath clipPathUnits="userSpaceOnUse" id="clipPath118"><path d="M 0,4608.17 H 1920 V 0 H 0 Z" transform="translate(-268.59561,-2115.1905)" id="path118"></path></clipPath><clipPath clipPathUnits="userSpaceOnUse" id="clipPath125"><path d="M 0,4608.17 H 1920 V 0 H 0 Z" transform="translate(-1195.5615,-2115.1905)" id="path125"></path></clipPath><clipPath clipPathUnits="userSpaceOnUse" id="clipPath134"><path d="M 0,4608.17 H 1920 V 0 H 0 Z" transform="translate(-268.59561,-1821.2369)" id="path134"></path></clipPath><clipPath clipPathUnits="userSpaceOnUse" id="clipPath140"><path d="M 0,4608.17 H 1920 V 0 H 0 Z" transform="translate(-1195.5615,-1814.237)" id="path140"></path></clipPath><clipPath clipPathUnits="userSpaceOnUse" id="clipPath142"><path d="M 0,4608.17 H 1920 V 0 H 0 Z" transform="translate(-896.58025,-1402.7468)" id="path142"></path></clipPath><clipPath clipPathUnits="userSpaceOnUse" id="clipPath146"><path d="M 0,4608.17 H 1920 V 0 H 0 Z" transform="translate(-268.59561,-1520.2835)" id="path146"></path></clipPath><clipPath clipPathUnits="userSpaceOnUse" id="clipPath165"><path d="M 0,4608.17 H 1920 V 0 H 0 Z" transform="translate(-224.56741,-1566.0218)" id="path165"></path></clipPath><clipPath clipPathUnits="userSpaceOnUse" id="clipPath167"><path d="M 0,4608.17 H 1920 V 0 H 0 Z" transform="translate(-212.09281,-1555.5789)" id="path167"></path></clipPath><clipPath clipPathUnits="userSpaceOnUse" id="clipPath169"><path d="M 0,4608.17 H 1920 V 0 H 0 Z" transform="translate(-234.79711,-2086.4735)" id="path169"></path></clipPath><clipPath clipPathUnits="userSpaceOnUse" id="clipPath171"><path d="M 0,4608.17 H 1920 V 0 H 0 Z" transform="translate(-169.5307,-2142.9774)" id="path171"></path></clipPath><clipPath clipPathUnits="userSpaceOnUse" id="clipPath273"><path d="M 0,4608.17 H 1920 V 0 H 0 Z" transform="translate(0,2.5000001e-5)" id="path273"></path></clipPath><clipPath clipPathUnits="userSpaceOnUse" id="clipPath275"><path d="M 0,4608.17 H 1920 V 0 H 0 Z" transform="translate(-147.6774,-1836.3635)" id="path275"></path></clipPath><clipPath clipPathUnits="userSpaceOnUse" id="clipPath277"><path d="M 0,4608.17 H 1920 V 0 H 0 Z" transform="translate(-147.6774,-1827.5924)" id="path277"></path></clipPath><clipPath clipPathUnits="userSpaceOnUse" id="clipPath279"><path d="M 0,4608.17 H 1920 V 0 H 0 Z" transform="translate(-147.6774,-1818.8217)" id="path279"></path></clipPath><clipPath clipPathUnits="userSpaceOnUse" id="clipPath281"><path d="M 0,4608.17 H 1920 V 0 H 0 Z" transform="translate(-147.6774,-1810.0509)" id="path281"></path></clipPath><clipPath clipPathUnits="userSpaceOnUse" id="clipPath283"><path d="M 0,4608.17 H 1920 V 0 H 0 Z" transform="translate(-219.1138,-1838.4498)" id="path283"></path></clipPath><clipPath clipPathUnits="userSpaceOnUse" id="clipPath285"><path d="M 0,4608.17 H 1920 V 0 H 0 Z" transform="translate(-219.1138,-1829.6792)" id="path285"></path></clipPath><clipPath clipPathUnits="userSpaceOnUse" id="clipPath287"><path d="M 0,4608.17 H 1920 V 0 H 0 Z" transform="translate(-219.1138,-1820.9058)" id="path287"></path></clipPath><clipPath clipPathUnits="userSpaceOnUse" id="clipPath289"><path d="M 0,4608.17 H 1920 V 0 H 0 Z" transform="translate(-219.1138,-1812.1349)" id="path289"></path></clipPath><clipPath clipPathUnits="userSpaceOnUse" id="clipPath291"><path d="M 0,4608.17 H 1920 V 0 H 0 Z" transform="translate(-1144.0974,-1788.8369)" id="path291"></path></clipPath><clipPath clipPathUnits="userSpaceOnUse" id="clipPath293"><path d="M 0,4608.17 H 1920 V 0 H 0 Z" transform="translate(-1091.1499,-2159.6766)" id="path293"></path></clipPath><clipPath clipPathUnits="userSpaceOnUse" id="clipPath295"><path d="M 0,4608.17 H 1920 V 0 H 0 Z" transform="translate(-1091.1499,-2119.2456)" id="path295"></path></clipPath><clipPath clipPathUnits="userSpaceOnUse" id="clipPath297"><path d="M 0,4608.17 H 1920 V 0 H 0 Z" transform="translate(-1101.0033,-2140.8617)" id="path297"></path></clipPath><clipPath clipPathUnits="userSpaceOnUse" id="clipPath299"><path d="M 0,4608.17 H 1920 V 0 H 0 Z" transform="translate(-1084.3702,-2122.0553)" id="path299"></path></clipPath><clipPath clipPathUnits="userSpaceOnUse" id="clipPath301"><path d="M 0,4608.17 H 1920 V 0 H 0 Z" transform="translate(-1121.3557,-2132.5458)" id="path301"></path></clipPath><clipPath clipPathUnits="userSpaceOnUse" id="clipPath303"><path d="M 0,4608.17 H 1920 V 0 H 0 Z" transform="translate(-1065.5565,-2134.0818)" id="path303"></path></clipPath><clipPath clipPathUnits="userSpaceOnUse" id="clipPath305"><path d="M 0,4608.17 H 1920 V 0 H 0 Z" transform="translate(-1072.4154,-2152.8177)" id="path305"></path></clipPath><clipPath clipPathUnits="userSpaceOnUse" id="clipPath307"><path d="M 0,4608.17 H 1920 V 0 H 0 Z" transform="translate(-1132.7697,-2096.9676)" id="path307"></path></clipPath><clipPath clipPathUnits="userSpaceOnUse" id="clipPath134-5"><path d="M 0,4608.17 H 1920 V 0 H 0 Z" transform="translate(-268.59561,-1821.2369)" id="path134-4"></path></clipPath><clipPath clipPathUnits="userSpaceOnUse" id="clipPath140-3"><path d="M 0,4608.17 H 1920 V 0 H 0 Z" transform="translate(-1195.5615,-1814.237)" id="path140-6"></path></clipPath><clipPath clipPathUnits="userSpaceOnUse" id="clipPath146-5"><path d="M 0,4608.17 H 1920 V 0 H 0 Z" transform="translate(-268.59561,-1520.2835)" id="path146-9"></path></clipPath><clipPath clipPathUnits="userSpaceOnUse" id="clipPath165-5"><path d="M 0,4608.17 H 1920 V 0 H 0 Z" transform="translate(-224.56741,-1566.0218)" id="path165-4"></path></clipPath><clipPath clipPathUnits="userSpaceOnUse" id="clipPath167-9"><path d="M 0,4608.17 H 1920 V 0 H 0 Z" transform="translate(-212.09281,-1555.5789)" id="path167-1"></path></clipPath><clipPath clipPathUnits="userSpaceOnUse" id="clipPath273-7"><path d="M 0,4608.17 H 1920 V 0 H 0 Z" transform="translate(0,2.5000001e-5)" id="path273-5"></path></clipPath><clipPath clipPathUnits="userSpaceOnUse" id="clipPath275-5"><path d="M 0,4608.17 H 1920 V 0 H 0 Z" transform="translate(-147.6774,-1836.3635)" id="path275-4"></path></clipPath><clipPath clipPathUnits="userSpaceOnUse" id="clipPath277-1"><path d="M 0,4608.17 H 1920 V 0 H 0 Z" transform="translate(-147.6774,-1827.5924)" id="path277-8"></path></clipPath><clipPath clipPathUnits="userSpaceOnUse" id="clipPath279-8"><path d="M 0,4608.17 H 1920 V 0 H 0 Z" transform="translate(-147.6774,-1818.8217)" id="path279-3"></path></clipPath><clipPath clipPathUnits="userSpaceOnUse" id="clipPath281-5"><path d="M 0,4608.17 H 1920 V 0 H 0 Z" transform="translate(-147.6774,-1810.0509)" id="path281-2"></path></clipPath><clipPath clipPathUnits="userSpaceOnUse" id="clipPath283-2"><path d="M 0,4608.17 H 1920 V 0 H 0 Z" transform="translate(-219.1138,-1838.4498)" id="path283-6"></path></clipPath><clipPath clipPathUnits="userSpaceOnUse" id="clipPath285-6"><path d="M 0,4608.17 H 1920 V 0 H 0 Z" transform="translate(-219.1138,-1829.6792)" id="path285-7"></path></clipPath><clipPath clipPathUnits="userSpaceOnUse" id="clipPath287-8"><path d="M 0,4608.17 H 1920 V 0 H 0 Z" transform="translate(-219.1138,-1820.9058)" id="path287-4"></path></clipPath><clipPath clipPathUnits="userSpaceOnUse" id="clipPath289-1"><path d="M 0,4608.17 H 1920 V 0 H 0 Z" transform="translate(-219.1138,-1812.1349)" id="path289-7"></path></clipPath><clipPath clipPathUnits="userSpaceOnUse" id="clipPath291-1"><path d="M 0,4608.17 H 1920 V 0 H 0 Z" transform="translate(-1144.0974,-1788.8369)" id="path291-8"></path></clipPath><clipPath clipPathUnits="userSpaceOnUse" id="clipPath125-7"><path d="M 0,4608.17 H 1920 V 0 H 0 Z" transform="translate(-1195.5615,-2115.1905)" id="path125-8"></path></clipPath><clipPath clipPathUnits="userSpaceOnUse" id="clipPath293-7"><path d="M 0,4608.17 H 1920 V 0 H 0 Z" transform="translate(-1091.1499,-2159.6766)" id="path293-7"></path></clipPath><clipPath clipPathUnits="userSpaceOnUse" id="clipPath295-4"><path d="M 0,4608.17 H 1920 V 0 H 0 Z" transform="translate(-1091.1499,-2119.2456)" id="path295-4"></path></clipPath><clipPath clipPathUnits="userSpaceOnUse" id="clipPath297-9"><path d="M 0,4608.17 H 1920 V 0 H 0 Z" transform="translate(-1101.0033,-2140.8617)" id="path297-1"></path></clipPath><clipPath clipPathUnits="userSpaceOnUse" id="clipPath299-5"><path d="M 0,4608.17 H 1920 V 0 H 0 Z" transform="translate(-1084.3702,-2122.0553)" id="path299-5"></path></clipPath><clipPath clipPathUnits="userSpaceOnUse" id="clipPath301-5"><path d="M 0,4608.17 H 1920 V 0 H 0 Z" transform="translate(-1121.3557,-2132.5458)" id="path301-8"></path></clipPath><clipPath clipPathUnits="userSpaceOnUse" id="clipPath303-2"><path d="M 0,4608.17 H 1920 V 0 H 0 Z" transform="translate(-1065.5565,-2134.0818)" id="path303-9"></path></clipPath><clipPath clipPathUnits="userSpaceOnUse" id="clipPath305-8"><path d="M 0,4608.17 H 1920 V 0 H 0 Z" transform="translate(-1072.4154,-2152.8177)" id="path305-2"></path></clipPath><clipPath clipPathUnits="userSpaceOnUse" id="clipPath307-0"><path d="M 0,4608.17 H 1920 V 0 H 0 Z" transform="translate(-1132.7697,-2096.9676)" id="path307-7"></path></clipPath></defs><path id="path124" d="m 0,0 c 0,-45.167 -36.616,-81.783 -81.783,-81.783 -45.168,0 -81.783,36.616 -81.783,81.783 0,45.168 36.615,81.783 81.783,81.783 C -36.616,81.783 0,45.168 0,0" style="fill:#dbede2;fill-opacity:1;fill-rule:nonzero;stroke:none" transform="matrix(0.35277776,0,0,-0.35277776,57.70245,28.851224)" clip-path="url(#clipPath125-7)"></path><path id="path292" d="M 0,0 C 0,0.847 0.689,1.537 1.537,1.537 2.385,1.537 3.074,0.847 3.074,0 v -13.834 c 0,-0.846 -0.689,-1.537 -1.537,-1.537 -0.848,0 -1.537,0.691 -1.537,1.537 z m 1.537,-17.676 c 2.119,0 3.843,1.724 3.843,3.842 V 0 C 5.38,2.119 3.656,3.843 1.537,3.843 -0.582,3.843 -2.305,2.119 -2.305,0 v -13.834 c 0,-2.118 1.723,-3.842 3.842,-3.842" style="fill:#16392c;fill-opacity:1;fill-rule:nonzero;stroke:none" transform="matrix(0.35277776,0,0,-0.35277776,20.86835,13.157517)" clip-path="url(#clipPath293-7)"></path><path id="path294" d="M 0,0 C 0,0.849 0.689,1.539 1.537,1.539 2.385,1.539 3.074,0.849 3.074,0 v -13.832 c 0,-0.846 -0.689,-1.536 -1.537,-1.536 -0.848,0 -1.537,0.69 -1.537,1.536 z m -2.305,-13.832 c 0,-2.118 1.723,-3.842 3.842,-3.842 2.119,0 3.843,1.724 3.843,3.842 V 0 C 5.38,2.121 3.656,3.844 1.537,3.844 -0.582,3.844 -2.305,2.121 -2.305,0 Z" style="fill:#16392c;fill-opacity:1;fill-rule:nonzero;stroke:none" transform="matrix(0.35277776,0,0,-0.35277776,20.86835,27.420649)" clip-path="url(#clipPath295-4)"></path><path id="path296" d="m 0,0 c -0.29,0.291 -0.45,0.676 -0.45,1.087 0,0.411 0.16,0.796 0.45,1.086 l 9.781,9.783 c 0.29,0.289 0.678,0.45 1.087,0.45 0.411,0 0.796,-0.161 1.088,-0.451 0.29,-0.29 0.45,-0.676 0.45,-1.087 0,-0.41 -0.16,-0.796 -0.45,-1.086 L 2.174,0 C 1.593,-0.581 0.582,-0.582 0,0 m 10.868,14.711 c -1.025,0 -1.992,-0.399 -2.718,-1.125 L -1.63,3.803 C -2.356,3.078 -2.756,2.115 -2.756,1.087 c 0,-1.027 0.4,-1.992 1.126,-2.717 0.725,-0.726 1.689,-1.126 2.717,-1.126 1.026,0 1.992,0.4 2.718,1.126 l 9.78,9.781 c 0.726,0.726 1.126,1.692 1.126,2.717 0,1.027 -0.4,1.993 -1.126,2.718 -0.724,0.726 -1.69,1.125 -2.717,1.125" style="fill:#16392c;fill-opacity:1;fill-rule:nonzero;stroke:none" transform="matrix(0.35277776,0,0,-0.35277776,24.34442,19.794987)" clip-path="url(#clipPath297-9)"></path><path id="path298" d="m 0,0 -9.781,-9.781 c -0.58,-0.581 -1.593,-0.581 -2.175,0 -0.289,0.291 -0.45,0.676 -0.45,1.086 0,0.411 0.161,0.797 0.451,1.087 l 9.782,9.781 c 0.299,0.298 0.693,0.45 1.086,0.45 0.394,0 0.788,-0.152 1.087,-0.45 C 0.29,1.884 0.45,1.498 0.45,1.087 0.45,0.677 0.29,0.291 0,0 m 2.756,1.087 c 0,1.026 -0.399,1.991 -1.125,2.716 -1.498,1.498 -3.937,1.498 -5.434,0 l -9.782,-9.78 c -0.726,-0.726 -1.126,-1.69 -1.126,-2.718 0,-1.026 0.4,-1.992 1.126,-2.717 0.726,-0.725 1.69,-1.125 2.717,-1.125 1.025,0 1.992,0.4 2.716,1.125 l 9.783,9.781 c 0.726,0.726 1.125,1.691 1.125,2.718" style="fill:#16392c;fill-opacity:1;fill-rule:nonzero;stroke:none" transform="matrix(0.35277776,0,0,-0.35277776,18.47663,26.429467)" clip-path="url(#clipPath299-5)"></path><path id="path300" d="m 0,0 c 0,-0.848 -0.69,-1.538 -1.537,-1.538 h -13.834 c -0.848,0 -1.536,0.69 -1.536,1.538 0,0.846 0.688,1.536 1.536,1.536 H -1.537 C -0.69,1.536 0,0.846 0,0 m -19.214,0 c 0,-2.12 1.725,-3.843 3.843,-3.843 h 13.834 c 2.119,0 3.843,1.723 3.843,3.843 0,2.118 -1.724,3.842 -3.843,3.842 h -13.834 c -2.118,0 -3.843,-1.724 -3.843,-3.842" style="fill:#16392c;fill-opacity:1;fill-rule:nonzero;stroke:none" transform="matrix(0.35277776,0,0,-0.35277776,31.52429,22.72866)" clip-path="url(#clipPath301-5)"></path><path id="path302" d="m 0,0 h 13.832 c 0.849,0 1.537,-0.69 1.537,-1.536 0,-0.848 -0.688,-1.538 -1.537,-1.538 H 0 c -0.849,0 -1.537,0.69 -1.537,1.538 C -1.537,-0.69 -0.849,0 0,0 m 0,-5.379 h 13.832 c 2.118,0 3.843,1.723 3.843,3.843 0,2.118 -1.725,3.841 -3.843,3.841 L 0,2.305 c -2.119,0 -3.843,-1.723 -3.843,-3.841 0,-2.12 1.724,-3.843 3.843,-3.843" style="fill:#16392c;fill-opacity:1;fill-rule:nonzero;stroke:none" transform="matrix(0.35277776,0,0,-0.35277776,11.83958,22.186767)" clip-path="url(#clipPath303-2)"></path><path id="path304" d="M 0,0 C 0.299,0.299 0.694,0.449 1.087,0.449 1.481,0.449 1.874,0.299 2.173,0 l 9.782,-9.783 c 0.29,-0.29 0.449,-0.675 0.449,-1.086 0,-0.412 -0.159,-0.796 -0.449,-1.087 -0.581,-0.581 -1.593,-0.581 -2.174,0 l -9.782,9.782 c -0.29,0.29 -0.45,0.676 -0.45,1.086 0,0.411 0.16,0.797 0.451,1.088 m 8.151,-13.586 c 0.725,-0.726 1.692,-1.126 2.717,-1.126 1.027,0 1.992,0.4 2.718,1.126 0.726,0.725 1.125,1.69 1.125,2.717 0,1.027 -0.399,1.991 -1.125,2.716 L 3.805,1.63 c -1.499,1.498 -3.938,1.498 -5.435,0 -0.726,-0.725 -1.126,-1.692 -1.126,-2.718 0,-1.025 0.4,-1.991 1.126,-2.717 z" style="fill:#16392c;fill-opacity:1;fill-rule:nonzero;stroke:none" transform="matrix(0.35277776,0,0,-0.35277776,14.25925,15.577184)" clip-path="url(#clipPath305-8)"></path><path id="path306" d="m 0,0 c -0.326,-0.245 -0.541,-0.608 -0.598,-1.012 -0.057,-0.405 0.047,-0.814 0.291,-1.14 l 11.805,-15.71 -11.389,-8.555 -11.802,15.709 c -0.303,0.403 -0.763,0.614 -1.231,0.614 -0.322,0 -0.644,-0.101 -0.922,-0.309 L -24.229,-18.202 -29.725,25.149 10.383,7.8 Z m 14.948,8.341 c -0.065,0.545 -0.414,1.012 -0.916,1.231 l -45.01,19.469 c -0.506,0.218 -1.092,0.148 -1.534,-0.183 -0.441,-0.331 -0.67,-0.874 -0.602,-1.421 l 6.169,-48.653 c 0.07,-0.542 0.421,-1.008 0.926,-1.22 0.502,-0.215 1.084,-0.143 1.522,0.187 l 11.269,8.465 11.802,-15.709 c 0.303,-0.401 0.764,-0.613 1.231,-0.613 0.32,0 0.645,0.1 0.922,0.309 l 13.846,10.401 c 0.325,0.244 0.541,0.609 0.599,1.012 0.056,0.405 -0.049,0.814 -0.294,1.14 L 3.076,-1.534 14.345,6.932 c 0.438,0.328 0.666,0.866 0.603,1.409" style="fill:#16392c;fill-opacity:1;fill-rule:nonzero;stroke:none" transform="matrix(0.35277776,0,0,-0.35277776,35.5509,35.279858)" clip-path="url(#clipPath307-0)"></path></svg>