<svg xmlns:inkscape="http://www.inkscape.org/namespaces/inkscape" xmlns:sodipodi="http://sodipodi.sourceforge.net/DTD/sodipodi-0.dtd" xmlns="http://www.w3.org/2000/svg" xmlns:svg="http://www.w3.org/2000/svg" width="57.702446mm" height="57.702446mm" viewBox="0 0 57.702446 57.702445" id="svg1" sodipodi:docname="cap-02.svg" inkscape:version="1.3.2 (091e20e, 2023-11-25)"><defs id="defs1"><clipPath clipPathUnits="userSpaceOnUse" id="clipPath9"><path d="M 0,4608.17 H 1920 V 0 H 0 Z" transform="translate(-989.99335,-4095.0851)" id="path9"></path></clipPath><clipPath clipPathUnits="userSpaceOnUse" id="clipPath11"><path d="M 0,4608.17 H 1920 V 0 H 0 Z" transform="translate(-989.98195,-4019.5111)" id="path11"></path></clipPath><clipPath clipPathUnits="userSpaceOnUse" id="clipPath13"><path d="M 0,4608.17 H 1920 V 0 H 0 Z" transform="translate(-1032.3027,-4045.1039)" id="path13"></path></clipPath><clipPath clipPathUnits="userSpaceOnUse" id="clipPath118"><path d="M 0,4608.17 H 1920 V 0 H 0 Z" transform="translate(-268.59561,-2115.1905)" id="path118"></path></clipPath><clipPath clipPathUnits="userSpaceOnUse" id="clipPath125"><path d="M 0,4608.17 H 1920 V 0 H 0 Z" transform="translate(-1195.5615,-2115.1905)" id="path125"></path></clipPath><clipPath clipPathUnits="userSpaceOnUse" id="clipPath134"><path d="M 0,4608.17 H 1920 V 0 H 0 Z" transform="translate(-268.59561,-1821.2369)" id="path134"></path></clipPath><clipPath clipPathUnits="userSpaceOnUse" id="clipPath140"><path d="M 0,4608.17 H 1920 V 0 H 0 Z" transform="translate(-1195.5615,-1814.237)" id="path140"></path></clipPath><clipPath clipPathUnits="userSpaceOnUse" id="clipPath142"><path d="M 0,4608.17 H 1920 V 0 H 0 Z" transform="translate(-896.58025,-1402.7468)" id="path142"></path></clipPath><clipPath clipPathUnits="userSpaceOnUse" id="clipPath146"><path d="M 0,4608.17 H 1920 V 0 H 0 Z" transform="translate(-268.59561,-1520.2835)" id="path146"></path></clipPath><clipPath clipPathUnits="userSpaceOnUse" id="clipPath165"><path d="M 0,4608.17 H 1920 V 0 H 0 Z" transform="translate(-224.56741,-1566.0218)" id="path165"></path></clipPath><clipPath clipPathUnits="userSpaceOnUse" id="clipPath167"><path d="M 0,4608.17 H 1920 V 0 H 0 Z" transform="translate(-212.09281,-1555.5789)" id="path167"></path></clipPath><clipPath clipPathUnits="userSpaceOnUse" id="clipPath169"><path d="M 0,4608.17 H 1920 V 0 H 0 Z" transform="translate(-234.79711,-2086.4735)" id="path169"></path></clipPath><clipPath clipPathUnits="userSpaceOnUse" id="clipPath171"><path d="M 0,4608.17 H 1920 V 0 H 0 Z" transform="translate(-169.5307,-2142.9774)" id="path171"></path></clipPath><clipPath clipPathUnits="userSpaceOnUse" id="clipPath273"><path d="M 0,4608.17 H 1920 V 0 H 0 Z" transform="translate(0,2.5000001e-5)" id="path273"></path></clipPath><clipPath clipPathUnits="userSpaceOnUse" id="clipPath275"><path d="M 0,4608.17 H 1920 V 0 H 0 Z" transform="translate(-147.6774,-1836.3635)" id="path275"></path></clipPath><clipPath clipPathUnits="userSpaceOnUse" id="clipPath277"><path d="M 0,4608.17 H 1920 V 0 H 0 Z" transform="translate(-147.6774,-1827.5924)" id="path277"></path></clipPath><clipPath clipPathUnits="userSpaceOnUse" id="clipPath279"><path d="M 0,4608.17 H 1920 V 0 H 0 Z" transform="translate(-147.6774,-1818.8217)" id="path279"></path></clipPath><clipPath clipPathUnits="userSpaceOnUse" id="clipPath281"><path d="M 0,4608.17 H 1920 V 0 H 0 Z" transform="translate(-147.6774,-1810.0509)" id="path281"></path></clipPath><clipPath clipPathUnits="userSpaceOnUse" id="clipPath283"><path d="M 0,4608.17 H 1920 V 0 H 0 Z" transform="translate(-219.1138,-1838.4498)" id="path283"></path></clipPath><clipPath clipPathUnits="userSpaceOnUse" id="clipPath285"><path d="M 0,4608.17 H 1920 V 0 H 0 Z" transform="translate(-219.1138,-1829.6792)" id="path285"></path></clipPath><clipPath clipPathUnits="userSpaceOnUse" id="clipPath287"><path d="M 0,4608.17 H 1920 V 0 H 0 Z" transform="translate(-219.1138,-1820.9058)" id="path287"></path></clipPath><clipPath clipPathUnits="userSpaceOnUse" id="clipPath289"><path d="M 0,4608.17 H 1920 V 0 H 0 Z" transform="translate(-219.1138,-1812.1349)" id="path289"></path></clipPath><clipPath clipPathUnits="userSpaceOnUse" id="clipPath291"><path d="M 0,4608.17 H 1920 V 0 H 0 Z" transform="translate(-1144.0974,-1788.8369)" id="path291"></path></clipPath><clipPath clipPathUnits="userSpaceOnUse" id="clipPath293"><path d="M 0,4608.17 H 1920 V 0 H 0 Z" transform="translate(-1091.1499,-2159.6766)" id="path293"></path></clipPath><clipPath clipPathUnits="userSpaceOnUse" id="clipPath295"><path d="M 0,4608.17 H 1920 V 0 H 0 Z" transform="translate(-1091.1499,-2119.2456)" id="path295"></path></clipPath><clipPath clipPathUnits="userSpaceOnUse" id="clipPath297"><path d="M 0,4608.17 H 1920 V 0 H 0 Z" transform="translate(-1101.0033,-2140.8617)" id="path297"></path></clipPath><clipPath clipPathUnits="userSpaceOnUse" id="clipPath299"><path d="M 0,4608.17 H 1920 V 0 H 0 Z" transform="translate(-1084.3702,-2122.0553)" id="path299"></path></clipPath><clipPath clipPathUnits="userSpaceOnUse" id="clipPath301"><path d="M 0,4608.17 H 1920 V 0 H 0 Z" transform="translate(-1121.3557,-2132.5458)" id="path301"></path></clipPath><clipPath clipPathUnits="userSpaceOnUse" id="clipPath303"><path d="M 0,4608.17 H 1920 V 0 H 0 Z" transform="translate(-1065.5565,-2134.0818)" id="path303"></path></clipPath><clipPath clipPathUnits="userSpaceOnUse" id="clipPath305"><path d="M 0,4608.17 H 1920 V 0 H 0 Z" transform="translate(-1072.4154,-2152.8177)" id="path305"></path></clipPath><clipPath clipPathUnits="userSpaceOnUse" id="clipPath307"><path d="M 0,4608.17 H 1920 V 0 H 0 Z" transform="translate(-1132.7697,-2096.9676)" id="path307"></path></clipPath></defs><path id="path117" d="m 0,0 c 0,-45.167 -36.616,-81.783 -81.783,-81.783 -45.168,0 -81.783,36.616 -81.783,81.783 0,45.168 36.615,81.783 81.783,81.783 C -36.616,81.783 0,45.168 0,0" style="fill:#dbede2;fill-opacity:1;fill-rule:nonzero;stroke:none" transform="matrix(0.35277776,0,0,-0.35277776,57.702449,28.851224)" clip-path="url(#clipPath118)"></path><path id="path168" d="M 0,0 C -2.019,-0.218 -4.643,-0.729 -7.838,-1.532 -7.908,-1.55 -8.01,-1.583 -8.077,-1.609 L -8.76,-1.863 C -16.927,-3.874 -33.271,-7.999 -56.062,-13.8 l -0.108,-0.028 c -0.948,-0.178 -1.807,-0.125 -2.846,0.224 l -36.137,26.147 c -0.081,0.059 -0.168,0.112 -0.258,0.158 -0.368,0.19 -0.723,0.445 -1.055,0.762 -0.018,0.02 -0.036,0.038 -0.056,0.058 -0.844,0.832 -1.307,1.927 -1.307,3.086 0,2.284 1.732,4.159 4.029,4.357 0.078,0.005 0.155,0.018 0.23,0.033 0.398,0.083 0.788,0.108 1.303,0.03 0.184,-0.03 0.364,-0.066 0.51,-0.108 0.19,-0.058 0.388,-0.142 0.631,-0.265 0.127,-0.065 0.254,-0.132 0.374,-0.212 0.027,-0.017 0.056,-0.035 0.083,-0.052 l 3.869,-2.797 c 0.027,-0.02 0.055,-0.04 0.084,-0.057 L -64.597,3.195 c 0.184,-0.12 0.388,-0.206 0.6,-0.259 0.789,-0.196 1.688,-0.263 2.752,-0.207 0.118,0.005 0.234,0.022 0.347,0.05 1.004,0.235 5.736,1.472 14.051,3.673 l 0.416,0.106 c 1.715,0.497 3.453,0.958 5.202,1.379 2.873,0.76 5.021,1.332 5.468,1.45 0.155,0.043 0.305,0.103 0.444,0.18 2.539,1.401 4.116,4.056 4.116,6.931 0,3.91 -2.802,7.203 -6.66,7.833 -0.106,0.018 -0.214,0.026 -0.321,0.026 h -14.044 c -1.089,0 -1.976,0.888 -1.976,1.979 0,1.091 0.887,1.979 1.976,1.979 h 15.017 c 1.962,0.058 4.339,0.086 7.262,0.086 5.91,0 10.003,-2.287 13.545,-4.757 0.922,-0.644 1.816,-1.308 2.701,-1.965 3.955,-2.934 8.03,-5.958 13.69,-6.55 V 2.053 L 0.014,0.115 C 0.008,0.077 0.003,0.039 0,0 m 3.604,18.177 c -0.373,0.51 -0.969,0.815 -1.603,0.815 -5.427,0 -9.092,2.72 -13.338,5.871 -0.917,0.681 -1.841,1.368 -2.795,2.033 -3.88,2.706 -8.792,5.471 -15.815,5.471 -2.963,0 -5.377,-0.028 -7.32,-0.086 h -14.959 c -3.276,0 -5.942,-2.667 -5.942,-5.945 0,-3.278 2.666,-5.945 5.942,-5.945 h 13.868 c 1.857,-0.371 3.191,-1.985 3.191,-3.893 0,-1.359 -0.714,-2.623 -1.876,-3.349 -0.756,-0.199 -2.697,-0.715 -5.157,-1.368 -1.765,-0.424 -3.561,-0.9 -5.275,-1.397 l -0.372,-0.095 C -57.46,7.745 -60.692,6.91 -61.63,6.681 -62.071,6.664 -62.443,6.679 -62.756,6.728 l -21.762,14.107 -3.967,2.869 c -0.074,0.054 -0.154,0.103 -0.234,0.145 -0.197,0.123 -0.406,0.237 -0.624,0.346 -0.424,0.218 -0.831,0.386 -1.269,0.521 -0.313,0.091 -0.65,0.163 -1.045,0.228 -0.976,0.149 -1.777,0.117 -2.601,-0.041 -4.304,-0.429 -7.537,-3.976 -7.537,-8.296 0,-2.207 0.864,-4.283 2.438,-5.86 0.035,-0.039 0.07,-0.074 0.106,-0.109 0.58,-0.558 1.21,-1.024 1.88,-1.385 l 36.087,-26.161 c 0.171,-0.124 0.356,-0.218 0.553,-0.282 l 0.298,-0.116 c 0.032,-0.013 0.063,-0.024 0.096,-0.035 1.084,-0.371 2.103,-0.553 3.12,-0.553 0.613,0 1.243,0.063 1.868,0.184 0.044,0.009 0.085,0.02 0.125,0.031 l 0.157,0.039 c 22.867,5.82 39.246,9.954 47.365,11.954 0.076,0.019 0.151,0.042 0.224,0.07 l 0.711,0.265 c 3.942,0.985 6.961,1.505 8.739,1.505 1.094,0 1.983,0.888 1.983,1.983 v 1.32 c 0.021,0.119 0.03,0.243 0.028,0.369 l -0.028,16.84 c 0.092,0.527 -0.032,1.072 -0.351,1.511" style="fill:#16392c;fill-opacity:1;fill-rule:nonzero;stroke:none" transform="matrix(0.35277776,0,0,-0.35277776,45.779088,38.981935)" clip-path="url(#clipPath169)"></path><path id="path170" d="M 0,0 C 0.081,1.103 0.226,2.229 0.443,3.404 2.902,16.819 14.17,26.722 27.621,27.594 26.676,12.747 14.956,0.96 0,0 m 21.818,-11.099 c -8.764,-7.399 -21.814,-7.329 -30.54,0.449 -0.095,0.084 -0.194,0.165 -0.291,0.245 -0.061,0.051 -0.125,0.1 -0.174,0.146 -0.1,0.095 -0.203,0.187 -0.306,0.28 -0.077,0.067 -0.156,0.134 -0.293,0.271 -0.192,0.195 -0.366,0.399 -0.544,0.6 l -0.308,0.351 c -7.787,8.736 -7.843,21.814 -0.408,30.586 7.161,-7.979 7.981,-19.89 1.831,-28.803 -0.543,-0.788 -0.446,-1.852 0.23,-2.528 0.677,-0.677 1.739,-0.773 2.528,-0.23 8.735,6.023 20.339,5.358 28.275,-1.367 m 9.827,40.684 -0.001,0.103 c -0.028,1.034 -0.845,1.872 -1.878,1.928 l -0.104,0.005 c -0.035,0 -0.068,0.003 -0.103,0.003 -13.857,0 -26.009,-8.458 -31.073,-20.869 -0.909,5.452 -3.457,10.658 -7.605,14.806 -0.141,0.139 -0.288,0.271 -0.435,0.399 -0.063,0.055 -0.128,0.109 -0.189,0.167 -0.735,0.689 -1.904,0.69 -2.674,0.041 -0.044,-0.035 -0.086,-0.074 -0.126,-0.116 -10.21,-10.211 -10.672,-26.66 -1.05,-37.45 l 0.072,-0.084 -12.06,-12.06 2.063,-2.064 12.07,12.069 0.088,-0.073 c 5.191,-4.628 11.688,-6.924 18.17,-6.924 6.995,0 13.972,2.673 19.267,7.968 0.013,0.012 0.082,0.087 0.095,0.098 0.702,0.742 0.671,1.959 0.002,2.729 -0.031,0.036 -0.063,0.07 -0.097,0.103 -4.457,4.46 -10.138,7.079 -16.037,7.787 12.712,4.795 21.608,17.003 21.605,31.434" style="fill:#16392c;fill-opacity:1;fill-rule:nonzero;stroke:none" transform="matrix(0.35277776,0,0,-0.35277776,22.754552,19.048624)" clip-path="url(#clipPath171)"></path></svg>