<svg xmlns:inkscape="http://www.inkscape.org/namespaces/inkscape" xmlns:sodipodi="http://sodipodi.sourceforge.net/DTD/sodipodi-0.dtd" xmlns="http://www.w3.org/2000/svg" xmlns:svg="http://www.w3.org/2000/svg" width="24.736681mm" height="24.709965mm" viewBox="0 0 24.736681 24.709965" id="svg1" inkscape:version="1.3.2 (091e20e, 2023-11-25)" sodipodi:docname="cap-08.svg"><defs id="defs1"><clipPath clipPathUnits="userSpaceOnUse" id="clipPath28"><path d="M 0,2656.854 H 1920 V 0 H 0 Z" transform="translate(-980.40452,-2076.6197)" id="path28"></path></clipPath><clipPath clipPathUnits="userSpaceOnUse" id="clipPath407"><path d="M 0,1695.772 H 1920 V 0 H 0 Z" transform="translate(-984.18385,-1150.9658)" id="path407"></path></clipPath></defs><g inkscape:label="Capa 1" inkscape:groupmode="layer" id="layer1" transform="translate(-119.59168,-116.15207)"><path id="path406" d="m 0,0 c 0,0 -9.95,-4.451 -19.115,-14.794 -9.164,-10.343 -12.437,-19.901 -12.437,-19.901 0,0 -18.591,21.21 -3.404,39.539 15.187,18.329 64.152,21.472 64.152,21.472 0,0 -3.404,-42.55 -13.616,-56.559 -9.185,-12.6 -17.806,-13.485 -24.745,-13.485 -6.939,0 -13.746,2.88 -13.746,2.88 0,0 -1.386,5.676 7.855,21.602 C -5.815,-3.32 0,0 0,0" style="fill:#009539;fill-opacity:1;fill-rule:nonzero;stroke:none" transform="matrix(0.35277776,0,0,-0.35277776,134.02866,125.43577)" clip-path="url(#clipPath407)"></path></g></svg>