<svg xmlns:inkscape="http://www.inkscape.org/namespaces/inkscape" xmlns:sodipodi="http://sodipodi.sourceforge.net/DTD/sodipodi-0.dtd" xmlns="http://www.w3.org/2000/svg" xmlns:svg="http://www.w3.org/2000/svg" width="57.702446mm" height="57.702446mm" viewBox="0 0 57.702446 57.702445" id="svg1" sodipodi:docname="cap-04.svg" inkscape:version="1.3.2 (091e20e, 2023-11-25)"><defs id="defs1"><clipPath clipPathUnits="userSpaceOnUse" id="clipPath9"><path d="M 0,4608.17 H 1920 V 0 H 0 Z" transform="translate(-989.99335,-4095.0851)" id="path9"></path></clipPath><clipPath clipPathUnits="userSpaceOnUse" id="clipPath11"><path d="M 0,4608.17 H 1920 V 0 H 0 Z" transform="translate(-989.98195,-4019.5111)" id="path11"></path></clipPath><clipPath clipPathUnits="userSpaceOnUse" id="clipPath13"><path d="M 0,4608.17 H 1920 V 0 H 0 Z" transform="translate(-1032.3027,-4045.1039)" id="path13"></path></clipPath><clipPath clipPathUnits="userSpaceOnUse" id="clipPath118"><path d="M 0,4608.17 H 1920 V 0 H 0 Z" transform="translate(-268.59561,-2115.1905)" id="path118"></path></clipPath><clipPath clipPathUnits="userSpaceOnUse" id="clipPath125"><path d="M 0,4608.17 H 1920 V 0 H 0 Z" transform="translate(-1195.5615,-2115.1905)" id="path125"></path></clipPath><clipPath clipPathUnits="userSpaceOnUse" id="clipPath134"><path d="M 0,4608.17 H 1920 V 0 H 0 Z" transform="translate(-268.59561,-1821.2369)" id="path134"></path></clipPath><clipPath clipPathUnits="userSpaceOnUse" id="clipPath140"><path d="M 0,4608.17 H 1920 V 0 H 0 Z" transform="translate(-1195.5615,-1814.237)" id="path140"></path></clipPath><clipPath clipPathUnits="userSpaceOnUse" id="clipPath142"><path d="M 0,4608.17 H 1920 V 0 H 0 Z" transform="translate(-896.58025,-1402.7468)" id="path142"></path></clipPath><clipPath clipPathUnits="userSpaceOnUse" id="clipPath146"><path d="M 0,4608.17 H 1920 V 0 H 0 Z" transform="translate(-268.59561,-1520.2835)" id="path146"></path></clipPath><clipPath clipPathUnits="userSpaceOnUse" id="clipPath165"><path d="M 0,4608.17 H 1920 V 0 H 0 Z" transform="translate(-224.56741,-1566.0218)" id="path165"></path></clipPath><clipPath clipPathUnits="userSpaceOnUse" id="clipPath167"><path d="M 0,4608.17 H 1920 V 0 H 0 Z" transform="translate(-212.09281,-1555.5789)" id="path167"></path></clipPath><clipPath clipPathUnits="userSpaceOnUse" id="clipPath169"><path d="M 0,4608.17 H 1920 V 0 H 0 Z" transform="translate(-234.79711,-2086.4735)" id="path169"></path></clipPath><clipPath clipPathUnits="userSpaceOnUse" id="clipPath171"><path d="M 0,4608.17 H 1920 V 0 H 0 Z" transform="translate(-169.5307,-2142.9774)" id="path171"></path></clipPath><clipPath clipPathUnits="userSpaceOnUse" id="clipPath273"><path d="M 0,4608.17 H 1920 V 0 H 0 Z" transform="translate(0,2.5000001e-5)" id="path273"></path></clipPath><clipPath clipPathUnits="userSpaceOnUse" id="clipPath275"><path d="M 0,4608.17 H 1920 V 0 H 0 Z" transform="translate(-147.6774,-1836.3635)" id="path275"></path></clipPath><clipPath clipPathUnits="userSpaceOnUse" id="clipPath277"><path d="M 0,4608.17 H 1920 V 0 H 0 Z" transform="translate(-147.6774,-1827.5924)" id="path277"></path></clipPath><clipPath clipPathUnits="userSpaceOnUse" id="clipPath279"><path d="M 0,4608.17 H 1920 V 0 H 0 Z" transform="translate(-147.6774,-1818.8217)" id="path279"></path></clipPath><clipPath clipPathUnits="userSpaceOnUse" id="clipPath281"><path d="M 0,4608.17 H 1920 V 0 H 0 Z" transform="translate(-147.6774,-1810.0509)" id="path281"></path></clipPath><clipPath clipPathUnits="userSpaceOnUse" id="clipPath283"><path d="M 0,4608.17 H 1920 V 0 H 0 Z" transform="translate(-219.1138,-1838.4498)" id="path283"></path></clipPath><clipPath clipPathUnits="userSpaceOnUse" id="clipPath285"><path d="M 0,4608.17 H 1920 V 0 H 0 Z" transform="translate(-219.1138,-1829.6792)" id="path285"></path></clipPath><clipPath clipPathUnits="userSpaceOnUse" id="clipPath287"><path d="M 0,4608.17 H 1920 V 0 H 0 Z" transform="translate(-219.1138,-1820.9058)" id="path287"></path></clipPath><clipPath clipPathUnits="userSpaceOnUse" id="clipPath289"><path d="M 0,4608.17 H 1920 V 0 H 0 Z" transform="translate(-219.1138,-1812.1349)" id="path289"></path></clipPath><clipPath clipPathUnits="userSpaceOnUse" id="clipPath291"><path d="M 0,4608.17 H 1920 V 0 H 0 Z" transform="translate(-1144.0974,-1788.8369)" id="path291"></path></clipPath><clipPath clipPathUnits="userSpaceOnUse" id="clipPath293"><path d="M 0,4608.17 H 1920 V 0 H 0 Z" transform="translate(-1091.1499,-2159.6766)" id="path293"></path></clipPath><clipPath clipPathUnits="userSpaceOnUse" id="clipPath295"><path d="M 0,4608.17 H 1920 V 0 H 0 Z" transform="translate(-1091.1499,-2119.2456)" id="path295"></path></clipPath><clipPath clipPathUnits="userSpaceOnUse" id="clipPath297"><path d="M 0,4608.17 H 1920 V 0 H 0 Z" transform="translate(-1101.0033,-2140.8617)" id="path297"></path></clipPath><clipPath clipPathUnits="userSpaceOnUse" id="clipPath299"><path d="M 0,4608.17 H 1920 V 0 H 0 Z" transform="translate(-1084.3702,-2122.0553)" id="path299"></path></clipPath><clipPath clipPathUnits="userSpaceOnUse" id="clipPath301"><path d="M 0,4608.17 H 1920 V 0 H 0 Z" transform="translate(-1121.3557,-2132.5458)" id="path301"></path></clipPath><clipPath clipPathUnits="userSpaceOnUse" id="clipPath303"><path d="M 0,4608.17 H 1920 V 0 H 0 Z" transform="translate(-1065.5565,-2134.0818)" id="path303"></path></clipPath><clipPath clipPathUnits="userSpaceOnUse" id="clipPath305"><path d="M 0,4608.17 H 1920 V 0 H 0 Z" transform="translate(-1072.4154,-2152.8177)" id="path305"></path></clipPath><clipPath clipPathUnits="userSpaceOnUse" id="clipPath307"><path d="M 0,4608.17 H 1920 V 0 H 0 Z" transform="translate(-1132.7697,-2096.9676)" id="path307"></path></clipPath><clipPath clipPathUnits="userSpaceOnUse" id="clipPath134-5"><path d="M 0,4608.17 H 1920 V 0 H 0 Z" transform="translate(-268.59561,-1821.2369)" id="path134-4"></path></clipPath><clipPath clipPathUnits="userSpaceOnUse" id="clipPath140-3"><path d="M 0,4608.17 H 1920 V 0 H 0 Z" transform="translate(-1195.5615,-1814.237)" id="path140-6"></path></clipPath><clipPath clipPathUnits="userSpaceOnUse" id="clipPath146-5"><path d="M 0,4608.17 H 1920 V 0 H 0 Z" transform="translate(-268.59561,-1520.2835)" id="path146-9"></path></clipPath><clipPath clipPathUnits="userSpaceOnUse" id="clipPath165-5"><path d="M 0,4608.17 H 1920 V 0 H 0 Z" transform="translate(-224.56741,-1566.0218)" id="path165-4"></path></clipPath><clipPath clipPathUnits="userSpaceOnUse" id="clipPath167-9"><path d="M 0,4608.17 H 1920 V 0 H 0 Z" transform="translate(-212.09281,-1555.5789)" id="path167-1"></path></clipPath><clipPath clipPathUnits="userSpaceOnUse" id="clipPath273-7"><path d="M 0,4608.17 H 1920 V 0 H 0 Z" transform="translate(0,2.5000001e-5)" id="path273-5"></path></clipPath><clipPath clipPathUnits="userSpaceOnUse" id="clipPath275-5"><path d="M 0,4608.17 H 1920 V 0 H 0 Z" transform="translate(-147.6774,-1836.3635)" id="path275-4"></path></clipPath><clipPath clipPathUnits="userSpaceOnUse" id="clipPath277-1"><path d="M 0,4608.17 H 1920 V 0 H 0 Z" transform="translate(-147.6774,-1827.5924)" id="path277-8"></path></clipPath><clipPath clipPathUnits="userSpaceOnUse" id="clipPath279-8"><path d="M 0,4608.17 H 1920 V 0 H 0 Z" transform="translate(-147.6774,-1818.8217)" id="path279-3"></path></clipPath><clipPath clipPathUnits="userSpaceOnUse" id="clipPath281-5"><path d="M 0,4608.17 H 1920 V 0 H 0 Z" transform="translate(-147.6774,-1810.0509)" id="path281-2"></path></clipPath><clipPath clipPathUnits="userSpaceOnUse" id="clipPath283-2"><path d="M 0,4608.17 H 1920 V 0 H 0 Z" transform="translate(-219.1138,-1838.4498)" id="path283-6"></path></clipPath><clipPath clipPathUnits="userSpaceOnUse" id="clipPath285-6"><path d="M 0,4608.17 H 1920 V 0 H 0 Z" transform="translate(-219.1138,-1829.6792)" id="path285-7"></path></clipPath><clipPath clipPathUnits="userSpaceOnUse" id="clipPath287-8"><path d="M 0,4608.17 H 1920 V 0 H 0 Z" transform="translate(-219.1138,-1820.9058)" id="path287-4"></path></clipPath><clipPath clipPathUnits="userSpaceOnUse" id="clipPath289-1"><path d="M 0,4608.17 H 1920 V 0 H 0 Z" transform="translate(-219.1138,-1812.1349)" id="path289-7"></path></clipPath><clipPath clipPathUnits="userSpaceOnUse" id="clipPath291-1"><path d="M 0,4608.17 H 1920 V 0 H 0 Z" transform="translate(-1144.0974,-1788.8369)" id="path291-8"></path></clipPath><clipPath clipPathUnits="userSpaceOnUse" id="clipPath125-7"><path d="M 0,4608.17 H 1920 V 0 H 0 Z" transform="translate(-1195.5615,-2115.1905)" id="path125-8"></path></clipPath><clipPath clipPathUnits="userSpaceOnUse" id="clipPath293-7"><path d="M 0,4608.17 H 1920 V 0 H 0 Z" transform="translate(-1091.1499,-2159.6766)" id="path293-7"></path></clipPath><clipPath clipPathUnits="userSpaceOnUse" id="clipPath295-4"><path d="M 0,4608.17 H 1920 V 0 H 0 Z" transform="translate(-1091.1499,-2119.2456)" id="path295-4"></path></clipPath><clipPath clipPathUnits="userSpaceOnUse" id="clipPath297-9"><path d="M 0,4608.17 H 1920 V 0 H 0 Z" transform="translate(-1101.0033,-2140.8617)" id="path297-1"></path></clipPath><clipPath clipPathUnits="userSpaceOnUse" id="clipPath299-5"><path d="M 0,4608.17 H 1920 V 0 H 0 Z" transform="translate(-1084.3702,-2122.0553)" id="path299-5"></path></clipPath><clipPath clipPathUnits="userSpaceOnUse" id="clipPath301-5"><path d="M 0,4608.17 H 1920 V 0 H 0 Z" transform="translate(-1121.3557,-2132.5458)" id="path301-8"></path></clipPath><clipPath clipPathUnits="userSpaceOnUse" id="clipPath303-2"><path d="M 0,4608.17 H 1920 V 0 H 0 Z" transform="translate(-1065.5565,-2134.0818)" id="path303-9"></path></clipPath><clipPath clipPathUnits="userSpaceOnUse" id="clipPath305-8"><path d="M 0,4608.17 H 1920 V 0 H 0 Z" transform="translate(-1072.4154,-2152.8177)" id="path305-2"></path></clipPath><clipPath clipPathUnits="userSpaceOnUse" id="clipPath307-0"><path d="M 0,4608.17 H 1920 V 0 H 0 Z" transform="translate(-1132.7697,-2096.9676)" id="path307-7"></path></clipPath><clipPath clipPathUnits="userSpaceOnUse" id="clipPath134-5-7"><path d="M 0,4608.17 H 1920 V 0 H 0 Z" transform="translate(-268.59561,-1821.2369)" id="path134-4-1"></path></clipPath><clipPath clipPathUnits="userSpaceOnUse" id="clipPath140-3-5"><path d="M 0,4608.17 H 1920 V 0 H 0 Z" transform="translate(-1195.5615,-1814.237)" id="path140-6-2"></path></clipPath><clipPath clipPathUnits="userSpaceOnUse" id="clipPath146-5-1"><path d="M 0,4608.17 H 1920 V 0 H 0 Z" transform="translate(-268.59561,-1520.2835)" id="path146-9-1"></path></clipPath><clipPath clipPathUnits="userSpaceOnUse" id="clipPath165-5-0"><path d="M 0,4608.17 H 1920 V 0 H 0 Z" transform="translate(-224.56741,-1566.0218)" id="path165-4-1"></path></clipPath><clipPath clipPathUnits="userSpaceOnUse" id="clipPath167-9-8"><path d="M 0,4608.17 H 1920 V 0 H 0 Z" transform="translate(-212.09281,-1555.5789)" id="path167-1-7"></path></clipPath><clipPath clipPathUnits="userSpaceOnUse" id="clipPath273-7-6"><path d="M 0,4608.17 H 1920 V 0 H 0 Z" transform="translate(0,2.5000001e-5)" id="path273-5-0"></path></clipPath><clipPath clipPathUnits="userSpaceOnUse" id="clipPath275-5-0"><path d="M 0,4608.17 H 1920 V 0 H 0 Z" transform="translate(-147.6774,-1836.3635)" id="path275-4-9"></path></clipPath><clipPath clipPathUnits="userSpaceOnUse" id="clipPath277-1-5"><path d="M 0,4608.17 H 1920 V 0 H 0 Z" transform="translate(-147.6774,-1827.5924)" id="path277-8-6"></path></clipPath><clipPath clipPathUnits="userSpaceOnUse" id="clipPath279-8-2"><path d="M 0,4608.17 H 1920 V 0 H 0 Z" transform="translate(-147.6774,-1818.8217)" id="path279-3-8"></path></clipPath><clipPath clipPathUnits="userSpaceOnUse" id="clipPath281-5-5"><path d="M 0,4608.17 H 1920 V 0 H 0 Z" transform="translate(-147.6774,-1810.0509)" id="path281-2-9"></path></clipPath><clipPath clipPathUnits="userSpaceOnUse" id="clipPath283-2-4"><path d="M 0,4608.17 H 1920 V 0 H 0 Z" transform="translate(-219.1138,-1838.4498)" id="path283-6-3"></path></clipPath><clipPath clipPathUnits="userSpaceOnUse" id="clipPath285-6-9"><path d="M 0,4608.17 H 1920 V 0 H 0 Z" transform="translate(-219.1138,-1829.6792)" id="path285-7-0"></path></clipPath><clipPath clipPathUnits="userSpaceOnUse" id="clipPath287-8-5"><path d="M 0,4608.17 H 1920 V 0 H 0 Z" transform="translate(-219.1138,-1820.9058)" id="path287-4-6"></path></clipPath><clipPath clipPathUnits="userSpaceOnUse" id="clipPath289-1-3"><path d="M 0,4608.17 H 1920 V 0 H 0 Z" transform="translate(-219.1138,-1812.1349)" id="path289-7-6"></path></clipPath><clipPath clipPathUnits="userSpaceOnUse" id="clipPath291-1-3"><path d="M 0,4608.17 H 1920 V 0 H 0 Z" transform="translate(-1144.0974,-1788.8369)" id="path291-8-0"></path></clipPath></defs><path id="path139" d="m 0,0 c 0,-45.168 -36.616,-81.783 -81.783,-81.783 -45.168,0 -81.783,36.615 -81.783,81.783 0,45.168 36.615,81.783 81.783,81.783 C -36.616,81.783 0,45.168 0,0" style="fill:#dbede2;fill-opacity:1;fill-rule:nonzero;stroke:none" transform="matrix(0.35277776,0,0,-0.35277776,57.70245,28.85122)" clip-path="url(#clipPath140-3-5)"></path><path id="path290" d="m 0,0 -21.726,-0.003 v 13.011 h 1.966 c 2.449,0 3.363,1.358 3.64,1.941 0.271,0.568 0.743,2.08 -0.707,3.865 L -26.75,31.03 c -0.909,1.119 -2.21,1.76 -3.568,1.76 -1.36,0 -2.662,-0.641 -3.571,-1.76 l -9.924,-12.218 c -1.448,-1.783 -0.974,-3.295 -0.705,-3.863 0.278,-0.583 1.189,-1.941 3.64,-1.941 h 1.965 V -0.003 h -20.311 l -0.396,0.006 c -10.247,0.052 -18.585,8.432 -18.585,18.68 0,10.304 8.383,18.687 18.686,18.687 0.821,0 1.655,-0.055 2.479,-0.165 l 2.153,-0.283 c 0.568,-0.073 1.141,0.086 1.587,0.446 0.446,0.358 0.724,0.886 0.769,1.457 l 0.177,2.165 c 0.459,5.723 3.04,11.033 7.269,14.954 4.248,3.941 9.782,6.111 15.582,6.111 12.641,0 22.925,-10.284 22.925,-22.925 0,-0.512 -0.018,-1.045 -0.055,-1.583 L -6.8,35.099 c -0.042,-0.614 0.19,-1.217 0.634,-1.646 0.442,-0.43 1.051,-0.641 1.666,-0.575 l 2.45,0.253 c 0.657,0.071 1.317,0.107 1.964,0.107 9.733,0 17.651,-7.457 17.651,-16.621 C 17.565,7.504 9.691,0.048 0,0 m 21.746,16.617 c 0,11.468 -9.795,20.8 -21.832,20.8 -0.786,0 -1.587,-0.042 -2.375,-0.125 0.042,0.625 0.062,1.243 0.062,1.838 0,14.946 -12.159,27.106 -27.104,27.106 -6.858,0 -13.402,-2.568 -18.425,-7.229 -4.991,-4.627 -8.041,-10.898 -8.59,-17.654 -0.997,0.13 -2.006,0.197 -3.001,0.197 -12.608,0 -22.865,-10.259 -22.865,-22.867 0,-12.54 10.203,-22.795 22.725,-22.86 l 22.841,-0.005 c 0.573,0 1.122,0.235 1.517,0.651 0.394,0.415 0.6,0.975 0.571,1.546 0,0.015 -0.002,0.032 -0.004,0.05 v 17.031 c 0,1.155 -0.935,2.091 -2.09,2.091 h -2.924 l 9.104,11.208 c 0.219,0.269 0.431,0.269 0.649,0 l 9.105,-11.208 h -2.925 c -1.154,0 -2.09,-0.936 -2.09,-2.091 V -1.951 c -0.003,-0.048 -0.004,-0.098 -0.004,-0.142 0,-1.153 0.935,-2.089 2.088,-2.089 h 23.552 l 0.298,0.003 c 11.974,0.06 21.717,9.389 21.717,20.796" style="fill:#16392c;fill-opacity:1;fill-rule:nonzero;stroke:none" transform="matrix(0.35277776,0,0,-0.35277776,39.54706,37.81181)" clip-path="url(#clipPath291-1-3)"></path></svg>