<svg xmlns:inkscape="http://www.inkscape.org/namespaces/inkscape" xmlns:sodipodi="http://sodipodi.sourceforge.net/DTD/sodipodi-0.dtd" xmlns="http://www.w3.org/2000/svg" xmlns:svg="http://www.w3.org/2000/svg" width="57.702446mm" height="57.702446mm" viewBox="0 0 57.702446 57.702445" id="svg1" inkscape:version="1.3.2 (091e20e, 2023-11-25)" sodipodi:docname="cap-05.svg"><defs id="defs1"><clipPath clipPathUnits="userSpaceOnUse" id="clipPath9"><path d="M 0,4608.17 H 1920 V 0 H 0 Z" transform="translate(-989.99335,-4095.0851)" id="path9"></path></clipPath><clipPath clipPathUnits="userSpaceOnUse" id="clipPath11"><path d="M 0,4608.17 H 1920 V 0 H 0 Z" transform="translate(-989.98195,-4019.5111)" id="path11"></path></clipPath><clipPath clipPathUnits="userSpaceOnUse" id="clipPath13"><path d="M 0,4608.17 H 1920 V 0 H 0 Z" transform="translate(-1032.3027,-4045.1039)" id="path13"></path></clipPath><clipPath clipPathUnits="userSpaceOnUse" id="clipPath118"><path d="M 0,4608.17 H 1920 V 0 H 0 Z" transform="translate(-268.59561,-2115.1905)" id="path118"></path></clipPath><clipPath clipPathUnits="userSpaceOnUse" id="clipPath125"><path d="M 0,4608.17 H 1920 V 0 H 0 Z" transform="translate(-1195.5615,-2115.1905)" id="path125"></path></clipPath><clipPath clipPathUnits="userSpaceOnUse" id="clipPath134"><path d="M 0,4608.17 H 1920 V 0 H 0 Z" transform="translate(-268.59561,-1821.2369)" id="path134"></path></clipPath><clipPath clipPathUnits="userSpaceOnUse" id="clipPath140"><path d="M 0,4608.17 H 1920 V 0 H 0 Z" transform="translate(-1195.5615,-1814.237)" id="path140"></path></clipPath><clipPath clipPathUnits="userSpaceOnUse" id="clipPath142"><path d="M 0,4608.17 H 1920 V 0 H 0 Z" transform="translate(-896.58025,-1402.7468)" id="path142"></path></clipPath><clipPath clipPathUnits="userSpaceOnUse" id="clipPath146"><path d="M 0,4608.17 H 1920 V 0 H 0 Z" transform="translate(-268.59561,-1520.2835)" id="path146"></path></clipPath><clipPath clipPathUnits="userSpaceOnUse" id="clipPath165"><path d="M 0,4608.17 H 1920 V 0 H 0 Z" transform="translate(-224.56741,-1566.0218)" id="path165"></path></clipPath><clipPath clipPathUnits="userSpaceOnUse" id="clipPath167"><path d="M 0,4608.17 H 1920 V 0 H 0 Z" transform="translate(-212.09281,-1555.5789)" id="path167"></path></clipPath><clipPath clipPathUnits="userSpaceOnUse" id="clipPath169"><path d="M 0,4608.17 H 1920 V 0 H 0 Z" transform="translate(-234.79711,-2086.4735)" id="path169"></path></clipPath><clipPath clipPathUnits="userSpaceOnUse" id="clipPath171"><path d="M 0,4608.17 H 1920 V 0 H 0 Z" transform="translate(-169.5307,-2142.9774)" id="path171"></path></clipPath><clipPath clipPathUnits="userSpaceOnUse" id="clipPath273"><path d="M 0,4608.17 H 1920 V 0 H 0 Z" transform="translate(0,2.5000001e-5)" id="path273"></path></clipPath><clipPath clipPathUnits="userSpaceOnUse" id="clipPath275"><path d="M 0,4608.17 H 1920 V 0 H 0 Z" transform="translate(-147.6774,-1836.3635)" id="path275"></path></clipPath><clipPath clipPathUnits="userSpaceOnUse" id="clipPath277"><path d="M 0,4608.17 H 1920 V 0 H 0 Z" transform="translate(-147.6774,-1827.5924)" id="path277"></path></clipPath><clipPath clipPathUnits="userSpaceOnUse" id="clipPath279"><path d="M 0,4608.17 H 1920 V 0 H 0 Z" transform="translate(-147.6774,-1818.8217)" id="path279"></path></clipPath><clipPath clipPathUnits="userSpaceOnUse" id="clipPath281"><path d="M 0,4608.17 H 1920 V 0 H 0 Z" transform="translate(-147.6774,-1810.0509)" id="path281"></path></clipPath><clipPath clipPathUnits="userSpaceOnUse" id="clipPath283"><path d="M 0,4608.17 H 1920 V 0 H 0 Z" transform="translate(-219.1138,-1838.4498)" id="path283"></path></clipPath><clipPath clipPathUnits="userSpaceOnUse" id="clipPath285"><path d="M 0,4608.17 H 1920 V 0 H 0 Z" transform="translate(-219.1138,-1829.6792)" id="path285"></path></clipPath><clipPath clipPathUnits="userSpaceOnUse" id="clipPath287"><path d="M 0,4608.17 H 1920 V 0 H 0 Z" transform="translate(-219.1138,-1820.9058)" id="path287"></path></clipPath><clipPath clipPathUnits="userSpaceOnUse" id="clipPath289"><path d="M 0,4608.17 H 1920 V 0 H 0 Z" transform="translate(-219.1138,-1812.1349)" id="path289"></path></clipPath><clipPath clipPathUnits="userSpaceOnUse" id="clipPath291"><path d="M 0,4608.17 H 1920 V 0 H 0 Z" transform="translate(-1144.0974,-1788.8369)" id="path291"></path></clipPath><clipPath clipPathUnits="userSpaceOnUse" id="clipPath293"><path d="M 0,4608.17 H 1920 V 0 H 0 Z" transform="translate(-1091.1499,-2159.6766)" id="path293"></path></clipPath><clipPath clipPathUnits="userSpaceOnUse" id="clipPath295"><path d="M 0,4608.17 H 1920 V 0 H 0 Z" transform="translate(-1091.1499,-2119.2456)" id="path295"></path></clipPath><clipPath clipPathUnits="userSpaceOnUse" id="clipPath297"><path d="M 0,4608.17 H 1920 V 0 H 0 Z" transform="translate(-1101.0033,-2140.8617)" id="path297"></path></clipPath><clipPath clipPathUnits="userSpaceOnUse" id="clipPath299"><path d="M 0,4608.17 H 1920 V 0 H 0 Z" transform="translate(-1084.3702,-2122.0553)" id="path299"></path></clipPath><clipPath clipPathUnits="userSpaceOnUse" id="clipPath301"><path d="M 0,4608.17 H 1920 V 0 H 0 Z" transform="translate(-1121.3557,-2132.5458)" id="path301"></path></clipPath><clipPath clipPathUnits="userSpaceOnUse" id="clipPath303"><path d="M 0,4608.17 H 1920 V 0 H 0 Z" transform="translate(-1065.5565,-2134.0818)" id="path303"></path></clipPath><clipPath clipPathUnits="userSpaceOnUse" id="clipPath305"><path d="M 0,4608.17 H 1920 V 0 H 0 Z" transform="translate(-1072.4154,-2152.8177)" id="path305"></path></clipPath><clipPath clipPathUnits="userSpaceOnUse" id="clipPath307"><path d="M 0,4608.17 H 1920 V 0 H 0 Z" transform="translate(-1132.7697,-2096.9676)" id="path307"></path></clipPath><clipPath clipPathUnits="userSpaceOnUse" id="clipPath134-5"><path d="M 0,4608.17 H 1920 V 0 H 0 Z" transform="translate(-268.59561,-1821.2369)" id="path134-4"></path></clipPath><clipPath clipPathUnits="userSpaceOnUse" id="clipPath140-3"><path d="M 0,4608.17 H 1920 V 0 H 0 Z" transform="translate(-1195.5615,-1814.237)" id="path140-6"></path></clipPath><clipPath clipPathUnits="userSpaceOnUse" id="clipPath146-5"><path d="M 0,4608.17 H 1920 V 0 H 0 Z" transform="translate(-268.59561,-1520.2835)" id="path146-9"></path></clipPath><clipPath clipPathUnits="userSpaceOnUse" id="clipPath165-5"><path d="M 0,4608.17 H 1920 V 0 H 0 Z" transform="translate(-224.56741,-1566.0218)" id="path165-4"></path></clipPath><clipPath clipPathUnits="userSpaceOnUse" id="clipPath167-9"><path d="M 0,4608.17 H 1920 V 0 H 0 Z" transform="translate(-212.09281,-1555.5789)" id="path167-1"></path></clipPath><clipPath clipPathUnits="userSpaceOnUse" id="clipPath273-7"><path d="M 0,4608.17 H 1920 V 0 H 0 Z" transform="translate(0,2.5000001e-5)" id="path273-5"></path></clipPath><clipPath clipPathUnits="userSpaceOnUse" id="clipPath275-5"><path d="M 0,4608.17 H 1920 V 0 H 0 Z" transform="translate(-147.6774,-1836.3635)" id="path275-4"></path></clipPath><clipPath clipPathUnits="userSpaceOnUse" id="clipPath277-1"><path d="M 0,4608.17 H 1920 V 0 H 0 Z" transform="translate(-147.6774,-1827.5924)" id="path277-8"></path></clipPath><clipPath clipPathUnits="userSpaceOnUse" id="clipPath279-8"><path d="M 0,4608.17 H 1920 V 0 H 0 Z" transform="translate(-147.6774,-1818.8217)" id="path279-3"></path></clipPath><clipPath clipPathUnits="userSpaceOnUse" id="clipPath281-5"><path d="M 0,4608.17 H 1920 V 0 H 0 Z" transform="translate(-147.6774,-1810.0509)" id="path281-2"></path></clipPath><clipPath clipPathUnits="userSpaceOnUse" id="clipPath283-2"><path d="M 0,4608.17 H 1920 V 0 H 0 Z" transform="translate(-219.1138,-1838.4498)" id="path283-6"></path></clipPath><clipPath clipPathUnits="userSpaceOnUse" id="clipPath285-6"><path d="M 0,4608.17 H 1920 V 0 H 0 Z" transform="translate(-219.1138,-1829.6792)" id="path285-7"></path></clipPath><clipPath clipPathUnits="userSpaceOnUse" id="clipPath287-8"><path d="M 0,4608.17 H 1920 V 0 H 0 Z" transform="translate(-219.1138,-1820.9058)" id="path287-4"></path></clipPath><clipPath clipPathUnits="userSpaceOnUse" id="clipPath289-1"><path d="M 0,4608.17 H 1920 V 0 H 0 Z" transform="translate(-219.1138,-1812.1349)" id="path289-7"></path></clipPath><clipPath clipPathUnits="userSpaceOnUse" id="clipPath291-1"><path d="M 0,4608.17 H 1920 V 0 H 0 Z" transform="translate(-1144.0974,-1788.8369)" id="path291-8"></path></clipPath><clipPath clipPathUnits="userSpaceOnUse" id="clipPath125-7"><path d="M 0,4608.17 H 1920 V 0 H 0 Z" transform="translate(-1195.5615,-2115.1905)" id="path125-8"></path></clipPath><clipPath clipPathUnits="userSpaceOnUse" id="clipPath293-7"><path d="M 0,4608.17 H 1920 V 0 H 0 Z" transform="translate(-1091.1499,-2159.6766)" id="path293-7"></path></clipPath><clipPath clipPathUnits="userSpaceOnUse" id="clipPath295-4"><path d="M 0,4608.17 H 1920 V 0 H 0 Z" transform="translate(-1091.1499,-2119.2456)" id="path295-4"></path></clipPath><clipPath clipPathUnits="userSpaceOnUse" id="clipPath297-9"><path d="M 0,4608.17 H 1920 V 0 H 0 Z" transform="translate(-1101.0033,-2140.8617)" id="path297-1"></path></clipPath><clipPath clipPathUnits="userSpaceOnUse" id="clipPath299-5"><path d="M 0,4608.17 H 1920 V 0 H 0 Z" transform="translate(-1084.3702,-2122.0553)" id="path299-5"></path></clipPath><clipPath clipPathUnits="userSpaceOnUse" id="clipPath301-5"><path d="M 0,4608.17 H 1920 V 0 H 0 Z" transform="translate(-1121.3557,-2132.5458)" id="path301-8"></path></clipPath><clipPath clipPathUnits="userSpaceOnUse" id="clipPath303-2"><path d="M 0,4608.17 H 1920 V 0 H 0 Z" transform="translate(-1065.5565,-2134.0818)" id="path303-9"></path></clipPath><clipPath clipPathUnits="userSpaceOnUse" id="clipPath305-8"><path d="M 0,4608.17 H 1920 V 0 H 0 Z" transform="translate(-1072.4154,-2152.8177)" id="path305-2"></path></clipPath><clipPath clipPathUnits="userSpaceOnUse" id="clipPath307-0"><path d="M 0,4608.17 H 1920 V 0 H 0 Z" transform="translate(-1132.7697,-2096.9676)" id="path307-7"></path></clipPath><clipPath clipPathUnits="userSpaceOnUse" id="clipPath134-5-7"><path d="M 0,4608.17 H 1920 V 0 H 0 Z" transform="translate(-268.59561,-1821.2369)" id="path134-4-1"></path></clipPath><clipPath clipPathUnits="userSpaceOnUse" id="clipPath140-3-5"><path d="M 0,4608.17 H 1920 V 0 H 0 Z" transform="translate(-1195.5615,-1814.237)" id="path140-6-2"></path></clipPath><clipPath clipPathUnits="userSpaceOnUse" id="clipPath146-5-1"><path d="M 0,4608.17 H 1920 V 0 H 0 Z" transform="translate(-268.59561,-1520.2835)" id="path146-9-1"></path></clipPath><clipPath clipPathUnits="userSpaceOnUse" id="clipPath165-5-0"><path d="M 0,4608.17 H 1920 V 0 H 0 Z" transform="translate(-224.56741,-1566.0218)" id="path165-4-1"></path></clipPath><clipPath clipPathUnits="userSpaceOnUse" id="clipPath167-9-8"><path d="M 0,4608.17 H 1920 V 0 H 0 Z" transform="translate(-212.09281,-1555.5789)" id="path167-1-7"></path></clipPath><clipPath clipPathUnits="userSpaceOnUse" id="clipPath273-7-6"><path d="M 0,4608.17 H 1920 V 0 H 0 Z" transform="translate(0,2.5000001e-5)" id="path273-5-0"></path></clipPath><clipPath clipPathUnits="userSpaceOnUse" id="clipPath275-5-0"><path d="M 0,4608.17 H 1920 V 0 H 0 Z" transform="translate(-147.6774,-1836.3635)" id="path275-4-9"></path></clipPath><clipPath clipPathUnits="userSpaceOnUse" id="clipPath277-1-5"><path d="M 0,4608.17 H 1920 V 0 H 0 Z" transform="translate(-147.6774,-1827.5924)" id="path277-8-6"></path></clipPath><clipPath clipPathUnits="userSpaceOnUse" id="clipPath279-8-2"><path d="M 0,4608.17 H 1920 V 0 H 0 Z" transform="translate(-147.6774,-1818.8217)" id="path279-3-8"></path></clipPath><clipPath clipPathUnits="userSpaceOnUse" id="clipPath281-5-5"><path d="M 0,4608.17 H 1920 V 0 H 0 Z" transform="translate(-147.6774,-1810.0509)" id="path281-2-9"></path></clipPath><clipPath clipPathUnits="userSpaceOnUse" id="clipPath283-2-4"><path d="M 0,4608.17 H 1920 V 0 H 0 Z" transform="translate(-219.1138,-1838.4498)" id="path283-6-3"></path></clipPath><clipPath clipPathUnits="userSpaceOnUse" id="clipPath285-6-9"><path d="M 0,4608.17 H 1920 V 0 H 0 Z" transform="translate(-219.1138,-1829.6792)" id="path285-7-0"></path></clipPath><clipPath clipPathUnits="userSpaceOnUse" id="clipPath287-8-5"><path d="M 0,4608.17 H 1920 V 0 H 0 Z" transform="translate(-219.1138,-1820.9058)" id="path287-4-6"></path></clipPath><clipPath clipPathUnits="userSpaceOnUse" id="clipPath289-1-3"><path d="M 0,4608.17 H 1920 V 0 H 0 Z" transform="translate(-219.1138,-1812.1349)" id="path289-7-6"></path></clipPath><clipPath clipPathUnits="userSpaceOnUse" id="clipPath291-1-3"><path d="M 0,4608.17 H 1920 V 0 H 0 Z" transform="translate(-1144.0974,-1788.8369)" id="path291-8-0"></path></clipPath><clipPath clipPathUnits="userSpaceOnUse" id="clipPath134-5-7-0"><path d="M 0,4608.17 H 1920 V 0 H 0 Z" transform="translate(-268.59561,-1821.2369)" id="path134-4-1-9"></path></clipPath><clipPath clipPathUnits="userSpaceOnUse" id="clipPath146-5-1-3"><path d="M 0,4608.17 H 1920 V 0 H 0 Z" transform="translate(-268.59561,-1520.2835)" id="path146-9-1-7"></path></clipPath><clipPath clipPathUnits="userSpaceOnUse" id="clipPath165-5-0-5"><path d="M 0,4608.17 H 1920 V 0 H 0 Z" transform="translate(-224.56741,-1566.0218)" id="path165-4-1-7"></path></clipPath><clipPath clipPathUnits="userSpaceOnUse" id="clipPath167-9-8-2"><path d="M 0,4608.17 H 1920 V 0 H 0 Z" transform="translate(-212.09281,-1555.5789)" id="path167-1-7-9"></path></clipPath><clipPath clipPathUnits="userSpaceOnUse" id="clipPath273-7-6-7"><path d="M 0,4608.17 H 1920 V 0 H 0 Z" transform="translate(0,2.5000001e-5)" id="path273-5-0-5"></path></clipPath><clipPath clipPathUnits="userSpaceOnUse" id="clipPath275-5-0-6"><path d="M 0,4608.17 H 1920 V 0 H 0 Z" transform="translate(-147.6774,-1836.3635)" id="path275-4-9-5"></path></clipPath><clipPath clipPathUnits="userSpaceOnUse" id="clipPath277-1-5-3"><path d="M 0,4608.17 H 1920 V 0 H 0 Z" transform="translate(-147.6774,-1827.5924)" id="path277-8-6-0"></path></clipPath><clipPath clipPathUnits="userSpaceOnUse" id="clipPath279-8-2-4"><path d="M 0,4608.17 H 1920 V 0 H 0 Z" transform="translate(-147.6774,-1818.8217)" id="path279-3-8-8"></path></clipPath><clipPath clipPathUnits="userSpaceOnUse" id="clipPath281-5-5-5"><path d="M 0,4608.17 H 1920 V 0 H 0 Z" transform="translate(-147.6774,-1810.0509)" id="path281-2-9-5"></path></clipPath><clipPath clipPathUnits="userSpaceOnUse" id="clipPath283-2-4-5"><path d="M 0,4608.17 H 1920 V 0 H 0 Z" transform="translate(-219.1138,-1838.4498)" id="path283-6-3-4"></path></clipPath><clipPath clipPathUnits="userSpaceOnUse" id="clipPath285-6-9-2"><path d="M 0,4608.17 H 1920 V 0 H 0 Z" transform="translate(-219.1138,-1829.6792)" id="path285-7-0-1"></path></clipPath><clipPath clipPathUnits="userSpaceOnUse" id="clipPath287-8-5-9"><path d="M 0,4608.17 H 1920 V 0 H 0 Z" transform="translate(-219.1138,-1820.9058)" id="path287-4-6-2"></path></clipPath><clipPath clipPathUnits="userSpaceOnUse" id="clipPath289-1-3-4"><path d="M 0,4608.17 H 1920 V 0 H 0 Z" transform="translate(-219.1138,-1812.1349)" id="path289-7-6-5"></path></clipPath></defs><g inkscape:label="Capa 1" inkscape:groupmode="layer" id="layer1" transform="translate(933.11237,613.48055)"><path id="path133" d="m 0,0 c 0,-45.168 -36.616,-81.783 -81.783,-81.783 -45.168,0 -81.783,36.615 -81.783,81.783 0,45.168 36.615,81.783 81.783,81.783 C -36.616,81.783 0,45.168 0,0" style="fill:#dbede2;fill-opacity:1;fill-rule:nonzero;stroke:none" transform="matrix(0.35277776,0,0,-0.35277776,-875.40992,-584.62933)" clip-path="url(#clipPath134-5-7-0)"></path><path id="path272" d="M 191.645,1851.059 H 225.5 v -55.986 h -33.855 z m -2.857,-65.007 c -1.482,1.217 -2.961,2.432 -4.443,3.646 -0.366,0.3 -1.078,0.297 -1.443,0 -1.497,-1.217 -2.994,-2.439 -4.489,-3.658 v 65.019 h 0.047 9.762 0.566 z m -13.234,9.021 h -34.373 v 55.986 h 34.373 z m 12.668,59.115 h -9.762 -1.476 -37.23 c -0.772,0 -1.43,-0.718 -1.43,-1.565 v -59.114 c 0,-0.848 0.655,-1.565 1.43,-1.565 h 35.8 v -9.005 c 0,-1.087 1.252,-2.085 2.152,-1.352 1.008,0.822 2.017,1.644 3.026,2.466 0.743,0.605 1.484,1.21 2.228,1.817 0.188,0.152 0.467,0.324 0.704,0.487 0.143,-0.095 0.283,-0.197 0.388,-0.303 0.647,-0.652 1.444,-1.184 2.147,-1.761 1.099,-0.902 2.198,-1.804 3.298,-2.706 0.612,-0.503 1.215,-0.32 1.607,0.145 0.318,0.247 0.541,0.647 0.541,1.207 v 9.005 h 35.285 c 0.419,0 0.737,0.165 0.965,0.418 0.017,0.015 0.033,0.032 0.05,0.049 0.008,0.011 0.017,0.021 0.025,0.031 0.232,0.25 0.388,0.602 0.388,1.067 v 59.114 c 0,0.845 -0.655,1.565 -1.428,1.565 h -36.714 z" style="fill:#222020;fill-opacity:1;fill-rule:nonzero;stroke:none" transform="matrix(0.35277776,0,0,-0.35277776,-970.16448,57.86258)" clip-path="url(#clipPath273-7-6-7)"></path><path id="path274" d="m 0,0 h 20.193 c 1.224,0 1.227,2.086 0,2.086 H 0 C -1.226,2.086 -1.228,0 0,0" style="fill:#222020 icc-color(sRGB-IEC61966-2, 0.1, 0.13299561, 0.125, 0.125);fill-opacity:1;fill-rule:nonzero;stroke:none" transform="matrix(0.35277776,0,0,-0.35277776,-918.06717,-589.96563)" clip-path="url(#clipPath275-5-0-6)"></path><path id="path276" d="m 0,0 h 20.193 c 1.224,0 1.227,2.087 0,2.087 H 0 C -1.226,2.087 -1.228,0 0,0" style="fill:#222020 icc-color(sRGB-IEC61966-2, 0.1, 0.13299561, 0.125, 0.125);fill-opacity:1;fill-rule:nonzero;stroke:none" transform="matrix(0.35277776,0,0,-0.35277776,-918.06717,-586.87141)" clip-path="url(#clipPath277-1-5-3)"></path><path id="path278" d="m 0,0 h 20.193 c 1.224,0 1.227,2.084 0,2.084 H 0 C -1.226,2.084 -1.228,0 0,0" style="fill:#222020 icc-color(sRGB-IEC61966-2, 0.1, 0.13299561, 0.125, 0.125);fill-opacity:1;fill-rule:nonzero;stroke:none" transform="matrix(0.35277776,0,0,-0.35277776,-918.06717,-583.77729)" clip-path="url(#clipPath279-8-2-4)"></path><path id="path280" d="m 0,0 h 20.193 c 1.224,0 1.227,2.084 0,2.084 H 0 C -1.226,2.084 -1.228,0 0,0" style="fill:#222020 icc-color(sRGB-IEC61966-2, 0.1, 0.13299561, 0.125, 0.125);fill-opacity:1;fill-rule:nonzero;stroke:none" transform="matrix(0.35277776,0,0,-0.35277776,-918.06717,-580.68315)" clip-path="url(#clipPath281-5-5-5)"></path><path id="path282" d="m 0,0 h -20.193 c -1.226,0 -1.227,-2.086 0,-2.086 H 0 C 1.226,-2.086 1.228,0 0,0" style="fill:#222020 icc-color(sRGB-IEC61966-2, 0.1, 0.13299561, 0.125, 0.125);fill-opacity:1;fill-rule:nonzero;stroke:none" transform="matrix(0.35277776,0,0,-0.35277776,-892.866,-590.70165)" clip-path="url(#clipPath283-2-4-5)"></path><path id="path284" d="m 0,0 h -20.193 c -1.226,0 -1.227,-2.087 0,-2.087 H 0 C 1.226,-2.087 1.228,0 0,0" style="fill:#222020 icc-color(sRGB-IEC61966-2, 0.1, 0.13299561, 0.125, 0.125);fill-opacity:1;fill-rule:nonzero;stroke:none" transform="matrix(0.35277776,0,0,-0.35277776,-892.866,-587.60756)" clip-path="url(#clipPath285-6-9-2)"></path><path id="path286" d="m 0,0 h -20.193 c -1.226,0 -1.227,-2.084 0,-2.084 H 0 C 1.226,-2.084 1.228,0 0,0" style="fill:#222020 icc-color(sRGB-IEC61966-2, 0.1, 0.13299561, 0.125, 0.125);fill-opacity:1;fill-rule:nonzero;stroke:none" transform="matrix(0.35277776,0,0,-0.35277776,-892.866,-584.51251)" clip-path="url(#clipPath287-8-5-9)"></path><path id="path288" d="m 0,0 h -20.193 c -1.226,0 -1.227,-2.084 0,-2.084 H 0 C 1.226,-2.084 1.228,0 0,0" style="fill:#222020 icc-color(sRGB-IEC61966-2, 0.1, 0.13299561, 0.125, 0.125);fill-opacity:1;fill-rule:nonzero;stroke:none" transform="matrix(0.35277776,0,0,-0.35277776,-892.866,-581.41832)" clip-path="url(#clipPath289-1-3-4)"></path></g></svg>