<svg xmlns:inkscape="http://www.inkscape.org/namespaces/inkscape" xmlns:sodipodi="http://sodipodi.sourceforge.net/DTD/sodipodi-0.dtd" xmlns="http://www.w3.org/2000/svg" xmlns:svg="http://www.w3.org/2000/svg" width="65.580345mm" height="28.454691mm" viewBox="0 0 65.580345 28.454691" id="svg1" inkscape:version="1.3.2 (091e20e, 2023-11-25)" sodipodi:docname="cap-07.svg"><defs id="defs1"><clipPath clipPathUnits="userSpaceOnUse" id="clipPath28"><path d="M 0,2656.854 H 1920 V 0 H 0 Z" transform="translate(-980.40452,-2076.6197)" id="path28"></path></clipPath></defs><g inkscape:label="Capa 1" inkscape:groupmode="layer" id="layer1" transform="translate(-73.289577,-121.97291)"><path id="path27" d="m 0,0 c -0.157,0.361 -0.206,0.743 -0.412,0.869 -0.197,0.121 -0.71,0.085 -0.821,-0.07 -0.681,-0.954 -1.325,-1.941 -1.883,-2.969 -0.1,-0.183 0.192,-0.69 0.431,-0.903 0.142,-0.126 0.686,-0.072 0.791,0.079 C -1.225,-2.027 -0.627,-1.01 0,0 m 113.77,-4.021 c 1.395,1.281 0.094,4.081 -2.415,5.104 -0.03,-2.24 1.618,-3.443 2.415,-5.104 M 14.755,-4.927 c 1.409,1.643 -0.26,4.97 -2.906,5.994 0.277,-2.439 1.769,-4.002 2.906,-5.994 m 76.504,-0.15 c 0.265,0.022 0.53,0.044 0.795,0.066 0.035,0.656 0.32,1.443 0.057,1.943 -0.657,1.251 -1.523,2.403 -2.395,3.524 -0.221,0.284 -0.781,0.305 -1.186,0.447 -0.021,-0.398 -0.199,-0.881 -0.038,-1.181 0.876,-1.625 1.836,-3.204 2.767,-4.799 M 29.043,-5.563 c -2.137,0.024 -3.618,-1.432 -3.682,-3.621 -0.064,-2.173 1.368,-3.67 3.546,-3.707 2.327,-0.039 3.757,1.264 3.779,3.442 0.022,2.27 -1.469,3.86 -3.643,3.886 m 99.722,-7.316 c 2.133,0.022 3.546,1.406 3.557,3.486 0.012,2.226 -1.538,3.783 -3.75,3.765 -2.243,-0.018 -3.615,-1.388 -3.629,-3.623 -0.013,-2.278 1.435,-3.652 3.822,-3.628 m -44.993,0.057 c 2.226,-0.003 3.793,1.473 3.764,3.544 -0.03,2.121 -1.577,3.693 -3.66,3.72 -2.204,0.028 -3.711,-1.42 -3.723,-3.58 -0.013,-2.217 1.425,-3.681 3.619,-3.684 m -100.607,7.201 c -2.215,0.012 -3.777,-1.524 -3.794,-3.731 -0.016,-2.078 1.414,-3.582 3.438,-3.615 2.231,-0.036 3.891,1.488 3.921,3.6 0.029,2.09 -1.536,3.734 -3.565,3.746 m 23.433,-7.302 c 2.224,-0.006 3.777,1.407 3.813,3.469 0.038,2.162 -1.565,3.884 -3.639,3.91 -2.208,0.028 -3.732,-1.474 -3.779,-3.726 -0.044,-2.105 1.479,-3.648 3.605,-3.653 m 94.88,3.564 c -0.018,-2.087 1.491,-3.545 3.699,-3.574 2.111,-0.028 3.736,1.521 3.738,3.561 10e-4,2.151 -1.489,3.765 -3.521,3.812 -2.294,0.053 -3.895,-1.501 -3.916,-3.799 m -41.759,7.86 c 0.057,2.843 -1.779,4.844 -4.508,4.912 -2.939,0.073 -5.092,-1.902 -5.165,-4.738 -0.073,-2.845 1.997,-4.898 4.959,-4.918 2.724,-0.018 4.657,1.928 4.714,4.744 m -38.431,-9.599 c -1.676,-1.376 -1.825,-2.703 -0.72,-4.247 1.986,-2.775 2.336,-5.904 2.288,-9.256 -0.153,-10.641 -0.107,-21.285 -0.134,-31.928 -0.002,-1.053 -0.193,-2.419 1.231,-2.543 1.534,-0.134 1.304,1.358 1.525,2.334 0.069,0.302 0.051,0.623 0.077,0.935 0.455,5.487 0.91,10.975 1.366,16.462 0.116,1.405 0.476,2.739 2.182,2.739 1.659,0 2.156,-1.285 2.287,-2.695 0.174,-1.869 0.283,-3.744 0.424,-5.616 0.31,-4.119 0.569,-8.243 0.99,-12.351 0.066,-0.651 0.87,-1.227 1.333,-1.839 0.392,0.661 0.798,1.314 1.164,1.99 0.078,0.144 0.006,0.369 0.006,0.557 -0.011,9.703 0.201,19.415 -0.12,29.108 -0.183,5.504 0.536,10.523 3.872,15.009 0.443,0.596 0.667,1.353 1.096,1.963 0.872,1.236 0.523,2.18 -0.668,3.171 -1.644,-2.11 -3.192,-4.211 -4.86,-6.212 -2.822,-3.385 -7.893,-3.477 -10.9,-0.259 -0.801,0.857 -1.58,1.734 -2.439,2.678 M -8.419,-9.67 c -0.805,-1.002 -1.607,-1.801 -2.176,-2.74 -3.051,-5.036 -9.824,-4.646 -12.826,-0.151 -2.775,4.155 -5.768,8.165 -8.713,12.204 -0.293,0.402 -0.922,0.559 -1.395,0.831 0.076,-0.497 0.023,-1.064 0.249,-1.479 2.308,-4.221 4.56,-8.478 7.033,-12.602 2.079,-3.467 3.141,-7.008 3.05,-11.145 -0.233,-10.507 -0.093,-21.023 -0.097,-31.535 0,-0.623 -0.099,-1.309 0.126,-1.85 0.175,-0.42 0.757,-0.848 1.209,-0.912 0.306,-0.044 0.801,0.478 1.026,0.857 0.207,0.35 0.193,0.845 0.231,1.279 0.503,5.731 1.005,11.463 1.49,17.195 0.123,1.451 0.387,2.823 2.147,3.034 1.364,0.164 2.257,-0.939 2.425,-2.94 0.235,-2.805 0.393,-5.616 0.614,-8.422 0.242,-3.055 0.448,-6.117 0.833,-9.156 0.086,-0.678 0.85,-1.27 1.302,-1.901 0.36,0.687 0.727,1.37 1.075,2.064 0.05,0.1 0.006,0.247 0.006,0.372 -0.022,11.451 0.004,22.902 -0.105,34.353 -0.021,2.157 0.446,4.052 1.5,5.87 0.564,0.972 1.016,2.021 1.667,2.928 1.009,1.407 0.648,2.529 -0.671,3.846 m 128.733,-0.691 c -1.476,-1.292 -1.677,-2.429 -0.698,-3.818 2.28,-3.233 2.941,-6.808 2.857,-10.788 -0.218,-10.321 -0.08,-20.65 -0.077,-30.975 0,-0.687 -0.046,-1.401 0.126,-2.051 0.105,-0.397 0.62,-0.998 0.89,-0.967 0.448,0.05 0.971,0.455 1.23,0.86 0.247,0.386 0.229,0.96 0.271,1.456 0.316,3.739 0.608,7.481 0.927,11.22 0.187,2.181 0.357,4.365 0.633,6.536 0.162,1.274 0.854,2.52 2.255,2.18 0.841,-0.205 1.469,-1.379 2.129,-2.171 0.166,-0.2 0.093,-0.605 0.117,-0.917 0.406,-5.364 0.808,-10.729 1.214,-16.094 0.047,-0.623 -0.033,-1.309 0.205,-1.852 0.237,-0.539 0.802,-0.934 1.223,-1.392 0.412,0.516 0.87,1.005 1.212,1.564 0.139,0.228 0.023,0.612 0.023,0.925 0.001,11.577 0.034,23.155 -0.028,34.732 -0.01,1.83 0.435,3.393 1.337,4.953 2.943,5.085 5.823,10.206 8.686,15.336 0.357,0.641 0.471,1.417 0.698,2.13 -0.229,0.099 -0.457,0.2 -0.686,0.299 -0.489,-0.594 -1.01,-1.165 -1.462,-1.786 -2.94,-4.044 -5.792,-8.154 -8.818,-12.133 -3.023,-3.974 -8.416,-4.042 -11.675,-0.285 -0.847,0.978 -1.679,1.969 -2.589,3.038 M 97.978,-11.72 c -1.428,-1.507 -2.052,-2.834 -0.758,-4.583 1.473,-1.991 1.778,-4.318 1.76,-6.759 -0.078,-10.891 -0.089,-21.783 -0.123,-32.675 -0.002,-0.626 -0.147,-1.31 0.059,-1.861 0.205,-0.551 0.768,-0.968 1.174,-1.444 0.458,0.422 1.044,0.771 1.333,1.287 0.255,0.455 0.198,1.094 0.242,1.655 0.443,5.552 0.881,11.104 1.314,16.657 0.109,1.399 0.437,2.748 2.105,2.838 1.759,0.095 2.321,-1.2 2.456,-2.709 0.228,-2.555 0.426,-5.113 0.635,-7.67 0.28,-3.432 0.493,-6.871 0.898,-10.287 0.075,-0.637 0.92,-1.182 1.41,-1.77 0.335,0.646 0.708,1.277 0.986,1.946 0.111,0.266 0.009,0.618 0.009,0.931 -10e-4,11.644 -0.026,23.287 0.033,34.931 0.006,1.127 0.304,2.375 0.848,3.356 3.089,5.578 6.305,11.085 9.446,16.634 0.359,0.634 0.527,1.376 0.783,2.068 -0.211,0.133 -0.423,0.265 -0.634,0.397 -0.468,-0.475 -1.001,-0.902 -1.393,-1.434 -3.228,-4.374 -6.315,-8.858 -9.674,-13.128 -3.006,-3.82 -8.205,-3.735 -11.384,-0.067 -0.474,0.546 -0.97,1.074 -1.525,1.687 m -26.223,6.634 c -0.979,-1.049 -1.036,-1.852 -0.445,-2.869 1.664,-2.865 3.223,-5.79 4.891,-8.653 1.004,-1.722 1.482,-3.489 1.45,-5.516 -0.1,-6.259 -0.05,-12.519 -0.053,-18.779 -0.002,-5.446 -0.031,-10.892 0.058,-16.337 0.01,-0.62 0.706,-1.229 1.085,-1.843 0.429,0.522 0.995,0.985 1.249,1.581 0.261,0.609 0.241,1.347 0.302,2.032 0.473,5.297 0.948,10.594 1.392,15.894 0.123,1.465 0.389,2.915 2.164,2.974 1.782,0.059 2.187,-1.337 2.311,-2.828 0.338,-4.052 0.698,-8.103 1.033,-12.157 0.164,-1.996 0.208,-4.007 0.491,-5.984 0.082,-0.567 0.808,-1.041 1.238,-1.558 0.395,0.522 0.821,1.024 1.168,1.577 0.113,0.179 0.02,0.489 0.02,0.739 -0.008,11.581 0.014,23.162 -0.053,34.742 -0.011,1.949 0.389,3.67 1.366,5.349 3.049,5.239 6.051,10.506 9.003,15.802 0.294,0.528 0.119,1.319 0.161,1.988 -0.507,-0.361 -1.15,-0.622 -1.5,-1.099 -3.142,-4.283 -6.147,-8.667 -9.36,-12.895 -3.173,-4.175 -8.531,-4.169 -11.866,-0.092 -1.464,1.789 -2.784,3.695 -4.184,5.538 -0.582,0.766 -1.204,1.503 -1.921,2.394 M -9.614,1.352 c -0.253,-0.114 -0.506,-0.227 -0.759,-0.341 0.155,-0.594 0.195,-1.252 0.483,-1.773 2.993,-5.413 6.098,-10.765 8.997,-16.226 0.728,-1.37 1.157,-3.069 1.17,-4.622 0.098,-11.451 0.054,-22.903 0.061,-34.355 0,-0.686 -0.082,-1.421 0.135,-2.043 0.149,-0.426 0.739,-0.944 1.153,-0.962 0.397,-0.018 0.945,0.479 1.196,0.89 0.24,0.393 0.209,0.965 0.253,1.462 0.5,5.735 0.991,11.47 1.485,17.205 0.12,1.383 0.424,2.786 2.101,2.839 1.773,0.055 2.211,-1.318 2.328,-2.815 0.231,-2.931 0.475,-5.86 0.708,-8.791 0.248,-3.119 0.421,-6.246 0.794,-9.349 0.07,-0.586 0.92,-1.078 1.411,-1.613 0.37,0.566 0.77,1.117 1.095,1.708 0.105,0.192 0.016,0.492 0.016,0.742 -0.019,10.513 0.109,21.03 -0.132,31.538 -0.093,4.095 0.628,7.692 2.838,11.164 2.75,4.32 5.201,8.832 7.729,13.29 0.261,0.46 0.169,1.121 0.24,1.688 C 23.157,0.704 22.599,0.457 22.104,0.118 21.865,-0.046 21.752,-0.389 21.569,-0.643 18.65,-4.702 15.793,-8.808 12.79,-12.804 9.436,-17.269 3.962,-17.301 0.582,-12.838 c -2.788,3.681 -5.365,7.523 -8.045,11.287 -0.699,0.981 -1.433,1.936 -2.151,2.903 m 56.649,-38.517 h -0.029 c 0,-7.2 -10e-4,-14.4 0.002,-21.6 0,-0.5 -0.148,-1.111 0.082,-1.476 0.389,-0.622 1.044,-1.53 1.553,-1.509 0.658,0.027 1.376,0.771 1.885,1.363 0.27,0.314 0.166,0.96 0.21,1.458 0.614,6.919 1.184,13.843 1.853,20.756 0.269,2.779 1.038,3.726 2.578,3.703 1.636,-0.024 2.319,-1.034 2.555,-3.932 0.559,-6.861 1.091,-13.723 1.64,-20.585 0.045,-0.559 -0.043,-1.248 0.249,-1.639 0.398,-0.532 1.157,-1.211 1.662,-1.139 0.626,0.089 1.284,0.798 1.673,1.404 0.261,0.405 0.09,1.095 0.09,1.658 -0.004,14.025 -0.045,28.049 0.032,42.073 0.008,1.552 0.386,3.263 1.113,4.621 2.951,5.512 6.101,10.917 9.186,16.358 1.08,1.905 2.255,3.761 3.231,5.716 0.294,0.589 0.062,1.439 0.07,2.17 -0.642,-0.293 -1.403,-0.456 -1.895,-0.911 -0.629,-0.58 -1.029,-1.405 -1.548,-2.11 -3.813,-5.187 -7.421,-10.545 -11.509,-15.506 -3.855,-4.677 -9.929,-4.454 -13.785,0.227 -2.621,3.18 -5.011,6.554 -7.437,9.891 -1.801,2.479 -3.445,5.073 -5.275,7.529 -0.381,0.512 -1.273,0.641 -1.93,0.947 0.02,-0.727 0.022,-1.455 0.071,-2.179 0.011,-0.166 0.189,-0.318 0.282,-0.481 4.145,-7.279 8.326,-14.537 12.394,-21.859 0.605,-1.089 0.938,-2.471 0.954,-3.724 0.089,-7.074 0.043,-14.149 0.043,-21.224 m -52.188,21.454 c -1.364,-1.981 -2.534,-3.677 -2.524,-6.036 0.045,-11.02 0.012,-22.041 0,-33.061 -0.001,-1.127 0.005,-2.258 -0.089,-3.379 -0.221,-2.64 -1.74,-4.103 -4.187,-4.114 -2.432,-0.01 -3.974,1.452 -4.206,4.078 -0.197,2.23 -0.322,4.468 -0.48,6.702 -0.159,0.027 -0.319,0.054 -0.479,0.081 -0.122,-0.531 -0.306,-1.057 -0.354,-1.595 -0.153,-1.746 -0.229,-3.498 -0.386,-5.244 -0.22,-2.454 -1.807,-3.978 -4.119,-4.016 -2.447,-0.04 -4.156,1.453 -4.452,3.913 -0.052,0.433 -0.032,0.876 -0.031,1.314 0.027,11.709 0.094,23.418 0.032,35.127 -0.007,1.352 -0.519,2.813 -1.163,4.029 -2.868,5.411 -5.873,10.748 -8.818,16.118 -0.783,1.43 -0.882,2.884 0.162,4.226 1.043,1.339 2.566,1.734 4.044,1.184 1.021,-0.38 1.995,-1.245 2.666,-2.137 1.802,-2.394 3.434,-4.917 5.125,-7.395 0.207,-0.303 0.357,-0.646 0.541,-0.983 5.094,5.469 5.52,5.539 12.574,2.096 -0.572,1.058 -0.992,1.852 -1.427,2.636 -1.487,2.681 -1.172,4.765 0.926,6.084 1.765,1.109 3.732,0.469 5.453,-1.772 0.298,-0.387 0.604,-0.766 1.085,-1.376 1.848,2.268 3.746,4.913 6.902,2.587 3.12,-2.301 0.739,-4.908 -0.081,-7.562 2.4,1.956 5.048,2.247 8.18,1.386 -0.307,0.787 -0.493,1.278 -0.689,1.763 -0.813,2.014 -0.357,3.702 1.293,4.779 1.381,0.902 3.491,0.603 4.777,-0.818 0.949,-1.049 1.743,-2.237 2.737,-3.533 0.761,1.042 1.416,1.938 2.071,2.835 1.496,2.051 3.53,2.694 5.346,1.69 1.807,-0.998 2.311,-3.065 1.326,-5.441 -0.114,-0.275 -0.228,-0.55 -0.501,-1.208 4.295,0.822 7.652,-0.155 9.502,-4.178 2.533,2.322 2.565,2.442 1.02,5.087 -1.892,3.24 -3.811,6.464 -5.709,9.7 -0.316,0.538 -0.611,1.092 -0.875,1.656 -1.03,2.198 -0.526,4.361 1.255,5.465 1.996,1.237 4.649,0.897 6.067,-1.033 2.665,-3.627 5.182,-7.362 7.769,-11.047 0.493,-0.702 1.021,-1.38 1.708,-2.305 1.786,3.55 3.994,6.179 8.156,6.148 4.134,-0.032 6.372,-2.633 8.175,-6.248 0.611,0.779 1.044,1.279 1.419,1.819 2.569,3.7 5.117,7.415 7.69,11.113 1.603,2.304 4.132,2.856 6.376,1.482 1.538,-0.941 2.555,-3.537 1.041,-5.977 -1.911,-3.077 -3.625,-6.276 -5.502,-9.375 -0.569,-0.94 -0.635,-1.654 0.074,-2.531 0.96,-1.187 1.814,-2.46 2.93,-3.996 1.88,3.761 4.752,5.102 8.645,4.477 -0.261,0.869 -0.449,1.449 -0.61,2.037 -0.486,1.773 -0.029,3.226 1.537,4.241 1.361,0.881 3.379,0.639 4.649,-0.676 0.861,-0.892 1.541,-1.962 2.279,-2.97 0.252,-0.344 0.431,-0.741 0.792,-1.376 1.006,1.371 1.668,2.252 2.309,3.147 1.697,2.369 3.493,3.082 5.336,2.104 2.166,-1.149 2.584,-2.895 1.395,-5.787 -0.042,-0.102 -0.005,-0.237 -0.005,-0.507 1.726,-0.193 3.467,-0.386 5.514,-0.614 -1.067,2.596 -2.001,5.35 1.095,6.751 3.46,1.566 4.893,-1.625 6.791,-3.839 0.682,0.938 1.221,1.754 1.834,2.51 1.621,2 3.525,2.392 5.427,1.161 1.72,-1.114 2.1,-3.115 1.017,-5.32 -0.245,-0.497 -0.471,-1.004 -0.588,-1.255 1.959,0.058 4.112,0.602 5.919,0.038 1.81,-0.565 3.274,-2.235 5.168,-3.625 1.455,2.033 3.138,4.394 4.833,6.748 0.582,0.809 1.107,1.685 1.809,2.377 1.376,1.356 3.711,1.451 5.177,0.334 1.415,-1.079 1.808,-2.921 0.803,-4.734 -2.998,-5.41 -6.135,-10.745 -9.063,-16.191 -0.733,-1.363 -1.242,-3.035 -1.252,-4.568 -0.069,-11.521 -0.007,-23.043 0.069,-34.564 0.011,-1.672 -0.369,-3.139 -1.61,-4.226 -2.533,-2.22 -6.346,-0.87 -6.916,2.466 -0.283,1.659 -0.271,3.367 -0.422,5.05 -0.057,0.633 -0.199,1.258 -0.302,1.886 -0.187,-0.009 -0.375,-0.019 -0.563,-0.029 -0.162,-2.084 -0.28,-4.172 -0.498,-6.25 -0.258,-2.457 -1.724,-3.975 -3.856,-4.124 -2.577,-0.178 -4.465,1.384 -4.723,3.987 -0.104,1.056 -0.078,2.126 -0.077,3.19 0.007,11.083 0,22.167 0.051,33.249 0.01,2.178 -0.757,3.95 -2.282,5.752 -1.193,-1.884 -2.334,-3.447 -2.32,-5.713 0.07,-11.772 0.062,-23.544 -0.049,-35.315 -0.013,-1.322 -0.575,-2.835 -1.363,-3.904 -0.991,-1.342 -2.696,-1.559 -4.294,-1.034 -1.639,0.537 -2.534,1.813 -2.708,3.506 -0.248,2.415 -0.408,4.839 -0.606,7.259 -0.187,0.012 -0.375,0.024 -0.563,0.037 -0.113,-1.108 -0.249,-2.213 -0.334,-3.322 -0.091,-1.186 -0.093,-2.38 -0.206,-3.563 -0.254,-2.651 -1.907,-4.156 -4.449,-4.107 -2.273,0.044 -4.018,1.756 -4.208,4.222 -0.091,1.183 -0.057,2.378 -0.055,3.567 0.024,10.895 0.079,21.791 0.043,32.686 -0.005,1.257 -0.517,2.512 -0.793,3.769 -0.312,-0.007 -0.623,-0.012 -0.935,-0.018 -0.268,-1.215 -0.761,-2.428 -0.768,-3.644 -0.065,-11.145 -0.045,-22.291 -0.051,-33.436 0,-1.002 0.032,-2.006 -0.029,-3.005 -0.147,-2.424 -1.711,-4.016 -4.005,-4.138 -2.411,-0.128 -4.036,1.118 -4.426,3.625 -0.259,1.663 -0.246,3.367 -0.376,5.051 -0.061,0.787 -0.17,1.569 -0.258,2.354 -0.194,0.003 -0.389,0.007 -0.583,0.011 -0.192,-2.392 -0.352,-4.787 -0.586,-7.174 -0.255,-2.609 -1.983,-4.048 -4.57,-3.888 -2.309,0.143 -3.849,1.792 -3.932,4.414 -0.093,2.94 -0.077,5.885 -0.074,8.828 0.01,8.578 -0.002,17.157 0.082,25.735 0.022,2.196 -0.394,4.161 -1.535,6.06 -1.334,2.22 -2.465,4.562 -3.879,7.216 -1.471,-2.358 -2.795,-4.108 -2.782,-6.646 0.073,-13.838 0.027,-27.677 0.021,-41.515 0,-0.501 0.005,-1.002 -0.012,-1.503 -0.112,-3.291 -1.765,-5.151 -4.654,-5.243 -3.067,-0.098 -4.996,1.595 -5.328,4.799 -0.309,2.989 -0.519,5.988 -0.779,8.981 -0.062,0.721 -0.151,1.44 -0.227,2.159 -0.164,0.007 -0.327,0.015 -0.491,0.022 -0.086,-0.814 -0.178,-1.628 -0.256,-2.442 -0.28,-2.929 -0.506,-5.864 -0.845,-8.785 -0.392,-3.379 -2.317,-4.911 -5.752,-4.707 -2.638,0.157 -4.24,2.164 -4.238,5.386 0.01,14.401 0.05,28.803 0.021,43.205 -0.002,1.133 -0.447,2.265 -1.018,3.387 -1.94,-3.356 -4.431,-6.186 -4.352,-10.372 0.213,-11.329 0.122,-22.665 0.116,-33.999 -0.002,-2.857 -1.651,-4.759 -4.092,-4.923 -2.68,-0.179 -4.363,1.365 -4.608,4.277 -0.162,1.933 -0.269,3.87 -0.413,5.804 -0.013,0.175 -0.119,0.343 -0.519,0.559 -0.156,-1.413 -0.322,-2.824 -0.465,-4.238 -0.082,-0.81 -0.114,-1.624 -0.19,-2.435 -0.241,-2.585 -1.778,-4.028 -4.268,-4.019 -2.416,0.009 -4.207,1.727 -4.35,4.23 -0.061,1.062 -0.031,2.129 -0.031,3.193 0.001,11.146 -0.013,22.291 0.023,33.437 0.006,1.662 -0.54,2.989 -2.258,4.235 -0.416,-1.482 -1.181,-2.961 -1.194,-4.447 -0.107,-11.959 -0.055,-23.919 -0.092,-35.879 -0.009,-2.963 -1.582,-4.652 -4.192,-4.714 -2.398,-0.057 -4.043,1.398 -4.31,3.985 -0.229,2.225 -0.308,4.466 -0.453,6.699 -0.177,0.015 -0.354,0.03 -0.532,0.045 -0.149,-1.364 -0.313,-2.727 -0.443,-4.093 -0.083,-0.872 -0.081,-1.753 -0.177,-2.623 -0.281,-2.563 -1.919,-4.088 -4.306,-4.049 -2.419,0.04 -4.177,1.75 -4.323,4.289 -0.082,1.437 -0.072,2.88 -0.07,4.32 0.017,10.519 -0.014,21.039 0.105,31.557 0.027,2.45 -1.11,4.238 -2.468,6.396" style="fill:#009539;fill-opacity:1;fill-rule:nonzero;stroke:none" transform="matrix(0.35277776,0,0,-0.35277776,86.347056,127.51291)" clip-path="url(#clipPath28)"></path></g></svg>