<svg xmlns:inkscape="http://www.inkscape.org/namespaces/inkscape" xmlns:sodipodi="http://sodipodi.sourceforge.net/DTD/sodipodi-0.dtd" xmlns="http://www.w3.org/2000/svg" xmlns:svg="http://www.w3.org/2000/svg" width="31.188835mm" height="27.883205mm" viewBox="0 0 31.188835 27.883205" id="svg1" inkscape:version="1.3.2 (091e20e, 2023-11-25)" sodipodi:docname="cap-01.svg"><defs id="defs1"><clipPath clipPathUnits="userSpaceOnUse" id="clipPath9"><path d="M 0,4608.17 H 1920 V 0 H 0 Z" transform="translate(-989.99335,-4095.0851)" id="path9"></path></clipPath><clipPath clipPathUnits="userSpaceOnUse" id="clipPath11"><path d="M 0,4608.17 H 1920 V 0 H 0 Z" transform="translate(-989.98195,-4019.5111)" id="path11"></path></clipPath><clipPath clipPathUnits="userSpaceOnUse" id="clipPath13"><path d="M 0,4608.17 H 1920 V 0 H 0 Z" transform="translate(-1032.3027,-4045.1039)" id="path13"></path></clipPath></defs><g inkscape:label="Capa 1" inkscape:groupmode="layer" id="layer1" transform="translate(-103.71666,-110.59583)"><path id="path8" d="m 0,0 c -0.001,0 0,0 0,0 z m -40.755,-25.464 40.687,-25.421 40.521,25.421 -40.521,25.422 z m 40.687,-28.928 c -0.619,0 -1.239,0.168 -1.78,0.507 l -40.928,25.572 c -0.989,0.618 -1.58,1.683 -1.58,2.849 0,1.166 0.591,2.232 1.58,2.85 L -1.848,2.958 c 1.084,0.677 2.484,0.676 3.566,-0.003 l 40.761,-25.573 c 0.986,-0.618 1.574,-1.682 1.574,-2.846 0,-1.163 -0.588,-2.227 -1.574,-2.846 L 1.718,-53.882 c -0.542,-0.34 -1.164,-0.51 -1.786,-0.51" style="fill:#009539 icc-color(sRGB-IEC61966-2, 0.1, 0, 0.58399963, 0.22399902);fill-opacity:1;fill-rule:nonzero;stroke:none" transform="matrix(0.35277776,0,0,-0.35277776,119.36447,111.81821)" clip-path="url(#clipPath9)"></path><path id="path10" d="M 0,0 C -0.726,0 -1.451,0.21 -2.075,0.629 L -27.909,17.94 c -1.142,0.765 -1.824,2.044 -1.824,3.419 v 18.726 h 3.488 V 21.359 c 0,-0.21 0.104,-0.405 0.278,-0.522 L -0.134,3.526 C -0.057,3.474 0.044,3.472 0.123,3.52 l 25.705,15.576 c 0.426,0.259 0.691,0.729 0.691,1.228 v 19.761 h 3.488 V 20.324 c 0,-1.71 -0.909,-3.324 -2.372,-4.21 L 1.93,0.537 C 1.339,0.178 0.669,0 0,0" style="fill:#009539 icc-color(sRGB-IEC61966-2, 0.1, 0, 0.58399963, 0.22399902);fill-opacity:1;fill-rule:nonzero;stroke:none" transform="matrix(0.35277776,0,0,-0.35277776,119.36045,138.47904)" clip-path="url(#clipPath11)"></path><path id="path12" d="m 0,0 c -0.963,0 -1.744,0.781 -1.744,1.744 v 22.773 c 0,0.963 0.781,1.744 1.744,1.744 0.963,0 1.744,-0.781 1.744,-1.744 V 1.744 C 1.744,0.781 0.963,0 0,0" style="fill:#009539 icc-color(sRGB-IEC61966-2, 0.1, 0, 0.58399963, 0.22399902);fill-opacity:1;fill-rule:nonzero;stroke:none" transform="matrix(0.35277776,0,0,-0.35277776,134.29025,129.45046)" clip-path="url(#clipPath13)"></path></g></svg>