<svg xmlns:inkscape="http://www.inkscape.org/namespaces/inkscape" xmlns:sodipodi="http://sodipodi.sourceforge.net/DTD/sodipodi-0.dtd" xmlns="http://www.w3.org/2000/svg" xmlns:svg="http://www.w3.org/2000/svg" width="24.099592mm" height="27.712254mm" viewBox="0 0 24.099592 27.712253" id="svg1" inkscape:version="1.3.2 (091e20e, 2023-11-25)" sodipodi:docname="cap-01.svg"><defs id="defs1"><clipPath clipPathUnits="userSpaceOnUse" id="clipPath9"><path d="M 0,4608.17 H 1920 V 0 H 0 Z" transform="translate(-989.99335,-4095.0851)" id="path9"></path></clipPath><clipPath clipPathUnits="userSpaceOnUse" id="clipPath11"><path d="M 0,4608.17 H 1920 V 0 H 0 Z" transform="translate(-989.98195,-4019.5111)" id="path11"></path></clipPath><clipPath clipPathUnits="userSpaceOnUse" id="clipPath13"><path d="M 0,4608.17 H 1920 V 0 H 0 Z" transform="translate(-1032.3027,-4045.1039)" id="path13"></path></clipPath><clipPath clipPathUnits="userSpaceOnUse" id="clipPath236"><path d="M 0,5339.669 H 1920 V 0 H 0 Z" transform="translate(-1012.7235,-4768.7755)" id="path236"></path></clipPath><clipPath clipPathUnits="userSpaceOnUse" id="clipPath238"><path d="M 0,5339.669 H 1920 V 0 H 0 Z" transform="translate(-970.3549,-4767.1314)" id="path238"></path></clipPath><clipPath clipPathUnits="userSpaceOnUse" id="clipPath240"><path d="M 0,5339.669 H 1920 V 0 H 0 Z" transform="translate(-1024.2787,-4767.1314)" id="path240"></path></clipPath><clipPath clipPathUnits="userSpaceOnUse" id="clipPath242"><path d="M 0,5339.669 H 1920 V 0 H 0 Z" id="path242"></path></clipPath><clipPath clipPathUnits="userSpaceOnUse" id="clipPath244"><path d="M 0,5339.669 H 1920 V 0 H 0 Z" id="path244"></path></clipPath><clipPath clipPathUnits="userSpaceOnUse" id="clipPath246"><path d="M 0,5339.669 H 1920 V 0 H 0 Z" id="path246"></path></clipPath></defs><g inkscape:label="Capa 1" inkscape:groupmode="layer" id="layer1" transform="translate(-123.29583,-96.837547)"><path id="path235" d="m 0,0 h -2.835 v 48.543 c 0,0.827 -0.672,1.499 -1.498,1.499 H -40.87 c -0.826,0 -1.499,-0.672 -1.499,-1.499 V 0 h -2.835 v 48.543 c 0,2.39 1.944,4.334 4.334,4.334 H -4.333 C -1.944,52.877 0,50.933 0,48.543 Z" style="fill:#009539;fill-opacity:1;fill-rule:nonzero;stroke:none" transform="matrix(0.35277776,0,0,-0.35277776,143.31901,123.9698)" clip-path="url(#clipPath236)"></path><path id="path237" d="m 0,0 h -2.835 v 31.345 c 0,0.181 -0.016,0.338 -0.037,0.466 h -8.646 c -0.022,-0.128 -0.037,-0.285 -0.037,-0.466 V 0 h -2.835 v 31.345 c 0,1.974 0.889,3.301 2.213,3.301 h 9.965 C -0.889,34.646 0,33.319 0,31.345 Z" style="fill:#009539;fill-opacity:1;fill-rule:nonzero;stroke:none" transform="matrix(0.35277776,0,0,-0.35277776,128.3723,124.5498)" clip-path="url(#clipPath238)"></path><path id="path239" d="m 0,0 h -2.835 v 31.345 c 0,0.181 -0.016,0.338 -0.037,0.466 h -8.646 c -0.022,-0.128 -0.037,-0.285 -0.037,-0.466 V 0 h -2.835 v 31.345 c 0,1.974 0.889,3.301 2.213,3.301 h 9.965 C -0.889,34.646 0,33.319 0,31.345 Z" style="fill:#009539;fill-opacity:1;fill-rule:nonzero;stroke:none" transform="matrix(0.35277776,0,0,-0.35277776,147.39542,124.5498)" clip-path="url(#clipPath240)"></path><path id="path241" d="m 991.539,4820.235 h -2.835 v 24.034 h 2.835 z" style="fill:#009539;fill-opacity:1;fill-rule:nonzero;stroke:none" transform="matrix(0.35277776,0,0,-0.35277776,-213.94733,1806.2878)" clip-path="url(#clipPath242)"></path><path id="path243" d="m 991.539,4833.669 h 14.754 v 9.182 h -14.754 z m 17.59,-2.835 h -20.424 v 14.852 h 20.424 z" style="fill:#009539;fill-opacity:1;fill-rule:nonzero;stroke:none" transform="matrix(0.35277776,0,0,-0.35277776,-213.94733,1806.2878)" clip-path="url(#clipPath244)"></path><path id="path245" d="m 984.821,4770.193 h 9.917 v 13.599 h -9.917 z m 12.753,-2.835 h -15.587 v 19.269 h 15.587 z" style="fill:#009539;fill-opacity:1;fill-rule:nonzero;stroke:none" transform="matrix(0.35277776,0,0,-0.35277776,-213.94733,1806.2878)" clip-path="url(#clipPath246)"></path></g></svg>