<svg xmlns:inkscape="http://www.inkscape.org/namespaces/inkscape" xmlns:sodipodi="http://sodipodi.sourceforge.net/DTD/sodipodi-0.dtd" xmlns="http://www.w3.org/2000/svg" xmlns:svg="http://www.w3.org/2000/svg" width="57.702446mm" height="57.702446mm" viewBox="0 0 57.702446 57.702446" id="svg1" inkscape:version="1.3.2 (091e20e, 2023-11-25)" sodipodi:docname="eco-butterfly.svg"><defs id="defs1"><clipPath clipPathUnits="userSpaceOnUse" id="clipPath188"><path d="M 0,8405.575 H 1920 V 0 H 0 Z" transform="translate(-155.76051,-1129.2362)" id="path188"></path></clipPath><clipPath clipPathUnits="userSpaceOnUse" id="clipPath190"><path d="M 0,8405.575 H 1920 V 0 H 0 Z" transform="translate(-244.82371,-1135.8662)" id="path190"></path></clipPath><clipPath clipPathUnits="userSpaceOnUse" id="clipPath192"><path d="M 0,8405.575 H 1920 V 0 H 0 Z" transform="translate(-237.77001,-1141.9253)" id="path192"></path></clipPath><clipPath clipPathUnits="userSpaceOnUse" id="clipPath194"><path d="M 0,8405.575 H 1920 V 0 H 0 Z" transform="translate(-169.515,-1150.0613)" id="path194"></path></clipPath><clipPath clipPathUnits="userSpaceOnUse" id="clipPath196"><path d="M 0,8405.575 H 1920 V 0 H 0 Z" transform="translate(-264.7975,-1090.2578)" id="path196"></path></clipPath><clipPath clipPathUnits="userSpaceOnUse" id="clipPath198"><path d="M 0,8405.575 H 1920 V 0 H 0 Z" transform="translate(-138.955,-1066.7477)" id="path198"></path></clipPath><clipPath clipPathUnits="userSpaceOnUse" id="clipPath200"><path d="M 0,8405.575 H 1920 V 0 H 0 Z" transform="translate(-243.2914,-1079.13)" id="path200"></path></clipPath><clipPath clipPathUnits="userSpaceOnUse" id="clipPath202"><path d="M 0,8405.575 H 1920 V 0 H 0 Z" transform="translate(-217.5817,-1026.5093)" id="path202"></path></clipPath><clipPath clipPathUnits="userSpaceOnUse" id="clipPath204"><path d="M 0,8405.575 H 1920 V 0 H 0 Z" transform="translate(-192.34251,-1134.2447)" id="path204"></path></clipPath><clipPath clipPathUnits="userSpaceOnUse" id="clipPath206"><path d="M 0,8405.575 H 1920 V 0 H 0 Z" transform="translate(-188.38701,-1133.4299)" id="path206"></path></clipPath><clipPath clipPathUnits="userSpaceOnUse" id="clipPath208"><path d="M 0,8405.575 H 1920 V 0 H 0 Z" transform="translate(-163.18731,-1145.8419)" id="path208"></path></clipPath><clipPath clipPathUnits="userSpaceOnUse" id="clipPath210"><path d="M 0,8405.575 H 1920 V 0 H 0 Z" transform="translate(-241.54831,-1138.7081)" id="path210"></path></clipPath><clipPath clipPathUnits="userSpaceOnUse" id="clipPath212"><path d="M 0,8405.575 H 1920 V 0 H 0 Z" transform="translate(-241.71411,-1037.9384)" id="path212"></path></clipPath><clipPath clipPathUnits="userSpaceOnUse" id="clipPath214"><path d="M 0,8405.575 H 1920 V 0 H 0 Z" transform="translate(-153.9312,-1139.8373)" id="path214"></path></clipPath><clipPath clipPathUnits="userSpaceOnUse" id="clipPath216"><path d="M 0,8405.575 H 1920 V 0 H 0 Z" transform="translate(-167.1208,-1148.9604)" id="path216"></path></clipPath><clipPath clipPathUnits="userSpaceOnUse" id="clipPath218"><path d="M 0,8405.575 H 1920 V 0 H 0 Z" transform="translate(-264.7147,-1090.3973)" id="path218"></path></clipPath><clipPath clipPathUnits="userSpaceOnUse" id="clipPath220"><path d="M 0,8405.575 H 1920 V 0 H 0 Z" transform="translate(-242.26081,-1094.5652)" id="path220"></path></clipPath><clipPath clipPathUnits="userSpaceOnUse" id="clipPath222"><path d="M 0,8405.575 H 1920 V 0 H 0 Z" transform="translate(-194.8509,-1042.73)" id="path222"></path></clipPath><clipPath clipPathUnits="userSpaceOnUse" id="clipPath224"><path d="M 0,8405.575 H 1920 V 0 H 0 Z" transform="translate(-230.4757,-1057.9568)" id="path224"></path></clipPath><clipPath clipPathUnits="userSpaceOnUse" id="clipPath226"><path d="M 0,8405.575 H 1920 V 0 H 0 Z" transform="translate(-219.81591,-1127.9576)" id="path226"></path></clipPath><clipPath clipPathUnits="userSpaceOnUse" id="clipPath228"><path d="M 0,8405.575 H 1920 V 0 H 0 Z" transform="translate(-219.81591,-1127.9576)" id="path228"></path></clipPath><clipPath clipPathUnits="userSpaceOnUse" id="clipPath230"><path d="M 0,8405.575 H 1920 V 0 H 0 Z" transform="translate(-154.83351,-1122.5178)" id="path230"></path></clipPath><clipPath clipPathUnits="userSpaceOnUse" id="clipPath232"><path d="M 0,8405.575 H 1920 V 0 H 0 Z" transform="translate(-159.06081,-1127.0156)" id="path232"></path></clipPath><clipPath clipPathUnits="userSpaceOnUse" id="clipPath234"><path d="M 0,8405.575 H 1920 V 0 H 0 Z" transform="translate(-220.21191,-1152.8262)" id="path234"></path></clipPath><clipPath clipPathUnits="userSpaceOnUse" id="clipPath236"><path d="M 0,8405.575 H 1920 V 0 H 0 Z" transform="translate(-247.40931,-1134.0822)" id="path236"></path></clipPath><clipPath clipPathUnits="userSpaceOnUse" id="clipPath238"><path d="M 0,8405.575 H 1920 V 0 H 0 Z" transform="translate(-262.33881,-1110.4628)" id="path238"></path></clipPath><clipPath clipPathUnits="userSpaceOnUse" id="clipPath240"><path d="M 0,8405.575 H 1920 V 0 H 0 Z" transform="translate(-210.92341,-1063.11)" id="path240"></path></clipPath><clipPath clipPathUnits="userSpaceOnUse" id="clipPath242"><path d="M 0,8405.575 H 1920 V 0 H 0 Z" transform="translate(-217.3213,-1060.4111)" id="path242"></path></clipPath><clipPath clipPathUnits="userSpaceOnUse" id="clipPath244"><path d="M 0,8405.575 H 1920 V 0 H 0 Z" transform="translate(-219.23721,-1057.9988)" id="path244"></path></clipPath><clipPath clipPathUnits="userSpaceOnUse" id="clipPath246"><path d="M 0,8405.575 H 1920 V 0 H 0 Z" transform="translate(-220.52041,-1050.4272)" id="path246"></path></clipPath><clipPath clipPathUnits="userSpaceOnUse" id="clipPath248"><path d="M 0,8405.575 H 1920 V 0 H 0 Z" transform="translate(-220.46461,-1051.1249)" id="path248"></path></clipPath><clipPath clipPathUnits="userSpaceOnUse" id="clipPath250"><path d="M 0,8405.575 H 1920 V 0 H 0 Z" transform="translate(-220.66051,-1054.619)" id="path250"></path></clipPath><clipPath clipPathUnits="userSpaceOnUse" id="clipPath252"><path d="M 0,8405.575 H 1920 V 0 H 0 Z" transform="translate(-225.3604,-1054.0343)" id="path252"></path></clipPath><clipPath clipPathUnits="userSpaceOnUse" id="clipPath254"><path d="M 0,8405.575 H 1920 V 0 H 0 Z" transform="translate(-225.18001,-1053.6036)" id="path254"></path></clipPath><clipPath clipPathUnits="userSpaceOnUse" id="clipPath256"><path d="M 0,8405.575 H 1920 V 0 H 0 Z" transform="translate(-224.8807,-1058.3708)" id="path256"></path></clipPath><clipPath clipPathUnits="userSpaceOnUse" id="clipPath258"><path d="M 0,8405.575 H 1920 V 0 H 0 Z" transform="translate(-224.40411,-1061.3987)" id="path258"></path></clipPath><clipPath clipPathUnits="userSpaceOnUse" id="clipPath260"><path d="M 0,8405.575 H 1920 V 0 H 0 Z" transform="translate(-224.89441,-1057.562)" id="path260"></path></clipPath><clipPath clipPathUnits="userSpaceOnUse" id="clipPath262"><path d="M 0,8405.575 H 1920 V 0 H 0 Z" transform="translate(-224.72961,-1057.7375)" id="path262"></path></clipPath><clipPath clipPathUnits="userSpaceOnUse" id="clipPath264"><path d="M 0,8405.575 H 1920 V 0 H 0 Z" transform="translate(-224.8144,-1057.0979)" id="path264"></path></clipPath><clipPath clipPathUnits="userSpaceOnUse" id="clipPath266"><path d="M 0,8405.575 H 1920 V 0 H 0 Z" transform="translate(-224.9884,-1054.6992)" id="path266"></path></clipPath><clipPath clipPathUnits="userSpaceOnUse" id="clipPath268"><path d="M 0,8405.575 H 1920 V 0 H 0 Z" transform="translate(-224.7757,-1055.9744)" id="path268"></path></clipPath><clipPath clipPathUnits="userSpaceOnUse" id="clipPath270"><path d="M 0,8405.575 H 1920 V 0 H 0 Z" transform="translate(-223.70821,-1062.2345)" id="path270"></path></clipPath><clipPath clipPathUnits="userSpaceOnUse" id="clipPath272"><path d="M 0,8405.575 H 1920 V 0 H 0 Z" transform="translate(-224.3443,-1059.7514)" id="path272"></path></clipPath><clipPath clipPathUnits="userSpaceOnUse" id="clipPath274"><path d="M 0,8405.575 H 1920 V 0 H 0 Z" transform="translate(-220.4137,-1069.5554)" id="path274"></path></clipPath><clipPath clipPathUnits="userSpaceOnUse" id="clipPath276"><path d="M 0,8405.575 H 1920 V 0 H 0 Z" transform="translate(-223.7056,-1061.7521)" id="path276"></path></clipPath><clipPath clipPathUnits="userSpaceOnUse" id="clipPath278"><path d="M 0,8405.575 H 1920 V 0 H 0 Z" transform="translate(-222.7144,-1064.9933)" id="path278"></path></clipPath><clipPath clipPathUnits="userSpaceOnUse" id="clipPath280"><path d="M 0,8405.575 H 1920 V 0 H 0 Z" transform="translate(-224.3044,-1060.0406)" id="path280"></path></clipPath><clipPath clipPathUnits="userSpaceOnUse" id="clipPath282"><path d="M 0,8405.575 H 1920 V 0 H 0 Z" transform="translate(-224.3044,-1060.0406)" id="path282"></path></clipPath><clipPath clipPathUnits="userSpaceOnUse" id="clipPath284"><path d="M 0,8405.575 H 1920 V 0 H 0 Z" transform="translate(-221.48691,-1067.4573)" id="path284"></path></clipPath><clipPath clipPathUnits="userSpaceOnUse" id="clipPath286"><path d="M 0,8405.575 H 1920 V 0 H 0 Z" transform="translate(-221.94381,-1065.6479)" id="path286"></path></clipPath><clipPath clipPathUnits="userSpaceOnUse" id="clipPath288"><path d="M 0,8405.575 H 1920 V 0 H 0 Z" transform="translate(-224.3473,-1053.6809)" id="path288"></path></clipPath><clipPath clipPathUnits="userSpaceOnUse" id="clipPath290"><path d="M 0,8405.575 H 1920 V 0 H 0 Z" transform="translate(-224.61511,-1055.6864)" id="path290"></path></clipPath><clipPath clipPathUnits="userSpaceOnUse" id="clipPath292"><path d="M 0,8405.575 H 1920 V 0 H 0 Z" transform="translate(-224.39121,-1054.6194)" id="path292"></path></clipPath><clipPath clipPathUnits="userSpaceOnUse" id="clipPath294"><path d="M 0,8405.575 H 1920 V 0 H 0 Z" transform="translate(-223.45881,-1060.787)" id="path294"></path></clipPath><clipPath clipPathUnits="userSpaceOnUse" id="clipPath296"><path d="M 0,8405.575 H 1920 V 0 H 0 Z" transform="translate(-220.3621,-1069.7795)" id="path296"></path></clipPath><clipPath clipPathUnits="userSpaceOnUse" id="clipPath298"><path d="M 0,8405.575 H 1920 V 0 H 0 Z" transform="translate(-219.03541,-1071.8988)" id="path298"></path></clipPath><clipPath clipPathUnits="userSpaceOnUse" id="clipPath300"><path d="M 0,8405.575 H 1920 V 0 H 0 Z" transform="translate(-188.9161,-1092.7952)" id="path300"></path></clipPath><clipPath clipPathUnits="userSpaceOnUse" id="clipPath302"><path d="M 0,8405.575 H 1920 V 0 H 0 Z" transform="translate(-198.12531,-1088.786)" id="path302"></path></clipPath><clipPath clipPathUnits="userSpaceOnUse" id="clipPath304"><path d="M 0,8405.575 H 1920 V 0 H 0 Z" transform="translate(-213.48421,-1100.0333)" id="path304"></path></clipPath><clipPath clipPathUnits="userSpaceOnUse" id="clipPath306"><path d="M 0,8405.575 H 1920 V 0 H 0 Z" transform="translate(-196.19181,-1089.4265)" id="path306"></path></clipPath><clipPath clipPathUnits="userSpaceOnUse" id="clipPath308"><path d="M 0,8405.575 H 1920 V 0 H 0 Z" transform="translate(-203.8645,-1063.4996)" id="path308"></path></clipPath><clipPath clipPathUnits="userSpaceOnUse" id="clipPath310"><path d="M 0,8405.575 H 1920 V 0 H 0 Z" transform="translate(-212.78161,-1079.7332)" id="path310"></path></clipPath><clipPath clipPathUnits="userSpaceOnUse" id="clipPath312"><path d="M 0,8405.575 H 1920 V 0 H 0 Z" transform="translate(-214.11361,-1077.4718)" id="path312"></path></clipPath><clipPath clipPathUnits="userSpaceOnUse" id="clipPath314"><path d="M 0,8405.575 H 1920 V 0 H 0 Z" transform="translate(-213.29671,-1079.1179)" id="path314"></path></clipPath><clipPath clipPathUnits="userSpaceOnUse" id="clipPath316"><path d="M 0,8405.575 H 1920 V 0 H 0 Z" transform="translate(-213.27061,-1079.2415)" id="path316"></path></clipPath><clipPath clipPathUnits="userSpaceOnUse" id="clipPath318"><path d="M 0,8405.575 H 1920 V 0 H 0 Z" transform="translate(-212.25481,-1080.2552)" id="path318"></path></clipPath><clipPath clipPathUnits="userSpaceOnUse" id="clipPath320"><path d="M 0,8405.575 H 1920 V 0 H 0 Z" transform="translate(-216.46231,-1075.6718)" id="path320"></path></clipPath><clipPath clipPathUnits="userSpaceOnUse" id="clipPath322"><path d="M 0,8405.575 H 1920 V 0 H 0 Z" transform="translate(-217.51021,-1073.3025)" id="path322"></path></clipPath><clipPath clipPathUnits="userSpaceOnUse" id="clipPath324"><path d="M 0,8405.575 H 1920 V 0 H 0 Z" transform="translate(-217.69821,-1073.037)" id="path324"></path></clipPath><clipPath clipPathUnits="userSpaceOnUse" id="clipPath326"><path d="M 0,8405.575 H 1920 V 0 H 0 Z" transform="translate(-211.47561,-1080.8961)" id="path326"></path></clipPath><clipPath clipPathUnits="userSpaceOnUse" id="clipPath328"><path d="M 0,8405.575 H 1920 V 0 H 0 Z" transform="translate(-216.3046,-1074.3243)" id="path328"></path></clipPath><clipPath clipPathUnits="userSpaceOnUse" id="clipPath330"><path d="M 0,8405.575 H 1920 V 0 H 0 Z" transform="translate(-212.80801,-1078.5887)" id="path330"></path></clipPath><clipPath clipPathUnits="userSpaceOnUse" id="clipPath332"><path d="M 0,8405.575 H 1920 V 0 H 0 Z" transform="translate(-214.58341,-1076.6595)" id="path332"></path></clipPath><clipPath clipPathUnits="userSpaceOnUse" id="clipPath334"><path d="M 0,8405.575 H 1920 V 0 H 0 Z" transform="translate(-200.57131,-1087.0322)" id="path334"></path></clipPath><clipPath clipPathUnits="userSpaceOnUse" id="clipPath336"><path d="M 0,8405.575 H 1920 V 0 H 0 Z" transform="translate(-208.07931,-1063.2557)" id="path336"></path></clipPath><clipPath clipPathUnits="userSpaceOnUse" id="clipPath338"><path d="M 0,8405.575 H 1920 V 0 H 0 Z" transform="translate(-209.72041,-1063.4141)" id="path338"></path></clipPath><clipPath clipPathUnits="userSpaceOnUse" id="clipPath140"><path d="M 0,8405.575 H 1920 V 0 H 0 Z" transform="translate(-1196.0394,-2734.8902)" id="path140"></path></clipPath><clipPath clipPathUnits="userSpaceOnUse" id="clipPath49831"><path d="M 0,8405.575 H 1920 V 0 H 0 Z" transform="translate(-1145.092,-2746.9049)" id="path49831"></path></clipPath><clipPath clipPathUnits="userSpaceOnUse" id="clipPath49833"><path d="M 0,8405.575 H 1920 V 0 H 0 Z" transform="translate(-1171.1338,-2684.4579)" id="path49833"></path></clipPath><clipPath clipPathUnits="userSpaceOnUse" id="clipPath49835"><path d="M 0,8405.575 H 1920 V 0 H 0 Z" transform="translate(-1066.7745,-2734.2501)" id="path49835"></path></clipPath><clipPath clipPathUnits="userSpaceOnUse" id="clipPath49837"><path d="M 0,8405.575 H 1920 V 0 H 0 Z" transform="translate(-1108.6449,-2789.8407)" id="path49837"></path></clipPath><clipPath clipPathUnits="userSpaceOnUse" id="clipPath49839"><path d="M 0,8405.575 H 1920 V 0 H 0 Z" transform="translate(-1155.498,-2742.738)" id="path49839"></path></clipPath><clipPath clipPathUnits="userSpaceOnUse" id="clipPath49841"><path d="M 0,8405.575 H 1920 V 0 H 0 Z" transform="translate(-1167.5193,-2728.4661)" id="path49841"></path></clipPath><clipPath clipPathUnits="userSpaceOnUse" id="clipPath49843"><path d="M 0,8405.575 H 1920 V 0 H 0 Z" transform="translate(-1152.1125,-2725.9197)" id="path49843"></path></clipPath><clipPath clipPathUnits="userSpaceOnUse" id="clipPath49845"><path d="M 0,8405.575 H 1920 V 0 H 0 Z" transform="translate(-1066.3764,-2744.8587)" id="path49845"></path></clipPath><clipPath clipPathUnits="userSpaceOnUse" id="clipPath129"><path d="M 0,8405.575 H 1920 V 0 H 0 Z" transform="translate(-1196.0394,-3035.8439)" id="path129"></path></clipPath><clipPath clipPathUnits="userSpaceOnUse" id="clipPath142"><path d="M 0,8405.575 H 1920 V 0 H 0 Z" transform="translate(-1163.1615,-3003.8048)" id="path142"></path></clipPath><clipPath clipPathUnits="userSpaceOnUse" id="clipPath144"><path d="M 0,8405.575 H 1920 V 0 H 0 Z" transform="translate(-1097.8951,-3060.3084)" id="path144"></path></clipPath><clipPath clipPathUnits="userSpaceOnUse" id="clipPath11"><path d="M 0,8405.575 H 1920 V 0 H 0 Z" transform="translate(-85.625905,-3220.0528)" id="path11"></path></clipPath><clipPath clipPathUnits="userSpaceOnUse" id="clipPath13"><path d="M 0,8405.575 H 1920 V 0 H 0 Z" transform="translate(-118.46871,-3201.0497)" id="path13"></path></clipPath><clipPath clipPathUnits="userSpaceOnUse" id="clipPath121"><path d="M 0,8405.575 H 1920 V 0 H 0 Z" transform="translate(-269.07351,-3035.8439)" id="path121"></path></clipPath><clipPath clipPathUnits="userSpaceOnUse" id="clipPath49829"><path d="M 0,8405.575 H 1920 V 0 H 0 Z" transform="translate(-219.817,-3058.9466)" id="path49829"></path></clipPath><clipPath clipPathUnits="userSpaceOnUse" id="clipPath134"><path d="M 0,8405.575 H 1920 V 0 H 0 Z" transform="translate(-269.07351,-2741.8902)" id="path134"></path></clipPath><clipPath clipPathUnits="userSpaceOnUse" id="clipPath49813"><path d="M 0,8405.575 H 1920 V 0 H 0 Z" transform="translate(-236.27821,-2725.2384)" id="path49813"></path></clipPath><clipPath clipPathUnits="userSpaceOnUse" id="clipPath49815"><path d="M 0,8405.575 H 1920 V 0 H 0 Z" transform="translate(-185.9346,-2756.3534)" id="path49815"></path></clipPath><clipPath clipPathUnits="userSpaceOnUse" id="clipPath49817"><path d="M 0,8405.575 H 1920 V 0 H 0 Z" transform="translate(-133.4091,-2788.3319)" id="path49817"></path></clipPath><clipPath clipPathUnits="userSpaceOnUse" id="clipPath49819"><path d="M 0,8405.575 H 1920 V 0 H 0 Z" transform="translate(-130.35051,-2758.7865)" id="path49819"></path></clipPath><clipPath clipPathUnits="userSpaceOnUse" id="clipPath49821"><path d="M 0,8405.575 H 1920 V 0 H 0 Z" transform="translate(-134.823,-2774.8058)" id="path49821"></path></clipPath><clipPath clipPathUnits="userSpaceOnUse" id="clipPath49823"><path d="M 0,8405.575 H 1920 V 0 H 0 Z" transform="translate(-177.5784,-2761.4349)" id="path49823"></path></clipPath><clipPath clipPathUnits="userSpaceOnUse" id="clipPath49825"><path d="M 0,8405.575 H 1920 V 0 H 0 Z" transform="translate(-156.8457,-2745.4979)" id="path49825"></path></clipPath><clipPath clipPathUnits="userSpaceOnUse" id="clipPath49827"><path d="M 0,8405.575 H 1920 V 0 H 0 Z" transform="translate(-170.06331,-2757.0366)" id="path49827"></path></clipPath></defs><g inkscape:label="Capa 1" inkscape:groupmode="layer" id="layer1" transform="translate(-77.651203,-64.67686)"><path id="path133" d="m 0,0 c 0,-45.167 -36.616,-81.783 -81.783,-81.783 -45.168,0 -81.783,36.616 -81.783,81.783 0,45.168 36.615,81.783 81.783,81.783 C -36.616,81.783 0,45.168 0,0" style="fill:#dbede2;fill-opacity:1;fill-rule:nonzero;stroke:none" transform="matrix(0.35277776,0,0,-0.35277776,135.35365,93.528084)" clip-path="url(#clipPath134)"></path><path id="path49812" d="M 0,0 C -4.363,-0.646 -5.445,-10.163 -3.616,-10.532 -2.336,-10.791 0.763,-7.4 1.153,-6.04 1.595,-4.497 2.237,0.331 0,0 m -6.111,-10.468 c 0.92,5.184 -1.41,10.122 -7.002,10.532 -0.005,-3.824 -0.724,-6.9 2.675,-9.463 0.742,-0.559 3.651,-2.154 4.327,-1.069 m -18.041,26.865 c -5.326,0.083 -6.25,-5.195 -5.757,-9.513 0.263,-2.305 1.633,-1.427 3.08,-0.389 3.389,2.429 2.649,6.225 2.677,9.902 m -14.564,0.001 c -0.68,-5.556 0.576,-9.586 6.375,-11.033 0.974,0.277 0.804,4.143 0.71,5.094 -0.376,3.77 -3.375,6.054 -7.085,5.939 m 34.428,-1.546 c -0.329,-1.844 0.239,-4.451 0,-6.401 4.858,-0.11 6.977,6.63 5.403,10.49 -0.208,0.509 0.08,0.688 -0.689,0.478 -1.698,-0.464 -4.402,-2.818 -4.714,-4.567 m -8.133,4.61 c -1.296,-0.311 -0.702,-5.988 -0.21,-7.215 0.81,-2.019 6.053,-6.01 6.576,-3.132 0.96,5.286 -0.781,9.477 -6.366,10.347 M -24.15,35.38 c -5.367,0.175 -6.258,-5.179 -5.759,-9.514 0.431,-3.752 4.462,0.491 5.202,2.345 0.935,2.344 0.462,4.706 0.557,7.169 m -14.565,0 c -0.701,-5.288 0.642,-10.456 6.644,-10.848 1.772,5.421 -0.502,10.75 -6.644,10.848 m 34.427,-1.105 c -0.379,-1.895 0.276,-4.808 0,-6.843 5.698,-0.092 6.131,6.165 5.74,10.597 -2.26,0.634 -5.322,-1.669 -5.74,-3.754 m -8.829,3.754 c -0.648,-4.893 0.535,-10.979 6.653,-10.406 1.825,4.897 -1.016,10.821 -6.653,10.406 m -18.537,5.735 c 0.688,5.354 -0.659,10.883 -7.063,10.598 -0.86,-5.271 1.067,-10.572 7.063,-10.598 m 1.766,0.002 c 5.156,-0.041 6.103,4.843 5.759,9.071 -0.054,0.656 0.071,2.071 -1.049,1.903 -1.273,-0.192 -4.71,-3.306 -4.71,-4.574 z m 0,25.382 c -0.356,-1.776 0.258,-4.492 0,-6.401 5.256,-0.18 6.384,5.682 5.741,9.946 -0.237,1.578 -2.581,0.282 -3.314,-0.234 -0.686,-0.483 -2.283,-2.592 -2.427,-3.311 m -1.766,-6.402 c 0.688,5.354 -0.659,10.883 -7.063,10.598 -0.785,-5.457 0.881,-10.431 7.063,-10.598 m 1.766,23.839 v -12.36 l 5.738,1.986 v 7.725 l 1.794,-0.193 c 0.327,-0.223 0.348,-0.56 0.413,-0.91 0.414,-2.213 0.268,-12.53 -0.107,-14.903 -0.649,-4.11 -3.817,-6.712 -7.636,-7.813 -0.308,-0.996 -0.56,-5.108 0.47,-5.317 2.311,1.528 4.485,2.063 7.273,1.767 v -7.284 c 0,-0.637 -1.267,-3.719 -1.764,-4.416 -0.671,-0.941 -2.352,-2.234 -3.381,-2.799 -0.778,-0.427 -1.958,-0.419 -2.37,-0.719 -0.758,-0.55 -0.707,-5.336 0.242,-5.531 0.439,-0.09 5.835,3.359 7.273,1.547 V 29.86 c 0,-0.984 -1.868,-4.496 -2.652,-5.293 -2.934,-2.982 -6.596,-0.943 -5.291,-7.727 2.571,0.575 5.38,3.147 7.943,1.102 v -7.063 c 0,-0.856 -2.034,-4.65 -2.801,-5.365 -1.134,-1.057 -4.541,-2.014 -4.93,-2.795 l -0.144,-7.662 c 0.174,-0.505 7.329,-4.318 8.549,-5.134 5.406,-3.614 9.883,-8.351 14.119,-13.254 l 1.097,0.661 v 8.828 c -1.838,1.609 -4.517,1.596 -6.47,3.464 -0.864,0.826 -2.799,4.279 -2.799,5.365 v 6.621 c 0,2.879 8.637,-2.161 9.267,-1.546 0.545,6.615 -0.119,4.95 -4.425,7.27 -2.152,1.159 -4.842,4.096 -4.842,6.637 v 6.621 c 3.102,2.223 6.216,-0.788 9.267,-1.104 0.89,6.749 -1.265,4.778 -5.003,7.135 -1.731,1.091 -4.264,4.26 -4.264,6.329 v 15.009 c 0,0.831 2.207,0.831 2.207,0 v -7.063 c 1.143,-1.012 2.736,-1.044 4.146,-1.592 1.166,-0.452 1.922,-2.049 2.916,-0.615 v 11.919 l 0.668,0.66 1.097,-0.66 V 38.91 l 5.544,1.739 0.611,7.777 1.349,0.195 V 31.626 c 0,-3.028 -4.69,-6.322 -7.43,-6.914 l -0.071,-5.223 c 2.636,0.947 4.46,2.337 7.501,1.763 V 12.203 C 3.216,11.532 1.43,9.009 0.808,8.431 -0.723,7.007 -2.939,6.78 -3.85,6.026 -4.798,5.241 -4.069,1.803 -4.286,0.504 c 2.626,0.191 4.5,2.449 7.502,1.767 v -8.608 c 0,-0.701 -1.782,-3.156 -2.409,-3.771 -1.474,-1.445 -4.792,-2.243 -5.084,-3.744 -0.308,-1.578 -0.29,-11.598 0.01,-13.212 0.258,-1.394 2.466,-3.434 2.877,-5.079 0.379,-1.519 -0.835,-1.771 -1.958,-0.623 -1.097,1.12 -2.633,4.625 -3.847,6.305 -2.188,3.03 -5.334,6.612 -8.121,9.094 -0.696,0.619 -3.906,3.424 -4.401,3.558 -1.486,0.403 -10.182,-3.513 -11.802,-4.581 -5.152,-3.395 -3.464,-5.482 -4.149,-10.418 -0.67,-4.82 -7.06,-2.37 -10.743,-2.94 -3.678,-0.569 -5.521,-4.531 -4.464,-7.94 0.95,-3.064 5.937,-1.019 4.904,-4.84 -0.994,-3.675 -5.601,-4.092 -8.34,-5.806 -1.142,-0.715 -2.904,-3.742 -3.824,-1.036 2.198,4.095 8.836,3.422 9.71,7.727 -7.389,1.537 -5.787,11.816 1.154,13.637 2.987,0.784 4.368,0.102 7.006,0.02 4.302,-0.133 2.474,4.154 2.979,7.21 0.675,4.087 4.403,6.035 7.746,7.704 5.764,2.878 10.373,1.896 1.868,6.537 -17.86,9.744 -39.686,9.763 -57.757,0.588 -0.171,-0.272 -0.173,-1.068 -0.082,-1.396 0.23,-0.835 5.959,-3.796 7.1,-7.118 1.302,-3.796 1.514,-14.62 -0.534,-18.064 -2.931,-4.927 -10.035,-4.767 -12.472,-9.156 -0.582,-1.049 -0.516,-3.33 -2.242,-3.049 -0.836,0.136 -0.411,0.855 -0.367,1.228 1.042,8.836 13.15,6.756 14.223,14.483 0.485,3.487 0.746,10.407 -0.381,13.668 -0.283,0.821 -1.142,2.025 -1.772,2.642 l -6.333,5.003 c -7.363,-4.331 -13.177,-9.804 -18.326,-16.569 -0.85,-1.118 -3.815,-6.34 -4.699,-6.346 l -1.114,0.69 c 8.215,15.408 23.45,27.004 40.515,30.985 10.28,2.398 19.913,2.466 30.2,-0.002 1.484,-0.356 8.873,-3.068 9.343,-2.931 1.262,0.367 0.692,5.812 0.523,7.06 -2.383,0.241 -8.634,3.9 -8.634,6.373 v 9.05 c 3.217,0.518 5.446,-0.832 8.156,-2.209 0.952,0.196 0.993,4.803 0.243,5.533 -0.63,0.613 -3.726,1.398 -5.088,2.415 -0.764,0.571 -3.311,3.432 -3.311,4.193 v 8.829 c 0.57,0.831 2.631,0.268 3.552,0.019 2.01,-0.544 3.288,-2.082 5.273,-2.007 l -0.429,5.971 c -2.382,-0.069 -8.396,3.911 -8.396,6.17 v 9.049 c 3.104,0.432 5.557,-0.696 8.155,-2.209 0.958,0.195 0.929,5.371 0.398,5.786 -2.251,0.254 -8.553,3.99 -8.553,6.356 v 17.436 h 1.765 v -7.725 l 7.062,-2.869 v 13.243 z" style="fill:#16392c;fill-opacity:1;fill-rule:nonzero;stroke:none" transform="matrix(0.35277776,0,0,-0.35277776,123.7842,99.402469)" clip-path="url(#clipPath49813)"></path><path id="path49814" d="m 0,0 c 2.501,2.934 2.656,7.058 -1.145,8.926 -6.968,3.423 -24.268,-0.637 -30.947,-4.419 -1.753,-0.992 -7.721,-9.746 -8.173,-11.691 -0.83,-3.572 -0.121,-11.286 2.608,-14.006 4.279,-4.267 14.07,-1.025 16.504,4.163 3.798,8.098 -3.768,11.266 -9.607,14.452 l 0.018,1.982 c 0.367,0.286 5.791,-2.827 6.583,-3.346 4.514,-2.955 7.774,-8.551 13.687,-5.23 C -9.078,-8.386 -1.139,-1.336 0,0 m -52.916,38.167 c -1.802,-0.246 -3.548,-1.557 -4.334,-3.202 -0.893,-1.869 -3.237,-11.943 -3.483,-14.193 -0.736,-6.726 6.818,-7.687 11.46,-10.098 0.902,-0.469 6.172,-3.465 6.161,-3.983 l -1.16,-1.033 c -5.751,2.501 -11.166,8.564 -17.166,2.595 -4.488,-4.464 -2.516,-16.534 4.012,-17.649 4.879,-0.833 12.095,2.716 14.77,6.811 0.659,1.01 4.708,8.59 4.821,9.304 0.736,4.662 -2.086,14.849 -4.007,19.333 -1.608,3.753 -6.344,12.759 -11.074,12.115 m 16.877,-28.163 c 1.858,-0.08 1.044,1.939 1.549,3.082 0.326,0.739 1.584,1.167 1.889,2.525 0.223,0.993 0.573,4.562 0.545,5.621 -0.06,2.265 -2.627,5.144 0.42,5.542 2.087,-3.866 1.323,-8.185 0.894,-12.356 0.707,-0.736 4.898,2.677 5.875,3.169 1.062,0.534 6.477,2.963 6.486,0.581 -0.269,-1.559 -2.404,-1.013 -3.774,-1.527 -1.807,-0.677 -5.586,-2.889 -6.479,-4.557 -0.362,-0.677 -0.269,-1.579 -0.764,-2.326 -0.691,-1.045 -2.666,-1.114 -2.227,-2.844 8.826,3.379 20.74,7.408 30.109,4.289 5.466,-1.82 6.838,-7.875 3.223,-12.247 -1.156,-1.397 -9.215,-8.699 -10.674,-9.63 -3.155,-2.013 -5.957,-1.364 -9.418,-0.953 2.371,-11.766 -17.566,-18.872 -22.531,-8.187 -1.049,2.257 -1.155,7.641 -1.511,8.2 -1.096,1.72 -2.184,-2.098 -2.748,-2.235 -4.608,-1.118 -0.629,4.5 -1.02,4.867 -2.94,-0.459 -6.03,-2.599 -9.046,-2.683 -11.959,-0.333 -14.696,19.762 -3.753,24.1 0.214,0.873 -1.308,1.274 -1.774,1.875 -1.941,2.507 -2.014,4.626 -1.644,7.719 0.304,2.54 2.515,11.998 3.54,14.117 1.829,3.782 6.632,4.819 10.271,3.01 6.575,-3.267 12.644,-21.939 12.562,-29.152" style="fill:#16392c;fill-opacity:1;fill-rule:nonzero;stroke:none" transform="matrix(0.35277776,0,0,-0.35277776,106.02409,88.42578)" clip-path="url(#clipPath49815)"></path><path id="path49816" d="M 0,0 C -3.381,-0.316 -2.327,-6.083 1.282,-3.902 3.368,-2.641 1.774,0.166 0,0 M -2.8,-5.505 C -6.33,-2.203 -2.172,4.078 2.343,1.18 7.43,-2.085 1.303,-9.341 -2.8,-5.505" style="fill:#16392c;fill-opacity:1;fill-rule:nonzero;stroke:none" transform="matrix(0.35277776,0,0,-0.35277776,87.494263,77.144476)" clip-path="url(#clipPath49817)"></path><path id="path49818" d="M 0,0 C -3.735,-1.018 -0.145,-6.66 2.36,-3.278 3.562,-1.655 1.709,0.466 0,0 m 3.497,-5.077 c -4.161,-4.162 -9.868,2.892 -5.617,6.278 4.263,3.395 9.172,-2.722 5.617,-6.278" style="fill:#16392c;fill-opacity:1;fill-rule:nonzero;stroke:none" transform="matrix(0.35277776,0,0,-0.35277776,86.415258,87.567445)" clip-path="url(#clipPath49819)"></path><path id="path49820" d="M 0,0 C -0.653,-1.035 -3.838,-0.259 -2.826,1.703 -1.699,3.885 1.196,1.894 0,0" style="fill:#16392c;fill-opacity:1;fill-rule:nonzero;stroke:none" transform="matrix(0.35277776,0,0,-0.35277776,87.993056,81.916183)" clip-path="url(#clipPath49821)"></path><path id="path49822" d="M 0,0 C -4.093,-1.114 0.622,-7.173 2.441,-2.901 3.165,-1.201 1.637,0.446 0,0 m -0.888,1.734 c 7.721,1.758 7.164,-10.026 -0.338,-7.65 -3.391,1.074 -3.132,6.86 0.338,7.65" style="fill:#16392c;fill-opacity:1;fill-rule:nonzero;stroke:none" transform="matrix(0.35277776,0,0,-0.35277776,103.07621,86.633148)" clip-path="url(#clipPath49823)"></path><path id="path49824" d="M 0,0 C -1.78,1.766 -5.209,-0.65 -3.465,-2.8 -1.635,-5.057 2.012,-1.997 0,0 m -2.655,2.683 c 5.392,1.102 6.904,-7.167 2.002,-8.228 -6.272,-1.358 -6.407,7.328 -2.002,8.228" style="fill:#16392c;fill-opacity:1;fill-rule:nonzero;stroke:none" transform="matrix(0.35277776,0,0,-0.35277776,95.762175,92.255359)" clip-path="url(#clipPath49825)"></path><path id="path49826" d="M 0,0 C 2.382,0.596 2.754,-4.322 -0.307,-2.825 -1.617,-2.185 -1.321,-0.33 0,0" style="fill:#16392c;fill-opacity:1;fill-rule:nonzero;stroke:none" transform="matrix(0.35277776,0,0,-0.35277776,100.42505,88.184744)" clip-path="url(#clipPath49827)"></path></g></svg>