<svg xmlns:inkscape="http://www.inkscape.org/namespaces/inkscape" xmlns:sodipodi="http://sodipodi.sourceforge.net/DTD/sodipodi-0.dtd" xmlns="http://www.w3.org/2000/svg" xmlns:svg="http://www.w3.org/2000/svg" width="57.702446mm" height="57.702446mm" viewBox="0 0 57.702446 57.702446" id="svg1" inkscape:version="1.3.2 (091e20e, 2023-11-25)" sodipodi:docname="eco-hand.svg"><defs id="defs1"><clipPath clipPathUnits="userSpaceOnUse" id="clipPath188"><path d="M 0,8405.575 H 1920 V 0 H 0 Z" transform="translate(-155.76051,-1129.2362)" id="path188"></path></clipPath><clipPath clipPathUnits="userSpaceOnUse" id="clipPath190"><path d="M 0,8405.575 H 1920 V 0 H 0 Z" transform="translate(-244.82371,-1135.8662)" id="path190"></path></clipPath><clipPath clipPathUnits="userSpaceOnUse" id="clipPath192"><path d="M 0,8405.575 H 1920 V 0 H 0 Z" transform="translate(-237.77001,-1141.9253)" id="path192"></path></clipPath><clipPath clipPathUnits="userSpaceOnUse" id="clipPath194"><path d="M 0,8405.575 H 1920 V 0 H 0 Z" transform="translate(-169.515,-1150.0613)" id="path194"></path></clipPath><clipPath clipPathUnits="userSpaceOnUse" id="clipPath196"><path d="M 0,8405.575 H 1920 V 0 H 0 Z" transform="translate(-264.7975,-1090.2578)" id="path196"></path></clipPath><clipPath clipPathUnits="userSpaceOnUse" id="clipPath198"><path d="M 0,8405.575 H 1920 V 0 H 0 Z" transform="translate(-138.955,-1066.7477)" id="path198"></path></clipPath><clipPath clipPathUnits="userSpaceOnUse" id="clipPath200"><path d="M 0,8405.575 H 1920 V 0 H 0 Z" transform="translate(-243.2914,-1079.13)" id="path200"></path></clipPath><clipPath clipPathUnits="userSpaceOnUse" id="clipPath202"><path d="M 0,8405.575 H 1920 V 0 H 0 Z" transform="translate(-217.5817,-1026.5093)" id="path202"></path></clipPath><clipPath clipPathUnits="userSpaceOnUse" id="clipPath204"><path d="M 0,8405.575 H 1920 V 0 H 0 Z" transform="translate(-192.34251,-1134.2447)" id="path204"></path></clipPath><clipPath clipPathUnits="userSpaceOnUse" id="clipPath206"><path d="M 0,8405.575 H 1920 V 0 H 0 Z" transform="translate(-188.38701,-1133.4299)" id="path206"></path></clipPath><clipPath clipPathUnits="userSpaceOnUse" id="clipPath208"><path d="M 0,8405.575 H 1920 V 0 H 0 Z" transform="translate(-163.18731,-1145.8419)" id="path208"></path></clipPath><clipPath clipPathUnits="userSpaceOnUse" id="clipPath210"><path d="M 0,8405.575 H 1920 V 0 H 0 Z" transform="translate(-241.54831,-1138.7081)" id="path210"></path></clipPath><clipPath clipPathUnits="userSpaceOnUse" id="clipPath212"><path d="M 0,8405.575 H 1920 V 0 H 0 Z" transform="translate(-241.71411,-1037.9384)" id="path212"></path></clipPath><clipPath clipPathUnits="userSpaceOnUse" id="clipPath214"><path d="M 0,8405.575 H 1920 V 0 H 0 Z" transform="translate(-153.9312,-1139.8373)" id="path214"></path></clipPath><clipPath clipPathUnits="userSpaceOnUse" id="clipPath216"><path d="M 0,8405.575 H 1920 V 0 H 0 Z" transform="translate(-167.1208,-1148.9604)" id="path216"></path></clipPath><clipPath clipPathUnits="userSpaceOnUse" id="clipPath218"><path d="M 0,8405.575 H 1920 V 0 H 0 Z" transform="translate(-264.7147,-1090.3973)" id="path218"></path></clipPath><clipPath clipPathUnits="userSpaceOnUse" id="clipPath220"><path d="M 0,8405.575 H 1920 V 0 H 0 Z" transform="translate(-242.26081,-1094.5652)" id="path220"></path></clipPath><clipPath clipPathUnits="userSpaceOnUse" id="clipPath222"><path d="M 0,8405.575 H 1920 V 0 H 0 Z" transform="translate(-194.8509,-1042.73)" id="path222"></path></clipPath><clipPath clipPathUnits="userSpaceOnUse" id="clipPath224"><path d="M 0,8405.575 H 1920 V 0 H 0 Z" transform="translate(-230.4757,-1057.9568)" id="path224"></path></clipPath><clipPath clipPathUnits="userSpaceOnUse" id="clipPath226"><path d="M 0,8405.575 H 1920 V 0 H 0 Z" transform="translate(-219.81591,-1127.9576)" id="path226"></path></clipPath><clipPath clipPathUnits="userSpaceOnUse" id="clipPath228"><path d="M 0,8405.575 H 1920 V 0 H 0 Z" transform="translate(-219.81591,-1127.9576)" id="path228"></path></clipPath><clipPath clipPathUnits="userSpaceOnUse" id="clipPath230"><path d="M 0,8405.575 H 1920 V 0 H 0 Z" transform="translate(-154.83351,-1122.5178)" id="path230"></path></clipPath><clipPath clipPathUnits="userSpaceOnUse" id="clipPath232"><path d="M 0,8405.575 H 1920 V 0 H 0 Z" transform="translate(-159.06081,-1127.0156)" id="path232"></path></clipPath><clipPath clipPathUnits="userSpaceOnUse" id="clipPath234"><path d="M 0,8405.575 H 1920 V 0 H 0 Z" transform="translate(-220.21191,-1152.8262)" id="path234"></path></clipPath><clipPath clipPathUnits="userSpaceOnUse" id="clipPath236"><path d="M 0,8405.575 H 1920 V 0 H 0 Z" transform="translate(-247.40931,-1134.0822)" id="path236"></path></clipPath><clipPath clipPathUnits="userSpaceOnUse" id="clipPath238"><path d="M 0,8405.575 H 1920 V 0 H 0 Z" transform="translate(-262.33881,-1110.4628)" id="path238"></path></clipPath><clipPath clipPathUnits="userSpaceOnUse" id="clipPath240"><path d="M 0,8405.575 H 1920 V 0 H 0 Z" transform="translate(-210.92341,-1063.11)" id="path240"></path></clipPath><clipPath clipPathUnits="userSpaceOnUse" id="clipPath242"><path d="M 0,8405.575 H 1920 V 0 H 0 Z" transform="translate(-217.3213,-1060.4111)" id="path242"></path></clipPath><clipPath clipPathUnits="userSpaceOnUse" id="clipPath244"><path d="M 0,8405.575 H 1920 V 0 H 0 Z" transform="translate(-219.23721,-1057.9988)" id="path244"></path></clipPath><clipPath clipPathUnits="userSpaceOnUse" id="clipPath246"><path d="M 0,8405.575 H 1920 V 0 H 0 Z" transform="translate(-220.52041,-1050.4272)" id="path246"></path></clipPath><clipPath clipPathUnits="userSpaceOnUse" id="clipPath248"><path d="M 0,8405.575 H 1920 V 0 H 0 Z" transform="translate(-220.46461,-1051.1249)" id="path248"></path></clipPath><clipPath clipPathUnits="userSpaceOnUse" id="clipPath250"><path d="M 0,8405.575 H 1920 V 0 H 0 Z" transform="translate(-220.66051,-1054.619)" id="path250"></path></clipPath><clipPath clipPathUnits="userSpaceOnUse" id="clipPath252"><path d="M 0,8405.575 H 1920 V 0 H 0 Z" transform="translate(-225.3604,-1054.0343)" id="path252"></path></clipPath><clipPath clipPathUnits="userSpaceOnUse" id="clipPath254"><path d="M 0,8405.575 H 1920 V 0 H 0 Z" transform="translate(-225.18001,-1053.6036)" id="path254"></path></clipPath><clipPath clipPathUnits="userSpaceOnUse" id="clipPath256"><path d="M 0,8405.575 H 1920 V 0 H 0 Z" transform="translate(-224.8807,-1058.3708)" id="path256"></path></clipPath><clipPath clipPathUnits="userSpaceOnUse" id="clipPath258"><path d="M 0,8405.575 H 1920 V 0 H 0 Z" transform="translate(-224.40411,-1061.3987)" id="path258"></path></clipPath><clipPath clipPathUnits="userSpaceOnUse" id="clipPath260"><path d="M 0,8405.575 H 1920 V 0 H 0 Z" transform="translate(-224.89441,-1057.562)" id="path260"></path></clipPath><clipPath clipPathUnits="userSpaceOnUse" id="clipPath262"><path d="M 0,8405.575 H 1920 V 0 H 0 Z" transform="translate(-224.72961,-1057.7375)" id="path262"></path></clipPath><clipPath clipPathUnits="userSpaceOnUse" id="clipPath264"><path d="M 0,8405.575 H 1920 V 0 H 0 Z" transform="translate(-224.8144,-1057.0979)" id="path264"></path></clipPath><clipPath clipPathUnits="userSpaceOnUse" id="clipPath266"><path d="M 0,8405.575 H 1920 V 0 H 0 Z" transform="translate(-224.9884,-1054.6992)" id="path266"></path></clipPath><clipPath clipPathUnits="userSpaceOnUse" id="clipPath268"><path d="M 0,8405.575 H 1920 V 0 H 0 Z" transform="translate(-224.7757,-1055.9744)" id="path268"></path></clipPath><clipPath clipPathUnits="userSpaceOnUse" id="clipPath270"><path d="M 0,8405.575 H 1920 V 0 H 0 Z" transform="translate(-223.70821,-1062.2345)" id="path270"></path></clipPath><clipPath clipPathUnits="userSpaceOnUse" id="clipPath272"><path d="M 0,8405.575 H 1920 V 0 H 0 Z" transform="translate(-224.3443,-1059.7514)" id="path272"></path></clipPath><clipPath clipPathUnits="userSpaceOnUse" id="clipPath274"><path d="M 0,8405.575 H 1920 V 0 H 0 Z" transform="translate(-220.4137,-1069.5554)" id="path274"></path></clipPath><clipPath clipPathUnits="userSpaceOnUse" id="clipPath276"><path d="M 0,8405.575 H 1920 V 0 H 0 Z" transform="translate(-223.7056,-1061.7521)" id="path276"></path></clipPath><clipPath clipPathUnits="userSpaceOnUse" id="clipPath278"><path d="M 0,8405.575 H 1920 V 0 H 0 Z" transform="translate(-222.7144,-1064.9933)" id="path278"></path></clipPath><clipPath clipPathUnits="userSpaceOnUse" id="clipPath280"><path d="M 0,8405.575 H 1920 V 0 H 0 Z" transform="translate(-224.3044,-1060.0406)" id="path280"></path></clipPath><clipPath clipPathUnits="userSpaceOnUse" id="clipPath282"><path d="M 0,8405.575 H 1920 V 0 H 0 Z" transform="translate(-224.3044,-1060.0406)" id="path282"></path></clipPath><clipPath clipPathUnits="userSpaceOnUse" id="clipPath284"><path d="M 0,8405.575 H 1920 V 0 H 0 Z" transform="translate(-221.48691,-1067.4573)" id="path284"></path></clipPath><clipPath clipPathUnits="userSpaceOnUse" id="clipPath286"><path d="M 0,8405.575 H 1920 V 0 H 0 Z" transform="translate(-221.94381,-1065.6479)" id="path286"></path></clipPath><clipPath clipPathUnits="userSpaceOnUse" id="clipPath288"><path d="M 0,8405.575 H 1920 V 0 H 0 Z" transform="translate(-224.3473,-1053.6809)" id="path288"></path></clipPath><clipPath clipPathUnits="userSpaceOnUse" id="clipPath290"><path d="M 0,8405.575 H 1920 V 0 H 0 Z" transform="translate(-224.61511,-1055.6864)" id="path290"></path></clipPath><clipPath clipPathUnits="userSpaceOnUse" id="clipPath292"><path d="M 0,8405.575 H 1920 V 0 H 0 Z" transform="translate(-224.39121,-1054.6194)" id="path292"></path></clipPath><clipPath clipPathUnits="userSpaceOnUse" id="clipPath294"><path d="M 0,8405.575 H 1920 V 0 H 0 Z" transform="translate(-223.45881,-1060.787)" id="path294"></path></clipPath><clipPath clipPathUnits="userSpaceOnUse" id="clipPath296"><path d="M 0,8405.575 H 1920 V 0 H 0 Z" transform="translate(-220.3621,-1069.7795)" id="path296"></path></clipPath><clipPath clipPathUnits="userSpaceOnUse" id="clipPath298"><path d="M 0,8405.575 H 1920 V 0 H 0 Z" transform="translate(-219.03541,-1071.8988)" id="path298"></path></clipPath><clipPath clipPathUnits="userSpaceOnUse" id="clipPath300"><path d="M 0,8405.575 H 1920 V 0 H 0 Z" transform="translate(-188.9161,-1092.7952)" id="path300"></path></clipPath><clipPath clipPathUnits="userSpaceOnUse" id="clipPath302"><path d="M 0,8405.575 H 1920 V 0 H 0 Z" transform="translate(-198.12531,-1088.786)" id="path302"></path></clipPath><clipPath clipPathUnits="userSpaceOnUse" id="clipPath304"><path d="M 0,8405.575 H 1920 V 0 H 0 Z" transform="translate(-213.48421,-1100.0333)" id="path304"></path></clipPath><clipPath clipPathUnits="userSpaceOnUse" id="clipPath306"><path d="M 0,8405.575 H 1920 V 0 H 0 Z" transform="translate(-196.19181,-1089.4265)" id="path306"></path></clipPath><clipPath clipPathUnits="userSpaceOnUse" id="clipPath308"><path d="M 0,8405.575 H 1920 V 0 H 0 Z" transform="translate(-203.8645,-1063.4996)" id="path308"></path></clipPath><clipPath clipPathUnits="userSpaceOnUse" id="clipPath310"><path d="M 0,8405.575 H 1920 V 0 H 0 Z" transform="translate(-212.78161,-1079.7332)" id="path310"></path></clipPath><clipPath clipPathUnits="userSpaceOnUse" id="clipPath312"><path d="M 0,8405.575 H 1920 V 0 H 0 Z" transform="translate(-214.11361,-1077.4718)" id="path312"></path></clipPath><clipPath clipPathUnits="userSpaceOnUse" id="clipPath314"><path d="M 0,8405.575 H 1920 V 0 H 0 Z" transform="translate(-213.29671,-1079.1179)" id="path314"></path></clipPath><clipPath clipPathUnits="userSpaceOnUse" id="clipPath316"><path d="M 0,8405.575 H 1920 V 0 H 0 Z" transform="translate(-213.27061,-1079.2415)" id="path316"></path></clipPath><clipPath clipPathUnits="userSpaceOnUse" id="clipPath318"><path d="M 0,8405.575 H 1920 V 0 H 0 Z" transform="translate(-212.25481,-1080.2552)" id="path318"></path></clipPath><clipPath clipPathUnits="userSpaceOnUse" id="clipPath320"><path d="M 0,8405.575 H 1920 V 0 H 0 Z" transform="translate(-216.46231,-1075.6718)" id="path320"></path></clipPath><clipPath clipPathUnits="userSpaceOnUse" id="clipPath322"><path d="M 0,8405.575 H 1920 V 0 H 0 Z" transform="translate(-217.51021,-1073.3025)" id="path322"></path></clipPath><clipPath clipPathUnits="userSpaceOnUse" id="clipPath324"><path d="M 0,8405.575 H 1920 V 0 H 0 Z" transform="translate(-217.69821,-1073.037)" id="path324"></path></clipPath><clipPath clipPathUnits="userSpaceOnUse" id="clipPath326"><path d="M 0,8405.575 H 1920 V 0 H 0 Z" transform="translate(-211.47561,-1080.8961)" id="path326"></path></clipPath><clipPath clipPathUnits="userSpaceOnUse" id="clipPath328"><path d="M 0,8405.575 H 1920 V 0 H 0 Z" transform="translate(-216.3046,-1074.3243)" id="path328"></path></clipPath><clipPath clipPathUnits="userSpaceOnUse" id="clipPath330"><path d="M 0,8405.575 H 1920 V 0 H 0 Z" transform="translate(-212.80801,-1078.5887)" id="path330"></path></clipPath><clipPath clipPathUnits="userSpaceOnUse" id="clipPath332"><path d="M 0,8405.575 H 1920 V 0 H 0 Z" transform="translate(-214.58341,-1076.6595)" id="path332"></path></clipPath><clipPath clipPathUnits="userSpaceOnUse" id="clipPath334"><path d="M 0,8405.575 H 1920 V 0 H 0 Z" transform="translate(-200.57131,-1087.0322)" id="path334"></path></clipPath><clipPath clipPathUnits="userSpaceOnUse" id="clipPath336"><path d="M 0,8405.575 H 1920 V 0 H 0 Z" transform="translate(-208.07931,-1063.2557)" id="path336"></path></clipPath><clipPath clipPathUnits="userSpaceOnUse" id="clipPath338"><path d="M 0,8405.575 H 1920 V 0 H 0 Z" transform="translate(-209.72041,-1063.4141)" id="path338"></path></clipPath><clipPath clipPathUnits="userSpaceOnUse" id="clipPath140"><path d="M 0,8405.575 H 1920 V 0 H 0 Z" transform="translate(-1196.0394,-2734.8902)" id="path140"></path></clipPath><clipPath clipPathUnits="userSpaceOnUse" id="clipPath49831"><path d="M 0,8405.575 H 1920 V 0 H 0 Z" transform="translate(-1145.092,-2746.9049)" id="path49831"></path></clipPath><clipPath clipPathUnits="userSpaceOnUse" id="clipPath49833"><path d="M 0,8405.575 H 1920 V 0 H 0 Z" transform="translate(-1171.1338,-2684.4579)" id="path49833"></path></clipPath><clipPath clipPathUnits="userSpaceOnUse" id="clipPath49835"><path d="M 0,8405.575 H 1920 V 0 H 0 Z" transform="translate(-1066.7745,-2734.2501)" id="path49835"></path></clipPath><clipPath clipPathUnits="userSpaceOnUse" id="clipPath49837"><path d="M 0,8405.575 H 1920 V 0 H 0 Z" transform="translate(-1108.6449,-2789.8407)" id="path49837"></path></clipPath><clipPath clipPathUnits="userSpaceOnUse" id="clipPath49839"><path d="M 0,8405.575 H 1920 V 0 H 0 Z" transform="translate(-1155.498,-2742.738)" id="path49839"></path></clipPath><clipPath clipPathUnits="userSpaceOnUse" id="clipPath49841"><path d="M 0,8405.575 H 1920 V 0 H 0 Z" transform="translate(-1167.5193,-2728.4661)" id="path49841"></path></clipPath><clipPath clipPathUnits="userSpaceOnUse" id="clipPath49843"><path d="M 0,8405.575 H 1920 V 0 H 0 Z" transform="translate(-1152.1125,-2725.9197)" id="path49843"></path></clipPath><clipPath clipPathUnits="userSpaceOnUse" id="clipPath49845"><path d="M 0,8405.575 H 1920 V 0 H 0 Z" transform="translate(-1066.3764,-2744.8587)" id="path49845"></path></clipPath><clipPath clipPathUnits="userSpaceOnUse" id="clipPath129"><path d="M 0,8405.575 H 1920 V 0 H 0 Z" transform="translate(-1196.0394,-3035.8439)" id="path129"></path></clipPath><clipPath clipPathUnits="userSpaceOnUse" id="clipPath142"><path d="M 0,8405.575 H 1920 V 0 H 0 Z" transform="translate(-1163.1615,-3003.8048)" id="path142"></path></clipPath><clipPath clipPathUnits="userSpaceOnUse" id="clipPath144"><path d="M 0,8405.575 H 1920 V 0 H 0 Z" transform="translate(-1097.8951,-3060.3084)" id="path144"></path></clipPath></defs><g inkscape:label="Capa 1" inkscape:groupmode="layer" id="layer1" transform="translate(-51.064583,29.63348)"><path id="path128" d="m 0,0 c 0,-45.168 -36.615,-81.783 -81.783,-81.783 -45.168,0 -81.783,36.615 -81.783,81.783 0,45.167 36.615,81.783 81.783,81.783 C -36.615,81.783 0,45.167 0,0" style="fill:#dbede2;fill-opacity:1;fill-rule:nonzero;stroke:none" transform="matrix(0.35277776,0,0,-0.35277776,108.76703,-0.78225657)" clip-path="url(#clipPath129)"></path><path id="path141" d="M 0,0 C -2.019,-0.218 -4.643,-0.729 -7.838,-1.532 -7.908,-1.55 -8.01,-1.583 -8.077,-1.609 L -8.76,-1.863 C -16.927,-3.874 -33.271,-7.999 -56.062,-13.8 l -0.108,-0.028 c -0.948,-0.178 -1.807,-0.125 -2.846,0.224 l -36.137,26.147 c -0.081,0.059 -0.168,0.112 -0.258,0.158 -0.368,0.19 -0.723,0.445 -1.055,0.762 -0.018,0.02 -0.036,0.038 -0.056,0.058 -0.844,0.832 -1.307,1.927 -1.307,3.086 0,2.284 1.732,4.159 4.029,4.357 0.078,0.005 0.155,0.018 0.23,0.033 0.398,0.083 0.788,0.108 1.303,0.03 0.184,-0.03 0.365,-0.066 0.51,-0.108 0.19,-0.059 0.388,-0.142 0.631,-0.265 0.127,-0.065 0.254,-0.132 0.374,-0.213 0.027,-0.016 0.056,-0.035 0.083,-0.051 l 3.869,-2.797 c 0.027,-0.02 0.055,-0.04 0.084,-0.058 l 22.119,-14.34 c 0.184,-0.12 0.388,-0.207 0.6,-0.259 0.789,-0.196 1.689,-0.263 2.752,-0.207 0.118,0.005 0.234,0.022 0.347,0.05 1.004,0.234 5.737,1.472 14.051,3.673 l 0.416,0.106 c 1.715,0.497 3.453,0.958 5.202,1.379 2.873,0.76 5.021,1.332 5.469,1.45 0.155,0.043 0.304,0.103 0.443,0.18 2.539,1.401 4.116,4.056 4.116,6.931 0,3.91 -2.801,7.203 -6.66,7.833 -0.106,0.018 -0.213,0.026 -0.321,0.026 h -14.044 c -1.089,0 -1.976,0.888 -1.976,1.979 0,1.091 0.887,1.979 1.976,1.979 h 15.017 c 1.962,0.058 4.339,0.086 7.262,0.086 5.91,0 10.003,-2.287 13.546,-4.757 0.921,-0.644 1.815,-1.308 2.7,-1.965 3.955,-2.934 8.03,-5.958 13.69,-6.55 V 2.053 L 0.014,0.115 C 0.008,0.077 0.003,0.039 0,0 m 3.604,18.177 c -0.373,0.51 -0.969,0.815 -1.603,0.815 -5.427,0 -9.092,2.72 -13.338,5.871 -0.917,0.681 -1.841,1.368 -2.795,2.033 -3.88,2.706 -8.792,5.471 -15.815,5.471 -2.963,0 -5.376,-0.028 -7.32,-0.086 h -14.959 c -3.276,0 -5.942,-2.668 -5.942,-5.945 0,-3.278 2.666,-5.945 5.942,-5.945 h 13.868 c 1.857,-0.371 3.191,-1.985 3.191,-3.893 0,-1.359 -0.714,-2.623 -1.876,-3.349 -0.756,-0.2 -2.697,-0.715 -5.157,-1.368 -1.765,-0.424 -3.561,-0.9 -5.275,-1.397 l -0.372,-0.095 C -57.46,7.745 -60.692,6.91 -61.63,6.681 -62.071,6.664 -62.443,6.679 -62.756,6.728 l -21.762,14.107 -3.967,2.869 c -0.074,0.054 -0.154,0.103 -0.234,0.145 -0.197,0.123 -0.406,0.237 -0.624,0.346 -0.424,0.218 -0.831,0.386 -1.269,0.521 -0.313,0.091 -0.65,0.163 -1.045,0.228 -0.976,0.149 -1.777,0.117 -2.601,-0.041 -4.304,-0.429 -7.537,-3.976 -7.537,-8.296 0,-2.207 0.865,-4.283 2.438,-5.86 0.035,-0.039 0.07,-0.074 0.107,-0.109 0.579,-0.558 1.209,-1.024 1.879,-1.385 l 36.087,-26.161 c 0.171,-0.124 0.357,-0.218 0.553,-0.282 l 0.298,-0.116 c 0.032,-0.013 0.063,-0.024 0.096,-0.035 1.084,-0.372 2.103,-0.553 3.12,-0.553 0.613,0 1.243,0.063 1.868,0.184 0.044,0.009 0.085,0.02 0.125,0.031 l 0.157,0.039 c 22.867,5.82 39.246,9.954 47.365,11.953 0.076,0.02 0.151,0.043 0.224,0.071 l 0.711,0.265 c 3.942,0.984 6.961,1.505 8.739,1.505 1.095,0 1.983,0.888 1.983,1.983 v 1.32 c 0.021,0.119 0.03,0.243 0.028,0.368 L 3.955,16.666 c 0.092,0.527 -0.032,1.072 -0.351,1.511" style="fill:#16392c;fill-opacity:1;fill-rule:nonzero;stroke:none" transform="matrix(0.35277776,0,0,-0.35277776,97.168464,10.520426)" clip-path="url(#clipPath142)"></path><path id="path143" d="M 0,0 C 0.081,1.103 0.226,2.229 0.443,3.405 2.902,16.819 14.17,26.723 27.621,27.594 26.677,12.747 14.956,0.961 0,0 m 21.818,-11.099 c -8.764,-7.399 -21.814,-7.329 -30.54,0.45 -0.095,0.083 -0.194,0.164 -0.291,0.244 -0.061,0.051 -0.125,0.1 -0.174,0.146 -0.099,0.096 -0.203,0.188 -0.306,0.28 -0.077,0.067 -0.156,0.134 -0.293,0.271 -0.192,0.195 -0.366,0.399 -0.543,0.6 l -0.309,0.351 c -7.787,8.736 -7.843,21.814 -0.408,30.587 7.161,-7.98 7.981,-19.89 1.831,-28.804 -0.543,-0.787 -0.446,-1.852 0.23,-2.527 0.678,-0.678 1.739,-0.774 2.528,-0.231 8.735,6.023 20.339,5.358 28.275,-1.367 m 9.827,40.684 -0.001,0.104 c -0.028,1.033 -0.845,1.871 -1.878,1.927 l -0.104,0.005 c -0.035,0 -0.068,0.003 -0.103,0.003 -13.857,0 -26.009,-8.458 -31.073,-20.868 -0.909,5.452 -3.457,10.657 -7.605,14.805 -0.141,0.139 -0.288,0.271 -0.435,0.399 -0.063,0.055 -0.128,0.109 -0.189,0.168 -0.735,0.688 -1.903,0.69 -2.674,0.04 -0.044,-0.034 -0.086,-0.074 -0.126,-0.116 -10.21,-10.211 -10.672,-26.659 -1.05,-37.45 l 0.072,-0.084 -12.059,-12.06 2.062,-2.064 12.07,12.069 0.088,-0.073 c 5.191,-4.628 11.688,-6.923 18.17,-6.923 6.995,0 13.972,2.672 19.267,7.968 0.013,0.011 0.082,0.086 0.095,0.097 0.702,0.742 0.671,1.959 0.002,2.729 -0.031,0.036 -0.063,0.07 -0.097,0.103 -4.457,4.461 -10.138,7.079 -16.037,7.787 12.712,4.795 21.608,17.003 21.605,31.434" style="fill:#16392c;fill-opacity:1;fill-rule:nonzero;stroke:none" transform="matrix(0.35277776,0,0,-0.35277776,74.14392,-9.4127796)" clip-path="url(#clipPath144)"></path></g></svg>