<svg xmlns:inkscape="http://www.inkscape.org/namespaces/inkscape" xmlns:sodipodi="http://sodipodi.sourceforge.net/DTD/sodipodi-0.dtd" xmlns="http://www.w3.org/2000/svg" xmlns:svg="http://www.w3.org/2000/svg" width="40.995678mm" height="40.799667mm" viewBox="0 0 40.995678 40.799667" id="svg1" inkscape:version="1.3.2 (091e20e, 2023-11-25)" sodipodi:docname="globe-white.svg"><defs id="defs1"><clipPath clipPathUnits="userSpaceOnUse" id="clipPath188"><path d="M 0,8405.575 H 1920 V 0 H 0 Z" transform="translate(-155.76051,-1129.2362)" id="path188"></path></clipPath><clipPath clipPathUnits="userSpaceOnUse" id="clipPath190"><path d="M 0,8405.575 H 1920 V 0 H 0 Z" transform="translate(-244.82371,-1135.8662)" id="path190"></path></clipPath><clipPath clipPathUnits="userSpaceOnUse" id="clipPath192"><path d="M 0,8405.575 H 1920 V 0 H 0 Z" transform="translate(-237.77001,-1141.9253)" id="path192"></path></clipPath><clipPath clipPathUnits="userSpaceOnUse" id="clipPath194"><path d="M 0,8405.575 H 1920 V 0 H 0 Z" transform="translate(-169.515,-1150.0613)" id="path194"></path></clipPath><clipPath clipPathUnits="userSpaceOnUse" id="clipPath196"><path d="M 0,8405.575 H 1920 V 0 H 0 Z" transform="translate(-264.7975,-1090.2578)" id="path196"></path></clipPath><clipPath clipPathUnits="userSpaceOnUse" id="clipPath198"><path d="M 0,8405.575 H 1920 V 0 H 0 Z" transform="translate(-138.955,-1066.7477)" id="path198"></path></clipPath><clipPath clipPathUnits="userSpaceOnUse" id="clipPath200"><path d="M 0,8405.575 H 1920 V 0 H 0 Z" transform="translate(-243.2914,-1079.13)" id="path200"></path></clipPath><clipPath clipPathUnits="userSpaceOnUse" id="clipPath202"><path d="M 0,8405.575 H 1920 V 0 H 0 Z" transform="translate(-217.5817,-1026.5093)" id="path202"></path></clipPath><clipPath clipPathUnits="userSpaceOnUse" id="clipPath204"><path d="M 0,8405.575 H 1920 V 0 H 0 Z" transform="translate(-192.34251,-1134.2447)" id="path204"></path></clipPath><clipPath clipPathUnits="userSpaceOnUse" id="clipPath206"><path d="M 0,8405.575 H 1920 V 0 H 0 Z" transform="translate(-188.38701,-1133.4299)" id="path206"></path></clipPath><clipPath clipPathUnits="userSpaceOnUse" id="clipPath208"><path d="M 0,8405.575 H 1920 V 0 H 0 Z" transform="translate(-163.18731,-1145.8419)" id="path208"></path></clipPath><clipPath clipPathUnits="userSpaceOnUse" id="clipPath210"><path d="M 0,8405.575 H 1920 V 0 H 0 Z" transform="translate(-241.54831,-1138.7081)" id="path210"></path></clipPath><clipPath clipPathUnits="userSpaceOnUse" id="clipPath212"><path d="M 0,8405.575 H 1920 V 0 H 0 Z" transform="translate(-241.71411,-1037.9384)" id="path212"></path></clipPath><clipPath clipPathUnits="userSpaceOnUse" id="clipPath214"><path d="M 0,8405.575 H 1920 V 0 H 0 Z" transform="translate(-153.9312,-1139.8373)" id="path214"></path></clipPath><clipPath clipPathUnits="userSpaceOnUse" id="clipPath216"><path d="M 0,8405.575 H 1920 V 0 H 0 Z" transform="translate(-167.1208,-1148.9604)" id="path216"></path></clipPath><clipPath clipPathUnits="userSpaceOnUse" id="clipPath218"><path d="M 0,8405.575 H 1920 V 0 H 0 Z" transform="translate(-264.7147,-1090.3973)" id="path218"></path></clipPath><clipPath clipPathUnits="userSpaceOnUse" id="clipPath220"><path d="M 0,8405.575 H 1920 V 0 H 0 Z" transform="translate(-242.26081,-1094.5652)" id="path220"></path></clipPath><clipPath clipPathUnits="userSpaceOnUse" id="clipPath222"><path d="M 0,8405.575 H 1920 V 0 H 0 Z" transform="translate(-194.8509,-1042.73)" id="path222"></path></clipPath><clipPath clipPathUnits="userSpaceOnUse" id="clipPath224"><path d="M 0,8405.575 H 1920 V 0 H 0 Z" transform="translate(-230.4757,-1057.9568)" id="path224"></path></clipPath><clipPath clipPathUnits="userSpaceOnUse" id="clipPath226"><path d="M 0,8405.575 H 1920 V 0 H 0 Z" transform="translate(-219.81591,-1127.9576)" id="path226"></path></clipPath><clipPath clipPathUnits="userSpaceOnUse" id="clipPath228"><path d="M 0,8405.575 H 1920 V 0 H 0 Z" transform="translate(-219.81591,-1127.9576)" id="path228"></path></clipPath><clipPath clipPathUnits="userSpaceOnUse" id="clipPath230"><path d="M 0,8405.575 H 1920 V 0 H 0 Z" transform="translate(-154.83351,-1122.5178)" id="path230"></path></clipPath><clipPath clipPathUnits="userSpaceOnUse" id="clipPath232"><path d="M 0,8405.575 H 1920 V 0 H 0 Z" transform="translate(-159.06081,-1127.0156)" id="path232"></path></clipPath><clipPath clipPathUnits="userSpaceOnUse" id="clipPath234"><path d="M 0,8405.575 H 1920 V 0 H 0 Z" transform="translate(-220.21191,-1152.8262)" id="path234"></path></clipPath><clipPath clipPathUnits="userSpaceOnUse" id="clipPath236"><path d="M 0,8405.575 H 1920 V 0 H 0 Z" transform="translate(-247.40931,-1134.0822)" id="path236"></path></clipPath><clipPath clipPathUnits="userSpaceOnUse" id="clipPath238"><path d="M 0,8405.575 H 1920 V 0 H 0 Z" transform="translate(-262.33881,-1110.4628)" id="path238"></path></clipPath><clipPath clipPathUnits="userSpaceOnUse" id="clipPath240"><path d="M 0,8405.575 H 1920 V 0 H 0 Z" transform="translate(-210.92341,-1063.11)" id="path240"></path></clipPath><clipPath clipPathUnits="userSpaceOnUse" id="clipPath242"><path d="M 0,8405.575 H 1920 V 0 H 0 Z" transform="translate(-217.3213,-1060.4111)" id="path242"></path></clipPath><clipPath clipPathUnits="userSpaceOnUse" id="clipPath244"><path d="M 0,8405.575 H 1920 V 0 H 0 Z" transform="translate(-219.23721,-1057.9988)" id="path244"></path></clipPath><clipPath clipPathUnits="userSpaceOnUse" id="clipPath246"><path d="M 0,8405.575 H 1920 V 0 H 0 Z" transform="translate(-220.52041,-1050.4272)" id="path246"></path></clipPath><clipPath clipPathUnits="userSpaceOnUse" id="clipPath248"><path d="M 0,8405.575 H 1920 V 0 H 0 Z" transform="translate(-220.46461,-1051.1249)" id="path248"></path></clipPath><clipPath clipPathUnits="userSpaceOnUse" id="clipPath250"><path d="M 0,8405.575 H 1920 V 0 H 0 Z" transform="translate(-220.66051,-1054.619)" id="path250"></path></clipPath><clipPath clipPathUnits="userSpaceOnUse" id="clipPath252"><path d="M 0,8405.575 H 1920 V 0 H 0 Z" transform="translate(-225.3604,-1054.0343)" id="path252"></path></clipPath><clipPath clipPathUnits="userSpaceOnUse" id="clipPath254"><path d="M 0,8405.575 H 1920 V 0 H 0 Z" transform="translate(-225.18001,-1053.6036)" id="path254"></path></clipPath><clipPath clipPathUnits="userSpaceOnUse" id="clipPath256"><path d="M 0,8405.575 H 1920 V 0 H 0 Z" transform="translate(-224.8807,-1058.3708)" id="path256"></path></clipPath><clipPath clipPathUnits="userSpaceOnUse" id="clipPath258"><path d="M 0,8405.575 H 1920 V 0 H 0 Z" transform="translate(-224.40411,-1061.3987)" id="path258"></path></clipPath><clipPath clipPathUnits="userSpaceOnUse" id="clipPath260"><path d="M 0,8405.575 H 1920 V 0 H 0 Z" transform="translate(-224.89441,-1057.562)" id="path260"></path></clipPath><clipPath clipPathUnits="userSpaceOnUse" id="clipPath262"><path d="M 0,8405.575 H 1920 V 0 H 0 Z" transform="translate(-224.72961,-1057.7375)" id="path262"></path></clipPath><clipPath clipPathUnits="userSpaceOnUse" id="clipPath264"><path d="M 0,8405.575 H 1920 V 0 H 0 Z" transform="translate(-224.8144,-1057.0979)" id="path264"></path></clipPath><clipPath clipPathUnits="userSpaceOnUse" id="clipPath266"><path d="M 0,8405.575 H 1920 V 0 H 0 Z" transform="translate(-224.9884,-1054.6992)" id="path266"></path></clipPath><clipPath clipPathUnits="userSpaceOnUse" id="clipPath268"><path d="M 0,8405.575 H 1920 V 0 H 0 Z" transform="translate(-224.7757,-1055.9744)" id="path268"></path></clipPath><clipPath clipPathUnits="userSpaceOnUse" id="clipPath270"><path d="M 0,8405.575 H 1920 V 0 H 0 Z" transform="translate(-223.70821,-1062.2345)" id="path270"></path></clipPath><clipPath clipPathUnits="userSpaceOnUse" id="clipPath272"><path d="M 0,8405.575 H 1920 V 0 H 0 Z" transform="translate(-224.3443,-1059.7514)" id="path272"></path></clipPath><clipPath clipPathUnits="userSpaceOnUse" id="clipPath274"><path d="M 0,8405.575 H 1920 V 0 H 0 Z" transform="translate(-220.4137,-1069.5554)" id="path274"></path></clipPath><clipPath clipPathUnits="userSpaceOnUse" id="clipPath276"><path d="M 0,8405.575 H 1920 V 0 H 0 Z" transform="translate(-223.7056,-1061.7521)" id="path276"></path></clipPath><clipPath clipPathUnits="userSpaceOnUse" id="clipPath278"><path d="M 0,8405.575 H 1920 V 0 H 0 Z" transform="translate(-222.7144,-1064.9933)" id="path278"></path></clipPath><clipPath clipPathUnits="userSpaceOnUse" id="clipPath280"><path d="M 0,8405.575 H 1920 V 0 H 0 Z" transform="translate(-224.3044,-1060.0406)" id="path280"></path></clipPath><clipPath clipPathUnits="userSpaceOnUse" id="clipPath282"><path d="M 0,8405.575 H 1920 V 0 H 0 Z" transform="translate(-224.3044,-1060.0406)" id="path282"></path></clipPath><clipPath clipPathUnits="userSpaceOnUse" id="clipPath284"><path d="M 0,8405.575 H 1920 V 0 H 0 Z" transform="translate(-221.48691,-1067.4573)" id="path284"></path></clipPath><clipPath clipPathUnits="userSpaceOnUse" id="clipPath286"><path d="M 0,8405.575 H 1920 V 0 H 0 Z" transform="translate(-221.94381,-1065.6479)" id="path286"></path></clipPath><clipPath clipPathUnits="userSpaceOnUse" id="clipPath288"><path d="M 0,8405.575 H 1920 V 0 H 0 Z" transform="translate(-224.3473,-1053.6809)" id="path288"></path></clipPath><clipPath clipPathUnits="userSpaceOnUse" id="clipPath290"><path d="M 0,8405.575 H 1920 V 0 H 0 Z" transform="translate(-224.61511,-1055.6864)" id="path290"></path></clipPath><clipPath clipPathUnits="userSpaceOnUse" id="clipPath292"><path d="M 0,8405.575 H 1920 V 0 H 0 Z" transform="translate(-224.39121,-1054.6194)" id="path292"></path></clipPath><clipPath clipPathUnits="userSpaceOnUse" id="clipPath294"><path d="M 0,8405.575 H 1920 V 0 H 0 Z" transform="translate(-223.45881,-1060.787)" id="path294"></path></clipPath><clipPath clipPathUnits="userSpaceOnUse" id="clipPath296"><path d="M 0,8405.575 H 1920 V 0 H 0 Z" transform="translate(-220.3621,-1069.7795)" id="path296"></path></clipPath><clipPath clipPathUnits="userSpaceOnUse" id="clipPath298"><path d="M 0,8405.575 H 1920 V 0 H 0 Z" transform="translate(-219.03541,-1071.8988)" id="path298"></path></clipPath><clipPath clipPathUnits="userSpaceOnUse" id="clipPath300"><path d="M 0,8405.575 H 1920 V 0 H 0 Z" transform="translate(-188.9161,-1092.7952)" id="path300"></path></clipPath><clipPath clipPathUnits="userSpaceOnUse" id="clipPath302"><path d="M 0,8405.575 H 1920 V 0 H 0 Z" transform="translate(-198.12531,-1088.786)" id="path302"></path></clipPath><clipPath clipPathUnits="userSpaceOnUse" id="clipPath304"><path d="M 0,8405.575 H 1920 V 0 H 0 Z" transform="translate(-213.48421,-1100.0333)" id="path304"></path></clipPath><clipPath clipPathUnits="userSpaceOnUse" id="clipPath306"><path d="M 0,8405.575 H 1920 V 0 H 0 Z" transform="translate(-196.19181,-1089.4265)" id="path306"></path></clipPath><clipPath clipPathUnits="userSpaceOnUse" id="clipPath308"><path d="M 0,8405.575 H 1920 V 0 H 0 Z" transform="translate(-203.8645,-1063.4996)" id="path308"></path></clipPath><clipPath clipPathUnits="userSpaceOnUse" id="clipPath310"><path d="M 0,8405.575 H 1920 V 0 H 0 Z" transform="translate(-212.78161,-1079.7332)" id="path310"></path></clipPath><clipPath clipPathUnits="userSpaceOnUse" id="clipPath312"><path d="M 0,8405.575 H 1920 V 0 H 0 Z" transform="translate(-214.11361,-1077.4718)" id="path312"></path></clipPath><clipPath clipPathUnits="userSpaceOnUse" id="clipPath314"><path d="M 0,8405.575 H 1920 V 0 H 0 Z" transform="translate(-213.29671,-1079.1179)" id="path314"></path></clipPath><clipPath clipPathUnits="userSpaceOnUse" id="clipPath316"><path d="M 0,8405.575 H 1920 V 0 H 0 Z" transform="translate(-213.27061,-1079.2415)" id="path316"></path></clipPath><clipPath clipPathUnits="userSpaceOnUse" id="clipPath318"><path d="M 0,8405.575 H 1920 V 0 H 0 Z" transform="translate(-212.25481,-1080.2552)" id="path318"></path></clipPath><clipPath clipPathUnits="userSpaceOnUse" id="clipPath320"><path d="M 0,8405.575 H 1920 V 0 H 0 Z" transform="translate(-216.46231,-1075.6718)" id="path320"></path></clipPath><clipPath clipPathUnits="userSpaceOnUse" id="clipPath322"><path d="M 0,8405.575 H 1920 V 0 H 0 Z" transform="translate(-217.51021,-1073.3025)" id="path322"></path></clipPath><clipPath clipPathUnits="userSpaceOnUse" id="clipPath324"><path d="M 0,8405.575 H 1920 V 0 H 0 Z" transform="translate(-217.69821,-1073.037)" id="path324"></path></clipPath><clipPath clipPathUnits="userSpaceOnUse" id="clipPath326"><path d="M 0,8405.575 H 1920 V 0 H 0 Z" transform="translate(-211.47561,-1080.8961)" id="path326"></path></clipPath><clipPath clipPathUnits="userSpaceOnUse" id="clipPath328"><path d="M 0,8405.575 H 1920 V 0 H 0 Z" transform="translate(-216.3046,-1074.3243)" id="path328"></path></clipPath><clipPath clipPathUnits="userSpaceOnUse" id="clipPath330"><path d="M 0,8405.575 H 1920 V 0 H 0 Z" transform="translate(-212.80801,-1078.5887)" id="path330"></path></clipPath><clipPath clipPathUnits="userSpaceOnUse" id="clipPath332"><path d="M 0,8405.575 H 1920 V 0 H 0 Z" transform="translate(-214.58341,-1076.6595)" id="path332"></path></clipPath><clipPath clipPathUnits="userSpaceOnUse" id="clipPath334"><path d="M 0,8405.575 H 1920 V 0 H 0 Z" transform="translate(-200.57131,-1087.0322)" id="path334"></path></clipPath><clipPath clipPathUnits="userSpaceOnUse" id="clipPath336"><path d="M 0,8405.575 H 1920 V 0 H 0 Z" transform="translate(-208.07931,-1063.2557)" id="path336"></path></clipPath><clipPath clipPathUnits="userSpaceOnUse" id="clipPath338"><path d="M 0,8405.575 H 1920 V 0 H 0 Z" transform="translate(-209.72041,-1063.4141)" id="path338"></path></clipPath><clipPath clipPathUnits="userSpaceOnUse" id="clipPath140"><path d="M 0,8405.575 H 1920 V 0 H 0 Z" transform="translate(-1196.0394,-2734.8902)" id="path140"></path></clipPath><clipPath clipPathUnits="userSpaceOnUse" id="clipPath49831"><path d="M 0,8405.575 H 1920 V 0 H 0 Z" transform="translate(-1145.092,-2746.9049)" id="path49831"></path></clipPath><clipPath clipPathUnits="userSpaceOnUse" id="clipPath49833"><path d="M 0,8405.575 H 1920 V 0 H 0 Z" transform="translate(-1171.1338,-2684.4579)" id="path49833"></path></clipPath><clipPath clipPathUnits="userSpaceOnUse" id="clipPath49835"><path d="M 0,8405.575 H 1920 V 0 H 0 Z" transform="translate(-1066.7745,-2734.2501)" id="path49835"></path></clipPath><clipPath clipPathUnits="userSpaceOnUse" id="clipPath49837"><path d="M 0,8405.575 H 1920 V 0 H 0 Z" transform="translate(-1108.6449,-2789.8407)" id="path49837"></path></clipPath><clipPath clipPathUnits="userSpaceOnUse" id="clipPath49839"><path d="M 0,8405.575 H 1920 V 0 H 0 Z" transform="translate(-1155.498,-2742.738)" id="path49839"></path></clipPath><clipPath clipPathUnits="userSpaceOnUse" id="clipPath49841"><path d="M 0,8405.575 H 1920 V 0 H 0 Z" transform="translate(-1167.5193,-2728.4661)" id="path49841"></path></clipPath><clipPath clipPathUnits="userSpaceOnUse" id="clipPath49843"><path d="M 0,8405.575 H 1920 V 0 H 0 Z" transform="translate(-1152.1125,-2725.9197)" id="path49843"></path></clipPath><clipPath clipPathUnits="userSpaceOnUse" id="clipPath49845"><path d="M 0,8405.575 H 1920 V 0 H 0 Z" transform="translate(-1066.3764,-2744.8587)" id="path49845"></path></clipPath><clipPath clipPathUnits="userSpaceOnUse" id="clipPath129"><path d="M 0,8405.575 H 1920 V 0 H 0 Z" transform="translate(-1196.0394,-3035.8439)" id="path129"></path></clipPath><clipPath clipPathUnits="userSpaceOnUse" id="clipPath142"><path d="M 0,8405.575 H 1920 V 0 H 0 Z" transform="translate(-1163.1615,-3003.8048)" id="path142"></path></clipPath><clipPath clipPathUnits="userSpaceOnUse" id="clipPath144"><path d="M 0,8405.575 H 1920 V 0 H 0 Z" transform="translate(-1097.8951,-3060.3084)" id="path144"></path></clipPath><clipPath clipPathUnits="userSpaceOnUse" id="clipPath11"><path d="M 0,8405.575 H 1920 V 0 H 0 Z" transform="translate(-85.625905,-3220.0528)" id="path11"></path></clipPath><clipPath clipPathUnits="userSpaceOnUse" id="clipPath13"><path d="M 0,8405.575 H 1920 V 0 H 0 Z" transform="translate(-118.46871,-3201.0497)" id="path13"></path></clipPath><clipPath clipPathUnits="userSpaceOnUse" id="clipPath121"><path d="M 0,8405.575 H 1920 V 0 H 0 Z" transform="translate(-269.07351,-3035.8439)" id="path121"></path></clipPath><clipPath clipPathUnits="userSpaceOnUse" id="clipPath49829"><path d="M 0,8405.575 H 1920 V 0 H 0 Z" transform="translate(-219.817,-3058.9466)" id="path49829"></path></clipPath><clipPath clipPathUnits="userSpaceOnUse" id="clipPath134"><path d="M 0,8405.575 H 1920 V 0 H 0 Z" transform="translate(-269.07351,-2741.8902)" id="path134"></path></clipPath><clipPath clipPathUnits="userSpaceOnUse" id="clipPath49813"><path d="M 0,8405.575 H 1920 V 0 H 0 Z" transform="translate(-236.27821,-2725.2384)" id="path49813"></path></clipPath><clipPath clipPathUnits="userSpaceOnUse" id="clipPath49815"><path d="M 0,8405.575 H 1920 V 0 H 0 Z" transform="translate(-185.9346,-2756.3534)" id="path49815"></path></clipPath><clipPath clipPathUnits="userSpaceOnUse" id="clipPath49817"><path d="M 0,8405.575 H 1920 V 0 H 0 Z" transform="translate(-133.4091,-2788.3319)" id="path49817"></path></clipPath><clipPath clipPathUnits="userSpaceOnUse" id="clipPath49819"><path d="M 0,8405.575 H 1920 V 0 H 0 Z" transform="translate(-130.35051,-2758.7865)" id="path49819"></path></clipPath><clipPath clipPathUnits="userSpaceOnUse" id="clipPath49821"><path d="M 0,8405.575 H 1920 V 0 H 0 Z" transform="translate(-134.823,-2774.8058)" id="path49821"></path></clipPath><clipPath clipPathUnits="userSpaceOnUse" id="clipPath49823"><path d="M 0,8405.575 H 1920 V 0 H 0 Z" transform="translate(-177.5784,-2761.4349)" id="path49823"></path></clipPath><clipPath clipPathUnits="userSpaceOnUse" id="clipPath49825"><path d="M 0,8405.575 H 1920 V 0 H 0 Z" transform="translate(-156.8457,-2745.4979)" id="path49825"></path></clipPath><clipPath clipPathUnits="userSpaceOnUse" id="clipPath49827"><path d="M 0,8405.575 H 1920 V 0 H 0 Z" transform="translate(-170.06331,-2757.0366)" id="path49827"></path></clipPath><clipPath clipPathUnits="userSpaceOnUse" id="clipPath49781"><path d="M 0,8405.575 H 1920 V 0 H 0 Z" transform="translate(-340.60311,-1986.7358)" id="path49781"></path></clipPath><clipPath clipPathUnits="userSpaceOnUse" id="clipPath49793"><path d="M 0,8405.575 H 1920 V 0 H 0 Z" transform="translate(-859.9948,-1957.1637)" id="path49793"></path></clipPath></defs><g inkscape:label="Capa 1" inkscape:groupmode="layer" id="layer1" transform="translate(-175.28243,-207.02256)"><path id="path49792" d="m 0,0 c -8.68,6.674 -26.004,-6.539 -22.539,-9.793 10.22,-1.199 19.157,-1.095 29.248,1.274 C 7.399,-7.789 0.49,-0.377 0,0 m -53.074,8.024 -12.707,19.065 c -0.687,-8.138 4.397,-16.952 12.707,-19.065 m 6.349,-2.556 C -47.489,16.792 -51.758,27.145 -63.243,30.906 -65.672,28.3 -50.41,7.66 -46.725,5.468 m 8.917,5.101 c 14.241,1.651 17.975,14.242 15.252,26.698 L -28.689,23.699 Z M 38.485,53.857 C 40.32,56.55 29.143,73.773 25.759,76.112 L 4.211,72.85 C 1.082,62.845 16.694,64.897 14.203,57.188 12.49,51.885 1.632,55.096 -0.996,53.258 c -5.7,-9.945 6.653,-14.335 10.09,-20.602 1.343,-2.448 5.83,-18.222 8.433,-18.259 5.429,4.8 11.26,17.666 10.875,24.739 -0.261,4.781 -3.875,7.582 -0.198,12.617 z m -19.06,27.919 c -8.812,4.663 -17.679,8.67 -27.982,7.665 -0.256,-12.997 -3.28,-27.867 -13.376,-36.876 -6.763,-6.035 -29.599,-16.937 -37.932,-11.582 -2.504,1.609 -0.69,6.073 -3.372,6.461 -1.579,-12.499 0.579,-9.756 6.988,-15.255 7.56,-6.487 12.518,-12.545 13.368,-22.902 8.805,8.264 16.365,19.709 17.786,31.796 -0.632,0.699 -8.131,-3.206 -9.325,-4.019 -3.961,-2.696 -6.603,-9.323 -11.016,-5.522 3.007,5.068 17.388,15.282 22.487,15.762 3.727,0.35 5.604,-13.911 5.59,-17.025 C -17.43,14.292 -28.247,7.533 -42.34,4.276 L -42.702,0.553 -27.17,-7.361 C -21.113,2.175 -9.396,10.001 1.532,3.463 4.353,1.775 9.513,-6.004 12.199,-5.776 32.701,3.609 45.474,27.352 39.827,49.458 L 30.875,48.719 C 34.201,36.366 29.162,18.278 18.818,11.064 8.665,12.406 8.884,24.845 5.278,31.384 2.55,36.33 -4.941,39.117 -5.942,45.622 -7.913,58.42 -1.463,58.2 9.252,57.635 l -8.353,8.844 c -3.572,11.217 9.611,12.508 17.894,12.773 z m -31.798,14.013 c -22.764,-10.186 -38.673,-27.11 -43.239,-52.147 3.155,-2.772 23.227,6.599 27.119,9.123 14.867,9.643 16.271,26.51 16.12,43.024 m -5.089,1.266 C -47.95,96.506 -69.042,77.836 -58.145,46.188 l 6.118,16.119 14.352,19.997 z m 10.19,3.836 -0.013,-7.647 c 19.803,0.819 40.05,-13.7 48.001,-31.507 13.629,-30.521 -4.94,-67.885 -37.505,-75.03 -27.895,-6.121 -43.139,8.676 -65.216,21.913 -7.978,6.95 -9.075,17.974 -8.963,27.956 l 3.99,1.39 c -1.527,6.95 1.462,12.87 2.324,19.158 1.06,7.726 -0.442,11.828 2.843,20.057 8.53,21.369 34.305,24.174 54.539,23.71" style="fill:#ffffff;fill-opacity:1;fill-rule:nonzero;stroke:none" transform="matrix(0.35277776,0,0,-0.35277776,200.32094,242.63052)" clip-path="url(#clipPath49793)"></path></g></svg>