<svg xmlns:inkscape="http://www.inkscape.org/namespaces/inkscape" xmlns:sodipodi="http://sodipodi.sourceforge.net/DTD/sodipodi-0.dtd" xmlns="http://www.w3.org/2000/svg" xmlns:svg="http://www.w3.org/2000/svg" width="27.817675mm" height="39.98531mm" viewBox="0 0 27.817674 39.98531" id="svg1" inkscape:version="1.3.2 (091e20e, 2023-11-25)" sodipodi:docname="hand-white.svg"><defs id="defs1"><clipPath clipPathUnits="userSpaceOnUse" id="clipPath188"><path d="M 0,8405.575 H 1920 V 0 H 0 Z" transform="translate(-155.76051,-1129.2362)" id="path188"></path></clipPath><clipPath clipPathUnits="userSpaceOnUse" id="clipPath190"><path d="M 0,8405.575 H 1920 V 0 H 0 Z" transform="translate(-244.82371,-1135.8662)" id="path190"></path></clipPath><clipPath clipPathUnits="userSpaceOnUse" id="clipPath192"><path d="M 0,8405.575 H 1920 V 0 H 0 Z" transform="translate(-237.77001,-1141.9253)" id="path192"></path></clipPath><clipPath clipPathUnits="userSpaceOnUse" id="clipPath194"><path d="M 0,8405.575 H 1920 V 0 H 0 Z" transform="translate(-169.515,-1150.0613)" id="path194"></path></clipPath><clipPath clipPathUnits="userSpaceOnUse" id="clipPath196"><path d="M 0,8405.575 H 1920 V 0 H 0 Z" transform="translate(-264.7975,-1090.2578)" id="path196"></path></clipPath><clipPath clipPathUnits="userSpaceOnUse" id="clipPath198"><path d="M 0,8405.575 H 1920 V 0 H 0 Z" transform="translate(-138.955,-1066.7477)" id="path198"></path></clipPath><clipPath clipPathUnits="userSpaceOnUse" id="clipPath200"><path d="M 0,8405.575 H 1920 V 0 H 0 Z" transform="translate(-243.2914,-1079.13)" id="path200"></path></clipPath><clipPath clipPathUnits="userSpaceOnUse" id="clipPath202"><path d="M 0,8405.575 H 1920 V 0 H 0 Z" transform="translate(-217.5817,-1026.5093)" id="path202"></path></clipPath><clipPath clipPathUnits="userSpaceOnUse" id="clipPath204"><path d="M 0,8405.575 H 1920 V 0 H 0 Z" transform="translate(-192.34251,-1134.2447)" id="path204"></path></clipPath><clipPath clipPathUnits="userSpaceOnUse" id="clipPath206"><path d="M 0,8405.575 H 1920 V 0 H 0 Z" transform="translate(-188.38701,-1133.4299)" id="path206"></path></clipPath><clipPath clipPathUnits="userSpaceOnUse" id="clipPath208"><path d="M 0,8405.575 H 1920 V 0 H 0 Z" transform="translate(-163.18731,-1145.8419)" id="path208"></path></clipPath><clipPath clipPathUnits="userSpaceOnUse" id="clipPath210"><path d="M 0,8405.575 H 1920 V 0 H 0 Z" transform="translate(-241.54831,-1138.7081)" id="path210"></path></clipPath><clipPath clipPathUnits="userSpaceOnUse" id="clipPath212"><path d="M 0,8405.575 H 1920 V 0 H 0 Z" transform="translate(-241.71411,-1037.9384)" id="path212"></path></clipPath><clipPath clipPathUnits="userSpaceOnUse" id="clipPath214"><path d="M 0,8405.575 H 1920 V 0 H 0 Z" transform="translate(-153.9312,-1139.8373)" id="path214"></path></clipPath><clipPath clipPathUnits="userSpaceOnUse" id="clipPath216"><path d="M 0,8405.575 H 1920 V 0 H 0 Z" transform="translate(-167.1208,-1148.9604)" id="path216"></path></clipPath><clipPath clipPathUnits="userSpaceOnUse" id="clipPath218"><path d="M 0,8405.575 H 1920 V 0 H 0 Z" transform="translate(-264.7147,-1090.3973)" id="path218"></path></clipPath><clipPath clipPathUnits="userSpaceOnUse" id="clipPath220"><path d="M 0,8405.575 H 1920 V 0 H 0 Z" transform="translate(-242.26081,-1094.5652)" id="path220"></path></clipPath><clipPath clipPathUnits="userSpaceOnUse" id="clipPath222"><path d="M 0,8405.575 H 1920 V 0 H 0 Z" transform="translate(-194.8509,-1042.73)" id="path222"></path></clipPath><clipPath clipPathUnits="userSpaceOnUse" id="clipPath224"><path d="M 0,8405.575 H 1920 V 0 H 0 Z" transform="translate(-230.4757,-1057.9568)" id="path224"></path></clipPath><clipPath clipPathUnits="userSpaceOnUse" id="clipPath226"><path d="M 0,8405.575 H 1920 V 0 H 0 Z" transform="translate(-219.81591,-1127.9576)" id="path226"></path></clipPath><clipPath clipPathUnits="userSpaceOnUse" id="clipPath228"><path d="M 0,8405.575 H 1920 V 0 H 0 Z" transform="translate(-219.81591,-1127.9576)" id="path228"></path></clipPath><clipPath clipPathUnits="userSpaceOnUse" id="clipPath230"><path d="M 0,8405.575 H 1920 V 0 H 0 Z" transform="translate(-154.83351,-1122.5178)" id="path230"></path></clipPath><clipPath clipPathUnits="userSpaceOnUse" id="clipPath232"><path d="M 0,8405.575 H 1920 V 0 H 0 Z" transform="translate(-159.06081,-1127.0156)" id="path232"></path></clipPath><clipPath clipPathUnits="userSpaceOnUse" id="clipPath234"><path d="M 0,8405.575 H 1920 V 0 H 0 Z" transform="translate(-220.21191,-1152.8262)" id="path234"></path></clipPath><clipPath clipPathUnits="userSpaceOnUse" id="clipPath236"><path d="M 0,8405.575 H 1920 V 0 H 0 Z" transform="translate(-247.40931,-1134.0822)" id="path236"></path></clipPath><clipPath clipPathUnits="userSpaceOnUse" id="clipPath238"><path d="M 0,8405.575 H 1920 V 0 H 0 Z" transform="translate(-262.33881,-1110.4628)" id="path238"></path></clipPath><clipPath clipPathUnits="userSpaceOnUse" id="clipPath240"><path d="M 0,8405.575 H 1920 V 0 H 0 Z" transform="translate(-210.92341,-1063.11)" id="path240"></path></clipPath><clipPath clipPathUnits="userSpaceOnUse" id="clipPath242"><path d="M 0,8405.575 H 1920 V 0 H 0 Z" transform="translate(-217.3213,-1060.4111)" id="path242"></path></clipPath><clipPath clipPathUnits="userSpaceOnUse" id="clipPath244"><path d="M 0,8405.575 H 1920 V 0 H 0 Z" transform="translate(-219.23721,-1057.9988)" id="path244"></path></clipPath><clipPath clipPathUnits="userSpaceOnUse" id="clipPath246"><path d="M 0,8405.575 H 1920 V 0 H 0 Z" transform="translate(-220.52041,-1050.4272)" id="path246"></path></clipPath><clipPath clipPathUnits="userSpaceOnUse" id="clipPath248"><path d="M 0,8405.575 H 1920 V 0 H 0 Z" transform="translate(-220.46461,-1051.1249)" id="path248"></path></clipPath><clipPath clipPathUnits="userSpaceOnUse" id="clipPath250"><path d="M 0,8405.575 H 1920 V 0 H 0 Z" transform="translate(-220.66051,-1054.619)" id="path250"></path></clipPath><clipPath clipPathUnits="userSpaceOnUse" id="clipPath252"><path d="M 0,8405.575 H 1920 V 0 H 0 Z" transform="translate(-225.3604,-1054.0343)" id="path252"></path></clipPath><clipPath clipPathUnits="userSpaceOnUse" id="clipPath254"><path d="M 0,8405.575 H 1920 V 0 H 0 Z" transform="translate(-225.18001,-1053.6036)" id="path254"></path></clipPath><clipPath clipPathUnits="userSpaceOnUse" id="clipPath256"><path d="M 0,8405.575 H 1920 V 0 H 0 Z" transform="translate(-224.8807,-1058.3708)" id="path256"></path></clipPath><clipPath clipPathUnits="userSpaceOnUse" id="clipPath258"><path d="M 0,8405.575 H 1920 V 0 H 0 Z" transform="translate(-224.40411,-1061.3987)" id="path258"></path></clipPath><clipPath clipPathUnits="userSpaceOnUse" id="clipPath260"><path d="M 0,8405.575 H 1920 V 0 H 0 Z" transform="translate(-224.89441,-1057.562)" id="path260"></path></clipPath><clipPath clipPathUnits="userSpaceOnUse" id="clipPath262"><path d="M 0,8405.575 H 1920 V 0 H 0 Z" transform="translate(-224.72961,-1057.7375)" id="path262"></path></clipPath><clipPath clipPathUnits="userSpaceOnUse" id="clipPath264"><path d="M 0,8405.575 H 1920 V 0 H 0 Z" transform="translate(-224.8144,-1057.0979)" id="path264"></path></clipPath><clipPath clipPathUnits="userSpaceOnUse" id="clipPath266"><path d="M 0,8405.575 H 1920 V 0 H 0 Z" transform="translate(-224.9884,-1054.6992)" id="path266"></path></clipPath><clipPath clipPathUnits="userSpaceOnUse" id="clipPath268"><path d="M 0,8405.575 H 1920 V 0 H 0 Z" transform="translate(-224.7757,-1055.9744)" id="path268"></path></clipPath><clipPath clipPathUnits="userSpaceOnUse" id="clipPath270"><path d="M 0,8405.575 H 1920 V 0 H 0 Z" transform="translate(-223.70821,-1062.2345)" id="path270"></path></clipPath><clipPath clipPathUnits="userSpaceOnUse" id="clipPath272"><path d="M 0,8405.575 H 1920 V 0 H 0 Z" transform="translate(-224.3443,-1059.7514)" id="path272"></path></clipPath><clipPath clipPathUnits="userSpaceOnUse" id="clipPath274"><path d="M 0,8405.575 H 1920 V 0 H 0 Z" transform="translate(-220.4137,-1069.5554)" id="path274"></path></clipPath><clipPath clipPathUnits="userSpaceOnUse" id="clipPath276"><path d="M 0,8405.575 H 1920 V 0 H 0 Z" transform="translate(-223.7056,-1061.7521)" id="path276"></path></clipPath><clipPath clipPathUnits="userSpaceOnUse" id="clipPath278"><path d="M 0,8405.575 H 1920 V 0 H 0 Z" transform="translate(-222.7144,-1064.9933)" id="path278"></path></clipPath><clipPath clipPathUnits="userSpaceOnUse" id="clipPath280"><path d="M 0,8405.575 H 1920 V 0 H 0 Z" transform="translate(-224.3044,-1060.0406)" id="path280"></path></clipPath><clipPath clipPathUnits="userSpaceOnUse" id="clipPath282"><path d="M 0,8405.575 H 1920 V 0 H 0 Z" transform="translate(-224.3044,-1060.0406)" id="path282"></path></clipPath><clipPath clipPathUnits="userSpaceOnUse" id="clipPath284"><path d="M 0,8405.575 H 1920 V 0 H 0 Z" transform="translate(-221.48691,-1067.4573)" id="path284"></path></clipPath><clipPath clipPathUnits="userSpaceOnUse" id="clipPath286"><path d="M 0,8405.575 H 1920 V 0 H 0 Z" transform="translate(-221.94381,-1065.6479)" id="path286"></path></clipPath><clipPath clipPathUnits="userSpaceOnUse" id="clipPath288"><path d="M 0,8405.575 H 1920 V 0 H 0 Z" transform="translate(-224.3473,-1053.6809)" id="path288"></path></clipPath><clipPath clipPathUnits="userSpaceOnUse" id="clipPath290"><path d="M 0,8405.575 H 1920 V 0 H 0 Z" transform="translate(-224.61511,-1055.6864)" id="path290"></path></clipPath><clipPath clipPathUnits="userSpaceOnUse" id="clipPath292"><path d="M 0,8405.575 H 1920 V 0 H 0 Z" transform="translate(-224.39121,-1054.6194)" id="path292"></path></clipPath><clipPath clipPathUnits="userSpaceOnUse" id="clipPath294"><path d="M 0,8405.575 H 1920 V 0 H 0 Z" transform="translate(-223.45881,-1060.787)" id="path294"></path></clipPath><clipPath clipPathUnits="userSpaceOnUse" id="clipPath296"><path d="M 0,8405.575 H 1920 V 0 H 0 Z" transform="translate(-220.3621,-1069.7795)" id="path296"></path></clipPath><clipPath clipPathUnits="userSpaceOnUse" id="clipPath298"><path d="M 0,8405.575 H 1920 V 0 H 0 Z" transform="translate(-219.03541,-1071.8988)" id="path298"></path></clipPath><clipPath clipPathUnits="userSpaceOnUse" id="clipPath300"><path d="M 0,8405.575 H 1920 V 0 H 0 Z" transform="translate(-188.9161,-1092.7952)" id="path300"></path></clipPath><clipPath clipPathUnits="userSpaceOnUse" id="clipPath302"><path d="M 0,8405.575 H 1920 V 0 H 0 Z" transform="translate(-198.12531,-1088.786)" id="path302"></path></clipPath><clipPath clipPathUnits="userSpaceOnUse" id="clipPath304"><path d="M 0,8405.575 H 1920 V 0 H 0 Z" transform="translate(-213.48421,-1100.0333)" id="path304"></path></clipPath><clipPath clipPathUnits="userSpaceOnUse" id="clipPath306"><path d="M 0,8405.575 H 1920 V 0 H 0 Z" transform="translate(-196.19181,-1089.4265)" id="path306"></path></clipPath><clipPath clipPathUnits="userSpaceOnUse" id="clipPath308"><path d="M 0,8405.575 H 1920 V 0 H 0 Z" transform="translate(-203.8645,-1063.4996)" id="path308"></path></clipPath><clipPath clipPathUnits="userSpaceOnUse" id="clipPath310"><path d="M 0,8405.575 H 1920 V 0 H 0 Z" transform="translate(-212.78161,-1079.7332)" id="path310"></path></clipPath><clipPath clipPathUnits="userSpaceOnUse" id="clipPath312"><path d="M 0,8405.575 H 1920 V 0 H 0 Z" transform="translate(-214.11361,-1077.4718)" id="path312"></path></clipPath><clipPath clipPathUnits="userSpaceOnUse" id="clipPath314"><path d="M 0,8405.575 H 1920 V 0 H 0 Z" transform="translate(-213.29671,-1079.1179)" id="path314"></path></clipPath><clipPath clipPathUnits="userSpaceOnUse" id="clipPath316"><path d="M 0,8405.575 H 1920 V 0 H 0 Z" transform="translate(-213.27061,-1079.2415)" id="path316"></path></clipPath><clipPath clipPathUnits="userSpaceOnUse" id="clipPath318"><path d="M 0,8405.575 H 1920 V 0 H 0 Z" transform="translate(-212.25481,-1080.2552)" id="path318"></path></clipPath><clipPath clipPathUnits="userSpaceOnUse" id="clipPath320"><path d="M 0,8405.575 H 1920 V 0 H 0 Z" transform="translate(-216.46231,-1075.6718)" id="path320"></path></clipPath><clipPath clipPathUnits="userSpaceOnUse" id="clipPath322"><path d="M 0,8405.575 H 1920 V 0 H 0 Z" transform="translate(-217.51021,-1073.3025)" id="path322"></path></clipPath><clipPath clipPathUnits="userSpaceOnUse" id="clipPath324"><path d="M 0,8405.575 H 1920 V 0 H 0 Z" transform="translate(-217.69821,-1073.037)" id="path324"></path></clipPath><clipPath clipPathUnits="userSpaceOnUse" id="clipPath326"><path d="M 0,8405.575 H 1920 V 0 H 0 Z" transform="translate(-211.47561,-1080.8961)" id="path326"></path></clipPath><clipPath clipPathUnits="userSpaceOnUse" id="clipPath328"><path d="M 0,8405.575 H 1920 V 0 H 0 Z" transform="translate(-216.3046,-1074.3243)" id="path328"></path></clipPath><clipPath clipPathUnits="userSpaceOnUse" id="clipPath330"><path d="M 0,8405.575 H 1920 V 0 H 0 Z" transform="translate(-212.80801,-1078.5887)" id="path330"></path></clipPath><clipPath clipPathUnits="userSpaceOnUse" id="clipPath332"><path d="M 0,8405.575 H 1920 V 0 H 0 Z" transform="translate(-214.58341,-1076.6595)" id="path332"></path></clipPath><clipPath clipPathUnits="userSpaceOnUse" id="clipPath334"><path d="M 0,8405.575 H 1920 V 0 H 0 Z" transform="translate(-200.57131,-1087.0322)" id="path334"></path></clipPath><clipPath clipPathUnits="userSpaceOnUse" id="clipPath336"><path d="M 0,8405.575 H 1920 V 0 H 0 Z" transform="translate(-208.07931,-1063.2557)" id="path336"></path></clipPath><clipPath clipPathUnits="userSpaceOnUse" id="clipPath338"><path d="M 0,8405.575 H 1920 V 0 H 0 Z" transform="translate(-209.72041,-1063.4141)" id="path338"></path></clipPath><clipPath clipPathUnits="userSpaceOnUse" id="clipPath140"><path d="M 0,8405.575 H 1920 V 0 H 0 Z" transform="translate(-1196.0394,-2734.8902)" id="path140"></path></clipPath><clipPath clipPathUnits="userSpaceOnUse" id="clipPath49831"><path d="M 0,8405.575 H 1920 V 0 H 0 Z" transform="translate(-1145.092,-2746.9049)" id="path49831"></path></clipPath><clipPath clipPathUnits="userSpaceOnUse" id="clipPath49833"><path d="M 0,8405.575 H 1920 V 0 H 0 Z" transform="translate(-1171.1338,-2684.4579)" id="path49833"></path></clipPath><clipPath clipPathUnits="userSpaceOnUse" id="clipPath49835"><path d="M 0,8405.575 H 1920 V 0 H 0 Z" transform="translate(-1066.7745,-2734.2501)" id="path49835"></path></clipPath><clipPath clipPathUnits="userSpaceOnUse" id="clipPath49837"><path d="M 0,8405.575 H 1920 V 0 H 0 Z" transform="translate(-1108.6449,-2789.8407)" id="path49837"></path></clipPath><clipPath clipPathUnits="userSpaceOnUse" id="clipPath49839"><path d="M 0,8405.575 H 1920 V 0 H 0 Z" transform="translate(-1155.498,-2742.738)" id="path49839"></path></clipPath><clipPath clipPathUnits="userSpaceOnUse" id="clipPath49841"><path d="M 0,8405.575 H 1920 V 0 H 0 Z" transform="translate(-1167.5193,-2728.4661)" id="path49841"></path></clipPath><clipPath clipPathUnits="userSpaceOnUse" id="clipPath49843"><path d="M 0,8405.575 H 1920 V 0 H 0 Z" transform="translate(-1152.1125,-2725.9197)" id="path49843"></path></clipPath><clipPath clipPathUnits="userSpaceOnUse" id="clipPath49845"><path d="M 0,8405.575 H 1920 V 0 H 0 Z" transform="translate(-1066.3764,-2744.8587)" id="path49845"></path></clipPath><clipPath clipPathUnits="userSpaceOnUse" id="clipPath129"><path d="M 0,8405.575 H 1920 V 0 H 0 Z" transform="translate(-1196.0394,-3035.8439)" id="path129"></path></clipPath><clipPath clipPathUnits="userSpaceOnUse" id="clipPath142"><path d="M 0,8405.575 H 1920 V 0 H 0 Z" transform="translate(-1163.1615,-3003.8048)" id="path142"></path></clipPath><clipPath clipPathUnits="userSpaceOnUse" id="clipPath144"><path d="M 0,8405.575 H 1920 V 0 H 0 Z" transform="translate(-1097.8951,-3060.3084)" id="path144"></path></clipPath><clipPath clipPathUnits="userSpaceOnUse" id="clipPath11"><path d="M 0,8405.575 H 1920 V 0 H 0 Z" transform="translate(-85.625905,-3220.0528)" id="path11"></path></clipPath><clipPath clipPathUnits="userSpaceOnUse" id="clipPath13"><path d="M 0,8405.575 H 1920 V 0 H 0 Z" transform="translate(-118.46871,-3201.0497)" id="path13"></path></clipPath><clipPath clipPathUnits="userSpaceOnUse" id="clipPath121"><path d="M 0,8405.575 H 1920 V 0 H 0 Z" transform="translate(-269.07351,-3035.8439)" id="path121"></path></clipPath><clipPath clipPathUnits="userSpaceOnUse" id="clipPath49829"><path d="M 0,8405.575 H 1920 V 0 H 0 Z" transform="translate(-219.817,-3058.9466)" id="path49829"></path></clipPath><clipPath clipPathUnits="userSpaceOnUse" id="clipPath134"><path d="M 0,8405.575 H 1920 V 0 H 0 Z" transform="translate(-269.07351,-2741.8902)" id="path134"></path></clipPath><clipPath clipPathUnits="userSpaceOnUse" id="clipPath49813"><path d="M 0,8405.575 H 1920 V 0 H 0 Z" transform="translate(-236.27821,-2725.2384)" id="path49813"></path></clipPath><clipPath clipPathUnits="userSpaceOnUse" id="clipPath49815"><path d="M 0,8405.575 H 1920 V 0 H 0 Z" transform="translate(-185.9346,-2756.3534)" id="path49815"></path></clipPath><clipPath clipPathUnits="userSpaceOnUse" id="clipPath49817"><path d="M 0,8405.575 H 1920 V 0 H 0 Z" transform="translate(-133.4091,-2788.3319)" id="path49817"></path></clipPath><clipPath clipPathUnits="userSpaceOnUse" id="clipPath49819"><path d="M 0,8405.575 H 1920 V 0 H 0 Z" transform="translate(-130.35051,-2758.7865)" id="path49819"></path></clipPath><clipPath clipPathUnits="userSpaceOnUse" id="clipPath49821"><path d="M 0,8405.575 H 1920 V 0 H 0 Z" transform="translate(-134.823,-2774.8058)" id="path49821"></path></clipPath><clipPath clipPathUnits="userSpaceOnUse" id="clipPath49823"><path d="M 0,8405.575 H 1920 V 0 H 0 Z" transform="translate(-177.5784,-2761.4349)" id="path49823"></path></clipPath><clipPath clipPathUnits="userSpaceOnUse" id="clipPath49825"><path d="M 0,8405.575 H 1920 V 0 H 0 Z" transform="translate(-156.8457,-2745.4979)" id="path49825"></path></clipPath><clipPath clipPathUnits="userSpaceOnUse" id="clipPath49827"><path d="M 0,8405.575 H 1920 V 0 H 0 Z" transform="translate(-170.06331,-2757.0366)" id="path49827"></path></clipPath><clipPath clipPathUnits="userSpaceOnUse" id="clipPath49781"><path d="M 0,8405.575 H 1920 V 0 H 0 Z" transform="translate(-340.60311,-1986.7358)" id="path49781"></path></clipPath><clipPath clipPathUnits="userSpaceOnUse" id="clipPath49793"><path d="M 0,8405.575 H 1920 V 0 H 0 Z" transform="translate(-859.9948,-1957.1637)" id="path49793"></path></clipPath><clipPath clipPathUnits="userSpaceOnUse" id="clipPath49796"><path d="M 0,8405.575 H 1920 V 0 H 0 Z" transform="translate(-1406.1454,-1944.5673)" id="path49796"></path></clipPath><clipPath clipPathUnits="userSpaceOnUse" id="clipPath49798"><path d="M 0,8405.575 H 1920 V 0 H 0 Z" transform="translate(-1405.1007,-1989.5258)" id="path49798"></path></clipPath><clipPath clipPathUnits="userSpaceOnUse" id="clipPath49800"><path d="M 0,8405.575 H 1920 V 0 H 0 Z" transform="translate(-1440.3846,-2038.8443)" id="path49800"></path></clipPath><clipPath clipPathUnits="userSpaceOnUse" id="clipPath49802"><path d="M 0,8405.575 H 1920 V 0 H 0 Z" transform="translate(-1439.8032,-2063.8619)" id="path49802"></path></clipPath><clipPath clipPathUnits="userSpaceOnUse" id="clipPath49804"><path d="M 0,8405.575 H 1920 V 0 H 0 Z" transform="translate(-1442.8278,-1969.6826)" id="path49804"></path></clipPath><clipPath clipPathUnits="userSpaceOnUse" id="clipPath49806"><path d="M 0,8405.575 H 1920 V 0 H 0 Z" transform="translate(-1403.9332,-2037.9725)" id="path49806"></path></clipPath><clipPath clipPathUnits="userSpaceOnUse" id="clipPath49808"><path d="M 0,8405.575 H 1920 V 0 H 0 Z" transform="translate(-1416.1509,-2050.1886)" id="path49808"></path></clipPath><clipPath clipPathUnits="userSpaceOnUse" id="clipPath49775"><path d="M 0,8405.575 H 1920 V 0 H 0 Z" transform="translate(-324.48031,-1745.4623)" id="path49775"></path></clipPath><clipPath clipPathUnits="userSpaceOnUse" id="clipPath49777"><path d="M 0,8405.575 H 1920 V 0 H 0 Z" transform="translate(-293.05191,-1715.2709)" id="path49777"></path></clipPath><clipPath clipPathUnits="userSpaceOnUse" id="clipPath49779"><path d="M 0,8405.575 H 1920 V 0 H 0 Z" transform="translate(-270.38901,-1712.7507)" id="path49779"></path></clipPath><clipPath clipPathUnits="userSpaceOnUse" id="clipPath49784"><path d="M 0,8405.575 H 1920 V 0 H 0 Z" transform="translate(-868.19515,-1728.0873)" id="path49784"></path></clipPath><clipPath clipPathUnits="userSpaceOnUse" id="clipPath49786"><path d="M 0,8405.575 H 1920 V 0 H 0 Z" transform="translate(-883.58095,-1686.4784)" id="path49786"></path></clipPath><clipPath clipPathUnits="userSpaceOnUse" id="clipPath49811"><path d="M 0,8405.575 H 1920 V 0 H 0 Z" transform="translate(-1390.0173,-1711.9562)" id="path49811"></path></clipPath></defs><g inkscape:label="Capa 1" inkscape:groupmode="layer" id="layer1" transform="translate(-37.963681,-355.18919)"><path id="path49810" d="m 0,0 c 6.982,-1.174 13.327,-7.887 13.923,-14.97 0.137,-1.621 0.251,-7.399 -0.1,-8.749 -0.587,-2.25 -3.966,-2.857 -5.552,-1.11 -1.766,1.946 -0.686,6.939 -1.044,9.584 -0.508,3.754 -3.846,7.452 -7.47,8.471 -2.383,0.671 -5.253,-0.145 -6.317,2.761 -0.574,5.928 0.407,12.416 -0.096,18.28 -0.415,4.828 -5.767,5.64 -7.606,1.391 0.677,-18.344 -4.662,-37.711 10.694,-51.44 20.54,-18.363 52.673,-4.464 54.247,22.81 L 50.662,34.61 C 49.718,38.971 43.543,38.725 43.144,34.196 42.474,26.58 43.707,18.041 43.1,10.327 42.508,6.79 37.879,6.103 36.627,9.505 c -0.745,2.027 -0.129,3.876 -0.106,5.851 0.136,11.365 -0.121,22.74 -0.013,34.105 -0.27,4.486 -6.471,5.149 -7.695,0.837 L 28.759,14.927 c -0.404,-4.789 -6.357,-5.003 -6.859,0 -0.227,2.266 0.029,5.024 0.23,7.293 -0.667,9.641 0.85,20.401 -0.002,29.91 -0.409,4.561 -6.196,5.325 -7.708,1.047 C 14.115,39.949 14.783,26.61 14.081,13.441 12.754,10.448 8.614,10.688 7.742,13.831 7.525,24.713 8.109,35.696 7.443,46.523 6.309,50.038 1.375,50.128 0.127,46.658 Z m 15.255,-50.724 c -19.214,1.515 -35.187,17.275 -36.32,36.634 -0.567,9.695 0.45,19.933 0.001,29.686 0.8,6.949 7.843,11.249 14.4,8.738 V 47.25 c 0,0.226 0.685,2.108 0.846,2.474 2.361,5.388 8.627,7.415 13.985,5.387 2.205,8.462 13.675,10.138 18.708,3.15 5.52,3.468 13.123,1.233 15.499,-4.926 0.227,-0.587 0.779,-2.24 0.779,-2.764 v -6.753 c 6.33,2.235 13.144,-1.699 14.108,-8.365 C 56.714,19.38 58.201,2.565 57.332,-13.426 56.27,-32.979 40.688,-49.334 21.012,-50.724 Z" style="fill:#ffffff;fill-opacity:1;fill-rule:nonzero;stroke:none" transform="matrix(0.35277776,0,0,-0.35277776,45.457372,377.2802)" clip-path="url(#clipPath49811)"></path></g></svg>