<svg xmlns="http://www.w3.org/2000/svg" width="104.232" height="107.977" viewBox="0 0 27.578 28.569"><defs><clipPath id="a" clipPathUnits="userSpaceOnUse"><path d="M-1669.462 1175.523h1920v-4034.815h-1920Z"></path></clipPath><clipPath id="b" clipPathUnits="userSpaceOnUse"><path d="M-1723.525 1171.498h1920v-4034.815h-1920Z"></path></clipPath><clipPath id="c" clipPathUnits="userSpaceOnUse"><path d="M-1719.243 1167.82h1920v-4034.815h-1920Z"></path></clipPath><clipPath id="d" clipPathUnits="userSpaceOnUse"><path d="M-1677.81 1162.882h1920v-4034.815h-1920Z"></path></clipPath><clipPath id="e" clipPathUnits="userSpaceOnUse"><path d="M-1735.65 1199.184h1920v-4034.815h-1920Z"></path></clipPath><clipPath id="f" clipPathUnits="userSpaceOnUse"><path d="M-1659.26 1213.455h1920V-2821.36h-1920Z"></path></clipPath><clipPath id="g" clipPathUnits="userSpaceOnUse"><path d="M-1722.595 1205.939h1920v-4034.815h-1920Z"></path></clipPath><clipPath id="h" clipPathUnits="userSpaceOnUse"><path d="M-1706.988 1237.88h1920v-4034.814h-1920Z"></path></clipPath><clipPath id="i" clipPathUnits="userSpaceOnUse"><path d="M-1691.668 1172.483h1920v-4034.815h-1920Z"></path></clipPath><clipPath id="j" clipPathUnits="userSpaceOnUse"><path d="M-1689.266 1172.977h1920v-4034.815h-1920Z"></path></clipPath><clipPath id="k" clipPathUnits="userSpaceOnUse"><path d="M-1673.97 1165.443h1920v-4034.815h-1920Z"></path></clipPath><clipPath id="l" clipPathUnits="userSpaceOnUse"><path d="M-1721.537 1169.773h1920v-4034.815h-1920Z"></path></clipPath><clipPath id="m" clipPathUnits="userSpaceOnUse"><path d="M-1721.637 1230.943h1920v-4034.815h-1920Z"></path></clipPath><clipPath id="n" clipPathUnits="userSpaceOnUse"><path d="M-1668.351 1169.088h1920v-4034.815h-1920Z"></path></clipPath><clipPath id="o" clipPathUnits="userSpaceOnUse"><path d="M-1676.357 1163.55h1920v-4034.815h-1920Z"></path></clipPath><clipPath id="p" clipPathUnits="userSpaceOnUse"><path d="M-1735.6 1199.1h1920v-4034.816h-1920Z"></path></clipPath><clipPath id="q" clipPathUnits="userSpaceOnUse"><path d="M-1721.97 1196.57h1920v-4034.816h-1920Z"></path></clipPath><clipPath id="r" clipPathUnits="userSpaceOnUse"><path d="M-1693.19 1228.034h1920V-2806.78h-1920Z"></path></clipPath><clipPath id="s" clipPathUnits="userSpaceOnUse"><path d="M-1714.815 1218.791h1920v-4034.815h-1920Z"></path></clipPath><clipPath id="t" clipPathUnits="userSpaceOnUse"><path d="M-1708.345 1176.3h1920v-4034.816h-1920Z"></path></clipPath><clipPath id="u" clipPathUnits="userSpaceOnUse"><path d="M-1708.345 1176.3h1920v-4034.816h-1920Z"></path></clipPath><clipPath id="v" clipPathUnits="userSpaceOnUse"><path d="M-1668.899 1179.601h1920v-4034.815h-1920Z"></path></clipPath><clipPath id="w" clipPathUnits="userSpaceOnUse"><path d="M-1671.465 1176.87h1920v-4034.814h-1920Z"></path></clipPath><clipPath id="x" clipPathUnits="userSpaceOnUse"><path d="M-1708.585 1161.203h1920v-4034.815h-1920Z"></path></clipPath><clipPath id="y" clipPathUnits="userSpaceOnUse"><path d="M-1725.094 1172.581h1920v-4034.815h-1920Z"></path></clipPath><clipPath id="z" clipPathUnits="userSpaceOnUse"><path d="M-1734.157 1186.919h1920v-4034.815h-1920Z"></path></clipPath><clipPath id="A" clipPathUnits="userSpaceOnUse"><path d="M-1702.947 1215.663h1920v-4034.815h-1920Z"></path></clipPath><clipPath id="B" clipPathUnits="userSpaceOnUse"><path d="M-1706.83 1217.301h1920v-4034.815h-1920Z"></path></clipPath><clipPath id="C" clipPathUnits="userSpaceOnUse"><path d="M-1707.993 1218.766h1920V-2816.05h-1920Z"></path></clipPath><clipPath id="D" clipPathUnits="userSpaceOnUse"><path d="M-1708.772 1223.362h1920v-4034.815h-1920Z"></path></clipPath><clipPath id="E" clipPathUnits="userSpaceOnUse"><path d="M-1708.738 1222.938h1920v-4034.815h-1920Z"></path></clipPath><clipPath id="F" clipPathUnits="userSpaceOnUse"><path d="M-1708.857 1220.817h1920v-4034.815h-1920Z"></path></clipPath><clipPath id="G" clipPathUnits="userSpaceOnUse"><path d="M-1711.71 1221.172h1920v-4034.815h-1920Z"></path></clipPath><clipPath id="H" clipPathUnits="userSpaceOnUse"><path d="M-1711.6 1221.434h1920v-4034.815h-1920Z"></path></clipPath><clipPath id="I" clipPathUnits="userSpaceOnUse"><path d="M-1711.42 1218.54h1920v-4034.815h-1920Z"></path></clipPath><clipPath id="J" clipPathUnits="userSpaceOnUse"><path d="M-1711.13 1216.702h1920v-4034.815h-1920Z"></path></clipPath><clipPath id="K" clipPathUnits="userSpaceOnUse"><path d="M-1711.427 1219.03h1920v-4034.814h-1920Z"></path></clipPath><clipPath id="L" clipPathUnits="userSpaceOnUse"><path d="M-1711.327 1218.924h1920v-4034.815h-1920Z"></path></clipPath><clipPath id="M" clipPathUnits="userSpaceOnUse"><path d="M-1711.379 1219.313h1920v-4034.815h-1920Z"></path></clipPath><clipPath id="N" clipPathUnits="userSpaceOnUse"><path d="M-1711.484 1220.769h1920v-4034.815h-1920Z"></path></clipPath><clipPath id="O" clipPathUnits="userSpaceOnUse"><path d="M-1711.355 1219.994h1920V-2814.82h-1920Z"></path></clipPath><clipPath id="P" clipPathUnits="userSpaceOnUse"><path d="M-1710.707 1216.195h1920V-2818.62h-1920Z"></path></clipPath><clipPath id="Q" clipPathUnits="userSpaceOnUse"><path d="M-1711.093 1217.702h1920v-4034.815h-1920Z"></path></clipPath><clipPath id="R" clipPathUnits="userSpaceOnUse"><path d="M-1708.708 1211.75h1920v-4034.815h-1920Z"></path></clipPath><clipPath id="S" clipPathUnits="userSpaceOnUse"><path d="M-1710.706 1216.487h1920v-4034.815h-1920Z"></path></clipPath><clipPath id="T" clipPathUnits="userSpaceOnUse"><path d="M-1710.104 1214.52h1920v-4034.815h-1920Z"></path></clipPath><clipPath id="U" clipPathUnits="userSpaceOnUse"><path d="M-1711.07 1217.526h1920v-4034.815h-1920Z"></path></clipPath><clipPath id="V" clipPathUnits="userSpaceOnUse"><path d="M-1711.07 1217.526h1920v-4034.815h-1920Z"></path></clipPath><clipPath id="W" clipPathUnits="userSpaceOnUse"><path d="M-1709.359 1213.024h1920V-2821.79h-1920Z"></path></clipPath><clipPath id="X" clipPathUnits="userSpaceOnUse"><path d="M-1709.636 1214.123h1920v-4034.815h-1920Z"></path></clipPath><clipPath id="Y" clipPathUnits="userSpaceOnUse"><path d="M-1711.095 1221.387h1920v-4034.815h-1920Z"></path></clipPath><clipPath id="Z" clipPathUnits="userSpaceOnUse"><path d="M-1711.258 1220.17h1920v-4034.816h-1920Z"></path></clipPath><clipPath id="aa" clipPathUnits="userSpaceOnUse"><path d="M-1711.122 1220.817h1920v-4034.815h-1920Z"></path></clipPath><clipPath id="ab" clipPathUnits="userSpaceOnUse"><path d="M-1710.556 1217.073h1920v-4034.815h-1920Z"></path></clipPath><clipPath id="ac" clipPathUnits="userSpaceOnUse"><path d="M-1708.676 1211.615h1920V-2823.2h-1920Z"></path></clipPath><clipPath id="ad" clipPathUnits="userSpaceOnUse"><path d="M-1707.87 1210.328h1920v-4034.815h-1920Z"></path></clipPath><clipPath id="ae" clipPathUnits="userSpaceOnUse"><path d="M-1689.588 1197.644h1920v-4034.815h-1920Z"></path></clipPath><clipPath id="af" clipPathUnits="userSpaceOnUse"><path d="M-1695.178 1200.077h1920v-4034.815h-1920Z"></path></clipPath><clipPath id="ag" clipPathUnits="userSpaceOnUse"><path d="M-1704.501 1193.25h1920v-4034.815h-1920Z"></path></clipPath><clipPath id="ah" clipPathUnits="userSpaceOnUse"><path d="M-1694.004 1199.688h1920v-4034.815h-1920Z"></path></clipPath><clipPath id="ai" clipPathUnits="userSpaceOnUse"><path d="M-1698.662 1215.427h1920v-4034.815h-1920Z"></path></clipPath><clipPath id="aj" clipPathUnits="userSpaceOnUse"><path d="M-1704.075 1205.572h1920v-4034.815h-1920Z"></path></clipPath><clipPath id="ak" clipPathUnits="userSpaceOnUse"><path d="M-1704.883 1206.945h1920V-2827.87h-1920Z"></path></clipPath><clipPath id="al" clipPathUnits="userSpaceOnUse"><path d="M-1704.387 1205.946h1920V-2828.87h-1920Z"></path></clipPath><clipPath id="am" clipPathUnits="userSpaceOnUse"><path d="M-1704.371 1205.87h1920v-4034.814h-1920Z"></path></clipPath><clipPath id="an" clipPathUnits="userSpaceOnUse"><path d="M-1703.755 1205.255h1920V-2829.56h-1920Z"></path></clipPath><clipPath id="ao" clipPathUnits="userSpaceOnUse"><path d="M-1706.309 1208.038h1920v-4034.815h-1920Z"></path></clipPath><clipPath id="ap" clipPathUnits="userSpaceOnUse"><path d="M-1706.945 1209.476h1920V-2825.34h-1920Z"></path></clipPath><clipPath id="aq" clipPathUnits="userSpaceOnUse"><path d="M-1707.06 1209.637h1920v-4034.815h-1920Z"></path></clipPath><clipPath id="ar" clipPathUnits="userSpaceOnUse"><path d="M-1703.282 1204.866h1920v-4034.815h-1920Z"></path></clipPath><clipPath id="as" clipPathUnits="userSpaceOnUse"><path d="M-1706.213 1208.856h1920V-2825.96h-1920Z"></path></clipPath><clipPath id="at" clipPathUnits="userSpaceOnUse"><path d="M-1704.09 1206.267h1920v-4034.815h-1920Z"></path></clipPath><clipPath id="au" clipPathUnits="userSpaceOnUse"><path d="M-1705.168 1207.438h1920v-4034.815h-1920Z"></path></clipPath><clipPath id="av" clipPathUnits="userSpaceOnUse"><path d="M-1696.663 1201.142h1920v-4034.815h-1920Z"></path></clipPath><clipPath id="aw" clipPathUnits="userSpaceOnUse"><path d="M-1701.22 1215.575h1920V-2819.24h-1920Z"></path></clipPath></defs><path d="M0 0c.447.495.11.47.142.575C-.546-.316.069-.019 0 0" clip-path="url(#a)" style="fill:#009539;fill-opacity:1;fill-rule:nonzero;stroke:none" transform="matrix(.35278 0 0 -.35278 4.139 5.82)"></path><path d="M0 0c.206-.162.396-.34.596-.51C.322-.26.145-.101 0 0" clip-path="url(#b)" style="fill:#009539;fill-opacity:1;fill-rule:nonzero;stroke:none" transform="matrix(.35278 0 0 -.35278 23.211 4.4)"></path><path d="m0 0-.178-.008C.067-.115.181-.143 0 0" clip-path="url(#c)" style="fill:#009539;fill-opacity:1;fill-rule:nonzero;stroke:none" transform="matrix(.35278 0 0 -.35278 21.7 3.102)"></path><path d="M0 0a11 11 0 0 1-1.413-.512C-.946-.327-.473-.161 0 0" clip-path="url(#d)" style="fill:#009539;fill-opacity:1;fill-rule:nonzero;stroke:none" transform="matrix(.35278 0 0 -.35278 7.084 1.36)"></path><path d="m0 0 .254-.921C.256.522.125-.114 0 0" clip-path="url(#e)" style="fill:#009539;fill-opacity:1;fill-rule:nonzero;stroke:none" transform="matrix(.35278 0 0 -.35278 27.488 14.166)"></path><path d="m0 0-.047.251C-.087.265-.055.156 0 0" clip-path="url(#f)" style="fill:#009539;fill-opacity:1;fill-rule:nonzero;stroke:none" transform="matrix(.35278 0 0 -.35278 .54 19.2)"></path><path d="m0 0 .015.059C-.081-.135-.064-.102 0 0" clip-path="url(#g)" style="fill:#009539;fill-opacity:1;fill-rule:nonzero;stroke:none" transform="matrix(.35278 0 0 -.35278 22.883 16.549)"></path><path d="m0 0-.155-.021C-.823-.329-.521-.222 0 0" clip-path="url(#h)" style="fill:#009539;fill-opacity:1;fill-rule:nonzero;stroke:none" transform="matrix(.35278 0 0 -.35278 17.377 27.818)"></path><path d="m0 0 .076.018-.101.001z" clip-path="url(#i)" style="fill:#009539;fill-opacity:1;fill-rule:nonzero;stroke:none" transform="matrix(.35278 0 0 -.35278 11.973 4.747)"></path><path d="M0 0c.979.461 1.585.516 2.376.514q-.437.339-.89.637C.975.763.477.404 0 0" clip-path="url(#j)" style="fill:#009539;fill-opacity:1;fill-rule:nonzero;stroke:none" transform="matrix(.35278 0 0 -.35278 11.125 4.921)"></path><path d="M0 0a15 15 0 0 0-1.423-.887C-1.16-.583-.631-.278 0 0m39.865 1.033c-.685.008-1.01.378-1.789.852.509-.169 1.529-.516 1.789-.852m-5.979-46.861c.182-.229.43-.613.598-1.014-.184.333-.388.673-.598 1.014m-.13.216-.025.041.035-.046c-.001-.002-.008.004-.01.005m-6.502 7.327c-.786.509-1.128.9-1.691 1.204.215-.149.435-.29.644-.446-.183.089-.493.248-.762.404l-.098.057a3 3 0 0 0-.242.158q.043-.037.109-.084c-1.291.74-2.574 1.287-3.841 1.74.44-.047 1.191-.23 2.076-.557 1.061-.472.403-.321.595-.387.978-.471 1.386-.691 1.787-.837s.737-.324 1.442-.904c.523-.504-.103-.192-.019-.348m.136.424-.023.011c-.408.336-.264.215.023-.011M15.905-33.53c.262-.041.551-.098.797-.162-.044-.018.05-.085.122-.132q-.462.143-.919.294m-3.975 1.738c.056.03.119.06.181.089a4 4 0 0 0-.332.003c-.312.188-.622.387-.927.605a3.817 3.817 0 0 0 .801-.172c.022-.017.142-.182.425-.383.264-.197.598-.473.766-.584.058-.045.08-.075.083-.097q-.503.25-.997.539M.953-27.186l.016.211c.051-.473.02-.341-.016-.211m10.397-2.695q.706-.34 1.549-.688c-.475.061-.772.062-1.029.145l-.288.206-.4.136c-.109.126-.092.206.168.201m10.906-3.355c.275-.053.547-.105.831-.156-.284-.004-.568-.005-.854-.023.074.032.053.102.023.179m12.988-9.146q.165-.28.309-.542l-.101.104.188-.263.111-.207.225-.647c-.216.379-.464.815-.723 1.219-.057.14.042.059.199-.102-.053.07-.105.135-.147.189-.08.177-.09.245-.061.249m25.323 17.048c.023.563.001 1.122-.005 1.691-.716 2.147.131-2.251-1.079 1.291-.979 2.451.015 1.05-.199 1.965-.655 1.188-1.932 3.086-2.823 5.351.439-.674.709-1.246 1.053-1.912-.192.592-.435 1.164-.657 1.749.707-.894 1.185-1.746 1.436-2.147.254-.401.285-.356.043.507-.414-.051-1.21 1.577-2.18 3.112-.953 1.545-2.042 3.003-2.435 2.869l-.609 1.071c.207-.283.278-.299.482-.58-.565 1.07-.984 1.31-1.448 1.606-.471.292-1.02.615-2.025 1.749-.684.808-1.16 1.385-.566.957-.616.499-1.229.997-1.869 1.459-.37.34-.352.425-.119.266a43 43 0 0 1-2.506 1.943l.035.002c-.48.218-1.544.715-2.053.963-.698.586.428-.177.288.029-.591.303-1.171.621-1.768.904-.582.593.931-.078 2.052-.881-.552.844-.937 1.028-1.562 1.317-.634.28-1.502.66-3.169 1.807l1.704-.816c-.851.98-2.222 1.565-4.093 2.683.453-.301 3.568-2.504 1.537-1.708-.26.161-.567.337-.949.519-.388.168-.854.334-1.418.495.106.274-.981.643-2.326 1.128l.216.315c-1.517.39-1.453.185-2.373.286-1.644.508-1.93.855-2.278 1.178-2.71.665 1.771-.86-1.45-.228-2.233.563-3.888.602-6.622.47-1.6.163.284.22-.289.339-.478-.08-.952-.184-1.423-.301-.347-.002-.237.092-.181.139-1.191-.166-.093-.329-1.946-.569-.235-.218-1.193-.135-2.385-.157-1.188-.011-2.618-.119-3.693-.607-.579-.019.22.28.02.383-1.525-.471-2.174-.745-2.741-.976-.567-.243-1.065-.481-2.212-1.125a35 35 0 0 1-2.141-.641c1.612.402-.199-.693-1.621-1.801q.127.036.247.068c-.208-.112-.41-.236-.615-.352q.178.14.368.284L1.901.671C1.785.551 1.69.44 1.589.326A35 35 0 0 1 .404-.388c-.076.087.166.395.49.739.34.114.673.23 1.007.32.502.544.991 1.064.759 1.191-.15-.124-.458-.321-.796-.536.135.144.214.25.12.241-.104-.014-.335-.231-.702-.547l-.781.018L.446.815A36 36 0 0 1-2.867-1.14c-.623-.637-1.167-1.295-1.727-1.978-.078-.131-.254-.289-.474-.492-.204-.202-.534-.474-.654-.983a1.14 1.14 0 0 1 .088-.738c.109-.217.256-.356.389-.465.271-.219.519-.339.706-.518a44 44 0 0 0 2.355-2.463c-.9.621-.528-.136-.844-.317-.272.71-1.085 1.503-1.964 2.407-.123.146-.454.248-.928.846a1.7 1.7 0 0 0-.273.648c-.046.268-.018.533.054.766.122.362.33.61.52.782-.259-.231-.485-.539-.572-.803-.115-.315-.12-.521-.146-.582-.042-.143-.163.287-.051.689-.124-.377-.1-.899.077-1.274.17-.375.384-.583.545-.731.342-.295.526-.389.615-.471l1.51-1.543c-.285-.116.354-.78.906-1.646-.015.38.318.145.796-.347.238-.245.513-.555.799-.884l1.044-1.219c.423-.463.773-.776 1.135-.893.036-.09-.023-.167-.226-.128-.192.053-.534.181-1.058.772l-.424.507-.453.565c.065-.14.236-.391.381-.595q.224-.31.44-.571c.342-.409.692-.618.995-.745.158-.056.326-.104.517-.083.192.015.36.109.503.215.278.204.563.527.885.818.296.268.752.633 1.083.798l-.478-.389a1.6 1.6 0 0 1-.325-.363c.134.132.294.298.471.453.164.146.275.255.436.38.303.242.634.483.938.67.605.379 1.071.575.858.339l-.378-.252c1.265.829 3.295 1.912 5.148 2.631 1.844.736 3.465 1.199 3.651 1.471.043-.06-.281-.651-.433-.793a37 37 0 0 0 3.614 1.742q.862.087 1.712.127c.238-.439.614-.948-1.122-1.242.362-.004.766-.004 1.267.024.501-.004 1.099.042 1.858.107-.483.074-1.236.598-.551.652.939-.231 1.252-.342 1.627-.402.373-.058.802-.16 1.904-.477-.723.161.175.768 1.354.524-.199-.067-.021-.661-.451-.658.914.066 1.836.049 2.769.007-.394-.053.028-.55.516-.866-.241.23 2.369-.767 3.066-1.093-.354.208-.701.438-1.071.617 1.499-.654 2.311-.825 3.147-1.002a6.7 6.7 0 0 0 1.325-.376c.246-.095.51-.211.804-.358.285-.16.594-.358.939-.597-.418.121-1.274-.137.051-1.134.392-.104 1.329-.261 2.453-.698.079-.029.164-.071.245-.102.273-.23.548-.454.818-.695a33 33 0 0 0 1.953-1.894q-.284.174-.579.344c-1.274.774-2.672 1.466-3.618 1.975.849-.907.128-.386 1.527-1.573.175-.288-.049-.163-.376.065-.333.221-.764.553-.971.722a32 32 0 0 0 2.992-2.967c.072.196.707-.316 1.289-.889.597-.561 1.14-1.178 1.224-1.016a29 29 0 0 1-3.347 3.209c.065.201.743-.06 1.645-.708.906-.641 1.996-1.716 2.846-3.014.307-.736-.896.094-.965-.044.161-.123.628-.672 1.028-1.25.401-.578.747-1.175.762-1.324-.255.347-.537.675-.817 1.001.71-1.488 1.82-2.15 2.197-4.184.098-.334.161-.86.201-1.31.032-.452.075-.821.203-.848.073.708.544 1.232 1.028 1.396q.369-1.17.628-2.394l-.174.072c.035-.153.08-.306.105-.462l.143.047a27 27 0 0 0 .376-2.496c-.298-.285-.962 1.8-1.114.889.11-.026.319-.644.395-.906-.016-.745-.345.271-.177-1.318.429-.243.054-3.282.366-.746.079-.792.067-1.216.016-1.671l-.159-1.869c.195.385.467-.497.561-1.612a29 29 0 0 0-.347-2.078l-.06-.094c-.788-3.223-1.609-4.835-3.064-7.523-.199-.217-1.091-1.393-.9-.775-.167-.407-.262-.825-.801-1.598-1.312-1.287 1.147 1.743.02.841.133-.224-1.104-2.168-1.923-3.241.567.056 2.041 2.364 2.604 3.582.148-.092.142-.422-.007-.926a30.6 30.6 0 0 0-3.685-4.454 29 29 0 0 0-3.141-2.707c-.18-.122-.395-.264-.629-.413q.008.254.011.528c.155.065.252.092.385.133l.008-.055-.006.055.091.028-.117.219c-.041.384-.092.755-.142.125a.3.3 0 0 1 .027-.082c-.078-.086-.163-.164-.243-.247.015 2.167-.227 5.206-1.962 8.864q.023-.05.049-.097l.03.044c-.144.33-.297.546-.23.372-.141.286-.298.579-.458.872.344-.512.373-.011.214.583-.042.001-.07-.014-.48.574.046-.119.228-.471.352-.732.109-.271.165-.447-.007-.2-.503.795-.368.676-.565 1.093.058-.193-.128.045-.329.297-.164.19-.34.379-.414.401a32 32 0 0 1-2.955 3.764c-.198.219-.397.425-.596.629 0 .009-.006.024-.026.054l-.381.364c-.281.409.784-.621.343-.116.271-.231.567-.472.876-.751.289-.296.592-.63.9-1.025l.027-.222c.015.039-.37.543-.582.731.317-.28.875-1.262 1.265-1.535l-.362.609c.474-.533 1.159-1.129 1.615-1.904-.132.405-.122.165-.376.766.193-.542-1.394 1.817-1 1-.273.617-.673.901-1.118 1.645-.019-.052.152-.272-.349.291-.033.016-.1.063-.143.093l-.033.039.025-.033c-.027.019-.03.02.01-.012.113-.14.199-.259.224-.316-.332.203-1.168 1.053-1.484 1.304-.315.314.169-.091.022.107l-.509.337c.016.106-.809.885.032.241l-.724.62c-.404.393-1.043.84-1.449 1.09-.363.27-1.028.498-.65.365-.444.228-.866.497-1.329.683l-.002.026c-1.304.704-2.818 1.084-4.341 1.758-.473.126-.962.253-1.732.508l-.129.12c-.604.156-1.758.61-2.027.625-.281.205-.984.442-1.712.728-.373.128-.739.291-1.077.444l-.481.217-.107.05-.036.022-.064.042-.094-.064c-.138.084-.308.17-.456.249l-.49.281-.26.06c-.278.155-.45.352-.553.487-.074.045-.059.201.117.264.176.075.337-.078.44-.126.087-.084-.038.021-.226.105.707-.443.684-.426.925-.486.105-.028.242-.063.41-.125a3 3 0 0 0 .249-.103 7 7 0 0 0 .487-.228c.335-.099.57-.19.791-.297l-.083.025.134-.05c.139-.068.282-.139.44-.207l-.368.181c.252-.092.643-.207 1.027-.316l.132-.144.088-.025c.363-.153.314-.051.138.082a7 7 0 0 1 .519-.103c.259-.24 1.013-.25 1.386-.519.279.001 1.951-.445 2.198-.312.008-.025.119-.062-.09-.015.427-.117.853-.238 1.251-.267l.159-.16.978-.025c.561-.182.793-.27.203-.257 1.41-.115 1.1-.185 2.288-.301l-.078-.064c.409-.08 1.063-.246 1.283-.381.205-.118.588-.25 1.038-.503.455-.24 1.029-.483 1.583-.86 1.165-.657 2.322-1.668 3.137-2.539-.155.501.693-.876.892-.819.049-.144.238-.42-.046-.155.836-.893 1.083-1.471 1.69-2.074.03-.149-.211.172-.17.049.063-.075.253-.296.295-.421.04-.122-.137.124-.263.271.696-1.026.88-1.065 1.073-1.058.071-.158.109-.249.195-.412l.22-.441a3.7 3.7 0 0 1 .433-.646c.106-.366.362-1.044-.155.016.14-.271.577-1.321.969-2.239.05.004.104.035.143.017.037.14.06.354.081.499.04.312.052.536.033.62.05.091.101.724.106.882.049.617.081.964.089 1.319l.001.58c-.001.172-.001.358-.021.608L37.139-42c-.188.384-.053.822-.174 1.615l.019-.021c-.033.919-.123 1.108-.154 1.3-.05.189-.066.379-.225 1.274l-.071-.119c-.23.111-.266 1.588-.753 2.539l.09-.371c-.141.253-.223.648-.298 1.055a5.5 5.5 0 0 1-.305 1.072c-.041.123.116-.166.208-.32-.589 1.422-.182.133-.759 1.109-.051.213.294-.144-.1.518-.135.377-1.4 1.74-2.019 2.574.116-.206.227-.407-.155-.045-.529.587-1.366 1.743-2.087 2.03-.073.076-.096.111-.091.124-.26.172-.694.436-1.106.666-.425.21-.818.409-1.01.438-.177.278-1.074.658-1.928.887-.85.248-1.643.388-1.6.537-.613.146-1.229.267-1.846.374l.053.023c-1.181.224-1.612.196-2.037.182-.271.055-.068.059-.043.072-1.723.278-1.898.271-3.361.279l-.139.116c-.4-.012-2.469.423-4.14.618.018.008.056.021.191.012-.942.114-2.037.42-2.95.754-.919.323-1.662.652-2.054.618-.38.16-.778.29-1.149.476 1.423-.76-.295-.044.272-.395-.581.282-1.387.908-.697.533l.097-.077c.176.018-.265.258-.692.571-.446.288-.877.646-.821.682a12.4 12.4 0 0 0-1.719 1.589c-.396.423-.732.853-1.101 1.282l-.274.325c-.058.109-.058-.04-.081-.086l-.054-.199c-.069-.265-.146-.523-.21-.799a33.135 33.135 0 0 1-.832-4.922l.183.336a14 14 0 0 1-.093-1.056c-.051-.275-.137-.366-.088.391-.106-.393-.002-1.275.029-1.296-.122-1.48-.153.586-.169.132-.005-.207-.023-.412-.016-.619l.018.139c.057-.504.121-.549.109-1.459-.031-.577-.097-.298-.096-.525-.01.001-.011-.076.014-.348l.058-1.342.089.543c.082-.589.07-1.255.159-.63-.046-.23-.01-.653.029-1.171.05-.517.093-1.131.229-1.72l.331-1.638c.131-.458.227-.806.25-.944.157-.389.289-.78.421-1.196l.515-1.307c-.07.245-.003.433.302-.384-.169.101-.094-.304.145-.779.228-.48.525-1.07.606-1.435-.076.323.173-.258.523-.725.34-.474.659-.903.455-.44.394-.618-.06-.093.202-.591.498-.725 1.158-1.428 1.808-2.214.166-.194.324-.399.503-.589l.57-.548.586-.55c.206-.173.426-.332.643-.497.049.008-.205.272.195.031.267-.277.526-.572.824-.817.374-.219.444-.04 1.039-.568-.078.085-.194.213.053.068 1.791-1.147 3.88-1.867 5.997-2.305 2.122-.444 4.282-.634 6.404-.879-.574.096-.188.081.251.071-.285.025.01.087-.044.138l1.773-.186c.327.125 1.9-.032 2.087.085l-.561-.006c.413.073.059.175-.325.283.595-.014 1.182-.03 1.749-.054 2.486-.107 4.728-1.646 5.652-3.956.78-1.951.961-3.679.995-4.624a.8.8 0 0 1 .131-.393l-.056-.036-.398-.218c-.111.216-.156.463-.146.565.021.108 0 .046.099-.231a1.7 1.7 0 0 0-.059.357q-.014.15-.029.243c-.019.123-.039.171-.049.15q-.017-.034-.014-.267c.004-.095-.007-.126.016-.342a1.4 1.4 0 0 1 .181-.475l-1.072-.587c-2.065-1.087-4.571-1.946-6.399-2.252-.436-.165-1.104-.371-1.27-.486-4.144-.768-8.435-.583-12.597.499.049.031.065.072.026.129l-.906.156-.695.168-.183.06c.076.044.598-.03.17.168-.063-.063-.328-.056-.696.005-.84.289-1.674.605-2.495.967l-.129.071c-.046.016-.084.026-.125.038q-1.014.459-1.987.971a7 7 0 0 1-.25.16c-.08.029-.158.071-.237.111-4.148 2.262-7.724 5.263-10.639 9.061-4.842 6.307-6.963 13.391-5.836 21.369.704 4.98 1.902 9.783 4.497 14.152.052.086.108.168.16.254.672.709 1.377 1.317 1.411 1.585a23 23 0 0 1-.86-.865c.103.164.146.276.15.352A26 26 0 0 0-3.1-10.603a23.3 23.3 0 0 1-2.973-2.552c-.664-.341-1.354-.759-1.469-.511-.448-.888-1.37-1.757-2.271-2.89-.917-1.13-1.714-2.506-2.08-4.057-.384-.584.078.615-.189.332-.089-.84-.5-1.697-1.211-3.332l.017.209c-.885-2.343-1.384-4.067-1.878-5.877-.456-1.82-.885-3.747-1.086-6.598.095.137.18.275.286.41-.065-1.216-.143-1.473-.221-2.047.389-1.393.077 3.426.519 2.135-.171-.392-.23-1.128-.282-2.025-.031-.896.027-1.955.11-2.991.114-1.035.212-2.054.341-2.878.099-.829.135-1.478.059-1.777.449-1.831.177.606.624-1.215l-.046-.527.353-.392c.33-1.177.313-1.838.19-1.931-.074.292-.294.801-.403 1.105.237-1.623 1.636-4.217 1.816-4.729-.207.568-.444 1.121-.622 1.698.246-.592.551-1.176.826-1.788.265-.614.597-1.216.93-1.825l1.001-1.848 1.16-1.779.583-.885.655-.828 1.304-1.617a74 74 0 0 1 1.413-1.433c.464-.464.919-.911 1.422-1.28l-.188.346c1.483-1.165 1.977-1.733 2.601-2.234.301-.262.61-.535 1.053-.893l.782-.611 1.141-.703-.144.055c.772-.331 1.71-.899 2.719-1.402-.998.352 1.605-1.173.313-.685l1.164-.516c.322-.116.578-.197.78-.263.407-.13.612-.182.781-.21.338-.045.517-.047 1.849-.288l.515-.395c.466-.05.723-.056 1.108-.122.388-.059.89-.223 1.893-.409-1.678.21 1.193-.62-.705-.419a21 21 0 0 1 2.763-.786c.833-.115 1.566-.173 2.223-.226.655-.071 1.24-.073 1.781-.119a5.2 5.2 0 0 0 1.528-.362c2.003.463-3.71.575-2.59.645-.446.177-.033.185.662.233.693.032 1.659.014 2.325-.061.678-.041 1.253-.192 2.102-.377.423-.082.917-.187 1.521-.22.603-.011 1.319.012 2.187.099-.346-.031-.365-.077-.71-.108a8.1 8.1 0 0 1 1.955.232c.66.158 1.354.311 2.167.332.812.488 2.033.422 2.17.93-.505-.156-1.016-.284-1.526-.423l-1.553-.333c1.769.411 3.258 1.293 6.116 1.969-.188-.155-.979-.56-1.542-.788.871.116 1.56.584 2.448.763-.039-.262-.942-.623-2.067-.978-1.123-.367-2.469-.694-3.38-1.074.973-.014 3.472 1.24 2.664.498 1.164.981 3.335.947 5.32 2.355l-.032-.314c.33.184.976.635 1.596.933-.316-.298-.646-.573-.975-.863 1.611 1.079 3.453 1.446 4.939 2.602-3.312-2.037-.908-.187-2.417-.836 1.963 1.327 2.584 1.602 3.336 1.848.675.255 1.491.504 3.217 2.004-.672-.53-1.692-1.135-1.029-.475.83.59 1.892 1.414 2.454 1.732 2.499 2.527-.58-.182.378.997 1.096.603 1.125 1.329 2.055 2.545l.219-.174c1.377 1.473 1.372 1.82 1.405 2.062.018.257.023.453 1.124 1.872l-.549-1.474c.328.539.67 1.068.983 1.613q.034-.253.052-.501c.911 1.87 1.296 2.374 2.288 4.139-.4-.324-.299.446.393 2.064.628 1.042.005-.738.898 1.611-.053-.583-.049-1.27-.748-2.165.037-.139-.07-.586-.037-.731.731 1.117 1.349 3.029 1.616 3.905-.126-.331-.274-.727-.388-.916l.417 1.795.333 1.802c.237.528.223.063.169-.392.171.722.17 1.25.397 2.309.165-.326.409-.31.131-1.844a49 49 0 0 1 .527 3.468c.137.209.568 1.722.575 1.261.455 1.913.151 4.778.299 7.341-.041.133-.087.402-.14.948-.033 2.405.016 4.623-.923 7.374" clip-path="url(#k)" style="fill:#009539;fill-opacity:1;fill-rule:nonzero;stroke:none" transform="matrix(.35278 0 0 -.35278 5.73 2.263)"></path><path d="M0 0c.11-.092.224-.178.333-.272A3 3 0 0 1 0 0" clip-path="url(#l)" style="fill:#009539;fill-opacity:1;fill-rule:nonzero;stroke:none" transform="matrix(.35278 0 0 -.35278 22.51 3.79)"></path><path d="M0 0c.148.117.28.23.373.325C.239.204.124.107 0 0" clip-path="url(#m)" style="fill:#009539;fill-opacity:1;fill-rule:nonzero;stroke:none" transform="matrix(.35278 0 0 -.35278 22.545 25.37)"></path><path d="M0 0c.061.054.122.109.186.153A3 3 0 0 1 0 0" clip-path="url(#n)" style="fill:#009539;fill-opacity:1;fill-rule:nonzero;stroke:none" transform="matrix(.35278 0 0 -.35278 3.747 3.549)"></path><path d="M0 0c.156.027.217-.001.272-.031C.436.105.416.156 0 0" clip-path="url(#o)" style="fill:#009539;fill-opacity:1;fill-rule:nonzero;stroke:none" transform="matrix(.35278 0 0 -.35278 6.571 1.595)"></path><path d="M0 0a.2.2 0 0 1 .05-.084L.003.084Z" clip-path="url(#p)" style="fill:#009539;fill-opacity:1;fill-rule:nonzero;stroke:none" transform="matrix(.35278 0 0 -.35278 27.47 14.136)"></path><path d="M0 0c-.018.473 0 .742.031.924C-.04.94-.071.718 0 0" clip-path="url(#q)" style="fill:#009539;fill-opacity:1;fill-rule:nonzero;stroke:none" transform="matrix(.35278 0 0 -.35278 22.662 13.244)"></path><path d="m0 0 .503-.079 1.21-.061Z" clip-path="url(#r)" style="fill:#009539;fill-opacity:1;fill-rule:nonzero;stroke:none" transform="matrix(.35278 0 0 -.35278 12.51 24.344)"></path><path d="M0 0c-.044-.209-1.278-1.576-.041-.426C.028-.23 1.553 1.711 0 0" clip-path="url(#s)" style="fill:#009539;fill-opacity:1;fill-rule:nonzero;stroke:none" transform="matrix(.35278 0 0 -.35278 20.139 21.083)"></path><path d="M0 0c-1.175.554-1.741.903-1.404.298C.336-.893-.771.386.754-.792c.244-.083-.059.17-.368.416C.068-.147-.252.081 0 0" clip-path="url(#t)" style="fill:#009539;fill-opacity:1;fill-rule:nonzero;stroke:none" transform="matrix(.35278 0 0 -.35278 17.856 6.093)"></path><path d="m0 0 .611-.268C.276-.096.105-.037 0 0" clip-path="url(#u)" style="fill:#009539;fill-opacity:1;fill-rule:nonzero;stroke:none" transform="matrix(.35278 0 0 -.35278 17.856 6.093)"></path><path d="M0 0q.515.433 1.052.834A22 22 0 0 1 .285.389Z" clip-path="url(#v)" style="fill:#009539;fill-opacity:1;fill-rule:nonzero;stroke:none" transform="matrix(.35278 0 0 -.35278 3.94 7.258)"></path><path d="M0 0c-.241-.195-.696-.582-.931-.666l.485-.097c.14.259.295.506.446.763" clip-path="url(#w)" style="fill:#009539;fill-opacity:1;fill-rule:nonzero;stroke:none" transform="matrix(.35278 0 0 -.35278 4.845 6.295)"></path><path d="m0 0-.139-.044C.04-.223.37-.339 1.007-.625.681-.4.337-.21 0 0" clip-path="url(#x)" style="fill:#009539;fill-opacity:1;fill-rule:nonzero;stroke:none" transform="matrix(.35278 0 0 -.35278 17.94 .767)"></path><path d="M0 0c-.074.09-.156.172-.234.258.071-.231.131-.471.191-.708z" clip-path="url(#y)" style="fill:#009539;fill-opacity:1;fill-rule:nonzero;stroke:none" transform="matrix(.35278 0 0 -.35278 23.765 4.781)"></path><path d="M0 0c-.209.673-.569 1.42-.822 2.078C-.186.677-.352-.321 0 0" clip-path="url(#z)" style="fill:#009539;fill-opacity:1;fill-rule:nonzero;stroke:none" transform="matrix(.35278 0 0 -.35278 26.962 9.84)"></path><path d="M0 0c-.261.028-.171-.064-.211-.076C.221-.092-.008.023 0 0" clip-path="url(#A)" style="fill:#009539;fill-opacity:1;fill-rule:nonzero;stroke:none" transform="matrix(.35278 0 0 -.35278 15.952 19.98)"></path><path d="M0 0c.179-.13.336-.285.5-.436a7 7 0 0 1-.42.405z" clip-path="url(#B)" style="fill:#009539;fill-opacity:1;fill-rule:nonzero;stroke:none" transform="matrix(.35278 0 0 -.35278 17.322 20.558)"></path><path d="m0 0-.261.24c.455-.75.883-1.923.995-2.56C.787-1.89.295-.815.022-.126.015-.084.011-.041 0 0" clip-path="url(#C)" style="fill:#009539;fill-opacity:1;fill-rule:nonzero;stroke:none" transform="matrix(.35278 0 0 -.35278 17.732 21.074)"></path><path d="M0 0c.042.141.093-.476-.03.519L-.034.424C-.025.334-.011.21 0 0" clip-path="url(#D)" style="fill:#009539;fill-opacity:1;fill-rule:nonzero;stroke:none" transform="matrix(.35278 0 0 -.35278 18.007 22.696)"></path><path d="M0 0c-.053.437-.016-.291 0 0" clip-path="url(#E)" style="fill:#009539;fill-opacity:1;fill-rule:nonzero;stroke:none" transform="matrix(.35278 0 0 -.35278 17.995 22.546)"></path><path d="m0 0-.151.364c.083-.18.184-.849.217-.812z" clip-path="url(#F)" style="fill:#009539;fill-opacity:1;fill-rule:nonzero;stroke:none" transform="matrix(.35278 0 0 -.35278 18.037 21.798)"></path><path d="M0 0c-.032.037-.072-.214-.109-.261q.028-.23.046-.459c.024.236.018.686.063.72" clip-path="url(#G)" style="fill:#009539;fill-opacity:1;fill-rule:nonzero;stroke:none" transform="matrix(.35278 0 0 -.35278 19.043 21.923)"></path><path d="m0 0-.085.684C-.061.071-.033-.04 0 0" clip-path="url(#H)" style="fill:#009539;fill-opacity:1;fill-rule:nonzero;stroke:none" transform="matrix(.35278 0 0 -.35278 19.005 22.015)"></path><path d="M0 0c.046-.125.1-.25.14-.376l-.234.671Z" clip-path="url(#I)" style="fill:#009539;fill-opacity:1;fill-rule:nonzero;stroke:none" transform="matrix(.35278 0 0 -.35278 18.94 20.995)"></path><path d="M0 0c-.149.457-.323.832-.475 1.168.138-.365.267-.763.366-1.293C.022-.392-.115.289 0 0" clip-path="url(#J)" style="fill:#009539;fill-opacity:1;fill-rule:nonzero;stroke:none" transform="matrix(.35278 0 0 -.35278 18.838 20.346)"></path><path d="m0 0-.049-.282.036-.269C-.002-.496.033-.388 0 0" clip-path="url(#K)" style="fill:#009539;fill-opacity:1;fill-rule:nonzero;stroke:none" transform="matrix(.35278 0 0 -.35278 18.943 21.168)"></path><path d="M0 0a3 3 0 0 1-.031.191C-.022.153-.012.083 0 0" clip-path="url(#L)" style="fill:#009539;fill-opacity:1;fill-rule:nonzero;stroke:none" transform="matrix(.35278 0 0 -.35278 18.908 21.13)"></path><path d="M0 0q-.03.238-.052.388.02-.142.051-.398z" clip-path="url(#M)" style="fill:#009539;fill-opacity:1;fill-rule:nonzero;stroke:none" transform="matrix(.35278 0 0 -.35278 18.926 21.267)"></path><path d="m0 0-.129.774.044-.726C-.063.064-.042.198 0 0" clip-path="url(#N)" style="fill:#009539;fill-opacity:1;fill-rule:nonzero;stroke:none" transform="matrix(.35278 0 0 -.35278 18.963 21.78)"></path><path d="M0 0q-.006.134-.023.269L-.069.35C-.044.234-.017.117 0 0" clip-path="url(#O)" style="fill:#009539;fill-opacity:1;fill-rule:nonzero;stroke:none" transform="matrix(.35278 0 0 -.35278 18.918 21.508)"></path><path d="M0 0c-.131.29-.229.621-.382.98.143-.392.25-.812.375-1.201C.036-.269.137-.427 0 0" clip-path="url(#P)" style="fill:#009539;fill-opacity:1;fill-rule:nonzero;stroke:none" transform="matrix(.35278 0 0 -.35278 18.69 20.167)"></path><path d="m0 0-.022.067C-.019.023-.013-.011 0 0" clip-path="url(#Q)" style="fill:#009539;fill-opacity:1;fill-rule:nonzero;stroke:none" transform="matrix(.35278 0 0 -.35278 18.826 20.699)"></path><path d="m0 0 .018-.06.02-.005z" clip-path="url(#R)" style="fill:#009539;fill-opacity:1;fill-rule:nonzero;stroke:none" transform="matrix(.35278 0 0 -.35278 17.984 18.6)"></path><path d="M0 0c.083-.302.14-.481.211-.647a14 14 0 0 1-.216.718C-.025.093-.034.095 0 0" clip-path="url(#S)" style="fill:#009539;fill-opacity:1;fill-rule:nonzero;stroke:none" transform="matrix(.35278 0 0 -.35278 18.689 20.27)"></path><path d="M0 0c-.025.163-.131.472-.172.518C-.125.36-.052.19 0 0" clip-path="url(#T)" style="fill:#009539;fill-opacity:1;fill-rule:nonzero;stroke:none" transform="matrix(.35278 0 0 -.35278 18.477 19.576)"></path><path d="m0 0 .015-.045C.008.06.002.045 0 0" clip-path="url(#U)" style="fill:#009539;fill-opacity:1;fill-rule:nonzero;stroke:none" transform="matrix(.35278 0 0 -.35278 18.817 20.637)"></path><path d="M0 0c-.051.155-.103.273-.152.392l.154-.5A1 1 0 0 0 0 0" clip-path="url(#V)" style="fill:#009539;fill-opacity:1;fill-rule:nonzero;stroke:none" transform="matrix(.35278 0 0 -.35278 18.817 20.637)"></path><path d="M0 0q.076-.127.139-.261c-.13.312-.223.534-.372.96-.265.419-.337.495-.38.509L.058-.084z" clip-path="url(#W)" style="fill:#009539;fill-opacity:1;fill-rule:nonzero;stroke:none" transform="matrix(.35278 0 0 -.35278 18.214 19.049)"></path><path d="M0 0c.356-.783.295-.531.524-.997C.006.302.712-1.355.398-.391l.291-.701-.221.695.006-.032.003-.007-.002.001C.487-.496.488-.517.469-.45l-.012.026a.2.2 0 0 0-.053.047c-.14.382.001.07.053-.047.006-.003.013-.011.018-.011l-.001.006C.286.001.065.416-.138.837-.029.56.134.226.403-.377.238-.194-.094.431 0 0" clip-path="url(#X)" style="fill:#009539;fill-opacity:1;fill-rule:nonzero;stroke:none" transform="matrix(.35278 0 0 -.35278 18.311 19.436)"></path><path d="M0 0c.006.043.012.042.018.045C.003.134-.005.167 0 0" clip-path="url(#Y)" style="fill:#009539;fill-opacity:1;fill-rule:nonzero;stroke:none" transform="matrix(.35278 0 0 -.35278 18.826 21.999)"></path><path d="m0 0 .016.046C.011.066.005.044 0 0" clip-path="url(#Z)" style="fill:#009539;fill-opacity:1;fill-rule:nonzero;stroke:none" transform="matrix(.35278 0 0 -.35278 18.884 21.57)"></path><path d="M0 0c.017-.1.055-.181.061-.509-.013-.284-.042 0-.07-.016.034-.194.088-.687.109-.068l-.017.098c.014.44.033.979.053 1.142C.081.494.042.34 0 0" clip-path="url(#aa)" style="fill:#009539;fill-opacity:1;fill-rule:nonzero;stroke:none" transform="matrix(.35278 0 0 -.35278 18.836 21.798)"></path><path d="m0 0 .037.041C.179-.601.199-.45.253-.522.141-.151.049.225-.09.586-.054.392-.019.198 0 0" clip-path="url(#ab)" style="fill:#009539;fill-opacity:1;fill-rule:nonzero;stroke:none" transform="matrix(.35278 0 0 -.35278 18.636 20.477)"></path><path d="m0 0 .16-.087-.461.513Z" clip-path="url(#ac)" style="fill:#009539;fill-opacity:1;fill-rule:nonzero;stroke:none" transform="matrix(.35278 0 0 -.35278 17.973 18.551)"></path><path d="m0 0 .099-.002-.267.304Z" clip-path="url(#ad)" style="fill:#009539;fill-opacity:1;fill-rule:nonzero;stroke:none" transform="matrix(.35278 0 0 -.35278 17.689 18.098)"></path><path d="m0 0-.118.13c-.336.09-.583.19-.791.279C-.465.175.029-.106 0 0" clip-path="url(#ae)" style="fill:#009539;fill-opacity:1;fill-rule:nonzero;stroke:none" transform="matrix(.35278 0 0 -.35278 11.239 13.623)"></path><path d="M0 0c.471-.222.839-.424.99-.412C.601-.226.281-.106 0 0" clip-path="url(#af)" style="fill:#009539;fill-opacity:1;fill-rule:nonzero;stroke:none" transform="matrix(.35278 0 0 -.35278 13.21 14.481)"></path><path d="M0 0c-.178.119-.26.161-.266.141C-.085.018.023-.045 0 0" clip-path="url(#ag)" style="fill:#009539;fill-opacity:1;fill-rule:nonzero;stroke:none" transform="matrix(.35278 0 0 -.35278 16.5 12.073)"></path><path d="m0 0 .209-.088c.302-.077.605-.164.965-.301A4.3 4.3 0 0 1 0 0" clip-path="url(#ah)" style="fill:#009539;fill-opacity:1;fill-rule:nonzero;stroke:none" transform="matrix(.35278 0 0 -.35278 12.797 14.344)"></path><path d="m0 0-.58.012C-.476.003-.301-.002 0 0" clip-path="url(#ai)" style="fill:#009539;fill-opacity:1;fill-rule:nonzero;stroke:none" transform="matrix(.35278 0 0 -.35278 14.44 19.896)"></path><path d="M0 0c.231-.226.043-.03 0 0" clip-path="url(#aj)" style="fill:#009539;fill-opacity:1;fill-rule:nonzero;stroke:none" transform="matrix(.35278 0 0 -.35278 16.35 16.42)"></path><path d="M0 0c-.052.045-.094.075-.115.068A.3.3 0 0 0 0 0" clip-path="url(#ak)" style="fill:#009539;fill-opacity:1;fill-rule:nonzero;stroke:none" transform="matrix(.35278 0 0 -.35278 16.635 16.904)"></path><path d="m0 0-.271.312z" clip-path="url(#al)" style="fill:#009539;fill-opacity:1;fill-rule:nonzero;stroke:none" transform="matrix(.35278 0 0 -.35278 16.46 16.552)"></path><path d="m0 0 .192-.207C.232-.226.213-.194 0 0" clip-path="url(#am)" style="fill:#009539;fill-opacity:1;fill-rule:nonzero;stroke:none" transform="matrix(.35278 0 0 -.35278 16.454 16.525)"></path><path d="m0 0 .361-.379Q.3-.303.32-.317z" clip-path="url(#an)" style="fill:#009539;fill-opacity:1;fill-rule:nonzero;stroke:none" transform="matrix(.35278 0 0 -.35278 16.237 16.308)"></path><path d="M0 0c-.15.178-.293.361-.455.527.227-.248.273-.367.368-.508C-.079.046-.134.172 0 0" clip-path="url(#ao)" style="fill:#009539;fill-opacity:1;fill-rule:nonzero;stroke:none" transform="matrix(.35278 0 0 -.35278 17.138 17.29)"></path><path d="M0 0c.179-.048-.149.354-.5.731-.038-.098.267-.408.548-.802Z" clip-path="url(#ap)" style="fill:#009539;fill-opacity:1;fill-rule:nonzero;stroke:none" transform="matrix(.35278 0 0 -.35278 17.362 17.797)"></path><path d="m0 0 .255-.367C.325-.388.16-.212 0 0" clip-path="url(#aq)" style="fill:#009539;fill-opacity:1;fill-rule:nonzero;stroke:none" transform="matrix(.35278 0 0 -.35278 17.402 17.854)"></path><path d="M0 0c.149-.18.175-.027.244-.145C.522-.227-.992.801 0 0" clip-path="url(#ar)" style="fill:#009539;fill-opacity:1;fill-rule:nonzero;stroke:none" transform="matrix(.35278 0 0 -.35278 16.07 16.17)"></path><path d="m0 0 .254-.36-.024.196Z" clip-path="url(#as)" style="fill:#009539;fill-opacity:1;fill-rule:nonzero;stroke:none" transform="matrix(.35278 0 0 -.35278 17.104 17.578)"></path><path d="M0 0c.176-.186.346-.377.501-.581.005.02.076-.047.16-.133C.365-.345.01.035 0 0" clip-path="url(#at)" style="fill:#009539;fill-opacity:1;fill-rule:nonzero;stroke:none" transform="matrix(.35278 0 0 -.35278 16.355 16.665)"></path><path d="M0 0c-.088.1-.278.316-.416.457C-.257.269-.102.093 0 0" clip-path="url(#au)" style="fill:#009539;fill-opacity:1;fill-rule:nonzero;stroke:none" transform="matrix(.35278 0 0 -.35278 16.735 17.078)"></path><path d="M0 0c-.092 0 .11-.106.404-.212.198-.048.481-.176.379-.089C.528-.187.26-.101 0 0" clip-path="url(#av)" style="fill:#009539;fill-opacity:1;fill-rule:nonzero;stroke:none" transform="matrix(.35278 0 0 -.35278 13.735 14.857)"></path><path d="m0 0-.226-.021.634-.059Z" clip-path="url(#aw)" style="fill:#009539;fill-opacity:1;fill-rule:nonzero;stroke:none" transform="matrix(.35278 0 0 -.35278 15.342 19.948)"></path></svg>