<svg xmlns="http://www.w3.org/2000/svg" xmlns:svg="http://www.w3.org/2000/svg" width="41.205681mm" height="294.44968mm" viewBox="0 0 41.205682 294.44969" id="svg1"><defs id="defs1"><clipPath clipPathUnits="userSpaceOnUse" id="clipPath4049"><path d="m 962.506,3545.313 c -9.961,0 -18.037,-8.074 -18.037,-18.035 v 0 -467.84 c 0,-9.96 8.076,-18.036 18.037,-18.036 v 0 h 888.929 c 9.961,0 18.035,8.076 18.035,18.036 v 0 467.84 c 0,9.961 -8.074,18.035 -18.035,18.035 v 0 z" transform="translate(-1531.005,-3430.7999)" id="path4049"></path></clipPath><clipPath clipPathUnits="userSpaceOnUse" id="clipPath266"><path d="M 0,4034.815 H 1920 V 0 H 0 Z" transform="translate(-1815.9426,-3274.7755)" id="path266"></path></clipPath><clipPath clipPathUnits="userSpaceOnUse" id="clipPath4051"><path d="m 962.506,3545.313 c -9.961,0 -18.037,-8.074 -18.037,-18.035 v 0 -467.84 c 0,-9.96 8.076,-18.036 18.037,-18.036 v 0 h 888.929 c 9.961,0 18.035,8.076 18.035,18.036 v 0 467.84 c 0,9.961 -8.074,18.035 -18.035,18.035 v 0 z" transform="translate(-1803.5035,-3273.1302)" id="path4051"></path></clipPath><clipPath clipPathUnits="userSpaceOnUse" id="clipPath4049-2"><path d="m 962.506,3545.313 c -9.961,0 -18.037,-8.074 -18.037,-18.035 v 0 -467.84 c 0,-9.96 8.076,-18.036 18.037,-18.036 v 0 h 888.929 c 9.961,0 18.035,8.076 18.035,18.036 v 0 467.84 c 0,9.961 -8.074,18.035 -18.035,18.035 v 0 z" transform="translate(-1531.005,-3430.7999)" id="path4049-3"></path></clipPath><clipPath clipPathUnits="userSpaceOnUse" id="clipPath3924"><path d="M 0,4034.815 H 1920 V 0 H 0 Z" transform="matrix(1.3333333,0,0,-1.3333333,0,5379.76)" id="path3924"></path></clipPath><clipPath clipPathUnits="userSpaceOnUse" id="clipPath3904"><path d="m 993.205,3112.539 h 509.784 v -32.904 H 993.205 Z" transform="translate(-1010.8464,-3101.1957)" id="path3904"></path></clipPath><clipPath clipPathUnits="userSpaceOnUse" id="clipPath3905"><path d="m 993.205,3112.539 h 509.784 v -32.904 H 993.205 Z" transform="translate(-1063.2801,-3101.1957)" id="path3905"></path></clipPath><clipPath clipPathUnits="userSpaceOnUse" id="clipPath3906"><path d="m 993.205,3112.539 h 509.784 v -32.904 H 993.205 Z" transform="translate(-1115.7139,-3101.1957)" id="path3906"></path></clipPath><clipPath clipPathUnits="userSpaceOnUse" id="clipPath3907"><path d="m 993.205,3112.539 h 509.784 v -32.904 H 993.205 Z" transform="translate(-1168.1478,-3101.1957)" id="path3907"></path></clipPath><clipPath clipPathUnits="userSpaceOnUse" id="clipPath3908"><path d="m 993.205,3112.539 h 509.784 v -32.904 H 993.205 Z" transform="translate(-1220.5815,-3101.1957)" id="path3908"></path></clipPath><clipPath clipPathUnits="userSpaceOnUse" id="clipPath3909"><path d="m 993.205,3112.539 h 509.784 v -32.904 H 993.205 Z" transform="translate(-1273.0155,-3101.1957)" id="path3909"></path></clipPath><clipPath clipPathUnits="userSpaceOnUse" id="clipPath3910"><path d="m 993.205,3112.539 h 509.784 v -32.904 H 993.205 Z" transform="translate(-1325.4492,-3101.1957)" id="path3910"></path></clipPath><clipPath clipPathUnits="userSpaceOnUse" id="clipPath3911"><path d="m 993.205,3112.539 h 509.784 v -32.904 H 993.205 Z" transform="translate(-1377.8832,-3101.1957)" id="path3911"></path></clipPath><clipPath clipPathUnits="userSpaceOnUse" id="clipPath3912"><path d="m 993.205,3112.539 h 509.784 v -32.904 H 993.205 Z" transform="translate(-1430.3169,-3101.1957)" id="path3912"></path></clipPath><clipPath clipPathUnits="userSpaceOnUse" id="clipPath3913"><path d="m 993.205,3112.539 h 509.784 v -32.904 H 993.205 Z" transform="translate(-1482.7507,-3101.1957)" id="path3913"></path></clipPath><clipPath clipPathUnits="userSpaceOnUse" id="clipPath4047"><path d="M 0,4034.815 H 1920 V 0 H 0 Z" transform="matrix(1.3333333,0,0,-1.3333333,0,5379.76)" id="path4047"></path></clipPath><clipPath clipPathUnits="userSpaceOnUse" id="clipPath3927"><path d="M 65.547,2141.23 H 189.61 V 1303.406 H 65.547 Z" transform="translate(-84.379202,-2129.1205)" id="path3927"></path></clipPath><clipPath clipPathUnits="userSpaceOnUse" id="clipPath3928"><path d="M 65.547,2141.23 H 189.61 V 1303.406 H 65.547 Z" transform="translate(-126.64731,-2129.1205)" id="path3928"></path></clipPath><clipPath clipPathUnits="userSpaceOnUse" id="clipPath3929"><path d="M 65.547,2141.23 H 189.61 V 1303.406 H 65.547 Z" transform="translate(-168.91551,-2129.1205)" id="path3929"></path></clipPath><clipPath clipPathUnits="userSpaceOnUse" id="clipPath3930"><path d="M 65.547,2141.23 H 189.61 V 1303.406 H 65.547 Z" transform="translate(-84.379202,-2086.8873)" id="path3930"></path></clipPath><clipPath clipPathUnits="userSpaceOnUse" id="clipPath3931"><path d="M 65.547,2141.23 H 189.61 V 1303.406 H 65.547 Z" transform="translate(-126.64731,-2086.8873)" id="path3931"></path></clipPath><clipPath clipPathUnits="userSpaceOnUse" id="clipPath3932"><path d="M 65.547,2141.23 H 189.61 V 1303.406 H 65.547 Z" transform="translate(-168.91551,-2086.8873)" id="path3932"></path></clipPath><clipPath clipPathUnits="userSpaceOnUse" id="clipPath3933"><path d="M 65.547,2141.23 H 189.61 V 1303.406 H 65.547 Z" transform="translate(-84.379202,-2044.6543)" id="path3933"></path></clipPath><clipPath clipPathUnits="userSpaceOnUse" id="clipPath3934"><path d="M 65.547,2141.23 H 189.61 V 1303.406 H 65.547 Z" transform="translate(-126.64731,-2044.6543)" id="path3934"></path></clipPath><clipPath clipPathUnits="userSpaceOnUse" id="clipPath3935"><path d="M 65.547,2141.23 H 189.61 V 1303.406 H 65.547 Z" transform="translate(-168.91551,-2044.6543)" id="path3935"></path></clipPath><clipPath clipPathUnits="userSpaceOnUse" id="clipPath3936"><path d="M 65.547,2141.23 H 189.61 V 1303.406 H 65.547 Z" transform="translate(-84.379202,-2002.4214)" id="path3936"></path></clipPath><clipPath clipPathUnits="userSpaceOnUse" id="clipPath3937"><path d="M 65.547,2141.23 H 189.61 V 1303.406 H 65.547 Z" transform="translate(-126.64731,-2002.4214)" id="path3937"></path></clipPath><clipPath clipPathUnits="userSpaceOnUse" id="clipPath3938"><path d="M 65.547,2141.23 H 189.61 V 1303.406 H 65.547 Z" transform="translate(-168.91551,-2002.4214)" id="path3938"></path></clipPath><clipPath clipPathUnits="userSpaceOnUse" id="clipPath3939"><path d="M 65.547,2141.23 H 189.61 V 1303.406 H 65.547 Z" transform="translate(-84.379202,-1960.1881)" id="path3939"></path></clipPath><clipPath clipPathUnits="userSpaceOnUse" id="clipPath3940"><path d="M 65.547,2141.23 H 189.61 V 1303.406 H 65.547 Z" transform="translate(-126.64731,-1960.1881)" id="path3940"></path></clipPath><clipPath clipPathUnits="userSpaceOnUse" id="clipPath3941"><path d="M 65.547,2141.23 H 189.61 V 1303.406 H 65.547 Z" transform="translate(-168.91551,-1960.1881)" id="path3941"></path></clipPath><clipPath clipPathUnits="userSpaceOnUse" id="clipPath3942"><path d="M 65.547,2141.23 H 189.61 V 1303.406 H 65.547 Z" transform="translate(-84.379202,-1917.9552)" id="path3942"></path></clipPath><clipPath clipPathUnits="userSpaceOnUse" id="clipPath3943"><path d="M 65.547,2141.23 H 189.61 V 1303.406 H 65.547 Z" transform="translate(-126.64731,-1917.9552)" id="path3943"></path></clipPath><clipPath clipPathUnits="userSpaceOnUse" id="clipPath3944"><path d="M 65.547,2141.23 H 189.61 V 1303.406 H 65.547 Z" transform="translate(-168.91551,-1917.9552)" id="path3944"></path></clipPath><clipPath clipPathUnits="userSpaceOnUse" id="clipPath3945"><path d="M 65.547,2141.23 H 189.61 V 1303.406 H 65.547 Z" transform="translate(-84.379202,-1875.7221)" id="path3945"></path></clipPath><clipPath clipPathUnits="userSpaceOnUse" id="clipPath3946"><path d="M 65.547,2141.23 H 189.61 V 1303.406 H 65.547 Z" transform="translate(-126.64731,-1875.7221)" id="path3946"></path></clipPath><clipPath clipPathUnits="userSpaceOnUse" id="clipPath3947"><path d="M 65.547,2141.23 H 189.61 V 1303.406 H 65.547 Z" transform="translate(-168.91551,-1875.7221)" id="path3947"></path></clipPath><clipPath clipPathUnits="userSpaceOnUse" id="clipPath3948"><path d="M 65.547,2141.23 H 189.61 V 1303.406 H 65.547 Z" transform="translate(-84.379202,-1833.489)" id="path3948"></path></clipPath><clipPath clipPathUnits="userSpaceOnUse" id="clipPath3949"><path d="M 65.547,2141.23 H 189.61 V 1303.406 H 65.547 Z" transform="translate(-126.64731,-1833.489)" id="path3949"></path></clipPath><clipPath clipPathUnits="userSpaceOnUse" id="clipPath3950"><path d="M 65.547,2141.23 H 189.61 V 1303.406 H 65.547 Z" transform="translate(-168.91551,-1833.489)" id="path3950"></path></clipPath><clipPath clipPathUnits="userSpaceOnUse" id="clipPath3951"><path d="M 65.547,2141.23 H 189.61 V 1303.406 H 65.547 Z" transform="translate(-84.379202,-1791.256)" id="path3951"></path></clipPath><clipPath clipPathUnits="userSpaceOnUse" id="clipPath3952"><path d="M 65.547,2141.23 H 189.61 V 1303.406 H 65.547 Z" transform="translate(-126.64731,-1791.256)" id="path3952"></path></clipPath><clipPath clipPathUnits="userSpaceOnUse" id="clipPath3953"><path d="M 65.547,2141.23 H 189.61 V 1303.406 H 65.547 Z" transform="translate(-168.91551,-1791.256)" id="path3953"></path></clipPath><clipPath clipPathUnits="userSpaceOnUse" id="clipPath3954"><path d="M 65.547,2141.23 H 189.61 V 1303.406 H 65.547 Z" transform="translate(-84.379202,-1749.0229)" id="path3954"></path></clipPath><clipPath clipPathUnits="userSpaceOnUse" id="clipPath3955"><path d="M 65.547,2141.23 H 189.61 V 1303.406 H 65.547 Z" transform="translate(-126.64731,-1749.0229)" id="path3955"></path></clipPath><clipPath clipPathUnits="userSpaceOnUse" id="clipPath3956"><path d="M 65.547,2141.23 H 189.61 V 1303.406 H 65.547 Z" transform="translate(-168.91551,-1749.0229)" id="path3956"></path></clipPath><clipPath clipPathUnits="userSpaceOnUse" id="clipPath3957"><path d="M 65.547,2141.23 H 189.61 V 1303.406 H 65.547 Z" transform="translate(-84.379202,-1706.79)" id="path3957"></path></clipPath><clipPath clipPathUnits="userSpaceOnUse" id="clipPath3958"><path d="M 65.547,2141.23 H 189.61 V 1303.406 H 65.547 Z" transform="translate(-126.64731,-1706.79)" id="path3958"></path></clipPath><clipPath clipPathUnits="userSpaceOnUse" id="clipPath3959"><path d="M 65.547,2141.23 H 189.61 V 1303.406 H 65.547 Z" transform="translate(-168.91551,-1706.79)" id="path3959"></path></clipPath><clipPath clipPathUnits="userSpaceOnUse" id="clipPath3960"><path d="M 65.547,2141.23 H 189.61 V 1303.406 H 65.547 Z" transform="translate(-84.379202,-1664.5569)" id="path3960"></path></clipPath><clipPath clipPathUnits="userSpaceOnUse" id="clipPath3961"><path d="M 65.547,2141.23 H 189.61 V 1303.406 H 65.547 Z" transform="translate(-126.64731,-1664.5569)" id="path3961"></path></clipPath><clipPath clipPathUnits="userSpaceOnUse" id="clipPath3962"><path d="M 65.547,2141.23 H 189.61 V 1303.406 H 65.547 Z" transform="translate(-168.91551,-1664.5569)" id="path3962"></path></clipPath><clipPath clipPathUnits="userSpaceOnUse" id="clipPath3963"><path d="M 65.547,2141.23 H 189.61 V 1303.406 H 65.547 Z" transform="translate(-84.379202,-1622.3238)" id="path3963"></path></clipPath><clipPath clipPathUnits="userSpaceOnUse" id="clipPath3964"><path d="M 65.547,2141.23 H 189.61 V 1303.406 H 65.547 Z" transform="translate(-126.64731,-1622.3238)" id="path3964"></path></clipPath><clipPath clipPathUnits="userSpaceOnUse" id="clipPath3965"><path d="M 65.547,2141.23 H 189.61 V 1303.406 H 65.547 Z" transform="translate(-168.91551,-1622.3238)" id="path3965"></path></clipPath><clipPath clipPathUnits="userSpaceOnUse" id="clipPath3966"><path d="M 65.547,2141.23 H 189.61 V 1303.406 H 65.547 Z" transform="translate(-84.379202,-1580.0907)" id="path3966"></path></clipPath><clipPath clipPathUnits="userSpaceOnUse" id="clipPath3967"><path d="M 65.547,2141.23 H 189.61 V 1303.406 H 65.547 Z" transform="translate(-126.64731,-1580.0907)" id="path3967"></path></clipPath><clipPath clipPathUnits="userSpaceOnUse" id="clipPath3968"><path d="M 65.547,2141.23 H 189.61 V 1303.406 H 65.547 Z" transform="translate(-168.91551,-1580.0907)" id="path3968"></path></clipPath><clipPath clipPathUnits="userSpaceOnUse" id="clipPath3969"><path d="M 65.547,2141.23 H 189.61 V 1303.406 H 65.547 Z" transform="translate(-84.379202,-1537.8577)" id="path3969"></path></clipPath><clipPath clipPathUnits="userSpaceOnUse" id="clipPath3970"><path d="M 65.547,2141.23 H 189.61 V 1303.406 H 65.547 Z" transform="translate(-126.64731,-1537.8577)" id="path3970"></path></clipPath><clipPath clipPathUnits="userSpaceOnUse" id="clipPath3971"><path d="M 65.547,2141.23 H 189.61 V 1303.406 H 65.547 Z" transform="translate(-168.91551,-1537.8577)" id="path3971"></path></clipPath><clipPath clipPathUnits="userSpaceOnUse" id="clipPath3972"><path d="M 65.547,2141.23 H 189.61 V 1303.406 H 65.547 Z" transform="translate(-84.379202,-1495.6246)" id="path3972"></path></clipPath><clipPath clipPathUnits="userSpaceOnUse" id="clipPath3973"><path d="M 65.547,2141.23 H 189.61 V 1303.406 H 65.547 Z" transform="translate(-126.64731,-1495.6246)" id="path3973"></path></clipPath><clipPath clipPathUnits="userSpaceOnUse" id="clipPath3974"><path d="M 65.547,2141.23 H 189.61 V 1303.406 H 65.547 Z" transform="translate(-168.91551,-1495.6246)" id="path3974"></path></clipPath><clipPath clipPathUnits="userSpaceOnUse" id="clipPath3975"><path d="M 65.547,2141.23 H 189.61 V 1303.406 H 65.547 Z" transform="translate(-84.379202,-1453.3917)" id="path3975"></path></clipPath><clipPath clipPathUnits="userSpaceOnUse" id="clipPath3976"><path d="M 65.547,2141.23 H 189.61 V 1303.406 H 65.547 Z" transform="translate(-126.64731,-1453.3917)" id="path3976"></path></clipPath><clipPath clipPathUnits="userSpaceOnUse" id="clipPath3977"><path d="M 65.547,2141.23 H 189.61 V 1303.406 H 65.547 Z" transform="translate(-168.91551,-1453.3917)" id="path3977"></path></clipPath><clipPath clipPathUnits="userSpaceOnUse" id="clipPath3978"><path d="M 65.547,2141.23 H 189.61 V 1303.406 H 65.547 Z" transform="translate(-84.379202,-1411.1586)" id="path3978"></path></clipPath><clipPath clipPathUnits="userSpaceOnUse" id="clipPath3979"><path d="M 65.547,2141.23 H 189.61 V 1303.406 H 65.547 Z" transform="translate(-126.64731,-1411.1586)" id="path3979"></path></clipPath><clipPath clipPathUnits="userSpaceOnUse" id="clipPath3980"><path d="M 65.547,2141.23 H 189.61 V 1303.406 H 65.547 Z" transform="translate(-168.91551,-1411.1586)" id="path3980"></path></clipPath><clipPath clipPathUnits="userSpaceOnUse" id="clipPath3981"><path d="M 65.547,2141.23 H 189.61 V 1303.406 H 65.547 Z" transform="translate(-84.379202,-1368.9255)" id="path3981"></path></clipPath><clipPath clipPathUnits="userSpaceOnUse" id="clipPath3982"><path d="M 65.547,2141.23 H 189.61 V 1303.406 H 65.547 Z" transform="translate(-126.64731,-1368.9255)" id="path3982"></path></clipPath><clipPath clipPathUnits="userSpaceOnUse" id="clipPath3983"><path d="M 65.547,2141.23 H 189.61 V 1303.406 H 65.547 Z" transform="translate(-168.91551,-1368.9255)" id="path3983"></path></clipPath><clipPath clipPathUnits="userSpaceOnUse" id="clipPath3984"><path d="M 65.547,2141.23 H 189.61 V 1303.406 H 65.547 Z" transform="translate(-84.379202,-1326.6924)" id="path3984"></path></clipPath><clipPath clipPathUnits="userSpaceOnUse" id="clipPath3985"><path d="M 65.547,2141.23 H 189.61 V 1303.406 H 65.547 Z" transform="translate(-126.64731,-1326.6924)" id="path3985"></path></clipPath><clipPath clipPathUnits="userSpaceOnUse" id="clipPath3986"><path d="M 65.547,2141.23 H 189.61 V 1303.406 H 65.547 Z" transform="translate(-168.91551,-1326.6924)" id="path3986"></path></clipPath></defs><g id="layer1" transform="translate(-1.5874952,73.025021)"><g opacity="0.5" id="g4046" clip-path="url(#clipPath4047)" transform="matrix(0.26458333,0,0,0.26458333,-21.536029,-741.04152)"><path d="m 0,0 c 0,0 -4.579,-2.048 -8.796,-6.808 -4.218,-4.76 -5.724,-9.158 -5.724,-9.158 0,0 -8.555,9.76 -1.566,18.195 6.988,8.435 29.521,9.881 29.521,9.881 0,0 -1.566,-19.581 -6.265,-26.027 -4.227,-5.799 -8.194,-6.206 -11.387,-6.206 -3.194,0 -6.327,1.325 -6.327,1.325 0,0 -0.637,2.613 3.615,9.942 C -2.676,-1.528 0,0 0,0" style="fill:#16392c;fill-opacity:1;fill-rule:nonzero;stroke:none" transform="matrix(1.3333333,0,0,-1.3333333,112.5056,2540.9328)" clip-path="url(#clipPath3927)" id="path3987"></path><path d="m 0,0 c 0,0 -4.579,-2.048 -8.796,-6.808 -4.218,-4.76 -5.724,-9.158 -5.724,-9.158 0,0 -8.555,9.76 -1.566,18.195 6.988,8.435 29.521,9.881 29.521,9.881 0,0 -1.566,-19.581 -6.265,-26.027 -4.227,-5.799 -8.194,-6.206 -11.387,-6.206 -3.194,0 -6.327,1.325 -6.327,1.325 0,0 -0.637,2.613 3.615,9.942 C -2.676,-1.528 0,0 0,0" style="fill:#16392c;fill-opacity:1;fill-rule:nonzero;stroke:none" transform="matrix(1.3333333,0,0,-1.3333333,168.86307,2540.9328)" clip-path="url(#clipPath3928)" id="path3988"></path><path d="m 0,0 c 0,0 -4.579,-2.048 -8.796,-6.808 -4.218,-4.76 -5.724,-9.158 -5.724,-9.158 0,0 -8.555,9.76 -1.566,18.195 6.988,8.435 29.521,9.881 29.521,9.881 0,0 -1.566,-19.581 -6.265,-26.027 -4.227,-5.799 -8.194,-6.206 -11.387,-6.206 -3.194,0 -6.327,1.325 -6.327,1.325 0,0 -0.637,2.613 3.615,9.942 C -2.676,-1.528 0,0 0,0" style="fill:#16392c;fill-opacity:1;fill-rule:nonzero;stroke:none" transform="matrix(1.3333333,0,0,-1.3333333,225.22067,2540.9328)" clip-path="url(#clipPath3929)" id="path3989"></path><path d="m 0,0 c 0,0 -4.579,-2.048 -8.796,-6.808 -4.218,-4.76 -5.724,-9.158 -5.724,-9.158 0,0 -8.555,9.76 -1.566,18.195 6.988,8.435 29.521,9.881 29.521,9.881 0,0 -1.566,-19.581 -6.265,-26.027 -4.227,-5.799 -8.194,-6.206 -11.387,-6.206 -3.194,0 -6.327,1.326 -6.327,1.326 0,0 -0.637,2.612 3.615,9.941 C -2.676,-1.528 0,0 0,0" style="fill:#16392c;fill-opacity:1;fill-rule:nonzero;stroke:none" transform="matrix(1.3333333,0,0,-1.3333333,112.5056,2597.2437)" clip-path="url(#clipPath3930)" id="path3990"></path><path d="m 0,0 c 0,0 -4.579,-2.048 -8.796,-6.808 -4.218,-4.76 -5.724,-9.158 -5.724,-9.158 0,0 -8.555,9.76 -1.566,18.195 6.988,8.435 29.521,9.881 29.521,9.881 0,0 -1.566,-19.581 -6.265,-26.027 -4.227,-5.799 -8.194,-6.206 -11.387,-6.206 -3.194,0 -6.327,1.326 -6.327,1.326 0,0 -0.637,2.612 3.615,9.941 C -2.676,-1.528 0,0 0,0" style="fill:#16392c;fill-opacity:1;fill-rule:nonzero;stroke:none" transform="matrix(1.3333333,0,0,-1.3333333,168.86307,2597.2437)" clip-path="url(#clipPath3931)" id="path3991"></path><path d="m 0,0 c 0,0 -4.579,-2.048 -8.796,-6.808 -4.218,-4.76 -5.724,-9.158 -5.724,-9.158 0,0 -8.555,9.76 -1.566,18.195 6.988,8.435 29.521,9.881 29.521,9.881 0,0 -1.566,-19.581 -6.265,-26.027 -4.227,-5.799 -8.194,-6.206 -11.387,-6.206 -3.194,0 -6.327,1.326 -6.327,1.326 0,0 -0.637,2.612 3.615,9.941 C -2.676,-1.528 0,0 0,0" style="fill:#16392c;fill-opacity:1;fill-rule:nonzero;stroke:none" transform="matrix(1.3333333,0,0,-1.3333333,225.22067,2597.2437)" clip-path="url(#clipPath3932)" id="path3992"></path><path d="m 0,0 c 0,0 -4.579,-2.048 -8.796,-6.808 -4.218,-4.76 -5.724,-9.158 -5.724,-9.158 0,0 -8.555,9.76 -1.566,18.195 6.988,8.435 29.521,9.881 29.521,9.881 0,0 -1.566,-19.581 -6.265,-26.027 -4.227,-5.799 -8.194,-6.206 -11.387,-6.206 -3.194,0 -6.327,1.325 -6.327,1.325 0,0 -0.637,2.613 3.615,9.941 C -2.676,-1.528 0,0 0,0" style="fill:#16392c;fill-opacity:1;fill-rule:nonzero;stroke:none" transform="matrix(1.3333333,0,0,-1.3333333,112.5056,2653.5543)" clip-path="url(#clipPath3933)" id="path3993"></path><path d="m 0,0 c 0,0 -4.579,-2.048 -8.796,-6.808 -4.218,-4.76 -5.724,-9.158 -5.724,-9.158 0,0 -8.555,9.76 -1.566,18.195 6.988,8.435 29.521,9.881 29.521,9.881 0,0 -1.566,-19.581 -6.265,-26.027 -4.227,-5.799 -8.194,-6.206 -11.387,-6.206 -3.194,0 -6.327,1.325 -6.327,1.325 0,0 -0.637,2.613 3.615,9.941 C -2.676,-1.528 0,0 0,0" style="fill:#16392c;fill-opacity:1;fill-rule:nonzero;stroke:none" transform="matrix(1.3333333,0,0,-1.3333333,168.86307,2653.5543)" clip-path="url(#clipPath3934)" id="path3994"></path><path d="m 0,0 c 0,0 -4.579,-2.048 -8.796,-6.808 -4.218,-4.76 -5.724,-9.158 -5.724,-9.158 0,0 -8.555,9.76 -1.566,18.195 6.988,8.435 29.521,9.881 29.521,9.881 0,0 -1.566,-19.581 -6.265,-26.027 -4.227,-5.799 -8.194,-6.206 -11.387,-6.206 -3.194,0 -6.327,1.325 -6.327,1.325 0,0 -0.637,2.613 3.615,9.941 C -2.676,-1.528 0,0 0,0" style="fill:#16392c;fill-opacity:1;fill-rule:nonzero;stroke:none" transform="matrix(1.3333333,0,0,-1.3333333,225.22067,2653.5543)" clip-path="url(#clipPath3935)" id="path3995"></path><path d="m 0,0 c 0,0 -4.579,-2.048 -8.796,-6.808 -4.218,-4.76 -5.724,-9.158 -5.724,-9.158 0,0 -8.555,9.76 -1.566,18.195 6.988,8.435 29.521,9.881 29.521,9.881 0,0 -1.566,-19.581 -6.265,-26.027 -4.227,-5.799 -8.194,-6.206 -11.387,-6.206 -3.194,0 -6.327,1.325 -6.327,1.325 0,0 -0.637,2.613 3.615,9.941 C -2.676,-1.528 0,0 0,0" style="fill:#16392c;fill-opacity:1;fill-rule:nonzero;stroke:none" transform="matrix(1.3333333,0,0,-1.3333333,112.5056,2709.8649)" clip-path="url(#clipPath3936)" id="path3996"></path><path d="m 0,0 c 0,0 -4.579,-2.048 -8.796,-6.808 -4.218,-4.76 -5.724,-9.158 -5.724,-9.158 0,0 -8.555,9.76 -1.566,18.195 6.988,8.435 29.521,9.881 29.521,9.881 0,0 -1.566,-19.581 -6.265,-26.027 -4.227,-5.799 -8.194,-6.206 -11.387,-6.206 -3.194,0 -6.327,1.325 -6.327,1.325 0,0 -0.637,2.613 3.615,9.941 C -2.676,-1.528 0,0 0,0" style="fill:#16392c;fill-opacity:1;fill-rule:nonzero;stroke:none" transform="matrix(1.3333333,0,0,-1.3333333,168.86307,2709.8649)" clip-path="url(#clipPath3937)" id="path3997"></path><path d="m 0,0 c 0,0 -4.579,-2.048 -8.796,-6.808 -4.218,-4.76 -5.724,-9.158 -5.724,-9.158 0,0 -8.555,9.76 -1.566,18.195 6.988,8.435 29.521,9.881 29.521,9.881 0,0 -1.566,-19.581 -6.265,-26.027 -4.227,-5.799 -8.194,-6.206 -11.387,-6.206 -3.194,0 -6.327,1.325 -6.327,1.325 0,0 -0.637,2.613 3.615,9.941 C -2.676,-1.528 0,0 0,0" style="fill:#16392c;fill-opacity:1;fill-rule:nonzero;stroke:none" transform="matrix(1.3333333,0,0,-1.3333333,225.22067,2709.8649)" clip-path="url(#clipPath3938)" id="path3998"></path><path d="m 0,0 c 0,0 -4.579,-2.048 -8.796,-6.808 -4.218,-4.76 -5.724,-9.158 -5.724,-9.158 0,0 -8.555,9.76 -1.566,18.195 6.988,8.435 29.521,9.881 29.521,9.881 0,0 -1.566,-19.581 -6.265,-26.027 -4.227,-5.799 -8.194,-6.206 -11.387,-6.206 -3.194,0 -6.327,1.326 -6.327,1.326 0,0 -0.637,2.612 3.615,9.941 C -2.676,-1.528 0,0 0,0" style="fill:#16392c;fill-opacity:1;fill-rule:nonzero;stroke:none" transform="matrix(1.3333333,0,0,-1.3333333,112.5056,2766.1759)" clip-path="url(#clipPath3939)" id="path3999"></path><path d="m 0,0 c 0,0 -4.579,-2.048 -8.796,-6.808 -4.218,-4.76 -5.724,-9.158 -5.724,-9.158 0,0 -8.555,9.76 -1.566,18.195 6.988,8.435 29.521,9.881 29.521,9.881 0,0 -1.566,-19.581 -6.265,-26.027 -4.227,-5.799 -8.194,-6.206 -11.387,-6.206 -3.194,0 -6.327,1.326 -6.327,1.326 0,0 -0.637,2.612 3.615,9.941 C -2.676,-1.528 0,0 0,0" style="fill:#16392c;fill-opacity:1;fill-rule:nonzero;stroke:none" transform="matrix(1.3333333,0,0,-1.3333333,168.86307,2766.1759)" clip-path="url(#clipPath3940)" id="path4000"></path><path d="m 0,0 c 0,0 -4.579,-2.048 -8.796,-6.808 -4.218,-4.76 -5.724,-9.158 -5.724,-9.158 0,0 -8.555,9.76 -1.566,18.195 6.988,8.435 29.521,9.881 29.521,9.881 0,0 -1.566,-19.581 -6.265,-26.027 -4.227,-5.799 -8.194,-6.206 -11.387,-6.206 -3.194,0 -6.327,1.326 -6.327,1.326 0,0 -0.637,2.612 3.615,9.941 C -2.676,-1.528 0,0 0,0" style="fill:#16392c;fill-opacity:1;fill-rule:nonzero;stroke:none" transform="matrix(1.3333333,0,0,-1.3333333,225.22067,2766.1759)" clip-path="url(#clipPath3941)" id="path4001"></path><path d="m 0,0 c 0,0 -4.579,-2.048 -8.796,-6.808 -4.218,-4.76 -5.724,-9.158 -5.724,-9.158 0,0 -8.555,9.76 -1.566,18.195 6.988,8.435 29.521,9.881 29.521,9.881 0,0 -1.566,-19.581 -6.265,-26.027 -4.227,-5.799 -8.194,-6.206 -11.387,-6.206 -3.194,0 -6.327,1.325 -6.327,1.325 0,0 -0.637,2.613 3.615,9.941 C -2.676,-1.528 0,0 0,0" style="fill:#16392c;fill-opacity:1;fill-rule:nonzero;stroke:none" transform="matrix(1.3333333,0,0,-1.3333333,112.5056,2822.4865)" clip-path="url(#clipPath3942)" id="path4002"></path><path d="m 0,0 c 0,0 -4.579,-2.048 -8.796,-6.808 -4.218,-4.76 -5.724,-9.158 -5.724,-9.158 0,0 -8.555,9.76 -1.566,18.195 6.988,8.435 29.521,9.881 29.521,9.881 0,0 -1.566,-19.581 -6.265,-26.027 -4.227,-5.799 -8.194,-6.206 -11.387,-6.206 -3.194,0 -6.327,1.325 -6.327,1.325 0,0 -0.637,2.613 3.615,9.941 C -2.676,-1.528 0,0 0,0" style="fill:#16392c;fill-opacity:1;fill-rule:nonzero;stroke:none" transform="matrix(1.3333333,0,0,-1.3333333,168.86307,2822.4865)" clip-path="url(#clipPath3943)" id="path4003"></path><path d="m 0,0 c 0,0 -4.579,-2.048 -8.796,-6.808 -4.218,-4.76 -5.724,-9.158 -5.724,-9.158 0,0 -8.555,9.76 -1.566,18.195 6.988,8.435 29.521,9.881 29.521,9.881 0,0 -1.566,-19.581 -6.265,-26.027 -4.227,-5.799 -8.194,-6.206 -11.387,-6.206 -3.194,0 -6.327,1.325 -6.327,1.325 0,0 -0.637,2.613 3.615,9.941 C -2.676,-1.528 0,0 0,0" style="fill:#16392c;fill-opacity:1;fill-rule:nonzero;stroke:none" transform="matrix(1.3333333,0,0,-1.3333333,225.22067,2822.4865)" clip-path="url(#clipPath3944)" id="path4004"></path><path d="m 0,0 c 0,0 -4.579,-2.048 -8.796,-6.808 -4.218,-4.76 -5.724,-9.158 -5.724,-9.158 0,0 -8.555,9.76 -1.566,18.195 6.988,8.435 29.521,9.881 29.521,9.881 0,0 -1.566,-19.581 -6.265,-26.027 -4.227,-5.799 -8.194,-6.206 -11.387,-6.206 -3.194,0 -6.327,1.325 -6.327,1.325 0,0 -0.637,2.613 3.615,9.941 C -2.676,-1.528 0,0 0,0" style="fill:#16392c;fill-opacity:1;fill-rule:nonzero;stroke:none" transform="matrix(1.3333333,0,0,-1.3333333,112.5056,2878.7973)" clip-path="url(#clipPath3945)" id="path4005"></path><path d="m 0,0 c 0,0 -4.579,-2.048 -8.796,-6.808 -4.218,-4.76 -5.724,-9.158 -5.724,-9.158 0,0 -8.555,9.76 -1.566,18.195 6.988,8.435 29.521,9.881 29.521,9.881 0,0 -1.566,-19.581 -6.265,-26.027 -4.227,-5.799 -8.194,-6.206 -11.387,-6.206 -3.194,0 -6.327,1.325 -6.327,1.325 0,0 -0.637,2.613 3.615,9.941 C -2.676,-1.528 0,0 0,0" style="fill:#16392c;fill-opacity:1;fill-rule:nonzero;stroke:none" transform="matrix(1.3333333,0,0,-1.3333333,168.86307,2878.7973)" clip-path="url(#clipPath3946)" id="path4006"></path><path d="m 0,0 c 0,0 -4.579,-2.048 -8.796,-6.808 -4.218,-4.76 -5.724,-9.158 -5.724,-9.158 0,0 -8.555,9.76 -1.566,18.195 6.988,8.435 29.521,9.881 29.521,9.881 0,0 -1.566,-19.581 -6.265,-26.027 -4.227,-5.799 -8.194,-6.206 -11.387,-6.206 -3.194,0 -6.327,1.325 -6.327,1.325 0,0 -0.637,2.613 3.615,9.941 C -2.676,-1.528 0,0 0,0" style="fill:#16392c;fill-opacity:1;fill-rule:nonzero;stroke:none" transform="matrix(1.3333333,0,0,-1.3333333,225.22067,2878.7973)" clip-path="url(#clipPath3947)" id="path4007"></path><path d="m 0,0 c 0,0 -4.579,-2.048 -8.796,-6.808 -4.218,-4.76 -5.724,-9.158 -5.724,-9.158 0,0 -8.555,9.76 -1.566,18.195 6.988,8.435 29.521,9.881 29.521,9.881 0,0 -1.566,-19.581 -6.265,-26.027 -4.227,-5.799 -8.194,-6.206 -11.387,-6.206 -3.194,0 -6.327,1.325 -6.327,1.325 0,0 -0.637,2.613 3.615,9.941 C -2.676,-1.528 0,0 0,0" style="fill:#16392c;fill-opacity:1;fill-rule:nonzero;stroke:none" transform="matrix(1.3333333,0,0,-1.3333333,112.5056,2935.108)" clip-path="url(#clipPath3948)" id="path4008"></path><path d="m 0,0 c 0,0 -4.579,-2.048 -8.796,-6.808 -4.218,-4.76 -5.724,-9.158 -5.724,-9.158 0,0 -8.555,9.76 -1.566,18.195 6.988,8.435 29.521,9.881 29.521,9.881 0,0 -1.566,-19.581 -6.265,-26.027 -4.227,-5.799 -8.194,-6.206 -11.387,-6.206 -3.194,0 -6.327,1.325 -6.327,1.325 0,0 -0.637,2.613 3.615,9.941 C -2.676,-1.528 0,0 0,0" style="fill:#16392c;fill-opacity:1;fill-rule:nonzero;stroke:none" transform="matrix(1.3333333,0,0,-1.3333333,168.86307,2935.108)" clip-path="url(#clipPath3949)" id="path4009"></path><path d="m 0,0 c 0,0 -4.579,-2.048 -8.796,-6.808 -4.218,-4.76 -5.724,-9.158 -5.724,-9.158 0,0 -8.555,9.76 -1.566,18.195 6.988,8.435 29.521,9.881 29.521,9.881 0,0 -1.566,-19.581 -6.265,-26.027 -4.227,-5.799 -8.194,-6.206 -11.387,-6.206 -3.194,0 -6.327,1.325 -6.327,1.325 0,0 -0.637,2.613 3.615,9.941 C -2.676,-1.528 0,0 0,0" style="fill:#16392c;fill-opacity:1;fill-rule:nonzero;stroke:none" transform="matrix(1.3333333,0,0,-1.3333333,225.22067,2935.108)" clip-path="url(#clipPath3950)" id="path4010"></path><path d="m 0,0 c 0,0 -4.579,-2.048 -8.796,-6.808 -4.218,-4.76 -5.724,-9.158 -5.724,-9.158 0,0 -8.555,9.76 -1.566,18.195 6.988,8.435 29.521,9.881 29.521,9.881 0,0 -1.566,-19.581 -6.265,-26.027 -4.227,-5.799 -8.194,-6.206 -11.387,-6.206 -3.194,0 -6.327,1.325 -6.327,1.325 0,0 -0.637,2.613 3.615,9.941 C -2.676,-1.528 0,0 0,0" style="fill:#16392c;fill-opacity:1;fill-rule:nonzero;stroke:none" transform="matrix(1.3333333,0,0,-1.3333333,112.5056,2991.4187)" clip-path="url(#clipPath3951)" id="path4011"></path><path d="m 0,0 c 0,0 -4.579,-2.048 -8.796,-6.808 -4.218,-4.76 -5.724,-9.158 -5.724,-9.158 0,0 -8.555,9.76 -1.566,18.195 6.988,8.435 29.521,9.881 29.521,9.881 0,0 -1.566,-19.581 -6.265,-26.027 -4.227,-5.799 -8.194,-6.206 -11.387,-6.206 -3.194,0 -6.327,1.325 -6.327,1.325 0,0 -0.637,2.613 3.615,9.941 C -2.676,-1.528 0,0 0,0" style="fill:#16392c;fill-opacity:1;fill-rule:nonzero;stroke:none" transform="matrix(1.3333333,0,0,-1.3333333,168.86307,2991.4187)" clip-path="url(#clipPath3952)" id="path4012"></path><path d="m 0,0 c 0,0 -4.579,-2.048 -8.796,-6.808 -4.218,-4.76 -5.724,-9.158 -5.724,-9.158 0,0 -8.555,9.76 -1.566,18.195 6.988,8.435 29.521,9.881 29.521,9.881 0,0 -1.566,-19.581 -6.265,-26.027 -4.227,-5.799 -8.194,-6.206 -11.387,-6.206 -3.194,0 -6.327,1.325 -6.327,1.325 0,0 -0.637,2.613 3.615,9.941 C -2.676,-1.528 0,0 0,0" style="fill:#16392c;fill-opacity:1;fill-rule:nonzero;stroke:none" transform="matrix(1.3333333,0,0,-1.3333333,225.22067,2991.4187)" clip-path="url(#clipPath3953)" id="path4013"></path><path d="m 0,0 c 0,0 -4.579,-2.048 -8.796,-6.808 -4.218,-4.76 -5.724,-9.158 -5.724,-9.158 0,0 -8.555,9.76 -1.566,18.195 6.988,8.435 29.521,9.881 29.521,9.881 0,0 -1.566,-19.581 -6.265,-26.027 -4.227,-5.799 -8.194,-6.206 -11.387,-6.206 -3.194,0 -6.327,1.325 -6.327,1.325 0,0 -0.637,2.613 3.615,9.941 C -2.676,-1.528 0,0 0,0" style="fill:#16392c;fill-opacity:1;fill-rule:nonzero;stroke:none" transform="matrix(1.3333333,0,0,-1.3333333,112.5056,3047.7295)" clip-path="url(#clipPath3954)" id="path4014"></path><path d="m 0,0 c 0,0 -4.579,-2.048 -8.796,-6.808 -4.218,-4.76 -5.724,-9.158 -5.724,-9.158 0,0 -8.555,9.76 -1.566,18.195 6.988,8.435 29.521,9.881 29.521,9.881 0,0 -1.566,-19.581 -6.265,-26.027 -4.227,-5.799 -8.194,-6.206 -11.387,-6.206 -3.194,0 -6.327,1.325 -6.327,1.325 0,0 -0.637,2.613 3.615,9.941 C -2.676,-1.528 0,0 0,0" style="fill:#16392c;fill-opacity:1;fill-rule:nonzero;stroke:none" transform="matrix(1.3333333,0,0,-1.3333333,168.86307,3047.7295)" clip-path="url(#clipPath3955)" id="path4015"></path><path d="m 0,0 c 0,0 -4.579,-2.048 -8.796,-6.808 -4.218,-4.76 -5.724,-9.158 -5.724,-9.158 0,0 -8.555,9.76 -1.566,18.195 6.988,8.435 29.521,9.881 29.521,9.881 0,0 -1.566,-19.581 -6.265,-26.027 -4.227,-5.799 -8.194,-6.206 -11.387,-6.206 -3.194,0 -6.327,1.325 -6.327,1.325 0,0 -0.637,2.613 3.615,9.941 C -2.676,-1.528 0,0 0,0" style="fill:#16392c;fill-opacity:1;fill-rule:nonzero;stroke:none" transform="matrix(1.3333333,0,0,-1.3333333,225.22067,3047.7295)" clip-path="url(#clipPath3956)" id="path4016"></path><path d="m 0,0 c 0,0 -4.579,-2.048 -8.796,-6.808 -4.218,-4.76 -5.724,-9.158 -5.724,-9.158 0,0 -8.555,9.76 -1.566,18.195 6.988,8.435 29.521,9.881 29.521,9.881 0,0 -1.566,-19.581 -6.265,-26.027 -4.227,-5.799 -8.194,-6.206 -11.387,-6.206 -3.194,0 -6.327,1.325 -6.327,1.325 0,0 -0.637,2.613 3.615,9.941 C -2.676,-1.528 0,0 0,0" style="fill:#16392c;fill-opacity:1;fill-rule:nonzero;stroke:none" transform="matrix(1.3333333,0,0,-1.3333333,112.5056,3104.0401)" clip-path="url(#clipPath3957)" id="path4017"></path><path d="m 0,0 c 0,0 -4.579,-2.048 -8.796,-6.808 -4.218,-4.76 -5.724,-9.158 -5.724,-9.158 0,0 -8.555,9.76 -1.566,18.195 6.988,8.435 29.521,9.881 29.521,9.881 0,0 -1.566,-19.581 -6.265,-26.027 -4.227,-5.799 -8.194,-6.206 -11.387,-6.206 -3.194,0 -6.327,1.325 -6.327,1.325 0,0 -0.637,2.613 3.615,9.941 C -2.676,-1.528 0,0 0,0" style="fill:#16392c;fill-opacity:1;fill-rule:nonzero;stroke:none" transform="matrix(1.3333333,0,0,-1.3333333,168.86307,3104.0401)" clip-path="url(#clipPath3958)" id="path4018"></path><path d="m 0,0 c 0,0 -4.579,-2.048 -8.796,-6.808 -4.218,-4.76 -5.724,-9.158 -5.724,-9.158 0,0 -8.555,9.76 -1.566,18.195 6.988,8.435 29.521,9.881 29.521,9.881 0,0 -1.566,-19.581 -6.265,-26.027 -4.227,-5.799 -8.194,-6.206 -11.387,-6.206 -3.194,0 -6.327,1.325 -6.327,1.325 0,0 -0.637,2.613 3.615,9.941 C -2.676,-1.528 0,0 0,0" style="fill:#16392c;fill-opacity:1;fill-rule:nonzero;stroke:none" transform="matrix(1.3333333,0,0,-1.3333333,225.22067,3104.0401)" clip-path="url(#clipPath3959)" id="path4019"></path><path d="m 0,0 c 0,0 -4.579,-2.048 -8.796,-6.808 -4.218,-4.76 -5.724,-9.158 -5.724,-9.158 0,0 -8.555,9.76 -1.566,18.195 6.988,8.435 29.521,9.881 29.521,9.881 0,0 -1.566,-19.581 -6.265,-26.027 -4.227,-5.799 -8.194,-6.206 -11.387,-6.206 -3.194,0 -6.327,1.325 -6.327,1.325 0,0 -0.637,2.613 3.615,9.941 C -2.676,-1.528 0,0 0,0" style="fill:#16392c;fill-opacity:1;fill-rule:nonzero;stroke:none" transform="matrix(1.3333333,0,0,-1.3333333,112.5056,3160.3508)" clip-path="url(#clipPath3960)" id="path4020"></path><path d="m 0,0 c 0,0 -4.579,-2.048 -8.796,-6.808 -4.218,-4.76 -5.724,-9.158 -5.724,-9.158 0,0 -8.555,9.76 -1.566,18.195 6.988,8.435 29.521,9.881 29.521,9.881 0,0 -1.566,-19.581 -6.265,-26.027 -4.227,-5.799 -8.194,-6.206 -11.387,-6.206 -3.194,0 -6.327,1.325 -6.327,1.325 0,0 -0.637,2.613 3.615,9.941 C -2.676,-1.528 0,0 0,0" style="fill:#16392c;fill-opacity:1;fill-rule:nonzero;stroke:none" transform="matrix(1.3333333,0,0,-1.3333333,168.86307,3160.3508)" clip-path="url(#clipPath3961)" id="path4021"></path><path d="m 0,0 c 0,0 -4.579,-2.048 -8.796,-6.808 -4.218,-4.76 -5.724,-9.158 -5.724,-9.158 0,0 -8.555,9.76 -1.566,18.195 6.988,8.435 29.521,9.881 29.521,9.881 0,0 -1.566,-19.581 -6.265,-26.027 -4.227,-5.799 -8.194,-6.206 -11.387,-6.206 -3.194,0 -6.327,1.325 -6.327,1.325 0,0 -0.637,2.613 3.615,9.941 C -2.676,-1.528 0,0 0,0" style="fill:#16392c;fill-opacity:1;fill-rule:nonzero;stroke:none" transform="matrix(1.3333333,0,0,-1.3333333,225.22067,3160.3508)" clip-path="url(#clipPath3962)" id="path4022"></path><path d="m 0,0 c 0,0 -4.579,-2.048 -8.796,-6.808 -4.218,-4.76 -5.724,-9.158 -5.724,-9.158 0,0 -8.555,9.76 -1.566,18.195 6.988,8.435 29.521,9.881 29.521,9.881 0,0 -1.566,-19.581 -6.265,-26.027 -4.227,-5.799 -8.194,-6.206 -11.387,-6.206 -3.194,0 -6.327,1.325 -6.327,1.325 0,0 -0.637,2.613 3.615,9.941 C -2.676,-1.528 0,0 0,0" style="fill:#16392c;fill-opacity:1;fill-rule:nonzero;stroke:none" transform="matrix(1.3333333,0,0,-1.3333333,112.5056,3216.6617)" clip-path="url(#clipPath3963)" id="path4023"></path><path d="m 0,0 c 0,0 -4.579,-2.048 -8.796,-6.808 -4.218,-4.76 -5.724,-9.158 -5.724,-9.158 0,0 -8.555,9.76 -1.566,18.195 6.988,8.435 29.521,9.881 29.521,9.881 0,0 -1.566,-19.581 -6.265,-26.027 -4.227,-5.799 -8.194,-6.206 -11.387,-6.206 -3.194,0 -6.327,1.325 -6.327,1.325 0,0 -0.637,2.613 3.615,9.941 C -2.676,-1.528 0,0 0,0" style="fill:#16392c;fill-opacity:1;fill-rule:nonzero;stroke:none" transform="matrix(1.3333333,0,0,-1.3333333,168.86307,3216.6617)" clip-path="url(#clipPath3964)" id="path4024"></path><path d="m 0,0 c 0,0 -4.579,-2.048 -8.796,-6.808 -4.218,-4.76 -5.724,-9.158 -5.724,-9.158 0,0 -8.555,9.76 -1.566,18.195 6.988,8.435 29.521,9.881 29.521,9.881 0,0 -1.566,-19.581 -6.265,-26.027 -4.227,-5.799 -8.194,-6.206 -11.387,-6.206 -3.194,0 -6.327,1.325 -6.327,1.325 0,0 -0.637,2.613 3.615,9.941 C -2.676,-1.528 0,0 0,0" style="fill:#16392c;fill-opacity:1;fill-rule:nonzero;stroke:none" transform="matrix(1.3333333,0,0,-1.3333333,225.22067,3216.6617)" clip-path="url(#clipPath3965)" id="path4025"></path><path d="m 0,0 c 0,0 -4.579,-2.048 -8.796,-6.808 -4.218,-4.76 -5.724,-9.158 -5.724,-9.158 0,0 -8.555,9.76 -1.566,18.195 6.988,8.435 29.521,9.881 29.521,9.881 0,0 -1.566,-19.581 -6.265,-26.027 -4.227,-5.799 -8.194,-6.206 -11.387,-6.206 -3.194,0 -6.327,1.325 -6.327,1.325 0,0 -0.637,2.613 3.615,9.941 C -2.676,-1.528 0,0 0,0" style="fill:#16392c;fill-opacity:1;fill-rule:nonzero;stroke:none" transform="matrix(1.3333333,0,0,-1.3333333,112.5056,3272.9724)" clip-path="url(#clipPath3966)" id="path4026"></path><path d="m 0,0 c 0,0 -4.579,-2.048 -8.796,-6.808 -4.218,-4.76 -5.724,-9.158 -5.724,-9.158 0,0 -8.555,9.76 -1.566,18.195 6.988,8.435 29.521,9.881 29.521,9.881 0,0 -1.566,-19.581 -6.265,-26.027 -4.227,-5.799 -8.194,-6.206 -11.387,-6.206 -3.194,0 -6.327,1.325 -6.327,1.325 0,0 -0.637,2.613 3.615,9.941 C -2.676,-1.528 0,0 0,0" style="fill:#16392c;fill-opacity:1;fill-rule:nonzero;stroke:none" transform="matrix(1.3333333,0,0,-1.3333333,168.86307,3272.9724)" clip-path="url(#clipPath3967)" id="path4027"></path><path d="m 0,0 c 0,0 -4.579,-2.048 -8.796,-6.808 -4.218,-4.76 -5.724,-9.158 -5.724,-9.158 0,0 -8.555,9.76 -1.566,18.195 6.988,8.435 29.521,9.881 29.521,9.881 0,0 -1.566,-19.581 -6.265,-26.027 -4.227,-5.799 -8.194,-6.206 -11.387,-6.206 -3.194,0 -6.327,1.325 -6.327,1.325 0,0 -0.637,2.613 3.615,9.941 C -2.676,-1.528 0,0 0,0" style="fill:#16392c;fill-opacity:1;fill-rule:nonzero;stroke:none" transform="matrix(1.3333333,0,0,-1.3333333,225.22067,3272.9724)" clip-path="url(#clipPath3968)" id="path4028"></path><path d="m 0,0 c 0,0 -4.579,-2.048 -8.796,-6.808 -4.218,-4.76 -5.724,-9.158 -5.724,-9.158 0,0 -8.555,9.76 -1.566,18.195 6.988,8.435 29.521,9.881 29.521,9.881 0,0 -1.566,-19.581 -6.265,-26.027 -4.227,-5.799 -8.194,-6.206 -11.387,-6.206 -3.194,0 -6.327,1.325 -6.327,1.325 0,0 -0.637,2.613 3.615,9.941 C -2.676,-1.528 0,0 0,0" style="fill:#16392c;fill-opacity:1;fill-rule:nonzero;stroke:none" transform="matrix(1.3333333,0,0,-1.3333333,112.5056,3329.2831)" clip-path="url(#clipPath3969)" id="path4029"></path><path d="m 0,0 c 0,0 -4.579,-2.048 -8.796,-6.808 -4.218,-4.76 -5.724,-9.158 -5.724,-9.158 0,0 -8.555,9.76 -1.566,18.195 6.988,8.435 29.521,9.881 29.521,9.881 0,0 -1.566,-19.581 -6.265,-26.027 -4.227,-5.799 -8.194,-6.206 -11.387,-6.206 -3.194,0 -6.327,1.325 -6.327,1.325 0,0 -0.637,2.613 3.615,9.941 C -2.676,-1.528 0,0 0,0" style="fill:#16392c;fill-opacity:1;fill-rule:nonzero;stroke:none" transform="matrix(1.3333333,0,0,-1.3333333,168.86307,3329.2831)" clip-path="url(#clipPath3970)" id="path4030"></path><path d="m 0,0 c 0,0 -4.579,-2.048 -8.796,-6.808 -4.218,-4.76 -5.724,-9.158 -5.724,-9.158 0,0 -8.555,9.76 -1.566,18.195 6.988,8.435 29.521,9.881 29.521,9.881 0,0 -1.566,-19.581 -6.265,-26.027 -4.227,-5.799 -8.194,-6.206 -11.387,-6.206 -3.194,0 -6.327,1.325 -6.327,1.325 0,0 -0.637,2.613 3.615,9.941 C -2.676,-1.528 0,0 0,0" style="fill:#16392c;fill-opacity:1;fill-rule:nonzero;stroke:none" transform="matrix(1.3333333,0,0,-1.3333333,225.22067,3329.2831)" clip-path="url(#clipPath3971)" id="path4031"></path><path d="m 0,0 c 0,0 -4.579,-2.048 -8.796,-6.808 -4.218,-4.76 -5.724,-9.158 -5.724,-9.158 0,0 -8.555,9.76 -1.566,18.195 6.988,8.435 29.521,9.881 29.521,9.881 0,0 -1.566,-19.581 -6.265,-26.027 -4.227,-5.799 -8.194,-6.206 -11.387,-6.206 -3.194,0 -6.327,1.325 -6.327,1.325 0,0 -0.637,2.613 3.615,9.941 C -2.676,-1.528 0,0 0,0" style="fill:#16392c;fill-opacity:1;fill-rule:nonzero;stroke:none" transform="matrix(1.3333333,0,0,-1.3333333,112.5056,3385.5939)" clip-path="url(#clipPath3972)" id="path4032"></path><path d="m 0,0 c 0,0 -4.579,-2.048 -8.796,-6.808 -4.218,-4.76 -5.724,-9.158 -5.724,-9.158 0,0 -8.555,9.76 -1.566,18.195 6.988,8.435 29.521,9.881 29.521,9.881 0,0 -1.566,-19.581 -6.265,-26.027 -4.227,-5.799 -8.194,-6.206 -11.387,-6.206 -3.194,0 -6.327,1.325 -6.327,1.325 0,0 -0.637,2.613 3.615,9.941 C -2.676,-1.528 0,0 0,0" style="fill:#16392c;fill-opacity:1;fill-rule:nonzero;stroke:none" transform="matrix(1.3333333,0,0,-1.3333333,168.86307,3385.5939)" clip-path="url(#clipPath3973)" id="path4033"></path><path d="m 0,0 c 0,0 -4.579,-2.048 -8.796,-6.808 -4.218,-4.76 -5.724,-9.158 -5.724,-9.158 0,0 -8.555,9.76 -1.566,18.195 6.988,8.435 29.521,9.881 29.521,9.881 0,0 -1.566,-19.581 -6.265,-26.027 -4.227,-5.799 -8.194,-6.206 -11.387,-6.206 -3.194,0 -6.327,1.325 -6.327,1.325 0,0 -0.637,2.613 3.615,9.941 C -2.676,-1.528 0,0 0,0" style="fill:#16392c;fill-opacity:1;fill-rule:nonzero;stroke:none" transform="matrix(1.3333333,0,0,-1.3333333,225.22067,3385.5939)" clip-path="url(#clipPath3974)" id="path4034"></path><path d="m 0,0 c 0,0 -4.579,-2.048 -8.796,-6.808 -4.218,-4.76 -5.724,-9.158 -5.724,-9.158 0,0 -8.555,9.76 -1.566,18.195 6.988,8.435 29.521,9.881 29.521,9.881 0,0 -1.566,-19.581 -6.265,-26.027 -4.227,-5.799 -8.194,-6.206 -11.387,-6.206 -3.194,0 -6.327,1.325 -6.327,1.325 0,0 -0.637,2.613 3.615,9.941 C -2.676,-1.528 0,0 0,0" style="fill:#16392c;fill-opacity:1;fill-rule:nonzero;stroke:none" transform="matrix(1.3333333,0,0,-1.3333333,112.5056,3441.9045)" clip-path="url(#clipPath3975)" id="path4035"></path><path d="m 0,0 c 0,0 -4.579,-2.048 -8.796,-6.808 -4.218,-4.76 -5.724,-9.158 -5.724,-9.158 0,0 -8.555,9.76 -1.566,18.195 6.988,8.435 29.521,9.881 29.521,9.881 0,0 -1.566,-19.581 -6.265,-26.027 -4.227,-5.799 -8.194,-6.206 -11.387,-6.206 -3.194,0 -6.327,1.325 -6.327,1.325 0,0 -0.637,2.613 3.615,9.941 C -2.676,-1.528 0,0 0,0" style="fill:#16392c;fill-opacity:1;fill-rule:nonzero;stroke:none" transform="matrix(1.3333333,0,0,-1.3333333,168.86307,3441.9045)" clip-path="url(#clipPath3976)" id="path4036"></path><path d="m 0,0 c 0,0 -4.579,-2.048 -8.796,-6.808 -4.218,-4.76 -5.724,-9.158 -5.724,-9.158 0,0 -8.555,9.76 -1.566,18.195 6.988,8.435 29.521,9.881 29.521,9.881 0,0 -1.566,-19.581 -6.265,-26.027 -4.227,-5.799 -8.194,-6.206 -11.387,-6.206 -3.194,0 -6.327,1.325 -6.327,1.325 0,0 -0.637,2.613 3.615,9.941 C -2.676,-1.528 0,0 0,0" style="fill:#16392c;fill-opacity:1;fill-rule:nonzero;stroke:none" transform="matrix(1.3333333,0,0,-1.3333333,225.22067,3441.9045)" clip-path="url(#clipPath3977)" id="path4037"></path><path d="m 0,0 c 0,0 -4.579,-2.048 -8.796,-6.808 -4.218,-4.76 -5.724,-9.158 -5.724,-9.158 0,0 -8.555,9.76 -1.566,18.195 6.988,8.435 29.521,9.881 29.521,9.881 0,0 -1.566,-19.581 -6.265,-26.027 -4.227,-5.799 -8.194,-6.206 -11.387,-6.206 -3.194,0 -6.327,1.325 -6.327,1.325 0,0 -0.637,2.613 3.615,9.941 C -2.676,-1.528 0,0 0,0" style="fill:#16392c;fill-opacity:1;fill-rule:nonzero;stroke:none" transform="matrix(1.3333333,0,0,-1.3333333,112.5056,3498.2152)" clip-path="url(#clipPath3978)" id="path4038"></path><path d="m 0,0 c 0,0 -4.579,-2.048 -8.796,-6.808 -4.218,-4.76 -5.724,-9.158 -5.724,-9.158 0,0 -8.555,9.76 -1.566,18.195 6.988,8.435 29.521,9.881 29.521,9.881 0,0 -1.566,-19.581 -6.265,-26.027 -4.227,-5.799 -8.194,-6.206 -11.387,-6.206 -3.194,0 -6.327,1.325 -6.327,1.325 0,0 -0.637,2.613 3.615,9.941 C -2.676,-1.528 0,0 0,0" style="fill:#16392c;fill-opacity:1;fill-rule:nonzero;stroke:none" transform="matrix(1.3333333,0,0,-1.3333333,168.86307,3498.2152)" clip-path="url(#clipPath3979)" id="path4039"></path><path d="m 0,0 c 0,0 -4.579,-2.048 -8.796,-6.808 -4.218,-4.76 -5.724,-9.158 -5.724,-9.158 0,0 -8.555,9.76 -1.566,18.195 6.988,8.435 29.521,9.881 29.521,9.881 0,0 -1.566,-19.581 -6.265,-26.027 -4.227,-5.799 -8.194,-6.206 -11.387,-6.206 -3.194,0 -6.327,1.325 -6.327,1.325 0,0 -0.637,2.613 3.615,9.941 C -2.676,-1.528 0,0 0,0" style="fill:#16392c;fill-opacity:1;fill-rule:nonzero;stroke:none" transform="matrix(1.3333333,0,0,-1.3333333,225.22067,3498.2152)" clip-path="url(#clipPath3980)" id="path4040"></path><path d="m 0,0 c 0,0 -4.579,-2.048 -8.796,-6.808 -4.218,-4.76 -5.724,-9.158 -5.724,-9.158 0,0 -8.555,9.76 -1.566,18.195 6.988,8.435 29.521,9.881 29.521,9.881 0,0 -1.566,-19.581 -6.265,-26.027 -4.227,-5.799 -8.194,-6.206 -11.387,-6.206 -3.194,0 -6.327,1.325 -6.327,1.325 0,0 -0.637,2.613 3.615,9.941 C -2.676,-1.528 0,0 0,0" style="fill:#16392c;fill-opacity:1;fill-rule:nonzero;stroke:none" transform="matrix(1.3333333,0,0,-1.3333333,112.5056,3554.526)" clip-path="url(#clipPath3981)" id="path4041"></path><path d="m 0,0 c 0,0 -4.579,-2.048 -8.796,-6.808 -4.218,-4.76 -5.724,-9.158 -5.724,-9.158 0,0 -8.555,9.76 -1.566,18.195 6.988,8.435 29.521,9.881 29.521,9.881 0,0 -1.566,-19.581 -6.265,-26.027 -4.227,-5.799 -8.194,-6.206 -11.387,-6.206 -3.194,0 -6.327,1.325 -6.327,1.325 0,0 -0.637,2.613 3.615,9.941 C -2.676,-1.528 0,0 0,0" style="fill:#16392c;fill-opacity:1;fill-rule:nonzero;stroke:none" transform="matrix(1.3333333,0,0,-1.3333333,168.86307,3554.526)" clip-path="url(#clipPath3982)" id="path4042"></path><path d="m 0,0 c 0,0 -4.579,-2.048 -8.796,-6.808 -4.218,-4.76 -5.724,-9.158 -5.724,-9.158 0,0 -8.555,9.76 -1.566,18.195 6.988,8.435 29.521,9.881 29.521,9.881 0,0 -1.566,-19.581 -6.265,-26.027 -4.227,-5.799 -8.194,-6.206 -11.387,-6.206 -3.194,0 -6.327,1.325 -6.327,1.325 0,0 -0.637,2.613 3.615,9.941 C -2.676,-1.528 0,0 0,0" style="fill:#16392c;fill-opacity:1;fill-rule:nonzero;stroke:none" transform="matrix(1.3333333,0,0,-1.3333333,225.22067,3554.526)" clip-path="url(#clipPath3983)" id="path4043"></path><path d="m 0,0 c 0,0 -4.579,-2.048 -8.796,-6.808 -4.218,-4.76 -5.724,-9.158 -5.724,-9.158 0,0 -8.555,9.76 -1.566,18.195 6.988,8.435 29.521,9.881 29.521,9.881 0,0 -1.566,-19.581 -6.265,-26.027 -4.227,-5.799 -8.194,-6.206 -11.387,-6.206 -3.194,0 -6.327,1.325 -6.327,1.325 0,0 -0.637,2.613 3.615,9.941 C -2.676,-1.528 0,0 0,0" style="fill:#16392c;fill-opacity:1;fill-rule:nonzero;stroke:none" transform="matrix(1.3333333,0,0,-1.3333333,112.5056,3610.8368)" clip-path="url(#clipPath3984)" id="path4044"></path><path d="m 0,0 c 0,0 -4.579,-2.048 -8.796,-6.808 -4.218,-4.76 -5.724,-9.158 -5.724,-9.158 0,0 -8.555,9.76 -1.566,18.195 6.988,8.435 29.521,9.881 29.521,9.881 0,0 -1.566,-19.581 -6.265,-26.027 -4.227,-5.799 -8.194,-6.206 -11.387,-6.206 -3.194,0 -6.327,1.325 -6.327,1.325 0,0 -0.637,2.613 3.615,9.941 C -2.676,-1.528 0,0 0,0" style="fill:#16392c;fill-opacity:1;fill-rule:nonzero;stroke:none" transform="matrix(1.3333333,0,0,-1.3333333,168.86307,3610.8368)" clip-path="url(#clipPath3985)" id="path4045"></path><path d="m 0,0 c 0,0 -4.579,-2.048 -8.796,-6.808 -4.218,-4.76 -5.724,-9.158 -5.724,-9.158 0,0 -8.555,9.76 -1.566,18.195 6.988,8.435 29.521,9.881 29.521,9.881 0,0 -1.566,-19.581 -6.265,-26.027 -4.227,-5.799 -8.194,-6.206 -11.387,-6.206 -3.194,0 -6.327,1.325 -6.327,1.325 0,0 -0.637,2.613 3.615,9.941 C -2.676,-1.528 0,0 0,0" style="fill:#16392c;fill-opacity:1;fill-rule:nonzero;stroke:none" transform="matrix(1.3333333,0,0,-1.3333333,225.22067,3610.8368)" clip-path="url(#clipPath3986)" id="path4046"></path></g></g></svg>