<svg xmlns="http://www.w3.org/2000/svg" xmlns:svg="http://www.w3.org/2000/svg" width="177.14034mm" height="10.651525mm" viewBox="0 0 177.14034 10.651525" id="svg1"><defs id="defs1"><clipPath clipPathUnits="userSpaceOnUse" id="clipPath4049"><path d="m 962.506,3545.313 c -9.961,0 -18.037,-8.074 -18.037,-18.035 v 0 -467.84 c 0,-9.96 8.076,-18.036 18.037,-18.036 v 0 h 888.929 c 9.961,0 18.035,8.076 18.035,18.036 v 0 467.84 c 0,9.961 -8.074,18.035 -18.035,18.035 v 0 z" transform="translate(-1531.005,-3430.7999)" id="path4049"></path></clipPath><clipPath clipPathUnits="userSpaceOnUse" id="clipPath266"><path d="M 0,4034.815 H 1920 V 0 H 0 Z" transform="translate(-1815.9426,-3274.7755)" id="path266"></path></clipPath><clipPath clipPathUnits="userSpaceOnUse" id="clipPath4051"><path d="m 962.506,3545.313 c -9.961,0 -18.037,-8.074 -18.037,-18.035 v 0 -467.84 c 0,-9.96 8.076,-18.036 18.037,-18.036 v 0 h 888.929 c 9.961,0 18.035,8.076 18.035,18.036 v 0 467.84 c 0,9.961 -8.074,18.035 -18.035,18.035 v 0 z" transform="translate(-1803.5035,-3273.1302)" id="path4051"></path></clipPath><clipPath clipPathUnits="userSpaceOnUse" id="clipPath4049-2"><path d="m 962.506,3545.313 c -9.961,0 -18.037,-8.074 -18.037,-18.035 v 0 -467.84 c 0,-9.96 8.076,-18.036 18.037,-18.036 v 0 h 888.929 c 9.961,0 18.035,8.076 18.035,18.036 v 0 467.84 c 0,9.961 -8.074,18.035 -18.035,18.035 v 0 z" transform="translate(-1531.005,-3430.7999)" id="path4049-3"></path></clipPath><clipPath clipPathUnits="userSpaceOnUse" id="clipPath3924"><path d="M 0,4034.815 H 1920 V 0 H 0 Z" transform="matrix(1.3333333,0,0,-1.3333333,0,5379.76)" id="path3924"></path></clipPath><clipPath clipPathUnits="userSpaceOnUse" id="clipPath3904"><path d="m 993.205,3112.539 h 509.784 v -32.904 H 993.205 Z" transform="translate(-1010.8464,-3101.1957)" id="path3904"></path></clipPath><clipPath clipPathUnits="userSpaceOnUse" id="clipPath3905"><path d="m 993.205,3112.539 h 509.784 v -32.904 H 993.205 Z" transform="translate(-1063.2801,-3101.1957)" id="path3905"></path></clipPath><clipPath clipPathUnits="userSpaceOnUse" id="clipPath3906"><path d="m 993.205,3112.539 h 509.784 v -32.904 H 993.205 Z" transform="translate(-1115.7139,-3101.1957)" id="path3906"></path></clipPath><clipPath clipPathUnits="userSpaceOnUse" id="clipPath3907"><path d="m 993.205,3112.539 h 509.784 v -32.904 H 993.205 Z" transform="translate(-1168.1478,-3101.1957)" id="path3907"></path></clipPath><clipPath clipPathUnits="userSpaceOnUse" id="clipPath3908"><path d="m 993.205,3112.539 h 509.784 v -32.904 H 993.205 Z" transform="translate(-1220.5815,-3101.1957)" id="path3908"></path></clipPath><clipPath clipPathUnits="userSpaceOnUse" id="clipPath3909"><path d="m 993.205,3112.539 h 509.784 v -32.904 H 993.205 Z" transform="translate(-1273.0155,-3101.1957)" id="path3909"></path></clipPath><clipPath clipPathUnits="userSpaceOnUse" id="clipPath3910"><path d="m 993.205,3112.539 h 509.784 v -32.904 H 993.205 Z" transform="translate(-1325.4492,-3101.1957)" id="path3910"></path></clipPath><clipPath clipPathUnits="userSpaceOnUse" id="clipPath3911"><path d="m 993.205,3112.539 h 509.784 v -32.904 H 993.205 Z" transform="translate(-1377.8832,-3101.1957)" id="path3911"></path></clipPath><clipPath clipPathUnits="userSpaceOnUse" id="clipPath3912"><path d="m 993.205,3112.539 h 509.784 v -32.904 H 993.205 Z" transform="translate(-1430.3169,-3101.1957)" id="path3912"></path></clipPath><clipPath clipPathUnits="userSpaceOnUse" id="clipPath3913"><path d="m 993.205,3112.539 h 509.784 v -32.904 H 993.205 Z" transform="translate(-1482.7507,-3101.1957)" id="path3913"></path></clipPath></defs><g id="layer1" transform="translate(62.441672,-250.29582)"><g opacity="0.600006" id="g3923" clip-path="url(#clipPath3924)" transform="matrix(0.26458333,0,0,0.26458333,-412.82253,-75.06444)"><path d="m 0,0 c 0,0 -4.289,-1.919 -8.24,-6.377 -3.95,-4.459 -5.361,-8.579 -5.361,-8.579 0,0 -8.014,9.143 -1.467,17.044 6.546,7.901 27.653,9.256 27.653,9.256 0,0 -1.467,-18.342 -5.869,-24.381 -3.959,-5.431 -7.675,-5.813 -10.667,-5.813 -2.991,0 -5.925,1.242 -5.925,1.242 0,0 -0.598,2.447 3.386,9.312 C -2.507,-1.431 0,0 0,0" style="fill:#16392c;fill-opacity:1;fill-rule:nonzero;stroke:none" transform="matrix(1.3333333,0,0,-1.3333333,1347.7951,1244.8325)" clip-path="url(#clipPath3904)" id="path3914"></path><path d="m 0,0 c 0,0 -4.289,-1.919 -8.24,-6.377 -3.95,-4.459 -5.361,-8.579 -5.361,-8.579 0,0 -8.014,9.143 -1.467,17.044 6.546,7.901 27.653,9.256 27.653,9.256 0,0 -1.467,-18.342 -5.869,-24.381 -3.959,-5.431 -7.675,-5.813 -10.666,-5.813 -2.992,0 -5.926,1.242 -5.926,1.242 0,0 -0.597,2.447 3.386,9.312 C -2.507,-1.431 0,0 0,0" style="fill:#16392c;fill-opacity:1;fill-rule:nonzero;stroke:none" transform="matrix(1.3333333,0,0,-1.3333333,1417.7067,1244.8325)" clip-path="url(#clipPath3905)" id="path3915"></path><path d="m 0,0 c 0,0 -4.289,-1.919 -8.24,-6.377 -3.95,-4.459 -5.361,-8.579 -5.361,-8.579 0,0 -8.014,9.143 -1.467,17.044 6.546,7.901 27.653,9.256 27.653,9.256 0,0 -1.467,-18.342 -5.869,-24.381 -3.959,-5.431 -7.675,-5.813 -10.666,-5.813 -2.992,0 -5.926,1.242 -5.926,1.242 0,0 -0.597,2.447 3.386,9.312 C -2.507,-1.431 0,0 0,0" style="fill:#16392c;fill-opacity:1;fill-rule:nonzero;stroke:none" transform="matrix(1.3333333,0,0,-1.3333333,1487.6185,1244.8325)" clip-path="url(#clipPath3906)" id="path3916"></path><path d="m 0,0 c 0,0 -4.289,-1.919 -8.24,-6.377 -3.95,-4.459 -5.361,-8.579 -5.361,-8.579 0,0 -8.014,9.143 -1.467,17.044 6.546,7.901 27.653,9.256 27.653,9.256 0,0 -1.467,-18.342 -5.869,-24.381 -3.959,-5.431 -7.675,-5.813 -10.666,-5.813 -2.992,0 -5.926,1.242 -5.926,1.242 0,0 -0.598,2.447 3.386,9.312 C -2.507,-1.431 0,0 0,0" style="fill:#16392c;fill-opacity:1;fill-rule:nonzero;stroke:none" transform="matrix(1.3333333,0,0,-1.3333333,1557.5303,1244.8325)" clip-path="url(#clipPath3907)" id="path3917"></path><path d="m 0,0 c 0,0 -4.289,-1.919 -8.24,-6.377 -3.95,-4.459 -5.361,-8.579 -5.361,-8.579 0,0 -8.014,9.143 -1.467,17.044 6.546,7.901 27.653,9.256 27.653,9.256 0,0 -1.467,-18.342 -5.869,-24.381 -3.959,-5.431 -7.675,-5.813 -10.666,-5.813 -2.992,0 -5.926,1.242 -5.926,1.242 0,0 -0.598,2.447 3.386,9.312 C -2.507,-1.431 0,0 0,0" style="fill:#16392c;fill-opacity:1;fill-rule:nonzero;stroke:none" transform="matrix(1.3333333,0,0,-1.3333333,1627.442,1244.8325)" clip-path="url(#clipPath3908)" id="path3918"></path><path d="m 0,0 c 0,0 -4.289,-1.919 -8.24,-6.377 -3.95,-4.459 -5.361,-8.579 -5.361,-8.579 0,0 -8.014,9.143 -1.467,17.044 6.546,7.901 27.653,9.256 27.653,9.256 0,0 -1.467,-18.342 -5.869,-24.381 -3.959,-5.431 -7.675,-5.813 -10.666,-5.813 -2.992,0 -5.926,1.242 -5.926,1.242 0,0 -0.598,2.447 3.386,9.312 C -2.507,-1.431 0,0 0,0" style="fill:#16392c;fill-opacity:1;fill-rule:nonzero;stroke:none" transform="matrix(1.3333333,0,0,-1.3333333,1697.3539,1244.8325)" clip-path="url(#clipPath3909)" id="path3919"></path><path d="m 0,0 c 0,0 -4.289,-1.919 -8.24,-6.377 -3.95,-4.459 -5.361,-8.579 -5.361,-8.579 0,0 -8.014,9.143 -1.467,17.044 6.546,7.901 27.653,9.256 27.653,9.256 0,0 -1.467,-18.342 -5.869,-24.381 -3.959,-5.431 -7.675,-5.813 -10.666,-5.813 -2.992,0 -5.926,1.242 -5.926,1.242 0,0 -0.598,2.447 3.386,9.312 C -2.507,-1.431 0,0 0,0" style="fill:#16392c;fill-opacity:1;fill-rule:nonzero;stroke:none" transform="matrix(1.3333333,0,0,-1.3333333,1767.2656,1244.8325)" clip-path="url(#clipPath3910)" id="path3920"></path><path d="m 0,0 c 0,0 -4.289,-1.919 -8.24,-6.377 -3.95,-4.459 -5.361,-8.579 -5.361,-8.579 0,0 -8.014,9.143 -1.467,17.044 6.546,7.901 27.653,9.256 27.653,9.256 0,0 -1.467,-18.342 -5.869,-24.381 -3.959,-5.431 -7.675,-5.813 -10.666,-5.813 -2.992,0 -5.926,1.242 -5.926,1.242 0,0 -0.598,2.447 3.386,9.312 C -2.507,-1.431 0,0 0,0" style="fill:#16392c;fill-opacity:1;fill-rule:nonzero;stroke:none" transform="matrix(1.3333333,0,0,-1.3333333,1837.1775,1244.8325)" clip-path="url(#clipPath3911)" id="path3921"></path><path d="m 0,0 c 0,0 -4.289,-1.919 -8.24,-6.377 -3.95,-4.459 -5.361,-8.579 -5.361,-8.579 0,0 -8.014,9.143 -1.467,17.044 6.546,7.901 27.653,9.256 27.653,9.256 0,0 -1.467,-18.342 -5.869,-24.381 -3.959,-5.431 -7.675,-5.813 -10.666,-5.813 -2.992,0 -5.926,1.242 -5.926,1.242 0,0 -0.598,2.447 3.386,9.312 C -2.507,-1.431 0,0 0,0" style="fill:#16392c;fill-opacity:1;fill-rule:nonzero;stroke:none" transform="matrix(1.3333333,0,0,-1.3333333,1907.0892,1244.8325)" clip-path="url(#clipPath3912)" id="path3922"></path><path d="m 0,0 c 0,0 -4.289,-1.919 -8.24,-6.377 -3.95,-4.459 -5.361,-8.579 -5.361,-8.579 0,0 -8.014,9.143 -1.467,17.044 6.546,7.901 27.653,9.256 27.653,9.256 0,0 -1.467,-18.342 -5.869,-24.381 -3.959,-5.431 -7.675,-5.813 -10.666,-5.813 -2.992,0 -5.926,1.242 -5.926,1.242 0,0 -0.598,2.447 3.386,9.312 C -2.507,-1.431 0,0 0,0" style="fill:#16392c;fill-opacity:1;fill-rule:nonzero;stroke:none" transform="matrix(1.3333333,0,0,-1.3333333,1977.0009,1244.8325)" clip-path="url(#clipPath3913)" id="path3923"></path></g></g></svg>