<svg xmlns:inkscape="http://www.inkscape.org/namespaces/inkscape" xmlns:sodipodi="http://sodipodi.sourceforge.net/DTD/sodipodi-0.dtd" xmlns="http://www.w3.org/2000/svg" xmlns:svg="http://www.w3.org/2000/svg" width="53.818504mm" height="34.33979mm" viewBox="0 0 53.818504 34.33979" id="svg1" inkscape:version="1.3.2 (091e20e, 2023-11-25)" sodipodi:docname="map-white.svg"><defs id="defs1"><clipPath clipPathUnits="userSpaceOnUse" id="clipPath188"><path d="M 0,8405.575 H 1920 V 0 H 0 Z" transform="translate(-155.76051,-1129.2362)" id="path188"></path></clipPath><clipPath clipPathUnits="userSpaceOnUse" id="clipPath190"><path d="M 0,8405.575 H 1920 V 0 H 0 Z" transform="translate(-244.82371,-1135.8662)" id="path190"></path></clipPath><clipPath clipPathUnits="userSpaceOnUse" id="clipPath192"><path d="M 0,8405.575 H 1920 V 0 H 0 Z" transform="translate(-237.77001,-1141.9253)" id="path192"></path></clipPath><clipPath clipPathUnits="userSpaceOnUse" id="clipPath194"><path d="M 0,8405.575 H 1920 V 0 H 0 Z" transform="translate(-169.515,-1150.0613)" id="path194"></path></clipPath><clipPath clipPathUnits="userSpaceOnUse" id="clipPath196"><path d="M 0,8405.575 H 1920 V 0 H 0 Z" transform="translate(-264.7975,-1090.2578)" id="path196"></path></clipPath><clipPath clipPathUnits="userSpaceOnUse" id="clipPath198"><path d="M 0,8405.575 H 1920 V 0 H 0 Z" transform="translate(-138.955,-1066.7477)" id="path198"></path></clipPath><clipPath clipPathUnits="userSpaceOnUse" id="clipPath200"><path d="M 0,8405.575 H 1920 V 0 H 0 Z" transform="translate(-243.2914,-1079.13)" id="path200"></path></clipPath><clipPath clipPathUnits="userSpaceOnUse" id="clipPath202"><path d="M 0,8405.575 H 1920 V 0 H 0 Z" transform="translate(-217.5817,-1026.5093)" id="path202"></path></clipPath><clipPath clipPathUnits="userSpaceOnUse" id="clipPath204"><path d="M 0,8405.575 H 1920 V 0 H 0 Z" transform="translate(-192.34251,-1134.2447)" id="path204"></path></clipPath><clipPath clipPathUnits="userSpaceOnUse" id="clipPath206"><path d="M 0,8405.575 H 1920 V 0 H 0 Z" transform="translate(-188.38701,-1133.4299)" id="path206"></path></clipPath><clipPath clipPathUnits="userSpaceOnUse" id="clipPath208"><path d="M 0,8405.575 H 1920 V 0 H 0 Z" transform="translate(-163.18731,-1145.8419)" id="path208"></path></clipPath><clipPath clipPathUnits="userSpaceOnUse" id="clipPath210"><path d="M 0,8405.575 H 1920 V 0 H 0 Z" transform="translate(-241.54831,-1138.7081)" id="path210"></path></clipPath><clipPath clipPathUnits="userSpaceOnUse" id="clipPath212"><path d="M 0,8405.575 H 1920 V 0 H 0 Z" transform="translate(-241.71411,-1037.9384)" id="path212"></path></clipPath><clipPath clipPathUnits="userSpaceOnUse" id="clipPath214"><path d="M 0,8405.575 H 1920 V 0 H 0 Z" transform="translate(-153.9312,-1139.8373)" id="path214"></path></clipPath><clipPath clipPathUnits="userSpaceOnUse" id="clipPath216"><path d="M 0,8405.575 H 1920 V 0 H 0 Z" transform="translate(-167.1208,-1148.9604)" id="path216"></path></clipPath><clipPath clipPathUnits="userSpaceOnUse" id="clipPath218"><path d="M 0,8405.575 H 1920 V 0 H 0 Z" transform="translate(-264.7147,-1090.3973)" id="path218"></path></clipPath><clipPath clipPathUnits="userSpaceOnUse" id="clipPath220"><path d="M 0,8405.575 H 1920 V 0 H 0 Z" transform="translate(-242.26081,-1094.5652)" id="path220"></path></clipPath><clipPath clipPathUnits="userSpaceOnUse" id="clipPath222"><path d="M 0,8405.575 H 1920 V 0 H 0 Z" transform="translate(-194.8509,-1042.73)" id="path222"></path></clipPath><clipPath clipPathUnits="userSpaceOnUse" id="clipPath224"><path d="M 0,8405.575 H 1920 V 0 H 0 Z" transform="translate(-230.4757,-1057.9568)" id="path224"></path></clipPath><clipPath clipPathUnits="userSpaceOnUse" id="clipPath226"><path d="M 0,8405.575 H 1920 V 0 H 0 Z" transform="translate(-219.81591,-1127.9576)" id="path226"></path></clipPath><clipPath clipPathUnits="userSpaceOnUse" id="clipPath228"><path d="M 0,8405.575 H 1920 V 0 H 0 Z" transform="translate(-219.81591,-1127.9576)" id="path228"></path></clipPath><clipPath clipPathUnits="userSpaceOnUse" id="clipPath230"><path d="M 0,8405.575 H 1920 V 0 H 0 Z" transform="translate(-154.83351,-1122.5178)" id="path230"></path></clipPath><clipPath clipPathUnits="userSpaceOnUse" id="clipPath232"><path d="M 0,8405.575 H 1920 V 0 H 0 Z" transform="translate(-159.06081,-1127.0156)" id="path232"></path></clipPath><clipPath clipPathUnits="userSpaceOnUse" id="clipPath234"><path d="M 0,8405.575 H 1920 V 0 H 0 Z" transform="translate(-220.21191,-1152.8262)" id="path234"></path></clipPath><clipPath clipPathUnits="userSpaceOnUse" id="clipPath236"><path d="M 0,8405.575 H 1920 V 0 H 0 Z" transform="translate(-247.40931,-1134.0822)" id="path236"></path></clipPath><clipPath clipPathUnits="userSpaceOnUse" id="clipPath238"><path d="M 0,8405.575 H 1920 V 0 H 0 Z" transform="translate(-262.33881,-1110.4628)" id="path238"></path></clipPath><clipPath clipPathUnits="userSpaceOnUse" id="clipPath240"><path d="M 0,8405.575 H 1920 V 0 H 0 Z" transform="translate(-210.92341,-1063.11)" id="path240"></path></clipPath><clipPath clipPathUnits="userSpaceOnUse" id="clipPath242"><path d="M 0,8405.575 H 1920 V 0 H 0 Z" transform="translate(-217.3213,-1060.4111)" id="path242"></path></clipPath><clipPath clipPathUnits="userSpaceOnUse" id="clipPath244"><path d="M 0,8405.575 H 1920 V 0 H 0 Z" transform="translate(-219.23721,-1057.9988)" id="path244"></path></clipPath><clipPath clipPathUnits="userSpaceOnUse" id="clipPath246"><path d="M 0,8405.575 H 1920 V 0 H 0 Z" transform="translate(-220.52041,-1050.4272)" id="path246"></path></clipPath><clipPath clipPathUnits="userSpaceOnUse" id="clipPath248"><path d="M 0,8405.575 H 1920 V 0 H 0 Z" transform="translate(-220.46461,-1051.1249)" id="path248"></path></clipPath><clipPath clipPathUnits="userSpaceOnUse" id="clipPath250"><path d="M 0,8405.575 H 1920 V 0 H 0 Z" transform="translate(-220.66051,-1054.619)" id="path250"></path></clipPath><clipPath clipPathUnits="userSpaceOnUse" id="clipPath252"><path d="M 0,8405.575 H 1920 V 0 H 0 Z" transform="translate(-225.3604,-1054.0343)" id="path252"></path></clipPath><clipPath clipPathUnits="userSpaceOnUse" id="clipPath254"><path d="M 0,8405.575 H 1920 V 0 H 0 Z" transform="translate(-225.18001,-1053.6036)" id="path254"></path></clipPath><clipPath clipPathUnits="userSpaceOnUse" id="clipPath256"><path d="M 0,8405.575 H 1920 V 0 H 0 Z" transform="translate(-224.8807,-1058.3708)" id="path256"></path></clipPath><clipPath clipPathUnits="userSpaceOnUse" id="clipPath258"><path d="M 0,8405.575 H 1920 V 0 H 0 Z" transform="translate(-224.40411,-1061.3987)" id="path258"></path></clipPath><clipPath clipPathUnits="userSpaceOnUse" id="clipPath260"><path d="M 0,8405.575 H 1920 V 0 H 0 Z" transform="translate(-224.89441,-1057.562)" id="path260"></path></clipPath><clipPath clipPathUnits="userSpaceOnUse" id="clipPath262"><path d="M 0,8405.575 H 1920 V 0 H 0 Z" transform="translate(-224.72961,-1057.7375)" id="path262"></path></clipPath><clipPath clipPathUnits="userSpaceOnUse" id="clipPath264"><path d="M 0,8405.575 H 1920 V 0 H 0 Z" transform="translate(-224.8144,-1057.0979)" id="path264"></path></clipPath><clipPath clipPathUnits="userSpaceOnUse" id="clipPath266"><path d="M 0,8405.575 H 1920 V 0 H 0 Z" transform="translate(-224.9884,-1054.6992)" id="path266"></path></clipPath><clipPath clipPathUnits="userSpaceOnUse" id="clipPath268"><path d="M 0,8405.575 H 1920 V 0 H 0 Z" transform="translate(-224.7757,-1055.9744)" id="path268"></path></clipPath><clipPath clipPathUnits="userSpaceOnUse" id="clipPath270"><path d="M 0,8405.575 H 1920 V 0 H 0 Z" transform="translate(-223.70821,-1062.2345)" id="path270"></path></clipPath><clipPath clipPathUnits="userSpaceOnUse" id="clipPath272"><path d="M 0,8405.575 H 1920 V 0 H 0 Z" transform="translate(-224.3443,-1059.7514)" id="path272"></path></clipPath><clipPath clipPathUnits="userSpaceOnUse" id="clipPath274"><path d="M 0,8405.575 H 1920 V 0 H 0 Z" transform="translate(-220.4137,-1069.5554)" id="path274"></path></clipPath><clipPath clipPathUnits="userSpaceOnUse" id="clipPath276"><path d="M 0,8405.575 H 1920 V 0 H 0 Z" transform="translate(-223.7056,-1061.7521)" id="path276"></path></clipPath><clipPath clipPathUnits="userSpaceOnUse" id="clipPath278"><path d="M 0,8405.575 H 1920 V 0 H 0 Z" transform="translate(-222.7144,-1064.9933)" id="path278"></path></clipPath><clipPath clipPathUnits="userSpaceOnUse" id="clipPath280"><path d="M 0,8405.575 H 1920 V 0 H 0 Z" transform="translate(-224.3044,-1060.0406)" id="path280"></path></clipPath><clipPath clipPathUnits="userSpaceOnUse" id="clipPath282"><path d="M 0,8405.575 H 1920 V 0 H 0 Z" transform="translate(-224.3044,-1060.0406)" id="path282"></path></clipPath><clipPath clipPathUnits="userSpaceOnUse" id="clipPath284"><path d="M 0,8405.575 H 1920 V 0 H 0 Z" transform="translate(-221.48691,-1067.4573)" id="path284"></path></clipPath><clipPath clipPathUnits="userSpaceOnUse" id="clipPath286"><path d="M 0,8405.575 H 1920 V 0 H 0 Z" transform="translate(-221.94381,-1065.6479)" id="path286"></path></clipPath><clipPath clipPathUnits="userSpaceOnUse" id="clipPath288"><path d="M 0,8405.575 H 1920 V 0 H 0 Z" transform="translate(-224.3473,-1053.6809)" id="path288"></path></clipPath><clipPath clipPathUnits="userSpaceOnUse" id="clipPath290"><path d="M 0,8405.575 H 1920 V 0 H 0 Z" transform="translate(-224.61511,-1055.6864)" id="path290"></path></clipPath><clipPath clipPathUnits="userSpaceOnUse" id="clipPath292"><path d="M 0,8405.575 H 1920 V 0 H 0 Z" transform="translate(-224.39121,-1054.6194)" id="path292"></path></clipPath><clipPath clipPathUnits="userSpaceOnUse" id="clipPath294"><path d="M 0,8405.575 H 1920 V 0 H 0 Z" transform="translate(-223.45881,-1060.787)" id="path294"></path></clipPath><clipPath clipPathUnits="userSpaceOnUse" id="clipPath296"><path d="M 0,8405.575 H 1920 V 0 H 0 Z" transform="translate(-220.3621,-1069.7795)" id="path296"></path></clipPath><clipPath clipPathUnits="userSpaceOnUse" id="clipPath298"><path d="M 0,8405.575 H 1920 V 0 H 0 Z" transform="translate(-219.03541,-1071.8988)" id="path298"></path></clipPath><clipPath clipPathUnits="userSpaceOnUse" id="clipPath300"><path d="M 0,8405.575 H 1920 V 0 H 0 Z" transform="translate(-188.9161,-1092.7952)" id="path300"></path></clipPath><clipPath clipPathUnits="userSpaceOnUse" id="clipPath302"><path d="M 0,8405.575 H 1920 V 0 H 0 Z" transform="translate(-198.12531,-1088.786)" id="path302"></path></clipPath><clipPath clipPathUnits="userSpaceOnUse" id="clipPath304"><path d="M 0,8405.575 H 1920 V 0 H 0 Z" transform="translate(-213.48421,-1100.0333)" id="path304"></path></clipPath><clipPath clipPathUnits="userSpaceOnUse" id="clipPath306"><path d="M 0,8405.575 H 1920 V 0 H 0 Z" transform="translate(-196.19181,-1089.4265)" id="path306"></path></clipPath><clipPath clipPathUnits="userSpaceOnUse" id="clipPath308"><path d="M 0,8405.575 H 1920 V 0 H 0 Z" transform="translate(-203.8645,-1063.4996)" id="path308"></path></clipPath><clipPath clipPathUnits="userSpaceOnUse" id="clipPath310"><path d="M 0,8405.575 H 1920 V 0 H 0 Z" transform="translate(-212.78161,-1079.7332)" id="path310"></path></clipPath><clipPath clipPathUnits="userSpaceOnUse" id="clipPath312"><path d="M 0,8405.575 H 1920 V 0 H 0 Z" transform="translate(-214.11361,-1077.4718)" id="path312"></path></clipPath><clipPath clipPathUnits="userSpaceOnUse" id="clipPath314"><path d="M 0,8405.575 H 1920 V 0 H 0 Z" transform="translate(-213.29671,-1079.1179)" id="path314"></path></clipPath><clipPath clipPathUnits="userSpaceOnUse" id="clipPath316"><path d="M 0,8405.575 H 1920 V 0 H 0 Z" transform="translate(-213.27061,-1079.2415)" id="path316"></path></clipPath><clipPath clipPathUnits="userSpaceOnUse" id="clipPath318"><path d="M 0,8405.575 H 1920 V 0 H 0 Z" transform="translate(-212.25481,-1080.2552)" id="path318"></path></clipPath><clipPath clipPathUnits="userSpaceOnUse" id="clipPath320"><path d="M 0,8405.575 H 1920 V 0 H 0 Z" transform="translate(-216.46231,-1075.6718)" id="path320"></path></clipPath><clipPath clipPathUnits="userSpaceOnUse" id="clipPath322"><path d="M 0,8405.575 H 1920 V 0 H 0 Z" transform="translate(-217.51021,-1073.3025)" id="path322"></path></clipPath><clipPath clipPathUnits="userSpaceOnUse" id="clipPath324"><path d="M 0,8405.575 H 1920 V 0 H 0 Z" transform="translate(-217.69821,-1073.037)" id="path324"></path></clipPath><clipPath clipPathUnits="userSpaceOnUse" id="clipPath326"><path d="M 0,8405.575 H 1920 V 0 H 0 Z" transform="translate(-211.47561,-1080.8961)" id="path326"></path></clipPath><clipPath clipPathUnits="userSpaceOnUse" id="clipPath328"><path d="M 0,8405.575 H 1920 V 0 H 0 Z" transform="translate(-216.3046,-1074.3243)" id="path328"></path></clipPath><clipPath clipPathUnits="userSpaceOnUse" id="clipPath330"><path d="M 0,8405.575 H 1920 V 0 H 0 Z" transform="translate(-212.80801,-1078.5887)" id="path330"></path></clipPath><clipPath clipPathUnits="userSpaceOnUse" id="clipPath332"><path d="M 0,8405.575 H 1920 V 0 H 0 Z" transform="translate(-214.58341,-1076.6595)" id="path332"></path></clipPath><clipPath clipPathUnits="userSpaceOnUse" id="clipPath334"><path d="M 0,8405.575 H 1920 V 0 H 0 Z" transform="translate(-200.57131,-1087.0322)" id="path334"></path></clipPath><clipPath clipPathUnits="userSpaceOnUse" id="clipPath336"><path d="M 0,8405.575 H 1920 V 0 H 0 Z" transform="translate(-208.07931,-1063.2557)" id="path336"></path></clipPath><clipPath clipPathUnits="userSpaceOnUse" id="clipPath338"><path d="M 0,8405.575 H 1920 V 0 H 0 Z" transform="translate(-209.72041,-1063.4141)" id="path338"></path></clipPath><clipPath clipPathUnits="userSpaceOnUse" id="clipPath140"><path d="M 0,8405.575 H 1920 V 0 H 0 Z" transform="translate(-1196.0394,-2734.8902)" id="path140"></path></clipPath><clipPath clipPathUnits="userSpaceOnUse" id="clipPath49831"><path d="M 0,8405.575 H 1920 V 0 H 0 Z" transform="translate(-1145.092,-2746.9049)" id="path49831"></path></clipPath><clipPath clipPathUnits="userSpaceOnUse" id="clipPath49833"><path d="M 0,8405.575 H 1920 V 0 H 0 Z" transform="translate(-1171.1338,-2684.4579)" id="path49833"></path></clipPath><clipPath clipPathUnits="userSpaceOnUse" id="clipPath49835"><path d="M 0,8405.575 H 1920 V 0 H 0 Z" transform="translate(-1066.7745,-2734.2501)" id="path49835"></path></clipPath><clipPath clipPathUnits="userSpaceOnUse" id="clipPath49837"><path d="M 0,8405.575 H 1920 V 0 H 0 Z" transform="translate(-1108.6449,-2789.8407)" id="path49837"></path></clipPath><clipPath clipPathUnits="userSpaceOnUse" id="clipPath49839"><path d="M 0,8405.575 H 1920 V 0 H 0 Z" transform="translate(-1155.498,-2742.738)" id="path49839"></path></clipPath><clipPath clipPathUnits="userSpaceOnUse" id="clipPath49841"><path d="M 0,8405.575 H 1920 V 0 H 0 Z" transform="translate(-1167.5193,-2728.4661)" id="path49841"></path></clipPath><clipPath clipPathUnits="userSpaceOnUse" id="clipPath49843"><path d="M 0,8405.575 H 1920 V 0 H 0 Z" transform="translate(-1152.1125,-2725.9197)" id="path49843"></path></clipPath><clipPath clipPathUnits="userSpaceOnUse" id="clipPath49845"><path d="M 0,8405.575 H 1920 V 0 H 0 Z" transform="translate(-1066.3764,-2744.8587)" id="path49845"></path></clipPath><clipPath clipPathUnits="userSpaceOnUse" id="clipPath129"><path d="M 0,8405.575 H 1920 V 0 H 0 Z" transform="translate(-1196.0394,-3035.8439)" id="path129"></path></clipPath><clipPath clipPathUnits="userSpaceOnUse" id="clipPath142"><path d="M 0,8405.575 H 1920 V 0 H 0 Z" transform="translate(-1163.1615,-3003.8048)" id="path142"></path></clipPath><clipPath clipPathUnits="userSpaceOnUse" id="clipPath144"><path d="M 0,8405.575 H 1920 V 0 H 0 Z" transform="translate(-1097.8951,-3060.3084)" id="path144"></path></clipPath><clipPath clipPathUnits="userSpaceOnUse" id="clipPath11"><path d="M 0,8405.575 H 1920 V 0 H 0 Z" transform="translate(-85.625905,-3220.0528)" id="path11"></path></clipPath><clipPath clipPathUnits="userSpaceOnUse" id="clipPath13"><path d="M 0,8405.575 H 1920 V 0 H 0 Z" transform="translate(-118.46871,-3201.0497)" id="path13"></path></clipPath><clipPath clipPathUnits="userSpaceOnUse" id="clipPath121"><path d="M 0,8405.575 H 1920 V 0 H 0 Z" transform="translate(-269.07351,-3035.8439)" id="path121"></path></clipPath><clipPath clipPathUnits="userSpaceOnUse" id="clipPath49829"><path d="M 0,8405.575 H 1920 V 0 H 0 Z" transform="translate(-219.817,-3058.9466)" id="path49829"></path></clipPath><clipPath clipPathUnits="userSpaceOnUse" id="clipPath134"><path d="M 0,8405.575 H 1920 V 0 H 0 Z" transform="translate(-269.07351,-2741.8902)" id="path134"></path></clipPath><clipPath clipPathUnits="userSpaceOnUse" id="clipPath49813"><path d="M 0,8405.575 H 1920 V 0 H 0 Z" transform="translate(-236.27821,-2725.2384)" id="path49813"></path></clipPath><clipPath clipPathUnits="userSpaceOnUse" id="clipPath49815"><path d="M 0,8405.575 H 1920 V 0 H 0 Z" transform="translate(-185.9346,-2756.3534)" id="path49815"></path></clipPath><clipPath clipPathUnits="userSpaceOnUse" id="clipPath49817"><path d="M 0,8405.575 H 1920 V 0 H 0 Z" transform="translate(-133.4091,-2788.3319)" id="path49817"></path></clipPath><clipPath clipPathUnits="userSpaceOnUse" id="clipPath49819"><path d="M 0,8405.575 H 1920 V 0 H 0 Z" transform="translate(-130.35051,-2758.7865)" id="path49819"></path></clipPath><clipPath clipPathUnits="userSpaceOnUse" id="clipPath49821"><path d="M 0,8405.575 H 1920 V 0 H 0 Z" transform="translate(-134.823,-2774.8058)" id="path49821"></path></clipPath><clipPath clipPathUnits="userSpaceOnUse" id="clipPath49823"><path d="M 0,8405.575 H 1920 V 0 H 0 Z" transform="translate(-177.5784,-2761.4349)" id="path49823"></path></clipPath><clipPath clipPathUnits="userSpaceOnUse" id="clipPath49825"><path d="M 0,8405.575 H 1920 V 0 H 0 Z" transform="translate(-156.8457,-2745.4979)" id="path49825"></path></clipPath><clipPath clipPathUnits="userSpaceOnUse" id="clipPath49827"><path d="M 0,8405.575 H 1920 V 0 H 0 Z" transform="translate(-170.06331,-2757.0366)" id="path49827"></path></clipPath><clipPath clipPathUnits="userSpaceOnUse" id="clipPath49781"><path d="M 0,8405.575 H 1920 V 0 H 0 Z" transform="translate(-340.60311,-1986.7358)" id="path49781"></path></clipPath></defs><g inkscape:label="Capa 1" inkscape:groupmode="layer" id="layer1" transform="translate(-127.39287,-151.72471)"><path id="path49780" d="m 0,0 c -3.94,-4.884 -20.912,-1.876 -12.29,-12.913 -2.98,-0.209 -5.01,-2.263 -5.211,-5.193 -3.458,1.526 -7.123,4.995 -11.112,5.121 -5.905,0.188 -4.802,-5.21 -13.772,-2.192 -7.199,2.423 -20.738,7.958 -27.363,11.467 -12.547,6.648 -5.886,12.126 -11.931,21.698 -5.101,8.079 -19.884,20.42 -29.134,30.984 -0.136,-0.021 -0.285,0.004 -0.438,0.097 -2.466,1.507 -5.541,3.069 -8.524,2.615 0.042,-2.293 0.62,-4.486 1.688,-6.531 1.081,-2.069 2.504,-3.929 3.845,-5.831 1.295,-1.837 2.453,-3.726 3.392,-5.771 0.982,-2.139 1.808,-4.363 3.037,-6.379 0.64,-1.05 1.389,-2.018 2.271,-2.875 0.659,-0.641 1.371,-1.201 1.965,-1.908 0.642,-0.763 2.015,-2.338 1.447,-3.442 -0.752,-1.464 -3.075,0.436 -3.78,0.968 -1.732,1.308 -3.285,2.802 -4.597,4.533 -2.519,3.326 -3.848,7.326 -4.807,11.34 -0.02,0.014 -0.04,0.029 -0.059,0.045 -1.413,1.192 -3.111,2.292 -4.831,2.985 -1.065,0.429 -2.322,0.391 -3.441,0.612 -1.145,0.226 -2.043,0.604 -2.443,1.793 -0.364,1.083 0.164,1.953 0.9,2.711 0.626,0.645 1.21,1.516 1.32,2.441 0.059,0.487 -0.2,1.006 -0.373,1.445 -0.291,0.742 -0.623,1.468 -0.98,2.18 -2.871,5.719 -7.422,10.375 -10.375,16.045 -0.18,0.348 -0.073,0.726 0.247,0.941 2.785,1.869 6.109,0.959 8.956,-0.256 1.593,-0.68 3.128,-1.482 4.708,-2.189 1.323,-0.593 2.744,-1.172 4.209,-1.245 0.446,-0.023 0.667,-0.386 0.662,-0.734 5.679,-1.849 15.621,-3.465 20.734,-0.535 1.16,0.665 0.08,3.056 4.08,2.706 2.505,-0.22 7.586,-3.796 9.367,-5.686 2.395,-2.54 2.016,-7.303 7.814,-8.448 5.933,-1.171 4.766,3.378 6.383,3.751 8.785,2.033 11.921,-20.191 22.388,-19.584 -1.151,-6.489 -1.997,-12.73 -0.642,-19.345 1.659,-8.106 10.752,-20.953 19.566,-21.857 0.665,-0.068 12.537,1.979 13.164,2.245 5.441,2.315 6.896,10.412 6.955,15.707 l 12.84,0.755 z m 10.582,13.535 c 0.228,8.379 -18.879,3.336 -20.919,-0.636 -1.514,-2.946 -0.162,-7.698 -3.829,-10.395 -0.917,-0.675 -12.95,-4.547 -13.647,-4.379 -5.706,1.374 -12.802,12.43 -14.383,18.02 -2.105,7.445 0.796,15.163 1.374,22.571 -14.547,-2.364 -14.731,23.852 -28.571,20.206 -2.489,-0.655 -2.516,-2.967 -2.716,-3.063 -3.682,-1.763 -7.316,5.759 -10.116,8.109 -11.794,9.896 -15.882,0.446 -27.903,1.288 -10.17,0.712 -20.359,10.037 -31.575,4.413 -2.165,-3.197 9.286,-20.958 14.126,-22.528 L -131.452,42 c 2.28,-4.325 12.852,-6.912 14.373,-8.932 1.608,-2.135 0.726,-5.005 1.83,-7.221 1.253,-2.514 9.422,-5.759 10.547,-10.457 l 5.451,1.574 c 2.432,7.099 -3.538,7.639 -5.861,10.6 -1.843,2.349 -3.076,8.03 -5.023,11.139 -1.581,2.526 -7.178,5.135 -5.133,7.804 1.342,-1.802 11.546,-9.632 11.918,-10.588 0.329,-0.844 -1.274,-2.383 0.219,-4.32 1.453,-1.887 10.033,-6.689 13.119,-10.296 7.619,-8.905 5.151,-8.903 6.495,-17.967 0.615,-4.144 7.651,-9.132 11.173,-10.93 5.1,-2.604 29.296,-12.466 33.883,-12.84 5.494,-0.447 7.717,3.761 11.649,2.791 4.478,-1.104 8.857,-8.708 11.263,-8.211 l 3.162,8.489 6.581,0.555 -2.594,9.036 c 2.396,-1.045 13.114,2.946 14.099,4.565 2.313,3.803 0.772,7.583 1.738,11.287 0.493,1.894 3.094,3.569 3.145,5.457" style="fill:#ffffff;fill-opacity:1;fill-rule:nonzero;stroke:none" transform="matrix(0.35277776,0,0,-0.35277776,177.47756,176.93556)" clip-path="url(#clipPath49781)"></path></g></svg>