<svg xmlns="http://www.w3.org/2000/svg" xmlns:xlink="http://www.w3.org/1999/xlink" id="Capa_1" viewBox="0 0 790.87 612.28"><defs><style>      .st0 {        fill: none;      }      .st1 {        fill: #0d933e;      }      .st2 {        clip-path: url(#clippath-1);      }      .st3 {        clip-path: url(#clippath);      }    </style><clipPath id="clippath"><rect class="st0" x="0" width="790.87" height="612.28"></rect></clipPath><clipPath id="clippath-1"><rect class="st0" x="0" y="-287.19" width="789.93" height="1086.15"></rect></clipPath></defs><g class="st3"><g class="st2"><g><path class="st1" d="M-71.8-299.64s1.14,1.63,3.27,4.69c2.1,3.07,5.31,7.5,9.15,13.31,3.91,5.75,8.56,12.81,13.89,20.91,2.62,4.09,5.4,8.44,8.34,13.02,2.87,4.63,5.79,9.56,8.86,14.7,5.95,10.38,12.39,21.67,18.27,34.12,6.08,12.34,11.78,25.77,16.7,40.03,1.19,3.58,2.38,7.19,3.59,10.83,1.03,3.7,2.08,7.42,3.13,11.16,1.11,3.73,1.98,7.55,2.79,11.4.78,3.86,1.77,7.7,2.35,11.63,2.81,15.67,4.03,31.83,4.34,48l-.4,12.05c-.04,3.93-.42,7.98-.83,12.04-.44,4.03-.64,8.12-1.28,12.07-.61,3.96-1.22,7.9-1.83,11.83-.58,3.94-1.58,7.77-2.35,11.63-.82,3.86-1.68,7.68-2.79,11.4-1.05,3.74-2.09,7.47-3.13,11.16-1.2,3.64-2.4,7.25-3.59,10.83C1.76,41.47-3.93,54.89-10.02,67.24c-5.88,12.46-12.31,23.75-18.27,34.13-3.07,5.13-5.99,10.06-8.86,14.69-2.93,4.59-5.72,8.94-8.34,13.02-5.33,8.1-9.99,15.15-13.89,20.91-3.84,5.8-7.05,10.23-9.16,13.31-2.13,3.05-3.27,4.69-3.27,4.69,0,0,3.91-6.91,10.76-19.03,3.48-6.01,7.62-13.37,12.35-21.81,4.66-8.48,9.82-18.08,15.35-28.58,5.35-10.58,11.12-22.07,16.51-34.48C-11.29,51.73-6.29,38.38-1.73,24.41,2.96,10.47,6.17-4.38,8.96-19.48c.56-3.8,1.12-7.61,1.68-11.44.59-3.83.74-7.65,1.13-11.49.9-7.49.72-15.85,1.05-23.42-.2-15.6-1.25-31.19-3.85-46.35-2.78-15.1-6-29.94-10.68-43.89-4.57-13.96-9.56-27.32-15.11-39.68-5.4-12.42-11.15-23.9-16.51-34.48-5.53-10.5-10.69-20.1-15.35-28.58-4.73-8.44-8.86-15.79-12.35-21.8-6.85-12.1-10.77-19.02-10.77-19.02Z"></path><path class="st1" d="M-50.52,1123.84c3.27-4.96,6.86-10.33,10.79-16.21,6.73-10.01,14.29-21.33,22.31-33.85,7.95-12.57,16.6-26.2,24.85-41.19,8.47-14.85,16.56-31.06,23.8-48.37,1.74-4.36,3.49-8.75,5.25-13.18,1.65-4.47,3.08-9.07,4.65-13.65.75-2.3,1.57-4.59,2.28-6.92.63-2.35,1.26-4.71,1.89-7.08,1.17-4.76,2.64-9.47,3.56-14.34.92-4.86,1.85-9.75,2.78-14.65.53-2.43.8-4.94,1.08-7.45l.87-7.53.87-7.55c.29-2.52.25-4.95.39-7.43l.6-15.01c-.45-20.13-2.33-40.26-6.61-59.61-.92-4.86-2.39-9.58-3.57-14.34-.63-2.37-1.26-4.73-1.9-7.08-.71-2.33-1.52-4.61-2.28-6.91-1.57-4.57-3-9.17-4.65-13.65-1.76-4.43-3.51-8.82-5.25-13.19-7.24-17.3-15.34-33.51-23.8-48.36-8.25-14.99-16.9-28.61-24.85-41.18-8.02-12.52-15.58-23.84-22.31-33.85-6.7-10.02-12.52-18.77-17.23-26.02-9.44-14.52-14.83-22.82-14.83-22.82,0,0,1.18,2.18,3.4,6.25,2.26,4.05,5.36,10.12,9.76,17.59,8.61,15.05,21.27,36.33,36.3,61.86,7.38,12.84,15.4,26.73,23.17,41.74,7.94,14.93,15.34,31.12,22.19,48.12,6.94,16.99,12.1,35.22,16.35,53.88,4.02,18.74,5.71,38.17,6.05,57.58l-.52,14.64c-.13,2.45-.08,4.98-.35,7.36l-.8,7.15-.79,7.14c-.25,2.38-.48,4.75-.99,7.12-.87,4.74-1.74,9.47-2.6,14.17-4.26,18.65-9.41,36.88-16.35,53.88-6.85,17-14.26,33.19-22.19,48.12-7.77,15.01-15.79,28.9-23.17,41.74-12.33,20.92-23.01,38.94-31.22,53.07h3.04Z"></path><path class="st1" d="M-71.8-352.84s5.39,8.3,14.83,22.83c4.71,7.25,10.53,16,17.23,26.02,6.72,10.01,14.29,21.33,22.31,33.85,7.95,12.57,16.6,26.2,24.84,41.19,8.46,14.85,16.57,31.06,23.8,48.36,1.73,4.36,3.48,8.76,5.25,13.18,1.65,4.47,3.08,9.07,4.65,13.65.75,2.3,1.57,4.59,2.28,6.91.63,2.35,1.26,4.71,1.9,7.08,1.18,4.75,2.65,9.47,3.57,14.33,4.28,19.36,6.16,39.48,6.61,59.62l-.6,15.01c-.14,2.48-.11,4.91-.39,7.42l-.87,7.55-.87,7.53c-.29,2.51-.55,5.02-1.08,7.45-.93,4.9-1.86,9.78-2.78,14.65-.92,4.86-2.4,9.57-3.56,14.34-.63,2.37-1.26,4.73-1.89,7.08-.71,2.33-1.53,4.62-2.28,6.91-1.57,4.58-3,9.18-4.65,13.65-1.76,4.42-3.51,8.82-5.25,13.18-7.24,17.3-15.33,33.51-23.8,48.37-8.25,14.99-16.89,28.62-24.85,41.19-8.02,12.52-15.58,23.83-22.31,33.85-6.7,10.02-12.52,18.77-17.24,26.02-9.44,14.52-14.83,22.81-14.83,22.81,0,0,1.18-2.18,3.4-6.25,2.25-4.06,5.36-10.12,9.76-17.59,8.6-15.04,21.26-36.34,36.29-61.87,7.38-12.84,15.4-26.72,23.17-41.74,7.93-14.92,15.34-31.11,22.2-48.12,6.94-16.99,12.09-35.22,16.35-53.88.86-4.71,1.73-9.44,2.6-14.17.51-2.37.74-4.75.99-7.13l.79-7.14.8-7.16c.27-2.38.22-4.91.35-7.36l.52-14.63c-.33-19.42-2.02-38.84-6.05-57.59-4.24-18.66-9.41-36.88-16.35-53.88-6.86-17-14.25-33.19-22.19-48.12-7.77-15.02-15.78-28.9-23.17-41.74-15.03-25.54-27.7-46.82-36.3-61.87-4.4-7.47-7.5-13.53-9.76-17.58-2.22-4.08-3.4-6.25-3.4-6.25Z"></path><path class="st1" d="M-16.26,1123.84c1.68-2.6,3.35-5.19,5.08-7.86,9.94-15.27,20.84-31.76,31.86-49.58,10.97-17.84,22.33-36.9,32.33-57.63,10.07-20.65,19.14-42.85,25.31-66.37,3.21-11.73,5.44-23.81,7.19-36l1.09-9.19c.36-3.06.49-6.2.75-9.3.58-6.35.5-12.12.71-18.47-.19-12.36-.86-24.74-2.56-36.95-1.76-12.19-3.99-24.27-7.19-36-6.19-23.52-15.24-45.72-25.32-66.37-10-20.73-21.36-39.78-32.33-57.63-11.02-17.82-21.92-34.31-31.86-49.58-9.91-15.29-18.96-29.3-26.68-41.91-7.72-12.61-14.04-23.84-19.06-33.2-4.96-9.39-8.74-16.82-11.16-21.99-2.42-5.16-3.71-7.91-3.71-7.91,0,0,1.12,2.83,3.21,8.13,2.13,5.28,5.32,13.04,9.92,22.65,4.59,9.61,10.41,21.18,17.58,34.19,7.14,13.02,15.55,27.51,25.03,43.1,9.42,15.63,19.73,32.46,30.32,50.39,10.48,17.98,21.18,37.13,30.77,57.58,9.67,20.4,17.95,42.23,23.9,65.01,3.06,11.38,5.14,23.07,6.79,34.84,1.58,11.8,2.16,23.73,2.3,35.66-.2,5.8-.09,12.2-.62,17.95-.23,2.95-.33,5.88-.67,8.84l-1.01,8.87c-1.65,11.77-3.73,23.46-6.79,34.84-5.97,22.77-14.24,44.61-23.91,65-9.59,20.44-20.3,39.59-30.77,57.58-10.59,17.94-20.91,34.76-30.32,50.39-2.25,3.71-4.44,7.34-6.57,10.92h6.38Z"></path><path class="st1" d="M-71.46-416.54s1.29,2.74,3.72,7.9c2.43,5.15,6.22,12.57,11.19,21.94,5.03,9.34,11.36,20.55,19.08,33.14,7.72,12.59,16.77,26.58,26.67,41.85,9.93,15.25,20.81,31.72,31.82,49.53,10.94,17.84,22.29,36.87,32.24,57.59,10.04,20.63,19.06,42.82,25.19,66.33,3.21,11.71,5.39,23.8,7.12,35.98,1.7,12.24,2.32,24.45,2.49,37.02-.15,11.97-.92,24.68-2.59,36.8-1.77,12.17-4.04,24.24-7.24,35.95-6.2,23.49-15.27,45.65-25.35,66.27-10,20.69-21.34,39.73-32.31,57.55-11.02,17.8-21.9,34.27-31.82,49.52-9.9,15.27-18.93,29.27-26.64,41.87-7.72,12.59-14.03,23.81-19.04,33.16-4.95,9.37-8.74,16.81-11.15,21.96-2.42,5.15-3.71,7.9-3.71,7.9,0,0,1.12-2.83,3.21-8.12,2.13-5.28,5.31-13.02,9.9-22.63,4.59-9.6,10.4-21.16,17.55-34.15,7.13-13.01,15.53-27.49,24.99-43.06,9.4-15.61,19.71-32.42,30.29-50.33,10.47-17.97,21.16-37.09,30.76-57.5,9.67-20.37,17.94-42.17,23.94-64.91,3.04-11.37,5.17-23.03,6.83-34.8,1.56-11.85,2.21-23.42,2.34-35.72-.12-11.7-.65-23.78-2.23-35.51-1.62-11.76-3.66-23.44-6.72-34.81-5.9-22.77-14.14-44.58-23.77-64.97-9.55-20.43-20.22-39.57-30.68-57.54-10.57-17.92-20.87-34.73-30.28-50.34-9.47-15.57-17.88-30.04-25.02-43.03-7.16-12.99-12.99-24.53-17.6-34.13-4.6-9.59-7.81-17.33-9.95-22.6-2.11-5.3-3.23-8.11-3.23-8.11Z"></path><path class="st1" d="M18.63,1123.84c2.38-3.82,4.77-7.62,7.17-11.44,22.96-36.52,46.77-73.43,64.99-113.78,9.09-20.14,16.7-41.12,21.91-62.8l3.44-16.37,2.49-16.56,1.52-16.83.51-16.61c-.04-22.35-2.76-44.69-7.97-66.36-5.2-21.68-12.82-42.66-21.91-62.8-18.22-40.35-42.03-77.26-64.99-113.78-22.98-36.5-45.4-72.96-61.33-111.74-7.97-19.35-14.26-39.22-18.28-59.4-1.19-5.01-1.79-10.12-2.59-15.18-.9-5.07-1.26-10.12-1.73-15.15-.21-2.53-.54-5.01-.64-7.59l-.24-7.75-.25-7.74.21-7.47c.49-20.24,3.28-40.24,8.05-59.59,4.77-19.35,11.4-38.05,19.23-56.03,15.77-35.97,36.03-68.97,55.89-100.97,19.93-31.98,39.63-63.15,55.58-95.13,16.16-31.82,28.01-64.71,34.04-97.43,2.78-16.3,4.44-32.83,4.47-48.48.1-16.01-1.19-31.47-3.65-46.42-2.45-14.93-6.02-29.26-10.35-42.89-4.38-13.62-9.52-26.53-15.01-38.79-10.99-24.53-23.51-46.34-35.47-66.18-12.01-19.83-23.6-37.66-33.88-53.87-20.66-32.36-36-58.35-45.22-76.74-2.36-4.57-4.38-8.64-6.03-12.19-1.71-3.53-3.11-6.52-4.16-8.96-2.16-4.85-3.27-7.36-3.27-7.36,0,0,1.07,2.52,3.15,7.42,1.01,2.46,2.36,5.47,4.01,9.03,1.6,3.58,3.55,7.69,5.83,12.3,8.95,18.55,23.74,44.93,44.05,77.54,10.08,16.35,21.43,34.32,33.16,54.25,11.68,19.94,23.86,41.81,34.44,66.27,5.29,12.22,10.21,25.06,14.36,38.56,4.1,13.51,7.43,27.66,9.65,42.37,2.2,14.68,3.37,30.01,3.15,45.5-.18,15.87-1.91,31.49-4.76,47.61-6.17,32.04-18.03,64.23-34.25,95.55-16,31.46-35.81,62.28-56.02,94.15-20.12,31.9-40.85,65-57.21,101.54-16.4,36.4-27.45,76.83-28.47,118.69l-.22,7.98.22,7.73.22,7.75c.09,2.6.43,5.27.63,7.91.48,5.28.85,10.61,1.76,15.81.82,5.22,1.43,10.49,2.64,15.66,4.09,20.82,10.52,41.28,18.62,61.1,16.21,39.73,38.85,76.7,61.76,113.3,22.91,36.62,46.36,73.27,64.07,112.78,8.84,19.72,16.17,40.13,21.16,61.12,4.99,20.98,7.55,42.52,7.53,64.07l-.49,16.3-1.41,15.95-2.36,15.99-3.28,15.83c-4.98,20.99-12.32,41.4-21.15,61.12-17.71,39.51-41.17,76.15-64.07,112.78-3.42,5.46-6.82,10.94-10.21,16.42h10.98Z"></path><path class="st1" d="M51.23,1123.84c2.38-3.82,4.77-7.62,7.17-11.44,22.96-36.52,46.77-73.43,64.99-113.78,9.09-20.14,16.7-41.12,21.91-62.8l3.44-16.37,2.49-16.56,1.52-16.83.51-16.61c-.04-22.35-2.76-44.69-7.97-66.36-5.21-21.68-12.82-42.66-21.91-62.8-18.22-40.35-42.03-77.26-64.99-113.78-22.98-36.5-45.4-72.96-61.34-111.74-7.97-19.35-14.26-39.22-18.28-59.4-1.19-5.01-1.79-10.12-2.59-15.18-.9-5.07-1.26-10.12-1.73-15.15-.2-2.53-.54-5.01-.64-7.59l-.25-7.75-.24-7.74.21-7.47c.49-20.24,3.28-40.25,8.05-59.59,4.77-19.35,11.4-38.05,19.23-56.03,15.77-35.97,36.04-68.97,55.89-100.97,19.93-31.98,39.63-63.15,55.58-95.13,16.16-31.82,28.01-64.71,34.04-97.43,2.78-16.31,4.44-32.83,4.47-48.48.1-16.01-1.19-31.46-3.65-46.41-2.45-14.93-6.02-29.26-10.35-42.89-4.38-13.62-9.52-26.53-15.01-38.79-10.99-24.53-23.51-46.34-35.47-66.18-12.01-19.83-23.6-37.66-33.88-53.87-20.66-32.36-36-58.35-45.22-76.74-2.36-4.57-4.38-8.64-6.03-12.19-1.71-3.53-3.11-6.52-4.16-8.96-2.16-4.85-3.27-7.36-3.27-7.36,0,0,1.07,2.52,3.15,7.42,1.01,2.46,2.36,5.47,4.01,9.03,1.6,3.58,3.55,7.69,5.83,12.3,8.95,18.55,23.74,44.93,44.05,77.54,10.08,16.35,21.44,34.32,33.16,54.25,11.68,19.93,23.86,41.81,34.44,66.27,5.29,12.22,10.21,25.06,14.36,38.56,4.1,13.51,7.43,27.66,9.65,42.37,2.2,14.68,3.37,30.01,3.15,45.5-.18,15.88-1.91,31.5-4.76,47.62-6.17,32.04-18.03,64.23-34.25,95.55-16.01,31.46-35.81,62.28-56.02,94.15-20.12,31.89-40.85,65-57.22,101.54-16.4,36.4-27.45,76.83-28.47,118.69l-.23,7.97.22,7.73.23,7.75c.09,2.59.43,5.27.63,7.91.48,5.28.85,10.61,1.76,15.81.82,5.22,1.43,10.49,2.64,15.66,4.09,20.82,10.52,41.28,18.62,61.1,16.21,39.73,38.85,76.7,61.76,113.3,22.9,36.62,46.36,73.27,64.07,112.78,8.84,19.72,16.17,40.13,21.16,61.12,4.99,20.98,7.55,42.52,7.53,64.07l-.49,16.3-1.41,15.95-2.36,15.99-3.28,15.83c-4.98,20.99-12.32,41.4-21.15,61.12-17.71,39.51-41.17,76.15-64.07,112.78-3.42,5.46-6.82,10.94-10.21,16.42h10.99Z"></path><path class="st1" d="M83.83,1123.84c2.38-3.82,4.77-7.62,7.17-11.44,22.96-36.52,46.77-73.43,65-113.78,9.09-20.14,16.7-41.12,21.91-62.8l3.44-16.37,2.49-16.56,1.52-16.83.51-16.61c-.04-22.35-2.76-44.69-7.97-66.36-5.21-21.68-12.82-42.66-21.91-62.8-18.22-40.35-42.03-77.26-64.99-113.78-22.98-36.5-45.41-72.96-61.33-111.74-7.97-19.35-14.26-39.22-18.28-59.4-1.19-5.01-1.79-10.12-2.59-15.18-.9-5.07-1.26-10.12-1.73-15.15-.21-2.53-.54-5-.64-7.59l-.24-7.75-.25-7.74.21-7.47c.49-20.24,3.28-40.24,8.05-59.59,4.77-19.34,11.4-38.05,19.23-56.03,15.77-35.97,36.04-68.97,55.89-100.97,19.92-31.99,39.63-63.16,55.58-95.13,16.16-31.82,28.01-64.71,34.04-97.43,2.78-16.3,4.44-32.83,4.47-48.48.1-16.01-1.19-31.46-3.65-46.42-2.45-14.93-6.02-29.26-10.35-42.89-4.38-13.62-9.52-26.53-15.01-38.79-10.99-24.52-23.51-46.34-35.47-66.18-12.01-19.83-23.6-37.66-33.88-53.87-20.66-32.36-35.99-58.35-45.22-76.74-2.36-4.57-4.38-8.64-6.03-12.19-1.71-3.53-3.11-6.52-4.16-8.96-2.16-4.85-3.27-7.36-3.27-7.36,0,0,1.07,2.52,3.15,7.42,1.01,2.46,2.36,5.47,4.01,9.03,1.6,3.58,3.55,7.69,5.83,12.3,8.95,18.55,23.74,44.93,44.05,77.54,10.07,16.35,21.43,34.33,33.16,54.25,11.68,19.94,23.86,41.81,34.44,66.27,5.29,12.22,10.21,25.06,14.36,38.56,4.1,13.51,7.43,27.66,9.65,42.37,2.2,14.68,3.37,30.01,3.15,45.5-.18,15.87-1.91,31.49-4.76,47.61-6.17,32.04-18.03,64.23-34.25,95.55-16.01,31.46-35.82,62.29-56.02,94.15-20.12,31.9-40.85,65-57.21,101.54C9.49,311.95-1.56,352.38-2.58,394.24l-.23,7.98.23,7.73.23,7.75c.09,2.6.43,5.27.63,7.91.48,5.28.86,10.61,1.76,15.81.81,5.22,1.43,10.49,2.64,15.66,4.09,20.82,10.52,41.28,18.62,61.1,16.21,39.73,38.85,76.7,61.76,113.3,22.91,36.62,46.36,73.27,64.07,112.78,8.84,19.72,16.17,40.13,21.16,61.12,4.99,20.98,7.55,42.52,7.53,64.07l-.49,16.3-1.41,15.95-2.36,15.99-3.28,15.83c-4.98,20.99-12.32,41.4-21.16,61.12-17.71,39.51-41.17,76.15-64.07,112.78-3.42,5.46-6.82,10.94-10.21,16.42h10.98Z"></path><path class="st1" d="M116.42,1123.84c2.38-3.82,4.77-7.62,7.17-11.44,22.96-36.52,46.77-73.43,64.99-113.78,9.09-20.14,16.7-41.12,21.91-62.8l3.44-16.37,2.49-16.56,1.52-16.83.52-16.61c-.04-22.35-2.76-44.69-7.97-66.36-5.21-21.68-12.82-42.66-21.91-62.8-18.22-40.35-42.03-77.26-64.99-113.78-22.98-36.5-45.4-72.96-61.33-111.74-7.97-19.35-14.26-39.22-18.28-59.4-1.19-5.01-1.79-10.12-2.59-15.18-.9-5.07-1.26-10.12-1.73-15.15-.21-2.53-.54-5.01-.64-7.59l-.25-7.75-.24-7.74.21-7.47c.49-20.24,3.28-40.25,8.05-59.59,4.77-19.35,11.4-38.05,19.23-56.03,15.77-35.97,36.03-68.97,55.89-100.97,19.93-31.98,39.63-63.15,55.58-95.13,16.16-31.82,28.01-64.71,34.04-97.43,2.78-16.31,4.44-32.83,4.47-48.48.1-16.01-1.19-31.46-3.65-46.41-2.45-14.93-6.02-29.26-10.35-42.89-4.38-13.62-9.52-26.53-15.01-38.79-10.99-24.53-23.51-46.34-35.47-66.18-12.01-19.83-23.6-37.66-33.88-53.87-20.66-32.36-36-58.35-45.22-76.75-2.36-4.56-4.38-8.63-6.03-12.19-1.71-3.53-3.11-6.52-4.16-8.96-2.16-4.85-3.27-7.36-3.27-7.36,0,0,1.07,2.52,3.15,7.42,1.01,2.46,2.36,5.47,4.01,9.03,1.6,3.58,3.55,7.69,5.83,12.3,8.95,18.54,23.74,44.93,44.05,77.54,10.08,16.35,21.43,34.32,33.16,54.25,11.68,19.93,23.86,41.81,34.44,66.27,5.29,12.22,10.21,25.06,14.36,38.56,4.1,13.51,7.43,27.66,9.65,42.37,2.2,14.68,3.37,30.01,3.15,45.5-.18,15.88-1.91,31.5-4.76,47.62-6.17,32.04-18.03,64.23-34.25,95.55-16,31.46-35.81,62.28-56.02,94.15-20.12,31.89-40.85,65-57.21,101.54-16.4,36.4-27.45,76.83-28.47,118.69l-.23,7.97.22,7.73.22,7.75c.09,2.59.43,5.27.64,7.91.48,5.28.85,10.61,1.76,15.81.81,5.22,1.43,10.49,2.64,15.66,4.09,20.82,10.52,41.28,18.62,61.1,16.21,39.73,38.85,76.69,61.76,113.3,22.9,36.62,46.36,73.27,64.07,112.78,8.84,19.72,16.17,40.13,21.16,61.12,4.99,20.98,7.55,42.52,7.53,64.07l-.49,16.3-1.42,15.95-2.36,15.99-3.28,15.83c-4.98,20.99-12.32,41.4-21.16,61.12-17.71,39.51-41.17,76.15-64.07,112.78-3.42,5.46-6.82,10.94-10.21,16.42h10.99Z"></path><path class="st1" d="M149.02,1123.84c2.38-3.82,4.77-7.62,7.17-11.44,22.96-36.52,46.77-73.43,64.99-113.78,9.09-20.14,16.7-41.12,21.91-62.8l3.44-16.37,2.49-16.56,1.52-16.83.52-16.61c-.04-22.35-2.76-44.69-7.97-66.36-5.21-21.68-12.82-42.66-21.91-62.8-18.22-40.35-42.03-77.26-64.99-113.78-22.98-36.5-45.4-72.96-61.34-111.74-7.97-19.35-14.26-39.22-18.28-59.4-1.19-5.01-1.79-10.12-2.59-15.18-.9-5.07-1.26-10.12-1.73-15.15-.21-2.53-.54-5.01-.64-7.59l-.24-7.75-.24-7.74.21-7.47c.49-20.24,3.28-40.24,8.05-59.59,4.77-19.35,11.4-38.05,19.22-56.03,15.77-35.97,36.04-68.97,55.89-100.97,19.93-31.98,39.63-63.15,55.58-95.13,16.16-31.82,28.01-64.71,34.04-97.43,2.78-16.3,4.44-32.83,4.47-48.48.1-16.01-1.19-31.46-3.65-46.41-2.45-14.93-6.02-29.26-10.35-42.89-4.38-13.62-9.52-26.53-15.01-38.79-10.99-24.53-23.51-46.34-35.47-66.18-12.01-19.83-23.6-37.66-33.88-53.87-20.66-32.36-36-58.35-45.22-76.75-2.36-4.56-4.38-8.63-6.03-12.19-1.71-3.53-3.11-6.52-4.16-8.96-2.16-4.85-3.27-7.36-3.27-7.36,0,0,1.07,2.52,3.15,7.42,1.01,2.46,2.36,5.47,4.01,9.03,1.6,3.58,3.54,7.69,5.83,12.3,8.95,18.54,23.74,44.93,44.05,77.54,10.08,16.35,21.44,34.32,33.16,54.25,11.68,19.93,23.86,41.81,34.44,66.27,5.29,12.22,10.21,25.06,14.36,38.56,4.1,13.51,7.43,27.66,9.65,42.37,2.2,14.68,3.37,30.01,3.15,45.5-.18,15.87-1.91,31.49-4.76,47.61-6.17,32.04-18.03,64.23-34.25,95.55-16,31.46-35.81,62.28-56.02,94.15-20.12,31.89-40.85,65-57.21,101.54-16.4,36.4-27.46,76.83-28.47,118.69l-.23,7.97.22,7.73.22,7.75c.09,2.6.43,5.27.63,7.91.48,5.28.86,10.61,1.76,15.81.82,5.22,1.43,10.49,2.64,15.66,4.09,20.82,10.52,41.28,18.62,61.1,16.21,39.73,38.85,76.7,61.76,113.3,22.9,36.62,46.36,73.27,64.07,112.78,8.84,19.72,16.17,40.13,21.16,61.12,4.99,20.98,7.55,42.52,7.53,64.07l-.49,16.3-1.41,15.95-2.36,15.99-3.28,15.83c-4.98,20.99-12.32,41.4-21.15,61.12-17.71,39.51-41.17,76.15-64.07,112.78-3.42,5.46-6.82,10.94-10.21,16.42h10.99Z"></path><path class="st1" d="M181.62,1123.84c2.38-3.82,4.77-7.62,7.17-11.44,22.96-36.52,46.77-73.43,64.99-113.78,9.09-20.14,16.7-41.12,21.91-62.8l3.44-16.37,2.49-16.56,1.52-16.83.51-16.61c-.04-22.35-2.76-44.69-7.97-66.36-5.21-21.68-12.82-42.66-21.91-62.8-18.22-40.35-42.03-77.26-64.99-113.78-22.98-36.5-45.4-72.96-61.33-111.74-7.97-19.35-14.26-39.22-18.28-59.4-1.19-5.01-1.79-10.12-2.59-15.18-.9-5.07-1.26-10.12-1.73-15.15-.21-2.53-.54-5.01-.64-7.59l-.24-7.75-.25-7.74.21-7.47c.49-20.24,3.28-40.25,8.05-59.59,4.77-19.35,11.4-38.05,19.22-56.03,15.77-35.97,36.04-68.97,55.89-100.97,19.93-31.98,39.63-63.15,55.58-95.13,16.16-31.82,28.01-64.71,34.04-97.43,2.78-16.3,4.44-32.83,4.48-48.48.1-16.01-1.19-31.46-3.65-46.41-2.45-14.93-6.02-29.26-10.35-42.89-4.38-13.62-9.52-26.53-15.01-38.79-10.99-24.53-23.51-46.34-35.47-66.18-12.01-19.83-23.6-37.66-33.88-53.87-20.66-32.36-36-58.35-45.22-76.74-2.36-4.57-4.38-8.64-6.03-12.19-1.71-3.53-3.11-6.52-4.16-8.96-2.16-4.85-3.27-7.36-3.27-7.36,0,0,1.07,2.52,3.15,7.42,1.01,2.46,2.36,5.47,4.01,9.03,1.6,3.58,3.55,7.69,5.83,12.3,8.95,18.55,23.74,44.93,44.05,77.54,10.08,16.35,21.44,34.32,33.16,54.25,11.68,19.94,23.86,41.81,34.44,66.27,5.29,12.22,10.2,25.06,14.36,38.56,4.1,13.51,7.43,27.66,9.65,42.37,2.2,14.68,3.37,30.01,3.15,45.5-.18,15.88-1.91,31.5-4.76,47.62-6.17,32.04-18.03,64.23-34.25,95.55-16.01,31.46-35.81,62.28-56.02,94.15-20.13,31.89-40.85,65-57.22,101.54-16.4,36.4-27.45,76.83-28.46,118.69l-.23,7.97.23,7.73.22,7.75c.09,2.6.43,5.27.63,7.91.48,5.28.86,10.61,1.76,15.81.82,5.22,1.43,10.49,2.64,15.66,4.09,20.82,10.52,41.28,18.62,61.1,16.21,39.73,38.85,76.7,61.76,113.3,22.9,36.62,46.36,73.27,64.07,112.78,8.84,19.72,16.17,40.13,21.16,61.12,4.98,20.98,7.55,42.52,7.53,64.07l-.49,16.3-1.41,15.95-2.36,15.99-3.28,15.83c-4.98,20.99-12.32,41.4-21.16,61.12-17.71,39.51-41.17,76.15-64.07,112.78-3.42,5.46-6.82,10.94-10.21,16.42h10.98Z"></path><path class="st1" d="M214.22,1123.84c2.38-3.82,4.77-7.62,7.17-11.44,22.96-36.52,46.77-73.43,64.99-113.78,9.09-20.14,16.7-41.12,21.91-62.8l3.44-16.37,2.49-16.56,1.52-16.83.51-16.61c-.04-22.35-2.76-44.69-7.97-66.36-5.21-21.68-12.82-42.66-21.91-62.8-18.22-40.35-42.03-77.26-64.99-113.78-22.98-36.5-45.4-72.96-61.33-111.74-7.97-19.35-14.26-39.22-18.28-59.4-1.19-5.01-1.79-10.12-2.59-15.18-.91-5.07-1.26-10.12-1.73-15.15-.21-2.53-.54-5.01-.64-7.59l-.25-7.75-.24-7.74.21-7.47c.49-20.24,3.28-40.25,8.05-59.59,4.77-19.35,11.4-38.05,19.22-56.03,15.77-35.97,36.03-68.97,55.89-100.97,19.93-31.98,39.63-63.15,55.58-95.13,16.16-31.82,28.01-64.71,34.04-97.43,2.78-16.31,4.44-32.83,4.48-48.48.1-16.01-1.19-31.46-3.65-46.41-2.45-14.93-6.02-29.26-10.35-42.89-4.38-13.62-9.52-26.53-15.01-38.79-10.99-24.53-23.51-46.34-35.47-66.18-12.01-19.83-23.6-37.66-33.88-53.87-20.66-32.36-36-58.35-45.22-76.75-2.36-4.56-4.38-8.63-6.03-12.19-1.71-3.53-3.11-6.52-4.16-8.96-2.16-4.85-3.27-7.36-3.27-7.36,0,0,1.07,2.52,3.15,7.42,1.01,2.46,2.36,5.47,4.01,9.03,1.59,3.58,3.55,7.69,5.83,12.3,8.95,18.54,23.74,44.93,44.05,77.54,10.08,16.35,21.43,34.32,33.16,54.25,11.68,19.93,23.86,41.81,34.44,66.27,5.29,12.22,10.2,25.06,14.36,38.56,4.1,13.51,7.43,27.66,9.65,42.37,2.2,14.68,3.37,30.01,3.15,45.5-.18,15.88-1.91,31.5-4.76,47.62-6.17,32.04-18.03,64.23-34.25,95.55-16,31.46-35.81,62.28-56.02,94.15-20.12,31.89-40.85,65-57.21,101.54-16.4,36.4-27.45,76.83-28.46,118.69l-.23,7.97.23,7.73.22,7.75c.09,2.59.43,5.27.63,7.91.48,5.28.86,10.61,1.76,15.81.81,5.22,1.43,10.49,2.64,15.66,4.09,20.82,10.52,41.28,18.62,61.1,16.21,39.73,38.85,76.69,61.76,113.3,22.9,36.62,46.36,73.27,64.07,112.78,8.84,19.72,16.17,40.13,21.16,61.12,4.98,20.98,7.55,42.52,7.53,64.07l-.49,16.3-1.42,15.95-2.36,15.99-3.28,15.83c-4.98,20.99-12.32,41.4-21.15,61.12-17.7,39.51-41.17,76.15-64.07,112.78-3.42,5.46-6.82,10.94-10.21,16.42h10.99Z"></path><path class="st1" d="M246.81,1123.84c2.38-3.82,4.77-7.62,7.17-11.44,22.96-36.52,46.77-73.43,64.99-113.78,9.09-20.14,16.7-41.12,21.91-62.8l3.44-16.37,2.49-16.56,1.52-16.83.51-16.61c-.04-22.35-2.76-44.69-7.97-66.36-5.21-21.68-12.82-42.66-21.91-62.8-18.22-40.35-42.03-77.26-64.99-113.78-22.98-36.5-45.4-72.96-61.33-111.74-7.97-19.35-14.26-39.22-18.28-59.4-1.19-5.01-1.79-10.12-2.59-15.18-.9-5.07-1.26-10.12-1.73-15.15-.21-2.53-.54-5-.64-7.59l-.24-7.75-.24-7.74.21-7.47c.49-20.24,3.28-40.24,8.05-59.59,4.77-19.34,11.4-38.05,19.22-56.03,15.77-35.97,36.03-68.97,55.89-100.97,19.93-31.98,39.63-63.15,55.58-95.13,16.16-31.82,28.01-64.71,34.04-97.43,2.78-16.3,4.44-32.83,4.47-48.48.1-16.01-1.19-31.47-3.65-46.42-2.45-14.93-6.02-29.26-10.35-42.89-4.38-13.62-9.52-26.53-15.01-38.79-10.99-24.53-23.51-46.34-35.47-66.18-12.01-19.83-23.6-37.66-33.88-53.87-20.66-32.36-36-58.35-45.22-76.74-2.36-4.57-4.38-8.64-6.03-12.19-1.71-3.53-3.11-6.52-4.16-8.96-2.16-4.85-3.27-7.36-3.27-7.36,0,0,1.07,2.52,3.15,7.42,1.01,2.46,2.36,5.47,4.01,9.03,1.6,3.58,3.55,7.69,5.83,12.3,8.95,18.55,23.74,44.93,44.05,77.54,10.08,16.35,21.44,34.33,33.16,54.25,11.68,19.94,23.86,41.81,34.44,66.27,5.29,12.22,10.2,25.06,14.36,38.56,4.1,13.51,7.43,27.66,9.65,42.37,2.2,14.68,3.37,30.01,3.15,45.5-.18,15.87-1.91,31.49-4.76,47.61-6.17,32.04-18.03,64.23-34.25,95.55-16.01,31.46-35.81,62.28-56.02,94.15-20.12,31.9-40.85,65-57.21,101.54-16.4,36.4-27.45,76.83-28.46,118.69l-.23,7.98.23,7.73.22,7.75c.09,2.6.43,5.27.63,7.91.48,5.28.86,10.61,1.76,15.81.82,5.22,1.43,10.49,2.64,15.66,4.09,20.82,10.52,41.28,18.62,61.1,16.21,39.73,38.85,76.7,61.76,113.3,22.9,36.62,46.36,73.27,64.07,112.78,8.84,19.72,16.17,40.13,21.16,61.12,4.99,20.98,7.55,42.52,7.53,64.07l-.49,16.3-1.41,15.95-2.36,15.99-3.28,15.83c-4.98,20.99-12.32,41.4-21.15,61.12-17.71,39.51-41.17,76.15-64.07,112.78-3.42,5.46-6.82,10.94-10.21,16.42h11Z"></path><path class="st1" d="M279.42,1123.84c2.38-3.82,4.77-7.62,7.17-11.44,22.96-36.52,46.77-73.43,64.99-113.78,9.09-20.14,16.7-41.12,21.91-62.8l3.44-16.37,2.49-16.56,1.52-16.83.51-16.61c-.04-22.35-2.76-44.69-7.97-66.36-5.21-21.68-12.82-42.66-21.91-62.8-18.22-40.35-42.03-77.26-64.99-113.78-22.98-36.5-45.4-72.96-61.34-111.74-7.96-19.35-14.26-39.22-18.28-59.4-1.19-5.01-1.79-10.12-2.59-15.18-.9-5.07-1.26-10.12-1.73-15.15-.21-2.53-.54-5.01-.64-7.59l-.24-7.75-.24-7.74.21-7.47c.49-20.24,3.28-40.24,8.05-59.59,4.77-19.35,11.4-38.05,19.22-56.03,15.77-35.97,36.03-68.97,55.89-100.97,19.93-31.98,39.63-63.15,55.58-95.13,16.16-31.82,28.01-64.71,34.04-97.43,2.78-16.3,4.44-32.83,4.47-48.48.1-16.01-1.19-31.47-3.65-46.42-2.45-14.93-6.02-29.26-10.35-42.89-4.38-13.62-9.52-26.53-15.01-38.79-10.99-24.53-23.5-46.34-35.47-66.18-12.01-19.83-23.6-37.66-33.88-53.87-20.66-32.36-36-58.35-45.22-76.74-2.36-4.57-4.37-8.64-6.03-12.19-1.71-3.53-3.11-6.52-4.16-8.96-2.16-4.85-3.27-7.36-3.27-7.36,0,0,1.07,2.52,3.15,7.42,1.01,2.46,2.36,5.47,4.01,9.03,1.6,3.58,3.55,7.69,5.83,12.3,8.95,18.55,23.74,44.93,44.05,77.54,10.08,16.35,21.43,34.32,33.16,54.25,11.68,19.94,23.86,41.81,34.44,66.27,5.29,12.22,10.21,25.06,14.36,38.56,4.1,13.51,7.43,27.66,9.65,42.37,2.2,14.68,3.37,30.01,3.15,45.5-.18,15.87-1.91,31.49-4.76,47.61-6.17,32.04-18.03,64.23-34.25,95.55-16.01,31.46-35.81,62.28-56.02,94.15-20.12,31.89-40.85,65-57.22,101.54-16.39,36.4-27.45,76.83-28.46,118.69l-.23,7.97.22,7.73.22,7.75c.09,2.6.43,5.27.63,7.91.48,5.28.86,10.61,1.76,15.81.82,5.22,1.43,10.49,2.64,15.66,4.09,20.82,10.52,41.28,18.62,61.1,16.21,39.73,38.85,76.7,61.76,113.3,22.9,36.62,46.36,73.27,64.07,112.78,8.84,19.72,16.17,40.13,21.16,61.12,4.98,20.98,7.55,42.52,7.53,64.07l-.49,16.3-1.42,15.95-2.36,15.99-3.28,15.83c-4.98,20.99-12.32,41.4-21.15,61.12-17.71,39.51-41.17,76.15-64.07,112.78-3.42,5.46-6.82,10.94-10.21,16.42h10.99Z"></path><path class="st1" d="M312.01,1123.84c2.38-3.82,4.77-7.62,7.17-11.44,22.96-36.52,46.77-73.43,64.99-113.78,9.09-20.14,16.7-41.12,21.91-62.8l3.44-16.37,2.49-16.56,1.52-16.83.51-16.61c-.04-22.35-2.76-44.69-7.97-66.36-5.21-21.68-12.82-42.66-21.91-62.8-18.22-40.35-42.03-77.26-64.99-113.78-22.98-36.5-45.4-72.96-61.33-111.74-7.97-19.35-14.26-39.22-18.28-59.4-1.19-5.01-1.79-10.12-2.59-15.18-.9-5.07-1.26-10.12-1.73-15.15-.21-2.53-.54-5.01-.64-7.59l-.24-7.75-.25-7.74.21-7.47c.49-20.24,3.28-40.25,8.05-59.59,4.77-19.35,11.4-38.05,19.22-56.03,15.77-35.97,36.03-68.97,55.89-100.97,19.93-31.98,39.63-63.15,55.58-95.13,16.16-31.82,28.01-64.71,34.04-97.43,2.78-16.31,4.44-32.83,4.48-48.48.1-16.01-1.19-31.46-3.65-46.41-2.45-14.93-6.02-29.26-10.35-42.89-4.38-13.62-9.52-26.53-15.01-38.79-10.99-24.53-23.51-46.34-35.47-66.18-12.01-19.83-23.6-37.66-33.88-53.87-20.66-32.36-36-58.35-45.22-76.74-2.36-4.57-4.37-8.64-6.03-12.19-1.71-3.53-3.11-6.52-4.16-8.96-2.16-4.85-3.27-7.36-3.27-7.36,0,0,1.07,2.52,3.15,7.42,1.01,2.46,2.36,5.47,4.01,9.03,1.6,3.58,3.55,7.69,5.83,12.3,8.95,18.55,23.74,44.93,44.05,77.54,10.08,16.35,21.43,34.32,33.16,54.25,11.68,19.94,23.86,41.81,34.44,66.27,5.29,12.22,10.21,25.06,14.36,38.56,4.1,13.51,7.43,27.66,9.65,42.37,2.2,14.68,3.37,30.01,3.15,45.5-.18,15.88-1.91,31.5-4.76,47.62-6.17,32.04-18.03,64.23-34.25,95.55-16,31.46-35.81,62.28-56.02,94.15-20.12,31.89-40.85,65-57.21,101.54-16.4,36.4-27.45,76.83-28.46,118.69l-.23,7.97.22,7.73.23,7.75c.09,2.59.43,5.27.63,7.91.48,5.28.86,10.61,1.76,15.81.81,5.22,1.43,10.49,2.64,15.66,4.09,20.82,10.52,41.28,18.62,61.1,16.21,39.73,38.85,76.7,61.76,113.3,22.9,36.62,46.36,73.27,64.07,112.78,8.84,19.72,16.17,40.13,21.16,61.12,4.99,20.98,7.55,42.52,7.53,64.07l-.49,16.3-1.41,15.95-2.36,15.99-3.28,15.83c-4.98,20.99-12.32,41.4-21.16,61.12-17.71,39.51-41.17,76.15-64.07,112.78-3.42,5.46-6.82,10.94-10.21,16.42h10.98Z"></path><path class="st1" d="M344.61,1123.84c2.38-3.82,4.77-7.62,7.17-11.44,22.96-36.52,46.77-73.43,64.99-113.78,9.09-20.14,16.7-41.12,21.91-62.8l3.44-16.37,2.49-16.56,1.52-16.83.51-16.61c-.04-22.35-2.76-44.69-7.97-66.36-5.2-21.68-12.82-42.66-21.91-62.8-18.22-40.35-42.03-77.26-64.99-113.78-22.98-36.5-45.4-72.96-61.34-111.74-7.97-19.35-14.26-39.22-18.28-59.4-1.19-5.01-1.79-10.12-2.59-15.18-.9-5.07-1.26-10.12-1.73-15.15-.21-2.53-.54-5.01-.64-7.59l-.24-7.75-.25-7.74.21-7.47c.49-20.24,3.28-40.25,8.05-59.59,4.77-19.35,11.4-38.05,19.23-56.03,15.77-35.97,36.04-68.97,55.89-100.97,19.93-31.98,39.63-63.15,55.58-95.13,16.16-31.82,28.01-64.71,34.04-97.43,2.78-16.31,4.44-32.83,4.47-48.48.1-16.01-1.19-31.46-3.65-46.41-2.45-14.93-6.02-29.26-10.35-42.89-4.38-13.62-9.52-26.53-15.01-38.79-10.99-24.53-23.51-46.34-35.47-66.18-12.01-19.83-23.6-37.66-33.88-53.87-20.66-32.36-36-58.35-45.22-76.75-2.36-4.56-4.37-8.63-6.03-12.19-1.71-3.53-3.11-6.52-4.16-8.96-2.16-4.85-3.27-7.36-3.27-7.36,0,0,1.07,2.52,3.15,7.42,1.01,2.46,2.36,5.47,4.01,9.03,1.6,3.58,3.54,7.69,5.83,12.3,8.95,18.54,23.74,44.93,44.05,77.54,10.08,16.35,21.44,34.32,33.16,54.25,11.68,19.93,23.86,41.81,34.44,66.27,5.29,12.22,10.21,25.06,14.36,38.56,4.1,13.51,7.43,27.66,9.65,42.37,2.2,14.68,3.37,30.01,3.15,45.5-.18,15.88-1.91,31.5-4.76,47.62-6.17,32.04-18.03,64.23-34.25,95.55-16,31.46-35.81,62.28-56.02,94.15-20.12,31.89-40.85,65-57.22,101.54-16.4,36.4-27.45,76.83-28.47,118.69l-.22,7.97.22,7.73.23,7.75c.09,2.59.43,5.27.63,7.91.48,5.28.86,10.61,1.76,15.81.82,5.22,1.43,10.49,2.64,15.66,4.09,20.82,10.52,41.28,18.62,61.1,16.21,39.73,38.85,76.7,61.76,113.3,22.9,36.62,46.36,73.27,64.07,112.78,8.84,19.72,16.17,40.13,21.16,61.12,4.99,20.98,7.55,42.52,7.53,64.07l-.49,16.3-1.41,15.95-2.36,15.99-3.28,15.83c-4.98,20.99-12.32,41.4-21.15,61.12-17.71,39.51-41.17,76.15-64.07,112.78-3.42,5.46-6.82,10.94-10.21,16.42h10.99Z"></path><path class="st1" d="M377.21,1123.84c2.38-3.82,4.77-7.62,7.17-11.44,22.96-36.52,46.77-73.43,64.99-113.78,9.09-20.14,16.7-41.12,21.91-62.8l3.44-16.37,2.49-16.56,1.52-16.83.51-16.61c-.04-22.35-2.76-44.69-7.97-66.36-5.21-21.68-12.82-42.66-21.91-62.8-18.22-40.35-42.03-77.26-64.99-113.78-22.98-36.5-45.4-72.96-61.33-111.74-7.97-19.35-14.26-39.22-18.28-59.4-1.19-5.01-1.79-10.12-2.59-15.18-.9-5.07-1.26-10.12-1.73-15.15-.21-2.53-.54-5.01-.64-7.59l-.24-7.75-.25-7.74.21-7.47c.49-20.24,3.28-40.24,8.05-59.59,4.77-19.35,11.4-38.05,19.23-56.03,15.77-35.97,36.03-68.97,55.89-100.97,19.92-31.98,39.63-63.15,55.58-95.13,16.16-31.82,28.01-64.71,34.04-97.43,2.78-16.3,4.44-32.83,4.47-48.48.1-16.01-1.19-31.47-3.65-46.42-2.45-14.93-6.02-29.26-10.35-42.89-4.38-13.62-9.52-26.53-15.01-38.79-10.99-24.53-23.51-46.34-35.47-66.18-12.01-19.83-23.6-37.66-33.88-53.87-20.66-32.36-36-58.35-45.22-76.74-2.36-4.57-4.37-8.64-6.03-12.19-1.71-3.53-3.11-6.52-4.16-8.96-2.16-4.85-3.27-7.36-3.27-7.36,0,0,1.07,2.52,3.15,7.42,1.01,2.46,2.36,5.47,4.01,9.03,1.6,3.58,3.55,7.69,5.83,12.3,8.95,18.55,23.74,44.93,44.05,77.54,10.08,16.35,21.43,34.32,33.16,54.25,11.68,19.94,23.86,41.81,34.44,66.27,5.29,12.22,10.21,25.06,14.36,38.56,4.1,13.51,7.43,27.66,9.65,42.37,2.2,14.68,3.37,30.01,3.15,45.5-.18,15.87-1.91,31.49-4.76,47.61-6.17,32.04-18.03,64.23-34.25,95.55-16,31.46-35.81,62.28-56.02,94.15-20.12,31.9-40.85,65-57.21,101.54-16.39,36.4-27.45,76.83-28.46,118.69l-.22,7.98.22,7.73.22,7.75c.09,2.6.43,5.27.63,7.91.48,5.28.86,10.61,1.76,15.81.82,5.22,1.43,10.49,2.64,15.66,4.09,20.82,10.52,41.28,18.62,61.1,16.21,39.73,38.85,76.7,61.76,113.3,22.91,36.62,46.36,73.27,64.07,112.78,8.84,19.72,16.17,40.13,21.16,61.12,4.99,20.98,7.54,42.52,7.53,64.07l-.49,16.3-1.41,15.95-2.36,15.99-3.28,15.83c-4.98,20.99-12.32,41.4-21.15,61.12-17.71,39.51-41.17,76.15-64.07,112.78-3.42,5.46-6.82,10.94-10.21,16.42h10.98Z"></path><path class="st1" d="M409.8,1123.84c2.38-3.82,4.77-7.62,7.17-11.44,22.96-36.52,46.77-73.43,64.99-113.78,9.09-20.14,16.7-41.12,21.91-62.8l3.44-16.37,2.49-16.56,1.52-16.83.51-16.61c-.04-22.35-2.76-44.69-7.97-66.36-5.21-21.68-12.82-42.66-21.91-62.8-18.22-40.35-42.03-77.26-64.99-113.78-22.98-36.5-45.4-72.96-61.33-111.74-7.97-19.35-14.26-39.22-18.28-59.4-1.19-5.01-1.79-10.12-2.59-15.18-.9-5.07-1.26-10.12-1.73-15.15-.2-2.53-.54-5.01-.64-7.59l-.24-7.75-.25-7.74.21-7.47c.49-20.24,3.28-40.24,8.04-59.59,4.77-19.35,11.4-38.05,19.23-56.03,15.77-35.97,36.03-68.97,55.89-100.97,19.93-31.98,39.63-63.15,55.58-95.13,16.16-31.82,28.01-64.71,34.04-97.43,2.78-16.31,4.44-32.83,4.47-48.48.1-16.01-1.19-31.46-3.65-46.41-2.45-14.93-6.02-29.26-10.35-42.89-4.38-13.62-9.52-26.53-15.01-38.79-10.99-24.53-23.51-46.34-35.47-66.18-12.01-19.83-23.6-37.66-33.88-53.87-20.66-32.36-36-58.35-45.22-76.74-2.36-4.57-4.37-8.64-6.03-12.19-1.71-3.53-3.11-6.52-4.16-8.96-2.16-4.85-3.27-7.36-3.27-7.36,0,0,1.07,2.52,3.15,7.42,1.01,2.46,2.36,5.47,4.01,9.03,1.59,3.58,3.55,7.69,5.83,12.3,8.95,18.55,23.74,44.93,44.05,77.54,10.08,16.35,21.43,34.32,33.16,54.25,11.68,19.94,23.86,41.81,34.44,66.27,5.29,12.22,10.21,25.06,14.36,38.56,4.1,13.51,7.43,27.66,9.65,42.37,2.2,14.68,3.37,30.01,3.15,45.5-.18,15.88-1.91,31.5-4.76,47.62-6.17,32.04-18.03,64.23-34.24,95.55-16.01,31.46-35.81,62.28-56.02,94.15-20.12,31.89-40.85,65-57.21,101.54-16.4,36.4-27.45,76.83-28.46,118.69l-.23,7.97.23,7.73.22,7.75c.09,2.59.43,5.27.63,7.91.48,5.28.85,10.61,1.76,15.81.82,5.22,1.43,10.49,2.64,15.66,4.09,20.82,10.52,41.28,18.62,61.1,16.21,39.73,38.85,76.69,61.76,113.3,22.9,36.62,46.36,73.27,64.07,112.78,8.84,19.72,16.17,40.13,21.16,61.12,4.99,20.98,7.55,42.52,7.53,64.07l-.49,16.3-1.41,15.95-2.36,15.99-3.28,15.83c-4.98,20.99-12.32,41.4-21.16,61.12-17.71,39.51-41.17,76.15-64.07,112.78-3.42,5.46-6.82,10.94-10.21,16.42h10.98Z"></path><path class="st1" d="M442.4,1123.84c2.38-3.82,4.77-7.62,7.17-11.44,22.96-36.52,46.77-73.43,64.99-113.78,9.09-20.14,16.7-41.12,21.91-62.8l3.44-16.37,2.49-16.56,1.52-16.83.51-16.61c-.04-22.35-2.76-44.69-7.97-66.36-5.21-21.68-12.82-42.66-21.91-62.8-18.22-40.35-42.03-77.26-64.99-113.78-22.98-36.5-45.4-72.96-61.34-111.74-7.97-19.35-14.26-39.22-18.28-59.4-1.19-5.01-1.79-10.12-2.59-15.18-.9-5.07-1.26-10.12-1.73-15.15-.21-2.53-.54-5.01-.64-7.59l-.24-7.75-.24-7.74.21-7.47c.49-20.24,3.28-40.24,8.05-59.59,4.77-19.35,11.4-38.05,19.23-56.03,15.77-35.97,36.04-68.97,55.89-100.97,19.93-31.98,39.63-63.15,55.58-95.13,16.16-31.82,28.01-64.71,34.04-97.43,2.78-16.3,4.44-32.83,4.47-48.48.1-16.01-1.19-31.47-3.65-46.42-2.45-14.93-6.02-29.26-10.35-42.89-4.38-13.62-9.52-26.53-15.01-38.79-10.99-24.53-23.5-46.34-35.47-66.18-12.01-19.83-23.6-37.66-33.88-53.87-20.66-32.36-36-58.35-45.22-76.74-2.36-4.57-4.38-8.64-6.03-12.19-1.71-3.53-3.11-6.52-4.16-8.96-2.16-4.85-3.27-7.36-3.27-7.36,0,0,1.07,2.52,3.15,7.42,1.01,2.46,2.36,5.47,4.01,9.03,1.6,3.58,3.54,7.69,5.83,12.3,8.95,18.55,23.74,44.93,44.05,77.54,10.08,16.35,21.44,34.32,33.16,54.25,11.68,19.94,23.86,41.81,34.44,66.27,5.29,12.22,10.21,25.06,14.36,38.56,4.1,13.51,7.43,27.66,9.65,42.37,2.2,14.68,3.37,30.01,3.15,45.5-.18,15.87-1.91,31.49-4.76,47.61-6.17,32.04-18.03,64.23-34.25,95.55-16,31.46-35.81,62.28-56.02,94.15-20.12,31.89-40.85,65-57.21,101.54-16.4,36.4-27.46,76.83-28.47,118.69l-.23,7.97.23,7.73.23,7.75c.09,2.6.43,5.27.63,7.91.48,5.28.86,10.61,1.76,15.81.82,5.22,1.43,10.49,2.64,15.66,4.09,20.82,10.51,41.28,18.62,61.1,16.21,39.73,38.85,76.7,61.76,113.3,22.9,36.62,46.36,73.27,64.07,112.78,8.84,19.72,16.17,40.13,21.16,61.12,4.99,20.98,7.55,42.52,7.53,64.07l-.49,16.3-1.41,15.95-2.36,15.99-3.28,15.83c-4.98,20.99-12.32,41.4-21.16,61.12-17.71,39.51-41.17,76.15-64.07,112.78-3.42,5.46-6.82,10.94-10.21,16.42h10.99Z"></path><path class="st1" d="M475,1123.84c2.38-3.82,4.77-7.62,7.17-11.44,22.96-36.52,46.77-73.43,64.99-113.78,9.09-20.14,16.7-41.12,21.91-62.8l3.44-16.37,2.49-16.56,1.52-16.83.51-16.61c-.04-22.35-2.76-44.69-7.97-66.36-5.21-21.68-12.82-42.66-21.91-62.8-18.22-40.35-42.03-77.26-64.99-113.78-22.98-36.5-45.4-72.96-61.33-111.74-7.97-19.35-14.26-39.22-18.28-59.4-1.19-5.01-1.79-10.12-2.59-15.18-.9-5.07-1.26-10.12-1.73-15.15-.21-2.53-.54-5.01-.64-7.59l-.24-7.75-.24-7.74.21-7.47c.49-20.24,3.28-40.24,8.05-59.59,4.77-19.35,11.4-38.05,19.23-56.03,15.77-35.97,36.03-68.97,55.89-100.97,19.92-31.98,39.63-63.15,55.58-95.13,16.16-31.82,28.01-64.71,34.04-97.43,2.78-16.31,4.44-32.83,4.47-48.48.1-16.01-1.19-31.46-3.65-46.41-2.45-14.93-6.02-29.26-10.35-42.89-4.38-13.62-9.52-26.53-15.01-38.79-10.98-24.53-23.51-46.34-35.47-66.18-12.01-19.83-23.6-37.66-33.88-53.87-20.66-32.36-36-58.35-45.22-76.74-2.36-4.57-4.38-8.64-6.03-12.19-1.71-3.53-3.11-6.52-4.16-8.96-2.16-4.85-3.27-7.36-3.27-7.36,0,0,1.07,2.52,3.15,7.42,1.01,2.46,2.36,5.47,4.01,9.03,1.6,3.58,3.55,7.69,5.83,12.3,8.95,18.55,23.74,44.93,44.05,77.54,10.08,16.35,21.43,34.32,33.16,54.25,11.68,19.94,23.86,41.81,34.44,66.27,5.29,12.22,10.2,25.06,14.36,38.56,4.1,13.51,7.43,27.66,9.65,42.37,2.2,14.68,3.37,30.01,3.15,45.5-.18,15.88-1.91,31.5-4.76,47.62-6.17,32.04-18.03,64.23-34.25,95.55-16,31.46-35.81,62.28-56.02,94.15-20.12,31.9-40.85,65-57.21,101.54-16.4,36.4-27.46,76.83-28.47,118.69l-.23,7.97.23,7.73.22,7.75c.09,2.59.43,5.27.63,7.91.48,5.28.86,10.61,1.76,15.81.82,5.22,1.43,10.49,2.64,15.66,4.09,20.82,10.52,41.28,18.62,61.1,16.21,39.73,38.85,76.69,61.76,113.3,22.9,36.62,46.36,73.27,64.07,112.78,8.84,19.72,16.17,40.13,21.16,61.12,4.99,20.98,7.55,42.52,7.53,64.07l-.49,16.3-1.41,15.95-2.36,15.99-3.28,15.83c-4.98,20.99-12.32,41.4-21.16,61.12-17.71,39.51-41.17,76.15-64.07,112.78-3.42,5.46-6.82,10.94-10.21,16.42h10.99Z"></path><path class="st1" d="M507.6,1123.84c2.38-3.82,4.77-7.62,7.17-11.44,22.96-36.52,46.77-73.43,64.99-113.78,9.09-20.14,16.7-41.12,21.91-62.8l3.44-16.37,2.49-16.56,1.52-16.83.51-16.61c-.04-22.35-2.76-44.69-7.97-66.36-5.21-21.68-12.82-42.66-21.91-62.8-18.22-40.35-42.03-77.26-64.99-113.78-22.98-36.5-45.4-72.96-61.33-111.74-7.97-19.35-14.26-39.22-18.28-59.4-1.19-5.01-1.79-10.12-2.59-15.18-.9-5.07-1.26-10.12-1.73-15.15-.21-2.53-.54-5.01-.64-7.59l-.24-7.75-.25-7.74.21-7.47c.49-20.24,3.28-40.24,8.05-59.59,4.77-19.34,11.4-38.05,19.22-56.03,15.77-35.97,36.03-68.97,55.89-100.97,19.93-31.98,39.63-63.15,55.58-95.13,16.16-31.82,28.01-64.71,34.04-97.43,2.78-16.3,4.44-32.83,4.48-48.48.1-16.01-1.19-31.47-3.65-46.42-2.45-14.93-6.02-29.26-10.35-42.89-4.38-13.62-9.52-26.53-15.01-38.79-10.99-24.53-23.51-46.34-35.47-66.18-12.01-19.83-23.6-37.66-33.88-53.87-20.66-32.36-36-58.35-45.22-76.74-2.36-4.57-4.38-8.64-6.03-12.19-1.71-3.53-3.11-6.52-4.16-8.96-2.16-4.85-3.27-7.36-3.27-7.36,0,0,1.07,2.52,3.15,7.42,1.01,2.46,2.36,5.47,4.01,9.03,1.6,3.58,3.55,7.69,5.83,12.3,8.95,18.55,23.74,44.93,44.05,77.54,10.08,16.35,21.43,34.33,33.16,54.25,11.68,19.94,23.86,41.81,34.44,66.27,5.29,12.22,10.2,25.06,14.36,38.56,4.1,13.51,7.43,27.66,9.65,42.37,2.2,14.68,3.37,30.01,3.15,45.5-.18,15.87-1.91,31.49-4.76,47.61-6.17,32.04-18.03,64.23-34.24,95.55-16.01,31.46-35.81,62.28-56.02,94.15-20.12,31.9-40.85,65-57.21,101.54-16.4,36.4-27.45,76.83-28.46,118.69l-.23,7.98.23,7.73.23,7.75c.09,2.6.43,5.27.63,7.91.48,5.28.85,10.61,1.76,15.81.82,5.22,1.43,10.49,2.64,15.66,4.09,20.82,10.52,41.28,18.62,61.1,16.21,39.73,38.85,76.7,61.76,113.3,22.9,36.62,46.36,73.27,64.07,112.78,8.84,19.72,16.17,40.13,21.16,61.12,4.98,20.98,7.55,42.52,7.53,64.07l-.49,16.3-1.41,15.95-2.36,15.99-3.28,15.83c-4.98,20.99-12.32,41.4-21.16,61.12-17.7,39.51-41.17,76.15-64.07,112.78-3.42,5.46-6.82,10.94-10.21,16.42h10.99Z"></path><path class="st1" d="M540.19,1123.84c2.38-3.82,4.77-7.62,7.17-11.44,22.96-36.52,46.77-73.43,64.99-113.78,9.09-20.14,16.7-41.12,21.91-62.8l3.44-16.37,2.49-16.56,1.52-16.83.51-16.61c-.04-22.35-2.76-44.69-7.97-66.36-5.21-21.68-12.82-42.66-21.91-62.8-18.22-40.35-42.03-77.26-64.99-113.78-22.98-36.5-45.4-72.96-61.33-111.74-7.97-19.35-14.26-39.22-18.28-59.4-1.19-5.01-1.79-10.12-2.59-15.18-.9-5.07-1.26-10.12-1.73-15.15-.21-2.53-.54-5.01-.64-7.59l-.24-7.75-.24-7.74.21-7.47c.49-20.24,3.28-40.24,8.05-59.59,4.77-19.34,11.4-38.05,19.22-56.03,15.77-35.97,36.03-68.97,55.89-100.97,19.93-31.98,39.63-63.15,55.58-95.13,16.16-31.82,28.01-64.71,34.04-97.43,2.78-16.3,4.44-32.83,4.47-48.48.1-16.01-1.19-31.47-3.65-46.42-2.45-14.93-6.02-29.26-10.35-42.89-4.39-13.62-9.52-26.53-15.01-38.79-10.99-24.53-23.5-46.34-35.47-66.18-12.01-19.83-23.6-37.66-33.88-53.87-20.66-32.36-36-58.35-45.22-76.74-2.36-4.57-4.38-8.64-6.03-12.19-1.71-3.53-3.11-6.52-4.16-8.96-2.16-4.85-3.27-7.36-3.27-7.36,0,0,1.07,2.52,3.15,7.42,1.01,2.46,2.36,5.47,4.01,9.03,1.59,3.58,3.55,7.69,5.83,12.3,8.95,18.55,23.74,44.93,44.05,77.54,10.08,16.35,21.44,34.33,33.16,54.25,11.68,19.94,23.86,41.81,34.44,66.27,5.29,12.22,10.21,25.06,14.36,38.56,4.1,13.51,7.43,27.66,9.65,42.37,2.2,14.68,3.37,30.01,3.15,45.5-.18,15.87-1.91,31.49-4.76,47.61-6.17,32.04-18.03,64.23-34.24,95.55-16.01,31.46-35.81,62.28-56.02,94.15-20.12,31.9-40.85,65-57.21,101.54-16.4,36.4-27.45,76.83-28.46,118.69l-.23,7.98.22,7.73.22,7.75c.09,2.6.43,5.27.63,7.91.48,5.28.86,10.61,1.76,15.81.81,5.22,1.43,10.49,2.64,15.66,4.08,20.82,10.52,41.28,18.62,61.1,16.21,39.73,38.85,76.7,61.76,113.3,22.9,36.62,46.36,73.27,64.07,112.78,8.84,19.72,16.17,40.13,21.16,61.12,4.99,20.98,7.55,42.52,7.53,64.07l-.49,16.3-1.41,15.95-2.36,15.99-3.28,15.83c-4.98,20.99-12.32,41.4-21.15,61.12-17.71,39.51-41.17,76.15-64.07,112.78-3.42,5.46-6.82,10.94-10.21,16.42h10.99Z"></path><path class="st1" d="M572.79,1123.84c2.38-3.82,4.77-7.62,7.17-11.44,22.96-36.52,46.77-73.43,64.99-113.78,9.09-20.14,16.7-41.12,21.91-62.8l3.44-16.37,2.49-16.56,1.52-16.83.51-16.61c-.04-22.35-2.76-44.69-7.97-66.36-5.21-21.68-12.82-42.66-21.91-62.8-18.22-40.35-42.03-77.26-64.99-113.78-22.98-36.5-45.4-72.96-61.33-111.74-7.96-19.35-14.26-39.22-18.28-59.4-1.19-5.01-1.79-10.12-2.59-15.18-.9-5.07-1.26-10.12-1.73-15.15-.21-2.53-.54-5.01-.64-7.59l-.24-7.75-.24-7.74.21-7.47c.49-20.24,3.28-40.24,8.05-59.59,4.77-19.35,11.4-38.05,19.22-56.03,15.77-35.97,36.03-68.97,55.89-100.97,19.93-31.98,39.63-63.15,55.58-95.13,16.16-31.82,28.01-64.71,34.04-97.43,2.78-16.3,4.44-32.83,4.47-48.48.1-16.01-1.19-31.47-3.65-46.42-2.45-14.93-6.02-29.26-10.35-42.89-4.38-13.62-9.52-26.53-15.01-38.79-10.99-24.53-23.51-46.34-35.47-66.18-12.01-19.83-23.6-37.66-33.88-53.87-20.66-32.36-36-58.35-45.22-76.75-2.36-4.56-4.37-8.63-6.03-12.19-1.71-3.53-3.11-6.52-4.16-8.96-2.16-4.85-3.27-7.36-3.27-7.36,0,0,1.07,2.52,3.15,7.42,1.01,2.46,2.36,5.47,4.01,9.03,1.6,3.58,3.55,7.69,5.83,12.3,8.95,18.54,23.74,44.93,44.05,77.54,10.08,16.35,21.44,34.32,33.16,54.25,11.68,19.94,23.86,41.81,34.44,66.27,5.29,12.22,10.21,25.06,14.36,38.56,4.1,13.51,7.43,27.66,9.65,42.37,2.2,14.68,3.37,30.01,3.15,45.5-.18,15.87-1.91,31.49-4.76,47.61-6.17,32.04-18.03,64.23-34.25,95.55-16,31.46-35.81,62.28-56.02,94.15-20.12,31.9-40.85,65-57.22,101.54-16.4,36.4-27.45,76.83-28.46,118.69l-.23,7.98.23,7.73.22,7.75c.09,2.6.43,5.27.63,7.91.48,5.28.86,10.61,1.76,15.81.82,5.22,1.43,10.49,2.64,15.66,4.09,20.82,10.52,41.28,18.62,61.1,16.21,39.73,38.85,76.7,61.76,113.3,22.9,36.62,46.36,73.27,64.07,112.78,8.84,19.72,16.17,40.13,21.16,61.12,4.99,20.98,7.55,42.52,7.53,64.07l-.49,16.3-1.42,15.95-2.36,15.99-3.28,15.83c-4.98,20.99-12.32,41.4-21.16,61.12-17.71,39.51-41.17,76.15-64.07,112.78-3.42,5.46-6.82,10.94-10.21,16.42h10.99Z"></path><path class="st1" d="M605.39,1123.84c2.38-3.82,4.77-7.62,7.17-11.44,22.96-36.52,46.77-73.43,64.99-113.78,9.09-20.14,16.7-41.12,21.91-62.8l3.44-16.37,2.49-16.56,1.52-16.83.51-16.61c-.04-22.35-2.76-44.69-7.97-66.36-5.21-21.68-12.82-42.66-21.91-62.8-18.22-40.35-42.03-77.26-64.99-113.78-22.98-36.5-45.4-72.97-61.33-111.75-7.97-19.35-14.26-39.22-18.28-59.4-1.19-5.01-1.79-10.12-2.59-15.18-.9-5.07-1.26-10.12-1.73-15.15-.21-2.53-.54-5-.64-7.59l-.25-7.75-.25-7.74.21-7.47c.49-20.24,3.28-40.24,8.04-59.59,4.77-19.34,11.4-38.05,19.23-56.03,15.77-35.97,36.03-68.97,55.89-100.97,19.93-31.99,39.63-63.16,55.58-95.13,16.16-31.82,28.01-64.71,34.04-97.43,2.78-16.3,4.44-32.83,4.47-48.48.1-16.01-1.19-31.46-3.65-46.42-2.45-14.92-6.02-29.26-10.35-42.89-4.38-13.62-9.52-26.53-15.01-38.79-10.99-24.52-23.51-46.34-35.47-66.18-12.01-19.82-23.6-37.65-33.88-53.87-20.66-32.36-35.99-58.35-45.22-76.74-2.36-4.57-4.37-8.64-6.03-12.19-1.71-3.53-3.11-6.52-4.16-8.96-2.16-4.85-3.27-7.36-3.27-7.36,0,0,1.07,2.52,3.15,7.42,1.01,2.46,2.36,5.47,4.01,9.03,1.6,3.58,3.55,7.69,5.83,12.3,8.95,18.55,23.74,44.93,44.05,77.54,10.08,16.35,21.43,34.33,33.16,54.25,11.68,19.94,23.86,41.81,34.44,66.27,5.29,12.22,10.2,25.06,14.36,38.56,4.1,13.51,7.43,27.66,9.65,42.37,2.2,14.68,3.37,30.01,3.15,45.5-.18,15.87-1.91,31.49-4.76,47.61-6.17,32.04-18.03,64.23-34.25,95.55-16.01,31.46-35.81,62.29-56.02,94.15-20.12,31.9-40.85,65-57.21,101.54-16.4,36.4-27.45,76.83-28.46,118.69l-.23,7.98.22,7.73.23,7.75c.09,2.6.43,5.27.63,7.91.48,5.28.86,10.61,1.76,15.81.82,5.22,1.43,10.49,2.64,15.66,4.09,20.82,10.52,41.28,18.62,61.1,16.21,39.73,38.85,76.7,61.76,113.3,22.9,36.62,46.36,73.27,64.07,112.78,8.84,19.72,16.17,40.13,21.16,61.12,4.99,20.98,7.55,42.52,7.53,64.07l-.49,16.3-1.41,15.95-2.36,15.99-3.28,15.83c-4.98,20.99-12.32,41.4-21.15,61.12-17.71,39.51-41.17,76.15-64.07,112.78-3.42,5.46-6.82,10.94-10.21,16.42h10.99Z"></path><path class="st1" d="M637.99,1123.84c2.38-3.82,4.77-7.62,7.17-11.44,22.96-36.52,46.77-73.43,64.99-113.78,9.09-20.14,16.7-41.12,21.91-62.8l3.44-16.37,2.49-16.56,1.52-16.83.51-16.61c-.04-22.35-2.76-44.69-7.97-66.36-5.2-21.68-12.82-42.66-21.91-62.8-18.22-40.35-42.03-77.26-64.99-113.78-22.98-36.5-45.4-72.96-61.33-111.74-7.97-19.35-14.26-39.22-18.28-59.4-1.19-5.01-1.79-10.12-2.59-15.18-.91-5.07-1.26-10.12-1.73-15.15-.21-2.53-.54-5.01-.64-7.59l-.25-7.75-.24-7.74.21-7.47c.49-20.24,3.28-40.24,8.05-59.59,4.77-19.35,11.4-38.05,19.23-56.03,15.77-35.97,36.03-68.97,55.89-100.97,19.93-31.98,39.63-63.15,55.58-95.13,16.16-31.82,28.01-64.71,34.04-97.43,2.78-16.3,4.44-32.83,4.48-48.48.1-16.01-1.19-31.47-3.65-46.42-2.45-14.93-6.02-29.26-10.35-42.89-4.38-13.62-9.51-26.53-15.01-38.79-10.99-24.53-23.51-46.34-35.47-66.18-12.01-19.83-23.6-37.66-33.88-53.87-20.66-32.36-36-58.35-45.22-76.75-2.36-4.56-4.37-8.63-6.03-12.19-1.71-3.53-3.11-6.52-4.16-8.96-2.16-4.85-3.27-7.36-3.27-7.36,0,0,1.07,2.52,3.15,7.42,1.01,2.46,2.36,5.47,4.01,9.03,1.6,3.58,3.55,7.69,5.83,12.3,8.95,18.54,23.74,44.93,44.05,77.54,10.08,16.35,21.43,34.32,33.16,54.25,11.68,19.94,23.86,41.81,34.44,66.27,5.29,12.22,10.21,25.06,14.36,38.56,4.1,13.51,7.43,27.66,9.65,42.37,2.2,14.68,3.37,30.01,3.15,45.5-.18,15.87-1.91,31.49-4.76,47.61-6.17,32.04-18.03,64.23-34.25,95.55-16,31.46-35.81,62.28-56.02,94.15-20.12,31.9-40.85,65-57.21,101.54-16.4,36.4-27.45,76.83-28.46,118.69l-.23,7.98.22,7.73.23,7.75c.09,2.6.43,5.27.63,7.91.48,5.28.86,10.61,1.76,15.81.82,5.22,1.43,10.49,2.64,15.66,4.08,20.82,10.52,41.28,18.62,61.1,16.21,39.73,38.85,76.7,61.76,113.3,22.9,36.62,46.36,73.27,64.07,112.78,8.84,19.72,16.17,40.13,21.16,61.12,4.99,20.98,7.55,42.52,7.53,64.07l-.49,16.3-1.41,15.95-2.36,15.99-3.28,15.83c-4.98,20.99-12.32,41.4-21.15,61.12-17.71,39.51-41.17,76.15-64.07,112.78-3.42,5.46-6.82,10.94-10.21,16.42h10.98Z"></path><path class="st1" d="M670.58,1123.84c2.38-3.82,4.77-7.62,7.17-11.44,22.96-36.52,46.77-73.43,64.99-113.78,9.09-20.14,16.7-41.12,21.91-62.8l3.44-16.37,2.49-16.56,1.52-16.83.51-16.61c-.04-22.35-2.76-44.69-7.97-66.36-5.21-21.68-12.82-42.66-21.91-62.8-18.22-40.35-42.03-77.26-64.99-113.78-22.98-36.5-45.4-72.96-61.33-111.74-7.97-19.35-14.26-39.22-18.28-59.4-1.19-5.01-1.79-10.12-2.59-15.18-.9-5.07-1.26-10.12-1.73-15.15-.21-2.53-.54-5.01-.64-7.59l-.25-7.75-.24-7.74.21-7.47c.49-20.24,3.28-40.24,8.05-59.59,4.77-19.35,11.4-38.05,19.23-56.03,15.77-35.97,36.03-68.97,55.89-100.97,19.93-31.98,39.63-63.15,55.58-95.13,16.16-31.82,28.01-64.71,34.04-97.43,2.78-16.3,4.44-32.83,4.47-48.48.1-16.01-1.19-31.47-3.65-46.42-2.45-14.93-6.02-29.26-10.35-42.89-4.38-13.62-9.52-26.53-15.01-38.79-10.98-24.53-23.5-46.34-35.47-66.18-12.02-19.83-23.61-37.66-33.89-53.87-20.66-32.36-36-58.35-45.22-76.75-2.36-4.56-4.38-8.63-6.03-12.19-1.71-3.53-3.11-6.52-4.16-8.96-2.16-4.85-3.27-7.36-3.27-7.36,0,0,1.07,2.52,3.15,7.42,1.01,2.46,2.36,5.47,4.01,9.03,1.6,3.58,3.54,7.69,5.83,12.3,8.95,18.54,23.74,44.93,44.05,77.54,10.08,16.35,21.43,34.32,33.16,54.25,11.68,19.93,23.86,41.81,34.43,66.27,5.29,12.22,10.21,25.06,14.36,38.56,4.09,13.51,7.43,27.66,9.65,42.37,2.2,14.68,3.37,30.01,3.15,45.5-.18,15.87-1.91,31.49-4.76,47.61-6.17,32.04-18.03,64.23-34.25,95.55-16.01,31.46-35.81,62.28-56.02,94.15-20.12,31.9-40.85,65-57.21,101.54-16.4,36.4-27.45,76.83-28.47,118.69l-.23,7.98.22,7.73.23,7.75c.09,2.6.43,5.27.63,7.91.48,5.28.86,10.61,1.76,15.81.82,5.22,1.43,10.49,2.64,15.66,4.09,20.82,10.52,41.28,18.62,61.1,16.21,39.73,38.85,76.7,61.76,113.3,22.9,36.62,46.36,73.27,64.07,112.78,8.84,19.72,16.17,40.13,21.16,61.12,4.98,20.98,7.55,42.52,7.53,64.07l-.49,16.3-1.41,15.95-2.36,15.99-3.28,15.83c-4.98,20.99-12.32,41.4-21.15,61.12-17.71,39.51-41.17,76.15-64.07,112.78-3.42,5.46-6.82,10.94-10.21,16.42h10.99Z"></path><path class="st1" d="M703.18,1123.84c2.38-3.82,4.77-7.62,7.17-11.44,22.96-36.52,46.77-73.43,65-113.78,9.09-20.14,16.7-41.12,21.91-62.8l3.44-16.37,2.49-16.56,1.52-16.83.51-16.61c-.04-22.35-2.76-44.69-7.97-66.36-5.21-21.68-12.82-42.66-21.91-62.8-18.22-40.35-42.03-77.26-64.99-113.78-22.98-36.5-45.4-72.96-61.33-111.74-7.97-19.35-14.26-39.22-18.28-59.4-1.19-5.01-1.79-10.12-2.59-15.18-.9-5.07-1.26-10.12-1.73-15.15-.21-2.53-.54-5.01-.64-7.59l-.25-7.75-.25-7.74.21-7.47c.49-20.24,3.28-40.24,8.05-59.59,4.77-19.35,11.4-38.05,19.23-56.03,15.77-35.97,36.04-68.97,55.89-100.97,19.93-31.98,39.63-63.15,55.58-95.13,16.16-31.82,28.01-64.71,34.04-97.43,2.78-16.3,4.44-32.83,4.47-48.48.1-16.01-1.19-31.47-3.65-46.42-2.45-14.93-6.02-29.26-10.35-42.89-4.38-13.62-9.52-26.53-15.01-38.79-10.99-24.53-23.51-46.34-35.47-66.18-12.02-19.83-23.61-37.66-33.89-53.87-20.66-32.36-36-58.35-45.22-76.74-2.36-4.57-4.37-8.64-6.03-12.19-1.71-3.53-3.11-6.52-4.16-8.96-2.16-4.85-3.27-7.36-3.27-7.36,0,0,1.07,2.52,3.15,7.42,1.01,2.46,2.36,5.47,4.01,9.03,1.6,3.58,3.55,7.69,5.83,12.3,8.95,18.55,23.74,44.93,44.05,77.54,10.08,16.35,21.43,34.32,33.16,54.25,11.68,19.94,23.86,41.81,34.44,66.27,5.29,12.22,10.21,25.06,14.36,38.56,4.1,13.51,7.43,27.66,9.65,42.37,2.2,14.68,3.37,30.01,3.15,45.5-.18,15.87-1.91,31.49-4.76,47.61-6.17,32.04-18.03,64.23-34.25,95.55-16.01,31.46-35.81,62.28-56.02,94.15-20.13,31.9-40.85,65-57.22,101.54-16.4,36.4-27.45,76.83-28.46,118.69l-.23,7.98.23,7.73.23,7.75c.09,2.6.43,5.27.63,7.91.48,5.28.85,10.61,1.76,15.81.82,5.22,1.43,10.49,2.64,15.66,4.09,20.82,10.52,41.28,18.62,61.1,16.21,39.73,38.85,76.7,61.76,113.3,22.91,36.62,46.36,73.27,64.07,112.78,8.84,19.72,16.17,40.13,21.16,61.12,4.99,20.98,7.55,42.52,7.53,64.07l-.49,16.3-1.41,15.95-2.36,15.99-3.28,15.83c-4.98,20.99-12.32,41.4-21.16,61.12-17.71,39.51-41.17,76.15-64.07,112.78-3.42,5.46-6.82,10.94-10.21,16.42h10.98Z"></path><path class="st1" d="M735.78,1123.84c2.38-3.82,4.77-7.62,7.17-11.44,22.96-36.52,46.77-73.43,64.99-113.78,9.09-20.14,16.7-41.12,21.91-62.8l3.44-16.37,2.49-16.56,1.52-16.83.51-16.61c-.04-22.35-2.76-44.69-7.97-66.36-5.21-21.68-12.82-42.66-21.91-62.8-18.22-40.35-42.03-77.26-64.99-113.78-22.98-36.5-45.4-72.96-61.33-111.74-7.97-19.35-14.26-39.22-18.28-59.4-1.19-5.01-1.79-10.12-2.59-15.18-.9-5.07-1.26-10.12-1.73-15.15-.2-2.53-.54-5.01-.64-7.59l-.25-7.75-.24-7.74.21-7.47c.49-20.24,3.28-40.24,8.05-59.59,4.77-19.35,11.4-38.05,19.23-56.03,15.77-35.97,36.04-68.97,55.89-100.97,19.93-31.98,39.63-63.15,55.58-95.13,16.16-31.82,28.01-64.71,34.04-97.43,2.78-16.3,4.44-32.83,4.47-48.48.1-16.01-1.19-31.46-3.65-46.41-2.45-14.93-6.02-29.26-10.35-42.89-4.38-13.62-9.52-26.53-15.01-38.79-10.99-24.53-23.51-46.34-35.47-66.18-12.01-19.83-23.6-37.66-33.88-53.87-20.66-32.36-36-58.35-45.22-76.75-2.36-4.56-4.38-8.63-6.03-12.19-1.71-3.53-3.11-6.52-4.16-8.96-2.16-4.85-3.27-7.36-3.27-7.36,0,0,1.07,2.52,3.15,7.42,1.01,2.46,2.36,5.47,4.01,9.03,1.6,3.58,3.55,7.69,5.83,12.3,8.95,18.54,23.74,44.93,44.05,77.54,10.08,16.35,21.44,34.32,33.16,54.25,11.68,19.93,23.86,41.81,34.44,66.27,5.29,12.22,10.21,25.06,14.36,38.56,4.1,13.51,7.43,27.66,9.65,42.37,2.2,14.68,3.37,30.01,3.15,45.5-.18,15.87-1.91,31.49-4.76,47.61-6.17,32.04-18.03,64.23-34.25,95.55-16,31.46-35.81,62.28-56.02,94.15-20.12,31.89-40.85,65-57.21,101.54-16.4,36.4-27.45,76.83-28.47,118.69l-.23,7.97.23,7.73.22,7.75c.09,2.6.43,5.27.63,7.91.48,5.28.86,10.61,1.76,15.81.81,5.22,1.43,10.49,2.64,15.66,4.09,20.82,10.52,41.28,18.62,61.1,16.21,39.73,38.85,76.7,61.76,113.3,22.9,36.62,46.36,73.27,64.07,112.78,8.84,19.72,16.17,40.13,21.16,61.12,4.99,20.98,7.55,42.52,7.53,64.07l-.49,16.3-1.41,15.95-2.36,15.99-3.28,15.83c-4.98,20.99-12.32,41.4-21.15,61.12-17.71,39.51-41.17,76.15-64.07,112.78-3.42,5.46-6.82,10.94-10.21,16.42h10.99Z"></path><path class="st1" d="M768.38,1123.84c2.38-3.82,4.77-7.62,7.17-11.44,22.96-36.52,46.77-73.43,64.99-113.78,9.09-20.14,16.7-41.12,21.91-62.8l3.44-16.37,2.49-16.56,1.52-16.83.52-16.61c-.04-22.35-2.76-44.69-7.97-66.36-5.21-21.68-12.82-42.66-21.91-62.8-18.22-40.35-42.03-77.26-64.99-113.78-22.98-36.5-45.4-72.97-61.33-111.75-7.97-19.35-14.26-39.22-18.28-59.4-1.19-5.01-1.79-10.12-2.59-15.18-.9-5.07-1.26-10.12-1.73-15.15-.21-2.53-.54-5-.64-7.59l-.24-7.75-.24-7.74.21-7.47c.49-20.24,3.28-40.24,8.05-59.59,4.77-19.34,11.4-38.05,19.23-56.03,15.77-35.97,36.03-68.97,55.89-100.97,19.93-31.99,39.63-63.16,55.58-95.13,16.16-31.82,28.01-64.71,34.04-97.43,2.78-16.3,4.44-32.83,4.47-48.48.1-16.01-1.19-31.46-3.65-46.42-2.45-14.92-6.02-29.26-10.35-42.89-4.38-13.62-9.52-26.53-15.01-38.79-10.98-24.52-23.5-46.34-35.47-66.18-12.01-19.82-23.6-37.65-33.88-53.87-20.66-32.36-35.99-58.35-45.22-76.74-2.36-4.57-4.38-8.64-6.03-12.19-1.71-3.53-3.11-6.52-4.16-8.96-2.16-4.85-3.27-7.36-3.27-7.36,0,0,1.07,2.52,3.15,7.42,1.01,2.46,2.36,5.47,4.01,9.03,1.6,3.58,3.55,7.69,5.83,12.3,8.95,18.55,23.74,44.93,44.05,77.54,10.08,16.35,21.43,34.33,33.16,54.25,11.68,19.94,23.86,41.81,34.44,66.27,5.29,12.22,10.21,25.06,14.36,38.56,4.1,13.51,7.43,27.66,9.65,42.37,2.2,14.68,3.37,30.01,3.15,45.5-.18,15.87-1.91,31.49-4.76,47.61-6.17,32.04-18.03,64.23-34.25,95.55-16.01,31.46-35.81,62.29-56.02,94.15-20.12,31.9-40.85,65-57.21,101.54-16.4,36.4-27.46,76.83-28.47,118.69l-.23,7.98.23,7.73.22,7.75c.09,2.6.43,5.27.63,7.91.48,5.28.86,10.61,1.76,15.81.82,5.22,1.43,10.49,2.64,15.66,4.09,20.82,10.52,41.28,18.62,61.1,16.21,39.73,38.85,76.7,61.76,113.3,22.91,36.62,46.36,73.27,64.07,112.78,8.84,19.72,16.17,40.13,21.16,61.12,4.99,20.98,7.55,42.52,7.53,64.07l-.49,16.3-1.41,15.95-2.36,15.99-3.28,15.83c-4.98,20.99-12.32,41.4-21.15,61.12-17.71,39.51-41.17,76.15-64.07,112.78-3.42,5.46-6.82,10.94-10.21,16.42h10.99Z"></path><path class="st1" d="M800.98,1123.84c2.38-3.82,4.77-7.62,7.17-11.44,22.96-36.52,46.77-73.43,64.99-113.78,9.09-20.14,16.7-41.12,21.91-62.8l3.44-16.37,2.49-16.56,1.52-16.83.51-16.61c-.04-22.35-2.76-44.69-7.97-66.36-5.21-21.68-12.82-42.66-21.91-62.8-18.22-40.35-42.03-77.26-64.99-113.78-22.98-36.5-45.4-72.97-61.33-111.75-7.97-19.35-14.26-39.22-18.28-59.4-1.19-5.01-1.79-10.12-2.59-15.18-.9-5.07-1.26-10.12-1.73-15.15-.21-2.53-.54-5-.64-7.59l-.25-7.75-.24-7.74.21-7.47c.49-20.24,3.28-40.24,8.05-59.59,4.77-19.34,11.4-38.05,19.22-56.03,15.77-35.97,36.03-68.97,55.89-100.97,19.93-31.99,39.63-63.16,55.58-95.13,16.16-31.82,28.01-64.71,34.04-97.43,2.78-16.3,4.44-32.83,4.47-48.48.1-16.01-1.19-31.46-3.65-46.42-2.45-14.93-6.02-29.26-10.35-42.89-4.38-13.62-9.52-26.53-15.01-38.79-10.99-24.52-23.51-46.34-35.47-66.18-12.02-19.82-23.61-37.65-33.89-53.87-20.66-32.36-35.99-58.35-45.22-76.74-2.36-4.57-4.38-8.64-6.03-12.19-1.71-3.53-3.11-6.52-4.16-8.96-2.16-4.85-3.27-7.36-3.27-7.36,0,0,1.07,2.52,3.15,7.42,1.01,2.46,2.36,5.47,4.01,9.03,1.6,3.58,3.55,7.69,5.83,12.3,8.95,18.55,23.74,44.93,44.05,77.54,10.08,16.35,21.44,34.33,33.16,54.25,11.68,19.94,23.86,41.81,34.44,66.27,5.29,12.22,10.2,25.06,14.36,38.56,4.1,13.51,7.43,27.66,9.65,42.37,2.2,14.68,3.37,30.01,3.15,45.5-.18,15.87-1.91,31.49-4.76,47.61-6.17,32.04-18.03,64.23-34.25,95.55-16.01,31.46-35.81,62.29-56.02,94.15-20.13,31.9-40.85,65-57.22,101.54-16.4,36.4-27.45,76.83-28.46,118.69l-.23,7.98.23,7.73.22,7.75c.09,2.6.43,5.27.63,7.91.48,5.28.85,10.61,1.76,15.81.82,5.22,1.43,10.49,2.64,15.66,4.09,20.82,10.52,41.28,18.62,61.1,16.21,39.73,38.85,76.7,61.76,113.3,22.9,36.62,46.36,73.27,64.07,112.78,8.84,19.72,16.17,40.13,21.16,61.12,4.98,20.98,7.55,42.52,7.53,64.07l-.49,16.3-1.41,15.95-2.36,15.99-3.28,15.83c-4.98,20.99-12.32,41.4-21.16,61.12-17.71,39.51-41.17,76.15-64.07,112.78-3.42,5.46-6.82,10.94-10.21,16.42h11Z"></path><path class="st1" d="M833.57,1123.84c2.38-3.82,4.77-7.62,7.17-11.44,22.96-36.52,46.77-73.43,64.99-113.78,9.09-20.14,16.7-41.12,21.91-62.8l3.44-16.37,2.49-16.56,1.52-16.83.51-16.61c-.04-22.35-2.76-44.69-7.97-66.36-5.21-21.68-12.82-42.66-21.91-62.8-18.22-40.35-42.03-77.26-64.99-113.78-22.98-36.5-45.4-72.97-61.33-111.75-7.97-19.35-14.26-39.22-18.28-59.4-1.19-5.01-1.79-10.12-2.59-15.18-.91-5.07-1.26-10.12-1.73-15.15-.21-2.53-.54-5-.64-7.59l-.25-7.75-.24-7.74.21-7.47c.49-20.24,3.28-40.24,8.05-59.59,4.77-19.34,11.4-38.05,19.22-56.03,15.77-35.97,36.03-68.97,55.89-100.97,19.93-31.99,39.63-63.16,55.58-95.13,16.16-31.82,28.01-64.71,34.04-97.43,2.78-16.3,4.44-32.83,4.48-48.48.1-16.01-1.19-31.46-3.65-46.42-2.45-14.93-6.02-29.26-10.35-42.89-4.38-13.62-9.52-26.53-15.01-38.79-10.99-24.53-23.5-46.34-35.47-66.18-12.01-19.82-23.6-37.65-33.88-53.87-20.66-32.36-36-58.36-45.22-76.75-2.36-4.57-4.38-8.64-6.03-12.19-1.71-3.53-3.11-6.52-4.16-8.96-2.16-4.85-3.27-7.36-3.27-7.36,0,0,1.07,2.52,3.15,7.42,1.01,2.46,2.36,5.47,4.01,9.03,1.6,3.58,3.55,7.69,5.83,12.3,8.95,18.55,23.74,44.93,44.05,77.54,10.08,16.35,21.43,34.33,33.16,54.25,11.68,19.94,23.86,41.81,34.44,66.27,5.29,12.22,10.2,25.06,14.36,38.56,4.1,13.51,7.43,27.66,9.65,42.37,2.2,14.68,3.37,30.01,3.15,45.5-.18,15.87-1.91,31.49-4.76,47.61-6.17,32.04-18.03,64.23-34.25,95.55-16.01,31.46-35.81,62.29-56.02,94.15-20.12,31.9-40.85,65-57.21,101.54-16.4,36.4-27.45,76.83-28.46,118.69l-.23,7.98.22,7.73.22,7.75c.09,2.6.43,5.27.63,7.91.48,5.28.86,10.61,1.76,15.81.81,5.22,1.43,10.49,2.64,15.66,4.09,20.82,10.52,41.28,18.62,61.1,16.21,39.73,38.85,76.7,61.76,113.3,22.9,36.62,46.36,73.27,64.07,112.78,8.84,19.72,16.17,40.13,21.16,61.12,4.98,20.98,7.55,42.52,7.53,64.07l-.49,16.3-1.42,15.95-2.36,15.99-3.28,15.83c-4.98,20.99-12.32,41.4-21.16,61.12-17.71,39.51-41.17,76.15-64.07,112.78-3.42,5.46-6.82,10.94-10.21,16.42h10.99Z"></path><path class="st1" d="M866.17,1123.84c2.38-3.82,4.77-7.62,7.17-11.44,22.96-36.52,46.77-73.43,64.99-113.78,9.09-20.14,16.7-41.12,21.91-62.8l3.44-16.37,2.49-16.56,1.52-16.83.51-16.61c-.04-22.35-2.76-44.69-7.97-66.36-5.21-21.68-12.82-42.66-21.91-62.8-18.22-40.35-42.03-77.26-64.99-113.78-22.98-36.5-45.4-72.97-61.33-111.75-7.97-19.35-14.26-39.22-18.28-59.4-1.19-5.01-1.79-10.12-2.59-15.18-.9-5.07-1.26-10.12-1.73-15.15-.21-2.53-.54-5-.64-7.59l-.25-7.75-.25-7.74.21-7.47c.49-20.24,3.28-40.24,8.05-59.59,4.77-19.34,11.4-38.05,19.22-56.03,15.77-35.97,36.03-68.97,55.89-100.97,19.93-31.98,39.63-63.16,55.58-95.13,16.16-31.82,28.01-64.71,34.04-97.42,2.78-16.31,4.44-32.83,4.47-48.48.1-16.01-1.19-31.46-3.65-46.42-2.45-14.92-6.02-29.26-10.35-42.89-4.38-13.62-9.52-26.53-15.01-38.79-10.98-24.52-23.51-46.34-35.47-66.18-12.01-19.82-23.6-37.65-33.88-53.86-20.66-32.36-36-58.35-45.22-76.74-2.36-4.57-4.38-8.64-6.03-12.19-1.71-3.53-3.11-6.52-4.16-8.96-2.16-4.85-3.27-7.36-3.27-7.36,0,0,1.07,2.52,3.15,7.42,1.01,2.46,2.36,5.47,4.01,9.03,1.6,3.58,3.55,7.69,5.83,12.3,8.95,18.55,23.74,44.93,44.05,77.54,10.08,16.35,21.44,34.33,33.16,54.25,11.68,19.94,23.86,41.81,34.44,66.27,5.29,12.22,10.21,25.06,14.36,38.56,4.1,13.51,7.43,27.66,9.65,42.37,2.2,14.68,3.37,30.01,3.15,45.5-.18,15.87-1.91,31.49-4.76,47.61-6.17,32.04-18.03,64.23-34.25,95.55-16.01,31.46-35.82,62.29-56.02,94.15-20.12,31.9-40.85,65-57.22,101.54-16.4,36.4-27.45,76.83-28.47,118.7l-.22,7.97.22,7.73.22,7.75c.09,2.6.43,5.27.63,7.91.48,5.28.86,10.61,1.76,15.81.82,5.22,1.43,10.49,2.64,15.66,4.09,20.82,10.52,41.28,18.62,61.1,16.21,39.73,38.85,76.7,61.76,113.3,22.9,36.62,46.36,73.27,64.07,112.78,8.84,19.72,16.17,40.13,21.16,61.12,4.99,20.98,7.55,42.52,7.53,64.07l-.49,16.3-1.42,15.95-2.36,15.99-3.28,15.83c-4.98,20.99-12.32,41.4-21.16,61.12-17.71,39.51-41.17,76.15-64.07,112.78-3.42,5.46-6.82,10.94-10.21,16.42h11Z"></path></g></g></g></svg>