<svg xmlns:inkscape="http://www.inkscape.org/namespaces/inkscape" xmlns:sodipodi="http://sodipodi.sourceforge.net/DTD/sodipodi-0.dtd" xmlns="http://www.w3.org/2000/svg" xmlns:svg="http://www.w3.org/2000/svg" width="39.881508mm" height="34.1376mm" viewBox="0 0 39.881508 34.1376" id="svg1" inkscape:version="1.3.2 (091e20e, 2023-11-25)" sodipodi:docname="pead.svg"><defs id="defs1"><clipPath clipPathUnits="userSpaceOnUse" id="clipPath275"><path d="M 0,5921.297 H 1920 V 0 H 0 Z" transform="translate(-1030.3276,-3394.8441)" id="path275"></path></clipPath><clipPath clipPathUnits="userSpaceOnUse" id="clipPath280"><path d="M 0,5921.297 H 1920 V 0 H 0 Z" transform="translate(-952.41212,-3349.8036)" id="path280"></path></clipPath><clipPath clipPathUnits="userSpaceOnUse" id="clipPath282"><path d="M 0,5921.297 H 1920 V 0 H 0 Z" transform="translate(-953.69132,-3403.1925)" id="path282"></path></clipPath><clipPath clipPathUnits="userSpaceOnUse" id="clipPath284"><path d="M 0,5921.297 H 1920 V 0 H 0 Z" transform="translate(-969.75122,-3416.9283)" id="path284"></path></clipPath><clipPath clipPathUnits="userSpaceOnUse" id="clipPath286"><path d="M 0,5921.297 H 1920 V 0 H 0 Z" transform="translate(-952.41265,-3349.8031)" id="path286"></path></clipPath><clipPath clipPathUnits="userSpaceOnUse" id="clipPath288"><path d="M 0,5921.297 H 1920 V 0 H 0 Z" transform="translate(-929.15642,-3405.2716)" id="path288"></path></clipPath><clipPath clipPathUnits="userSpaceOnUse" id="clipPath290"><path d="M 0,5921.297 H 1920 V 0 H 0 Z" transform="translate(-918.37765,-3393.3148)" id="path290"></path></clipPath></defs><g inkscape:label="Capa 1" inkscape:groupmode="layer" id="layer1" transform="translate(-84.931253,-131.4979)"><path id="path274" d="m 0,0 c 0,-26.722 -21.662,-48.384 -48.384,-48.384 -26.721,0 -48.383,21.662 -48.383,48.384 0,26.722 21.662,48.384 48.383,48.384 C -21.662,48.384 0,26.722 0,0" style="fill:#dbede2;fill-opacity:1;fill-rule:nonzero;stroke:none" transform="matrix(0.35277776,0,0,-0.35277776,124.81276,148.5667)" clip-path="url(#clipPath275)"></path><path id="path279" d="m 0,0 50.734,0.005 c 0.837,0 1.516,0.679 1.516,1.516 v 51.218 c 0,0.449 -0.2,0.876 -0.546,1.164 L 35.653,67.28 c -0.272,0.227 -0.616,0.351 -0.97,0.351 H 18.232 c -0.357,0 -0.702,-0.126 -0.975,-0.355 L 1.279,53.84 C 0.939,53.554 0.741,53.133 0.739,52.688 L 0.467,0" style="fill:none;stroke:#16392c;stroke-width:1;stroke-linecap:butt;stroke-linejoin:miter;stroke-miterlimit:10;stroke-dasharray:none;stroke-opacity:1" transform="matrix(0.35277776,0,0,-0.35277776,97.325915,164.45596)" clip-path="url(#clipPath280)"></path><path id="path281" d="M 0,0 50.403,0.06" style="fill:none;stroke:#16392c;stroke-width:1;stroke-linecap:butt;stroke-linejoin:miter;stroke-miterlimit:10;stroke-dasharray:none;stroke-opacity:1" transform="matrix(0.35277776,0,0,-0.35277776,97.777188,145.62155)" clip-path="url(#clipPath282)"></path><path id="path283" d="m 0,0 v 7.178 c 0,0.79 0.641,1.431 1.431,1.431 h 15.03 c 0.791,0 1.431,-0.641 1.431,-1.431 V 0" style="fill:none;stroke:#16392c;stroke-width:1;stroke-linecap:butt;stroke-linejoin:miter;stroke-miterlimit:10;stroke-dasharray:none;stroke-opacity:1" transform="matrix(0.35277776,0,0,-0.35277776,103.44276,140.77589)" clip-path="url(#clipPath284)"></path><path id="path285" d="m 0,0 -33.621,0.004 c -0.56,0 -1.014,0.557 -1.014,1.243 v 42.007 c 0,0.369 0.134,0.718 0.365,0.955 l 10.736,10.971 c 0.182,0.186 0.412,0.288 0.649,0.288 h 11.002 c 0.239,0 0.47,-0.103 0.653,-0.292 L -0.543,44.157 c 0.227,-0.235 0.359,-0.58 0.361,-0.945 L 0,0" style="fill:none;stroke:#16392c;stroke-width:1;stroke-linecap:butt;stroke-linejoin:miter;stroke-miterlimit:10;stroke-dasharray:none;stroke-opacity:1" transform="matrix(0.35277776,0,0,-0.35277776,97.3261,164.45615)" clip-path="url(#clipPath286)"></path><path id="path287" d="M 0,0 V 4.774 C 0,5.3 0.41,5.727 0.915,5.727 h 9.609 c 0.505,0 0.915,-0.427 0.915,-0.953 V 0" style="fill:none;stroke:#16392c;stroke-width:1;stroke-linecap:butt;stroke-linejoin:miter;stroke-miterlimit:10;stroke-dasharray:none;stroke-opacity:1" transform="matrix(0.35277776,0,0,-0.35277776,89.121821,144.8881)" clip-path="url(#clipPath288)"></path><path id="path289" d="M 0,0 33.853,0.06" style="fill:none;stroke:#16392c;stroke-width:1;stroke-linecap:butt;stroke-linejoin:miter;stroke-miterlimit:10;stroke-dasharray:none;stroke-opacity:1" transform="matrix(0.35277776,0,0,-0.35277776,85.319309,149.10622)" clip-path="url(#clipPath290)"></path></g></svg>