<svg xmlns:inkscape="http://www.inkscape.org/namespaces/inkscape" xmlns:sodipodi="http://sodipodi.sourceforge.net/DTD/sodipodi-0.dtd" xmlns="http://www.w3.org/2000/svg" xmlns:svg="http://www.w3.org/2000/svg" width="45.431515mm" height="47.064079mm" viewBox="0 0 45.431515 47.064079" id="svg1" inkscape:version="1.3.2 (091e20e, 2023-11-25)" sodipodi:docname="white-leaft.svg"><defs id="defs1"><clipPath clipPathUnits="userSpaceOnUse" id="clipPath188"><path d="M 0,8405.575 H 1920 V 0 H 0 Z" transform="translate(-155.76051,-1129.2362)" id="path188"></path></clipPath><clipPath clipPathUnits="userSpaceOnUse" id="clipPath190"><path d="M 0,8405.575 H 1920 V 0 H 0 Z" transform="translate(-244.82371,-1135.8662)" id="path190"></path></clipPath><clipPath clipPathUnits="userSpaceOnUse" id="clipPath192"><path d="M 0,8405.575 H 1920 V 0 H 0 Z" transform="translate(-237.77001,-1141.9253)" id="path192"></path></clipPath><clipPath clipPathUnits="userSpaceOnUse" id="clipPath194"><path d="M 0,8405.575 H 1920 V 0 H 0 Z" transform="translate(-169.515,-1150.0613)" id="path194"></path></clipPath><clipPath clipPathUnits="userSpaceOnUse" id="clipPath196"><path d="M 0,8405.575 H 1920 V 0 H 0 Z" transform="translate(-264.7975,-1090.2578)" id="path196"></path></clipPath><clipPath clipPathUnits="userSpaceOnUse" id="clipPath198"><path d="M 0,8405.575 H 1920 V 0 H 0 Z" transform="translate(-138.955,-1066.7477)" id="path198"></path></clipPath><clipPath clipPathUnits="userSpaceOnUse" id="clipPath200"><path d="M 0,8405.575 H 1920 V 0 H 0 Z" transform="translate(-243.2914,-1079.13)" id="path200"></path></clipPath><clipPath clipPathUnits="userSpaceOnUse" id="clipPath202"><path d="M 0,8405.575 H 1920 V 0 H 0 Z" transform="translate(-217.5817,-1026.5093)" id="path202"></path></clipPath><clipPath clipPathUnits="userSpaceOnUse" id="clipPath204"><path d="M 0,8405.575 H 1920 V 0 H 0 Z" transform="translate(-192.34251,-1134.2447)" id="path204"></path></clipPath><clipPath clipPathUnits="userSpaceOnUse" id="clipPath206"><path d="M 0,8405.575 H 1920 V 0 H 0 Z" transform="translate(-188.38701,-1133.4299)" id="path206"></path></clipPath><clipPath clipPathUnits="userSpaceOnUse" id="clipPath208"><path d="M 0,8405.575 H 1920 V 0 H 0 Z" transform="translate(-163.18731,-1145.8419)" id="path208"></path></clipPath><clipPath clipPathUnits="userSpaceOnUse" id="clipPath210"><path d="M 0,8405.575 H 1920 V 0 H 0 Z" transform="translate(-241.54831,-1138.7081)" id="path210"></path></clipPath><clipPath clipPathUnits="userSpaceOnUse" id="clipPath212"><path d="M 0,8405.575 H 1920 V 0 H 0 Z" transform="translate(-241.71411,-1037.9384)" id="path212"></path></clipPath><clipPath clipPathUnits="userSpaceOnUse" id="clipPath214"><path d="M 0,8405.575 H 1920 V 0 H 0 Z" transform="translate(-153.9312,-1139.8373)" id="path214"></path></clipPath><clipPath clipPathUnits="userSpaceOnUse" id="clipPath216"><path d="M 0,8405.575 H 1920 V 0 H 0 Z" transform="translate(-167.1208,-1148.9604)" id="path216"></path></clipPath><clipPath clipPathUnits="userSpaceOnUse" id="clipPath218"><path d="M 0,8405.575 H 1920 V 0 H 0 Z" transform="translate(-264.7147,-1090.3973)" id="path218"></path></clipPath><clipPath clipPathUnits="userSpaceOnUse" id="clipPath220"><path d="M 0,8405.575 H 1920 V 0 H 0 Z" transform="translate(-242.26081,-1094.5652)" id="path220"></path></clipPath><clipPath clipPathUnits="userSpaceOnUse" id="clipPath222"><path d="M 0,8405.575 H 1920 V 0 H 0 Z" transform="translate(-194.8509,-1042.73)" id="path222"></path></clipPath><clipPath clipPathUnits="userSpaceOnUse" id="clipPath224"><path d="M 0,8405.575 H 1920 V 0 H 0 Z" transform="translate(-230.4757,-1057.9568)" id="path224"></path></clipPath><clipPath clipPathUnits="userSpaceOnUse" id="clipPath226"><path d="M 0,8405.575 H 1920 V 0 H 0 Z" transform="translate(-219.81591,-1127.9576)" id="path226"></path></clipPath><clipPath clipPathUnits="userSpaceOnUse" id="clipPath228"><path d="M 0,8405.575 H 1920 V 0 H 0 Z" transform="translate(-219.81591,-1127.9576)" id="path228"></path></clipPath><clipPath clipPathUnits="userSpaceOnUse" id="clipPath230"><path d="M 0,8405.575 H 1920 V 0 H 0 Z" transform="translate(-154.83351,-1122.5178)" id="path230"></path></clipPath><clipPath clipPathUnits="userSpaceOnUse" id="clipPath232"><path d="M 0,8405.575 H 1920 V 0 H 0 Z" transform="translate(-159.06081,-1127.0156)" id="path232"></path></clipPath><clipPath clipPathUnits="userSpaceOnUse" id="clipPath234"><path d="M 0,8405.575 H 1920 V 0 H 0 Z" transform="translate(-220.21191,-1152.8262)" id="path234"></path></clipPath><clipPath clipPathUnits="userSpaceOnUse" id="clipPath236"><path d="M 0,8405.575 H 1920 V 0 H 0 Z" transform="translate(-247.40931,-1134.0822)" id="path236"></path></clipPath><clipPath clipPathUnits="userSpaceOnUse" id="clipPath238"><path d="M 0,8405.575 H 1920 V 0 H 0 Z" transform="translate(-262.33881,-1110.4628)" id="path238"></path></clipPath><clipPath clipPathUnits="userSpaceOnUse" id="clipPath240"><path d="M 0,8405.575 H 1920 V 0 H 0 Z" transform="translate(-210.92341,-1063.11)" id="path240"></path></clipPath><clipPath clipPathUnits="userSpaceOnUse" id="clipPath242"><path d="M 0,8405.575 H 1920 V 0 H 0 Z" transform="translate(-217.3213,-1060.4111)" id="path242"></path></clipPath><clipPath clipPathUnits="userSpaceOnUse" id="clipPath244"><path d="M 0,8405.575 H 1920 V 0 H 0 Z" transform="translate(-219.23721,-1057.9988)" id="path244"></path></clipPath><clipPath clipPathUnits="userSpaceOnUse" id="clipPath246"><path d="M 0,8405.575 H 1920 V 0 H 0 Z" transform="translate(-220.52041,-1050.4272)" id="path246"></path></clipPath><clipPath clipPathUnits="userSpaceOnUse" id="clipPath248"><path d="M 0,8405.575 H 1920 V 0 H 0 Z" transform="translate(-220.46461,-1051.1249)" id="path248"></path></clipPath><clipPath clipPathUnits="userSpaceOnUse" id="clipPath250"><path d="M 0,8405.575 H 1920 V 0 H 0 Z" transform="translate(-220.66051,-1054.619)" id="path250"></path></clipPath><clipPath clipPathUnits="userSpaceOnUse" id="clipPath252"><path d="M 0,8405.575 H 1920 V 0 H 0 Z" transform="translate(-225.3604,-1054.0343)" id="path252"></path></clipPath><clipPath clipPathUnits="userSpaceOnUse" id="clipPath254"><path d="M 0,8405.575 H 1920 V 0 H 0 Z" transform="translate(-225.18001,-1053.6036)" id="path254"></path></clipPath><clipPath clipPathUnits="userSpaceOnUse" id="clipPath256"><path d="M 0,8405.575 H 1920 V 0 H 0 Z" transform="translate(-224.8807,-1058.3708)" id="path256"></path></clipPath><clipPath clipPathUnits="userSpaceOnUse" id="clipPath258"><path d="M 0,8405.575 H 1920 V 0 H 0 Z" transform="translate(-224.40411,-1061.3987)" id="path258"></path></clipPath><clipPath clipPathUnits="userSpaceOnUse" id="clipPath260"><path d="M 0,8405.575 H 1920 V 0 H 0 Z" transform="translate(-224.89441,-1057.562)" id="path260"></path></clipPath><clipPath clipPathUnits="userSpaceOnUse" id="clipPath262"><path d="M 0,8405.575 H 1920 V 0 H 0 Z" transform="translate(-224.72961,-1057.7375)" id="path262"></path></clipPath><clipPath clipPathUnits="userSpaceOnUse" id="clipPath264"><path d="M 0,8405.575 H 1920 V 0 H 0 Z" transform="translate(-224.8144,-1057.0979)" id="path264"></path></clipPath><clipPath clipPathUnits="userSpaceOnUse" id="clipPath266"><path d="M 0,8405.575 H 1920 V 0 H 0 Z" transform="translate(-224.9884,-1054.6992)" id="path266"></path></clipPath><clipPath clipPathUnits="userSpaceOnUse" id="clipPath268"><path d="M 0,8405.575 H 1920 V 0 H 0 Z" transform="translate(-224.7757,-1055.9744)" id="path268"></path></clipPath><clipPath clipPathUnits="userSpaceOnUse" id="clipPath270"><path d="M 0,8405.575 H 1920 V 0 H 0 Z" transform="translate(-223.70821,-1062.2345)" id="path270"></path></clipPath><clipPath clipPathUnits="userSpaceOnUse" id="clipPath272"><path d="M 0,8405.575 H 1920 V 0 H 0 Z" transform="translate(-224.3443,-1059.7514)" id="path272"></path></clipPath><clipPath clipPathUnits="userSpaceOnUse" id="clipPath274"><path d="M 0,8405.575 H 1920 V 0 H 0 Z" transform="translate(-220.4137,-1069.5554)" id="path274"></path></clipPath><clipPath clipPathUnits="userSpaceOnUse" id="clipPath276"><path d="M 0,8405.575 H 1920 V 0 H 0 Z" transform="translate(-223.7056,-1061.7521)" id="path276"></path></clipPath><clipPath clipPathUnits="userSpaceOnUse" id="clipPath278"><path d="M 0,8405.575 H 1920 V 0 H 0 Z" transform="translate(-222.7144,-1064.9933)" id="path278"></path></clipPath><clipPath clipPathUnits="userSpaceOnUse" id="clipPath280"><path d="M 0,8405.575 H 1920 V 0 H 0 Z" transform="translate(-224.3044,-1060.0406)" id="path280"></path></clipPath><clipPath clipPathUnits="userSpaceOnUse" id="clipPath282"><path d="M 0,8405.575 H 1920 V 0 H 0 Z" transform="translate(-224.3044,-1060.0406)" id="path282"></path></clipPath><clipPath clipPathUnits="userSpaceOnUse" id="clipPath284"><path d="M 0,8405.575 H 1920 V 0 H 0 Z" transform="translate(-221.48691,-1067.4573)" id="path284"></path></clipPath><clipPath clipPathUnits="userSpaceOnUse" id="clipPath286"><path d="M 0,8405.575 H 1920 V 0 H 0 Z" transform="translate(-221.94381,-1065.6479)" id="path286"></path></clipPath><clipPath clipPathUnits="userSpaceOnUse" id="clipPath288"><path d="M 0,8405.575 H 1920 V 0 H 0 Z" transform="translate(-224.3473,-1053.6809)" id="path288"></path></clipPath><clipPath clipPathUnits="userSpaceOnUse" id="clipPath290"><path d="M 0,8405.575 H 1920 V 0 H 0 Z" transform="translate(-224.61511,-1055.6864)" id="path290"></path></clipPath><clipPath clipPathUnits="userSpaceOnUse" id="clipPath292"><path d="M 0,8405.575 H 1920 V 0 H 0 Z" transform="translate(-224.39121,-1054.6194)" id="path292"></path></clipPath><clipPath clipPathUnits="userSpaceOnUse" id="clipPath294"><path d="M 0,8405.575 H 1920 V 0 H 0 Z" transform="translate(-223.45881,-1060.787)" id="path294"></path></clipPath><clipPath clipPathUnits="userSpaceOnUse" id="clipPath296"><path d="M 0,8405.575 H 1920 V 0 H 0 Z" transform="translate(-220.3621,-1069.7795)" id="path296"></path></clipPath><clipPath clipPathUnits="userSpaceOnUse" id="clipPath298"><path d="M 0,8405.575 H 1920 V 0 H 0 Z" transform="translate(-219.03541,-1071.8988)" id="path298"></path></clipPath><clipPath clipPathUnits="userSpaceOnUse" id="clipPath300"><path d="M 0,8405.575 H 1920 V 0 H 0 Z" transform="translate(-188.9161,-1092.7952)" id="path300"></path></clipPath><clipPath clipPathUnits="userSpaceOnUse" id="clipPath302"><path d="M 0,8405.575 H 1920 V 0 H 0 Z" transform="translate(-198.12531,-1088.786)" id="path302"></path></clipPath><clipPath clipPathUnits="userSpaceOnUse" id="clipPath304"><path d="M 0,8405.575 H 1920 V 0 H 0 Z" transform="translate(-213.48421,-1100.0333)" id="path304"></path></clipPath><clipPath clipPathUnits="userSpaceOnUse" id="clipPath306"><path d="M 0,8405.575 H 1920 V 0 H 0 Z" transform="translate(-196.19181,-1089.4265)" id="path306"></path></clipPath><clipPath clipPathUnits="userSpaceOnUse" id="clipPath308"><path d="M 0,8405.575 H 1920 V 0 H 0 Z" transform="translate(-203.8645,-1063.4996)" id="path308"></path></clipPath><clipPath clipPathUnits="userSpaceOnUse" id="clipPath310"><path d="M 0,8405.575 H 1920 V 0 H 0 Z" transform="translate(-212.78161,-1079.7332)" id="path310"></path></clipPath><clipPath clipPathUnits="userSpaceOnUse" id="clipPath312"><path d="M 0,8405.575 H 1920 V 0 H 0 Z" transform="translate(-214.11361,-1077.4718)" id="path312"></path></clipPath><clipPath clipPathUnits="userSpaceOnUse" id="clipPath314"><path d="M 0,8405.575 H 1920 V 0 H 0 Z" transform="translate(-213.29671,-1079.1179)" id="path314"></path></clipPath><clipPath clipPathUnits="userSpaceOnUse" id="clipPath316"><path d="M 0,8405.575 H 1920 V 0 H 0 Z" transform="translate(-213.27061,-1079.2415)" id="path316"></path></clipPath><clipPath clipPathUnits="userSpaceOnUse" id="clipPath318"><path d="M 0,8405.575 H 1920 V 0 H 0 Z" transform="translate(-212.25481,-1080.2552)" id="path318"></path></clipPath><clipPath clipPathUnits="userSpaceOnUse" id="clipPath320"><path d="M 0,8405.575 H 1920 V 0 H 0 Z" transform="translate(-216.46231,-1075.6718)" id="path320"></path></clipPath><clipPath clipPathUnits="userSpaceOnUse" id="clipPath322"><path d="M 0,8405.575 H 1920 V 0 H 0 Z" transform="translate(-217.51021,-1073.3025)" id="path322"></path></clipPath><clipPath clipPathUnits="userSpaceOnUse" id="clipPath324"><path d="M 0,8405.575 H 1920 V 0 H 0 Z" transform="translate(-217.69821,-1073.037)" id="path324"></path></clipPath><clipPath clipPathUnits="userSpaceOnUse" id="clipPath326"><path d="M 0,8405.575 H 1920 V 0 H 0 Z" transform="translate(-211.47561,-1080.8961)" id="path326"></path></clipPath><clipPath clipPathUnits="userSpaceOnUse" id="clipPath328"><path d="M 0,8405.575 H 1920 V 0 H 0 Z" transform="translate(-216.3046,-1074.3243)" id="path328"></path></clipPath><clipPath clipPathUnits="userSpaceOnUse" id="clipPath330"><path d="M 0,8405.575 H 1920 V 0 H 0 Z" transform="translate(-212.80801,-1078.5887)" id="path330"></path></clipPath><clipPath clipPathUnits="userSpaceOnUse" id="clipPath332"><path d="M 0,8405.575 H 1920 V 0 H 0 Z" transform="translate(-214.58341,-1076.6595)" id="path332"></path></clipPath><clipPath clipPathUnits="userSpaceOnUse" id="clipPath334"><path d="M 0,8405.575 H 1920 V 0 H 0 Z" transform="translate(-200.57131,-1087.0322)" id="path334"></path></clipPath><clipPath clipPathUnits="userSpaceOnUse" id="clipPath336"><path d="M 0,8405.575 H 1920 V 0 H 0 Z" transform="translate(-208.07931,-1063.2557)" id="path336"></path></clipPath><clipPath clipPathUnits="userSpaceOnUse" id="clipPath338"><path d="M 0,8405.575 H 1920 V 0 H 0 Z" transform="translate(-209.72041,-1063.4141)" id="path338"></path></clipPath></defs><g inkscape:label="Capa 1" inkscape:groupmode="layer" id="layer1" transform="translate(-82.285417,-125.14786)"><path id="path187" d="M 0,0 C 0.737,0.815 0.182,0.774 0.234,0.948 -0.9,-0.521 0.114,-0.031 0,0" style="fill:#ffffff;fill-opacity:1;fill-rule:nonzero;stroke:none" transform="matrix(0.35277776,0,0,-0.35277776,89.103623,134.73414)" clip-path="url(#clipPath188)"></path><path id="path189" d="M 0,0 C 0.339,-0.267 0.653,-0.56 0.982,-0.84 0.531,-0.427 0.239,-0.165 0,0" style="fill:#ffffff;fill-opacity:1;fill-rule:nonzero;stroke:none" transform="matrix(0.35277776,0,0,-0.35277776,120.52314,132.39525)" clip-path="url(#clipPath190)"></path><path id="path191" d="M 0,0 -0.293,-0.012 C 0.111,-0.188 0.298,-0.235 0,0" style="fill:#ffffff;fill-opacity:1;fill-rule:nonzero;stroke:none" transform="matrix(0.35277776,0,0,-0.35277776,118.03475,130.2577)" clip-path="url(#clipPath192)"></path><path id="path193" d="M 0,0 C -0.537,-0.154 -1.297,-0.398 -2.327,-0.843 -1.559,-0.539 -0.779,-0.266 0,0" style="fill:#ffffff;fill-opacity:1;fill-rule:nonzero;stroke:none" transform="matrix(0.35277776,0,0,-0.35277776,93.955904,127.38753)" clip-path="url(#clipPath194)"></path><path id="path195" d="M 0,0 0.418,-1.517 C 0.422,0.861 0.206,-0.188 0,0" style="fill:#ffffff;fill-opacity:1;fill-rule:nonzero;stroke:none" transform="matrix(0.35277776,0,0,-0.35277776,127.56945,148.48485)" clip-path="url(#clipPath196)"></path><path id="path197" d="M 0,0 C -0.025,0.134 -0.055,0.291 -0.078,0.414 -0.144,0.437 -0.091,0.258 0,0" style="fill:#ffffff;fill-opacity:1;fill-rule:nonzero;stroke:none" transform="matrix(0.35277776,0,0,-0.35277776,83.175015,156.77869)" clip-path="url(#clipPath198)"></path><path id="path199" d="M 0,0 C 0.008,0.033 0.015,0.06 0.024,0.098 -0.133,-0.222 -0.105,-0.168 0,0" style="fill:#ffffff;fill-opacity:1;fill-rule:nonzero;stroke:none" transform="matrix(0.35277776,0,0,-0.35277776,119.98258,152.4105)" clip-path="url(#clipPath200)"></path><path id="path201" d="M 0,0 C -0.079,-0.011 -0.168,-0.023 -0.255,-0.035 -1.356,-0.542 -0.859,-0.365 0,0" style="fill:#ffffff;fill-opacity:1;fill-rule:nonzero;stroke:none" transform="matrix(0.35277776,0,0,-0.35277776,110.91277,170.97393)" clip-path="url(#clipPath202)"></path><path id="path203" d="M 0,0 C 0.051,0.012 0.079,0.019 0.126,0.029 0.073,0.03 0.007,0.031 -0.041,0.032 Z" style="fill:#ffffff;fill-opacity:1;fill-rule:nonzero;stroke:none" transform="matrix(0.35277776,0,0,-0.35277776,102.00894,132.96727)" clip-path="url(#clipPath204)"></path><path id="path205" d="M 0,0 C 1.612,0.759 2.611,0.85 3.915,0.846 3.435,1.219 2.945,1.568 2.448,1.895 1.607,1.257 0.786,0.665 0,0" style="fill:#ffffff;fill-opacity:1;fill-rule:nonzero;stroke:none" transform="matrix(0.35277776,0,0,-0.35277776,100.61353,133.25469)" clip-path="url(#clipPath206)"></path><path id="path207" d="M 0,0 C -0.67,-0.464 -1.44,-0.969 -2.345,-1.462 -1.911,-0.961 -1.04,-0.458 0,0 m 65.673,1.701 c -1.129,0.014 -1.664,0.623 -2.947,1.405 0.838,-0.279 2.519,-0.85 2.947,-1.405 m -9.849,-77.197 c 0.3,-0.378 0.708,-1.01 0.985,-1.67 -0.303,0.548 -0.64,1.107 -0.985,1.67 m -0.215,0.356 c -0.015,0.022 -0.027,0.044 -0.041,0.067 0.018,-0.026 0.04,-0.05 0.057,-0.077 -10e-4,-0.003 -0.012,0.009 -0.016,0.01 m -10.712,12.07 c -1.295,0.839 -1.858,1.482 -2.785,1.983 0.354,-0.246 0.717,-0.477 1.061,-0.734 -0.301,0.145 -0.813,0.408 -1.256,0.665 -0.054,0.032 -0.107,0.062 -0.161,0.093 -0.151,0.092 -0.289,0.18 -0.399,0.261 0.046,-0.04 0.108,-0.086 0.181,-0.138 -2.128,1.218 -4.242,2.121 -6.328,2.866 0.725,-0.077 1.962,-0.378 3.419,-0.917 1.748,-0.778 0.665,-0.529 0.98,-0.638 1.612,-0.776 2.283,-1.138 2.945,-1.378 0.66,-0.243 1.213,-0.534 2.375,-1.489 0.861,-0.831 -0.17,-0.317 -0.032,-0.574 m 0.225,0.699 -0.038,0.018 c -0.671,0.553 -0.435,0.354 0.038,-0.018 m -18.921,7.134 c 0.432,-0.067 0.908,-0.161 1.313,-0.267 -0.072,-0.03 0.083,-0.14 0.202,-0.217 -0.508,0.157 -1.013,0.318 -1.515,0.484 m -6.547,2.863 c 0.092,0.05 0.196,0.099 0.297,0.146 -0.167,-0.006 -0.36,-0.002 -0.546,0.005 -0.514,0.311 -1.025,0.638 -1.528,0.998 0.174,-0.018 0.381,-0.05 0.589,-0.093 0.289,-0.061 0.548,-0.127 0.73,-0.191 0.038,-0.028 0.235,-0.299 0.701,-0.631 0.435,-0.325 0.985,-0.779 1.261,-0.962 0.096,-0.075 0.133,-0.124 0.138,-0.159 -0.552,0.274 -1.1,0.568 -1.642,0.887 m -18.084,7.589 0.026,0.347 c 0.084,-0.78 0.033,-0.563 -0.026,-0.347 m 17.128,-4.44 c 0.776,-0.372 1.624,-0.751 2.551,-1.134 -0.782,0.1 -1.272,0.101 -1.695,0.239 l -0.474,0.339 -0.659,0.224 c -0.179,0.208 -0.151,0.34 0.277,0.332 m 17.967,-5.528 c 0.452,-0.086 0.9,-0.173 1.368,-0.256 -0.468,-0.008 -0.936,-0.01 -1.407,-0.038 0.122,0.052 0.088,0.168 0.039,0.294 m 21.396,-15.066 c 0.182,-0.309 0.349,-0.604 0.508,-0.893 -0.055,0.057 -0.115,0.119 -0.165,0.171 0.093,-0.131 0.202,-0.284 0.308,-0.433 0.063,-0.115 0.125,-0.23 0.184,-0.341 0.153,-0.441 0.287,-0.828 0.37,-1.066 -0.356,0.624 -0.764,1.342 -1.19,2.008 -0.095,0.23 0.068,0.098 0.328,-0.168 -0.089,0.114 -0.174,0.223 -0.243,0.312 -0.133,0.291 -0.149,0.402 -0.1,0.41 m 41.716,28.084 c 0.038,0.928 0.001,1.849 -0.009,2.786 -1.178,3.537 0.216,-3.709 -1.777,2.126 -1.613,4.038 0.026,1.731 -0.327,3.238 -1.08,1.956 -3.184,5.084 -4.652,8.814 0.724,-1.11 1.168,-2.052 1.735,-3.149 -0.316,0.976 -0.715,1.917 -1.081,2.881 1.163,-1.473 1.951,-2.875 2.364,-3.537 0.419,-0.66 0.471,-0.587 0.071,0.836 -0.682,-0.085 -1.993,2.597 -3.591,5.127 -1.57,2.544 -3.363,4.947 -4.011,4.725 l -1.003,1.766 c 0.34,-0.467 0.457,-0.494 0.793,-0.957 -0.93,1.763 -1.62,2.159 -2.384,2.645 -0.777,0.481 -1.681,1.015 -3.337,2.882 -1.126,1.332 -1.91,2.282 -0.932,1.576 -1.015,0.824 -2.024,1.644 -3.079,2.404 -0.609,0.56 -0.58,0.7 -0.196,0.438 -1.336,1.122 -2.718,2.185 -4.129,3.201 l 0.058,0.004 c -0.79,0.36 -2.544,1.178 -3.382,1.586 -1.15,0.966 0.705,-0.291 0.474,0.048 -0.974,0.5 -1.928,1.023 -2.911,1.489 -0.96,0.978 1.533,-0.128 3.38,-1.451 -0.909,1.39 -1.545,1.694 -2.573,2.169 C 68.232,0.373 66.802,1 64.056,2.89 L 66.864,1.546 C 65.463,3.16 63.203,4.124 60.122,5.964 60.868,5.469 65.998,1.841 62.653,3.151 62.225,3.417 61.719,3.706 61.09,4.006 60.451,4.283 59.683,4.557 58.754,4.822 58.929,5.274 57.138,5.882 54.921,6.68 l 0.357,0.519 C 52.779,7.842 52.885,7.504 51.369,7.67 48.66,8.506 48.19,9.079 47.616,9.611 c -4.464,1.096 2.918,-1.417 -2.389,-0.376 -3.679,0.928 -6.405,0.992 -10.909,0.774 -2.636,0.269 0.468,0.363 -0.476,0.559 -0.788,-0.131 -1.568,-0.304 -2.343,-0.496 -0.572,-0.004 -0.392,0.151 -0.3,0.229 C 29.237,10.027 31.046,9.759 27.995,9.364 27.606,9.004 26.028,9.141 24.065,9.104 22.107,9.087 19.752,8.909 17.982,8.105 17.028,8.073 18.344,8.567 18.014,8.737 15.503,7.96 14.433,7.509 13.498,7.128 12.565,6.728 11.744,6.335 9.855,5.275 8.674,4.958 7.495,4.612 6.328,4.219 8.983,4.88 5.999,3.077 3.658,1.252 3.798,1.293 3.93,1.327 4.064,1.363 3.722,1.179 3.389,0.976 3.05,0.784 3.247,0.938 3.448,1.093 3.658,1.252 3.487,1.205 3.308,1.155 3.132,1.106 2.941,0.907 2.785,0.725 2.617,0.536 1.96,0.157 1.308,-0.232 0.666,-0.639 0.54,-0.495 0.939,0.011 1.472,0.578 2.033,0.765 2.581,0.957 3.132,1.106 3.959,2.001 4.763,2.859 4.381,3.067 4.135,2.862 3.627,2.539 3.07,2.184 3.292,2.422 3.424,2.597 3.269,2.581 3.096,2.558 2.717,2.2 2.112,1.68 L 0.825,1.709 0.735,1.342 c -1.871,-0.971 -3.693,-2.05 -5.459,-3.221 -1.025,-1.048 -1.921,-2.132 -2.844,-3.258 -0.129,-0.216 -0.418,-0.476 -0.782,-0.81 -0.336,-0.333 -0.879,-0.782 -1.076,-1.619 -0.087,-0.386 -0.041,-0.859 0.144,-1.215 0.18,-0.358 0.423,-0.587 0.641,-0.768 0.447,-0.36 0.856,-0.557 1.164,-0.853 1.178,-1.137 2.465,-2.466 3.879,-4.058 -1.483,1.024 -0.87,-0.224 -1.39,-0.522 -0.448,1.171 -1.788,2.477 -3.235,3.966 -0.203,0.24 -0.749,0.408 -1.529,1.393 -0.186,0.27 -0.37,0.632 -0.45,1.068 -0.075,0.442 -0.03,0.878 0.089,1.261 0.2,0.597 0.544,1.006 0.857,1.289 -0.428,-0.381 -0.8,-0.887 -0.943,-1.323 -0.189,-0.519 -0.198,-0.857 -0.241,-0.959 -0.069,-0.234 -0.269,0.474 -0.083,1.136 -0.205,-0.622 -0.166,-1.482 0.126,-2.1 0.28,-0.618 0.634,-0.959 0.898,-1.204 0.564,-0.486 0.867,-0.64 1.014,-0.776 l 2.487,-2.541 c -0.469,-0.191 0.583,-1.285 1.492,-2.711 -0.024,0.626 0.524,0.238 1.311,-0.572 0.393,-0.405 0.846,-0.915 1.318,-1.457 0.566,-0.662 1.162,-1.356 1.719,-2.007 0.696,-0.764 1.274,-1.279 1.87,-1.472 0.059,-0.148 -0.038,-0.275 -0.373,-0.212 -0.316,0.089 -0.879,0.299 -1.742,1.273 -0.206,0.246 -0.439,0.524 -0.699,0.836 -0.226,0.281 -0.475,0.591 -0.747,0.93 0.107,-0.231 0.389,-0.644 0.629,-0.979 0.244,-0.342 0.487,-0.656 0.724,-0.942 0.564,-0.673 1.14,-1.019 1.639,-1.227 0.26,-0.093 0.537,-0.172 0.852,-0.137 0.315,0.025 0.594,0.18 0.828,0.355 0.458,0.336 0.928,0.867 1.458,1.348 0.487,0.44 1.239,1.041 1.785,1.313 -0.33,-0.269 -0.583,-0.475 -0.788,-0.641 -0.241,-0.211 -0.412,-0.396 -0.535,-0.597 0.221,0.217 0.484,0.491 0.776,0.746 0.27,0.241 0.453,0.42 0.719,0.626 0.498,0.398 1.044,0.795 1.545,1.103 0.996,0.626 1.763,0.948 1.412,0.56 l -0.622,-0.416 c 2.083,1.365 5.427,3.149 8.48,4.333 3.039,1.214 5.709,1.977 6.015,2.425 0.07,-0.098 -0.463,-1.072 -0.713,-1.306 1.896,1.041 3.883,2.009 5.954,2.868 0.946,0.097 1.886,0.166 2.819,0.211 0.394,-0.724 1.012,-1.563 -1.847,-2.047 0.597,-0.007 1.261,-0.007 2.086,0.04 0.826,-0.007 1.812,0.068 3.062,0.175 -0.796,0.123 -2.037,0.985 -0.909,1.076 1.547,-0.382 2.064,-0.564 2.682,-0.663 0.614,-0.096 1.321,-0.263 3.136,-0.786 -1.191,0.266 0.288,1.266 2.231,0.863 -0.328,-0.11 -0.035,-1.089 -0.743,-1.084 1.506,0.109 3.024,0.08 4.561,0.011 -0.649,-0.086 0.047,-0.905 0.85,-1.426 -0.398,0.379 3.902,-1.264 5.051,-1.801 -0.583,0.343 -1.154,0.723 -1.764,1.017 2.469,-1.077 3.807,-1.359 5.185,-1.65 0.698,-0.125 1.375,-0.306 2.182,-0.621 0.404,-0.156 0.841,-0.347 1.324,-0.589 0.47,-0.263 0.978,-0.59 1.547,-0.983 -0.688,0.199 -2.098,-0.226 0.084,-1.869 0.647,-0.171 2.19,-0.43 4.042,-1.149 0.129,-0.049 0.27,-0.117 0.402,-0.169 0.45,-0.379 0.903,-0.747 1.348,-1.144 1.13,-1.009 2.201,-2.05 3.218,-3.121 -0.313,0.19 -0.63,0.38 -0.954,0.567 -2.098,1.274 -4.402,2.415 -5.96,3.253 1.398,-1.493 0.211,-0.635 2.515,-2.591 0.288,-0.474 -0.081,-0.268 -0.618,0.108 -0.55,0.364 -1.259,0.91 -1.601,1.189 1.765,-1.525 3.401,-3.168 4.929,-4.889 0.119,0.324 1.166,-0.52 2.124,-1.464 0.984,-0.923 1.878,-1.94 2.016,-1.673 -1.701,1.913 -3.547,3.677 -5.513,5.286 0.106,0.332 1.223,-0.098 2.709,-1.167 1.493,-1.054 3.288,-2.826 4.689,-4.965 0.505,-1.211 -1.477,0.156 -1.591,-0.071 0.267,-0.203 1.035,-1.107 1.694,-2.06 0.661,-0.952 1.231,-1.936 1.255,-2.182 -0.419,0.573 -0.885,1.112 -1.345,1.649 1.17,-2.451 2.998,-3.54 3.619,-6.891 0.162,-0.551 0.266,-1.417 0.331,-2.158 0.054,-0.746 0.124,-1.354 0.335,-1.399 0.12,1.167 0.897,2.03 1.693,2.301 0.408,-1.285 0.749,-2.602 1.035,-3.944 l -0.287,0.119 c 0.058,-0.253 0.132,-0.504 0.173,-0.761 l 0.235,0.077 c 0.269,-1.343 0.475,-2.713 0.62,-4.111 -0.49,-0.471 -1.585,2.965 -1.835,1.464 0.182,-0.042 0.526,-1.061 0.65,-1.493 -0.027,-1.228 -0.568,0.447 -0.291,-2.171 0.707,-0.401 0.088,-5.407 0.603,-1.229 0.13,-1.305 0.11,-2.004 0.026,-2.753 -0.064,-0.75 -0.132,-1.553 -0.262,-3.078 0.322,0.633 0.769,-0.82 0.925,-2.657 -0.153,-1.154 -0.338,-2.298 -0.572,-3.423 -0.034,-0.054 -0.07,-0.111 -0.099,-0.154 -1.298,-5.31 -2.651,-7.966 -5.048,-12.394 -0.327,-0.357 -1.796,-2.294 -1.483,-1.276 -0.274,-0.672 -0.431,-1.359 -1.319,-2.632 -2.161,-2.121 1.89,2.87 0.034,1.385 0.218,-0.37 -1.819,-3.571 -3.168,-5.339 0.934,0.091 3.362,3.894 4.289,5.9 0.245,-0.151 0.234,-0.695 -0.011,-1.525 -1.736,-2.563 -3.751,-5.014 -6.071,-7.338 -1.647,-1.649 -3.382,-3.12 -5.174,-4.459 -0.297,-0.202 -0.651,-0.436 -1.036,-0.68 0.008,0.278 0.014,0.569 0.018,0.869 0.255,0.106 0.414,0.151 0.634,0.219 0.005,-0.033 0.008,-0.052 0.013,-0.09 -0.003,0.027 -0.007,0.061 -0.01,0.091 0.049,0.015 0.091,0.027 0.15,0.046 l -0.193,0.36 c -0.067,0.632 -0.151,1.243 -0.234,0.206 0.015,-0.073 0.03,-0.11 0.044,-0.135 -0.129,-0.142 -0.268,-0.27 -0.4,-0.407 0.025,3.57 -0.373,8.576 -3.231,14.603 0.025,-0.055 0.051,-0.111 0.08,-0.16 l 0.049,0.073 c -0.238,0.542 -0.488,0.899 -0.379,0.612 -0.232,0.472 -0.491,0.953 -0.755,1.437 0.568,-0.843 0.616,-0.019 0.353,0.96 -0.068,0.002 -0.115,-0.023 -0.791,0.945 0.076,-0.195 0.377,-0.775 0.58,-1.206 0.18,-0.445 0.272,-0.736 -0.01,-0.328 -0.83,1.308 -0.607,1.114 -0.932,1.8 0.096,-0.317 -0.21,0.074 -0.542,0.489 -0.269,0.313 -0.56,0.625 -0.682,0.66 -1.332,1.99 -2.919,4.056 -4.867,6.201 -0.327,0.361 -0.655,0.701 -0.982,1.037 0,0.014 -0.01,0.039 -0.044,0.088 l -0.627,0.6 c -0.462,0.673 1.292,-1.024 0.565,-0.191 0.447,-0.381 0.933,-0.778 1.443,-1.238 0.476,-0.487 0.975,-1.036 1.483,-1.687 l 0.045,-0.366 c 0.023,0.064 -0.61,0.894 -0.959,1.203 0.522,-0.461 1.44,-2.079 2.083,-2.527 l -0.596,1.003 c 0.781,-0.878 1.91,-1.86 2.661,-3.137 -0.218,0.666 -0.202,0.271 -0.621,1.262 0.319,-0.893 -2.295,2.992 -1.646,1.647 -0.45,1.016 -1.108,1.485 -1.842,2.71 -0.031,-0.085 0.25,-0.447 -0.575,0.48 -0.054,0.026 -0.166,0.104 -0.235,0.154 -0.025,0.028 -0.034,0.038 -0.056,0.063 l 0.043,-0.054 c -0.046,0.031 -0.05,0.033 0.016,-0.02 0.186,-0.232 0.328,-0.426 0.369,-0.521 -0.547,0.335 -1.924,1.735 -2.445,2.148 -0.519,0.518 0.279,-0.15 0.036,0.176 l -0.838,0.556 c 0.027,0.174 -1.332,1.458 0.052,0.397 l -1.192,1.022 c -0.666,0.647 -1.718,1.383 -2.387,1.794 -0.598,0.445 -1.693,0.822 -1.071,0.603 -0.732,0.375 -1.427,0.818 -2.19,1.124 l -0.003,0.043 c -2.148,1.16 -4.642,1.786 -7.15,2.896 -0.78,0.207 -1.586,0.418 -2.854,0.837 l -0.212,0.199 c -0.996,0.257 -2.898,1.003 -3.34,1.028 -0.462,0.339 -1.622,0.728 -2.82,1.2 -0.615,0.211 -1.219,0.48 -1.775,0.731 -0.279,0.126 -0.545,0.246 -0.791,0.357 l -0.178,0.083 -0.059,0.036 -0.105,0.07 -0.155,-0.106 c -0.228,0.139 -0.507,0.279 -0.752,0.411 -0.247,0.141 -0.509,0.292 -0.806,0.462 l -0.43,0.099 c -0.457,0.254 -0.739,0.58 -0.91,0.802 -0.122,0.075 -0.096,0.332 0.194,0.435 0.289,0.124 0.554,-0.128 0.724,-0.207 0.144,-0.139 -0.063,0.034 -0.372,0.173 1.164,-0.73 1.127,-0.702 1.523,-0.802 0.174,-0.045 0.399,-0.103 0.676,-0.204 0.137,-0.049 0.279,-0.107 0.41,-0.171 0.274,-0.116 0.546,-0.242 0.802,-0.375 0.553,-0.163 0.939,-0.313 1.303,-0.49 -0.05,0.016 -0.094,0.029 -0.137,0.042 0.056,-0.021 0.137,-0.051 0.221,-0.083 0.229,-0.112 0.464,-0.228 0.725,-0.34 -0.229,0.112 -0.437,0.214 -0.606,0.297 0.416,-0.151 1.059,-0.341 1.692,-0.52 l 0.217,-0.237 c 0.051,-0.015 0.092,-0.026 0.146,-0.042 0.597,-0.251 0.517,-0.084 0.226,0.135 0.323,-0.074 0.621,-0.135 0.855,-0.169 0.427,-0.396 1.669,-0.412 2.284,-0.856 0.46,0.002 3.214,-0.733 3.62,-0.514 0.014,-0.041 0.197,-0.101 -0.147,-0.024 0.703,-0.193 1.404,-0.392 2.061,-0.44 l 0.261,-0.263 1.612,-0.042 c 0.924,-0.3 1.306,-0.445 0.334,-0.423 2.324,-0.19 1.812,-0.305 3.769,-0.495 l -0.128,-0.106 c 0.674,-0.132 1.75,-0.405 2.112,-0.627 0.339,-0.195 0.971,-0.413 1.711,-0.83 0.749,-0.394 1.696,-0.795 2.609,-1.415 1.919,-1.084 3.825,-2.749 5.166,-4.184 -0.254,0.826 1.143,-1.443 1.471,-1.349 0.08,-0.238 0.391,-0.693 -0.077,-0.256 1.377,-1.471 1.785,-2.423 2.785,-3.417 0.05,-0.244 -0.348,0.284 -0.28,0.082 0.104,-0.123 0.416,-0.489 0.485,-0.694 0.066,-0.2 -0.226,0.204 -0.432,0.446 1.146,-1.689 1.449,-1.754 1.767,-1.742 0.117,-0.261 0.18,-0.41 0.322,-0.68 0.135,-0.27 0.249,-0.499 0.362,-0.725 0.235,-0.44 0.471,-0.778 0.713,-1.065 0.174,-0.603 0.597,-1.72 -0.255,0.027 0.23,-0.447 0.95,-2.176 1.595,-3.689 0.084,0.006 0.172,0.058 0.236,0.027 0.061,0.231 0.099,0.585 0.135,0.823 0.065,0.514 0.084,0.883 0.053,1.021 0.083,0.15 0.167,1.193 0.175,1.453 0.081,1.017 0.133,1.589 0.146,2.173 10e-4,0.299 0.002,0.597 0.003,0.956 -0.002,0.282 -0.002,0.59 -0.036,1.001 l -0.011,-0.454 c -0.31,0.633 -0.088,1.354 -0.286,2.66 l 0.03,-0.035 c -0.054,1.514 -0.201,1.826 -0.254,2.142 -0.081,0.312 -0.107,0.625 -0.369,2.098 l -0.118,-0.195 c -0.378,0.183 -0.437,2.616 -1.24,4.183 l 0.148,-0.611 c -0.232,0.416 -0.368,1.067 -0.49,1.737 -0.122,0.67 -0.317,1.322 -0.504,1.767 -0.067,0.202 0.192,-0.274 0.344,-0.527 -0.97,2.342 -0.301,0.218 -1.251,1.826 -0.085,0.352 0.484,-0.237 -0.164,0.853 -0.224,0.622 -2.307,2.866 -3.327,4.241 0.191,-0.339 0.375,-0.67 -0.256,-0.074 -0.87,0.967 -2.249,2.871 -3.438,3.345 -0.119,0.124 -0.156,0.182 -0.149,0.204 -0.428,0.283 -1.143,0.717 -1.822,1.096 -0.699,0.347 -1.347,0.674 -1.664,0.722 -0.292,0.459 -1.769,1.084 -3.177,1.461 -1.399,0.409 -2.707,0.639 -2.634,0.884 -1.01,0.242 -2.025,0.441 -3.043,0.617 l 0.089,0.038 c -1.946,0.368 -2.656,0.322 -3.357,0.299 -0.446,0.091 -0.111,0.097 -0.07,0.119 -2.839,0.459 -3.127,0.446 -5.536,0.46 l -0.23,0.192 c -0.659,-0.021 -4.068,0.696 -6.82,1.017 0.03,0.014 0.093,0.036 0.314,0.021 -1.551,0.187 -3.355,0.692 -4.859,1.241 -1.515,0.532 -2.738,1.074 -3.384,1.018 -0.625,0.263 -1.281,0.479 -1.893,0.784 2.345,-1.251 -0.486,-0.072 0.449,-0.65 -0.958,0.464 -2.285,1.496 -1.149,0.877 l 0.161,-0.126 c 0.288,0.029 -0.438,0.424 -1.142,0.941 -0.734,0.474 -1.443,1.064 -1.352,1.123 -1.037,0.776 -1.97,1.674 -2.831,2.617 -0.652,0.698 -1.206,1.406 -1.815,2.113 l -0.45,0.534 c -0.096,0.18 -0.096,-0.064 -0.133,-0.141 l -0.09,-0.327 c -0.114,-0.437 -0.241,-0.861 -0.346,-1.317 -0.5,-2.076 -0.673,-2.987 -0.889,-4.334 -0.22,-1.262 -0.354,-2.524 -0.482,-3.774 l 0.302,0.553 c -0.071,-0.578 -0.125,-1.157 -0.154,-1.739 -0.083,-0.453 -0.226,-0.604 -0.144,0.644 -0.176,-0.648 -0.004,-2.1 0.048,-2.135 -0.201,-2.438 -0.253,0.965 -0.279,0.217 -0.008,-0.34 -0.039,-0.679 -0.027,-1.02 l 0.03,0.229 c 0.095,-0.83 0.2,-0.904 0.179,-2.403 -0.05,-0.95 -0.159,-0.49 -0.157,-0.864 -0.018,10e-4 -0.019,-0.125 0.023,-0.575 l 0.096,-2.21 0.145,0.895 c 0.136,-0.971 0.117,-2.068 0.263,-1.038 -0.076,-0.379 -0.016,-1.077 0.048,-1.93 0.082,-0.851 0.153,-1.862 0.376,-2.833 0.197,-0.973 0.39,-1.929 0.546,-2.698 0.216,-0.755 0.374,-1.328 0.412,-1.556 0.258,-0.641 0.475,-1.285 0.693,-1.969 0.265,-0.671 0.542,-1.373 0.849,-2.153 -0.115,0.403 -0.004,0.712 0.498,-0.634 -0.28,0.167 -0.156,-0.499 0.238,-1.283 0.377,-0.791 0.866,-1.763 0.999,-2.364 -0.126,0.532 0.285,-0.425 0.861,-1.194 0.561,-0.781 1.086,-1.487 0.75,-0.726 0.649,-1.017 -0.099,-0.153 0.333,-0.973 0.82,-1.194 1.908,-2.352 2.978,-3.647 0.274,-0.318 0.534,-0.657 0.828,-0.97 0.311,-0.298 0.624,-0.599 0.939,-0.902 l 0.966,-0.907 c 0.34,-0.285 0.703,-0.548 1.06,-0.818 0.079,0.013 -0.338,0.447 0.321,0.05 0.44,-0.456 0.866,-0.941 1.358,-1.345 0.615,-0.361 0.73,-0.067 1.71,-0.937 -0.129,0.141 -0.318,0.351 0.089,0.113 2.95,-1.89 6.391,-3.076 9.878,-3.797 3.496,-0.732 7.055,-1.045 10.551,-1.448 -0.946,0.158 -0.311,0.132 0.413,0.116 -0.47,0.043 0.016,0.144 -0.073,0.227 l 2.92,-0.305 c 0.54,0.206 3.131,-0.053 3.439,0.139 l -0.924,-0.01 c 0.68,0.121 0.097,0.288 -0.535,0.467 0.98,-0.023 1.947,-0.049 2.881,-0.089 4.096,-0.176 7.789,-2.712 9.31,-6.518 1.285,-3.214 1.584,-6.06 1.64,-7.617 0.009,-0.242 0.098,-0.455 0.216,-0.648 -0.032,-0.02 -0.061,-0.039 -0.093,-0.059 -0.211,-0.116 -0.435,-0.239 -0.654,-0.358 -0.184,0.355 -0.259,0.762 -0.241,0.931 0.035,0.177 -10e-4,0.075 0.162,-0.381 -0.069,0.241 -0.091,0.481 -0.098,0.588 -0.014,0.165 -0.031,0.298 -0.047,0.4 -0.032,0.203 -0.064,0.282 -0.081,0.247 -0.018,-0.036 -0.026,-0.185 -0.023,-0.44 0.007,-0.155 -0.011,-0.207 0.028,-0.563 0.036,-0.246 0.14,-0.519 0.298,-0.783 -0.572,-0.313 -1.158,-0.634 -1.767,-0.967 -3.401,-1.791 -7.53,-3.206 -10.542,-3.709 -0.717,-0.273 -1.817,-0.611 -2.091,-0.802 -6.827,-1.264 -13.897,-0.959 -20.753,0.823 0.081,0.051 0.107,0.119 0.042,0.213 l -1.492,0.256 -1.144,0.277 c -0.101,0.032 -0.201,0.067 -0.302,0.099 0.126,0.072 0.985,-0.05 0.281,0.277 -0.105,-0.103 -0.54,-0.092 -1.147,0.008 -1.384,0.476 -2.757,0.996 -4.111,1.593 -0.07,0.04 -0.143,0.077 -0.212,0.118 -0.075,0.026 -0.138,0.041 -0.206,0.062 -1.115,0.503 -2.205,1.037 -3.274,1.598 -0.102,0.071 -0.237,0.158 -0.412,0.265 -0.131,0.047 -0.26,0.116 -0.39,0.183 -6.833,3.726 -12.724,8.669 -17.526,14.926 -7.976,10.391 -11.471,22.061 -9.614,35.204 1.159,8.204 3.133,16.115 7.409,23.312 0.084,0.143 0.177,0.279 0.263,0.42 1.106,1.167 2.269,2.169 2.323,2.611 -0.484,-0.464 -0.958,-0.937 -1.416,-1.425 0.17,0.271 0.242,0.454 0.248,0.58 0.89,1.283 1.848,2.517 2.878,3.704 -1.767,-1.276 -3.399,-2.681 -4.897,-4.203 -1.094,-0.563 -2.23,-1.251 -2.42,-0.842 -0.737,-1.463 -2.257,-2.895 -3.74,-4.761 -1.512,-1.861 -2.825,-4.129 -3.427,-6.683 -0.633,-0.963 0.128,1.012 -0.311,0.546 -0.147,-1.384 -0.825,-2.795 -1.995,-5.489 l 0.028,0.345 c -1.458,-3.859 -2.28,-6.7 -3.094,-9.683 -0.752,-2.997 -1.458,-6.172 -1.79,-10.869 0.157,0.227 0.297,0.453 0.471,0.675 -0.106,-2.002 -0.235,-2.426 -0.363,-3.371 0.641,-2.296 0.127,5.644 0.854,3.517 -0.281,-0.646 -0.379,-1.859 -0.464,-3.337 -0.051,-1.476 0.044,-3.22 0.181,-4.927 0.188,-1.704 0.35,-3.384 0.561,-4.741 0.165,-1.365 0.223,-2.434 0.098,-2.928 0.74,-3.015 0.292,1 1.028,-2 l -0.076,-0.87 0.582,-0.644 c 0.544,-1.939 0.515,-3.029 0.313,-3.182 -0.122,0.481 -0.485,1.32 -0.663,1.821 0.389,-2.673 2.694,-6.948 2.99,-7.791 -0.34,0.936 -0.73,1.846 -1.025,2.798 0.406,-0.976 0.908,-1.938 1.361,-2.945 0.438,-1.013 0.984,-2.004 1.533,-3.007 0.545,-1.006 1.095,-2.023 1.648,-3.045 0.636,-0.975 1.274,-1.954 1.911,-2.931 l 0.961,-1.458 1.079,-1.364 c 0.724,-0.898 1.442,-1.788 2.149,-2.664 0.777,-0.815 1.56,-1.599 2.327,-2.36 0.764,-0.764 1.515,-1.502 2.342,-2.108 l -0.309,0.568 c 2.443,-1.917 3.257,-2.854 4.285,-3.679 0.496,-0.432 1.004,-0.881 1.735,-1.472 0.37,-0.289 0.791,-0.618 1.288,-1.006 0.536,-0.331 1.154,-0.711 1.879,-1.158 l -0.236,0.091 c 1.271,-0.546 2.817,-1.482 4.479,-2.309 -1.645,0.58 2.643,-1.933 0.514,-1.13 0.775,-0.342 1.403,-0.62 1.919,-0.848 0.53,-0.193 0.951,-0.326 1.285,-0.435 0.67,-0.214 1.008,-0.299 1.285,-0.346 0.558,-0.073 0.853,-0.077 3.048,-0.474 l 0.848,-0.65 c 0.767,-0.083 1.19,-0.092 1.826,-0.201 0.638,-0.097 1.466,-0.367 3.117,-0.674 -2.765,0.346 1.966,-1.022 -1.161,-0.69 1.687,-0.595 3.197,-1.022 4.552,-1.295 1.372,-0.19 2.58,-0.286 3.662,-0.373 1.078,-0.118 2.042,-0.12 2.934,-0.196 0.891,-0.087 1.709,-0.258 2.517,-0.596 3.3,0.763 -6.111,0.947 -4.267,1.062 -0.734,0.292 -0.054,0.305 1.09,0.385 1.143,0.052 2.734,0.022 3.831,-0.101 1.118,-0.069 2.065,-0.317 3.462,-0.622 0.698,-0.134 1.512,-0.308 2.507,-0.361 0.993,-0.019 2.172,0.02 3.602,0.162 -0.57,-0.05 -0.601,-0.127 -1.17,-0.178 1.082,-10e-4 2.135,0.119 3.221,0.383 1.088,0.261 2.231,0.512 3.57,0.546 1.338,0.804 3.35,0.696 3.576,1.532 -0.832,-0.256 -1.675,-0.467 -2.515,-0.697 l -2.558,-0.548 c 2.914,0.677 5.367,2.13 10.075,3.244 -0.309,-0.255 -1.612,-0.922 -2.541,-1.298 1.436,0.191 2.571,0.961 4.033,1.256 -0.064,-0.431 -1.552,-1.026 -3.405,-1.611 -1.85,-0.603 -4.067,-1.143 -5.568,-1.769 1.603,-0.023 5.719,2.043 4.39,0.82 1.916,1.617 5.492,1.56 8.763,3.88 l -0.052,-0.517 c 0.544,0.303 1.608,1.046 2.629,1.536 -0.52,-0.49 -1.065,-0.944 -1.606,-1.421 2.653,1.778 5.688,2.383 8.135,4.287 -5.456,-3.356 -1.496,-0.308 -3.981,-1.377 3.235,2.186 4.256,2.639 5.495,3.043 1.113,0.422 2.458,0.831 5.3,3.302 -1.107,-0.872 -2.786,-1.87 -1.695,-0.783 1.367,0.973 3.117,2.331 4.043,2.855 4.117,4.162 -0.956,-0.301 0.623,1.642 1.805,0.993 1.852,2.189 3.385,4.193 l 0.361,-0.287 c 2.268,2.425 2.26,2.997 2.314,3.396 0.03,0.424 0.038,0.747 1.852,3.084 l -0.905,-2.429 c 0.541,0.889 1.104,1.76 1.621,2.659 0.035,-0.278 0.065,-0.554 0.085,-0.826 1.501,3.081 2.134,3.911 3.768,6.818 -0.657,-0.533 -0.492,0.736 0.648,3.401 1.035,1.717 0.009,-1.216 1.48,2.654 -0.087,-0.962 -0.081,-2.092 -1.233,-3.566 0.062,-0.23 -0.116,-0.966 -0.06,-1.205 1.203,1.839 2.223,4.989 2.662,6.432 -0.208,-0.545 -0.452,-1.197 -0.64,-1.508 l 0.688,2.956 0.548,2.969 c 0.39,0.87 0.368,0.105 0.278,-0.646 0.282,1.189 0.281,2.06 0.655,3.804 0.272,-0.537 0.674,-0.51 0.215,-3.037 0.364,1.901 0.645,3.808 0.869,5.713 0.225,0.344 0.936,2.836 0.947,2.078 0.75,3.15 0.249,7.87 0.491,12.092 -0.067,0.22 -0.143,0.662 -0.23,1.561 -0.055,3.963 0.027,7.616 -1.52,12.149" style="fill:#ffffff;fill-opacity:1;fill-rule:nonzero;stroke:none" transform="matrix(0.35277776,0,0,-0.35277776,91.723633,128.87602)" clip-path="url(#clipPath208)"></path><path id="path209" d="M 0,0 C 0.181,-0.152 0.37,-0.293 0.548,-0.448 0.325,-0.243 0.141,-0.096 0,0" style="fill:#ffffff;fill-opacity:1;fill-rule:nonzero;stroke:none" transform="matrix(0.35277776,0,0,-0.35277776,119.36765,131.39266)" clip-path="url(#clipPath210)"></path><path id="path211" d="M 0,0 C 0.244,0.192 0.461,0.379 0.614,0.535 0.394,0.336 0.204,0.177 0,0" style="fill:#ffffff;fill-opacity:1;fill-rule:nonzero;stroke:none" transform="matrix(0.35277776,0,0,-0.35277776,119.42614,166.94197)" clip-path="url(#clipPath212)"></path><path id="path213" d="M 0,0 C 0.1,0.089 0.201,0.179 0.306,0.251 0.212,0.181 0.108,0.098 0,0" style="fill:#ffffff;fill-opacity:1;fill-rule:nonzero;stroke:none" transform="matrix(0.35277776,0,0,-0.35277776,88.458286,130.9943)" clip-path="url(#clipPath214)"></path><path id="path215" d="M 0,0 C 0.257,0.044 0.357,-0.001 0.448,-0.052 0.718,0.173 0.686,0.257 0,0" style="fill:#ffffff;fill-opacity:1;fill-rule:nonzero;stroke:none" transform="matrix(0.35277776,0,0,-0.35277776,93.111283,127.77589)" clip-path="url(#clipPath216)"></path><path id="path217" d="M 0,0 C 0.027,-0.076 0.055,-0.117 0.083,-0.139 L 0.005,0.139 Z" style="fill:#ffffff;fill-opacity:1;fill-rule:nonzero;stroke:none" transform="matrix(0.35277776,0,0,-0.35277776,127.54024,148.43566)" clip-path="url(#clipPath218)"></path><path id="path219" d="M 0,0 C -0.03,0.779 0,1.223 0.051,1.523 -0.066,1.549 -0.117,1.183 0,0" style="fill:#ffffff;fill-opacity:1;fill-rule:nonzero;stroke:none" transform="matrix(0.35277776,0,0,-0.35277776,119.61901,146.96529)" clip-path="url(#clipPath220)"></path><path id="path221" d="M 0,0 0.828,-0.13 2.822,-0.231 Z" style="fill:#ffffff;fill-opacity:1;fill-rule:nonzero;stroke:none" transform="matrix(0.35277776,0,0,-0.35277776,102.89385,165.25163)" clip-path="url(#clipPath222)"></path><path id="path223" d="M 0,0 C -0.073,-0.345 -2.105,-2.596 -0.068,-0.702 0.046,-0.379 2.558,2.819 0,0" style="fill:#ffffff;fill-opacity:1;fill-rule:nonzero;stroke:none" transform="matrix(0.35277776,0,0,-0.35277776,115.46148,159.87995)" clip-path="url(#clipPath224)"></path><path id="path225" d="M 0,0 C -1.935,0.913 -2.868,1.488 -2.314,0.491 0.553,-1.471 -1.271,0.635 1.241,-1.305 1.645,-1.442 1.144,-1.025 0.636,-0.62 0.112,-0.243 -0.415,0.133 0,0" style="fill:#ffffff;fill-opacity:1;fill-rule:nonzero;stroke:none" transform="matrix(0.35277776,0,0,-0.35277776,111.70094,135.1852)" clip-path="url(#clipPath226)"></path><path id="path227" d="M 0,0 C 0.315,-0.138 0.648,-0.284 1.007,-0.441 0.454,-0.158 0.173,-0.061 0,0" style="fill:#ffffff;fill-opacity:1;fill-rule:nonzero;stroke:none" transform="matrix(0.35277776,0,0,-0.35277776,111.70094,135.1852)" clip-path="url(#clipPath228)"></path><path id="path229" d="M 0,0 C 0.567,0.474 1.142,0.935 1.733,1.373 1.307,1.14 0.889,0.892 0.469,0.64 Z" style="fill:#ffffff;fill-opacity:1;fill-rule:nonzero;stroke:none" transform="matrix(0.35277776,0,0,-0.35277776,88.776598,137.10425)" clip-path="url(#clipPath230)"></path><path id="path231" d="m 0,0 c -0.397,-0.322 -1.147,-0.959 -1.533,-1.096 l 0.798,-0.16 C -0.504,-0.831 -0.25,-0.424 0,0" style="fill:#ffffff;fill-opacity:1;fill-rule:nonzero;stroke:none" transform="matrix(0.35277776,0,0,-0.35277776,90.267896,135.51754)" clip-path="url(#clipPath232)"></path><path id="path233" d="M 0,0 -0.229,-0.072 C 0.066,-0.367 0.609,-0.559 1.659,-1.03 1.122,-0.659 0.555,-0.346 0,0" style="fill:#ffffff;fill-opacity:1;fill-rule:nonzero;stroke:none" transform="matrix(0.35277776,0,0,-0.35277776,111.84064,126.41212)" clip-path="url(#clipPath234)"></path><path id="path235" d="m 0,0 c -0.122,0.147 -0.257,0.284 -0.386,0.425 0.118,-0.381 0.216,-0.776 0.315,-1.166 z" style="fill:#ffffff;fill-opacity:1;fill-rule:nonzero;stroke:none" transform="matrix(0.35277776,0,0,-0.35277776,121.43528,133.02458)" clip-path="url(#clipPath236)"></path><path id="path237" d="M 0,0 C -0.344,1.109 -0.937,2.34 -1.354,3.423 -0.306,1.116 -0.579,-0.528 0,0" style="fill:#ffffff;fill-opacity:1;fill-rule:nonzero;stroke:none" transform="matrix(0.35277776,0,0,-0.35277776,126.70208,141.35697)" clip-path="url(#clipPath238)"></path><path id="path239" d="M 0,0 C -0.43,0.047 -0.282,-0.105 -0.347,-0.125 0.364,-0.151 -0.013,0.038 0,0" style="fill:#ffffff;fill-opacity:1;fill-rule:nonzero;stroke:none" transform="matrix(0.35277776,0,0,-0.35277776,108.56387,158.062)" clip-path="url(#clipPath240)"></path><path id="path241" d="M 0,0 C 0.295,-0.214 0.553,-0.469 0.824,-0.718 0.6,-0.488 0.374,-0.261 0.133,-0.052 Z" style="fill:#ffffff;fill-opacity:1;fill-rule:nonzero;stroke:none" transform="matrix(0.35277776,0,0,-0.35277776,110.8209,159.0141)" clip-path="url(#clipPath242)"></path><path id="path243" d="M 0,0 -0.43,0.396 C 0.32,-0.841 1.024,-2.773 1.209,-3.823 1.296,-3.114 0.487,-1.343 0.037,-0.208 0.024,-0.139 0.018,-0.067 0,0" style="fill:#ffffff;fill-opacity:1;fill-rule:nonzero;stroke:none" transform="matrix(0.35277776,0,0,-0.35277776,111.49679,159.86511)" clip-path="url(#clipPath244)"></path><path id="path245" d="M 0,0 C 0.068,0.232 0.153,-0.785 -0.05,0.854 -0.053,0.774 -0.054,0.747 -0.056,0.698 -0.041,0.55 -0.018,0.346 0,0" style="fill:#ffffff;fill-opacity:1;fill-rule:nonzero;stroke:none" transform="matrix(0.35277776,0,0,-0.35277776,111.94948,162.53621)" clip-path="url(#clipPath246)"></path><path id="path247" d="M 0,0 C -0.087,0.72 -0.027,-0.479 0,0" style="fill:#ffffff;fill-opacity:1;fill-rule:nonzero;stroke:none" transform="matrix(0.35277776,0,0,-0.35277776,111.92979,162.29007)" clip-path="url(#clipPath248)"></path><path id="path249" d="M 0,0 -0.249,0.599 C -0.111,0.303 0.054,-0.8 0.109,-0.739 Z" style="fill:#ffffff;fill-opacity:1;fill-rule:nonzero;stroke:none" transform="matrix(0.35277776,0,0,-0.35277776,111.9989,161.05745)" clip-path="url(#clipPath250)"></path><path id="path251" d="m 0,0 c -0.053,0.062 -0.119,-0.352 -0.18,-0.431 0.034,-0.251 0.055,-0.503 0.076,-0.755 0.04,0.389 0.03,1.13 0.104,1.186" style="fill:#ffffff;fill-opacity:1;fill-rule:nonzero;stroke:none" transform="matrix(0.35277776,0,0,-0.35277776,113.65692,161.26372)" clip-path="url(#clipPath252)"></path><path id="path253" d="M 0,0 -0.14,1.127 C -0.101,0.118 -0.054,-0.066 0,0" style="fill:#ffffff;fill-opacity:1;fill-rule:nonzero;stroke:none" transform="matrix(0.35277776,0,0,-0.35277776,113.59328,161.41565)" clip-path="url(#clipPath254)"></path><path id="path255" d="M 0,0 C 0.076,-0.206 0.165,-0.411 0.231,-0.62 L -0.154,0.486 Z" style="fill:#ffffff;fill-opacity:1;fill-rule:nonzero;stroke:none" transform="matrix(0.35277776,0,0,-0.35277776,113.48769,159.7339)" clip-path="url(#clipPath256)"></path><path id="path257" d="m 0,0 c -0.246,0.753 -0.532,1.371 -0.783,1.924 0.228,-0.601 0.44,-1.257 0.604,-2.13 C 0.036,-0.646 -0.189,0.475 0,0" style="fill:#ffffff;fill-opacity:1;fill-rule:nonzero;stroke:none" transform="matrix(0.35277776,0,0,-0.35277776,113.31956,158.6657)" clip-path="url(#clipPath258)"></path><path id="path259" d="m 0,0 -0.08,-0.464 c 0.018,-0.135 0.038,-0.288 0.059,-0.443 C -0.003,-0.816 0.054,-0.639 0,0" style="fill:#ffffff;fill-opacity:1;fill-rule:nonzero;stroke:none" transform="matrix(0.35277776,0,0,-0.35277776,113.49253,160.01923)" clip-path="url(#clipPath260)"></path><path id="path261" d="M 0,0 C -0.021,0.154 -0.037,0.256 -0.051,0.315 -0.037,0.252 -0.019,0.137 0,0" style="fill:#ffffff;fill-opacity:1;fill-rule:nonzero;stroke:none" transform="matrix(0.35277776,0,0,-0.35277776,113.43439,159.95729)" clip-path="url(#clipPath262)"></path><path id="path263" d="m 0,0 c -0.034,0.264 -0.061,0.472 -0.085,0.64 0.022,-0.159 0.049,-0.373 0.083,-0.656 z" style="fill:#ffffff;fill-opacity:1;fill-rule:nonzero;stroke:none" transform="matrix(0.35277776,0,0,-0.35277776,113.4643,160.18292)" clip-path="url(#clipPath264)"></path><path id="path265" d="M 0,0 -0.213,1.275 -0.14,0.08 C -0.104,0.105 -0.068,0.325 0,0" style="fill:#ffffff;fill-opacity:1;fill-rule:nonzero;stroke:none" transform="matrix(0.35277776,0,0,-0.35277776,113.52569,161.02914)" clip-path="url(#clipPath266)"></path><path id="path267" d="M 0,0 C -0.007,0.148 -0.02,0.296 -0.038,0.443 L -0.115,0.577 C -0.073,0.385 -0.029,0.194 0,0" style="fill:#ffffff;fill-opacity:1;fill-rule:nonzero;stroke:none" transform="matrix(0.35277776,0,0,-0.35277776,113.45065,160.57927)" clip-path="url(#clipPath268)"></path><path id="path269" d="M 0,0 C -0.216,0.478 -0.378,1.023 -0.629,1.615 -0.394,0.969 -0.218,0.278 -0.012,-0.365 0.06,-0.443 0.226,-0.704 0,0" style="fill:#ffffff;fill-opacity:1;fill-rule:nonzero;stroke:none" transform="matrix(0.35277776,0,0,-0.35277776,113.07406,158.37087)" clip-path="url(#clipPath270)"></path><path id="path271" d="M 0,0 C -0.011,0.035 -0.025,0.077 -0.036,0.11 -0.03,0.039 -0.021,-0.017 0,0" style="fill:#ffffff;fill-opacity:1;fill-rule:nonzero;stroke:none" transform="matrix(0.35277776,0,0,-0.35277776,113.29846,159.24686)" clip-path="url(#clipPath272)"></path><path id="path273" d="M 0,0 0.03,-0.099 0.063,-0.107 Z" style="fill:#ffffff;fill-opacity:1;fill-rule:nonzero;stroke:none" transform="matrix(0.35277776,0,0,-0.35277776,111.91183,155.78822)" clip-path="url(#clipPath274)"></path><path id="path275" d="M 0,0 C 0.137,-0.498 0.23,-0.792 0.348,-1.066 0.244,-0.693 0.132,-0.299 -0.009,0.118 -0.041,0.153 -0.056,0.156 0,0" style="fill:#ffffff;fill-opacity:1;fill-rule:nonzero;stroke:none" transform="matrix(0.35277776,0,0,-0.35277776,113.07314,158.54105)" clip-path="url(#clipPath276)"></path><path id="path277" d="M 0,0 C -0.041,0.268 -0.216,0.778 -0.283,0.853 -0.205,0.593 -0.085,0.312 0,0" style="fill:#ffffff;fill-opacity:1;fill-rule:nonzero;stroke:none" transform="matrix(0.35277776,0,0,-0.35277776,112.72347,157.39763)" clip-path="url(#clipPath278)"></path><path id="path279" d="M 0,0 0.025,-0.074 C 0.014,0.098 0.004,0.074 0,0" style="fill:#ffffff;fill-opacity:1;fill-rule:nonzero;stroke:none" transform="matrix(0.35277776,0,0,-0.35277776,113.28439,159.14483)" clip-path="url(#clipPath280)"></path><path id="path281" d="M 0,0 C -0.085,0.254 -0.17,0.449 -0.251,0.645 -0.159,0.348 -0.073,0.071 0.004,-0.179 -0.002,-0.114 -0.002,-0.048 0,0" style="fill:#ffffff;fill-opacity:1;fill-rule:nonzero;stroke:none" transform="matrix(0.35277776,0,0,-0.35277776,113.28439,159.14483)" clip-path="url(#clipPath282)"></path><path id="path283" d="M 0,0 C 0.082,-0.14 0.161,-0.283 0.23,-0.43 0.015,0.084 -0.139,0.45 -0.384,1.152 -0.82,1.842 -0.939,1.967 -1.01,1.991 l 1.105,-2.13 z" style="fill:#ffffff;fill-opacity:1;fill-rule:nonzero;stroke:none" transform="matrix(0.35277776,0,0,-0.35277776,112.29044,156.52837)" clip-path="url(#clipPath284)"></path><path id="path285" d="m 0,0 c 0.587,-1.291 0.485,-0.875 0.862,-1.642 -0.852,2.14 0.311,-0.591 -0.206,0.998 0.177,-0.427 0.332,-0.8 0.479,-1.155 -0.125,0.395 -0.247,0.777 -0.364,1.144 0.004,-0.02 0.007,-0.035 0.01,-0.053 l 0.005,-0.01 -0.003,0.001 c 0.019,-0.1 0.02,-0.134 -0.01,-0.025 -0.004,0.009 -0.015,0.033 -0.02,0.044 -0.024,0.007 -0.056,0.04 -0.088,0.077 -0.231,0.629 0.003,0.116 0.088,-0.077 0.009,-0.005 0.022,-0.019 0.03,-0.019 L 0.781,-0.708 C 0.471,0.001 0.107,0.685 -0.227,1.379 -0.048,0.923 0.221,0.372 0.665,-0.621 0.392,-0.319 -0.154,0.71 0,0" style="fill:#ffffff;fill-opacity:1;fill-rule:nonzero;stroke:none" transform="matrix(0.35277776,0,0,-0.35277776,112.45162,157.1667)" clip-path="url(#clipPath286)"></path><path id="path287" d="M 0,0 C 0.009,0.071 0.02,0.068 0.03,0.074 0.006,0.22 -0.009,0.275 0,0" style="fill:#ffffff;fill-opacity:1;fill-rule:nonzero;stroke:none" transform="matrix(0.35277776,0,0,-0.35277776,113.29952,161.38837)" clip-path="url(#clipPath288)"></path><path id="path289" d="M 0,0 C 0.009,0.025 0.017,0.051 0.026,0.076 0.018,0.109 0.009,0.072 0,0" style="fill:#ffffff;fill-opacity:1;fill-rule:nonzero;stroke:none" transform="matrix(0.35277776,0,0,-0.35277776,113.39399,160.6809)" clip-path="url(#clipPath290)"></path><path id="path291" d="m 0,0 c 0.028,-0.164 0.091,-0.299 0.101,-0.838 -0.022,-0.468 -0.069,0 -0.115,-0.027 0.055,-0.32 0.145,-1.131 0.178,-0.111 L 0.137,-0.815 C 0.159,-0.091 0.191,0.798 0.224,1.067 0.134,0.814 0.069,0.561 0,0" style="fill:#ffffff;fill-opacity:1;fill-rule:nonzero;stroke:none" transform="matrix(0.35277776,0,0,-0.35277776,113.31501,161.05729)" clip-path="url(#clipPath292)"></path><path id="path293" d="M 0,0 0.06,0.067 C 0.295,-0.991 0.327,-0.742 0.416,-0.86 0.232,-0.249 0.081,0.37 -0.148,0.966 -0.089,0.645 -0.031,0.326 0,0" style="fill:#ffffff;fill-opacity:1;fill-rule:nonzero;stroke:none" transform="matrix(0.35277776,0,0,-0.35277776,112.98608,158.88152)" clip-path="url(#clipPath294)"></path><path id="path295" d="m 0,0 0.264,-0.144 -0.76,0.845 z" style="fill:#ffffff;fill-opacity:1;fill-rule:nonzero;stroke:none" transform="matrix(0.35277776,0,0,-0.35277776,111.89363,155.70916)" clip-path="url(#clipPath296)"></path><path id="path297" d="m 0,0 0.163,-0.004 -0.44,0.501 z" style="fill:#ffffff;fill-opacity:1;fill-rule:nonzero;stroke:none" transform="matrix(0.35277776,0,0,-0.35277776,111.4256,154.96151)" clip-path="url(#clipPath298)"></path><path id="path299" d="M 0,0 -0.195,0.214 C -0.747,0.362 -1.155,0.527 -1.498,0.674 -0.767,0.287 0.048,-0.175 0,0" style="fill:#ffffff;fill-opacity:1;fill-rule:nonzero;stroke:none" transform="matrix(0.35277776,0,0,-0.35277776,100.80018,147.58971)" clip-path="url(#clipPath300)"></path><path id="path301" d="M 0,0 C 0.776,-0.367 1.381,-0.699 1.632,-0.679 0.99,-0.373 0.463,-0.175 0,0" style="fill:#ffffff;fill-opacity:1;fill-rule:nonzero;stroke:none" transform="matrix(0.35277776,0,0,-0.35277776,104.04898,149.00407)" clip-path="url(#clipPath302)"></path><path id="path303" d="M 0,0 C -0.293,0.196 -0.428,0.265 -0.439,0.233 -0.141,0.03 0.037,-0.074 0,0" style="fill:#ffffff;fill-opacity:1;fill-rule:nonzero;stroke:none" transform="matrix(0.35277776,0,0,-0.35277776,109.46726,145.0363)" clip-path="url(#clipPath304)"></path><path id="path305" d="M 0,0 C 0.119,-0.05 0.227,-0.095 0.344,-0.144 0.842,-0.271 1.341,-0.415 1.934,-0.641 1.361,-0.363 0.688,-0.108 0,0" style="fill:#ffffff;fill-opacity:1;fill-rule:nonzero;stroke:none" transform="matrix(0.35277776,0,0,-0.35277776,103.36689,148.77811)" clip-path="url(#clipPath306)"></path><path id="path307" d="M 0,0 C -0.232,0.005 -0.603,0.013 -0.955,0.02 -0.784,0.005 -0.496,-0.004 0,0" style="fill:#ffffff;fill-opacity:1;fill-rule:nonzero;stroke:none" transform="matrix(0.35277776,0,0,-0.35277776,106.07364,157.92455)" clip-path="url(#clipPath308)"></path><path id="path309" d="M 0,0 C 0.381,-0.372 0.071,-0.049 0,0" style="fill:#ffffff;fill-opacity:1;fill-rule:nonzero;stroke:none" transform="matrix(0.35277776,0,0,-0.35277776,109.2194,152.19769)" clip-path="url(#clipPath310)"></path><path id="path311" d="M 0,0 C -0.085,0.073 -0.156,0.124 -0.189,0.112 -0.135,0.102 -0.071,0.062 0,0" style="fill:#ffffff;fill-opacity:1;fill-rule:nonzero;stroke:none" transform="matrix(0.35277776,0,0,-0.35277776,109.6893,152.99549)" clip-path="url(#clipPath312)"></path><path id="path313" d="M 0,0 C -0.236,0.271 -0.371,0.427 -0.447,0.514 -0.285,0.328 -0.135,0.155 0,0" style="fill:#ffffff;fill-opacity:1;fill-rule:nonzero;stroke:none" transform="matrix(0.35277776,0,0,-0.35277776,109.40111,152.41478)" clip-path="url(#clipPath314)"></path><path id="path315" d="M 0,0 C 0.125,-0.135 0.223,-0.24 0.317,-0.341 0.381,-0.372 0.351,-0.319 0,0" style="fill:#ffffff;fill-opacity:1;fill-rule:nonzero;stroke:none" transform="matrix(0.35277776,0,0,-0.35277776,109.39191,152.37115)" clip-path="url(#clipPath316)"></path><path id="path317" d="M 0,0 C 0.21,-0.22 0.404,-0.424 0.595,-0.624 0.528,-0.542 0.503,-0.505 0.527,-0.522 0.416,-0.412 0.259,-0.257 0,0" style="fill:#ffffff;fill-opacity:1;fill-rule:nonzero;stroke:none" transform="matrix(0.35277776,0,0,-0.35277776,109.03356,152.01357)" clip-path="url(#clipPath318)"></path><path id="path319" d="M 0,0 C -0.247,0.293 -0.483,0.594 -0.75,0.869 -0.376,0.459 -0.301,0.264 -0.144,0.031 -0.13,0.075 -0.222,0.282 0,0" style="fill:#ffffff;fill-opacity:1;fill-rule:nonzero;stroke:none" transform="matrix(0.35277776,0,0,-0.35277776,110.51787,153.63047)" clip-path="url(#clipPath320)"></path><path id="path321" d="M 0,0 C 0.295,-0.078 -0.245,0.583 -0.824,1.204 -0.886,1.043 -0.383,0.532 0.08,-0.116 Z" style="fill:#ffffff;fill-opacity:1;fill-rule:nonzero;stroke:none" transform="matrix(0.35277776,0,0,-0.35277776,110.88754,154.46631)" clip-path="url(#clipPath322)"></path><path id="path323" d="M 0,0 C 0.141,-0.203 0.282,-0.406 0.419,-0.605 0.535,-0.639 0.263,-0.35 0,0" style="fill:#ffffff;fill-opacity:1;fill-rule:nonzero;stroke:none" transform="matrix(0.35277776,0,0,-0.35277776,110.95387,154.55997)" clip-path="url(#clipPath324)"></path><path id="path325" d="M 0,0 C 0.245,-0.297 0.288,-0.045 0.402,-0.239 0.86,-0.374 -1.635,1.32 0,0" style="fill:#ffffff;fill-opacity:1;fill-rule:nonzero;stroke:none" transform="matrix(0.35277776,0,0,-0.35277776,108.75867,151.78746)" clip-path="url(#clipPath326)"></path><path id="path327" d="M 0,0 0.418,-0.594 0.378,-0.27 Z" style="fill:#ffffff;fill-opacity:1;fill-rule:nonzero;stroke:none" transform="matrix(0.35277776,0,0,-0.35277776,110.46223,154.10584)" clip-path="url(#clipPath328)"></path><path id="path329" d="M 0,0 C 0.29,-0.307 0.57,-0.621 0.826,-0.958 0.834,-0.924 0.951,-1.035 1.09,-1.176 0.601,-0.568 0.017,0.057 0,0" style="fill:#ffffff;fill-opacity:1;fill-rule:nonzero;stroke:none" transform="matrix(0.35277776,0,0,-0.35277776,109.22871,152.60145)" clip-path="url(#clipPath330)"></path><path id="path331" d="M 0,0 C -0.145,0.165 -0.458,0.52 -0.686,0.753 -0.423,0.443 -0.168,0.153 0,0" style="fill:#ffffff;fill-opacity:1;fill-rule:nonzero;stroke:none" transform="matrix(0.35277776,0,0,-0.35277776,109.85503,153.28204)" clip-path="url(#clipPath332)"></path><path id="path333" d="M 0,0 C -0.152,0 0.182,-0.175 0.666,-0.349 0.991,-0.427 1.458,-0.638 1.291,-0.495 0.87,-0.307 0.429,-0.166 0,0" style="fill:#ffffff;fill-opacity:1;fill-rule:nonzero;stroke:none" transform="matrix(0.35277776,0,0,-0.35277776,104.91188,149.62277)" clip-path="url(#clipPath334)"></path><path id="path335" d="M 0,0 -0.373,-0.035 0.672,-0.132 Z" style="fill:#ffffff;fill-opacity:1;fill-rule:nonzero;stroke:none" transform="matrix(0.35277776,0,0,-0.35277776,107.56053,158.01062)" clip-path="url(#clipPath336)"></path><path id="path337" d="M 0,0 0.238,-0.225 0.872,-0.05 C 0.636,-0.052 0.178,-0.055 0,0" style="fill:#ffffff;fill-opacity:1;fill-rule:nonzero;stroke:none" transform="matrix(0.35277776,0,0,-0.35277776,108.13948,157.95471)" clip-path="url(#clipPath338)"></path></g></svg>