<svg xmlns="http://www.w3.org/2000/svg" width="512" height="512" viewBox="0 0 512 512" fill="none"><path d="M181 316C181 313.35 181.659 310.854 182.958 308.579L203.37 272.857L177.322 257.973L156.911 293.694C153.044 300.462 151 308.175 151 316C151 340.813 171.187 361 196 361H241V331H196C187.729 331 181 324.271 181 316Z" fill="black"></path><path d="M334.678 257.974L308.63 272.858L329.042 308.581C330.341 310.854 331 313.351 331 316.001C331 324.272 324.271 331.001 316 331.001H271V361.001H316C340.813 361.001 361 340.814 361 316.001C361 308.176 358.956 300.463 355.089 293.697L334.678 257.974Z" fill="black"></path><path d="M319.792 231.926L295.089 188.696C287.09 174.696 272.112 166 256 166C239.888 166 224.91 174.696 216.911 188.696L192.208 231.926L218.256 246.81L242.958 203.579C245.63 198.904 250.627 196 256 196C261.373 196 266.37 198.904 269.042 203.58L293.744 246.81L319.792 231.926Z" fill="black"></path><path d="M512 151H481V99.787L425.394 44.18C416.895 35.68 405.594 31 393.574 31H328.428C316.407 31 305.107 35.681 296.608 44.18L256 84.787L215.394 44.18C206.895 35.68 195.594 31 183.574 31H118.428C106.407 31 95.107 35.681 86.608 44.18L31 99.787V151H0V181H31V406C31 430.813 51.187 451 76 451H93.58C99.772 468.459 116.445 481 136 481C155.555 481 172.228 468.459 178.42 451H333.58C339.772 468.459 356.445 481 376 481C395.555 481 412.228 468.459 418.42 451H436C460.813 451 481 430.813 481 406V181H512V151ZM317.819 65.393C320.652 62.56 324.42 61 328.427 61H393.573C397.58 61 401.347 62.56 404.18 65.393L429.787 91H292.213L317.819 65.393ZM107.819 65.393C110.652 62.56 114.42 61 118.427 61H183.573C187.58 61 191.347 62.56 194.18 65.393L219.787 91H82.213L107.819 65.393ZM136 451C127.729 451 121 444.271 121 436C121 427.729 127.729 421 136 421C144.271 421 151 427.729 151 436C151 444.271 144.271 451 136 451ZM376 451C367.729 451 361 444.271 361 436C361 427.729 367.729 421 376 421C384.271 421 391 427.729 391 436C391 444.271 384.271 451 376 451ZM436 421H418.42C412.228 403.541 395.555 391 376 391C356.445 391 339.772 403.541 333.58 421H178.42C172.228 403.541 155.555 391 136 391C116.445 391 99.772 403.541 93.58 421H76C67.729 421 61 414.271 61 406V121H451V406C451 414.271 444.271 421 436 421Z" fill="black"></path></svg>