<svg xmlns="http://www.w3.org/2000/svg" width="512" height="512" viewBox="0 0 512 512" fill="none"><path d="M497 436C488.729 436 482 429.271 482 421V331H452V376H420V241C420 216.187 399.813 196 375 196H300V166H330V136H263.028L203.028 46H158.787L128.787 76H65.729L35.729 136H0V436H62.58C68.772 453.458 85.445 466 105 466C124.555 466 141.228 453.458 147.42 436H272.58C278.772 453.458 295.445 466 315 466C334.555 466 351.228 453.458 357.42 436H420V406H452V421C452 445.813 472.187 466 497 466H512V436H497ZM390 241V316H375C366.729 316 360 309.271 360 301V226H375C383.271 226 390 232.729 390 241ZM84.271 106H141.214L171.214 76H186.973L226.973 136H69.271L84.271 106ZM30 166H270V346H30V166ZM105 436C96.729 436 90 429.271 90 421C90 412.729 96.729 406 105 406C113.271 406 120 412.729 120 421C120 429.271 113.271 436 105 436ZM315 436C306.729 436 300 429.271 300 421C300 412.729 306.729 406 315 406C323.271 406 330 412.729 330 421C330 429.271 323.271 436 315 436ZM357.42 406C351.228 388.542 334.555 376 315 376C295.445 376 278.772 388.542 272.58 406H147.42C141.228 388.542 124.555 376 105 376C85.445 376 68.772 388.542 62.58 406H30V376H105H300V226H330V301C330 325.813 350.187 346 375 346H390V406H357.42Z" fill="black"></path><path d="M75 196H105V316H75V196Z" fill="black"></path><path d="M135 196H165V316H135V196Z" fill="black"></path><path d="M195 196H225V316H195V196Z" fill="black"></path></svg>