<svg xmlns="http://www.w3.org/2000/svg" width="512" height="512" viewBox="0 0 512 512" fill="none"><path d="M330 286V211C330 191.445 317.459 174.772 300 168.58V61C300 36.187 279.813 16 255 16H165C140.187 16 120 36.187 120 61V77.509C85.808 84.478 60 114.781 60 151V376H45C20.187 376 0 396.187 0 421V496H30V421C30 412.729 36.729 406 45 406H60V496H512V286H330ZM270 286V211C270 202.729 276.729 196 285 196C293.271 196 300 202.729 300 211V286H270ZM165 46H255C263.271 46 270 52.729 270 61V168.58C252.541 174.772 240 191.445 240 211V286H210V151C210 114.781 184.192 84.478 150 77.509V61C150 52.729 156.729 46 165 46ZM135 106C159.813 106 180 126.187 180 151V166H90V151C90 126.187 110.187 106 135 106ZM90 466V196H180V466H90ZM210 316H482V376H420V466H210V316ZM450 466V406H482V466H450Z" fill="black"></path><path d="M240 376H300V406H240V376Z" fill="black"></path><path d="M330 376H390V406H330V376Z" fill="black"></path></svg>