<svg xmlns="http://www.w3.org/2000/svg" width="512" height="512" viewBox="0 0 512 512" fill="none"><g clip-path="url(#clip0_6_649)"><path d="M332 167V75C332 33.645 298.355 0 257 0H197C155.645 0 122 33.645 122 75V167C122 224.897 169.103 272 227 272C284.897 272 332 224.897 332 167ZM295.708 152C281.062 152 268.815 147.206 262.107 138.848C253.515 128.141 240.719 122 227 122C213.281 122 200.485 128.141 191.893 138.848C185.185 147.206 172.938 152 158.292 152H152V120H158.292C182.082 120 202.857 111.116 215.289 95.625C218.158 92.05 222.427 90 227 90C231.573 90 235.842 92.05 238.711 95.625C251.143 111.116 271.918 120 295.708 120H302V152H295.708ZM197 30H257C281.813 30 302 50.187 302 75V90H295.708C281.062 90 268.815 85.206 262.107 76.848C253.515 66.141 240.719 60 227 60C213.281 60 200.485 66.141 191.893 76.848C185.185 85.206 172.938 90 158.292 90H152V75C152 50.187 172.187 30 197 30ZM227 242C190.78 242 160.478 216.192 153.509 182H158.292C182.082 182 202.857 173.116 215.289 157.625C218.158 154.05 222.427 152 227 152C231.573 152 235.842 154.05 238.711 157.625C251.143 173.116 271.918 182 295.708 182H300.491C293.522 216.192 263.22 242 227 242Z" fill="black"></path><path d="M445.949 399.494C449.789 392.871 452 385.191 452 377V332H441.874C424.651 295.719 387.787 272 347 272H227H105C47.103 272 0 319.103 0 377V452H312.145C305.645 465.646 302 480.905 302 497V512H512V497C512 452.858 484.618 414.996 445.949 399.494ZM392 377V362H422V377C422 385.271 415.271 392 407 392C398.729 392 392 385.271 392 377ZM407.003 332H362V377C362 385.191 364.211 392.871 368.051 399.494C355.097 404.687 343.412 412.391 333.597 422H242V362H287C311.813 362 332 341.813 332 317V302H347C370.988 302 393.078 313.483 407.003 332ZM302 302V317C302 325.271 295.271 332 287 332H165C156.729 332 150 325.271 150 317V302H302ZM120 302V317C120 341.813 140.187 362 165 362H212V422H90V303.509C94.848 302.521 99.864 302 105 302H120ZM30 377C30 352.516 41.796 330.738 60 317.041V422H30V377ZM333.507 482C340.477 447.809 370.781 422 407 422C443.219 422 473.523 447.809 480.493 482H333.507Z" fill="black"></path></g><defs><clipPath id="clip0_6_649"><rect width="512" height="512" fill="white"></rect></clipPath></defs></svg>