<svg xmlns="http://www.w3.org/2000/svg" width="512" height="512" viewBox="0 0 512 512" fill="none"><path d="M181 407C181 404.35 181.659 401.854 182.958 399.58L203.37 363.858L177.323 348.974L156.911 384.695C153.044 391.462 151 399.175 151 407C151 431.813 171.187 452 196 452H241V422H196C187.729 422 181 415.271 181 407Z" fill="black"></path><path d="M334.677 348.974L308.63 363.858L329.043 399.579C330.341 401.853 331 404.35 331 407C331 415.271 324.271 422 316 422H271V452H316C340.813 452 361 431.813 361 407C361 399.175 358.956 391.462 355.089 384.695L334.677 348.974Z" fill="black"></path><path d="M319.792 322.926L295.089 279.697C287.09 265.697 272.112 257 256 257C239.888 257 224.91 265.697 216.911 279.695L192.207 322.925L218.254 337.809L242.958 294.578C245.63 289.904 250.627 287 256 287C261.373 287 266.37 289.904 269.042 294.58L293.745 337.81L319.792 322.926Z" fill="black"></path><path d="M451 150H421V105C421 47.103 373.897 0 316 0H196C138.103 0 91 47.103 91 105V150H61V180H91V512H421V180H451V150ZM121 105C121 63.645 154.645 30 196 30H316C357.355 30 391 63.645 391 105V150H359.491C352.523 115.808 322.219 90 286 90H226C189.781 90 159.478 115.808 152.509 150H121V105ZM328.43 150H211V195C211 203.271 204.271 210 196 210C187.729 210 181 203.271 181 195V165C181 140.187 201.187 120 226 120H286C305.556 120 322.239 132.539 328.43 150ZM391 482H121V180H151V195C151 219.813 171.187 240 196 240C220.813 240 241 219.813 241 195V180H391V482Z" fill="black"></path></svg>