<svg xmlns="http://www.w3.org/2000/svg" width="512" height="512" viewBox="0 0 512 512"><g clip-path="url(#clip0_413_266)"><path d="M196.001 422.005H240.999V392.006H196.001C187.731 392.006 181.002 385.278 181.002 377.007C181.002 374.357 181.661 371.861 182.96 369.588L203.371 333.868L177.324 318.984L156.915 354.703C153.048 361.47 151.004 369.183 151.004 377.007C151.004 401.819 171.189 422.005 196.001 422.005Z"></path><path d="M329.039 369.587C330.338 371.86 330.997 374.357 330.997 377.007C330.997 385.278 324.268 392.006 315.998 392.006H271V422.005H315.998C340.809 422.005 360.995 401.819 360.995 377.007C360.995 369.183 358.951 361.47 355.084 354.703L334.674 318.983L308.628 333.867L329.039 369.587Z"></path><path d="M242.959 264.593C245.63 259.918 250.627 257.014 255.999 257.014C261.372 257.014 266.369 259.918 269.041 264.594L293.741 307.821L319.788 292.938L295.086 249.711C287.088 235.712 272.111 227.017 255.999 227.017C239.888 227.017 224.911 235.713 216.913 249.711L192.211 292.939L218.258 307.822L242.959 264.593Z"></path><path d="M480.987 153.02H260.541L373.035 78.0237L255.999 0L138.964 78.0237L251.458 153.02H31.0117V183.018H63.4979L116.77 475.052C120.663 496.461 139.282 512 161.041 512H350.956C372.716 512 391.335 496.461 395.226 475.061L448.499 183.018H480.985V153.02H480.987ZM255.999 36.054L318.954 78.0237L255.999 119.993L193.045 78.0237L255.999 36.054ZM365.714 469.685C364.416 476.822 358.211 482.002 350.957 482.002H161.042C153.788 482.002 147.582 476.822 146.283 469.677L93.9923 183.018H418.007L365.714 469.685Z"></path></g><defs><clipPath id="clip0_413_266"><rect width="512" height="512" fill="white"></rect></clipPath></defs></svg>