<svg xmlns:inkscape="http://www.inkscape.org/namespaces/inkscape" xmlns:sodipodi="http://sodipodi.sourceforge.net/DTD/sodipodi-0.dtd" xmlns="http://www.w3.org/2000/svg" xmlns:svg="http://www.w3.org/2000/svg" width="80.150909mm" height="80.424316mm" viewBox="0 0 80.150909 80.424316" id="svg1" inkscape:version="1.3.2 (091e20e, 2023-11-25)" sodipodi:docname="oaxaca.svg"><defs id="defs1"><clipPath clipPathUnits="userSpaceOnUse" id="clipPath172"><path d="M 0,2532.351 H 1920 V 0 H 0 Z" transform="translate(-263.69131,-1608.5592)" id="path172"></path></clipPath></defs><g inkscape:label="Capa 1" inkscape:groupmode="layer" id="layer1" transform="translate(-64.822916,-107.94999)"><path id="path171" d="M 0,0 C 0.277,0.135 0.546,0.254 0.784,0.35 1.531,0.66 1.74,0.772 1.919,1.112 2.269,1.78 1.79,2.897 1.102,4.01 0.515,4.957 -0.214,5.891 -0.739,6.548 c -0.03,0.038 -0.068,0.086 -0.097,0.122 -0.325,0.407 -0.62,0.78 -0.859,1.105 -0.448,0.605 -0.884,1.146 -1.298,1.654 -1.501,1.852 -2.93,3.63 -2.903,6.29 0.001,0.1 0.014,0.207 0.02,0.309 0.012,0.117 0.019,0.235 0.039,0.348 0.072,0.759 0.226,1.568 0.555,2.486 0.911,2.539 2.296,4.835 3.636,7.052 0.728,1.206 1.456,2.408 2.091,3.64 0.26,0.502 0.511,1.007 0.769,1.51 0.795,1.551 1.587,3.104 2.374,4.66 0.322,0.642 0.659,1.277 0.982,1.917 1.115,2.207 2.226,4.415 3.385,6.602 1.441,2.722 2.826,5.555 4.222,8.404 2.351,4.799 4.791,9.714 7.547,14.273 0.408,0.675 0.803,1.365 1.226,2.021 2.733,4.245 7.354,4.11 11.068,3.991 0.729,-0.019 1.468,-0.034 2.181,-0.034 0.729,0.009 1.458,0.015 2.187,0.024 5.124,0.06 10.248,0.118 15.369,0.167 9.002,0.087 18.003,0.154 27.004,0.22 2.866,0.022 5.733,0.051 8.598,0.071 3.808,0.007 7.605,-0.116 10.8,-0.254 0.243,-0.011 0.582,-0.045 0.974,-0.086 0.437,-0.041 1.512,-0.157 2.079,-0.134 -0.007,0.038 -0.005,0.086 -0.011,0.126 -0.065,0.392 -0.074,0.836 0.075,1.337 0.144,0.487 0.372,0.88 0.62,1.211 0.235,0.314 0.487,0.572 0.701,0.786 0.146,0.15 0.243,0.25 0.31,0.325 -0.305,0.234 -0.594,0.498 -0.854,0.793 -0.329,0.375 -0.602,0.81 -0.717,1.395 -0.307,1.575 0.269,2.496 0.665,3.01 0.022,0.029 0.049,0.073 0.07,0.099 -0.011,0.026 -0.027,0.058 -0.04,0.086 -0.015,0.034 -0.031,0.068 -0.048,0.104 -0.011,0.024 -0.02,0.044 -0.031,0.068 -0.28,0.577 -0.747,1.541 -0.36,2.838 0,0 0,0.006 10e-4,0.01 0.004,0.004 0.004,0.008 0.004,0.008 0.006,0.019 0.024,0.029 0.03,0.048 0.11,0.329 0.296,0.61 0.54,0.825 0.084,0.075 0.196,0.095 0.292,0.153 0.175,0.107 0.34,0.238 0.542,0.284 -0.516,0.895 -0.355,1.631 -0.094,2.142 0.44,0.842 1.053,1.344 1.574,1.687 0,0 0.004,0.004 0.006,0.005 l -0.002,0.006 c -0.009,0.017 -0.005,0.031 -0.013,0.048 -0.154,0.325 -0.215,0.618 -0.236,0.891 -0.01,0.107 -0.019,0.216 -0.012,0.322 0.022,0.315 0.085,0.625 0.251,0.928 0.09,0.16 0.198,0.306 0.325,0.433 -0.571,0.355 -1.274,0.726 -2.013,1.083 -0.574,0.277 -1.167,0.549 -1.753,0.776 l -1.162,0.683 c -0.299,0.187 -0.624,0.391 -0.941,0.585 -0.221,0.136 -0.417,0.249 -0.621,0.366 -0.117,0.069 -0.251,0.152 -0.356,0.21 -0.56,0.246 -1.12,0.489 -1.594,0.78 -0.106,-0.014 -0.22,-0.032 -0.33,-0.05 -0.089,-0.014 -0.173,-0.026 -0.264,-0.04 -0.038,-0.006 -0.086,-0.01 -0.125,-0.016 -1.084,-0.172 -2.425,-0.361 -3.746,0.171 -0.457,0.184 -0.91,0.453 -1.348,0.838 -0.463,0.411 -0.702,1.02 -0.634,1.636 0.032,0.301 0.137,0.584 0.296,0.832 0.053,0.081 0.141,0.13 0.206,0.203 0.126,0.143 0.239,0.297 0.405,0.398 -0.108,0.135 -0.228,0.276 -0.325,0.392 -0.489,0.586 -1.045,1.247 -1.389,2.083 -0.345,0.842 -0.459,1.639 -0.511,2.408 -0.034,0.503 -0.054,1.004 -0.052,1.463 0,0.833 0,1.549 -0.195,2.217 -0.312,1.085 -1.087,2.27 -1.931,3.322 -0.519,0.646 -1.057,1.253 -1.548,1.722 -0.369,0.351 -0.769,0.601 -1.164,0.859 -0.307,0.196 -0.602,0.417 -0.899,0.636 -0.126,0.093 -0.258,0.168 -0.382,0.271 -0.007,0 -0.007,0 -0.007,0.004 -0.135,0.112 -0.254,0.238 -0.351,0.38 -0.116,0.127 -0.295,0.318 -0.497,0.53 -0.489,0.519 -0.903,0.96 -1.228,1.355 -0.056,0.012 -0.161,0.011 -0.226,0.018 -0.057,0.007 -0.135,0.012 -0.199,0.017 -0.15,0.011 -0.259,0.031 -0.464,0.036 -0.574,0.023 -1.291,0.049 -2.101,0.258 -0.154,0.04 -0.348,0.14 -0.516,0.199 -1.81,0.638 -4.295,2.261 -5.248,3.512 -0.206,0.269 -0.357,0.576 -0.483,0.907 -0.002,0.004 -0.004,0.007 -0.006,0.011 -0.029,-0.027 -0.063,-0.052 -0.096,-0.077 -0.025,-0.02 -0.049,-0.041 -0.076,-0.061 -0.118,-0.085 -0.264,-0.115 -0.399,-0.171 -0.113,-0.045 -0.209,-0.115 -0.328,-0.139 -0.282,-0.06 -0.576,-0.066 -0.859,0 -0.018,0.004 -0.042,0.017 -0.06,0.022 -1.526,0.422 -4.865,2.905 -4.898,2.931 -0.304,0.228 -0.581,0.496 -0.849,0.774 -0.957,0.993 -1.708,2.237 -2.38,3.379 -0.009,0.017 -0.02,0.034 -0.03,0.05 -0.324,0.552 -0.634,1.09 -0.955,1.549 -0.143,0.206 -0.209,0.331 -0.309,0.491 -0.275,0.445 -0.455,0.785 -0.554,0.999 -0.074,0.093 -0.272,0.235 -0.63,0.496 -0.064,0.038 -0.292,0.109 -0.456,0.157 -0.553,0.164 -1.385,0.414 -2.161,1.127 -1.046,0.964 -1.912,2.311 -2.748,3.61 -0.493,0.766 -0.963,1.508 -1.429,2.065 l -0.219,0.252 -0.192,0.222 c -0.388,0.44 -0.732,0.836 -1.143,1.433 -0.237,0.342 -0.366,0.685 -0.435,1.003 0,0 0,0.002 0,0.004 -0.068,0.316 -0.076,0.607 -0.068,0.845 -0.005,0 -0.018,-0.003 -0.023,-0.003 -0.008,-0.001 -0.026,-0.005 -0.034,-0.005 -0.182,-0.009 -0.422,-0.046 -0.795,-0.115 -0.869,-0.168 -2.064,-0.396 -3.341,0.127 -0.015,0.006 -0.406,0.192 -0.975,0.516 -1.722,0.979 -5.084,3.231 -4.691,5.681 0.002,0.014 0.005,0.03 0.008,0.045 0.004,0.016 0.007,0.033 0.01,0.048 -0.364,0.357 -0.623,0.788 -0.859,1.225 -0.352,0.649 -0.596,1.344 -0.589,2.09 0.009,0.839 0.341,1.771 1.064,2.525 0.114,0.119 0.212,0.245 0.347,0.353 -0.078,0.056 -0.176,0.112 -0.295,0.179 -0.004,-0.022 -0.131,-0.022 -0.276,-0.015 -0.263,0.017 -0.597,0.054 -0.952,0.118 -0.703,0.127 -1.525,0.41 -2.289,1.204 -1.332,1.377 -1.56,2.889 -1.724,3.994 -0.067,0.444 -0.119,0.729 -0.184,0.938 -0.073,0.233 -0.163,0.37 -0.316,0.488 -0.303,0.232 -1.367,0.288 -2.14,0.329 -0.047,0.002 -0.1,0.006 -0.148,0.008 -1.955,0.103 -4.791,0.32 -5.869,3.206 -0.387,1.036 -0.185,1.928 0.074,2.594 0.086,0.222 0.179,0.418 0.258,0.586 0.101,0.213 0.217,0.456 0.228,0.572 0.138,1.306 -0.011,2.766 -0.463,4.599 -0.512,2.056 -0.952,3.121 -1.784,3.75 -0.533,0.402 -1.222,0.629 -2.203,0.811 -3.759,0.691 -4.603,1.509 -5.013,4.857 -0.049,0.399 -0.105,0.862 -0.187,1.4 l -0.12,0.84 c -0.205,1.532 -0.372,2.245 -0.889,2.641 -0.047,0.036 -0.08,0.087 -0.134,0.118 -0.169,0.062 -0.651,0.122 -1.133,0.154 -0.411,0.027 -0.822,0.034 -1.032,-10e-4 0.004,-0.019 -0.164,-0.232 -0.265,-0.362 -0.325,-0.408 -0.81,-1.027 -1.65,-1.333 -0.157,-0.058 -0.431,-0.14 -0.753,-0.214 -0.278,-0.083 -0.554,-0.127 -0.822,-0.133 -0.113,-0.003 -0.22,-0.005 -0.329,0.004 -0.489,0.005 -1,0.072 -1.493,0.35 -0.216,0.123 -0.367,0.282 -0.528,0.435 -0.068,0.055 -0.138,0.105 -0.199,0.164 -0.035,0.039 -0.062,0.081 -0.094,0.122 -0.546,0.695 -0.723,1.548 -0.844,2.176 -0.03,0.172 -0.078,0.411 -0.127,0.601 -0.04,-0.031 -0.103,-0.098 -0.147,-0.134 -0.279,-0.233 -0.643,-0.602 -1.072,-1.08 -0.13,-0.145 -0.239,-0.254 -0.382,-0.421 -0.486,-0.552 -0.769,-0.795 -1.06,-1.026 -0.015,-0.012 -0.03,-0.023 -0.045,-0.038 0.166,-0.353 0.273,-0.746 0.305,-1.162 0.025,-0.315 0.021,-0.639 -0.118,-0.988 -0.069,-0.171 -0.152,-0.29 -0.227,-0.442 -1.416,-2.896 -3.854,-2.521 -5.205,-2.283 -0.668,0.116 -1.295,0.224 -1.926,0.116 -1.038,-0.174 -2.439,-0.706 -3.849,-1.303 -0.836,-0.355 -1.675,-0.726 -2.445,-1.075 -0.911,-0.411 -1.77,-0.799 -2.505,-1.098 -1.228,-0.5 -1.415,-0.739 -2.031,-1.523 -0.269,-0.344 -0.571,-0.732 -0.985,-1.187 -0.111,-0.122 -0.209,-0.214 -0.315,-0.326 -1.068,-1.128 -1.946,-1.79 -3.209,-2.683 -2.385,-1.695 -4.593,-4.039 -6.73,-6.381 -0.235,-0.258 -0.473,-0.515 -0.707,-0.772 -0.638,-0.705 -1.269,-1.399 -1.896,-2.071 -0.552,-0.59 -1.228,-1.445 -1.986,-2.401 -2.968,-3.737 -6.66,-8.388 -10.613,-8.451 -3.934,-0.217 -6.522,4.562 -8.004,7.328 -0.422,0.784 -0.645,1.359 -0.873,1.956 -0.202,0.534 -0.575,1.523 -0.822,1.739 -0.134,0.112 -0.593,0.161 -1,0.202 -0.25,0.025 -0.54,0.072 -0.825,0.119 -0.508,0.084 -1.041,0.209 -1.59,0.508 -1.331,0.721 -2.14,1.98 -2.675,3.452 -0.698,1.921 -0.916,4.214 -1.092,6.239 -0.067,0.754 -0.127,1.46 -0.212,2.046 -0.434,2.99 -0.038,5.857 0.347,8.634 0.125,0.901 0.249,1.779 0.342,2.651 10e-4,0.014 0.003,0.028 0.005,0.041 -0.833,-0.263 -1.638,-0.313 -2.418,-0.241 -2.637,0.242 -4.948,2.071 -6.717,3.488 -0.097,0.078 -0.174,0.133 -0.269,0.208 -2.333,1.858 -3.917,2.959 -5.513,2.257 -0.619,-0.262 -0.986,-0.51 -1.275,-0.786 -0.513,-0.492 -0.687,-1.107 -0.936,-2.294 -0.19,-0.904 -0.41,-1.919 -0.847,-3.084 -0.091,-0.241 -0.272,-0.442 -0.404,-0.666 -0.475,-0.806 -1.115,-1.538 -1.802,-2.219 -0.302,-0.299 -0.724,-0.717 -0.96,-1.005 0.075,-0.135 0.123,-0.273 0.19,-0.407 0.22,-0.44 0.364,-0.904 0.374,-1.423 0.002,-0.099 0.044,-0.181 0.034,-0.286 -0.03,-0.28 -0.097,-0.676 -0.172,-1.087 -0.067,-0.369 -0.153,-0.757 -0.157,-1.008 0,-0.705 -0.254,-1.235 -0.407,-1.552 -0.027,-0.017 0.047,-0.144 0.126,-0.271 0.029,-0.047 0.058,-0.095 0.084,-0.137 0.35,-0.548 0.881,-1.377 0.892,-2.508 0.002,-0.236 -0.066,-0.421 -0.089,-0.639 -0.222,-2.07 -1.466,-3.401 -2.438,-4.367 -0.351,-0.347 -0.71,-0.694 -1.008,-1.094 -0.811,-1.083 -1.573,-2.13 -2.31,-3.171 -0.231,-0.328 -0.46,-0.656 -0.682,-0.982 -1.236,-1.807 -2.348,-3.609 -3.25,-5.515 l -0.444,-0.941 c -0.162,-0.344 -0.328,-0.674 -0.489,-1.015 -1.782,-3.757 -3.619,-7.294 -7.171,-10.121 -0.65,-0.515 -1.363,-1.112 -2.125,-1.743 -2.751,-2.296 -6.059,-5.051 -9.213,-6.596 0.508,-1.938 0.239,-4.092 0.008,-5.921 -0.112,-0.881 -0.224,-1.725 -0.221,-2.46 0.004,-0.683 -0.362,-1.318 -0.955,-1.661 -0.212,-0.125 -0.443,-0.199 -0.679,-0.234 -0.026,-0.004 -0.054,0.004 -0.08,0.001 -0.213,-0.022 -0.427,-0.021 -0.638,0.027 -0.026,-0.429 -0.026,-0.907 -0.026,-1.183 l -0.003,-1.068 c -0.023,-2.572 -0.041,-5.005 -2.535,-7.413 -0.662,-0.643 -1.374,-1.133 -2.059,-1.58 -0.198,-0.13 -0.405,-0.274 -0.595,-0.395 -1.114,-0.712 -1.878,-1.241 -2.339,-1.95 -0.01,-0.016 -0.023,-0.032 -0.033,-0.049 -0.147,-0.237 -0.264,-0.493 -0.346,-0.784 -0.012,-0.044 -0.03,-0.084 -0.041,-0.13 -0.136,-0.568 -0.176,-1.147 -0.193,-1.73 -0.002,-0.44 0.006,-0.928 0.024,-1.5 0.019,-0.321 0.022,-0.632 0.046,-0.961 0.168,-2.337 0.362,-4.988 -1.206,-7.799 -0.463,-0.832 -1.086,-1.661 -1.732,-2.497 -0.251,-0.326 -0.454,-0.61 -0.667,-0.904 -1.088,-1.494 -1.687,-2.627 -1.338,-3.822 0.108,-0.362 0.407,-0.653 0.926,-1.135 0.108,-0.1 0.231,-0.233 0.347,-0.345 0.441,-0.426 0.912,-0.918 1.285,-1.607 0.674,-1.254 0.875,-2.589 1.011,-3.815 0.018,-0.164 0.039,-0.333 0.056,-0.493 0.056,-0.541 0.112,-1.075 0.213,-1.59 l 0.175,-0.904 c 0.39,-1.96 0.73,-3.721 0.806,-5.55 0.01,-0.218 -0.012,-0.45 -0.011,-0.67 -0.013,-0.213 -0.016,-0.429 -0.035,-0.641 -0.051,-1.55 -0.262,-3.163 -0.89,-5.044 -0.306,-0.914 -0.269,-1.362 -0.206,-1.47 0.254,-0.441 2.188,-0.84 3.468,-1.101 0.684,-0.142 1.132,-0.21 1.564,-0.277 1.886,-0.287 4.025,-0.612 5.746,-2.885 1.064,-1.4 2.374,-3.483 1.519,-5.369 -0.205,-0.451 -0.567,-0.959 -1.217,-1.343 0.833,-0.471 1.74,-0.926 2.632,-1.374 1.385,-0.698 2.815,-1.419 3.99,-2.203 7.022,-4.681 13.073,-9.863 19.479,-15.346 l 2.759,-2.356 c 1.467,-1.25 2.927,-2.449 4.368,-3.632 5.222,-4.297 10.157,-8.351 14.551,-13.906 2.229,-2.818 5.253,-4.957 8.456,-7.219 3.632,-2.565 7.384,-5.216 9.926,-8.978 4.491,-6.645 9.732,-12.375 15.279,-18.445 l 4.106,-4.514 c 2.606,-2.885 5.305,-5.868 8.071,-8.656 0.418,-0.422 1.016,-1.102 1.714,-1.908 1.392,-1.598 5.092,-5.842 6.417,-6.055 0.34,0.116 1.211,1.385 1.984,3.799 0.177,0.553 0.355,1.105 0.513,1.786 0.253,1.08 0.115,2.206 -0.151,3.369 -0.155,0.676 -0.342,1.361 -0.551,2.066 -0.66,2.229 -1.344,4.536 -0.701,7.014 0.016,0.062 0.04,0.1 0.057,0.16 0.14,0.5 0.304,0.941 0.477,1.335 0.243,0.552 0.496,1.037 0.724,1.443 0.556,0.997 0.892,1.594 0.836,3.016 -0.005,0.14 -0.029,0.286 -0.043,0.428 -0.019,0.194 -0.032,0.386 -0.058,0.584 -0.121,0.956 -0.259,2.168 0.109,3.374 0.031,0.102 0.075,0.2 0.114,0.301 0.033,0.065 0.065,0.129 0.099,0.191 0.128,0.294 0.246,0.59 0.455,0.875 C -1.344,-0.762 -0.641,-0.313 0,0" style="fill:#0a3b1b;fill-opacity:1;fill-rule:nonzero;stroke:none" transform="matrix(0.35277776,0,0,-0.35277776,108.00342,177.33025)" clip-path="url(#clipPath172)"></path></g></svg>