<svg xmlns:inkscape="http://www.inkscape.org/namespaces/inkscape" xmlns:sodipodi="http://sodipodi.sourceforge.net/DTD/sodipodi-0.dtd" xmlns="http://www.w3.org/2000/svg" xmlns:svg="http://www.w3.org/2000/svg" width="39.713551mm" height="34.1376mm" viewBox="0 0 39.71355 34.1376" id="svg1" inkscape:version="1.3.2 (091e20e, 2023-11-25)" sodipodi:docname="other.svg"><defs id="defs1"><clipPath clipPathUnits="userSpaceOnUse" id="clipPath39"><path d="M 0,5198.318 H 1920 V 0 H 0 Z" transform="translate(-383.24031,-3599.4769)" id="path39"></path></clipPath><clipPath clipPathUnits="userSpaceOnUse" id="clipPath48"><path d="M 0,5198.318 H 1920 V 0 H 0 Z" transform="translate(-1008.3837,-3606.5294)" id="path48"></path></clipPath><clipPath clipPathUnits="userSpaceOnUse" id="clipPath54"><path d="M 0,5198.318 H 1920 V 0 H 0 Z" transform="translate(-1652.2498,-3606.5294)" id="path54"></path></clipPath><clipPath clipPathUnits="userSpaceOnUse" id="clipPath81"><path d="M 0,5198.318 H 1920 V 0 H 0 Z" transform="translate(-962.43002,-3652.9857)" id="path81"></path></clipPath><clipPath clipPathUnits="userSpaceOnUse" id="clipPath83"><path d="M 0,5198.318 H 1920 V 0 H 0 Z" transform="translate(-962.43002,-3652.776)" id="path83"></path></clipPath><clipPath clipPathUnits="userSpaceOnUse" id="clipPath85"><path d="M 0,5198.318 H 1920 V 0 H 0 Z" transform="translate(-930.00362,-3588.1461)" id="path85"></path></clipPath><clipPath clipPathUnits="userSpaceOnUse" id="clipPath87"><path d="M 0,5198.318 H 1920 V 0 H 0 Z" transform="translate(-930.00152,-3588.1424)" id="path87"></path></clipPath><clipPath clipPathUnits="userSpaceOnUse" id="clipPath89"><path d="M 0,5198.318 H 1920 V 0 H 0 Z" transform="translate(-928.42885,-3575.1598)" id="path89"></path></clipPath><clipPath clipPathUnits="userSpaceOnUse" id="clipPath91"><path d="M 0,5198.318 H 1920 V 0 H 0 Z" transform="translate(-949.2247,-3575.5899)" id="path91"></path></clipPath><clipPath clipPathUnits="userSpaceOnUse" id="clipPath93"><path d="M 0,5198.318 H 1920 V 0 H 0 Z" transform="translate(-949.2289,-3575.5899)" id="path93"></path></clipPath><clipPath clipPathUnits="userSpaceOnUse" id="clipPath95"><path d="M 0,5198.318 H 1920 V 0 H 0 Z" transform="translate(-961.2742,-3580.6825)" id="path95"></path></clipPath><clipPath clipPathUnits="userSpaceOnUse" id="clipPath97"><path d="M 0,5198.318 H 1920 V 0 H 0 Z" transform="translate(-950.56682,-3598.691)" id="path97"></path></clipPath><clipPath clipPathUnits="userSpaceOnUse" id="clipPath99"><path d="M 0,5198.318 H 1920 V 0 H 0 Z" transform="translate(-950.56465,-3598.6947)" id="path99"></path></clipPath><clipPath clipPathUnits="userSpaceOnUse" id="clipPath101"><path d="M 0,5198.318 H 1920 V 0 H 0 Z" transform="translate(-939.82142,-3606.1517)" id="path101"></path></clipPath><clipPath clipPathUnits="userSpaceOnUse" id="clipPath103"><path d="M 0,5198.318 H 1920 V 0 H 0 Z" transform="translate(-1627.8519,-3577.7132)" id="path103"></path></clipPath><clipPath clipPathUnits="userSpaceOnUse" id="clipPath105"><path d="M 0,5198.318 H 1920 V 0 H 0 Z" transform="translate(-1621.9926,-3565.5516)" id="path105"></path></clipPath><clipPath clipPathUnits="userSpaceOnUse" id="clipPath107"><path d="M 0,5198.318 H 1920 V 0 H 0 Z" transform="translate(-1586.9355,-3581.5086)" id="path107"></path></clipPath><clipPath clipPathUnits="userSpaceOnUse" id="clipPath109"><path d="M 0,5198.318 H 1920 V 0 H 0 Z" transform="translate(-1569.2895,-3565.7154)" id="path109"></path></clipPath><clipPath clipPathUnits="userSpaceOnUse" id="clipPath111"><path d="M 0,5198.318 H 1920 V 0 H 0 Z" transform="translate(0,-2.5e-5)" id="path111"></path></clipPath><clipPath clipPathUnits="userSpaceOnUse" id="clipPath113"><path d="M 0,5198.318 H 1920 V 0 H 0 Z" transform="translate(-1566.4468,-3635.1827)" id="path113"></path></clipPath><clipPath clipPathUnits="userSpaceOnUse" id="clipPath115"><path d="M 0,5198.318 H 1920 V 0 H 0 Z" transform="translate(-1629.6771,-3623.4625)" id="path115"></path></clipPath><clipPath clipPathUnits="userSpaceOnUse" id="clipPath117"><path d="M 0,5198.318 H 1920 V 0 H 0 Z" transform="translate(-1622.7406,-3623.2879)" id="path117"></path></clipPath><clipPath clipPathUnits="userSpaceOnUse" id="clipPath119"><path d="M 0,5198.318 H 1920 V 0 H 0 Z" transform="translate(-1607.9094,-3623.4625)" id="path119"></path></clipPath><clipPath clipPathUnits="userSpaceOnUse" id="clipPath121"><path d="M 0,5198.318 H 1920 V 0 H 0 Z" transform="translate(-1618.7934,-3609.6417)" id="path121"></path></clipPath><clipPath clipPathUnits="userSpaceOnUse" id="clipPath328"><path d="M 0,5198.318 H 1920 V 0 H 0 Z" transform="translate(-326.36751,-3551.6629)" id="path328"></path></clipPath><clipPath clipPathUnits="userSpaceOnUse" id="clipPath330"><path d="M 0,5198.318 H 1920 V 0 H 0 Z" transform="translate(0,-2.5e-5)" id="path330"></path></clipPath><clipPath clipPathUnits="userSpaceOnUse" id="clipPath332"><path d="M 0,5198.318 H 1920 V 0 H 0 Z" transform="translate(-309.46151,-3585.0841)" id="path332"></path></clipPath><clipPath clipPathUnits="userSpaceOnUse" id="clipPath334"><path d="M 0,5198.318 H 1920 V 0 H 0 Z" transform="translate(-309.46151,-3577.7291)" id="path334"></path></clipPath><clipPath clipPathUnits="userSpaceOnUse" id="clipPath336"><path d="M 0,5198.318 H 1920 V 0 H 0 Z" transform="translate(-309.46151,-3570.3744)" id="path336"></path></clipPath><clipPath clipPathUnits="userSpaceOnUse" id="clipPath338"><path d="M 0,5198.318 H 1920 V 0 H 0 Z" transform="translate(-309.46151,-3563.0194)" id="path338"></path></clipPath><clipPath clipPathUnits="userSpaceOnUse" id="clipPath340"><path d="M 0,5198.318 H 1920 V 0 H 0 Z" transform="translate(0,-2.5e-5)" id="path340"></path></clipPath><clipPath clipPathUnits="userSpaceOnUse" id="clipPath342"><path d="M 0,5198.318 H 1920 V 0 H 0 Z" transform="translate(-342.46501,-3554.8863)" id="path342"></path></clipPath><clipPath clipPathUnits="userSpaceOnUse" id="clipPath344"><path d="M 0,5198.318 H 1920 V 0 H 0 Z" transform="translate(-368.85681,-3585.7948)" id="path344"></path></clipPath><clipPath clipPathUnits="userSpaceOnUse" id="clipPath346"><path d="M 0,5198.318 H 1920 V 0 H 0 Z" transform="translate(-368.85681,-3554.6756)" id="path346"></path></clipPath><clipPath clipPathUnits="userSpaceOnUse" id="clipPath348"><path d="M 0,5198.318 H 1920 V 0 H 0 Z" transform="translate(-368.85681,-3562.2989)" id="path348"></path></clipPath><clipPath clipPathUnits="userSpaceOnUse" id="clipPath350"><path d="M 0,5198.318 H 1920 V 0 H 0 Z" transform="translate(-368.85681,-3577.1058)" id="path350"></path></clipPath><clipPath clipPathUnits="userSpaceOnUse" id="clipPath352"><path d="M 0,5198.318 H 1920 V 0 H 0 Z" transform="translate(-342.46501,-3586.0731)" id="path352"></path></clipPath><clipPath clipPathUnits="userSpaceOnUse" id="clipPath54-9"><path d="M 0,5198.318 H 1920 V 0 H 0 Z" transform="translate(-1652.2498,-3606.5294)" id="path54-7"></path></clipPath><clipPath clipPathUnits="userSpaceOnUse" id="clipPath103-8"><path d="M 0,5198.318 H 1920 V 0 H 0 Z" transform="translate(-1627.8519,-3577.7132)" id="path103-1"></path></clipPath><clipPath clipPathUnits="userSpaceOnUse" id="clipPath105-4"><path d="M 0,5198.318 H 1920 V 0 H 0 Z" transform="translate(-1621.9926,-3565.5516)" id="path105-7"></path></clipPath><clipPath clipPathUnits="userSpaceOnUse" id="clipPath107-1"><path d="M 0,5198.318 H 1920 V 0 H 0 Z" transform="translate(-1586.9355,-3581.5086)" id="path107-3"></path></clipPath><clipPath clipPathUnits="userSpaceOnUse" id="clipPath109-8"><path d="M 0,5198.318 H 1920 V 0 H 0 Z" transform="translate(-1569.2895,-3565.7154)" id="path109-4"></path></clipPath><clipPath clipPathUnits="userSpaceOnUse" id="clipPath111-8"><path d="M 0,5198.318 H 1920 V 0 H 0 Z" transform="translate(0,-2.5e-5)" id="path111-0"></path></clipPath><clipPath clipPathUnits="userSpaceOnUse" id="clipPath113-4"><path d="M 0,5198.318 H 1920 V 0 H 0 Z" transform="translate(-1566.4468,-3635.1827)" id="path113-6"></path></clipPath><clipPath clipPathUnits="userSpaceOnUse" id="clipPath115-0"><path d="M 0,5198.318 H 1920 V 0 H 0 Z" transform="translate(-1629.6771,-3623.4625)" id="path115-3"></path></clipPath><clipPath clipPathUnits="userSpaceOnUse" id="clipPath117-2"><path d="M 0,5198.318 H 1920 V 0 H 0 Z" transform="translate(-1622.7406,-3623.2879)" id="path117-6"></path></clipPath><clipPath clipPathUnits="userSpaceOnUse" id="clipPath119-9"><path d="M 0,5198.318 H 1920 V 0 H 0 Z" transform="translate(-1607.9094,-3623.4625)" id="path119-4"></path></clipPath><clipPath clipPathUnits="userSpaceOnUse" id="clipPath121-1"><path d="M 0,5198.318 H 1920 V 0 H 0 Z" transform="translate(-1618.7934,-3609.6417)" id="path121-3"></path></clipPath></defs><g inkscape:label="Capa 1" inkscape:groupmode="layer" id="layer1" transform="translate(140.75835,-135.27945)"><g id="group-MC3" transform="matrix(0.26458333,0,0,0.26458333,-237.05725,-414.30459)"></g><path id="path53" d="m 0,0 c 0,-26.721 -21.662,-48.384 -48.384,-48.384 -26.721,0 -48.383,21.663 -48.383,48.384 0,26.722 21.662,48.384 48.383,48.384 C -21.662,48.384 0,26.722 0,0" style="fill:#e3faed;fill-opacity:1;fill-rule:nonzero;stroke:none" transform="matrix(0.35277776,0,0,-0.35277776,-101.0448,152.34825)" clip-path="url(#clipPath54-9)"></path><path id="path102" d="m 0,0 h -45.893 l 4.185,14.673 h 36.686 z" style="fill:none;stroke:#023a2b;stroke-width:1;stroke-linecap:butt;stroke-linejoin:miter;stroke-miterlimit:10;stroke-dasharray:none;stroke-opacity:1" transform="matrix(0.35277776,0,0,-0.35277776,-109.65183,162.51394)" clip-path="url(#clipPath103-8)"></path><path id="path104" d="m 0,0 h -34.174 l -5.859,12.162 H 5.859 Z" style="fill:none;stroke:#023a2b;stroke-width:1;stroke-linecap:butt;stroke-linejoin:miter;stroke-miterlimit:10;stroke-dasharray:none;stroke-opacity:1" transform="matrix(0.35277776,0,0,-0.35277776,-111.71886,166.80429)" clip-path="url(#clipPath105-4)"></path><path id="path106" d="M 0,0 H 35.387" style="fill:none;stroke:#023a2b;stroke-width:1;stroke-linecap:butt;stroke-linejoin:miter;stroke-miterlimit:10;stroke-dasharray:none;stroke-opacity:1" transform="matrix(0.35277776,0,0,-0.35277776,-124.08624,161.17504)" clip-path="url(#clipPath107-1)"></path><path id="path108" d="m 0,0 h -23.438 l -3.348,50.971 H 3.348 Z" style="fill:none;stroke:#023a2b;stroke-width:1;stroke-linecap:butt;stroke-linejoin:miter;stroke-miterlimit:10;stroke-dasharray:none;stroke-opacity:1" transform="matrix(0.35277776,0,0,-0.35277776,-130.31136,166.74653)" clip-path="url(#clipPath109-8)"></path><path id="path110" d="m 1575.01,3616.686 h -34.834 v 3.618 h 34.834 z" style="fill:none;stroke:#023a2b;stroke-width:1;stroke-linecap:butt;stroke-linejoin:miter;stroke-miterlimit:10;stroke-dasharray:none;stroke-opacity:1" transform="matrix(0.35277776,0,0,-0.35277776,-683.9218,1424.6516)" clip-path="url(#clipPath111-8)"></path><path id="path112" d="M 0,0 V -14.878 H -3.602 V 0.739 c 0,0 -0.253,2.188 2.765,2.188 H 14.322 V 0 H 0.131" style="fill:none;stroke:#023a2b;stroke-width:1;stroke-linecap:butt;stroke-linejoin:miter;stroke-miterlimit:10;stroke-dasharray:none;stroke-opacity:1" transform="matrix(0.35277776,0,0,-0.35277776,-131.31418,142.24001)" clip-path="url(#clipPath113-4)"></path><path id="path114" d="m 0,0 c 0,-7.633 -4.873,-13.821 -10.884,-13.821 -6.011,0 -10.884,6.188 -10.884,13.821 0,7.633 4.873,13.821 10.884,13.821 C -4.873,13.821 0,7.633 0,0 Z" style="fill:none;stroke:#023a2b;stroke-width:1;stroke-linecap:butt;stroke-linejoin:miter;stroke-miterlimit:10;stroke-dasharray:none;stroke-opacity:1" transform="matrix(0.35277776,0,0,-0.35277776,-109.00794,146.37462)" clip-path="url(#clipPath115-0)"></path><path id="path116" d="m 0,0 c 0,-2.544 -1.624,-4.607 -3.628,-4.607 -2.004,0 -3.628,2.063 -3.628,4.607 0,2.544 1.624,4.607 3.628,4.607 C -1.624,4.607 0,2.544 0,0 Z" style="fill:none;stroke:#023a2b;stroke-width:1;stroke-linecap:butt;stroke-linejoin:miter;stroke-miterlimit:10;stroke-dasharray:none;stroke-opacity:1" transform="matrix(0.35277776,0,0,-0.35277776,-111.45499,146.43619)" clip-path="url(#clipPath117-2)"></path><path id="path118" d="M 0,0 V -24.532 H -21.768 V 0 c 0,7.633 4.873,13.821 10.884,13.821 h 21.469" style="fill:none;stroke:#023a2b;stroke-width:1;stroke-linecap:butt;stroke-linejoin:miter;stroke-miterlimit:10;stroke-dasharray:none;stroke-opacity:1" transform="matrix(0.35277776,0,0,-0.35277776,-116.6871,146.37462)" clip-path="url(#clipPath119-9)"></path><path id="path120" d="M 0,0 H -10.884" style="fill:none;stroke:#023a2b;stroke-width:1;stroke-linecap:butt;stroke-linejoin:miter;stroke-miterlimit:10;stroke-dasharray:none;stroke-opacity:1" transform="matrix(0.35277776,0,0,-0.35277776,-112.84749,151.25031)" clip-path="url(#clipPath121-1)"></path></g></svg>