<svg xmlns:inkscape="http://www.inkscape.org/namespaces/inkscape" xmlns:sodipodi="http://sodipodi.sourceforge.net/DTD/sodipodi-0.dtd" xmlns="http://www.w3.org/2000/svg" xmlns:svg="http://www.w3.org/2000/svg" width="34.137245mm" height="35.904465mm" viewBox="0 0 34.137245 35.904465" id="svg1" inkscape:version="1.3.2 (091e20e, 2023-11-25)" sodipodi:docname="pet.svg"><defs id="defs1"><clipPath clipPathUnits="userSpaceOnUse" id="clipPath39"><path d="M 0,5198.318 H 1920 V 0 H 0 Z" transform="translate(-383.24031,-3599.4769)" id="path39"></path></clipPath><clipPath clipPathUnits="userSpaceOnUse" id="clipPath48"><path d="M 0,5198.318 H 1920 V 0 H 0 Z" transform="translate(-1008.3837,-3606.5294)" id="path48"></path></clipPath><clipPath clipPathUnits="userSpaceOnUse" id="clipPath54"><path d="M 0,5198.318 H 1920 V 0 H 0 Z" transform="translate(-1652.2498,-3606.5294)" id="path54"></path></clipPath><clipPath clipPathUnits="userSpaceOnUse" id="clipPath81"><path d="M 0,5198.318 H 1920 V 0 H 0 Z" transform="translate(-962.43002,-3652.9857)" id="path81"></path></clipPath><clipPath clipPathUnits="userSpaceOnUse" id="clipPath83"><path d="M 0,5198.318 H 1920 V 0 H 0 Z" transform="translate(-962.43002,-3652.776)" id="path83"></path></clipPath><clipPath clipPathUnits="userSpaceOnUse" id="clipPath85"><path d="M 0,5198.318 H 1920 V 0 H 0 Z" transform="translate(-930.00362,-3588.1461)" id="path85"></path></clipPath><clipPath clipPathUnits="userSpaceOnUse" id="clipPath87"><path d="M 0,5198.318 H 1920 V 0 H 0 Z" transform="translate(-930.00152,-3588.1424)" id="path87"></path></clipPath><clipPath clipPathUnits="userSpaceOnUse" id="clipPath89"><path d="M 0,5198.318 H 1920 V 0 H 0 Z" transform="translate(-928.42885,-3575.1598)" id="path89"></path></clipPath><clipPath clipPathUnits="userSpaceOnUse" id="clipPath91"><path d="M 0,5198.318 H 1920 V 0 H 0 Z" transform="translate(-949.2247,-3575.5899)" id="path91"></path></clipPath><clipPath clipPathUnits="userSpaceOnUse" id="clipPath93"><path d="M 0,5198.318 H 1920 V 0 H 0 Z" transform="translate(-949.2289,-3575.5899)" id="path93"></path></clipPath><clipPath clipPathUnits="userSpaceOnUse" id="clipPath95"><path d="M 0,5198.318 H 1920 V 0 H 0 Z" transform="translate(-961.2742,-3580.6825)" id="path95"></path></clipPath><clipPath clipPathUnits="userSpaceOnUse" id="clipPath97"><path d="M 0,5198.318 H 1920 V 0 H 0 Z" transform="translate(-950.56682,-3598.691)" id="path97"></path></clipPath><clipPath clipPathUnits="userSpaceOnUse" id="clipPath99"><path d="M 0,5198.318 H 1920 V 0 H 0 Z" transform="translate(-950.56465,-3598.6947)" id="path99"></path></clipPath><clipPath clipPathUnits="userSpaceOnUse" id="clipPath101"><path d="M 0,5198.318 H 1920 V 0 H 0 Z" transform="translate(-939.82142,-3606.1517)" id="path101"></path></clipPath><clipPath clipPathUnits="userSpaceOnUse" id="clipPath103"><path d="M 0,5198.318 H 1920 V 0 H 0 Z" transform="translate(-1627.8519,-3577.7132)" id="path103"></path></clipPath><clipPath clipPathUnits="userSpaceOnUse" id="clipPath105"><path d="M 0,5198.318 H 1920 V 0 H 0 Z" transform="translate(-1621.9926,-3565.5516)" id="path105"></path></clipPath><clipPath clipPathUnits="userSpaceOnUse" id="clipPath107"><path d="M 0,5198.318 H 1920 V 0 H 0 Z" transform="translate(-1586.9355,-3581.5086)" id="path107"></path></clipPath><clipPath clipPathUnits="userSpaceOnUse" id="clipPath109"><path d="M 0,5198.318 H 1920 V 0 H 0 Z" transform="translate(-1569.2895,-3565.7154)" id="path109"></path></clipPath><clipPath clipPathUnits="userSpaceOnUse" id="clipPath111"><path d="M 0,5198.318 H 1920 V 0 H 0 Z" transform="translate(0,-2.5e-5)" id="path111"></path></clipPath><clipPath clipPathUnits="userSpaceOnUse" id="clipPath113"><path d="M 0,5198.318 H 1920 V 0 H 0 Z" transform="translate(-1566.4468,-3635.1827)" id="path113"></path></clipPath><clipPath clipPathUnits="userSpaceOnUse" id="clipPath115"><path d="M 0,5198.318 H 1920 V 0 H 0 Z" transform="translate(-1629.6771,-3623.4625)" id="path115"></path></clipPath><clipPath clipPathUnits="userSpaceOnUse" id="clipPath117"><path d="M 0,5198.318 H 1920 V 0 H 0 Z" transform="translate(-1622.7406,-3623.2879)" id="path117"></path></clipPath><clipPath clipPathUnits="userSpaceOnUse" id="clipPath119"><path d="M 0,5198.318 H 1920 V 0 H 0 Z" transform="translate(-1607.9094,-3623.4625)" id="path119"></path></clipPath><clipPath clipPathUnits="userSpaceOnUse" id="clipPath121"><path d="M 0,5198.318 H 1920 V 0 H 0 Z" transform="translate(-1618.7934,-3609.6417)" id="path121"></path></clipPath><clipPath clipPathUnits="userSpaceOnUse" id="clipPath328"><path d="M 0,5198.318 H 1920 V 0 H 0 Z" transform="translate(-326.36751,-3551.6629)" id="path328"></path></clipPath><clipPath clipPathUnits="userSpaceOnUse" id="clipPath330"><path d="M 0,5198.318 H 1920 V 0 H 0 Z" transform="translate(0,-2.5e-5)" id="path330"></path></clipPath><clipPath clipPathUnits="userSpaceOnUse" id="clipPath332"><path d="M 0,5198.318 H 1920 V 0 H 0 Z" transform="translate(-309.46151,-3585.0841)" id="path332"></path></clipPath><clipPath clipPathUnits="userSpaceOnUse" id="clipPath334"><path d="M 0,5198.318 H 1920 V 0 H 0 Z" transform="translate(-309.46151,-3577.7291)" id="path334"></path></clipPath><clipPath clipPathUnits="userSpaceOnUse" id="clipPath336"><path d="M 0,5198.318 H 1920 V 0 H 0 Z" transform="translate(-309.46151,-3570.3744)" id="path336"></path></clipPath><clipPath clipPathUnits="userSpaceOnUse" id="clipPath338"><path d="M 0,5198.318 H 1920 V 0 H 0 Z" transform="translate(-309.46151,-3563.0194)" id="path338"></path></clipPath><clipPath clipPathUnits="userSpaceOnUse" id="clipPath340"><path d="M 0,5198.318 H 1920 V 0 H 0 Z" transform="translate(0,-2.5e-5)" id="path340"></path></clipPath><clipPath clipPathUnits="userSpaceOnUse" id="clipPath342"><path d="M 0,5198.318 H 1920 V 0 H 0 Z" transform="translate(-342.46501,-3554.8863)" id="path342"></path></clipPath><clipPath clipPathUnits="userSpaceOnUse" id="clipPath344"><path d="M 0,5198.318 H 1920 V 0 H 0 Z" transform="translate(-368.85681,-3585.7948)" id="path344"></path></clipPath><clipPath clipPathUnits="userSpaceOnUse" id="clipPath346"><path d="M 0,5198.318 H 1920 V 0 H 0 Z" transform="translate(-368.85681,-3554.6756)" id="path346"></path></clipPath><clipPath clipPathUnits="userSpaceOnUse" id="clipPath348"><path d="M 0,5198.318 H 1920 V 0 H 0 Z" transform="translate(-368.85681,-3562.2989)" id="path348"></path></clipPath><clipPath clipPathUnits="userSpaceOnUse" id="clipPath350"><path d="M 0,5198.318 H 1920 V 0 H 0 Z" transform="translate(-368.85681,-3577.1058)" id="path350"></path></clipPath><clipPath clipPathUnits="userSpaceOnUse" id="clipPath352"><path d="M 0,5198.318 H 1920 V 0 H 0 Z" transform="translate(-342.46501,-3586.0731)" id="path352"></path></clipPath></defs><g inkscape:label="Capa 1" inkscape:groupmode="layer" id="layer1" transform="translate(135.99584,-131.04613)"><path id="path38" d="m 0,0 c 0,-26.722 -21.662,-48.384 -48.384,-48.384 -26.721,0 -48.383,21.662 -48.383,48.384 0,26.721 21.662,48.384 48.383,48.384 C -21.662,48.384 0,26.721 0,0" style="fill:#e3faed;fill-opacity:1;fill-rule:nonzero;stroke:none" transform="matrix(0.35277776,0,0,-0.35277776,-101.85859,149.73175)" clip-path="url(#clipPath39)"></path><g id="group-MC3" transform="matrix(0.26458333,0,0,0.26458333,-237.05725,-414.30459)"><path id="path327" d="m 0,0 h -11.581 c -5.822,0 -10.541,4.719 -10.541,10.541 v 59.203 c 0,2.305 0.616,4.569 1.785,6.556 l 9.353,15.902 h 10.56 L 8.8,76.271 c 1.14,-1.969 1.741,-4.204 1.741,-6.48 V 10.541 C 10.541,4.719 5.821,0 0,0 Z" style="fill:none;stroke:#023a2b;stroke-width:1;stroke-linecap:butt;stroke-linejoin:miter;stroke-miterlimit:10;stroke-dasharray:none;stroke-opacity:1" transform="matrix(1.3333333,0,0,-1.3333333,435.15667,2195.5429)" clip-path="url(#clipPath328)"></path><path id="path329" d="m 304.253,3621.72 h 32.655 v -27.283 h -32.655 z" style="fill:none;stroke:#023a2b;stroke-width:1;stroke-linecap:butt;stroke-linejoin:miter;stroke-miterlimit:10;stroke-dasharray:none;stroke-opacity:1" transform="matrix(1.3333333,0,0,-1.3333333,0,6931.0933)" clip-path="url(#clipPath330)"></path><path id="path331" d="M 0,0 H 22.238" style="fill:none;stroke:#023a2b;stroke-width:1;stroke-linecap:butt;stroke-linejoin:miter;stroke-miterlimit:10;stroke-dasharray:none;stroke-opacity:1" transform="matrix(1.3333333,0,0,-1.3333333,412.61533,2150.9813)" clip-path="url(#clipPath332)"></path><path id="path333" d="M 0,0 H 22.238" style="fill:none;stroke:#023a2b;stroke-width:1;stroke-linecap:butt;stroke-linejoin:miter;stroke-miterlimit:10;stroke-dasharray:none;stroke-opacity:1" transform="matrix(1.3333333,0,0,-1.3333333,412.61533,2160.788)" clip-path="url(#clipPath334)"></path><path id="path335" d="M 0,0 H 22.238" style="fill:none;stroke:#023a2b;stroke-width:1;stroke-linecap:butt;stroke-linejoin:miter;stroke-miterlimit:10;stroke-dasharray:none;stroke-opacity:1" transform="matrix(1.3333333,0,0,-1.3333333,412.61533,2170.5943)" clip-path="url(#clipPath336)"></path><path id="path337" d="M 0,0 H 22.238" style="fill:none;stroke:#023a2b;stroke-width:1;stroke-linecap:butt;stroke-linejoin:miter;stroke-miterlimit:10;stroke-dasharray:none;stroke-opacity:1" transform="matrix(1.3333333,0,0,-1.3333333,412.61533,2180.4009)" clip-path="url(#clipPath338)"></path><path id="path339" d="M 327.526,3643.865 H 313.28 v 8.079 h 14.246 z" style="fill:none;stroke:#023a2b;stroke-width:1;stroke-linecap:butt;stroke-linejoin:miter;stroke-miterlimit:10;stroke-dasharray:none;stroke-opacity:1" transform="matrix(1.3333333,0,0,-1.3333333,0,6931.0933)" clip-path="url(#clipPath340)"></path><path id="path341" d="M 0,0 V 30.908" style="fill:none;stroke:#023a2b;stroke-width:1;stroke-linecap:butt;stroke-linejoin:miter;stroke-miterlimit:10;stroke-dasharray:none;stroke-opacity:1" transform="matrix(1.3333333,0,0,-1.3333333,456.62,2191.2451)" clip-path="url(#clipPath342)"></path><path id="path343" d="M 0,0 V -30.908" style="fill:none;stroke:#023a2b;stroke-width:1;stroke-linecap:butt;stroke-linejoin:miter;stroke-miterlimit:10;stroke-dasharray:none;stroke-opacity:1" transform="matrix(1.3333333,0,0,-1.3333333,491.80907,2150.0337)" clip-path="url(#clipPath344)"></path><path id="path345" d="m 0,0 c 0,-1.937 -5.908,-3.508 -13.196,-3.508 -7.288,0 -13.196,1.571 -13.196,3.508" style="fill:none;stroke:#023a2b;stroke-width:1;stroke-linecap:butt;stroke-linejoin:miter;stroke-miterlimit:10;stroke-dasharray:none;stroke-opacity:1" transform="matrix(1.3333333,0,0,-1.3333333,491.80907,2191.526)" clip-path="url(#clipPath346)"></path><path id="path347" d="m 0,0 c 0,-1.937 -5.908,-3.508 -13.196,-3.508 -7.288,0 -13.196,1.571 -13.196,3.508" style="fill:none;stroke:#023a2b;stroke-width:1;stroke-linecap:butt;stroke-linejoin:miter;stroke-miterlimit:10;stroke-dasharray:none;stroke-opacity:1" transform="matrix(1.3333333,0,0,-1.3333333,491.80907,2181.3616)" clip-path="url(#clipPath348)"></path><path id="path349" d="m 0,0 c 0,-1.937 -5.908,-3.508 -13.196,-3.508 -7.288,0 -13.196,1.571 -13.196,3.508" style="fill:none;stroke:#023a2b;stroke-width:1;stroke-linecap:butt;stroke-linejoin:miter;stroke-miterlimit:10;stroke-dasharray:none;stroke-opacity:1" transform="matrix(1.3333333,0,0,-1.3333333,491.80907,2161.6191)" clip-path="url(#clipPath350)"></path><path id="path351" d="m 0,0 c 0,1.937 5.908,3.508 13.196,3.508 7.288,0 13.196,-1.571 13.196,-3.508 0,-1.937 -5.908,-3.508 -13.196,-3.508 C 5.908,-3.508 0,-1.937 0,0" style="fill:none;stroke:#023a2b;stroke-width:1;stroke-linecap:butt;stroke-linejoin:miter;stroke-miterlimit:10;stroke-dasharray:none;stroke-opacity:1" transform="matrix(1.3333333,0,0,-1.3333333,456.62,2149.6627)" clip-path="url(#clipPath352)"></path></g></g></svg>