<svg xmlns:inkscape="http://www.inkscape.org/namespaces/inkscape" xmlns:sodipodi="http://sodipodi.sourceforge.net/DTD/sodipodi-0.dtd" xmlns="http://www.w3.org/2000/svg" xmlns:svg="http://www.w3.org/2000/svg" width="35.645977mm" height="34.1376mm" viewBox="0 0 35.645977 34.1376" id="svg1" inkscape:version="1.3.2 (091e20e, 2023-11-25)" sodipodi:docname="plastic.svg"><defs id="defs1"><clipPath clipPathUnits="userSpaceOnUse" id="clipPath39"><path d="M 0,5198.318 H 1920 V 0 H 0 Z" transform="translate(-383.24031,-3599.4769)" id="path39"></path></clipPath><clipPath clipPathUnits="userSpaceOnUse" id="clipPath48"><path d="M 0,5198.318 H 1920 V 0 H 0 Z" transform="translate(-1008.3837,-3606.5294)" id="path48"></path></clipPath><clipPath clipPathUnits="userSpaceOnUse" id="clipPath54"><path d="M 0,5198.318 H 1920 V 0 H 0 Z" transform="translate(-1652.2498,-3606.5294)" id="path54"></path></clipPath><clipPath clipPathUnits="userSpaceOnUse" id="clipPath81"><path d="M 0,5198.318 H 1920 V 0 H 0 Z" transform="translate(-962.43002,-3652.9857)" id="path81"></path></clipPath><clipPath clipPathUnits="userSpaceOnUse" id="clipPath83"><path d="M 0,5198.318 H 1920 V 0 H 0 Z" transform="translate(-962.43002,-3652.776)" id="path83"></path></clipPath><clipPath clipPathUnits="userSpaceOnUse" id="clipPath85"><path d="M 0,5198.318 H 1920 V 0 H 0 Z" transform="translate(-930.00362,-3588.1461)" id="path85"></path></clipPath><clipPath clipPathUnits="userSpaceOnUse" id="clipPath87"><path d="M 0,5198.318 H 1920 V 0 H 0 Z" transform="translate(-930.00152,-3588.1424)" id="path87"></path></clipPath><clipPath clipPathUnits="userSpaceOnUse" id="clipPath89"><path d="M 0,5198.318 H 1920 V 0 H 0 Z" transform="translate(-928.42885,-3575.1598)" id="path89"></path></clipPath><clipPath clipPathUnits="userSpaceOnUse" id="clipPath91"><path d="M 0,5198.318 H 1920 V 0 H 0 Z" transform="translate(-949.2247,-3575.5899)" id="path91"></path></clipPath><clipPath clipPathUnits="userSpaceOnUse" id="clipPath93"><path d="M 0,5198.318 H 1920 V 0 H 0 Z" transform="translate(-949.2289,-3575.5899)" id="path93"></path></clipPath><clipPath clipPathUnits="userSpaceOnUse" id="clipPath95"><path d="M 0,5198.318 H 1920 V 0 H 0 Z" transform="translate(-961.2742,-3580.6825)" id="path95"></path></clipPath><clipPath clipPathUnits="userSpaceOnUse" id="clipPath97"><path d="M 0,5198.318 H 1920 V 0 H 0 Z" transform="translate(-950.56682,-3598.691)" id="path97"></path></clipPath><clipPath clipPathUnits="userSpaceOnUse" id="clipPath99"><path d="M 0,5198.318 H 1920 V 0 H 0 Z" transform="translate(-950.56465,-3598.6947)" id="path99"></path></clipPath><clipPath clipPathUnits="userSpaceOnUse" id="clipPath101"><path d="M 0,5198.318 H 1920 V 0 H 0 Z" transform="translate(-939.82142,-3606.1517)" id="path101"></path></clipPath><clipPath clipPathUnits="userSpaceOnUse" id="clipPath103"><path d="M 0,5198.318 H 1920 V 0 H 0 Z" transform="translate(-1627.8519,-3577.7132)" id="path103"></path></clipPath><clipPath clipPathUnits="userSpaceOnUse" id="clipPath105"><path d="M 0,5198.318 H 1920 V 0 H 0 Z" transform="translate(-1621.9926,-3565.5516)" id="path105"></path></clipPath><clipPath clipPathUnits="userSpaceOnUse" id="clipPath107"><path d="M 0,5198.318 H 1920 V 0 H 0 Z" transform="translate(-1586.9355,-3581.5086)" id="path107"></path></clipPath><clipPath clipPathUnits="userSpaceOnUse" id="clipPath109"><path d="M 0,5198.318 H 1920 V 0 H 0 Z" transform="translate(-1569.2895,-3565.7154)" id="path109"></path></clipPath><clipPath clipPathUnits="userSpaceOnUse" id="clipPath111"><path d="M 0,5198.318 H 1920 V 0 H 0 Z" transform="translate(0,-2.5e-5)" id="path111"></path></clipPath><clipPath clipPathUnits="userSpaceOnUse" id="clipPath113"><path d="M 0,5198.318 H 1920 V 0 H 0 Z" transform="translate(-1566.4468,-3635.1827)" id="path113"></path></clipPath><clipPath clipPathUnits="userSpaceOnUse" id="clipPath115"><path d="M 0,5198.318 H 1920 V 0 H 0 Z" transform="translate(-1629.6771,-3623.4625)" id="path115"></path></clipPath><clipPath clipPathUnits="userSpaceOnUse" id="clipPath117"><path d="M 0,5198.318 H 1920 V 0 H 0 Z" transform="translate(-1622.7406,-3623.2879)" id="path117"></path></clipPath><clipPath clipPathUnits="userSpaceOnUse" id="clipPath119"><path d="M 0,5198.318 H 1920 V 0 H 0 Z" transform="translate(-1607.9094,-3623.4625)" id="path119"></path></clipPath><clipPath clipPathUnits="userSpaceOnUse" id="clipPath121"><path d="M 0,5198.318 H 1920 V 0 H 0 Z" transform="translate(-1618.7934,-3609.6417)" id="path121"></path></clipPath><clipPath clipPathUnits="userSpaceOnUse" id="clipPath328"><path d="M 0,5198.318 H 1920 V 0 H 0 Z" transform="translate(-326.36751,-3551.6629)" id="path328"></path></clipPath><clipPath clipPathUnits="userSpaceOnUse" id="clipPath330"><path d="M 0,5198.318 H 1920 V 0 H 0 Z" transform="translate(0,-2.5e-5)" id="path330"></path></clipPath><clipPath clipPathUnits="userSpaceOnUse" id="clipPath332"><path d="M 0,5198.318 H 1920 V 0 H 0 Z" transform="translate(-309.46151,-3585.0841)" id="path332"></path></clipPath><clipPath clipPathUnits="userSpaceOnUse" id="clipPath334"><path d="M 0,5198.318 H 1920 V 0 H 0 Z" transform="translate(-309.46151,-3577.7291)" id="path334"></path></clipPath><clipPath clipPathUnits="userSpaceOnUse" id="clipPath336"><path d="M 0,5198.318 H 1920 V 0 H 0 Z" transform="translate(-309.46151,-3570.3744)" id="path336"></path></clipPath><clipPath clipPathUnits="userSpaceOnUse" id="clipPath338"><path d="M 0,5198.318 H 1920 V 0 H 0 Z" transform="translate(-309.46151,-3563.0194)" id="path338"></path></clipPath><clipPath clipPathUnits="userSpaceOnUse" id="clipPath340"><path d="M 0,5198.318 H 1920 V 0 H 0 Z" transform="translate(0,-2.5e-5)" id="path340"></path></clipPath><clipPath clipPathUnits="userSpaceOnUse" id="clipPath342"><path d="M 0,5198.318 H 1920 V 0 H 0 Z" transform="translate(-342.46501,-3554.8863)" id="path342"></path></clipPath><clipPath clipPathUnits="userSpaceOnUse" id="clipPath344"><path d="M 0,5198.318 H 1920 V 0 H 0 Z" transform="translate(-368.85681,-3585.7948)" id="path344"></path></clipPath><clipPath clipPathUnits="userSpaceOnUse" id="clipPath346"><path d="M 0,5198.318 H 1920 V 0 H 0 Z" transform="translate(-368.85681,-3554.6756)" id="path346"></path></clipPath><clipPath clipPathUnits="userSpaceOnUse" id="clipPath348"><path d="M 0,5198.318 H 1920 V 0 H 0 Z" transform="translate(-368.85681,-3562.2989)" id="path348"></path></clipPath><clipPath clipPathUnits="userSpaceOnUse" id="clipPath350"><path d="M 0,5198.318 H 1920 V 0 H 0 Z" transform="translate(-368.85681,-3577.1058)" id="path350"></path></clipPath><clipPath clipPathUnits="userSpaceOnUse" id="clipPath352"><path d="M 0,5198.318 H 1920 V 0 H 0 Z" transform="translate(-342.46501,-3586.0731)" id="path352"></path></clipPath><clipPath clipPathUnits="userSpaceOnUse" id="clipPath48-3"><path d="M 0,5198.318 H 1920 V 0 H 0 Z" transform="translate(-1008.3837,-3606.5294)" id="path48-9"></path></clipPath><clipPath clipPathUnits="userSpaceOnUse" id="clipPath54-9"><path d="M 0,5198.318 H 1920 V 0 H 0 Z" transform="translate(-1652.2498,-3606.5294)" id="path54-7"></path></clipPath><clipPath clipPathUnits="userSpaceOnUse" id="clipPath81-0"><path d="M 0,5198.318 H 1920 V 0 H 0 Z" transform="translate(-962.43002,-3652.9857)" id="path81-3"></path></clipPath><clipPath clipPathUnits="userSpaceOnUse" id="clipPath83-9"><path d="M 0,5198.318 H 1920 V 0 H 0 Z" transform="translate(-962.43002,-3652.776)" id="path83-8"></path></clipPath><clipPath clipPathUnits="userSpaceOnUse" id="clipPath85-6"><path d="M 0,5198.318 H 1920 V 0 H 0 Z" transform="translate(-930.00362,-3588.1461)" id="path85-5"></path></clipPath><clipPath clipPathUnits="userSpaceOnUse" id="clipPath87-7"><path d="M 0,5198.318 H 1920 V 0 H 0 Z" transform="translate(-930.00152,-3588.1424)" id="path87-6"></path></clipPath><clipPath clipPathUnits="userSpaceOnUse" id="clipPath89-2"><path d="M 0,5198.318 H 1920 V 0 H 0 Z" transform="translate(-928.42885,-3575.1598)" id="path89-7"></path></clipPath><clipPath clipPathUnits="userSpaceOnUse" id="clipPath91-0"><path d="M 0,5198.318 H 1920 V 0 H 0 Z" transform="translate(-949.2247,-3575.5899)" id="path91-3"></path></clipPath><clipPath clipPathUnits="userSpaceOnUse" id="clipPath93-9"><path d="M 0,5198.318 H 1920 V 0 H 0 Z" transform="translate(-949.2289,-3575.5899)" id="path93-9"></path></clipPath><clipPath clipPathUnits="userSpaceOnUse" id="clipPath95-9"><path d="M 0,5198.318 H 1920 V 0 H 0 Z" transform="translate(-961.2742,-3580.6825)" id="path95-1"></path></clipPath><clipPath clipPathUnits="userSpaceOnUse" id="clipPath97-7"><path d="M 0,5198.318 H 1920 V 0 H 0 Z" transform="translate(-950.56682,-3598.691)" id="path97-2"></path></clipPath><clipPath clipPathUnits="userSpaceOnUse" id="clipPath99-3"><path d="M 0,5198.318 H 1920 V 0 H 0 Z" transform="translate(-950.56465,-3598.6947)" id="path99-6"></path></clipPath><clipPath clipPathUnits="userSpaceOnUse" id="clipPath101-5"><path d="M 0,5198.318 H 1920 V 0 H 0 Z" transform="translate(-939.82142,-3606.1517)" id="path101-5"></path></clipPath><clipPath clipPathUnits="userSpaceOnUse" id="clipPath103-8"><path d="M 0,5198.318 H 1920 V 0 H 0 Z" transform="translate(-1627.8519,-3577.7132)" id="path103-1"></path></clipPath><clipPath clipPathUnits="userSpaceOnUse" id="clipPath105-4"><path d="M 0,5198.318 H 1920 V 0 H 0 Z" transform="translate(-1621.9926,-3565.5516)" id="path105-7"></path></clipPath><clipPath clipPathUnits="userSpaceOnUse" id="clipPath107-1"><path d="M 0,5198.318 H 1920 V 0 H 0 Z" transform="translate(-1586.9355,-3581.5086)" id="path107-3"></path></clipPath><clipPath clipPathUnits="userSpaceOnUse" id="clipPath109-8"><path d="M 0,5198.318 H 1920 V 0 H 0 Z" transform="translate(-1569.2895,-3565.7154)" id="path109-4"></path></clipPath><clipPath clipPathUnits="userSpaceOnUse" id="clipPath111-8"><path d="M 0,5198.318 H 1920 V 0 H 0 Z" transform="translate(0,-2.5e-5)" id="path111-0"></path></clipPath><clipPath clipPathUnits="userSpaceOnUse" id="clipPath113-4"><path d="M 0,5198.318 H 1920 V 0 H 0 Z" transform="translate(-1566.4468,-3635.1827)" id="path113-6"></path></clipPath><clipPath clipPathUnits="userSpaceOnUse" id="clipPath115-0"><path d="M 0,5198.318 H 1920 V 0 H 0 Z" transform="translate(-1629.6771,-3623.4625)" id="path115-3"></path></clipPath><clipPath clipPathUnits="userSpaceOnUse" id="clipPath117-2"><path d="M 0,5198.318 H 1920 V 0 H 0 Z" transform="translate(-1622.7406,-3623.2879)" id="path117-6"></path></clipPath><clipPath clipPathUnits="userSpaceOnUse" id="clipPath119-9"><path d="M 0,5198.318 H 1920 V 0 H 0 Z" transform="translate(-1607.9094,-3623.4625)" id="path119-4"></path></clipPath><clipPath clipPathUnits="userSpaceOnUse" id="clipPath121-1"><path d="M 0,5198.318 H 1920 V 0 H 0 Z" transform="translate(-1618.7934,-3609.6417)" id="path121-3"></path></clipPath></defs><g inkscape:label="Capa 1" inkscape:groupmode="layer" id="layer1" transform="translate(212.72501,-119.40446)"><g id="group-MC3" transform="matrix(0.26458333,0,0,0.26458333,-237.05725,-414.30459)"><path id="path47" d="m 0,0 c 0,-26.721 -21.662,-48.384 -48.384,-48.384 -26.721,0 -48.383,21.663 -48.383,48.384 0,26.722 21.662,48.384 48.383,48.384 C -21.662,48.384 0,26.722 0,0" style="fill:#e3faed;fill-opacity:1;fill-rule:nonzero;stroke:none" transform="matrix(1.3333333,0,0,-1.3333333,226.68933,2081.6801)" clip-path="url(#clipPath48-3)"></path><path id="path80" d="m 0,0 h 15.178 v -75.179 c 0,-9.794 -7.94,-17.733 -17.734,-17.733 h -34.301 c -9.794,0 -17.733,7.939 -17.733,17.733 V 0 h 14.786" style="fill:none;stroke:#023a2b;stroke-width:1;stroke-linecap:butt;stroke-linejoin:miter;stroke-miterlimit:10;stroke-dasharray:none;stroke-opacity:1" transform="matrix(1.3333333,0,0,-1.3333333,165.41771,2019.7384)" clip-path="url(#clipPath81-0)"></path><path id="path82" d="m 0,0 v -22.956 c 0,-4.919 -3.988,-8.908 -8.908,-8.908 h -21.988 c -4.92,0 -8.908,3.989 -8.908,8.908 V 0.21" style="fill:none;stroke:#023a2b;stroke-width:1;stroke-linecap:butt;stroke-linejoin:miter;stroke-miterlimit:10;stroke-dasharray:none;stroke-opacity:1" transform="matrix(1.3333333,0,0,-1.3333333,165.41771,2020.018)" clip-path="url(#clipPath83-9)"></path><path id="path84" d="m 0,0 -5.142,-8.906 c -0.598,-1.035 -0.243,-2.359 0.792,-2.957 l 1.469,-0.856 c 0.394,-0.229 0.843,-0.351 1.299,-0.351 H 8.41 v 4.578 H 0.429" style="fill:none;stroke:#023a2b;stroke-width:1;stroke-linecap:butt;stroke-linejoin:miter;stroke-miterlimit:10;stroke-dasharray:none;stroke-opacity:1" transform="matrix(1.3333333,0,0,-1.3333333,122.18252,2106.1912)" clip-path="url(#clipPath85-6)"></path><path id="path86" d="M 0,0 -2.499,1.451 5.299,4.385 6.615,-3.842 4.018,-2.333" style="fill:none;stroke:#023a2b;stroke-width:1;stroke-linecap:butt;stroke-linejoin:miter;stroke-miterlimit:10;stroke-dasharray:none;stroke-opacity:1" transform="matrix(1.3333333,0,0,-1.3333333,122.17972,2106.196)" clip-path="url(#clipPath87-7)"></path><path id="path88" d="m 0,0 c -0.122,0.517 -0.054,1.081 0.232,1.577 l 5.273,9.114" style="fill:none;stroke:#023a2b;stroke-width:1;stroke-linecap:butt;stroke-linejoin:miter;stroke-miterlimit:10;stroke-dasharray:none;stroke-opacity:1" transform="matrix(1.3333333,0,0,-1.3333333,120.08282,2123.5062)" clip-path="url(#clipPath89-2)"></path><path id="path90" d="m 0,0 10.284,-0.031 c 1.195,-0.004 2.167,0.962 2.171,2.157 l 0.012,1.7 C 12.47,4.282 12.352,4.732 12.125,5.128 L 7.155,13.796 3.184,11.52 7.154,4.596" style="fill:none;stroke:#023a2b;stroke-width:1;stroke-linecap:butt;stroke-linejoin:miter;stroke-miterlimit:10;stroke-dasharray:none;stroke-opacity:1" transform="matrix(1.3333333,0,0,-1.3333333,147.81062,2122.9328)" clip-path="url(#clipPath91-0)"></path><path id="path92" d="M 0,0 -0.016,-2.89 -6.44,2.416 0.043,7.65 0.026,4.646" style="fill:none;stroke:#023a2b;stroke-width:1;stroke-linecap:butt;stroke-linejoin:miter;stroke-miterlimit:10;stroke-dasharray:none;stroke-opacity:1" transform="matrix(1.3333333,0,0,-1.3333333,147.81622,2122.9328)" clip-path="url(#clipPath93-9)"></path><path id="path94" d="m 0,0 c -0.388,-0.363 -0.911,-0.584 -1.484,-0.583 l -10.529,0.041" style="fill:none;stroke:#023a2b;stroke-width:1;stroke-linecap:butt;stroke-linejoin:miter;stroke-miterlimit:10;stroke-dasharray:none;stroke-opacity:1" transform="matrix(1.3333333,0,0,-1.3333333,163.87661,2116.1426)" clip-path="url(#clipPath95-9)"></path><path id="path96" d="M 0,0 -5.471,8.708 C -6.107,9.72 -7.443,10.025 -8.455,9.389 L -9.898,8.491 c -0.388,-0.242 -0.704,-0.582 -0.918,-0.985 l -4.669,-8.834 4.047,-2.139 3.73,7.056" style="fill:none;stroke:#023a2b;stroke-width:1;stroke-linecap:butt;stroke-linejoin:miter;stroke-miterlimit:10;stroke-dasharray:none;stroke-opacity:1" transform="matrix(1.3333333,0,0,-1.3333333,149.60012,2092.1313)" clip-path="url(#clipPath97-7)"></path><path id="path98" d="m 0,0 2.451,1.531 -1.05,-8.265 -7.889,2.681 2.548,1.591" style="fill:none;stroke:#023a2b;stroke-width:1;stroke-linecap:butt;stroke-linejoin:miter;stroke-miterlimit:10;stroke-dasharray:none;stroke-opacity:1" transform="matrix(1.3333333,0,0,-1.3333333,149.59722,2092.1264)" clip-path="url(#clipPath99-3)"></path><path id="path100" d="M 0,0 C 0.514,-0.134 0.981,-0.457 1.286,-0.943 L 6.88,-9.863" style="fill:none;stroke:#023a2b;stroke-width:1;stroke-linecap:butt;stroke-linejoin:miter;stroke-miterlimit:10;stroke-dasharray:none;stroke-opacity:1" transform="matrix(1.3333333,0,0,-1.3333333,135.27292,2082.1837)" clip-path="url(#clipPath101-5)"></path></g></g></svg>