<svg xmlns:inkscape="http://www.inkscape.org/namespaces/inkscape" xmlns:sodipodi="http://sodipodi.sourceforge.net/DTD/sodipodi-0.dtd" xmlns="http://www.w3.org/2000/svg" xmlns:svg="http://www.w3.org/2000/svg" width="121.08961mm" height="114.75882mm" viewBox="0 0 121.08961 114.75882" id="svg1" inkscape:version="1.3.2 (091e20e, 2023-11-25)" sodipodi:docname="reciclar.svg"><defs id="defs1"><clipPath clipPathUnits="userSpaceOnUse" id="clipPath48"><path d="M 0,5926.671 H 1920 V 0 H 0 Z" transform="translate(-500.01442,-4964.526)" id="path48"></path></clipPath><clipPath clipPathUnits="userSpaceOnUse" id="clipPath50"><path d="M 0,5926.671 H 1920 V 0 H 0 Z" transform="translate(-452.80021,-4952.2218)" id="path50"></path></clipPath><clipPath clipPathUnits="userSpaceOnUse" id="clipPath52"><path d="M 0,5926.671 H 1920 V 0 H 0 Z" transform="translate(-229.216,-4896.2486)" id="path52"></path></clipPath><clipPath clipPathUnits="userSpaceOnUse" id="clipPath54"><path d="M 0,5926.671 H 1920 V 0 H 0 Z" transform="translate(-239.48451,-4943.9469)" id="path54"></path></clipPath><clipPath clipPathUnits="userSpaceOnUse" id="clipPath56"><path d="M 0,5926.671 H 1920 V 0 H 0 Z" transform="translate(-303.55371,-5156.7795)" id="path56"></path></clipPath><clipPath clipPathUnits="userSpaceOnUse" id="clipPath58"><path d="M 0,5926.671 H 1920 V 0 H 0 Z" transform="translate(-337.09241,-5121.3429)" id="path58"></path></clipPath><clipPath clipPathUnits="userSpaceOnUse" id="clipPath48-5"><path d="M 0,5926.671 H 1920 V 0 H 0 Z" transform="translate(-500.01442,-4964.526)" id="path48-7"></path></clipPath><clipPath clipPathUnits="userSpaceOnUse" id="clipPath50-6"><path d="M 0,5926.671 H 1920 V 0 H 0 Z" transform="translate(-452.80021,-4952.2218)" id="path50-2"></path></clipPath><clipPath clipPathUnits="userSpaceOnUse" id="clipPath52-7"><path d="M 0,5926.671 H 1920 V 0 H 0 Z" transform="translate(-229.216,-4896.2486)" id="path52-0"></path></clipPath><clipPath clipPathUnits="userSpaceOnUse" id="clipPath54-3"><path d="M 0,5926.671 H 1920 V 0 H 0 Z" transform="translate(-239.48451,-4943.9469)" id="path54-9"></path></clipPath><clipPath clipPathUnits="userSpaceOnUse" id="clipPath56-9"><path d="M 0,5926.671 H 1920 V 0 H 0 Z" transform="translate(-303.55371,-5156.7795)" id="path56-9"></path></clipPath><clipPath clipPathUnits="userSpaceOnUse" id="clipPath58-1"><path d="M 0,5926.671 H 1920 V 0 H 0 Z" transform="translate(-337.09241,-5121.3429)" id="path58-7"></path></clipPath></defs><g inkscape:label="Capa 1" inkscape:groupmode="layer" id="layer1" transform="translate(-27.516667,-130.43959)"><path id="path47" d="m 0,0 c 0,0 -18.456,-18.027 -54.511,-18.027 h -40.347 v 16.423 c 0,4.418 -5.603,6.32 -8.292,2.815 l -41.913,-54.625 c -1.274,-1.66 -1.274,-3.969 0,-5.629 l 41.913,-54.624 c 2.689,-3.506 8.292,-1.604 8.292,2.814 v 17.712 h 27.47 C -12.876,-93.141 0.858,-35.625 0,0" style="fill:#49a52e;fill-opacity:1;fill-rule:nonzero;stroke:none" transform="matrix(0.35277776,0,0,-0.35277776,144.16252,204.45758)" clip-path="url(#clipPath48)"></path><path id="path49" d="m 0,0 -36.842,73.685 c -2.108,4.216 -0.467,9.344 3.697,11.552 l 55.674,29.528 c 4.178,2.216 9.36,0.684 11.656,-3.452 C 39.974,100.885 50.472,81.878 56.657,70.106 65.528,53.224 58.374,7.154 0,0" style="fill:#007a18;fill-opacity:1;fill-rule:nonzero;stroke:none" transform="matrix(0.35277776,0,0,-0.35277776,127.5064,208.79823)" clip-path="url(#clipPath50)"></path><path id="path51" d="m 0,0 c 0,0 -7.788,24.596 8.443,56.79 8.326,16.514 14.307,28.377 18.164,36.027 l 14.665,-7.393 c 3.945,-1.989 8.166,2.158 6.246,6.138 l -29.907,62.016 c -0.909,1.884 -2.971,2.924 -5.027,2.534 L -55.06,143.279 c -4.341,-0.824 -5.165,-6.683 -1.22,-8.673 l 15.816,-7.973 C -43.24,121.126 -47.242,113.189 -52.831,102.104 -77.372,53.429 -32.197,15.271 0,0" style="fill:#49a52e;fill-opacity:1;fill-rule:nonzero;stroke:none" transform="matrix(0.35277776,0,0,-0.35277776,48.630858,228.54432)" clip-path="url(#clipPath52)"></path><path id="path53" d="m 0,0 82.382,-0.274 c 4.713,-0.016 8.553,-3.79 8.651,-8.503 l 1.302,-63.006 c 0.097,-4.728 -3.603,-8.665 -8.329,-8.854 C 72.087,-81.111 50.39,-81.929 37.093,-82.152 18.025,-82.472 -19.892,-55.345 0,0" style="fill:#007a18;fill-opacity:1;fill-rule:nonzero;stroke:none" transform="matrix(0.35277776,0,0,-0.35277776,52.253359,211.71743)" clip-path="url(#clipPath54)"></path><path id="path55" d="m 0,0 c 0,0 24.691,-7.481 42.07,-39.071 8.914,-16.203 15.318,-27.844 19.448,-35.351 l -14.39,-7.916 c -3.871,-2.13 -2.836,-7.955 1.531,-8.622 l 68.063,-10.393 c 2.068,-0.315 4.091,0.797 4.932,2.714 l 27.658,63.052 c 1.774,4.046 -2.593,8.038 -6.464,5.908 l -15.518,-8.537 c -2.973,5.403 -7.258,13.192 -13.241,24.069 C 87.814,33.613 30.8,17.924 0,0" style="fill:#49a52e;fill-opacity:1;fill-rule:nonzero;stroke:none" transform="matrix(0.35277776,0,0,-0.35277776,74.855548,136.63485)" clip-path="url(#clipPath56)"></path><path id="path57" d="m 0,0 -46.802,-67.797 c -2.677,-3.879 -7.961,-4.913 -11.904,-2.329 l -52.706,34.547 c -3.955,2.593 -5.111,7.871 -2.594,11.876 6.347,10.099 17.939,28.458 25.272,39.552 C -78.218,31.758 -34.405,47.697 0,0" style="fill:#007a18;fill-opacity:1;fill-rule:nonzero;stroke:none" transform="matrix(0.35277776,0,0,-0.35277776,86.687254,149.13607)" clip-path="url(#clipPath58)"></path></g></svg>