<svg xmlns="http://www.w3.org/2000/svg" xmlns:xlink="http://www.w3.org/1999/xlink" xmlns:serif="http://www.serif.com/" width="100%" height="100%" viewBox="0 0 16 16" xml:space="preserve" style="fill-rule:evenodd;clip-rule:evenodd;stroke-linejoin:round;stroke-miterlimit:2;">    <g transform="matrix(1,0,0,1,-104,-75)">        <g>            <path d="M111.5,76L111.5,90C111.5,90.276 111.724,90.5 112,90.5C112.276,90.5 112.5,90.276 112.5,90L112.5,76C112.5,75.724 112.276,75.5 112,75.5C111.724,75.5 111.5,75.724 111.5,76Z"></path>            <path d="M105,83.5L119,83.5C119.276,83.5 119.5,83.276 119.5,83C119.5,82.724 119.276,82.5 119,82.5L105,82.5C104.724,82.5 104.5,82.724 104.5,83C104.5,83.276 104.724,83.5 105,83.5Z"></path>        </g>    </g></svg>