<svg xmlns="http://www.w3.org/2000/svg" xmlns:xlink="http://www.w3.org/1999/xlink" xmlns:serif="http://www.serif.com/" width="100%" height="100%" viewBox="0 0 19 19" xml:space="preserve" style="fill-rule:evenodd;clip-rule:evenodd;stroke-linejoin:round;stroke-miterlimit:2;">    <g transform="matrix(1,0,0,1,-12,-134)">        <g>            <path d="M15,134.5C14.337,134.5 13.701,134.764 13.232,135.232C12.763,135.701 12.5,136.337 12.5,137C12.5,137.01 12.5,137.02 12.501,137.03C12.745,141.053 14.454,144.847 17.303,147.697C17.303,147.697 17.303,147.697 17.303,147.697C20.153,150.546 23.947,152.255 27.97,152.499C27.98,152.5 27.99,152.5 28,152.5C28.663,152.5 29.299,152.236 29.768,151.768C30.237,151.299 30.5,150.663 30.5,150C30.5,150 30.5,146 30.5,146C30.5,145.796 30.376,145.612 30.186,145.536L25.186,143.536C24.958,143.445 24.698,143.532 24.571,143.743L23.313,145.839C21.562,144.878 20.122,143.438 19.161,141.687C19.161,141.687 21.257,140.429 21.257,140.429C21.468,140.302 21.555,140.042 21.464,139.814L19.464,134.814C19.388,134.624 19.204,134.5 19,134.5L15,134.5ZM15,135.5C14.602,135.5 14.221,135.658 13.939,135.94C13.661,136.217 13.504,136.593 13.5,136.991C13.735,140.762 15.338,144.318 18.01,146.989C20.684,149.662 24.242,151.267 28.022,151.5C28.412,151.494 28.785,151.336 29.061,151.06C29.342,150.779 29.5,150.397 29.5,150C29.5,150 29.5,146.339 29.5,146.339C29.5,146.339 25.21,144.622 25.21,144.622L23.929,146.757C23.795,146.98 23.512,147.064 23.279,146.948C21.009,145.829 19.171,143.992 18.052,141.721C17.936,141.488 18.02,141.205 18.243,141.071C18.243,141.071 20.378,139.79 20.378,139.79C20.378,139.79 18.661,135.5 18.661,135.5L15,135.5Z"></path>        </g>    </g></svg>