<svg xmlns="http://www.w3.org/2000/svg" xmlns:xlink="http://www.w3.org/1999/xlink" xmlns:serif="http://www.serif.com/" width="100%" height="100%" viewBox="0 0 14 16" xml:space="preserve" style="fill-rule:evenodd;clip-rule:evenodd;stroke-linejoin:round;stroke-miterlimit:2;">    <g transform="matrix(1,0,0,1,-45,-43)">        <g>            <path d="M51.5,44L51.5,58C51.5,58.276 51.724,58.5 52,58.5C52.276,58.5 52.5,58.276 52.5,58L52.5,44C52.5,43.724 52.276,43.5 52,43.5C51.724,43.5 51.5,43.724 51.5,44Z"></path>            <path d="M58.354,49.646L52.354,43.646C52.158,43.451 51.842,43.451 51.646,43.646C51.451,43.842 51.451,44.158 51.646,44.354L57.646,50.354C57.842,50.549 58.158,50.549 58.354,50.354C58.549,50.158 58.549,49.842 58.354,49.646Z"></path>            <path d="M46.354,50.354L52.354,44.354C52.549,44.158 52.549,43.842 52.354,43.646C52.158,43.451 51.842,43.451 51.646,43.646L45.646,49.646C45.451,49.842 45.451,50.158 45.646,50.354C45.842,50.549 46.158,50.549 46.354,50.354Z"></path>        </g>    </g></svg>