<svg xmlns="http://www.w3.org/2000/svg" xmlns:xlink="http://www.w3.org/1999/xlink" xmlns:serif="http://www.serif.com/" width="100%" height="100%" viewBox="0 0 4 18" xml:space="preserve" style="fill-rule:evenodd;clip-rule:evenodd;stroke-linejoin:round;stroke-miterlimit:2;">    <g transform="matrix(1,0,0,1,-107,-135)">        <g>            <path d="M109,145.5C109.828,145.5 110.5,144.828 110.5,144C110.5,143.172 109.828,142.5 109,142.5C108.172,142.5 107.5,143.172 107.5,144C107.5,144.828 108.172,145.5 109,145.5ZM109,144.5C108.724,144.5 108.5,144.276 108.5,144C108.5,143.724 108.724,143.5 109,143.5C109.276,143.5 109.5,143.724 109.5,144C109.5,144.276 109.276,144.5 109,144.5Z"></path>            <path d="M109,152.5C109.828,152.5 110.5,151.828 110.5,151C110.5,150.172 109.828,149.5 109,149.5C108.172,149.5 107.5,150.172 107.5,151C107.5,151.828 108.172,152.5 109,152.5ZM109,151.5C108.724,151.5 108.5,151.276 108.5,151C108.5,150.724 108.724,150.5 109,150.5C109.276,150.5 109.5,150.724 109.5,151C109.5,151.276 109.276,151.5 109,151.5Z"></path>            <path d="M109,138.5C109.828,138.5 110.5,137.828 110.5,137C110.5,136.172 109.828,135.5 109,135.5C108.172,135.5 107.5,136.172 107.5,137C107.5,137.828 108.172,138.5 109,138.5ZM109,137.5C108.724,137.5 108.5,137.276 108.5,137C108.5,136.724 108.724,136.5 109,136.5C109.276,136.5 109.5,136.724 109.5,137C109.5,137.276 109.276,137.5 109,137.5Z"></path>        </g>    </g></svg>