<svg xmlns="http://www.w3.org/2000/svg" xmlns:xlink="http://www.w3.org/1999/xlink" xmlns:serif="http://www.serif.com/" width="100%" height="100%" viewBox="0 0 20 20" xml:space="preserve" style="fill-rule:evenodd;clip-rule:evenodd;stroke-linejoin:round;stroke-miterlimit:2;">    <g transform="matrix(1,0,0,1,-150,-23)">        <g>            <g transform="matrix(1,0,0,1,148.341,21.1081)">                <path d="M3,12.5L4,12.5C4.276,12.5 4.5,12.276 4.5,12C4.5,11.724 4.276,11.5 4,11.5L3,11.5C2.724,11.5 2.5,11.724 2.5,12C2.5,12.276 2.724,12.5 3,12.5ZM20,12.5L21,12.5C21.276,12.5 21.5,12.276 21.5,12C21.5,11.724 21.276,11.5 21,11.5L20,11.5C19.724,11.5 19.5,11.724 19.5,12C19.5,12.276 19.724,12.5 20,12.5ZM5.246,5.954L5.946,6.654C6.142,6.849 6.458,6.849 6.654,6.654C6.849,6.458 6.849,6.142 6.654,5.946L5.954,5.246C5.758,5.051 5.442,5.051 5.246,5.246C5.051,5.442 5.051,5.758 5.246,5.954ZM18.046,5.246L17.346,5.946C17.151,6.142 17.151,6.458 17.346,6.654C17.542,6.849 17.858,6.849 18.054,6.654L18.754,5.954C18.949,5.758 18.949,5.442 18.754,5.246C18.558,5.051 18.242,5.051 18.046,5.246ZM11.5,3L11.5,4C11.5,4.276 11.724,4.5 12,4.5C12.276,4.5 12.5,4.276 12.5,4L12.5,3C12.5,2.724 12.276,2.5 12,2.5C11.724,2.5 11.5,2.724 11.5,3Z"></path>            </g>            <g transform="matrix(1,0,0,1,148.341,21.1081)">                <path d="M8.669,16.376C9.333,17.046 9.644,17.992 9.505,18.927C9.502,18.951 9.5,18.975 9.5,19C9.5,20.371 10.629,21.5 12,21.5C13.371,21.5 14.5,20.371 14.5,19C14.5,18.975 14.498,18.951 14.495,18.927C14.357,17.995 14.665,17.051 15.326,16.381C16.695,15.339 17.5,13.718 17.5,12C17.5,8.983 15.017,6.5 12,6.5C8.983,6.5 6.5,8.983 6.5,12C6.5,13.717 7.304,15.337 8.669,16.376ZM9.359,15.651C10.249,16.537 10.671,17.791 10.5,19.038C10.521,19.843 11.19,20.5 12,20.5C12.812,20.5 13.481,19.841 13.5,19.036C13.327,17.79 13.753,16.531 14.648,15.645C14.664,15.629 14.682,15.614 14.7,15.6C15.832,14.751 16.5,13.415 16.5,12C16.5,9.531 14.469,7.5 12,7.5C9.531,7.5 7.5,9.531 7.5,12C7.5,13.415 8.168,14.751 9.3,15.6L9.314,15.611L9.32,15.616L9.333,15.627L9.339,15.633L9.357,15.65L9.359,15.651Z"></path>            </g>            <g transform="matrix(1,0,0,1,148.341,21.1081)">                <path d="M9.7,17.5L14.3,17.5C14.576,17.5 14.8,17.276 14.8,17C14.8,16.724 14.576,16.5 14.3,16.5L9.7,16.5C9.424,16.5 9.2,16.724 9.2,17C9.2,17.276 9.424,17.5 9.7,17.5Z"></path>            </g>        </g>    </g></svg>