<svg xmlns="http://www.w3.org/2000/svg" xmlns:xlink="http://www.w3.org/1999/xlink" xmlns:serif="http://www.serif.com/" width="100%" height="100%" viewBox="0 0 12 12" xml:space="preserve" style="fill-rule:evenodd;clip-rule:evenodd;stroke-linejoin:round;stroke-miterlimit:2;">    <g transform="matrix(1,0,0,1,-16,-45)">        <g>            <path d="M26.646,45.646L16.646,55.646C16.451,55.842 16.451,56.158 16.646,56.354C16.842,56.549 17.158,56.549 17.354,56.354L27.354,46.354C27.549,46.158 27.549,45.842 27.354,45.646C27.158,45.451 26.842,45.451 26.646,45.646Z"></path>            <path d="M18,46.5L26.5,46.5C26.5,46.5 26.5,55 26.5,55C26.5,55.276 26.724,55.5 27,55.5C27.276,55.5 27.5,55.276 27.5,55L27.5,46C27.5,45.724 27.276,45.5 27,45.5L18,45.5C17.724,45.5 17.5,45.724 17.5,46C17.5,46.276 17.724,46.5 18,46.5Z"></path>        </g>    </g></svg>