<svg xmlns="http://www.w3.org/2000/svg" xmlns:xlink="http://www.w3.org/1999/xlink" xmlns:serif="http://www.serif.com/" width="100%" height="100%" viewBox="0 0 20 20" xml:space="preserve" style="fill-rule:evenodd;clip-rule:evenodd;stroke-linejoin:round;stroke-miterlimit:2;">    <g transform="matrix(1,0,0,1,-12,-101)">        <g>            <path d="M22,120.5C27.247,120.5 31.5,116.247 31.5,111C31.5,105.753 27.247,101.5 22,101.5C16.753,101.5 12.5,105.753 12.5,111C12.5,116.247 16.753,120.5 22,120.5ZM22,119.5C17.306,119.5 13.5,115.695 13.5,111C13.5,106.305 17.306,102.5 22,102.5C26.694,102.5 30.5,106.305 30.5,111C30.5,115.695 26.694,119.5 22,119.5Z"></path>            <path d="M18.646,111.354L20.646,113.354C20.842,113.549 21.158,113.549 21.354,113.354L25.354,109.354C25.549,109.158 25.549,108.842 25.354,108.646C25.158,108.451 24.842,108.451 24.646,108.646L21,112.293C21,112.293 19.354,110.646 19.354,110.646C19.158,110.451 18.842,110.451 18.646,110.646C18.451,110.842 18.451,111.158 18.646,111.354Z"></path>        </g>    </g></svg>