<svg xmlns="http://www.w3.org/2000/svg" xmlns:xlink="http://www.w3.org/1999/xlink" xmlns:serif="http://www.serif.com/" width="100%" height="100%" viewBox="0 0 20 20" xml:space="preserve" style="fill-rule:evenodd;clip-rule:evenodd;stroke-linejoin:round;stroke-miterlimit:2;">    <g transform="matrix(1,0,0,1,-148,-72)">        <g>            <g transform="matrix(1,0,0,1,145.795,70.4731)">                <path d="M12,2.5C6.757,2.5 2.5,6.757 2.5,12C2.5,17.243 6.757,21.5 12,21.5C17.243,21.5 21.5,17.243 21.5,12C21.5,6.757 17.243,2.5 12,2.5ZM12,3.5C16.691,3.5 20.5,7.309 20.5,12C20.5,16.691 16.691,20.5 12,20.5C7.309,20.5 3.5,16.691 3.5,12C3.5,7.309 7.309,3.5 12,3.5Z"></path>            </g>            <g transform="matrix(1,0,0,1,145.795,70.4731)">                <path d="M12,11.293L10.354,9.646C10.158,9.451 9.842,9.451 9.646,9.646C9.451,9.842 9.451,10.158 9.646,10.354L11.293,12L9.646,13.646C9.451,13.842 9.451,14.158 9.646,14.354C9.842,14.549 10.158,14.549 10.354,14.354L12,12.707L13.646,14.354C13.842,14.549 14.158,14.549 14.354,14.354C14.549,14.158 14.549,13.842 14.354,13.646L12.707,12L14.354,10.354C14.549,10.158 14.549,9.842 14.354,9.646C14.158,9.451 13.842,9.451 13.646,9.646L12,11.293Z"></path>            </g>        </g>    </g></svg>