<svg xmlns="http://www.w3.org/2000/svg" xmlns:xlink="http://www.w3.org/1999/xlink" xmlns:serif="http://www.serif.com/" width="100%" height="100%" viewBox="0 0 15 18" xml:space="preserve" style="fill-rule:evenodd;clip-rule:evenodd;stroke-linejoin:round;stroke-miterlimit:2;">    <g transform="matrix(1,0,0,1,-145,-43)">        <g transform="matrix(1,0,0,1,139.344,40.1193)">            <path d="M7.262,3.574C7.108,3.479 6.914,3.475 6.756,3.564C6.598,3.652 6.5,3.819 6.5,4L6.5,20C6.5,20.181 6.598,20.348 6.756,20.436C6.914,20.525 7.108,20.521 7.262,20.426L20.262,12.426C20.41,12.335 20.5,12.174 20.5,12C20.5,11.826 20.41,11.665 20.262,11.574L7.262,3.574ZM7.5,4.895L19.046,12C19.046,12 7.5,19.105 7.5,19.105L7.5,4.895Z"></path>        </g>    </g></svg>