<svg xmlns="http://www.w3.org/2000/svg" xmlns:xlink="http://www.w3.org/1999/xlink" xmlns:serif="http://www.serif.com/" width="100%" height="100%" viewBox="0 0 16 14" xml:space="preserve" style="fill-rule:evenodd;clip-rule:evenodd;stroke-linejoin:round;stroke-miterlimit:2;">    <g transform="matrix(1,0,0,1,-68,-44)">        <g>            <path d="M69,51.5L83,51.5C83.276,51.5 83.5,51.276 83.5,51C83.5,50.724 83.276,50.5 83,50.5L69,50.5C68.724,50.5 68.5,50.724 68.5,51C68.5,51.276 68.724,51.5 69,51.5Z"></path>            <path d="M77.354,57.354L83.354,51.354C83.549,51.158 83.549,50.842 83.354,50.646C83.158,50.451 82.842,50.451 82.646,50.646L76.646,56.646C76.451,56.842 76.451,57.158 76.646,57.354C76.842,57.549 77.158,57.549 77.354,57.354Z"></path>            <path d="M76.646,45.354L82.646,51.354C82.842,51.549 83.158,51.549 83.354,51.354C83.549,51.158 83.549,50.842 83.354,50.646L77.354,44.646C77.158,44.451 76.842,44.451 76.646,44.646C76.451,44.842 76.451,45.158 76.646,45.354Z"></path>        </g>    </g></svg>