<svg xmlns="http://www.w3.org/2000/svg" xmlns:xlink="http://www.w3.org/1999/xlink" xmlns:serif="http://www.serif.com/" width="100%" height="100%" viewBox="0 0 20 16" xml:space="preserve" style="fill-rule:evenodd;clip-rule:evenodd;stroke-linejoin:round;stroke-miterlimit:2;">    <g transform="matrix(1,0,0,1,-102,-11)">        <g>            <path d="M119,11.5L105,11.5C103.619,11.5 102.5,12.619 102.5,14C102.5,14 102.5,24 102.5,24C102.5,25.381 103.619,26.5 105,26.5C105,26.5 119,26.5 119,26.5C120.381,26.5 121.5,25.381 121.5,24L121.5,14C121.5,12.619 120.381,11.5 119,11.5ZM119,12.5C119.829,12.5 120.5,13.172 120.5,14C120.5,14 120.5,24 120.5,24C120.5,24.828 119.829,25.5 119,25.5L105,25.5C104.171,25.5 103.5,24.828 103.5,24L103.5,14C103.5,13.172 104.171,12.5 105,12.5C105,12.5 119,12.5 119,12.5Z"></path>            <path d="M102.723,14.416L111.723,20.416C111.891,20.528 112.109,20.528 112.277,20.416L121.277,14.416C121.507,14.263 121.569,13.952 121.416,13.723C121.263,13.493 120.952,13.431 120.723,13.584L112,19.399C112,19.399 103.277,13.584 103.277,13.584C103.048,13.431 102.737,13.493 102.584,13.723C102.431,13.952 102.493,14.263 102.723,14.416Z"></path>        </g>    </g></svg>