<svg xmlns="http://www.w3.org/2000/svg" width="512" height="512" viewBox="0 0 512 512" fill="none"><g clip-path="url(#clip0_6_527)"><path d="M467 182H391V98.787L292.213 0H121V182H45C20.187 182 0 202.187 0 227V347C0 371.813 20.187 392 45 392H121V512H151V392H181V482H211V392H241V512H271V392H301V482H331V392H361V512H391V392H467C491.813 392 512 371.813 512 347V227C512 202.187 491.813 182 467 182ZM301 51.213L339.787 90H301V51.213ZM151 30H271V120H361V182H151V30ZM151 362V332H181V362H151ZM211 362V332H241V362H211ZM271 362V332H301V362H271ZM331 362V332H361V362H331ZM482 347C482 355.271 475.271 362 467 362H391V332H421V302H91V332H121V362H45C36.729 362 30 355.271 30 347V227C30 218.729 36.729 212 45 212H467C475.271 212 482 218.729 482 227V347Z" fill="black"></path><path d="M421 242H451V272H421V242Z" fill="black"></path><path d="M361 242H391V272H361V242Z" fill="black"></path></g><defs><clipPath id="clip0_6_527"><rect width="512" height="512" fill="white"></rect></clipPath></defs></svg>