<svg xmlns="http://www.w3.org/2000/svg" width="512" height="512" viewBox="0 0 512 512" fill="none"><g clip-path="url(#clip0_6_532)"><path d="M451 210V75C451 33.645 417.355 0 376 0H331V60H271V150H181V0H136C94.645 0 61 33.645 61 75V210H0V422V437V512H512V437V422V210H451ZM376 30C400.813 30 421 50.187 421 75V90H391V120H421V150H391V180H421V210H361V30H376ZM331 90V210H301V90H331ZM271 180V210H181V180H271ZM91 180H121V150H91V120H121V90H91V75C91 50.187 111.187 30 136 30H151V210H91V180ZM482 482H30V452H76C100.813 452 121 431.813 121 407V390.321L113.511 385.989C99.626 377.957 91 363.017 91 347C91 322.187 111.187 302 136 302C160.813 302 181 322.187 181 347C181 363.017 172.374 377.957 158.489 385.989L151 390.321V407C151 431.813 171.187 452 196 452H286C310.813 452 331 431.813 331 407V390.321L323.511 385.989C309.626 377.957 301 363.017 301 347C301 322.187 321.187 302 346 302C370.813 302 391 322.187 391 347C391 363.017 382.374 377.957 368.489 385.989L361 390.321V407C361 431.813 381.187 452 406 452H482V482ZM406 422C397.729 422 391 415.271 391 407C409.695 392.937 421 370.676 421 347C421 305.645 387.355 272 346 272C304.645 272 271 305.645 271 347C271 370.677 282.305 392.937 301 407C301 415.271 294.271 422 286 422H196C187.729 422 181 415.271 181 407C199.695 392.937 211 370.676 211 347C211 305.645 177.355 272 136 272C94.645 272 61 305.645 61 347C61 370.677 72.305 392.937 91 407C91 415.271 84.271 422 76 422H30V240H482V422H406Z" fill="black"></path></g><defs><clipPath id="clip0_6_532"><rect width="512" height="512" fill="white"></rect></clipPath></defs></svg>