<svg xmlns="http://www.w3.org/2000/svg" width="512" height="512" viewBox="0 0 512 512" fill="none"><path d="M451 45V0H61V45C61 62.221 70.722 77.213 84.967 84.775C69.247 121.736 61 161.93 61 202.081V309.918C61 350.07 69.247 390.265 84.967 427.225C70.722 434.787 61 449.779 61 467V512H451V467C451 449.779 441.278 434.787 427.033 427.225C442.753 390.264 451 350.069 451 309.917V202.081C451 161.93 442.753 121.736 427.033 84.776C441.278 77.213 451 62.221 451 45ZM421 45C421 53.271 414.271 60 406 60C391.742 60 345.744 60 331 60V90H396.544C412.562 125.023 421 163.574 421 202.081V309.918C421 348.426 412.562 386.977 396.544 422.001H331V452.001H406C414.271 452.001 421 458.73 421 467.001V482.001H91V467.001C91 458.73 97.729 452.001 106 452.001H181V422.001H115.456C99.437 386.976 91 348.425 91 309.917V202.081C91 163.575 99.437 125.024 115.456 90H181V60C166.247 60 120.278 60 106 60C97.729 60 91 53.271 91 45V30H421V45Z" fill="black"></path><path d="M151 165C151 206.355 184.645 240 226 240H241V272H226C201.187 272 181 292.187 181 317V362H331V317C331 292.187 310.813 272 286 272H271V240H286C327.355 240 361 206.355 361 165V150H316C291.492 150 269.695 161.818 256 180.052C242.305 161.818 220.508 150 196 150H151V165ZM301 317V332H211V317C211 308.729 217.729 302 226 302H286C294.271 302 301 308.729 301 317ZM316 180H328.43C322.239 197.461 305.556 210 286 210H273.57C279.761 192.539 296.444 180 316 180ZM196 180C215.556 180 232.239 192.539 238.43 210H226C206.444 210 189.761 197.461 183.57 180H196Z" fill="black"></path><path d="M211 422H301V452H211V422Z" fill="black"></path><path d="M211 60H301V90H211V60Z" fill="black"></path></svg>