<svg xmlns="http://www.w3.org/2000/svg" width="512" height="512" viewBox="0 0 512 512" fill="none"><path d="M301 377C301 385.271 294.271 392 286 392C277.729 392 271 385.271 271 377V302C267.98 302 243.965 302 241 302C241 318.858 232.634 334.053 219.168 341.656C195.625 354.948 181 379.986 181 407C181 429.035 190.634 449.866 207.432 464.152C221.079 475.759 238.337 481.985 256.142 481.984C260.239 481.984 264.368 481.654 268.485 480.984C304.125 475.187 331 442 331 403.79V362H301V377ZM263.668 451.374C250.158 453.569 237.09 449.994 226.867 441.299C216.784 432.723 211 420.221 211 407C211 390.789 219.782 375.76 233.917 367.779C236.383 366.387 238.742 364.843 241 363.177V377C241 401.813 261.187 422 286 422C290.266 422 294.39 421.39 298.304 420.276C292.882 436.392 279.778 448.753 263.668 451.374Z" fill="black"></path><path d="M301 302H331V332H301V302Z" fill="black"></path><path d="M421 482V249.5L301 159.5V92H271V77C271 68.729 277.729 62 286 62C310.813 62 331 41.813 331 17V0H301V17C301 25.271 294.271 32 286 32C261.187 32 241 52.187 241 77V92H211V159.5L91 249.5V482H61V512H451V482H421ZM281 182L361 242H151L231 182H281ZM271 122V152H241V122H271ZM121 482V272H391V482H121Z" fill="black"></path></svg>