<svg xmlns="http://www.w3.org/2000/svg" width="512" height="512" viewBox="0 0 512 512" fill="none"><path d="M212 166C212 174.271 205.271 181 197 181H105C96.729 181 90 174.271 90 166V61H0V376C0 417.355 33.645 451 75 451H227C268.355 451 302 417.355 302 376V61H212V166ZM242 166V91H272V376C272 400.813 251.813 421 227 421H75C50.187 421 30 400.813 30 376V91H60V166C60 190.813 80.187 211 105 211H197C221.813 211 242 190.813 242 166Z" fill="black"></path><path d="M512 208.426C512 196.406 507.319 185.106 498.82 176.607L473.213 151H482V61H362V151H370.787L345.18 176.607C336.68 185.106 332 196.406 332 208.426V226C332 237.515 336.347 248.033 343.486 256C336.347 263.967 332 274.485 332 286V316C332 327.515 336.347 338.033 343.486 346C336.347 353.967 332 364.485 332 376V406C332 430.813 352.187 451 377 451H467C491.813 451 512 430.813 512 406V376C512 364.485 507.653 353.967 500.514 346C507.653 338.033 512 327.515 512 316V286C512 274.485 507.653 263.967 500.514 256C507.653 248.033 512 237.515 512 226V208.426ZM392 91H452V121H392V91ZM482 226C482 234.271 475.271 241 467 241H452V271H467C475.271 271 482 277.729 482 286V316C482 324.271 475.271 331 467 331H452V361H467C475.271 361 482 367.729 482 376V406C482 414.271 475.271 421 467 421H377C368.729 421 362 414.271 362 406V376C362 367.729 368.729 361 377 361H392V331H377C368.729 331 362 324.271 362 316V286C362 277.729 368.729 271 377 271H392V241H377C368.729 241 362 234.271 362 226V208.426C362 204.42 363.56 200.653 366.393 197.82L413.213 151H430.787L477.607 197.82C480.44 200.653 482 204.42 482 208.426V226Z" fill="black"></path><path d="M90 361H212V391H90V361Z" fill="black"></path></svg>