<svg xmlns="http://www.w3.org/2000/svg" width="512" height="512" viewBox="0 0 512 512" fill="none"><g clip-path="url(#clip0_6_660)"><path d="M245.324 424.229L290.318 379.236L311.528 400.446L266.534 445.439L245.324 424.229Z" fill="black"></path><path d="M335.318 370.458L356.528 349.248L401.522 394.242L380.312 415.452L335.318 370.458Z" fill="black"></path><path d="M414.697 434.852L435.907 413.642L457.117 434.852L435.907 456.062L414.697 434.852Z" fill="black"></path><path d="M54.7393 404.816L75.9493 383.606L97.1593 404.816L75.9493 426.026L54.7393 404.816Z" fill="black"></path><path d="M180.999 359.851L150.999 359.853L151 389.852H121V419.852H159.788L185.393 445.458L206.607 424.245L181.001 398.638L180.999 359.851Z" fill="black"></path><path d="M466.121 313.927C469.782 306.72 472.85 299.233 475.25 291.51C494.438 229.776 461.773 186.642 432.953 148.586C431.151 146.207 429.349 143.828 427.559 141.444C418.756 129.723 420.306 116.047 424.692 107.156C427.188 102.097 434.762 90.313 451.151 90.147L451 60.147C409.052 60.147 373.716 88.992 363.785 127.89C357 119.209 349.549 110.883 342.176 102.644C320.999 78.982 300.998 56.634 300.998 30.147H270.998V135.147C270.998 143.418 264.269 150.147 255.998 150.147C247.727 150.147 240.998 143.418 240.998 135.147V90.147C240.998 40.521 200.624 0.146973 150.998 0.146973L150.846 30.147C167.236 30.313 174.809 42.097 177.305 47.156C181.691 56.047 183.241 69.722 174.438 81.444C172.987 83.377 171.529 85.307 170.071 87.238C161.821 98.166 153.477 109.217 146.086 120.801C133.89 85.541 100.353 60.147 60.998 60.147L60.846 90.147C77.236 90.313 84.809 102.097 87.305 107.156C91.691 116.047 93.241 129.722 84.438 141.444C82.647 143.829 80.844 146.211 79.041 148.591C50.223 186.646 17.561 229.778 36.749 291.508C39.149 299.232 42.218 306.718 45.879 313.925C21.525 324.038 10.421 330.269 0 336.008V511.852H512V336.008C502.773 330.927 491.976 324.662 466.121 313.927ZM65.396 282.606C49.93 232.85 77.764 200.282 108.426 159.46C113.766 152.35 117.411 144.358 119.314 136.008C120.414 140.544 120.997 145.28 120.997 150.149V195.149C120.997 197.769 121.573 199.753 121.85 200.708L121.881 200.814C121.827 200.625 121.647 199.933 121.562 198.974L151.5 197.299C150.601 159.93 175.567 129.899 198.426 99.461C203.766 92.351 207.411 84.359 209.314 76.009C210.414 80.545 210.997 85.281 210.997 90.15V135.15C210.997 159.963 231.184 180.15 255.997 180.15C280.81 180.15 300.997 159.963 300.997 135.15V100.91C307.009 108.339 313.442 115.528 319.819 122.653C340.877 146.182 360.772 168.411 360.995 194.702V195.168H376.022L390.093 200.285L390.998 197.792V150.149C390.998 145.28 391.581 140.544 392.681 136.008C394.585 144.358 398.23 152.35 403.57 159.46C434.23 200.277 462.067 232.846 446.6 282.607C444.398 289.694 441.492 296.539 437.949 303.074C435.702 302.273 433.418 301.469 431.075 300.665C390.143 286.608 326.539 269.852 256 269.852C185.46 269.852 121.857 286.608 80.923 300.665C78.581 301.469 76.296 302.273 74.049 303.075C70.505 296.54 67.599 289.695 65.396 282.606ZM482 481.852H30V354.023C56.662 340.923 148.823 299.851 256 299.851C363.184 299.851 455.351 340.929 482 354.022V481.852Z" fill="black"></path></g><defs><clipPath id="clip0_6_660"><rect width="512" height="512" fill="white"></rect></clipPath></defs></svg>