<svg xmlns:inkscape="http://www.inkscape.org/namespaces/inkscape" xmlns:sodipodi="http://sodipodi.sourceforge.net/DTD/sodipodi-0.dtd" xmlns="http://www.w3.org/2000/svg" xmlns:svg="http://www.w3.org/2000/svg" width="62.598705mm" height="21.287762mm" viewBox="0 0 62.598705 21.287762" id="svg1" inkscape:version="1.3.2 (091e20e, 2023-11-25)" sodipodi:docname="footer.svg"><defs id="defs1"><clipPath clipPathUnits="userSpaceOnUse" id="clipPath223"><path d="M 0,3716.034 H 1920 V 0 H 0 Z" transform="translate(-127.2469,-422.45084)" id="path223"></path></clipPath><clipPath clipPathUnits="userSpaceOnUse" id="clipPath221"><path d="M 0,3716.034 H 1920 V 0 H 0 Z" transform="translate(-94.404002,-441.45389)" id="path221"></path></clipPath><clipPath clipPathUnits="userSpaceOnUse" id="clipPath219"><path d="M 0,3716.034 H 1920 V 0 H 0 Z" transform="translate(-246.99111,-427.15334)" id="path219"></path></clipPath><clipPath clipPathUnits="userSpaceOnUse" id="clipPath217"><path d="M 0,3716.034 H 1920 V 0 H 0 Z" transform="translate(-234.289,-426.90434)" id="path217"></path></clipPath><clipPath clipPathUnits="userSpaceOnUse" id="clipPath215"><path d="M 0,3716.034 H 1920 V 0 H 0 Z" transform="translate(-209.8495,-432.22851)" id="path215"></path></clipPath><clipPath clipPathUnits="userSpaceOnUse" id="clipPath213"><path d="M 0,3716.034 H 1920 V 0 H 0 Z" transform="translate(-186.5917,-426.90434)" id="path213"></path></clipPath><clipPath clipPathUnits="userSpaceOnUse" id="clipPath211"><path d="M 0,3716.034 H 1920 V 0 H 0 Z" transform="translate(-157.2636,-427.15334)" id="path211"></path></clipPath><clipPath clipPathUnits="userSpaceOnUse" id="clipPath209"><path d="M 0,3716.034 H 1920 V 0 H 0 Z" transform="translate(-203.95111,-399.08691)" id="path209"></path></clipPath><clipPath clipPathUnits="userSpaceOnUse" id="clipPath207"><path d="M 0,3716.034 H 1920 V 0 H 0 Z" transform="translate(-199.578,-398.09571)" id="path207"></path></clipPath><clipPath clipPathUnits="userSpaceOnUse" id="clipPath205"><path d="M 0,3716.034 H 1920 V 0 H 0 Z" transform="translate(-194.85051,-398.09571)" id="path205"></path></clipPath><clipPath clipPathUnits="userSpaceOnUse" id="clipPath203"><path d="M 0,3716.034 H 1920 V 0 H 0 Z" transform="translate(0,2.5e-5)" id="path203"></path></clipPath><clipPath clipPathUnits="userSpaceOnUse" id="clipPath201"><path d="M 0,3716.034 H 1920 V 0 H 0 Z" transform="translate(-186.2958,-398.09571)" id="path201"></path></clipPath><clipPath clipPathUnits="userSpaceOnUse" id="clipPath199"><path d="M 0,3716.034 H 1920 V 0 H 0 Z" transform="translate(-181.5234,-401.21684)" id="path199"></path></clipPath><clipPath clipPathUnits="userSpaceOnUse" id="clipPath197"><path d="M 0,3716.034 H 1920 V 0 H 0 Z" transform="translate(-173.36811,-398.19823)" id="path197"></path></clipPath><clipPath clipPathUnits="userSpaceOnUse" id="clipPath195"><path d="M 0,3716.034 H 1920 V 0 H 0 Z" transform="translate(-166.36221,-399.08691)" id="path195"></path></clipPath><clipPath clipPathUnits="userSpaceOnUse" id="clipPath193"><path d="M 0,3716.034 H 1920 V 0 H 0 Z" transform="translate(-158.5605,-395.88568)" id="path193"></path></clipPath><clipPath clipPathUnits="userSpaceOnUse" id="clipPath191"><path d="M 0,3716.034 H 1920 V 0 H 0 Z" transform="translate(-260.34561,-412.75581)" id="path191"></path></clipPath><clipPath clipPathUnits="userSpaceOnUse" id="clipPath189"><path d="M 0,3716.034 H 1920 V 0 H 0 Z" transform="translate(-253.44331,-411.86721)" id="path189"></path></clipPath><clipPath clipPathUnits="userSpaceOnUse" id="clipPath187"><path d="M 0,3716.034 H 1920 V 0 H 0 Z" transform="translate(-250.93741,-411.86721)" id="path187"></path></clipPath><clipPath clipPathUnits="userSpaceOnUse" id="clipPath185"><path d="M 0,3716.034 H 1920 V 0 H 0 Z" transform="translate(-243.23721,-412.79001)" id="path185"></path></clipPath><clipPath clipPathUnits="userSpaceOnUse" id="clipPath183"><path d="M 0,3716.034 H 1920 V 0 H 0 Z" transform="translate(-238.23631,-414.88574)" id="path183"></path></clipPath><clipPath clipPathUnits="userSpaceOnUse" id="clipPath181"><path d="M 0,3716.034 H 1920 V 0 H 0 Z" transform="translate(-231.00381,-411.76461)" id="path181"></path></clipPath><clipPath clipPathUnits="userSpaceOnUse" id="clipPath179"><path d="M 0,3716.034 H 1920 V 0 H 0 Z" transform="translate(-222.10731,-412.75581)" id="path179"></path></clipPath><clipPath clipPathUnits="userSpaceOnUse" id="clipPath177"><path d="M 0,3716.034 H 1920 V 0 H 0 Z" transform="translate(-214.30561,-409.55474)" id="path177"></path></clipPath><clipPath clipPathUnits="userSpaceOnUse" id="clipPath175"><path d="M 0,3716.034 H 1920 V 0 H 0 Z" transform="translate(-207.58491,-410.13569)" id="path175"></path></clipPath><clipPath clipPathUnits="userSpaceOnUse" id="clipPath173"><path d="M 0,3716.034 H 1920 V 0 H 0 Z" transform="translate(-204.04191,-412.75581)" id="path173"></path></clipPath><clipPath clipPathUnits="userSpaceOnUse" id="clipPath171"><path d="M 0,3716.034 H 1920 V 0 H 0 Z" transform="translate(-197.3671,-412.79001)" id="path171"></path></clipPath><clipPath clipPathUnits="userSpaceOnUse" id="clipPath169"><path d="M 0,3716.034 H 1920 V 0 H 0 Z" transform="translate(0,2.5e-5)" id="path169"></path></clipPath><clipPath clipPathUnits="userSpaceOnUse" id="clipPath167"><path d="M 0,3716.034 H 1920 V 0 H 0 Z" transform="translate(-188.7226,-411.76461)" id="path167"></path></clipPath><clipPath clipPathUnits="userSpaceOnUse" id="clipPath165"><path d="M 0,3716.034 H 1920 V 0 H 0 Z" transform="translate(-183.94911,-414.88574)" id="path165"></path></clipPath><clipPath clipPathUnits="userSpaceOnUse" id="clipPath163"><path d="M 0,3716.034 H 1920 V 0 H 0 Z" transform="translate(-176.0214,-412.79001)" id="path163"></path></clipPath><clipPath clipPathUnits="userSpaceOnUse" id="clipPath161"><path d="M 0,3716.034 H 1920 V 0 H 0 Z" transform="translate(-166.5448,-412.75581)" id="path161"></path></clipPath><clipPath clipPathUnits="userSpaceOnUse" id="clipPath159"><path d="M 0,3716.034 H 1920 V 0 H 0 Z" transform="translate(-160.1659,-411.86721)" id="path159"></path></clipPath></defs><g inkscape:label="Capa 1" inkscape:groupmode="layer" id="layer1" transform="translate(-73.81875,-137.58333)"><path id="path158" d="M 0,0 V 3.075 L -2.802,7.939 H -1.48 L 0.547,4.237 2.62,7.939 H 3.93 L 1.162,3.075 V 0 Z" style="fill:#e76621;fill-opacity:1;fill-rule:nonzero;stroke:none" transform="matrix(0.35277776,0,0,-0.35277776,99.922166,152.75192)" clip-path="url(#clipPath159)"></path><path id="path160" d="m 0,0 c 0.334,0 0.625,0.079 0.872,0.239 0.246,0.159 0.437,0.383 0.569,0.672 0.133,0.288 0.2,0.626 0.2,1.014 0,0.394 -0.067,0.736 -0.2,1.025 C 1.309,3.238 1.118,3.461 0.872,3.616 0.625,3.771 0.334,3.85 0,3.85 -0.342,3.85 -0.636,3.771 -0.883,3.61 -1.129,3.451 -1.319,3.229 -1.452,2.944 -1.585,2.659 -1.651,2.319 -1.651,1.925 -1.651,1.537 -1.585,1.199 -1.452,0.911 -1.319,0.622 -1.129,0.398 -0.883,0.239 -0.636,0.079 -0.342,0 0,0 m 0,-0.991 c -0.531,0 -1.006,0.125 -1.424,0.376 -0.418,0.251 -0.746,0.595 -0.985,1.036 -0.239,0.44 -0.359,0.941 -0.359,1.504 0,0.561 0.118,1.061 0.353,1.498 0.235,0.436 0.564,0.78 0.985,1.03 0.422,0.251 0.899,0.376 1.43,0.376 0.539,0 1.014,-0.125 1.424,-0.376 C 1.834,4.203 2.159,3.859 2.398,3.423 2.637,2.986 2.757,2.486 2.757,1.925 2.757,1.362 2.637,0.863 2.398,0.427 2.159,-0.01 1.832,-0.355 1.418,-0.609 1.005,-0.864 0.531,-0.991 0,-0.991" style="fill:#e76621;fill-opacity:1;fill-rule:nonzero;stroke:none" transform="matrix(0.35277776,0,0,-0.35277776,102.1725,152.43844)" clip-path="url(#clipPath161)"></path><path id="path162" d="M 0,0 C 0.327,0 0.609,0.079 0.849,0.239 1.088,0.398 1.274,0.62 1.407,0.905 1.54,1.19 1.606,1.519 1.606,1.891 1.606,2.263 1.54,2.591 1.407,2.876 1.274,3.161 1.088,3.381 0.849,3.536 0.609,3.692 0.327,3.771 0,3.771 -0.318,3.771 -0.6,3.692 -0.843,3.536 -1.086,3.381 -1.273,3.161 -1.406,2.876 -1.539,2.591 -1.605,2.263 -1.605,1.891 -1.605,1.519 -1.539,1.19 -1.406,0.905 -1.273,0.62 -1.086,0.398 -0.843,0.239 -0.6,0.079 -0.318,0 0,0 m -0.228,-1.025 c -0.508,0 -0.949,0.127 -1.321,0.381 -0.372,0.254 -0.663,0.604 -0.871,1.048 -0.209,0.445 -0.313,0.94 -0.313,1.487 0,0.599 0.112,1.116 0.336,1.548 0.223,0.434 0.525,0.768 0.905,1.003 0.38,0.236 0.802,0.353 1.264,0.353 0.334,0 0.64,-0.068 0.917,-0.205 C 0.967,4.453 1.2,4.264 1.39,4.021 1.58,3.777 1.713,3.493 1.789,3.166 L 1.504,3.075 v 3.942 h 1.104 v -7.94 H 1.504 v 1.617 l 0.33,-0.01 C 1.735,0.318 1.587,0.009 1.39,-0.245 1.192,-0.5 0.955,-0.693 0.678,-0.826 0.4,-0.959 0.099,-1.025 -0.228,-1.025" style="fill:#e76621;fill-opacity:1;fill-rule:nonzero;stroke:none" transform="matrix(0.35277776,0,0,-0.35277776,105.51563,152.42637)" clip-path="url(#clipPath163)"></path><path id="path164" d="m 0,0 c 0.016,0.061 0.024,0.121 0.028,0.183 0.004,0.06 0.006,0.121 0.006,0.181 0,0.175 -0.03,0.346 -0.091,0.513 -0.06,0.167 -0.152,0.317 -0.273,0.45 -0.121,0.133 -0.272,0.239 -0.45,0.319 -0.178,0.08 -0.385,0.12 -0.62,0.12 -0.312,0 -0.578,-0.071 -0.798,-0.211 C -2.418,1.414 -2.587,1.23 -2.705,1.002 -2.823,0.774 -2.893,0.527 -2.916,0.262 h 3.281 z m -1.344,-3.121 c -0.456,0 -0.85,0.076 -1.184,0.227 -0.334,0.153 -0.612,0.364 -0.832,0.633 -0.22,0.27 -0.385,0.577 -0.495,0.922 -0.111,0.346 -0.166,0.708 -0.166,1.088 0,0.38 0.053,0.746 0.16,1.1 0.106,0.353 0.265,0.668 0.478,0.945 0.213,0.277 0.481,0.497 0.803,0.661 0.323,0.163 0.705,0.244 1.145,0.244 0.441,0 0.82,-0.073 1.139,-0.221 C 0.023,2.329 0.285,2.124 0.49,1.862 0.695,1.601 0.849,1.306 0.951,0.979 1.054,0.653 1.105,0.308 1.105,-0.057 1.105,-0.095 1.104,-0.165 1.1,-0.268 1.096,-0.37 1.086,-0.467 1.071,-0.559 h -3.975 c 0.022,-0.501 0.176,-0.886 0.461,-1.155 0.285,-0.27 0.663,-0.405 1.133,-0.405 0.32,0 0.604,0.052 0.855,0.154 0.25,0.103 0.481,0.264 0.694,0.485 L 0.923,-2.188 C 0.702,-2.407 0.477,-2.586 0.245,-2.723 0.014,-2.859 -0.229,-2.96 -0.483,-3.024 -0.738,-3.089 -1.024,-3.121 -1.344,-3.121" style="fill:#e76621;fill-opacity:1;fill-rule:nonzero;stroke:none" transform="matrix(0.35277776,0,0,-0.35277776,108.31235,151.68705)" clip-path="url(#clipPath165)"></path><path id="path166" d="m 0,0 c -0.426,0 -0.803,0.078 -1.134,0.233 -0.33,0.156 -0.607,0.371 -0.831,0.644 -0.224,0.273 -0.393,0.585 -0.507,0.935 -0.114,0.348 -0.171,0.716 -0.171,1.104 0,0.38 0.057,0.744 0.171,1.094 0.114,0.348 0.283,0.66 0.507,0.933 0.224,0.274 0.501,0.489 0.831,0.644 C -0.803,5.743 -0.426,5.82 0,5.82 0.547,5.82 1.023,5.687 1.43,5.422 1.836,5.156 2.134,4.754 2.323,4.215 L 1.344,3.839 C 1.245,4.135 1.086,4.378 0.865,4.567 0.646,4.758 0.356,4.853 0,4.853 -0.35,4.853 -0.638,4.76 -0.866,4.573 -1.094,4.388 -1.261,4.148 -1.367,3.855 -1.474,3.563 -1.526,3.25 -1.526,2.916 -1.526,2.582 -1.474,2.267 -1.367,1.971 -1.261,1.675 -1.094,1.436 -0.866,1.253 -0.638,1.07 -0.35,0.979 0,0.979 c 0.356,0 0.646,0.093 0.865,0.28 0.221,0.185 0.38,0.43 0.479,0.734 L 2.323,1.617 C 2.134,1.07 1.836,0.664 1.43,0.398 1.023,0.133 0.547,0 0,0" style="fill:#e76621;fill-opacity:1;fill-rule:nonzero;stroke:none" transform="matrix(0.35277776,0,0,-0.35277776,109.99633,152.78811)" clip-path="url(#clipPath167)"></path><path id="path168" d="m 192.241,417.482 h 1.117 v -5.615 h -1.117 z m -0.079,2.325 h 1.265 v -1.355 h -1.265 z" style="fill:#e76621;fill-opacity:1;fill-rule:nonzero;stroke:none" transform="matrix(0.35277776,0,0,-0.35277776,43.419197,298.04952)" clip-path="url(#clipPath169)"></path><path id="path170" d="M 0,0 C 0.327,0 0.609,0.079 0.849,0.239 1.088,0.398 1.274,0.62 1.407,0.905 1.54,1.19 1.606,1.519 1.606,1.891 1.606,2.263 1.54,2.591 1.407,2.876 1.274,3.161 1.088,3.381 0.849,3.536 0.609,3.692 0.327,3.771 0,3.771 -0.318,3.771 -0.6,3.692 -0.843,3.536 -1.086,3.381 -1.273,3.161 -1.406,2.876 -1.539,2.591 -1.605,2.263 -1.605,1.891 -1.605,1.519 -1.539,1.19 -1.406,0.905 -1.273,0.62 -1.086,0.398 -0.843,0.239 -0.6,0.079 -0.318,0 0,0 m -0.228,-1.025 c -0.508,0 -0.949,0.127 -1.321,0.381 -0.372,0.254 -0.663,0.604 -0.871,1.048 -0.209,0.445 -0.313,0.94 -0.313,1.487 0,0.599 0.112,1.116 0.336,1.548 0.223,0.434 0.525,0.768 0.905,1.003 0.38,0.236 0.802,0.353 1.264,0.353 0.334,0 0.64,-0.068 0.917,-0.205 C 0.967,4.453 1.2,4.264 1.39,4.021 1.58,3.777 1.713,3.493 1.789,3.166 L 1.504,3.075 v 3.942 h 1.104 v -7.94 H 1.504 v 1.617 l 0.33,-0.01 C 1.735,0.318 1.587,0.009 1.39,-0.245 1.192,-0.5 0.955,-0.693 0.678,-0.826 0.4,-0.959 0.099,-1.025 -0.228,-1.025" style="fill:#e76621;fill-opacity:1;fill-rule:nonzero;stroke:none" transform="matrix(0.35277776,0,0,-0.35277776,113.04592,152.42637)" clip-path="url(#clipPath171)"></path><path id="path172" d="m 0,0 c 0.334,0 0.625,0.079 0.872,0.239 0.246,0.159 0.437,0.383 0.569,0.672 0.133,0.288 0.2,0.626 0.2,1.014 0,0.394 -0.067,0.736 -0.2,1.025 C 1.309,3.238 1.118,3.461 0.872,3.616 0.625,3.771 0.334,3.85 0,3.85 -0.342,3.85 -0.636,3.771 -0.883,3.61 -1.129,3.451 -1.319,3.229 -1.452,2.944 -1.585,2.659 -1.651,2.319 -1.651,1.925 -1.651,1.537 -1.585,1.199 -1.452,0.911 -1.319,0.622 -1.129,0.398 -0.883,0.239 -0.636,0.079 -0.342,0 0,0 m 0,-0.991 c -0.531,0 -1.006,0.125 -1.424,0.376 -0.418,0.251 -0.746,0.595 -0.985,1.036 -0.239,0.44 -0.359,0.941 -0.359,1.504 0,0.561 0.118,1.061 0.353,1.498 0.235,0.436 0.564,0.78 0.985,1.03 0.422,0.251 0.899,0.376 1.43,0.376 0.539,0 1.014,-0.125 1.424,-0.376 C 1.834,4.203 2.159,3.859 2.398,3.423 2.637,2.986 2.757,2.486 2.757,1.925 2.757,1.362 2.637,0.863 2.398,0.427 2.159,-0.01 1.832,-0.355 1.418,-0.609 1.005,-0.864 0.531,-0.991 0,-0.991" style="fill:#e76621;fill-opacity:1;fill-rule:nonzero;stroke:none" transform="matrix(0.35277776,0,0,-0.35277776,115.40065,152.43844)" clip-path="url(#clipPath173)"></path><path id="path174" d="M 0,0 0.968,3.44 H 2.21 L 0.752,0 Z" style="fill:#e76621;fill-opacity:1;fill-rule:nonzero;stroke:none" transform="matrix(0.35277776,0,0,-0.35277776,116.65054,153.36276)" clip-path="url(#clipPath175)"></path><path id="path176" d="m 0,0 1.093,2.643 -2.164,5.285 h 1.23 L 1.686,3.759 3.234,7.928 H 4.442 L 1.219,0 Z" style="fill:#e76621;fill-opacity:1;fill-rule:nonzero;stroke:none" transform="matrix(0.35277776,0,0,-0.35277776,119.02145,153.56771)" clip-path="url(#clipPath177)"></path><path id="path178" d="m 0,0 c 0.334,0 0.625,0.079 0.872,0.239 0.246,0.159 0.437,0.383 0.569,0.672 0.133,0.288 0.2,0.626 0.2,1.014 0,0.394 -0.067,0.736 -0.2,1.025 C 1.309,3.238 1.118,3.461 0.872,3.616 0.625,3.771 0.334,3.85 0,3.85 -0.342,3.85 -0.636,3.771 -0.883,3.61 -1.129,3.451 -1.319,3.229 -1.452,2.944 -1.585,2.659 -1.651,2.319 -1.651,1.925 -1.651,1.537 -1.585,1.199 -1.452,0.911 -1.319,0.622 -1.129,0.398 -0.883,0.239 -0.636,0.079 -0.342,0 0,0 m 0,-0.991 c -0.531,0 -1.006,0.125 -1.424,0.376 -0.418,0.251 -0.746,0.595 -0.985,1.036 -0.239,0.44 -0.359,0.941 -0.359,1.504 0,0.561 0.118,1.061 0.353,1.498 0.235,0.436 0.564,0.78 0.985,1.03 0.422,0.251 0.899,0.376 1.43,0.376 0.539,0 1.014,-0.125 1.424,-0.376 C 1.834,4.203 2.159,3.859 2.398,3.423 2.637,2.986 2.757,2.486 2.757,1.925 2.757,1.362 2.637,0.863 2.398,0.427 2.159,-0.01 1.832,-0.355 1.418,-0.609 1.005,-0.864 0.531,-0.991 0,-0.991" style="fill:#e76621;fill-opacity:1;fill-rule:nonzero;stroke:none" transform="matrix(0.35277776,0,0,-0.35277776,121.77372,152.43844)" clip-path="url(#clipPath179)"></path><path id="path180" d="m 0,0 c -0.395,0 -0.744,0.059 -1.048,0.177 -0.304,0.117 -0.563,0.269 -0.78,0.455 -0.216,0.186 -0.389,0.378 -0.518,0.575 l 0.763,0.661 c 0.145,-0.259 0.352,-0.48 0.621,-0.666 0.27,-0.186 0.594,-0.279 0.974,-0.279 0.334,0 0.597,0.07 0.792,0.211 0.193,0.139 0.29,0.324 0.29,0.552 0,0.182 -0.061,0.329 -0.182,0.438 C 0.79,2.234 0.631,2.325 0.434,2.397 0.235,2.47 0.02,2.532 -0.216,2.586 c -0.213,0.06 -0.43,0.129 -0.649,0.205 -0.221,0.075 -0.42,0.173 -0.598,0.29 -0.179,0.118 -0.323,0.27 -0.433,0.456 -0.11,0.186 -0.166,0.415 -0.166,0.689 0,0.478 0.185,0.864 0.553,1.156 0.368,0.293 0.857,0.438 1.464,0.438 C 0.388,5.82 0.782,5.731 1.14,5.553 1.496,5.374 1.773,5.11 1.971,4.762 L 1.276,4.226 C 1.124,4.477 0.929,4.659 0.689,4.772 0.45,4.887 0.19,4.943 -0.091,4.943 -0.356,4.943 -0.579,4.889 -0.757,4.778 -0.936,4.668 -1.024,4.519 -1.024,4.328 -1.024,4.191 -0.985,4.08 -0.905,3.992 -0.825,3.905 -0.7,3.829 -0.529,3.765 -0.358,3.7 -0.147,3.638 0.103,3.577 0.338,3.523 0.577,3.459 0.82,3.383 1.063,3.307 1.287,3.208 1.492,3.087 1.697,2.966 1.864,2.802 1.994,2.597 2.123,2.392 2.188,2.126 2.188,1.8 2.188,1.442 2.097,1.13 1.914,0.86 1.731,0.591 1.478,0.38 1.15,0.228 0.824,0.076 0.44,0 0,0" style="fill:#e76621;fill-opacity:1;fill-rule:nonzero;stroke:none" transform="matrix(0.35277776,0,0,-0.35277776,124.9122,152.78811)" clip-path="url(#clipPath181)"></path><path id="path182" d="m 0,0 c 0.016,0.061 0.024,0.121 0.028,0.183 0.004,0.06 0.006,0.121 0.006,0.181 0,0.175 -0.03,0.346 -0.091,0.513 -0.06,0.167 -0.152,0.317 -0.273,0.45 -0.121,0.133 -0.272,0.239 -0.45,0.319 -0.178,0.08 -0.385,0.12 -0.62,0.12 -0.312,0 -0.578,-0.071 -0.798,-0.211 C -2.418,1.414 -2.587,1.23 -2.705,1.002 -2.823,0.774 -2.893,0.527 -2.916,0.262 h 3.281 z m -1.344,-3.121 c -0.456,0 -0.85,0.076 -1.184,0.227 -0.334,0.153 -0.612,0.364 -0.832,0.633 -0.22,0.27 -0.385,0.577 -0.495,0.922 -0.111,0.346 -0.166,0.708 -0.166,1.088 0,0.38 0.053,0.746 0.16,1.1 0.106,0.353 0.265,0.668 0.478,0.945 0.213,0.277 0.481,0.497 0.803,0.661 0.323,0.163 0.705,0.244 1.145,0.244 0.441,0 0.82,-0.073 1.139,-0.221 C 0.023,2.329 0.285,2.124 0.49,1.862 0.695,1.601 0.849,1.306 0.951,0.979 1.054,0.653 1.105,0.308 1.105,-0.057 1.105,-0.095 1.104,-0.165 1.1,-0.268 1.096,-0.37 1.086,-0.467 1.071,-0.559 h -3.975 c 0.022,-0.501 0.176,-0.886 0.461,-1.155 0.285,-0.27 0.663,-0.405 1.133,-0.405 0.32,0 0.604,0.052 0.855,0.154 0.25,0.103 0.481,0.264 0.694,0.485 L 0.923,-2.188 C 0.702,-2.407 0.477,-2.586 0.245,-2.723 0.014,-2.859 -0.229,-2.96 -0.483,-3.024 -0.738,-3.089 -1.024,-3.121 -1.344,-3.121" style="fill:#e76621;fill-opacity:1;fill-rule:nonzero;stroke:none" transform="matrix(0.35277776,0,0,-0.35277776,127.46367,151.68705)" clip-path="url(#clipPath183)"></path><path id="path184" d="M 0,0 C 0.326,0 0.609,0.077 0.849,0.233 1.088,0.389 1.276,0.609 1.413,0.894 1.55,1.179 1.618,1.507 1.618,1.879 1.618,2.251 1.55,2.58 1.413,2.864 1.276,3.149 1.088,3.371 0.849,3.531 0.609,3.69 0.326,3.771 0,3.771 -0.318,3.771 -0.598,3.69 -0.837,3.531 -1.076,3.371 -1.263,3.149 -1.396,2.864 -1.528,2.58 -1.595,2.251 -1.595,1.879 c 0,-0.372 0.067,-0.7 0.199,-0.985 0.133,-0.285 0.32,-0.505 0.559,-0.661 C -0.598,0.077 -0.318,0 0,0 m -2.608,-3.246 v 7.938 h 1.116 V 3.075 l -0.319,0.103 c 0.099,0.372 0.245,0.676 0.439,0.911 0.193,0.235 0.427,0.412 0.7,0.53 0.274,0.117 0.577,0.176 0.911,0.176 0.501,0 0.94,-0.127 1.316,-0.381 C 1.931,4.159 2.222,3.812 2.427,3.371 2.632,2.931 2.734,2.434 2.734,1.879 2.734,1.287 2.624,0.772 2.403,0.336 2.184,-0.101 1.884,-0.437 1.504,-0.672 1.124,-0.908 0.702,-1.025 0.239,-1.025 c -0.334,0 -0.639,0.064 -0.917,0.193 -0.277,0.129 -0.51,0.31 -0.7,0.541 -0.19,0.231 -0.323,0.507 -0.398,0.826 l 0.284,0.159 v -3.94 z" style="fill:#e76621;fill-opacity:1;fill-rule:nonzero;stroke:none" transform="matrix(0.35277776,0,0,-0.35277776,129.22788,152.42637)" clip-path="url(#clipPath185)"></path><path id="path186" d="m 0,0 -0.091,1.036 v 2.495 c 0,0.395 -0.114,0.698 -0.342,0.911 -0.228,0.213 -0.558,0.32 -0.991,0.32 C -1.728,4.762 -2.019,4.7 -2.295,4.579 -2.572,4.457 -2.836,4.26 -3.087,3.986 l -0.694,0.718 c 0.334,0.35 0.704,0.606 1.11,0.77 0.406,0.163 0.849,0.244 1.327,0.244 0.751,0 1.334,-0.192 1.748,-0.575 C 0.818,4.76 1.025,4.222 1.025,3.531 V 0 Z m -1.812,-0.103 c -0.417,0 -0.785,0.077 -1.104,0.228 -0.319,0.152 -0.565,0.363 -0.74,0.633 -0.175,0.269 -0.262,0.582 -0.262,0.939 0,0.312 0.064,0.579 0.193,0.803 0.129,0.225 0.296,0.396 0.501,0.519 0.19,0.121 0.409,0.207 0.656,0.255 0.246,0.05 0.51,0.075 0.791,0.075 H 0.012 V 2.506 H -1.617 C -1.77,2.506 -1.927,2.492 -2.09,2.466 -2.254,2.439 -2.392,2.385 -2.506,2.301 -2.597,2.232 -2.669,2.147 -2.723,2.045 -2.775,1.942 -2.802,1.822 -2.802,1.686 c 0,-0.266 0.103,-0.479 0.308,-0.638 0.205,-0.159 0.477,-0.239 0.819,-0.239 0.289,0 0.553,0.066 0.792,0.199 0.239,0.133 0.431,0.315 0.575,0.547 0.145,0.231 0.217,0.496 0.217,0.792 L 0.308,1.822 C 0.239,1.428 0.106,1.084 -0.091,0.792 -0.289,0.499 -0.533,0.277 -0.826,0.125 -1.118,-0.026 -1.446,-0.103 -1.812,-0.103" style="fill:#e76621;fill-opacity:1;fill-rule:nonzero;stroke:none" transform="matrix(0.35277776,0,0,-0.35277776,131.94433,152.75192)" clip-path="url(#clipPath187)"></path><path id="path188" d="M 0,0 V 5.615 H 1.128 V 4.101 L 0.889,4.055 C 0.927,4.389 1.042,4.68 1.236,4.927 1.43,5.173 1.659,5.367 1.925,5.508 2.19,5.647 2.453,5.718 2.711,5.718 2.894,5.718 3.066,5.697 3.23,5.655 3.393,5.613 3.558,5.543 3.725,5.444 L 3.178,4.442 C 3.095,4.488 2.988,4.525 2.859,4.557 2.73,4.587 2.608,4.602 2.495,4.602 2.32,4.602 2.149,4.571 1.982,4.511 1.815,4.45 1.665,4.352 1.532,4.215 1.399,4.078 1.299,3.899 1.23,3.679 1.2,3.573 1.175,3.435 1.156,3.264 1.138,3.093 1.128,2.859 1.128,2.563 V 0 Z" style="fill:#e76621;fill-opacity:1;fill-rule:nonzero;stroke:none" transform="matrix(0.35277776,0,0,-0.35277776,132.82836,152.75192)" clip-path="url(#clipPath189)"></path><path id="path190" d="m 0,0 c 0.334,0 0.625,0.079 0.872,0.239 0.246,0.159 0.437,0.383 0.569,0.672 0.133,0.288 0.2,0.626 0.2,1.014 0,0.394 -0.067,0.736 -0.2,1.025 C 1.309,3.238 1.118,3.461 0.872,3.616 0.625,3.771 0.334,3.85 0,3.85 -0.342,3.85 -0.636,3.771 -0.883,3.61 -1.129,3.451 -1.319,3.229 -1.452,2.944 -1.585,2.659 -1.651,2.319 -1.651,1.925 -1.651,1.537 -1.585,1.199 -1.452,0.911 -1.319,0.622 -1.129,0.398 -0.883,0.239 -0.636,0.079 -0.342,0 0,0 m 0,-0.991 c -0.531,0 -1.006,0.125 -1.424,0.376 -0.418,0.251 -0.746,0.595 -0.985,1.036 -0.239,0.44 -0.359,0.941 -0.359,1.504 0,0.561 0.118,1.061 0.353,1.498 0.235,0.436 0.564,0.78 0.985,1.03 0.422,0.251 0.899,0.376 1.43,0.376 0.539,0 1.014,-0.125 1.424,-0.376 C 1.834,4.203 2.159,3.859 2.398,3.423 2.637,2.986 2.757,2.486 2.757,1.925 2.757,1.362 2.637,0.863 2.398,0.427 2.159,-0.01 1.832,-0.355 1.418,-0.609 1.005,-0.864 0.531,-0.991 0,-0.991" style="fill:#e76621;fill-opacity:1;fill-rule:nonzero;stroke:none" transform="matrix(0.35277776,0,0,-0.35277776,135.26334,152.43844)" clip-path="url(#clipPath191)"></path><path id="path192" d="m 0,0 1.093,2.643 -2.164,5.285 h 1.23 L 1.686,3.759 3.234,7.928 H 4.442 L 1.219,0 Z" style="fill:#e76621;fill-opacity:1;fill-rule:nonzero;stroke:none" transform="matrix(0.35277776,0,0,-0.35277776,99.355817,158.38984)" clip-path="url(#clipPath193)"></path><path id="path194" d="m 0,0 c 0.334,0 0.625,0.079 0.872,0.239 0.246,0.159 0.437,0.383 0.569,0.672 0.133,0.288 0.2,0.626 0.2,1.014 0,0.394 -0.067,0.736 -0.2,1.025 C 1.309,3.238 1.118,3.461 0.872,3.616 0.625,3.771 0.334,3.85 0,3.85 -0.342,3.85 -0.636,3.771 -0.883,3.61 -1.129,3.451 -1.319,3.229 -1.452,2.944 -1.585,2.659 -1.651,2.319 -1.651,1.925 -1.651,1.537 -1.585,1.199 -1.452,0.911 -1.319,0.622 -1.129,0.398 -0.883,0.239 -0.636,0.079 -0.342,0 0,0 m 0,-0.991 c -0.531,0 -1.006,0.125 -1.424,0.376 -0.418,0.251 -0.746,0.595 -0.985,1.036 -0.239,0.44 -0.359,0.941 -0.359,1.504 0,0.561 0.118,1.061 0.353,1.498 0.235,0.436 0.564,0.78 0.985,1.03 0.422,0.251 0.899,0.376 1.43,0.376 0.539,0 1.014,-0.125 1.424,-0.376 C 1.834,4.203 2.159,3.859 2.398,3.423 2.637,2.986 2.757,2.486 2.757,1.925 2.757,1.362 2.637,0.863 2.398,0.427 2.159,-0.01 1.832,-0.355 1.418,-0.609 1.005,-0.864 0.531,-0.991 0,-0.991" style="fill:#e76621;fill-opacity:1;fill-rule:nonzero;stroke:none" transform="matrix(0.35277776,0,0,-0.35277776,102.10808,157.26052)" clip-path="url(#clipPath195)"></path><path id="path196" d="M 0,0 V 5.615 H 1.128 V 4.101 L 0.889,4.055 C 0.927,4.389 1.042,4.68 1.236,4.927 1.43,5.173 1.659,5.367 1.925,5.508 2.19,5.647 2.453,5.718 2.711,5.718 2.894,5.718 3.066,5.697 3.229,5.655 3.393,5.613 3.558,5.543 3.725,5.444 L 3.178,4.442 C 3.095,4.488 2.988,4.525 2.859,4.557 2.73,4.587 2.608,4.602 2.495,4.602 2.32,4.602 2.149,4.571 1.982,4.511 1.815,4.45 1.665,4.352 1.532,4.215 1.399,4.078 1.299,3.899 1.23,3.679 1.2,3.573 1.175,3.435 1.156,3.264 1.138,3.093 1.128,2.859 1.128,2.563 V 0 Z" style="fill:#e76621;fill-opacity:1;fill-rule:nonzero;stroke:none" transform="matrix(0.35277776,0,0,-0.35277776,104.57961,157.57403)" clip-path="url(#clipPath197)"></path><path id="path198" d="m 0,0 c 0.016,0.061 0.024,0.121 0.028,0.183 0.004,0.06 0.006,0.121 0.006,0.181 0,0.175 -0.03,0.346 -0.091,0.513 -0.06,0.167 -0.152,0.317 -0.273,0.45 -0.121,0.133 -0.272,0.239 -0.45,0.319 -0.178,0.08 -0.385,0.12 -0.62,0.12 -0.312,0 -0.578,-0.071 -0.798,-0.211 C -2.418,1.414 -2.587,1.23 -2.705,1.002 -2.823,0.774 -2.893,0.527 -2.916,0.262 h 3.281 z m -1.344,-3.121 c -0.456,0 -0.85,0.076 -1.184,0.227 -0.334,0.153 -0.612,0.364 -0.832,0.633 -0.22,0.27 -0.385,0.577 -0.495,0.922 -0.111,0.346 -0.166,0.708 -0.166,1.088 0,0.38 0.053,0.746 0.16,1.1 0.106,0.353 0.265,0.668 0.478,0.945 0.213,0.277 0.481,0.497 0.803,0.661 0.323,0.163 0.705,0.244 1.145,0.244 0.441,0 0.82,-0.073 1.139,-0.221 C 0.023,2.329 0.285,2.124 0.49,1.862 0.695,1.601 0.849,1.306 0.951,0.979 1.054,0.653 1.105,0.308 1.105,-0.057 1.105,-0.095 1.104,-0.165 1.1,-0.268 1.096,-0.37 1.086,-0.467 1.071,-0.559 h -3.975 c 0.022,-0.501 0.176,-0.886 0.461,-1.155 0.285,-0.27 0.663,-0.405 1.133,-0.405 0.32,0 0.604,0.052 0.855,0.154 0.25,0.103 0.481,0.264 0.694,0.485 L 0.923,-2.188 C 0.702,-2.407 0.477,-2.586 0.245,-2.723 0.014,-2.859 -0.229,-2.96 -0.483,-3.024 -0.738,-3.089 -1.024,-3.121 -1.344,-3.121" style="fill:#e76621;fill-opacity:1;fill-rule:nonzero;stroke:none" transform="matrix(0.35277776,0,0,-0.35277776,107.45662,156.50913)" clip-path="url(#clipPath199)"></path><path id="path200" d="m 0,0 c -0.426,0 -0.803,0.078 -1.134,0.233 -0.33,0.156 -0.607,0.371 -0.831,0.644 -0.224,0.273 -0.393,0.585 -0.507,0.935 -0.114,0.348 -0.171,0.716 -0.171,1.104 0,0.38 0.057,0.744 0.171,1.094 0.114,0.348 0.283,0.66 0.507,0.933 0.224,0.274 0.501,0.489 0.831,0.644 C -0.803,5.743 -0.426,5.82 0,5.82 0.547,5.82 1.023,5.687 1.43,5.422 1.836,5.156 2.134,4.754 2.323,4.215 L 1.344,3.839 C 1.245,4.135 1.086,4.378 0.865,4.567 0.646,4.758 0.356,4.853 0,4.853 -0.35,4.853 -0.638,4.76 -0.866,4.573 -1.094,4.388 -1.261,4.148 -1.367,3.855 -1.474,3.563 -1.526,3.25 -1.526,2.916 -1.526,2.582 -1.474,2.267 -1.367,1.971 -1.261,1.675 -1.094,1.436 -0.866,1.253 -0.638,1.07 -0.35,0.979 0,0.979 c 0.356,0 0.646,0.093 0.865,0.28 0.221,0.185 0.38,0.43 0.479,0.734 L 2.323,1.617 C 2.134,1.07 1.836,0.664 1.43,0.398 1.023,0.133 0.547,0 0,0" style="fill:#e76621;fill-opacity:1;fill-rule:nonzero;stroke:none" transform="matrix(0.35277776,0,0,-0.35277776,109.14021,157.61019)" clip-path="url(#clipPath201)"></path><path id="path202" d="m 189.815,403.813 h 1.117 v -5.615 h -1.117 z m -0.079,2.325 h 1.265 v -1.355 h -1.265 z" style="fill:#e76621;fill-opacity:1;fill-rule:nonzero;stroke:none" transform="matrix(0.35277776,0,0,-0.35277776,43.419197,298.04952)" clip-path="url(#clipPath203)"></path><path id="path204" d="m 0,0 c -0.426,0 -0.803,0.078 -1.134,0.233 -0.33,0.156 -0.607,0.371 -0.831,0.644 -0.224,0.273 -0.393,0.585 -0.507,0.935 -0.114,0.348 -0.171,0.716 -0.171,1.104 0,0.38 0.057,0.744 0.171,1.094 0.114,0.348 0.283,0.66 0.507,0.933 0.224,0.274 0.501,0.489 0.831,0.644 C -0.803,5.743 -0.426,5.82 0,5.82 0.547,5.82 1.023,5.687 1.43,5.422 1.836,5.156 2.134,4.754 2.323,4.215 L 1.344,3.839 C 1.245,4.135 1.086,4.378 0.865,4.567 0.646,4.758 0.356,4.853 0,4.853 -0.35,4.853 -0.638,4.76 -0.866,4.573 -1.094,4.388 -1.261,4.148 -1.367,3.855 -1.474,3.563 -1.526,3.25 -1.526,2.916 -1.526,2.582 -1.474,2.267 -1.367,1.971 -1.261,1.675 -1.094,1.436 -0.866,1.253 -0.638,1.07 -0.35,0.979 0,0.979 c 0.356,0 0.646,0.093 0.865,0.28 0.221,0.185 0.38,0.43 0.479,0.734 L 2.323,1.617 C 2.134,1.07 1.836,0.664 1.43,0.398 1.023,0.133 0.547,0 0,0" style="fill:#e76621;fill-opacity:1;fill-rule:nonzero;stroke:none" transform="matrix(0.35277776,0,0,-0.35277776,112.15812,157.61019)" clip-path="url(#clipPath205)"></path><path id="path206" d="m 0,0 c -0.357,0 -0.649,0.11 -0.877,0.33 -0.228,0.221 -0.342,0.569 -0.342,1.048 v 6.664 h 1.105 V 1.595 c 0,-0.198 0.044,-0.34 0.131,-0.427 C 0.104,1.08 0.22,1.036 0.364,1.036 c 0.061,0 0.131,0.006 0.211,0.018 0.08,0.011 0.161,0.032 0.245,0.062 V 0.171 C 0.684,0.11 0.541,0.066 0.393,0.04 0.245,0.014 0.114,0 0,0" style="fill:#e76621;fill-opacity:1;fill-rule:nonzero;stroke:none" transform="matrix(0.35277776,0,0,-0.35277776,113.82588,157.61019)" clip-path="url(#clipPath207)"></path><path id="path208" d="m 0,0 c 0.334,0 0.625,0.079 0.872,0.239 0.246,0.159 0.437,0.383 0.569,0.672 0.133,0.288 0.2,0.626 0.2,1.014 0,0.394 -0.067,0.736 -0.2,1.025 C 1.309,3.238 1.118,3.461 0.872,3.616 0.625,3.771 0.334,3.85 0,3.85 -0.342,3.85 -0.636,3.771 -0.883,3.61 -1.129,3.451 -1.319,3.229 -1.452,2.944 -1.585,2.659 -1.651,2.319 -1.651,1.925 -1.651,1.537 -1.585,1.199 -1.452,0.911 -1.319,0.622 -1.129,0.398 -0.883,0.239 -0.636,0.079 -0.342,0 0,0 m 0,-0.991 c -0.531,0 -1.006,0.125 -1.424,0.376 -0.418,0.251 -0.746,0.595 -0.985,1.036 -0.239,0.44 -0.359,0.941 -0.359,1.504 0,0.561 0.118,1.061 0.353,1.498 0.235,0.436 0.564,0.78 0.985,1.03 0.422,0.251 0.899,0.376 1.43,0.376 0.539,0 1.014,-0.125 1.424,-0.376 C 1.834,4.203 2.159,3.859 2.398,3.423 2.637,2.986 2.757,2.486 2.757,1.925 2.757,1.362 2.637,0.863 2.398,0.427 2.159,-0.01 1.832,-0.355 1.418,-0.609 1.005,-0.864 0.531,-0.991 0,-0.991" style="fill:#e76621;fill-opacity:1;fill-rule:nonzero;stroke:none" transform="matrix(0.35277776,0,0,-0.35277776,115.36861,157.26052)" clip-path="url(#clipPath209)"></path><path id="path210" d="M 0,0 V 22.043 H 16.626 V 16.812 H 5.636 V 13.45 h 9.059 V 8.469 H 5.636 v -3.27 h 10.99 V 0 Z" style="fill:#ffffff;fill-opacity:1;fill-rule:nonzero;stroke:none" transform="matrix(0.35277776,0,0,-0.35277776,98.8983,147.35931)" clip-path="url(#clipPath211)"></path><path id="path212" d="m 0,0 c -2.283,0 -4.245,0.451 -5.885,1.354 -1.639,0.903 -2.895,2.19 -3.766,3.861 -0.872,1.671 -1.308,3.647 -1.308,5.931 0,2.345 0.451,4.375 1.355,6.086 0.902,1.713 2.167,3.031 3.797,3.955 1.629,0.923 3.535,1.385 5.713,1.385 1.723,0 3.295,-0.311 4.717,-0.934 1.422,-0.622 2.579,-1.557 3.472,-2.802 0.892,-1.245 1.422,-2.823 1.588,-4.732 H 4.358 c -0.249,0.996 -0.715,1.769 -1.4,2.319 -0.686,0.55 -1.641,0.825 -2.864,0.825 -1.309,0 -2.347,-0.291 -3.115,-0.872 -0.767,-0.581 -1.312,-1.317 -1.633,-2.21 -0.323,-0.893 -0.484,-1.816 -0.484,-2.771 0,-0.955 0.172,-1.899 0.515,-2.833 0.342,-0.934 0.902,-1.708 1.681,-2.32 0.778,-0.612 1.821,-0.918 3.129,-0.918 0.789,0 1.473,0.119 2.054,0.358 C 2.822,5.92 3.305,6.273 3.689,6.74 4.073,7.207 4.338,7.772 4.483,8.438 H 9.932 C 9.807,6.569 9.268,5.007 8.313,3.752 7.357,2.495 6.148,1.557 4.686,0.934 3.223,0.312 1.66,0 0,0" style="fill:#ffffff;fill-opacity:1;fill-rule:nonzero;stroke:none" transform="matrix(0.35277776,0,0,-0.35277776,109.2446,147.44715)" clip-path="url(#clipPath213)"></path><path id="path214" d="m 0,0 c 1.327,0 2.396,0.306 3.206,0.918 0.81,0.612 1.397,1.375 1.76,2.288 0.362,0.913 0.545,1.816 0.545,2.709 0,0.664 -0.1,1.344 -0.296,2.039 C 5.017,8.649 4.706,9.298 4.28,9.9 c -0.426,0.602 -0.991,1.09 -1.696,1.463 -0.706,0.374 -1.578,0.561 -2.615,0.561 -1.308,0 -2.366,-0.296 -3.176,-0.887 -0.81,-0.592 -1.401,-1.345 -1.774,-2.258 -0.374,-0.913 -0.561,-1.857 -0.561,-2.833 0,-0.975 0.191,-1.92 0.576,-2.833 C -4.582,2.199 -3.98,1.452 -3.16,0.871 -2.341,0.29 -1.288,0 0,0 m -0.125,-5.324 c -2.241,0 -4.203,0.467 -5.885,1.401 -1.68,0.934 -2.983,2.246 -3.907,3.939 -0.924,1.691 -1.385,3.658 -1.385,5.899 0,2.304 0.477,4.302 1.432,5.993 0.955,1.692 2.283,3.005 3.985,3.939 1.702,0.934 3.674,1.401 5.915,1.401 2.221,0 4.173,-0.457 5.854,-1.37 1.681,-0.913 2.999,-2.206 3.954,-3.876 0.954,-1.671 1.433,-3.648 1.433,-5.932 0,-2.241 -0.473,-4.217 -1.417,-5.93 C 8.909,-1.572 7.581,-2.911 5.868,-3.877 4.156,-4.842 2.158,-5.324 -0.125,-5.324" style="fill:#ffffff;fill-opacity:1;fill-rule:nonzero;stroke:none" transform="matrix(0.35277776,0,0,-0.35277776,117.44944,145.5689)" clip-path="url(#clipPath215)"></path><path id="path216" d="m 0,0 c -2.283,0 -4.245,0.451 -5.885,1.354 -1.639,0.903 -2.895,2.19 -3.766,3.861 -0.872,1.671 -1.308,3.647 -1.308,5.931 0,2.345 0.451,4.375 1.355,6.086 0.902,1.713 2.167,3.031 3.797,3.955 1.629,0.923 3.535,1.385 5.713,1.385 1.723,0 3.295,-0.311 4.717,-0.934 1.422,-0.622 2.579,-1.557 3.472,-2.802 0.892,-1.245 1.422,-2.823 1.588,-4.732 H 4.358 c -0.249,0.996 -0.715,1.769 -1.4,2.319 -0.686,0.55 -1.641,0.825 -2.864,0.825 -1.309,0 -2.347,-0.291 -3.115,-0.872 -0.767,-0.581 -1.312,-1.317 -1.633,-2.21 -0.323,-0.893 -0.484,-1.816 -0.484,-2.771 0,-0.955 0.172,-1.899 0.515,-2.833 0.342,-0.934 0.902,-1.708 1.681,-2.32 0.778,-0.612 1.821,-0.918 3.129,-0.918 0.789,0 1.473,0.119 2.054,0.358 C 2.822,5.92 3.305,6.273 3.689,6.74 4.073,7.207 4.338,7.772 4.483,8.438 H 9.932 C 9.807,6.569 9.268,5.007 8.313,3.752 7.357,2.495 6.148,1.557 4.686,0.934 3.223,0.312 1.66,0 0,0" style="fill:#ffffff;fill-opacity:1;fill-rule:nonzero;stroke:none" transform="matrix(0.35277776,0,0,-0.35277776,126.07115,147.44715)" clip-path="url(#clipPath217)"></path><path id="path218" d="M 0,0 V 22.043 H 16.626 V 16.812 H 5.636 V 13.45 h 9.059 V 8.469 H 5.636 v -3.27 h 10.99 V 0 Z" style="fill:#ffffff;fill-opacity:1;fill-rule:nonzero;stroke:none" transform="matrix(0.35277776,0,0,-0.35277776,130.55217,147.35931)" clip-path="url(#clipPath219)"></path><path id="path220" d="m 0,0 c -0.017,-0.027 -0.03,-0.058 -0.051,-0.082 -1.819,-2.042 -2.93,-4.459 -3.707,-7.048 -0.554,-1.851 -0.885,-3.744 -1.056,-5.668 -0.099,-1.122 -0.154,-2.243 -0.158,-3.369 -0.011,-3.354 0.835,-6.487 2.454,-9.411 2.415,-4.36 5.943,-7.582 10.293,-9.941 2.598,-1.408 5.361,-2.355 8.274,-2.848 1.944,-0.329 3.904,-0.433 5.873,-0.281 8.883,0.687 16.307,6.224 19.473,14.018 0.756,1.862 1.246,3.791 1.475,5.79 0.16,1.394 0.208,2.79 0.088,4.187 -0.294,3.428 -1.396,6.581 -3.327,9.427 -3.064,4.517 -7.273,7.515 -12.422,9.23 C 24.825,4.798 22.367,5.187 19.853,5.149 14.652,5.069 9.906,3.6 5.729,0.439 4.874,-0.208 4.072,-0.916 3.362,-1.722 3.255,-1.845 3.194,-1.864 3.066,-1.74 1.2,0.066 -0.672,1.868 -2.545,3.667 c -0.113,0.109 -0.111,0.165 -0.003,0.28 3.955,4.199 8.698,7.063 14.307,8.465 1.73,0.432 3.484,0.714 5.262,0.864 1.597,0.135 3.197,0.178 4.795,0.086 3.118,-0.181 6.15,-0.809 9.09,-1.86 5.331,-1.907 9.968,-4.871 13.735,-9.127 3.408,-3.852 5.594,-8.312 6.527,-13.374 0.44,-2.394 0.544,-4.808 0.403,-7.236 -0.329,-5.648 -2.016,-10.836 -5.269,-15.482 -3.22,-4.6 -7.458,-7.973 -12.553,-10.289 -2.699,-1.227 -5.521,-2.055 -8.448,-2.517 -2.41,-0.381 -4.837,-0.506 -7.271,-0.333 -10.232,0.729 -19.097,6.698 -23.524,15.608 -1.252,2.521 -2.079,5.176 -2.479,7.965 -0.325,2.266 -0.324,4.535 -0.109,6.809 0.343,3.623 1.289,7.068 3.025,10.279 1.188,2.198 2.679,4.164 4.553,5.828 0.154,0.136 0.314,0.265 0.472,0.397 C -0.021,0.02 -0.011,0.01 0,0" style="fill:#ffffff;fill-opacity:1;fill-rule:nonzero;stroke:none" transform="matrix(0.35277776,0,0,-0.35277776,76.72283,142.31439)" clip-path="url(#clipPath221)"></path><path id="path222" d="m 0,0 c 0.009,-1.328 -0.281,-2.603 -0.849,-3.788 -2.049,-4.282 -5.352,-7.042 -10.057,-7.918 -6.216,-1.157 -12.216,2.136 -14.798,8.01 -0.967,2.201 -1.395,4.501 -1.202,6.893 0.285,3.536 1.781,6.518 4.288,9.005 2.006,1.992 4.363,3.361 7.151,3.925 3.118,0.63 6.13,0.232 9.022,-1.046 3.658,-1.615 6.298,-4.259 7.838,-7.963 C 2.179,5.229 2.446,3.252 2.265,1.214 2.247,1.015 2.324,0.769 2.187,0.629 2.043,0.483 1.806,0.615 1.612,0.624 0.608,0.669 -0.395,0.741 -1.4,0.786 -1.696,0.799 -1.627,0.988 -1.612,1.148 -1.451,2.787 -1.734,4.362 -2.4,5.851 c -1.542,3.447 -4.203,5.557 -7.88,6.339 -2.758,0.587 -5.399,0.206 -7.776,-1.368 -2.623,-1.737 -4.229,-4.185 -4.714,-7.308 -0.708,-4.555 1.602,-8.619 5.386,-10.772 1.854,-1.054 3.849,-1.631 5.977,-1.679 2.945,-0.066 5.526,0.85 7.664,2.933 1.335,1.301 2.508,2.71 3.245,4.442 C -0.283,-1.058 -0.122,-0.536 0,0" style="fill:#ffffff;fill-opacity:1;fill-rule:nonzero;stroke:none" transform="matrix(0.35277776,0,0,-0.35277776,88.309074,149.01825)" clip-path="url(#clipPath223)"></path></g></svg>