<svg xmlns="http://www.w3.org/2000/svg" width="512" height="512" viewBox="0 0 512 512"><g clip-path="url(#clip0_413_166)"><path d="M303.215 257.021L303.229 242.036H240.75C239.836 239.468 238.692 236.962 237.3 234.551C235.908 232.14 234.309 229.896 232.542 227.82L263.774 173.725L250.789 166.244C218.442 147.61 178.291 147.612 146.006 166.251L133.041 173.737L164.27 227.827C160.659 232.06 157.911 236.889 156.093 242.036H93.6234L93.6094 256.993C93.5915 275.341 98.447 293.465 107.649 309.405C116.851 325.344 130.12 338.61 146.019 347.77L158.979 355.236L190.203 301.154C192.954 301.67 195.721 301.939 198.477 301.939C201.212 301.939 203.933 301.673 206.616 301.172L237.837 355.248L250.801 347.763C283.096 329.116 303.18 294.346 303.215 257.021ZM222.099 186.026L206.607 212.86C201.121 211.832 195.572 211.827 190.188 212.833L174.706 186.018C190.051 180.921 206.732 180.925 222.099 186.026ZM148.768 313.04C142.766 307.721 137.624 301.439 133.58 294.434C129.535 287.427 126.666 279.833 125.06 271.978H156.07C156.974 274.53 158.108 277.037 159.51 279.463C160.902 281.875 162.5 284.118 164.267 286.194L148.768 313.04ZM185.439 264.492C181.312 257.343 183.77 248.169 190.919 244.041C198.085 239.904 207.233 242.355 211.369 249.522C215.506 256.687 213.056 265.834 205.889 269.972C198.724 274.108 189.577 271.658 185.439 264.492ZM248.035 313.027L232.552 286.21C236.115 282.05 238.886 277.242 240.738 271.978H271.739C268.469 287.834 260.126 302.284 248.035 313.027Z"></path><path d="M464.991 393.128C460.616 379.365 449.776 368.456 436.055 363.988C429.973 328.78 399.211 301.91 362.292 301.91V30.4405H392.234V0.499023H0V30.4405H30.9396V481.559H0V511.501H452.117C485.136 511.501 512 484.637 512 451.618C512 423.016 491.844 399.033 464.991 393.128ZM332.351 421.676H60.8811V90.3236H332.351V310.68L251.296 391.735H332.351V421.676ZM332.351 30.4405V60.3821H60.8811V30.4405H332.351ZM60.8811 451.618H332.351V481.559H60.8811V451.618ZM452.117 481.559C441.603 481.559 376.538 481.559 362.292 481.559V361.793H323.581L353.523 331.852H362.292C387.057 331.852 407.205 352 407.205 376.764V391.735H422.175C430.43 391.735 437.146 398.451 437.146 406.706V421.676H452.117C468.627 421.676 482.058 435.108 482.058 451.618C482.058 468.128 468.627 481.559 452.117 481.559Z"></path></g><defs><clipPath id="clip0_413_166"><rect width="512" height="512" fill="white"></rect></clipPath></defs></svg>