<svg xmlns="http://www.w3.org/2000/svg" width="512" height="512" viewBox="0 0 512 512"><g clip-path="url(#clip0_413_238)"><path d="M482 362V302H389.42C391.085 297.305 392 292.258 392 287C392 262.187 371.813 242 347 242C341.743 242 336.693 242.906 332 244.57V0H98.786L0 98.787V422H122V452H152V512H482V452H512V362H482ZM347 272C355.271 272 362 278.729 362 287C362 295.271 355.271 302 347 302H332V287C332 278.729 338.729 272 347 272ZM272 287C272 278.729 278.729 272 287 272C295.271 272 302 278.729 302 287V302H287C278.729 302 272 295.271 272 287ZM90 51.213V90H51.213L90 51.213ZM122 362V392H30V120H120V30H302V244.58C297.305 242.915 292.258 242 287 242C262.187 242 242 262.187 242 287C242 292.258 242.915 297.305 244.58 302H152V362H122ZM182 452H242V422C232.487 422 162.434 422 152 422V392H242V362H182V332H302V482H182V452ZM482 422C470.664 422 392.222 422 362 422V452H452V482H332V332H452V362H362V392H482V422Z"></path></g><defs><clipPath id="clip0_413_238"><rect width="512" height="512" fill="white"></rect></clipPath></defs></svg>