<svg xmlns="http://www.w3.org/2000/svg" width="512" height="512" viewBox="0 0 512 512"><g clip-path="url(#clip0_413_197)"><path d="M241 45V60H271V45C271 36.729 277.729 30 286 30H301V0H286C274.483 0 263.968 4.354 256 11.495C248.032 4.354 237.517 0 226 0H211V30H226C234.271 30 241 36.729 241 45Z"></path><path d="M121 107V122H151V107C151 98.729 157.729 92 166 92H181V62H166C154.483 62 143.968 66.354 136 73.495C128.032 66.354 117.517 62 106 62H91V92H106C114.271 92 121 98.729 121 107Z"></path><path d="M497 182C457.419 182 422.785 207.901 411.603 244.675C399.486 238.586 386.087 233.237 371.531 228.691C375.148 220.428 377.066 211.437 377.066 202.147C377.066 192.474 380.833 183.38 387.672 176.541L425.705 138.508L404.492 117.295L366.459 155.328C359.619 162.168 350.525 165.934 340.853 165.934C323.167 165.934 306.539 172.821 294.033 185.328L293.123 186.238C280.998 183.439 268.553 182 256 182C222.372 182 190.302 192.016 163.126 210.647L148.481 188.679L123.519 205.32L139.338 229.049C125.22 233.518 112.199 238.744 100.397 244.675C89.215 207.901 54.581 182 15 182H0V512H512V182H497ZM347.382 195.618C346.669 202.945 348.484 215.73 336.46 227.754L298.427 265.787L277.214 244.574L315.247 206.541C327.433 194.353 340.489 196.289 347.382 195.618ZM266.907 212.454L234.787 244.574L298.427 308.214L353.208 253.433L354.715 254.959L358.419 256.055C376.022 261.264 391.667 267.67 405.075 275.147L403.06 285.224C397.637 312.328 373.641 332 346 332H166C138.359 332 114.363 312.328 108.941 285.224L106.926 275.146C120.334 267.669 135.979 261.263 153.582 256.054L157.286 254.958L160 252.21C185.604 226.28 219.698 212 256 212C259.651 212 263.288 212.163 266.907 212.454ZM482 482H30V213.897C51.51 219.44 68.628 236.627 73.059 258.776L79.525 291.107C87.74 332.185 124.108 362 166 362H346C387.892 362 424.26 332.185 432.476 291.107L438.942 258.777C443.372 236.627 460.49 219.44 482.001 213.897V482H482Z"></path><path d="M91 392H121V422H91V392Z"></path><path d="M181 272H211V302H181V272Z"></path><path d="M151 422H181V452H151V422Z"></path></g><defs><clipPath id="clip0_413_197"><rect width="512" height="512" fill="white"></rect></clipPath></defs></svg>