<svg xmlns="http://www.w3.org/2000/svg" xmlns:xlink="http://www.w3.org/1999/xlink" xmlns:serif="http://www.serif.com/" width="100%" height="100%" viewBox="0 0 18 18" xml:space="preserve" style="fill-rule:evenodd;clip-rule:evenodd;stroke-linejoin:round;stroke-miterlimit:2;">    <g transform="matrix(1,0,0,1,-76,-134)">        <g>            <path d="M78,137.5C78.828,137.5 79.5,136.828 79.5,136C79.5,135.172 78.828,134.5 78,134.5C77.172,134.5 76.5,135.172 76.5,136C76.5,136.828 77.172,137.5 78,137.5ZM78,136.5C77.724,136.5 77.5,136.276 77.5,136C77.5,135.724 77.724,135.5 78,135.5C78.276,135.5 78.5,135.724 78.5,136C78.5,136.276 78.276,136.5 78,136.5Z"></path>            <path d="M85,137.5C85.828,137.5 86.5,136.828 86.5,136C86.5,135.172 85.828,134.5 85,134.5C84.172,134.5 83.5,135.172 83.5,136C83.5,136.828 84.172,137.5 85,137.5ZM85,136.5C84.724,136.5 84.5,136.276 84.5,136C84.5,135.724 84.724,135.5 85,135.5C85.276,135.5 85.5,135.724 85.5,136C85.5,136.276 85.276,136.5 85,136.5Z"></path>            <path d="M92,137.5C92.828,137.5 93.5,136.828 93.5,136C93.5,135.172 92.828,134.5 92,134.5C91.172,134.5 90.5,135.172 90.5,136C90.5,136.828 91.172,137.5 92,137.5ZM92,136.5C91.724,136.5 91.5,136.276 91.5,136C91.5,135.724 91.724,135.5 92,135.5C92.276,135.5 92.5,135.724 92.5,136C92.5,136.276 92.276,136.5 92,136.5Z"></path>            <path d="M78,144.5C78.828,144.5 79.5,143.828 79.5,143C79.5,142.172 78.828,141.5 78,141.5C77.172,141.5 76.5,142.172 76.5,143C76.5,143.828 77.172,144.5 78,144.5ZM78,143.5C77.724,143.5 77.5,143.276 77.5,143C77.5,142.724 77.724,142.5 78,142.5C78.276,142.5 78.5,142.724 78.5,143C78.5,143.276 78.276,143.5 78,143.5Z"></path>            <path d="M85,144.5C85.828,144.5 86.5,143.828 86.5,143C86.5,142.172 85.828,141.5 85,141.5C84.172,141.5 83.5,142.172 83.5,143C83.5,143.828 84.172,144.5 85,144.5ZM85,143.5C84.724,143.5 84.5,143.276 84.5,143C84.5,142.724 84.724,142.5 85,142.5C85.276,142.5 85.5,142.724 85.5,143C85.5,143.276 85.276,143.5 85,143.5Z"></path>            <path d="M92,144.5C92.828,144.5 93.5,143.828 93.5,143C93.5,142.172 92.828,141.5 92,141.5C91.172,141.5 90.5,142.172 90.5,143C90.5,143.828 91.172,144.5 92,144.5ZM92,143.5C91.724,143.5 91.5,143.276 91.5,143C91.5,142.724 91.724,142.5 92,142.5C92.276,142.5 92.5,142.724 92.5,143C92.5,143.276 92.276,143.5 92,143.5Z"></path>            <path d="M78,151.5C78.828,151.5 79.5,150.828 79.5,150C79.5,149.172 78.828,148.5 78,148.5C77.172,148.5 76.5,149.172 76.5,150C76.5,150.828 77.172,151.5 78,151.5ZM78,150.5C77.724,150.5 77.5,150.276 77.5,150C77.5,149.724 77.724,149.5 78,149.5C78.276,149.5 78.5,149.724 78.5,150C78.5,150.276 78.276,150.5 78,150.5Z"></path>            <path d="M85,151.5C85.828,151.5 86.5,150.828 86.5,150C86.5,149.172 85.828,148.5 85,148.5C84.172,148.5 83.5,149.172 83.5,150C83.5,150.828 84.172,151.5 85,151.5ZM85,150.5C84.724,150.5 84.5,150.276 84.5,150C84.5,149.724 84.724,149.5 85,149.5C85.276,149.5 85.5,149.724 85.5,150C85.5,150.276 85.276,150.5 85,150.5Z"></path>            <path d="M92,151.5C92.828,151.5 93.5,150.828 93.5,150C93.5,149.172 92.828,148.5 92,148.5C91.172,148.5 90.5,149.172 90.5,150C90.5,150.828 91.172,151.5 92,151.5ZM92,150.5C91.724,150.5 91.5,150.276 91.5,150C91.5,149.724 91.724,149.5 92,149.5C92.276,149.5 92.5,149.724 92.5,150C92.5,150.276 92.276,150.5 92,150.5Z"></path>        </g>    </g></svg>