<svg xmlns="http://www.w3.org/2000/svg" xmlns:xlink="http://www.w3.org/1999/xlink" xmlns:serif="http://www.serif.com/" width="100%" height="100%" viewBox="0 0 22 21" xml:space="preserve" style="fill-rule:evenodd;clip-rule:evenodd;stroke-linejoin:round;stroke-miterlimit:2;">    <g transform="matrix(1,0,0,1,-144,-100)">        <g transform="matrix(1,0,0,1,142.856,99.0517)">            <path d="M12,18.315L17.925,21.437C18.093,21.526 18.298,21.511 18.452,21.4C18.606,21.288 18.683,21.098 18.651,20.91L17.516,14.297C17.516,14.297 22.328,9.613 22.328,9.613C22.464,9.48 22.513,9.282 22.455,9.101C22.396,8.919 22.239,8.787 22.051,8.76L15.411,7.798C15.411,7.798 12.441,1.781 12.441,1.781C12.357,1.61 12.183,1.502 11.993,1.502C11.803,1.502 11.629,1.61 11.545,1.781L8.575,7.798C8.575,7.798 1.935,8.76 1.935,8.76C1.747,8.787 1.59,8.919 1.531,9.101C1.473,9.282 1.522,9.48 1.658,9.613L6.47,14.297C6.47,14.297 5.335,20.91 5.335,20.91C5.303,21.098 5.38,21.288 5.534,21.4C5.688,21.511 5.892,21.526 6.061,21.438L12,18.315ZM12.233,17.308C12.087,17.231 11.913,17.231 11.767,17.307L6.492,20.081C6.492,20.081 7.5,14.207 7.5,14.207C7.528,14.044 7.474,13.879 7.356,13.764L3.083,9.604C3.083,9.604 8.979,8.75 8.979,8.75C9.142,8.726 9.283,8.624 9.355,8.476L11.993,3.132C11.993,3.132 14.631,8.476 14.631,8.476C14.703,8.624 14.844,8.726 15.007,8.75L20.903,9.604C20.903,9.604 16.63,13.764 16.63,13.764C16.512,13.879 16.458,14.044 16.486,14.207L17.494,20.08C17.494,20.08 12.233,17.308 12.233,17.308Z"></path>        </g>    </g></svg>