<svg xmlns="http://www.w3.org/2000/svg" xmlns:xlink="http://www.w3.org/1999/xlink" xmlns:serif="http://www.serif.com/" width="100%" height="100%" viewBox="0 0 18 14" xml:space="preserve" style="fill-rule:evenodd;clip-rule:evenodd;stroke-linejoin:round;stroke-miterlimit:2;">    <g transform="matrix(1,0,0,1,-100,-104)">        <g>            <path d="M101,105.5L117,105.5C117.276,105.5 117.5,105.276 117.5,105C117.5,104.724 117.276,104.5 117,104.5L101,104.5C100.724,104.5 100.5,104.724 100.5,105C100.5,105.276 100.724,105.5 101,105.5Z"></path>            <path d="M101,111.5L117,111.5C117.276,111.5 117.5,111.276 117.5,111C117.5,110.724 117.276,110.5 117,110.5L101,110.5C100.724,110.5 100.5,110.724 100.5,111C100.5,111.276 100.724,111.5 101,111.5Z"></path>            <path d="M101,117.5L117,117.5C117.276,117.5 117.5,117.276 117.5,117C117.5,116.724 117.276,116.5 117,116.5L101,116.5C100.724,116.5 100.5,116.724 100.5,117C100.5,117.276 100.724,117.5 101,117.5Z"></path>        </g>    </g></svg>