<svg xmlns="http://www.w3.org/2000/svg" xmlns:xlink="http://www.w3.org/1999/xlink" xmlns:serif="http://www.serif.com/" width="100%" height="100%" viewBox="0 0 14 16" xml:space="preserve" style="fill-rule:evenodd;clip-rule:evenodd;stroke-linejoin:round;stroke-miterlimit:2;">    <g transform="matrix(1,0,0,1,-121,-43)">        <g>            <path d="M127.5,44L127.5,58C127.5,58.276 127.724,58.5 128,58.5C128.276,58.5 128.5,58.276 128.5,58L128.5,44C128.5,43.724 128.276,43.5 128,43.5C127.724,43.5 127.5,43.724 127.5,44Z"></path>            <path d="M133.646,51.646L127.646,57.646C127.451,57.842 127.451,58.158 127.646,58.354C127.842,58.549 128.158,58.549 128.354,58.354L134.354,52.354C134.549,52.158 134.549,51.842 134.354,51.646C134.158,51.451 133.842,51.451 133.646,51.646Z"></path>            <path d="M121.646,52.354L127.646,58.354C127.842,58.549 128.158,58.549 128.354,58.354C128.549,58.158 128.549,57.842 128.354,57.646L122.354,51.646C122.158,51.451 121.842,51.451 121.646,51.646C121.451,51.842 121.451,52.158 121.646,52.354Z"></path>        </g>    </g></svg>