<svg xmlns="http://www.w3.org/2000/svg" xmlns:xlink="http://www.w3.org/1999/xlink" xmlns:serif="http://www.serif.com/" width="100%" height="100%" viewBox="0 0 20 20" xml:space="preserve" style="fill-rule:evenodd;clip-rule:evenodd;stroke-linejoin:round;stroke-miterlimit:2;">    <g transform="matrix(1,0,0,1,-148,-132)">        <g>            <g transform="matrix(1,0,0,1,145.811,130.326)">                <path d="M12,2.5C6.757,2.5 2.5,6.757 2.5,12C2.5,17.243 6.757,21.5 12,21.5C17.243,21.5 21.5,17.243 21.5,12C21.5,6.757 17.243,2.5 12,2.5ZM12,3.5C16.691,3.5 20.5,7.309 20.5,12C20.5,16.691 16.691,20.5 12,20.5C7.309,20.5 3.5,16.691 3.5,12C3.5,7.309 7.309,3.5 12,3.5Z"></path>            </g>            <g transform="matrix(1,0,0,1,145.811,130.326)">                <path d="M11.5,7L11.5,12C11.5,12.133 11.553,12.26 11.646,12.354L14.646,15.354C14.842,15.549 15.158,15.549 15.354,15.354C15.549,15.158 15.549,14.842 15.354,14.646L12.5,11.793C12.5,11.793 12.5,7 12.5,7C12.5,6.724 12.276,6.5 12,6.5C11.724,6.5 11.5,6.724 11.5,7Z"></path>            </g>        </g>    </g></svg>