<svg xmlns="http://www.w3.org/2000/svg" xmlns:xlink="http://www.w3.org/1999/xlink" xmlns:serif="http://www.serif.com/" width="100%" height="100%" viewBox="0 0 18 10" xml:space="preserve" style="fill-rule:evenodd;clip-rule:evenodd;stroke-linejoin:round;stroke-miterlimit:2;">    <g transform="matrix(1,0,0,1,-130,-106)">        <g>            <path d="M131,107.5L147,107.5C147.276,107.5 147.5,107.276 147.5,107C147.5,106.724 147.276,106.5 147,106.5L131,106.5C130.724,106.5 130.5,106.724 130.5,107C130.5,107.276 130.724,107.5 131,107.5Z"></path>            <path d="M131,115.5L147,115.5C147.276,115.5 147.5,115.276 147.5,115C147.5,114.724 147.276,114.5 147,114.5L131,114.5C130.724,114.5 130.5,114.724 130.5,115C130.5,115.276 130.724,115.5 131,115.5Z"></path>        </g>    </g></svg>