<svg xmlns="http://www.w3.org/2000/svg" xmlns:xlink="http://www.w3.org/1999/xlink" xmlns:serif="http://www.serif.com/" width="100%" height="100%" viewBox="0 0 18 4" xml:space="preserve" style="fill-rule:evenodd;clip-rule:evenodd;stroke-linejoin:round;stroke-miterlimit:2;">    <g transform="matrix(1,0,0,1,-124,-141)">        <g>            <path d="M126,144.5C126.828,144.5 127.5,143.828 127.5,143C127.5,142.172 126.828,141.5 126,141.5C125.172,141.5 124.5,142.172 124.5,143C124.5,143.828 125.172,144.5 126,144.5ZM126,143.5C125.724,143.5 125.5,143.276 125.5,143C125.5,142.724 125.724,142.5 126,142.5C126.276,142.5 126.5,142.724 126.5,143C126.5,143.276 126.276,143.5 126,143.5Z"></path>            <path d="M133,144.5C133.828,144.5 134.5,143.828 134.5,143C134.5,142.172 133.828,141.5 133,141.5C132.172,141.5 131.5,142.172 131.5,143C131.5,143.828 132.172,144.5 133,144.5ZM133,143.5C132.724,143.5 132.5,143.276 132.5,143C132.5,142.724 132.724,142.5 133,142.5C133.276,142.5 133.5,142.724 133.5,143C133.5,143.276 133.276,143.5 133,143.5Z"></path>            <path d="M140,144.5C140.828,144.5 141.5,143.828 141.5,143C141.5,142.172 140.828,141.5 140,141.5C139.172,141.5 138.5,142.172 138.5,143C138.5,143.828 139.172,144.5 140,144.5ZM140,143.5C139.724,143.5 139.5,143.276 139.5,143C139.5,142.724 139.724,142.5 140,142.5C140.276,142.5 140.5,142.724 140.5,143C140.5,143.276 140.276,143.5 140,143.5Z"></path>        </g>    </g></svg>