<svg xmlns="http://www.w3.org/2000/svg" xmlns:xlink="http://www.w3.org/1999/xlink" xmlns:serif="http://www.serif.com/" width="100%" height="100%" viewBox="0 0 14 14" xml:space="preserve" style="fill-rule:evenodd;clip-rule:evenodd;stroke-linejoin:round;stroke-miterlimit:2;">    <g transform="matrix(1,0,0,1,-85,-76)">        <g>            <path d="M97.646,76.646L85.646,88.646C85.451,88.842 85.451,89.158 85.646,89.354C85.842,89.549 86.158,89.549 86.354,89.354L98.354,77.354C98.549,77.158 98.549,76.842 98.354,76.646C98.158,76.451 97.842,76.451 97.646,76.646Z"></path>            <path d="M85.646,77.354L97.646,89.354C97.842,89.549 98.158,89.549 98.354,89.354C98.549,89.158 98.549,88.842 98.354,88.646L86.354,76.646C86.158,76.451 85.842,76.451 85.646,76.646C85.451,76.842 85.451,77.158 85.646,77.354Z"></path>        </g>    </g></svg>