<svg xmlns="http://www.w3.org/2000/svg" xmlns:xlink="http://www.w3.org/1999/xlink" xmlns:serif="http://www.serif.com/" width="100%" height="100%" viewBox="0 0 10 16" xml:space="preserve" style="fill-rule:evenodd;clip-rule:evenodd;stroke-linejoin:round;stroke-miterlimit:2;">    <g transform="matrix(1,0,0,1,-41,-75)">        <g>            <path d="M45.5,76L45.5,90C45.5,90.276 45.724,90.5 46,90.5C46.276,90.5 46.5,90.276 46.5,90L46.5,76C46.5,75.724 46.276,75.5 46,75.5C45.724,75.5 45.5,75.724 45.5,76Z"></path>            <path d="M49.646,85.646L45.646,89.646C45.451,89.842 45.451,90.158 45.646,90.354C45.842,90.549 46.158,90.549 46.354,90.354L50.354,86.354C50.549,86.158 50.549,85.842 50.354,85.646C50.158,85.451 49.842,85.451 49.646,85.646Z"></path>            <path d="M41.646,86.354L45.646,90.354C45.842,90.549 46.158,90.549 46.354,90.354C46.549,90.158 46.549,89.842 46.354,89.646L42.354,85.646C42.158,85.451 41.842,85.451 41.646,85.646C41.451,85.842 41.451,86.158 41.646,86.354Z"></path>        </g>    </g></svg>