<svg xmlns="http://www.w3.org/2000/svg" xmlns:xlink="http://www.w3.org/1999/xlink" xmlns:serif="http://www.serif.com/" width="100%" height="100%" viewBox="0 0 16 10" xml:space="preserve" style="fill-rule:evenodd;clip-rule:evenodd;stroke-linejoin:round;stroke-miterlimit:2;">    <g transform="matrix(1,0,0,1,-14,-78)">        <g>            <path d="M15,83.5L29,83.5C29.276,83.5 29.5,83.276 29.5,83C29.5,82.724 29.276,82.5 29,82.5L15,82.5C14.724,82.5 14.5,82.724 14.5,83C14.5,83.276 14.724,83.5 15,83.5Z"></path>            <path d="M25.354,87.354L29.354,83.354C29.549,83.158 29.549,82.842 29.354,82.646C29.158,82.451 28.842,82.451 28.646,82.646L24.646,86.646C24.451,86.842 24.451,87.158 24.646,87.354C24.842,87.549 25.158,87.549 25.354,87.354Z"></path>            <path d="M24.646,79.354L28.646,83.354C28.842,83.549 29.158,83.549 29.354,83.354C29.549,83.158 29.549,82.842 29.354,82.646L25.354,78.646C25.158,78.451 24.842,78.451 24.646,78.646C24.451,78.842 24.451,79.158 24.646,79.354Z"></path>        </g>    </g></svg>