<svg xmlns="http://www.w3.org/2000/svg" xmlns:xlink="http://www.w3.org/1999/xlink" xmlns:serif="http://www.serif.com/" width="100%" height="100%" viewBox="0 0 16 14" xml:space="preserve" style="fill-rule:evenodd;clip-rule:evenodd;stroke-linejoin:round;stroke-miterlimit:2;">    <g transform="matrix(1,0,0,1,-96,-44)">        <g>            <path d="M97,51.5L111,51.5C111.276,51.5 111.5,51.276 111.5,51C111.5,50.724 111.276,50.5 111,50.5L97,50.5C96.724,50.5 96.5,50.724 96.5,51C96.5,51.276 96.724,51.5 97,51.5Z"></path>            <path d="M96.646,51.354L102.646,57.354C102.842,57.549 103.158,57.549 103.354,57.354C103.549,57.158 103.549,56.842 103.354,56.646L97.354,50.646C97.158,50.451 96.842,50.451 96.646,50.646C96.451,50.842 96.451,51.158 96.646,51.354Z"></path>            <path d="M97.354,51.354L103.354,45.354C103.549,45.158 103.549,44.842 103.354,44.646C103.158,44.451 102.842,44.451 102.646,44.646L96.646,50.646C96.451,50.842 96.451,51.158 96.646,51.354C96.842,51.549 97.158,51.549 97.354,51.354Z"></path>        </g>    </g></svg>