<svg xmlns="http://www.w3.org/2000/svg" xmlns:xlink="http://www.w3.org/1999/xlink" xmlns:serif="http://www.serif.com/" width="100%" height="100%" viewBox="0 0 18 20" xml:space="preserve" style="fill-rule:evenodd;clip-rule:evenodd;stroke-linejoin:round;stroke-miterlimit:2;">    <g transform="matrix(1,0,0,1,-134,-9)">        <g>            <path d="M143,21.5C144.933,21.5 146.5,19.933 146.5,18C146.5,16.067 144.933,14.5 143,14.5C141.067,14.5 139.5,16.067 139.5,18C139.5,19.933 141.067,21.5 143,21.5ZM143,20.5C141.619,20.5 140.5,19.381 140.5,18C140.5,16.619 141.619,15.5 143,15.5C144.381,15.5 145.5,16.619 145.5,18C145.5,19.381 144.381,20.5 143,20.5Z"></path>            <path d="M149.011,24.011C150.199,22.822 151.009,21.307 151.336,19.658C151.665,18.009 151.497,16.3 150.853,14.747C150.209,13.194 149.12,11.867 147.723,10.933C147.723,10.933 147.723,10.933 147.723,10.933C146.324,9.999 144.681,9.5 143,9.5C141.319,9.5 139.676,9.999 138.277,10.933C138.277,10.933 138.277,10.933 138.277,10.933C136.88,11.867 135.791,13.194 135.147,14.747C134.503,16.3 134.335,18.009 134.664,19.658C134.991,21.307 135.801,22.822 136.989,24.011L141.234,28.254C141.702,28.722 142.337,28.985 143.001,28.985C143.664,28.985 144.299,28.722 144.767,28.254L149.011,24.011ZM148.303,23.303L144.061,27.546C143.779,27.827 143.398,27.985 143.001,27.985C142.603,27.985 142.222,27.827 141.94,27.546C141.94,27.546 137.697,23.303 137.697,23.303C136.648,22.255 135.933,20.918 135.644,19.464C135.644,19.463 135.644,19.463 135.644,19.463C135.355,18.008 135.503,16.501 136.071,15.13C136.639,13.76 137.6,12.588 138.833,11.764C140.067,10.94 141.517,10.5 143,10.5C144.483,10.5 145.933,10.94 147.167,11.764C148.4,12.588 149.361,13.76 149.929,15.13C150.497,16.501 150.645,18.008 150.356,19.463C150.356,19.463 150.356,19.463 150.356,19.464C150.067,20.918 149.352,22.255 148.303,23.303Z"></path>        </g>    </g></svg>